/* XPM */
static char *blood1[] = {
/* width height ncolors chars_per_pixel */
"10 10 57 2",
/* colors */
"`` c None",
"`a c #250000",
"`b c #415050",
"`c c #013232",
"`d c #000606",
"`e c #0E2E2E",
"`f c #60C0C0",
"`g c #002020",
"`h c #102222",
"`i c #4D5454",
"`j c #043737",
"`k c #000505",
"`l c #65A0A0",
"`m c #7ED6D6",
"`n c #196969",
"`o c #0C4545",
"`p c #642525",
"`q c #385C5C",
"`r c #002525",
"`s c #6D8686",
"`t c #354F4F",
"`u c #5A7D7D",
"`v c #030A0A",
"`w c #001E1E",
"`x c #71B1B1",
"`y c #274E4E",
"`z c #287373",
"a` c #0D1A1A",
"aa c #053333",
"ab c #001717",
"ac c #374343",
"ad c #000303",
"ae c #070000",
"af c #537272",
"ag c #520B0B",
"ah c #0C3636",
"ai c #297D7D",
"aj c #AF5C5C",
"ak c #003737",
"al c #010000",
"am c #042727",
"an c #0C3C3C",
"ao c #000202",
"ap c #042020",
"aq c #419A9A",
"ar c #420707",
"as c #064949",
"at c #071212",
"au c #1D4F4F",
"av c #154747",
"aw c #000101",
"ax c #264747",
"ay c #002828",
"az c #000707",
"b` c #364949",
"ba c #001414",
"bb c #002121",
/* pixels */
"```````k`aamaeal````",
"````arahauai`nag`c``",
"``aw`o`zaqafajaxam`r",
"``akav`q`f`m`lb`anay",
"```dahac`u`x`s`t`hab",
"```aat`y`b`iaqai`ebb",
"```gaaah`p`yava``jba",
"````ad`c`vasaaap````",
"``````aeaz`waoae````",
"````````````````````"
};
