/* XPM */
static char *blood5[] = {
/* width height ncolors chars_per_pixel */
"24 24 90 1",
/* colors */
"  c #000000",
". c #4C7272",
"X c #325F5F",
"o c #000D0D",
"O c #506262",
"+ c #212A2A",
"@ c #105151",
"# c #000606",
"$ c #003434",
"% c #0E2E2E",
"& c #270808",
"* c #001313",
"= c #196A6A",
"- c #142020",
"; c #1F0000",
": c #2F3737",
"> c #002D2D",
", c #000C0C",
"< c #163535",
"1 c #6F8989",
"2 c #020707",
"3 c #000505",
"4 c #052E2E",
"5 c #012A2A",
"6 c #385656",
"7 c #040202",
"8 c #2B8181",
"9 c #040F0F",
"0 c #093838",
"q c #000B0B",
"w c #033232",
"e c #001818",
"r c #485858",
"t c #092424",
"y c #425252",
"u c #739999",
"i c #490D0D",
"p c #030A0A",
"a c #001E1E",
"s c #142B2B",
"d c #71B1B1",
"f c #8DA5A5",
"g c #6EC5C5",
"h c #001717",
"j c #013C3C",
"k c #002424",
"l c #031D1D",
"z c #1B5C5C",
"x c #011B1B",
"c c #000303",
"v c #0F1515",
"b c #AC6A6A",
"n c #120E0E",
"m c #001010",
"M c #282A2A",
"N c #5FA5A5",
"B c #606E6E",
"V c #054646",
"C c #225252",
"Z c #003737",
"A c #001616",
"S c #241F1F",
"D c #042727",
"F c #0C3C3C",
"G c #1E4747",
"H c #011A1A",
"J c #000F0F",
"K c #3E8787",
"L c #5E3030",
"P c #042020",
"I c #0F0000",
"U c #4E9090",
"Y c #031515",
"T c #8A5B5B",
"R c #000808",
"E c #041919",
"W c #0C5C5C",
"Q c #001515",
"! c #233434",
"~ c #000101",
"^ c #3C1B1B",
"/ c #044040",
"( c #637979",
") c #085151",
"_ c #2D6B6B",
"` c #364949",
"' c #002121",
"] c #0C4747",
"[ c #213E3E",
"{ c None",
/* pixels */
"{{{{{{{{{c#'>Jon{{{{{{{{",
"{{{{{{{Q*j/l9'jS e{{{{{{",
"{{{{{#qh+w))vWw4pkjA{{{{",
"{{{{qZklD0@v=@[W42m#c{{{",
"{{{Qw&IW-<zC8[_==nlxo'{{",
"{{{R>Y&=r__KT`_8LS]PV4{{",
"{{tapV`=KKKb.rNL8Cs-&';{",
"{{5Z&WL8U1bNBddbXM-0Mj>{",
"{;7Iiz=81dTguugbyXG%);~n",
"{*Z^0v!6KNgffd1(O`S-F4ox",
"{q*i9<+6.NuugguB.6+-9DHe",
"{q'&9<+:rBB(dbdOy`!s9PA,",
"{R*ZY-[[y.BBuTdUKC!v9Z$e",
"{nHlx-Cz`yO.OUTLLL--YHIH",
"{q'kY9@<!:Xryy6_8=vVPR>I",
"{{h;YV]<s!X_X`MCC%F^53;{",
"{{35$j/DG^^z[S!zi9&/J#3{",
"{{{R>&j4V]i@<%]:VE0,m;{{",
"{{{c#m$%/9wV^)M255'#a{{{",
"{{{{q,3RqR77EED5#oc3 {{{",
"{{{{{pahc*ARkoJ,,qx{{{{{",
"{{{{{{{{xh{cQx{qIm{{{{{{",
"{{{{{{{{{,JImRoc{{{{{{{{",
"{{{{{{{{{{{{{{{{{{{{{{{{"
};
