/* XPM */
static char *blood4[] = {
/* width height ncolors chars_per_pixel */
"20 20 89 1",
/* colors */
"  c #000000",
". c #002E2E",
"X c #250000",
"o c #000D0D",
"O c #212A2A",
"+ c #013232",
"@ c #571010",
"# c #0D5858",
"$ c #000606",
"% c #196A6A",
"& c #60C0C0",
"* c #002020",
"= c #2E6E6E",
"- c #0A1616",
"; c #77D3D3",
": c #000C0C",
"> c #549393",
", c #001919",
"< c #002626",
"1 c #043737",
"2 c #000505",
"3 c #052E2E",
"4 c #044444",
"5 c #012A2A",
"6 c #001212",
"7 c #385656",
"8 c #0C4545",
"9 c #030404",
"0 c #001818",
"q c #142525",
"w c #485858",
"e c #000404",
"r c #340909",
"t c #739999",
"y c #264A4A",
"u c #094B4B",
"i c #001E1E",
"p c #040E0E",
"a c #000A0A",
"s c #648D8D",
"d c #053333",
"f c #001717",
"g c #418888",
"h c #374343",
"j c #040707",
"k c #031D1D",
"l c #000303",
"z c #070000",
"x c #AC6A6A",
"c c #120E0E",
"v c #001010",
"b c #6A7878",
"n c #0C3636",
"m c #000909",
"M c #003737",
"N c #446666",
"B c #042727",
"V c #002323",
"C c #295555",
"Z c #000202",
"A c #0E2A2A",
"S c #287878",
"D c #63A8A8",
"F c #042020",
"G c #567777",
"H c #001C1C",
"J c #8A5B5B",
"K c #419A9A",
"L c #064949",
"P c #001515",
"I c #194B4B",
"U c #1D2E2E",
"Y c #2D8686",
"T c #3C1B1B",
"R c #123A3A",
"E c #023E3E",
"W c #693030",
"Q c #3C5656",
"! c #242424",
"~ c #2C3939",
"^ c #0C4141",
"/ c #031414",
"( c #063B3B",
") c #020909",
"_ c #000707",
"` c #364949",
"' c #001414",
"] c #213E3E",
"[ c None",
/* pixels */
"[[[[[[[_ v*m35[[[[[[",
"[[[[[62EX4B1zE 5[[[[",
"[[[[P:+B#^A^ndjPo[[[",
"[[[3rTnAIIS!%T@/+A[[",
"[[Xm/r%S=gJhYYT85fa[",
"[[ F8`SWKJGNxKyqBz<[",
"[P<L#SWW&Ds;&gCU^!Vz",
"[HMrI]7>&x;bDs`](L<i",
"[0M3R~`>st;DbN7OqF.*",
"[_$BnOhNGbDxsw`Uq)fl",
"[6<p-]`wNGsJDg=O-kMz",
"[zXp/Ry`QwwGKWSqA9*f",
"[:<:kuR!C=7~`y%A!'.:",
"[[*+d4n#W=y~IC-u1m'[",
"[[2HXE3c#@RA~@p(m*p[",
"[[[ l.+k)3LrdEF,[H[[",
"[[[[6H$Pim<$*af2 [[[",
"[[[[[[z6_eiiZmzo[[[[",
"[[[[[[[l6cmol2[[[[[[",
"[[[[[[[[[[[[[[[[[[[["
};
