/* XPM */
static char *blood10[] = {
/* width height ncolors chars_per_pixel */
"60 60 92 1",
/* colors */
"  c #000000",
". c #020F0F",
"X c #000D0D",
"o c #7F9A9A",
"O c #571010",
"+ c #70D0D0",
"@ c #000606",
"# c #121111",
"$ c #001313",
"% c #236060",
"& c #1F0000",
"* c #002020",
"= c #002D2D",
"- c #637777",
"; c #001919",
": c #206D6D",
"> c #163535",
", c #020707",
"< c #023535",
"1 c #437878",
"2 c #044444",
"3 c #001212",
"4 c #022121",
"5 c #091E1E",
"6 c #1D2B2B",
"7 c #114040",
"8 c #000B0B",
"9 c #366E6E",
"0 c #7ACBCB",
"q c #0D4949",
"w c #021A1A",
"e c #233737",
"r c #171E1E",
"t c #6A8D8D",
"y c #474D4D",
"u c #2F3C3C",
"i c #000404",
"p c #354F4F",
"a c #0A2828",
"s c #012929",
"d c #364646",
"f c #5B6767",
"g c #0F0202",
"h c #001E1E",
"j c #183C3C",
"k c #325C5C",
"l c #000A0A",
"z c #053333",
"x c #115959",
"c c #022626",
"v c #031D1D",
"b c #001010",
"n c #0C1515",
"m c #102626",
"M c #AF5C5C",
"N c #033030",
"B c #2E0808",
"V c #285151",
"C c #001616",
"Z c #4A5858",
"A c #0C3C3C",
"S c #5AB0B0",
"D c #7FB0B0",
"F c #000202",
"G c #000F0F",
"H c #176464",
"J c #001C1C",
"K c #031515",
"L c #081010",
"P c #713232",
"I c #1E1F1F",
"U c #4F6666",
"Y c #000808",
"T c #420707",
"R c #064949",
"E c #001515",
"W c #322525",
"Q c #0D3232",
"! c #154747",
"~ c #328181",
"^ c #000101",
"/ c #023E3E",
"( c #085151",
") c #204E4E",
"_ c #906D6D",
"` c #060D0D",
"' c #063B3B",
"] c #000707",
"[ c #050202",
"{ c #609393",
"} c #4A9191",
"| c None",
/* pixels */
"||||||||||||||||||||||||||||||||||||||||||||||||||||||||||||",
"||||||||||||||||||||||||GXXJccsNcCF@G|||||||||||||||||||||||",
"|||||||||||||||||||||]l$^XXGEh*$]ls<NN4s||||||||||||||||||||",
"||||||||||||||||||4@|iw4*sGXE3iY^CcT&[&BsJh|||||||||||||||||",
"||||||||||||||||*FG@$</26/<s;..lv4s//AT& [=XC|||||||||||||||",
"|||||||||||||||3Gl@$s/7&&q(2/<cl4<Bg[6///B &=s||||||||||||||",
"||||||||||||||FX@@;s2>/'R(((RzalNxB((RNh4<=<&[BE||||||||||||",
"||||||||||||8XX3$;NR2NN'R(x(75LQxOA5L`,li.*J*=shY|||||||||||",
"|||||||||||iEs=X@KN2zcaQ(xx77mQdH7#5Qq7z4K,l^E*GXi||||||||||",
"||||||||||ls<<<4XK4aaQQAqqmrm6HPxjr7qqx(N4w`l3$3@Fi|||||||||",
"|||||||||GB&B<2/v`LL5Q>rm>>>!%9:)m7)xxHOxq<4.K=sCGbE||||||||",
"||||||||bN&mTgBWzaQQ#mr6))%)%%~~VIjHHH%WHyO(zKlCNl*m[|||||||",
"|||||||Cg==m2szT(uOx>mj%V%:VV:1~VeV:%HkOpxHT(4w3s<3BBh||||||",
"|||||||gbb</v.NT)BOHHH%:::999~y~pukk:%:WOHHBxAa.z/s8BJ||||||",
"||||||&3Fl=vKL'BOy:PZ~:%991}}P_}kdp9~~~~PPWOPqc`sR2Chhl|||||",
"|||||3C8J@..Ka7Hp:x~WU~k91}}y}}1Zy9}fP}1~y:HH7n,s22<@gC]||||",
"|||||5l3h3,,47(x%::~UP~11}}MS}-UUZ1}tP-}1~%xxmnL4'W/sGBh||||",
"||||$4^;i4K4qOVpk::~~P}}}}o_StUUZU}MM}P}~:)j7m#5c'Bg/hc&X|||",
"||||b*@F*N<O#TWIP:~9}_y}}S_S{tf-ttSM_PP}9p)I6r#mQ/Rg/s|[h|||",
"||||#sEc<gB!xHHyPP~~}}PSSMS{{tft{SSDMPt}kue66mrm7R6&I=$=#|||",
"|||E <cB&Rjuxx):W6PuyP_{SMSD{ot-D+0SS-S}dkkue6rm7(TIB/4C*[||",
"|||5&m<TTje#Ox):91-fPMMoDM+0{ot-oDSSSMM}ykkk)jmmq(WRg[s^C&||",
"|||hg&/g&BTOyx)%k:9}}SSSSM_+00Do-ooDSSS}Zy9kV)6mq((R6BcFX4||",
"||3JB&<IBT(q!7jjedk1}}SSSD__000+D--{{{StUydp)jrrAqAR2<s@lhG|",
"||X;&<B2TRQm5rmeudpZ}SSSD0+D__D00o--tt-UZZpueI6rmQAz<=<XXJw|",
"||]*==B6RN5Lmm6jeupZ1SS{{DD000_D+Do-fffZU9kde6jm#5Azc=/4|*#|",
"||i;hJ<[ANLm>mreedpy1}S{{{ooD00-0Doo-f-UU1kpu66mmn544c=*^*w|",
"||G]Xlh22cLA!rrI)kpy1t}{{ttooD0__+0{tffU11pue6e6rmL`v=4ElCC|",
"||Ci8FX/Ranq!rrjVpdy1-ttt-ttoo00_++D{fUUZyuuujj>mm5,4=J$Fl;|",
"||$]J*@22cLQQ>r6uudyZUU--f---oD0__+DtfUZZZpue666m5Ll.sCC|i*|",
"||;3*J^N2wLmmrre6udpZZZZff--toD+_oD{-fUZZ9pde6rmmnLLw<=h$X;|",
"||;bJ$l/N.n5mr6j)uddyZUUff-ft{D0_+S{t--119kVejrr55LLN<<=s*]|",
"||h$XXcB3`Lnn#>jVVdupZUUU---fft{S_SDS}}}}~:)e6r#5L,vc/<rg[]|",
"||C;FY=<iwLLn#7)):VupZyZU-Ut-f--{SfM_{t-P}~kj6r#nL,.4<=&c4$|",
"||]&Xw<=YKwL55>))%VeppdZUUUUUZZU-}-_-PyPyPP:)m#nm4Kl4C4g**&|",
"||lg@*&=X.4wLQ>7!)V6dpdZyZZZZZZZUU1}}__PPW~H7r#5Q4vilX*g*CG|",
"|||g@s&=EXv4Lm7!77jIuduuyyZZZZZZZZZk11~~PPy%7rmA'avll3cc$3||",
"|||33$r<;Y.w`5Aq!j666eedkkkkZyyyyddpk9:%%:P)Q5AqR/cii]=cXw||",
"|||XXXcgNXlKvz7q!!jmII6uVpk999pdduuddkVV):Hj#Q(6I64$lb=c;X||",
"||||8CJ=B4KKzRRqq!>m6I6)%k:999kdud)eu)V))r755AWBIAs$FXs& |||",
"||||^X*mNN*czA((qAQ>76j)%:::%::)eVu6e))Hyxm#m7BT2=h]FF**]|||",
"||||@Y*sNN=Nz<R2QQQQ7xHHPWy:VVVeIe66!xxV#q5Lz(BW<s$lY|$XX|||",
"||||||Xh==mIB//2zaA7qOOHpVO%)jjjmrmjxxyOuq55'g&<s;llY]^i||||",
"||||||FEwBg&zgT2Naa7qBx!VPIH!>j>6rr!VOu)(QLa'IQc;XYlJwXY||||",
"||||||@|FJ==&&&/ccN<R#qqxOOO!7>j>mQquOeORN`4s'NCl8b*#&L|||||",
"|||||||^|^E;N[Bm<NN2BRamAqqOuxxqqA7xWB#O'`KvcN4$X8$#$g||||||",
"|||||||^ii@bE=<BBBIB2<an477jj(B((qq#j,,TN,vs44*CY;*gC@||||||",
"||||||||i^^8i3*=mNN'Nvw`lc4Na'RTOBT'zR,/ci4c*wX@|3hJi|||||||",
"|||||||||Fi||iXX$wChKli,,iKKL4z<''sv4<'zCb*wXliYlhJ]||||||||",
"||||||||||l]XXi@FFX]8F@@iili,Kw.wKvccccC@CCl^i|]83 |||||||||",
"|||||||||||X3;CJXi@i@E4hhCKYwscKl@Kv*JCllhC||@@l^l||||||||||",
"||||||||||||X&&;CGXXlG;;wh3l$h=cbilC;EGYC$@XEw$K^|||||||||||",
"|||||||||||||l3Lh;CCli]lX$]83E*c;$]@X]^8iFX;#gg|||||||||||||",
"||||||||||||||||iE[&h3bb]l^iGwh4ch;XFiFl$h[CCX||||||||||||||",
"||||||||||||||||^i]3J#wCG|@|@]E$hCl|lYb;gbX.]|||||||||||||||",
"||||||||||||||||||@^F@Xwg#E$8l33@|i^Y3C;3 @|||||||||||||||||",
"|||||||||||||||||||||i^l3LL#CGll@XY@i^l@||||||||||||||||||||",
"||||||||||||||||||||||||G@iYl8bggb,[[|||||||||||||||||||||||",
"||||||||||||||||||||||||||||||||||||||||||||||||||||||||||||",
"||||||||||||||||||||||||||||||||||||||||||||||||||||||||||||"
};
