/* XPM */
static char *blood6[] = {
/* width height ncolors chars_per_pixel */
"30 30 183 2",
/* colors */
"`` c None",
"`a c #102A2A",
"`b c #002E2E",
"`c c #689494",
"`d c #250000",
"`e c #000D0D",
"`f c #5D1616",
"`g c #415050",
"`h c #212A2A",
"`i c #010404",
"`j c #013232",
"`k c #3C9090",
"`l c #251A1A",
"`m c #095454",
"`n c #190101",
"`o c #70D0D0",
"`p c #000606",
"`q c #003434",
"`r c #0E2E2E",
"`s c #001313",
"`t c #115555",
"`u c #213030",
"`v c #60C0C0",
"`w c #0F0404",
"`x c #002020",
"`y c #165D5D",
"`z c #636A6A",
"a` c #072A2A",
"aa c #445C5C",
"ab c #6C7676",
"ac c #000C0C",
"ad c #549393",
"ae c #001919",
"af c #102222",
"ag c #4D5454",
"ah c #002626",
"ai c #163535",
"aj c #043737",
"ak c #4F6363",
"al c #000505",
"am c #65A0A0",
"an c #052E2E",
"ao c #041616",
"ap c #044444",
"aq c #76C1C1",
"ar c #7ED6D6",
"as c #001212",
"at c #196969",
"au c #385656",
"av c #0C4545",
"aw c #767F7F",
"ax c #642525",
"ay c #360505",
"az c gray28",
"b` c #000B0B",
"ba c #030404",
"bb c #001818",
"bc c #944040",
"bd c #280404",
"be c #0A0E0E",
"bf c #385C5C",
"bg c #002525",
"bh c #6D8686",
"bi c #407E7E",
"bj c #000404",
"bk c #354F4F",
"bl c #739999",
"bm c #001111",
"bn c #5A7D7D",
"bo c #347272",
"bp c #030A0A",
"bq c #5AABAB",
"br c #001E1E",
"bs c #6E3B3B",
"bt c #71B1B1",
"bu c #183C3C",
"bv c #274E4E",
"bw c #266464",
"bx c #000A0A",
"by c #287373",
"bz c #0D1A1A",
"c` c #2B3E3E",
"ca c #053333",
"cb c #121515",
"cc c #270C0C",
"cd c #001717",
"ce c #253838",
"cf c #418888",
"cg c #374343",
"ch c #013C3C",
"ci c #040707",
"cj c #031D1D",
"ck c #192C2C",
"cl c #000303",
"cm c #070000",
"cn c #164040",
"co c #537272",
"cp c #5B8787",
"cq c #120E0E",
"cr c #032A2A",
"cs c #520B0B",
"ct c #001010",
"cu c #062323",
"cv c #435555",
"cw c #0C3636",
"cx c #8EAFAF",
"cy c #282A2A",
"cz c #001D1D",
"d` c #0C1515",
"da c #515C5C",
"db c #1B5555",
"dc c #297D7D",
"dd c #002A2A",
"de c #2B3030",
"df c #4F3939",
"dg c #AF5C5C",
"dh c #000909",
"di c #003737",
"dj c #010000",
"dk c #001616",
"dl c #042727",
"dm c #0C3C3C",
"dn c #030F0F",
"do c #010D0D",
"dp c #002323",
"dq c #074E4E",
"dr c #0C4949",
"ds c #295555",
"dt c #5E7272",
"du c #011A1A",
"dv c #000202",
"dw c #55A1A1",
"dx c #000F0F",
"dy c #176464",
"dz c #042020",
"e` c #0F0000",
"ea c #001C1C",
"eb c #8A5B5B",
"ec c #419A9A",
"ed c #000808",
"ee c #205C5C",
"ef c #420707",
"eg c #064949",
"eh c #041919",
"ei c #0C5C5C",
"ej c #001515",
"ek c #071212",
"el c #1D4F4F",
"em c #171B1B",
"en c #154747",
"eo c #2D8686",
"ep c #031B1B",
"eq c #000101",
"er c #3C1B1B",
"es c #286A6A",
"et c #044040",
"eu c #000E0E",
"ev c #264747",
"ew c #0F4E4E",
"ex c #0D1E1E",
"ey c #396A6A",
"ez c #001B1B",
"f` c gray14",
"fa c #0C4141",
"fb c #031414",
"fc c #172121",
"fd c #002828",
"fe c #060D0D",
"ff c #063B3B",
"fg c #2B5C5C",
"fh c #645C5C",
"fi c #000707",
"fj c #343A3A",
"fk c #396363",
"fl c #182525",
"fm c #364949",
"fn c #001414",
"fo c #467373",
"fp c #AA7979",
"fq c #506969",
"fr c #002121",
"fs c #1C7171",
"ft c #213E3E",
/* pixels */
"````````````````````````dx`eahddahdvdx``````````````````````",
"``````````````````dp``dufrdxej`ieqbg`n`dddbr````````````````",
"````````````````dxalddfa`ddqetdldzbdcmchchdj`b``````````````",
"````````````b``efn`japanegeifabeeidmekcibafr`xfded``````````",
"``````````bxdi`qdocua`cwdr`afldy`yemaveianehbpfnalcl````````",
"````````ct`nefbdcacwcbfcelbweedcdsftatbwdycscabp`jfrcm``````",
"````````ctdicjanel`fdybwesbobodfbkfgesby`fdyeia`caddcc``````",
"``````dkezdnaofabk`yerdceycfazcfaaeyfh`keofsatd`crapalcd````",
"````fneq`ifbavbvbfbyeoececblbqcodaaddgbceoevcncbdlbdetbg`e``",
"````cqejdibdeiataxeoecbcbq`v`c`zam`vdgbhbfde`hemfacy`l`scb``",
"`````ddiefde`fdbbodtbcdgcx`oambhbl`v`vdgazfkevfldrer`wdddk``",
"``bmaydibd`menftcebfcfbq`vfpararbtawamdwakfmevfcdmdmapfdbxdx",
"``fi`bayegbzaf`hdebkbibqambtarfp`obl`zfhakfkdebucbdmdlch``cq",
"``dxacbrapbeenfcevaufoad`cbhblarfpaqbh`zfoauceceembecjdpbxdk",
"``fnez`papekcwfcc`cgaacobnababbtfp`obhakcvbkce`uafekdncd``fr",
"``bbeabx`jd`afckevcg`gakfhdtbhbtebbqcpbnbibfcefcexekandifdfi",
"``cddv`bbaekd`cneldsau`gcocodtdt`cfhebbhbceoftemd`cidz`bbg`s",
"``dh`p`ddodzekaienbvfmfm`gagagagfqbiecebbsdccncb`rcjbpfrfrdx",
"````asembbdnfedmenck`udebffkaaazazcgbfesbwax`rdmegdl`i`bac``",
"````b`ezccfbcaegdraick`hbweseyfkc`evc`dsdbcnbzerf`crdvdddj``",
"`````p`x`j`bcaegcwcwcnataxazbvbvf``uen`ycbbzcabdajfnedfndo``",
"``````dvdue`caefana`av`tbv`lenbuckfcbvc``mbeffcwaeedeaeu````",
"``````````ej`jbdajanaya`dmewfj`tavfaercqffaodldpeufnfn``````",
"````````bjeqcl`xfl`janehbpcua`egcsefcacidldz`xeu``brcl``````",
"``````````bxacbjdvacb``pbabpciehepcjdlah`pdkeq``b`dj````````",
"`````````````e`ncd`ebxbbdubm`s`bctdhbbdxcd`pej`seq``````````",
"````````````````bjcmczctfieqdxbrahbbdvdv`scmcd``````````````",
"``````````````````aldvace`ejb`bmalbjedcdbm`p````````````````",
"````````````````````````dxbjdhcte`cicm``````````````````````",
"````````````````````````````````````````````````````````````"
};
