/* XPM */
static char *blood6[] = {
/* width height ncolors chars_per_pixel */
"30 30 91 1",
/* colors */
"  c #000000",
". c #002E2E",
"X c #214B4B",
"o c #2F5252",
"O c #013232",
"+ c #094747",
"@ c #115C5C",
"# c #186666",
"$ c #0E4F4F",
"% c #314040",
"& c #70D0D0",
"* c #000606",
"= c #270808",
"- c #8B6A6A",
"; c #1F0000",
": c #002020",
"> c #4F0E0E",
", c #000C0C",
"< c #001919",
"1 c #3E9191",
"2 c #0F0A0A",
"3 c #636363",
"4 c #000505",
"5 c #437878",
"6 c #044444",
"7 c #2E3232",
"8 c #001212",
"9 c #010909",
"0 c #1D2B2B",
"q c #360505",
"w c #023B3B",
"e c #093838",
"r c #485858",
"t c #002525",
"y c #5C9393",
"u c #011C1C",
"i c #121C1C",
"p c #274E4E",
"a c #163A3A",
"s c #813D3D",
"d c #000A0A",
"f c #053333",
"g c #121515",
"h c #396666",
"j c #021919",
"k c #001717",
"l c #040707",
"z c #000303",
"x c #070000",
"c c #502A2A",
"v c #226666",
"b c #001010",
"n c #021F1F",
"m c #718282",
"M c #1B5555",
"N c #AF5C5C",
"B c #5C7777",
"V c #042727",
"C c #0C3C3C",
"Z c #5AB0B0",
"A c #002323",
"S c #374F4F",
"D c #000202",
"F c #021111",
"G c #000F0F",
"H c #444B4B",
"J c #1E1F1F",
"K c #002929",
"L c #2E7777",
"P c #000808",
"I c #0A2C2C",
"U c #001515",
"Y c #233434",
"T c #315C5C",
"R c #154747",
"E c #2D8686",
"W c #000101",
"Q c #000E0E",
"! c #085151",
"~ c #1C3D3D",
"^ c #042C2C",
"/ c #0C4141",
"( c #080F0F",
") c #172121",
"_ c #516767",
"` c #003535",
"' c #7FC2C2",
"] c #6D9696",
"[ c #001414",
"{ c #020202",
"} c None",
/* pixels */
"}}}}}}}}}}}}G,tKtDG}}}}}}}}}}}",
"}}}}}}}}}A}<:GU4Wt;;Kn}}}}}}}}",
"}}}}}}}}G4K/;!6Vn=xww .}}}}}}}",
"}}}}}},,[O6^+@/(@C(l{::KP}}}}}",
"}}}}}d``,VIe+I)#@i+@^j9[4z}}}}",
"}}}}b;q=feg)XvMLo~#v#>f9O:x}}}",
"}}}}b`u^X>#vvLLcSTvL>#@IfK=}}}",
"}}}kuFk/S@>Lh1H1rh31E##g^64k}}",
"}}[W4[+pTLE11]ZBryNsEX~gV=6t,}",
"}}2U`=@#cE1sZZ]3]ZNmT70i/0J8g}",
"}};`q7>MLBsN'&]m]ZZNHhX)+>2Kk}",
"}8q`=!R~YT1ZZ-&&Zm]y_SX)CC6KdG",
"}*.q+i)07S5Z]Z&-&]33_h7agCVw}2",
"}G,n6(R)XS5y]m]&-'m35SYYi(uAdk",
"}[u*6(e)%%rBBBBZ-&m_rSYY)(Fk}:",
"}<udOg)0X%H_3BmZ-ZyB5TY)i(^`K*",
"}kD.{(g~XoSHBBBB]3-msE~igln.t8",
"}9*;,n(aRpSSHrrr_51-sL~gIu9::G",
"}}8i<F(CR0Y7ThrHH%TvvcIC+V4.,}",
"}},u=[f++a00vvhh%X%oM~i>J^DK }",
"}}*:O.f+ee~#cHppJYR@gif=`[P[,}",
"}}}D<xfq^I+$pJRa0)p%!(we<PuQ}}",
"}}}}}UO=`^qIC$%$+/>2wkVAQ[[}}}",
"}}}}4Wz:)O^j9VI+>qflVn:Q}nz}}}",
"}}}}}d,4D,,*{9ljuuVt*kW}, }}}}",
"}}}}}},;k,d<<88.b9<Gk*U8W}}}}}",
"}}}}}}}}4xub*WGnt<DD8xk}}}}}}}",
"}}}}}}}}}4D,xU,844Pk8*}}}}}}}}",
"}}}}}}}}}}}}G49bxlx}}}}}}}}}}}",
"}}}}}}}}}}}}}}}}}}}}}}}}}}}}}}"
};
