/* XPM */
static char *blood5[] = {
/* width height ncolors chars_per_pixel */
"24 24 170 2",
/* colors */
"`` c None",
"`a c #102A2A",
"`b c #002E2E",
"`c c #689494",
"`d c #250000",
"`e c #000D0D",
"`f c #5D1616",
"`g c #415050",
"`h c #212A2A",
"`i c #013232",
"`j c #3C9090",
"`k c #251A1A",
"`l c #095454",
"`m c #190101",
"`n c #000606",
"`o c #003434",
"`p c #0E2E2E",
"`q c #001313",
"`r c #115555",
"`s c #213030",
"`t c #60C0C0",
"`u c #0F0404",
"`v c #002020",
"`w c #165D5D",
"`x c #636A6A",
"`y c #072A2A",
"`z c #445C5C",
"a` c #6C7676",
"aa c #000C0C",
"ab c #001919",
"ac c #102222",
"ad c #4D5454",
"ae c #002626",
"af c #163535",
"ag c #4F6363",
"ah c #000505",
"ai c #65A0A0",
"aj c #052E2E",
"ak c #041616",
"al c #044444",
"am c #76C1C1",
"an c #7ED6D6",
"ao c #196969",
"ap c #385656",
"aq c #0C4545",
"ar c #767F7F",
"as c #642525",
"at c #360505",
"au c #5FB4B4",
"av c #002C2C",
"aw c #8C9B9B",
"ax c #000B0B",
"ay c #030404",
"az c #001818",
"b` c #280404",
"ba c #0A0E0E",
"bb c #385C5C",
"bc c #002525",
"bd c #407E7E",
"be c #354F4F",
"bf c #739999",
"bg c #001111",
"bh c #5A7D7D",
"bi c #347272",
"bj c #030A0A",
"bk c #5AABAB",
"bl c #010808",
"bm c #001E1E",
"bn c #6E3B3B",
"bo c #71B1B1",
"bp c #274E4E",
"bq c #266464",
"br c #000A0A",
"bs c #2B3E3E",
"bt c #053333",
"bu c #121515",
"bv c #270C0C",
"bw c #001717",
"bx c #253838",
"by c #418888",
"bz c #374343",
"c` c #013C3C",
"ca c #040707",
"cb c #031D1D",
"cc c #192C2C",
"cd c #000303",
"ce c #070000",
"cf c #164040",
"cg c #537272",
"ch c #5B8787",
"ci c #120E0E",
"cj c #032A2A",
"ck c #520B0B",
"cl c #001010",
"cm c #062323",
"cn c #435555",
"co c #0C3636",
"cp c #8EAFAF",
"cq c #282A2A",
"cr c #001D1D",
"cs c #0C1515",
"ct c #515C5C",
"cu c #1B5555",
"cv c #297D7D",
"cw c #002A2A",
"cx c #2B3030",
"cy c #4F3939",
"cz c #AF5C5C",
"d` c #000909",
"da c #003737",
"db c #010000",
"dc c #001616",
"dd c #042727",
"de c #0C3C3C",
"df c #030F0F",
"dg c #010D0D",
"dh c #002323",
"di c #074E4E",
"dj c #0C4949",
"dk c #295555",
"dl c #5E7272",
"dm c #011A1A",
"dn c #000202",
"do c #000F0F",
"dp c #176464",
"dq c #042020",
"dr c #0F0000",
"ds c #001C1C",
"dt c #8A5B5B",
"du c #419A9A",
"dv c #000808",
"dw c #205C5C",
"dx c #420707",
"dy c #064949",
"dz c #041919",
"e` c #0C5C5C",
"ea c #001515",
"eb c #071212",
"ec c #1D4F4F",
"ed c #171B1B",
"ee c #154747",
"ef c #2D8686",
"eg c #031B1B",
"eh c #000101",
"ei c #3C1B1B",
"ej c #286A6A",
"ek c #044040",
"el c #000E0E",
"em c #264747",
"en c #0F4E4E",
"eo c #0D1E1E",
"ep c #001B1B",
"eq c gray14",
"er c #031414",
"es c #172121",
"et c #060D0D",
"eu c #063B3B",
"ev c #2B5C5C",
"ew c #000707",
"ex c #343A3A",
"ey c #396363",
"ez c #182525",
"f` c #364949",
"fa c #001414",
"fb c #467373",
"fc c #AA7979",
"fd c #506969",
"fe c #002121",
"ff c #1C7171",
"fg c #213E3E",
/* pixels */
"``````````````````cdew`v`bdoelci````````````````",
"``````````````eafac`ekcbdffec`eqdbab````````````",
"``````````ewaxbw`hbt`l`lcse`btajbjaec`dc````````",
"````````brdadhcb`ycoenbudpencfe`ajcabgewcd``````",
"``````ea`iat`ue`edafdwbpeffgejffaocicbegelfe````",
"``````dv`bakbvffadbqbi`jdtbebicvbn`kaqdqalaj````",
"````cmbmbjdyf`ffbybd`jczcgadbkbnefec`aeob`fe`d``",
"````cwdab`e`cycvduarczai`xauboczbbcqezcocqc`av``",
"```mcedrck`waocvarbodtambfbf`tczcneyem`p`l`dehci",
"```qdaeicobubxapbybkamawcpboarbhctbzeqesdeaj`eep",
"``ax`qdxbaaf`hapfbai`cbfananbfdlfbap`hezbadddmaz",
"``brfeatebaf`hex`zdl`xa`bofcboagcnbz`s`aebdqdcaa",
"``dvfadaakacfgbs`gcgdl`x`cdtauchbydk`sbuetda`oaz",
"``cidmcbegeocudwbe`gfdcgctchdtbncyasezeoakdmdrdm",
"``brfebcakebenafbxexbb`z`g`gapbicvaobudydqblav`u",
"````bw`meraldjafccbxevbieyf`cxdkcu`pdeeicjah`d``",
"````ahcw`oc`ek`yeeeieidwfgeq`s`w`fbab`ekdoewah``",
"``````dv`batc`ajdyaqck`raf`paqexdydzeuaacl`m````",
"``````dnewbg`o`pekebbtdyeidicqcacjcj`vewbm``````",
"````````braaahd`axblayaydzdzddcj`nelcdahdb``````",
"``````````bjcrbwdnfadcd`aedgdoaaaaaxep``````````",
"````````````````dsbw``cdeads``axdrbg````````````",
"``````````````````aadodrbgd`eldn````````````````",
"````````````````````````````````````````````````"
};
