/* XPM */
static char *blood9[] = {
/* width height ncolors chars_per_pixel */
"50 50 92 1",
/* colors */
"  c #000000",
". c #7F8D8D",
"X c #020F0F",
"o c #001A1A",
"O c #186666",
"+ c #328686",
"@ c #213030",
"# c #1F0000",
"$ c #002020",
"% c #4A6262",
"& c #0F1111",
"* c #4F0E0E",
"= c #000C0C",
"- c #0D1C1C",
"; c #242222",
": c #002626",
"> c #043737",
", c #020707",
"< c #123131",
"1 c #000505",
"2 c #437878",
"3 c #001212",
"4 c #360505",
"5 c #000B0B",
"6 c #366E6E",
"7 c #021A1A",
"8 c #226E6E",
"9 c #051313",
"0 c #280404",
"q c #0B2626",
"w c #385C5C",
"e c #022727",
"r c #67C2C2",
"t c #171E1E",
"y c #6A8D8D",
"u c #474D4D",
"i c #000404",
"p c #001111",
"a c #5B6767",
"s c #256060",
"d c #8D6A6A",
"f c #001E1E",
"g c #000A0A",
"h c #332525",
"j c #2B3E3E",
"k c #053333",
"l c #270C0C",
"z c #115959",
"x c #253838",
"c c #002424",
"v c #031D1D",
"b c #192C2C",
"n c #093030",
"m c #63A9A9",
"M c #054646",
"N c #113E3E",
"B c #000909",
"V c #5C7777",
"C c #033030",
"Z c #285151",
"A c #001616",
"S c #4A5858",
"D c #142323",
"F c #000202",
"G c #000F0F",
"H c #0C0707",
"J c #001C1C",
"K c #713232",
"L c #154747",
"P c #000101",
"I c #023E3E",
"U c #000E0E",
"Y c #085151",
"T c #0F4E4E",
"R c #82C2C2",
"E c #1C3D3D",
"W c #204E4E",
"Q c #060D0D",
"! c #063B3B",
"~ c #032121",
"^ c #000707",
"/ c #003535",
"( c #343A3A",
") c #050202",
"_ c #021616",
"` c #012C2C",
"' c #364949",
"] c #001414",
"[ c #609393",
"{ c #0C4747",
"} c #4A9191",
"| c None",
/* pixels */
"||||||||||||||||||||||||||||||||||||||||||||||||||",
"|||||||||||||||||||ii5Ae/`:oi1Ge||||||||||||||||||",
"||||||||||||||||i^i]ffAAp5B^$4 4/::|||||||||||||||",
"||||||||||||||o3Bf//MI:o99g3$/I!lH)f:|||||||||||||",
"||||||||||||BBU1o`M4#YMM>eX`Y4){ICn 4:f|||||||||||",
"|||||||||||1]PPo/@I>IYYYC~_MHMIIc3`:/D0:||||||||||",
"||||||||||io$UACYk~>Yz{{n-z(>Q-~v9ioU3:op|||||||||",
"|||||||||g`/`3XCkeN>TzED&Lsz->NYY!~9ggpA^|||||||||",
"||||||||c#4/Ic,_QqNqtDbbW+OLDLzz(WNeg3f`pUB|||||||",
"|||||||-)n4H4Me>n&qDWssZs+8E@sO8K'Z*Yv=9CP`:||||||",
"||||||fColIeIEj4T<EWs8sZ6a6jj8s8KhzO*M_,`/P0$|||||",
"|||||3$^e/39Yh4h(O888662}(+''w88+h(u*z!g>M$opg||||",
"|||||$=AoX9ez*OOSK+s6+}yd}2SS6}a++6uOOeQ`M/G4=||||",
"||||pBo]givNTO8O%K+26+mK}VV%a}d(}++OOT-QeMMCBti|||",
"||||#PoA77{*O*88+}a}}mdmyVVSVydy}}8WEN&-e!44$:#|||",
"|||1e1]e!044*h8++}K}}ymm[aVymydK}2'j@b&D>MhM`i)o||",
"|||oqfI#4LzOOhh2+VKmmdmm[V[rRmddmw'j@@DqNYH#Ioc#||",
"|||04/4@N&WzzKKKdKSdrdmmyy.mrrrdmSw6WxbD{Yh4#:^:||",
"||J~HI#H4**zW882}mmrRdRRRyy.mmmrm2u6sZ@DNYYhH`Pfo|",
"||ot#/M0TYLEExjw2+mmrRdRRRRy.ymm}au''Z@tN{MM/eFoJ|",
"||p#D#<@!--t@jjwS}mmmRrRd.RmyVyVaSSw(@@DD>!C`/53o|",
"||1f`I4I~QqD@x('SymmmymRRRRRy[aaSS2w'@@b--k~e/f5f|",
"||1=3:#M9qND;xwwuV}m[yyymR.RmyVaaV2w(@@<--9v`:31A|",
"||FB13;IQNLt@Zs'u2}yyVyyyRRRRR[aaaS'(jxEDqQ7Cfp|A|",
"||=of14!9n>b;xj'u%aVVaVVymRdrmya%SS'@x@bD-9ieAAi3|",
"||gooFICQqDtbxx'uuSSaaVyymrdrmVa%S6wWx@DD9Q_/C$o1|",
"||g3A34QQ--&EZW'(S%VSVaaymmdmm}y222wW@b&-QQc//`#p|",
"||ogF`C,_Q&tLWsZ(wSSVVVVaV[madmm}}2+Z@Dt&Q,_I/)cf|",
"||oB3/`g_,--TWsZ@''SaaVVS%VymSdKKKKKsEt&-~99f$4f&|",
"||35o#civv9nENWZ@''uuSSSSSSV2+}ddK@+O<&-n~vgU$0$o|",
"||^ofH`Xi~Qn{LEx;jj(wSSSSuSSSS62+aKKWq-NIC91U::3Q|",
"|||f1C/]i79eNLL<;@@jww66w''''''ssss'L&>YN!91|too||",
"|||1]f CX,eM{TLED;@xsZ666w'''@jZZWOzqqY4<bcB=`$o||",
"|||g1$t4fc>@{{N<<<@Ws88888jWZ@xWWOOn&nN0MCoBi$#1||",
"||||i$~`CCk!M!>>>TzOKh8sZZx@x;LzO*z-&NH4>:Bgi]5|||",
"||||^=f C##;M>C>{zlzsZ*sEE@DtEzzlWT-~M0>c3B1gi=|||",
"||||||=ott/i4kee>{W{z**W<<<DtNZlW@>,C!>ep=gf$=||||",
"|||||Pi|Acl)4>eCM*N>{zj@T{{N>{@lhL~7c``o^Gfv |||||",
"|||||||iF3AC4#bN0M>7e{{4Y4{{{*44,IXve:$o=o:J5|||||",
"|||||||PP5i3://C>evggeeekMlhlIkh4>i~cf3B|A)5||||||",
"||||||||g|FiBBA]o=ii,,_X_eC>C~c>>vU$A1P1=fH|||||||",
"|||||||||==ppBP=1iG39,iXvei=3c::oPo]|FFPP=||||||||",
"||||||||||]#JoBiBgo$ffUp$eoUB3Jog1oG1G33i|||||||||",
"||||||||||| Hfo]]|B=UAiUAc$]B^p51giBA7Qg||||||||||",
"||||||||||||BF3)&op3^g|5ofc:oGFi1Go)p)g|||||||||||",
"|||||||||||||||i=AfApFi1^3p3BiB=A#pGB|||||||||||||",
"||||||||||||||||iF|U##A]==p^^FPgH31|||||||||||||||",
"|||||||||||||||||||=i=pA9A355pgi||||||||||||||||||",
"||||||||||||||||||||||||||||||||||||||||||||||||||",
"||||||||||||||||||||||||||||||||||||||||||||||||||"
};
