/* XPM */
static char *blood4[] = {
/* width height ncolors chars_per_pixel */
"20 20 144 2",
/* colors */
"`` c None",
"`a c #102A2A",
"`b c #002E2E",
"`c c #689494",
"`d c #250000",
"`e c #000D0D",
"`f c #5D1616",
"`g c #415050",
"`h c #212A2A",
"`i c #013232",
"`j c #095454",
"`k c #70D0D0",
"`l c #000606",
"`m c #0E2E2E",
"`n c #001313",
"`o c #115555",
"`p c #213030",
"`q c #60C0C0",
"`r c #002020",
"`s c #445C5C",
"`t c #6C7676",
"`u c #000C0C",
"`v c #549393",
"`w c #102222",
"`x c #4D5454",
"`y c #002626",
"`z c #163535",
"a` c #043737",
"aa c #4F6363",
"ab c #000505",
"ac c #65A0A0",
"ad c #052E2E",
"ae c #044444",
"af c #7ED6D6",
"ag c #001212",
"ah c #196969",
"ai c #385656",
"aj c #0C4545",
"ak c #767F7F",
"al c #642525",
"am c #002C2C",
"an c #0E2626",
"ao c #030404",
"ap c #001818",
"aq c #0A0E0E",
"ar c #385C5C",
"as c #002525",
"at c #6D8686",
"au c #000404",
"av c #354F4F",
"aw c #739999",
"ax c #001111",
"ay c #5A7D7D",
"az c #347272",
"b` c #030A0A",
"ba c #010808",
"bb c #001E1E",
"bc c #6E3B3B",
"bd c #71B1B1",
"be c #183C3C",
"bf c #274E4E",
"bg c #000A0A",
"bh c #287373",
"bi c #0D1A1A",
"bj c #053333",
"bk c #270C0C",
"bl c #001717",
"bm c #253838",
"bn c #418888",
"bo c #374343",
"bp c #013C3C",
"bq c #040707",
"br c #031D1D",
"bs c #192C2C",
"bt c #000303",
"bu c #070000",
"bv c #164040",
"bw c #537272",
"bx c #5B8787",
"by c #120E0E",
"bz c #032A2A",
"c` c #520B0B",
"ca c #0C3636",
"cb c #001D1D",
"cc c #0C1515",
"cd c #297D7D",
"ce c #002A2A",
"cf c #AF5C5C",
"cg c #000909",
"ch c #003737",
"ci c #010000",
"cj c #001616",
"ck c #042727",
"cl c #0C3C3C",
"cm c #030F0F",
"cn c #002323",
"co c #074E4E",
"cp c #0C4949",
"cq c #295555",
"cr c #5E7272",
"cs c #011A1A",
"ct c #000202",
"cu c #55A1A1",
"cv c #000F0F",
"cw c #176464",
"cx c #042020",
"cy c #0F0000",
"cz c #001C1C",
"d` c #8A5B5B",
"da c #419A9A",
"db c #420707",
"dc c #064949",
"dd c #0C5C5C",
"de c #001515",
"df c #071212",
"dg c #1D4F4F",
"dh c #154747",
"di c #2D8686",
"dj c #000101",
"dk c #3C1B1B",
"dl c #286A6A",
"dm c #044040",
"dn c #000E0E",
"do c #264747",
"dp c #396A6A",
"dq c #001B1B",
"dr c gray14",
"ds c #0C4141",
"dt c #031414",
"du c #172121",
"dv c #002828",
"dw c #060D0D",
"dx c #063B3B",
"dy c #2B5C5C",
"dz c #000707",
"e` c #343A3A",
"ea c #182525",
"eb c #364949",
"ec c #001414",
"ed c #AA7979",
"ee c #506969",
"ef c #002121",
"eg c #1C7171",
"eh c #213E3E",
/* pixels */
"``````````````dzdjcv`rcgadce````````````",
"``````````axabbp`daecka`bubpcice````````",
"````````de`u`ick`jds`mdscabjbqde`e``````",
"``````addbdkca`adgdgcddrahdkc`dt`ian````",
"`````dcgdtbkegcdazbnd`bodididkajbzcjbg``",
"````djcxajavbhbcdad`bweecfdadoeackcyas``",
"``de`ydc`obhbcbc`qbdat`k`qbndybsdsdrcnbu",
"``dqchdbdhehar`v`qedafakacbxebehcldcdvcb",
"``apchad`zbmav`v`cawafbd`teear`h`wcx`b`r",
"``dz`lckca`hboaaayakbdedat`xav`p`wb`blbt",
"```n`ydwcceheb`seecratd`cubndl`hbibrchbu",
"``cy`dcmdfbvbfav`g`x`xbwdabccddu`maoefbl",
"```u`y`ubrcpbedrcqdpaie`ebbfcw`mdrec`b`u",
"`````r`ibjaeca`oaldlbfbmdhcqbicoa`cgec``",
"````abcz`dbpadbydd`f`zane`c`dwdxcg`raq``",
"``````djbtam`ibrb`addcbkbjdmcxcs``cz````",
"````````axdq`ldecbbaas`l`rbgblabdj``````",
"````````````buaxdzaubbbbctcgbudn````````",
"``````````````btagbycg`ebtab````````````",
"````````````````````````````````````````"
};
