/* XPM */
static char *blood3[] = {
/* width height ncolors chars_per_pixel */
"14 14 91 1",
/* colors */
"  c #000000",
". c #250000",
"X c #5D1616",
"o c #415050",
"O c #142727",
"+ c #3C9090",
"@ c #251A1A",
"# c #095454",
"$ c #190101",
"% c #000606",
"& c #030C0C",
"* c #60C0C0",
"= c #165D5D",
"- c #636A6A",
"; c #072A2A",
": c #6C7676",
"> c #102222",
", c #4D5454",
"< c #163535",
"1 c #043737",
"2 c #4F6363",
"3 c #73C8C8",
"4 c #044444",
"5 c #001212",
"6 c #0C4545",
"7 c #767F7F",
"8 c #360505",
"9 c #000B0B",
"0 c #003939",
"q c #385C5C",
"w c #6D8686",
"e c #000404",
"r c #001111",
"t c #5AABAB",
"y c #001E1E",
"u c #71B1B1",
"i c #274E4E",
"p c #0D1A1A",
"a c #2B3E3E",
"s c #053333",
"d c #121515",
"f c #270C0C",
"g c #418888",
"h c #374343",
"j c #031D1D",
"k c #020505",
"l c #192C2C",
"z c #000303",
"x c #537272",
"c c #120E0E",
"v c #001010",
"b c #062323",
"n c #282A2A",
"m c #040000",
"M c #0C1515",
"N c #515C5C",
"B c #1B5555",
"V c #002A2A",
"C c #2B3030",
"Z c #4F3939",
"A c #000909",
"S c #001616",
"D c #042727",
"F c #247B7B",
"G c #074E4E",
"H c #0C4949",
"J c #011A1A",
"K c #55A1A1",
"L c #000F0F",
"P c #042020",
"I c #419A9A",
"U c #064949",
"Y c #1D4F4F",
"T c #000101",
"R c #286A6A",
"E c #044040",
"W c #693030",
"Q c #001B1B",
"! c #0C4141",
"~ c #031414",
"^ c #011212",
"/ c #172121",
"( c #002828",
") c #2B5C5C",
"_ c #000707",
"` c #343A3A",
"' c #AA7979",
"] c #506969",
"[ c #002121",
"{ c #213E3E",
"} c None",
/* pixels */
"}}}}}[[rV8}}}}",
"}}}yjb#>pb~v}}",
"}}.0a/RF)Wf~.}",
"}}e6R+Ixg+BME}",
"} U=CW*w3KiOnJ",
"}f4Ohtu'7Nh/P%",
"}J1<`]:u32`lk_",
"}A&cRox-,ZRdL(",
"}e^b!nqhh)YG_9",
"}};E;X@{lfM0A}",
"}}T(ms!cH8(5j}",
"}}}JeQSDLA}r}}",
"}}}}}9L5z$}}}}",
"}}}}}}}}}}}}}}"
};
