/* XPM */
static char *blood11[] = {
/* width height ncolors chars_per_pixel */
"72 72 91 1",
/* colors */
"  c #000000",
". c #020F0F",
"X c #250000",
"o c #000D0D",
"O c #2F5252",
"+ c #001A1A",
"@ c #095454",
"# c #000606",
"$ c #270808",
"% c #196A6A",
"& c #022222",
"* c #60C0C0",
"= c #002020",
"- c #002D2D",
"; c #4F0E0E",
": c #80A4A4",
"> c #000C0C",
", c #163535",
"< c #286E6E",
"1 c #437878",
"2 c #001212",
"3 c #010909",
"4 c #040202",
"5 c #360505",
"6 c #2B8181",
"7 c #616767",
"8 c #000B0B",
"9 c #366E6E",
"0 c #021A1A",
"q c #171E1E",
"w c #474D4D",
"e c #77CBCB",
"r c #000404",
"t c #012929",
"y c #364646",
"u c #264A4A",
"i c #0F3D3D",
"p c #516A6A",
"a c #325C5C",
"s c #6CA2A2",
"d c #2B3E3E",
"f c #262222",
"g c #001717",
"h c #115959",
"j c #002424",
"k c #040707",
"l c #043535",
"z c #031D1D",
"x c #192C2C",
"c c #000303",
"v c #0F1515",
"b c #AC6A6A",
"n c #001010",
"m c #150707",
"M c #062323",
"N c #0D2020",
"B c #5AAAAA",
"V c #001D1D",
"C c #054646",
"Z c #0C4343",
"A c #031616",
"S c #060F0F",
"D c #000909",
"F c #033030",
"G c #001616",
"H c #4A5858",
"J c #142323",
"K c #042727",
"L c #489191",
"P c #000202",
"I c #000F0F",
"U c #0C0707",
"Y c #0B4B4B",
"T c #001C1C",
"R c #0B2A2A",
"E c #713232",
"W c #205C5C",
"Q c #233434",
"! c #194B4B",
"~ c #7B7070",
"^ c #262D2D",
"/ c #0D3232",
"( c #000101",
") c #023E3E",
"_ c #637979",
"` c #003535",
"' c #001414",
"] c #382A2A",
"[ c #609393",
"{ c #213E3E",
"} c None",
/* pixels */
"}}}}}}}}}}}}}}}}}}}}}}}}}}}}}}}}}}}}}}}}}}}}}}}}}}}}}}}}}}}}}}}}}}}}}}}}",
"}}}}}}}}}}}}}}}}}}}}}}}}}}}}}}}'8#o>'22>Pc}}}}}}}}}}}}}}}}}}}}}}}}}}}}}}",
"}}}}}}}}}}}}}}}}}}}}}}}}}}}ccP#I2=---jGIcoo2+v}}}}}}}}}}}}}}}}}}}}}}}}}}",
"}}}}}}}}}}}}}}}}}}}}}}}}c(8##G=g+gno22o(G`  mNtjj}}}}}}}}}}}}}}}}}}}}}}}",
"}}}}}}}}}}}}}}}}}}}}}}D}D#Vt=t-+22>>8o88jtC45UX5F=V}}}}}}}}}}}}}}}}}}}}}",
"}}}}}}}}}}}}}}}}}}}}nGDr'F`),Z)`-zA...A=jt)))f5m Xf++}}}}}}}}}}}}}}}}}}}",
"}}}}}}}}}}}}}}}}}}V8I#cgt`C54$^CC)lF&kAF)55XXCC)^X 4`jj}}}}}}}}}}}}}}}}}",
"}}}}}}}}}}}}}}}}}cGIcP+t`QQ)CQ@Y@Y))K3&l!5^]YCFjt``` `$m}}}}}}}}}}}}}}}}",
"}}}}}}}}}}}}}}}##88PIg-)^CFll)@]h@/NvSih5YlMKF033&jjt))`=G}}}}}}}}}}}}}}",
"}}}}}}}}}}}}}}8D++#2GK`YCKMl)Yh@YZiNvZd]YRSvMz0A34++8IjtVgD}}}}}}}}}}}}}",
"}}}}}}}}}}}}}}nj-jn83Kl)lRF/ZhhhZ//viy%YRvR/YYZlK0.k3c2'+PDP}}}}}}}}}}}}",
"}}}}}}}}}}}}8j/```j23zKFRli/ZYY,JvJ,%]%YRNi!Yhh@F&&koo2g2##Pc}}}}}}}}}}}",
"}}}}}}}}}}}o-mX``)lzkS0Sv///NJJxxx!W%%hiqi!hhhw;@iRzk.Aj-VcnI2}}}}}}}}}}",
"}}}}}}}}}}n-5$5C55YlMNRRvN,q,!!!!WWW96W{^uW%%%;$;$d@CAkA&t+#==&}}}}}}}}}",
"}}}}}}}}}G-$F$55C)UCZhhZqJq,!!W<Oua<6pa{Qu<%%%Ef%h%vh)zA.0`+oqm=}}}}}}}}",
"}}}}}}}}}mt+Fx)j&F;hu$uh!i{WWW<<aOa6E6aQ^O<WW%E;whh5]@FAkV`)+j5t}}}}}}}}",
"}}}}}}}}vgIG`)&.0)vd$$w%%%<<W<<9991LwL9dyaW<W<6]]%%;;hil4&))Fr-+g}}}}}}}",
"}}}}}}}=TDD2-&AA0Z$$;%%]H6<W<9911LLw~L9Oya96666aEE;f;dZRA&l^CVPF>#}}}}}}",
"}}}}}}}tD#+>23.zFYdwW%%HfE69a91LLEELL19ww91L~E666Ha%%WZvS0lCCF2=tI}}}}}}",
"}}}}}}To#=+o3kSRZYh%a%%HHE6199LL[wB[L1pHH1LEEEL616%%%h/vS0lC^)-P`t2}}}}}",
"}}}}}}M8DVrg3SlCh%yw%%<6LwL1LLLBbbB[p_pHp[B~LEL_66W!WWRvSNR)$5f=2mX}}}}}",
"}}}}}o=#2>T&zRC;$%OE%<<66EELL[BbbB[__7Hp_B~E_E_L6<uQQxJvNRF)^m]F+jmg}}}}",
"}}}}}T=oDTKl)5k;5]];<666L_EB[[BbBs[[7_[[B*bbEE[L9Od^QxJvN/)CYXC-j#Uv}}}}",
"}}}}DUt+n`C5$@uh%%wEE66LLLw_BBbsss[_7_sB**sbbbBLadd^^^JqN/iY^45)tD-Nm}}}",
"}}}}+UFj-X5Qi{hhhhHf^EEEEwEbBsb*sss[__s*:e*sssB1yaadQQxJR/Z@5555`++V&}}}",
"}}}}v4``f4fY{v;%hW%EEEE~EEHb*:b*ssss__ss*e*BbbB1wa9au{QJJ/Y@]C$4/Vcg&}}}",
"}}}mjX4)fU$];55h!!%<<6L[_BBs*:~beesss__sss*B*bsLHH9aOOuxJ/Z@@C5X5=(#jv}}",
"}}}g=5U`5Xm$;{hhWW!uOa9L[[B**eb_:eeesss__[sssBB[HwaaOOuQJ,Y@CY^C)VcD=z}}",
"}}}+V55`XxmQ@YZi,{QQdOa1L[BBB*ebbeeeeees___[ss[ppHyOyuQJqRZZ)CClFjDIT+}}",
"}}}2j5`)/]fC/RNvq^QQdaaHLBBBBseee:bb:ees______ppHHayd^fxJJR/illFF`o>g+}}",
"}}8otR-/f]CFNvvJJQ{Q^ywH1BBssssseeeb_:ees__777HHppaa^^QQJqvRZl&tF`=cTVo}",
"}}#>gjjFm^CFSvRRqfQ^ddyw1[BBs[ssseeeebeesss_77ppp1aay^QQ,Jvv/FKt-`j#'TG}",
"}}>8I22j`5CMSR/,qf^QOaHw1[[ss[[ssssseb:esss_7__p11aad^^Q,JvvSA&K-j+c>g'}",
"}}+(P##+-XCMviY,J^^uaaww1[[[[___sssse:_eees[_7ppp9aydQQQiJNRSS0tF+GcP2g}",
"}}Ur8o#Dt$CKvZYiqJ{OOyyH1_[[[_____ssee:bees[77ppHwydddQQiRNRNkAF-G2P(2G}",
"}}m82T=(j5)MS//,xJ^dddOwHpp___7____sse:bees__ppHHHay^QQQxRNNSSk&-'GcP>2}",
"}}48G=V#&5l0SR/RJJQ^^yaHHHHp777____ssebbess__HHHH9aOd^^qJNvSSS.K`tV22PG}",
"}}UDG+2c=$tSSNNNqx{{ddyywHppp77___[ssebb*Bs[_pp119aauQ{xqNNvvS&l``t=jDg}",
"}}UDo''I``S3AvvNq,{uudydwHpppH__77__[s*~*BBB[[11L19OdQQJvvNSS0&``)`- g8}",
"}}S''##=Uj4ASSSvqi!uaaydaHHHpp____77_[B*7bbBB[LLLL6WuQJqqvvSSAzF)`55t=#}",
"}}>+GDDjJ&30SkvvN!W!WWudOawHpp_p___77_[B*7b7E[EEE76<u{xqvvvvkkA--tmjj4D}",
"}}}vGn+-)z300kvNNiWWWWu^OOywHppppppHHp_[Bb~~_EEEwEEEW!JvvNRMAAA+VjU=V+}}",
"}}}+V8VJ)GPA&0SRR,i!W!u^yOywHHHHHHHHHHpp1LLL_E~EE^69WiJvvRFMz..IIjm==G}}",
"}}}o=(j `VokzMSN/Zii!u{^dyyydwwwwHHHHHpppp1LLLL1EEH%Wiqv//lMzo332jNg+g}}",
"}}}8m#=5`jI3A&SS/ZY!i,QfQdddyaaaHHHHwwwwwwaa999<66]%!xvRiC)l&333G--n2U}}",
"}}}}V88-X-'r3030//Y!!ix^^^^dOaaa99aHwyyydyOOaWaaW%]%iNRZYCC)&3##G$jDm}}}",
"}}}}D#oVfqto3..F/ZYY!!,Jfff^uOOa9999ayyddddyOaOu!%w!/v/@;iC,jgoPgvtG+}}}",
"}}}}8ogTjm`+AAtCCYYYY,,JxffQOWa<9999aO^yyd^ddO!!W;h/vNi{m],)tg(#2vXmP}}}",
"}}}}}PoV- 5tV&tCQYYYi/,,ixQ{WW<<<<<<<u^uuQ^Q{!W%y%ivvRi5$5)-VoD(cjX+}}}}",
"}}}}}##=jm-`t-F)CCC////,i!!h%<EH<WaOau^QuQ^{WWh%]hRvv/Zm5CFj+##(#+2P}}}}",
"}}}}}}#GVt--```)lC)llR/i!hw]f]]E%W{{{{^fQqQ!hhyf;hRSv)$^5)-jI#D#(D#}}}}}",
"}}}}}}#8T=XFfUmm5CClFFZZY;;h%O%];h!iiixJqxihhu]u!YRSR)mUlt=nD8D>o##}}}}}",
"}}}}}}}(8'VMXX`$$5CFRFRZZ]hYYuwfyWi,i,xJqJ!h;$hu@ivzl),x-+28D8gj+>}}}}}}",
"}}}}}}}crD#=-tJ5 $)tMFFlC$@ZYh;;vhii,i,/R,Zhvd^]ClS0Kt)`=>#onVmm+U}}}}}}",
"}}}}}}}}}#P#+VtU $)lttlC]]/R/ZYY^5hYYYZiiZ@^$$;])0.0&KF=+n>o2tVVU}}}}}}}",
"}}}}}}}}}}#P#2'F`XUJ))fk5)l&N/YZ@$^$5YYZZY]vv5U5l.0&K&t=+g>gVz+2}}}}}}}}",
"}}}}}}}}}P((#oD2=j`X5/$5)FtSS&l/ZCiZ]$YY{^^)Ck$,t4At&==g>##+VUg}}}}}}}}}",
"}}}}}}}}}}rP}#PrIVjF-j--&0.4.k00&MKlCf5UiCFR)]f)&rGj=go8(c#2mAr}}}}}}}}}",
"}}}}}}}}}}}c#}P(#>D>Ggn+2344444.A.S0KFFlFM&&l))t2o=+g##P#(2VSD}}}}}}}}}}",
"}}}}}}}}}}}}8D8>>c#r(D>#8P#3#443k43A0300AzKKjt=2#G+o#(cPD#8G }}}}}}}}}}}",
"}}}}}}}}}}}}}>nG'g+>}D8r#2VVV+A.3.V-KA3ro+&&V+GD8++>#PP}#Dr>}}}}}}}}}}}}",
"}}}}}}}}}}}}}}ogm=g'8D#D88+j+T=28IgjtjG>#8G++g8#I+ncDn+2'>r}}}}}}}}}}}}}",
"}}}}}}}}}}}}}}}344VT+g22PD2'I2GIrDGTj=GorrIgo>P2>#P8Gg+ U}}}}}}}}}}}}}}}",
"}}}}}}}}}}}}}}}}}8ImVVVgoD#>#D8r(82G+jjT28#Prr#Pr#2+mTm2}}}}}}}}}}}}}}}}",
"}}}}}}}}}}}}}}}}}}#(8+U VGn'nDDP}D2V=jjt+GDPr#8oGT +o 8}}}}}}}}}}}}}}}}}",
"}}}}}}}}}}}}}}}}}}}}c}82T4+g2o}#ccr8G'+TnD}DD8'TU2228}}}}}}}}}}}}}}}}}}}",
"}}}}}}}}}}}}}}}}}}}}}}P}##8VU=V2I>882I#P(r(#Ig0gIno}}}}}}}}}}}}}}}}}}}}}",
"}}}}}}}}}}}}}}}}}}}}}}}}(((#2+UUVGoo8nD#DDrc(D2Sr}}}}}}}}}}}}}}}}}}}}}}}",
"}}}}}}}}}}}}}}}}}}}}}}}}}}}>c8InGUG222oD88o>#P}}}}}}}}}}}}}}}}}}}}}}}}}}",
"}}}}}}}}}}}}}}}}}}}}}}}}}}}}}}}k8(}(rD>4 8}}}}}}}}}}}}}}}}}}}}}}}}}}}}}}",
"}}}}}}}}}}}}}}}}}}}}}}}}}}}}}}}}}}}}}}}}}}}}}}}}}}}}}}}}}}}}}}}}}}}}}}}}",
"}}}}}}}}}}}}}}}}}}}}}}}}}}}}}}}}}}}}}}}}}}}}}}}}}}}}}}}}}}}}}}}}}}}}}}}}"
};
