/* XPM */
static char *blood11[] = {
/* width height ncolors chars_per_pixel */
"72 72 190 2",
/* colors */
"`` c None",
"`a c #102A2A",
"`b c #002E2E",
"`c c #689494",
"`d c #250000",
"`e c #000D0D",
"`f c #5D1616",
"`g c #415050",
"`h c #212A2A",
"`i c #010404",
"`j c #013232",
"`k c #3C9090",
"`l c #251A1A",
"`m c #095454",
"`n c #190101",
"`o c #70D0D0",
"`p c #000606",
"`q c #003434",
"`r c #0E2E2E",
"`s c #001313",
"`t c #115555",
"`u c #213030",
"`v c #60C0C0",
"`w c #0F0404",
"`x c #002020",
"`y c #165D5D",
"`z c #636A6A",
"a` c #072A2A",
"aa c #445C5C",
"ab c #6C7676",
"ac c #000C0C",
"ad c #549393",
"ae c #001919",
"af c #102222",
"ag c #4D5454",
"ah c #002626",
"ai c #163535",
"aj c #043737",
"ak c #4F6363",
"al c #000505",
"am c #65A0A0",
"an c #052E2E",
"ao c #041616",
"ap c #044444",
"aq c #76C1C1",
"ar c #7ED6D6",
"as c #001212",
"at c #196969",
"au c #385656",
"av c #0C4545",
"aw c #767F7F",
"ax c #642525",
"ay c #360505",
"az c gray28",
"b` c #5FB4B4",
"ba c #002C2C",
"bb c #0E2626",
"bc c #8C9B9B",
"bd c #000B0B",
"be c #030404",
"bf c #001818",
"bg c #944040",
"bh c #280404",
"bi c #0A0E0E",
"bj c #385C5C",
"bk c #002525",
"bl c #6D8686",
"bm c #407E7E",
"bn c #000404",
"bo c #354F4F",
"bp c #739999",
"bq c #001111",
"br c #5A7D7D",
"bs c #347272",
"bt c #030A0A",
"bu c #5AABAB",
"bv c #010808",
"bw c #001E1E",
"bx c #6E3B3B",
"by c #71B1B1",
"bz c #183C3C",
"c` c #274E4E",
"ca c #266464",
"cb c #000A0A",
"cc c #287373",
"cd c #0D1A1A",
"ce c #2B3E3E",
"cf c #053333",
"cg c #121515",
"ch c #270C0C",
"ci c #001717",
"cj c #253838",
"ck c #418888",
"cl c #374343",
"cm c #013C3C",
"cn c #040707",
"co c #031D1D",
"cp c #192C2C",
"cq c #000303",
"cr c #070000",
"cs c #164040",
"ct c #537272",
"cu c #5B8787",
"cv c #120E0E",
"cw c #032A2A",
"cx c #520B0B",
"cy c #001010",
"cz c #062323",
"d` c #435555",
"da c #0C3636",
"db c #8EAFAF",
"dc c #282A2A",
"dd c #001D1D",
"de c #0C1515",
"df c #515C5C",
"dg c #1B5555",
"dh c #297D7D",
"di c #002A2A",
"dj c #2B3030",
"dk c #4F3939",
"dl c #AF5C5C",
"dm c #000909",
"dn c #003737",
"do c #010000",
"dp c #001616",
"dq c #042727",
"dr c #0C3C3C",
"ds c #030F0F",
"dt c #010D0D",
"du c #002323",
"dv c #074E4E",
"dw c #0C4949",
"dx c #295555",
"dy c #5E7272",
"dz c #011A1A",
"e` c #000202",
"ea c #55A1A1",
"eb c #000F0F",
"ec c #176464",
"ed c #042020",
"ee c #0F0000",
"ef c #001C1C",
"eg c #8A5B5B",
"eh c #419A9A",
"ei c #000808",
"ej c #205C5C",
"ek c #420707",
"el c #064949",
"em c #041919",
"en c #0C5C5C",
"eo c #001515",
"ep c #071212",
"eq c #1D4F4F",
"er c #171B1B",
"es c #154747",
"et c #2D8686",
"eu c #031B1B",
"ev c #000101",
"ew c #3C1B1B",
"ex c #286A6A",
"ey c #044040",
"ez c #000E0E",
"f` c #264747",
"fa c #0F4E4E",
"fb c #0D1E1E",
"fc c #396A6A",
"fd c #001B1B",
"fe c gray14",
"ff c #0C4141",
"fg c #031414",
"fh c #011212",
"fi c #172121",
"fj c #002828",
"fk c #060D0D",
"fl c #063B3B",
"fm c #2B5C5C",
"fn c #645C5C",
"fo c #000707",
"fp c #343A3A",
"fq c #396363",
"fr c #182525",
"fs c #364949",
"ft c #001414",
"fu c #467373",
"fv c #AA7979",
"fw c #506969",
"fx c #022323",
"fy c #002121",
"fz c #1C7171",
"g` c #213E3E",
/* pixels */
"````````````````````````````````````````````````````````````````````````````````````````````````````````````````````````````````````````````````",
"``````````````````````````````````````````````````````````````ftcb`p`eacftasasace`cq````````````````````````````````````````````````````````````",
"``````````````````````````````````````````````````````cqcqe`foeb`s`x`b`b`bahdpebcqezezasfdcv````````````````````````````````````````````````````",
"````````````````````````````````````````````````cqevbdal`pdpfycifdbfcyezas`sezevdp`qdodo`nafdibkah``````````````````````````````````````````````",
"````````````````````````````````````````````ei``ei`pbwdi`xfjbadz`sfhacacbddtbdbddufjapcrayee`day`jfydd``````````````````````````````````````````",
"````````````````````````````````````````cyeoeibnft`jdncmaiffeydnbacofgdsdsdsfgfyahdicmcmeyfeay`ndo`d`laedz``````````````````````````````````````",
"````````````````````````````````````ddbdebalcqbfdidnelaycrbhdcelapeyajanfxcnaoaneyayay`d`delapey`h`ddocr`qbkah``````````````````````````````````",
"``````````````````````````````````cqeoebcqe`aedidn`u`ueyapcj`mdv`mdveyfldqbtedajesekdcewdvap`jbkfjdn`qdndodnbh`n````````````````````````````````",
"``````````````````````````````foalcbbde`ebci`bey`hapancfcfey`mewen`mdafbdebidrenekdvcfczdqanembtbtfxduahdicmcm`qfydp````````````````````````````",
"````````````````````````````cbeidzdzfoasdpdq`qdveldqczajeydven`mdwavdrfbcdffceewdwbbbideczcoeufgbtbedzdzcbebbkfjbwbfei``````````````````````````",
"````````````````````````````cyah`bahcybdbtdqajeycfa`an`ravenen`tffda`rcgdrfsatfa`acdbbdadwdvffajdqemdscnbtcq`sftaee`dme`````````````````````````",
"````````````````````````cbdu`rdndndndufhbtcodqana`cfdrdaavfafaaificgfraiecewecfa`aafcsesdwenen`manededcndtdtbqci`sfo`pe`cq``````````````````````",
"``````````````````````ez`b`n`ddndncmajcocnfkembicd`rda`raffifrcpcpcpesdgfzfz`ycserbzeq`t`tendk`f`mdra`cocndsaoah`bbwcqcyebas````````````````````",
"````````````````````cy`baychayapekekdvajczfbbbbbcvafaieraieqeqeqeqdgcacafcdhejg``hf`ejececat`fch`fchfp`mapaocnfgeddifdfofyfyed``````````````````",
"``````````````````eo`bbh`jchayayapey`welffenenaverfieraieqeqejexdxc`fmexetfwfmg``uc`exatatfzax`lateneccvenflcofgdseu`qfdezer`nfy````````````````",
"```````````````````ndifd`jcpcmahedancxenf`chc``tesbzg`dgcacaccccfmdxfmdhbgetfmcjdjdxexcacafzbx`fdk`t`tekew`manaocnbw`qcmfdduaydi````````````````",
"````````````````cgciebdpdncmfxdsemflcvcechchdkfzfzatexexcaccccbsbsbsbm`kdk`kfcfpclfmcaexcaexdhewewfzat`f`fendrcfbefxcmey`jbn`bfdci``````````````",
"``````````````fyefeidmas`bedfgaoemavchch`ffzfzewagdhcccaexbsbsbmbm`kehdkeg`kbsbofsbjbsetetdhdhfqbxax`f`l`ffpava`aoedaj`hapbwe`anacfo````````````",
"``````````````dieifofdacfhbtdscoandwfpdkcaececagfebxdhfcfqbsbmckehbgbxehckfufc`g`gfcbm`kegbxetetdhaafqfzatejavcdepeucfelap`jbq`xdieb````````````",
"````````````efezfofyaedtbtcnfka`fffa`tatfmecfzdfdfbxetbmfcfcckeh`cazeaadckfufwaaaabmehbxbgbg`ketbmdhfzecec`y`rdebiemcfap`hcm`be``qdias``````````",
"````````````czcbeibw`ibfbtfkcfelenecfsdkfzfzccetckdk`kbmckck`keadldleacuctbrctagfwadbuegehbxckbretdhcaeqdgdg`adebifba`flbhekfefybq`n`d``````````",
"```````````efy`pasaceffxcoa`elcxchecboaxfzccccdhetbgbxehehadeadlfvb`adbrdy`zdfctbrbuegbgblbxab`ketexc`cj`ucpficdfba`aneydc`new`jaebk`nbf````````",
"``````````effy`edmefdqajeyaycncxayewew`fccdhdhdh`kbrbgeaadadb`dlbuam`ccu`zdycucuea`vdldlbxbgcu`kbsbocedj`ucpficgfb`rfleldv`dap`bah`peecd````````",
"````````eieedifdcydnapaybh`mf`enecatdkaxbxdhet`kehehazaweab`dlbyamam`cab`zblamb``v`vbydldldleackbjfpfpdc`h`hfrerfbdadrdvdcbeekcmdieibafb`n``````",
"````````aeee`jah`b`dek`ucsg`en`t`t`yd`fedcaxbxbxbxazbgdlb`bpdl`vambyam`cblabam`vdbaq`vbybpbpeafuclaubjcecj`ucpfi`adaav`mekekekaydndzdzbwfx``````",
"````````cgcr`q`q`lcrfedvg`cv`fec`tdgfzbxaxaxbgegbgbgagdl`vbcdl`vbybybpbpblabbpby`v`o`vb`fvdlbubmazbjfcfmf`g`cjfrfrdafa`mewelbhcrdaddcqcied``````",
"```````nbk`dcrcm`leebhewcxekay`yeqeqatccccdh`kcuawbub`by`vbcegfv`oaqbybybpawabbpbyby`vb``vdlbpckd`d`fcfqdxdxf`cpfi`rav`m`melek`day`xevfoducv````",
"``````ci`xayeednay`d`nbhcxg`en`tdgdgeqc`dxfqbsckadadea`v`v`ofvabdbar`o`obybybpawbl`camamamb`bucuaaazbjfqdxdxf``ufiaifa`meldv`hapeybwcqdmfyco````",
"``````aebwayay`q`dcp`ncj`mfaffbzaig`cjcjcebobjfuckadeab`b``v`ofvfvarararararaqbpawawbl`camamadctakd`clbofsf`cjfier`affavflapapaj`jdudmebeffd````",
"```````sahaydncmdaewfeapdabbafcger`hcjcjceauauaackeaeabub`byaq`oarbcfvfvdbar`obyblabawblblbrctakdfaabjclfpdjfecpfifibbdadrajajan`j`q`eacbffd````",
"````bd`efja``bdafeewelanfbdecvfrfi`ug`cjdjfs`gaabmeabuamamambybyaq`oarfvawdbaraqbpblab`z`zfndfdfakfwfqaudjdc`ucjfrercgbbffajedcw`jdn`xcqefbwez``",
"````foacciahdu`j`n`hapanepde`a`aerfecjdjfpfpcl`gfuadbubuam`cbpbpbpaqaqararfvaraqbpbpbpab`z`zakakakfufqbjcldj`u`uaificdde`randqcw`b`qbk`pftefeo``",
"````acbdebas`sahdnekapczbi`adaaierfe`hcjboaud`azfucuadamam`c`cbpbpbpbybyarfvdbarbybybpbl`zdydyctfufubjaucedj`h`uaifrcgcdbiaoeddq`bdudzcqacbfft``",
"````aeeve`fo`pfd`b`dapczdedrfaaifi`h`hc`fmau`g`gfucuad`c`cblblblbpbpbpbyardbawaraqaqby`cdy`zakfwfwfcbjclfpcjcjcjbzfrfb`abifkemcw`jfddpcqe``sci``",
"````eebnbdez`pdmcwbhapdqdeavdwbzerfig`dxdxfscld`fubrcucucuababawblblbpbyaqardbfv`o`oby`c`z`zfwfwagazclfpcececjcjbz`afbbbfbcnaoan`beoase`ev`seo``",
"`````ncbbqeffyevahayeyczep`rdaaicpfi`hcecefpbo`gaaakfwdydybr`zabababawbpby`odbfvaq`obybldyakakagd`aaaucldjcj`u`ucp`afbfbepfkcnedbaftdpcqe`ac`s``",
"````crbddpfybwfofxaycfeubibb`rbbfifr`udcdjclaud`aadfagak`z`z`zababblblbpby`ofvfv`obyambrdydfagagaafcaubocedj`herfiafdebibifkdsdq`qdibw`sbqe`dp``",
"````eeeidpfd`scqfybhcwepepfbafafercpg`g`cefpfsclazagakfwfwfn`zababab`camby`ofvfv`vbuamcubrctctfufubsfqfmf`cjg`cperaffbdedefkedcf`qdndifydudmbf``",
"````eeeiezftftebdndnfkbtaocddeaferaig`c`f`cefsfp`gaaakctfwdfdydy`z`zabbl`cby`veg`vb`b`eaadcubmbmckbmfcdxcecj`uficgcgfbbifkemfxdn`qcm`q`bdobfbd``",
"````fkftftfo`pfyeeahbefgepepbicgercsesf`fmfmfsfpauaad`dfakctdydybrdy`z`zbl`cbu`vfnfvdlb`eaad`k`kck`kdhcaf`cjfrerercvdebifkfgco`jcm`qayaydi`xfo``",
"````acfdeoeidmahfifxbtemepcncdcvafesdgeqcacac`fpboau`gd`akctbrctbrbrdyfn`zbrcuea`vfndlfnbgadbgbgbxfnetccc`g`cpercgcvdedecncnfg`b`bdi`nahducrdm``",
"``````cveocydzbacmcobtemeucncdfbafcsdgdgcaejc`djbobocl`gaafwfwfwctctfwdfdfakbrcueadlegegabbxbxbxdkbxaxaxejesfrcgcgfbbbczaofgaodzbwaheefybwdz````",
"``````fdbwcbbwficmdpe`aoedembi`a`aaicsesdgeqf`djfsbofs`gaad`aaagdfdfdfdfagdffwctbmckehehabbgegbgbgdcdhfcejcsficgdebbanczcodsdsebebah`nfyfyeo````",
"``````ez`xevahdo`qbwdtcncoczepfbdaffcsbzesf`g`dccefsfsclfpazazaz`gagagagagagakakakakfuck`k`kckfuaxaxagfzejbzercd`rdacfczcodtbvbv`sahafcidzbf````",
"``````cb`n`pfyaydnbkebbtaoedepep`rfffaescsai`ufecjcefpfpfsbjbjfqaaaad`d``g`g`g`g`g`gaufqbsbsbsccdhdhewateqcpcg`adreleycfedbtbvbvdp`bbacy`s`w````",
"````````ddbdcb`b`d`bft`ibtembtem`rdadwesesbzcp`h`hdcdcfpbobjbjfqfcfcbjd`azclfsclfpclbobofmcafmfmejateweccsafbbffdvelelflfxbtalaleobhdudm`n``````",
"````````ei`p`ebw`lerdidtbvdsdsandaffdwdwesesaififefefedjc`dxbobjfcbsfcfcaufsclfpfpfpfpcldxfmdxc`eqatdkes`rcdda`mcxbzelaibkbfdte`bfcvfjdpae``````",
"````````cb`eciefah`ndnfdfgaocwapeldvdwdwdwaiaifrcpfefecjdxcafmexbsbsfcbsfqbodjfsfscedjcecedxeqeqdg`f`t`rcgfbdrg``newaieycwcievalascg`d`ne```````",
"``````````e``ebw`bdoaydiddfxcwap`udvdvdwdrdaaiaibzcp`ug`ejcaccccccexexexexc`djc`c`cjdccjg`eqdgecfsecbzcdcdbbdrekbhekfl`bddezdmevcqdu`dfd````````",
"``````````al`pfybk`n`b`qdi`b`jflapeleldada`rdaaicseseq`yatexaxagcccafmdxfmf`dccjf``u`hg`dgej`yecew`y`acdcd`rav`nekapanahaealalevfofdase`````````",
"````````````aldpbwdi`bba`q`qdncmajapeyajcfa`dadres`ydkew`lewewaxfzejg`g`g`g``hfe`uer`ues`y`ycl`l`f`t`abicdeybhdcayey`bahebfodmfoeveial``````````",
"````````````fobdeffy`d`j`lee`n`nayapapcfananffavfa`fcx`tecdxecew`f`yesbzcsbzcpfrercpbz`y`yf`ewf`eqdwbbepa`ey`n`wajfjfycydmbdeiac`e`pfo``````````",
"``````````````evcbftbwcz`d`ddnbhbhayapana`ana`ffavew`tdwfaf`dk`lfsdgbzaibzaicpfierfres`y`fchenf``mdrcdcocfflaicp`bfdbqbddmcbbfbkdzac````````````",
"``````````````cqbneial`x`bdifiaydobhcmcwczananajelch`mavfa`tcx`fcg`tcsbzaibzai`rbbaiav`tcvfpdcewelcfepemdqcwfl`qfyac`p`ecybw`n`naeee````````````",
"```````````````````pe`alaebwdieedobhcmajcwcwcfapewewdaa`daavfafadjek`tfafafaavdrdrff`mdjchchcxeweyemdsemeddq`jfyfdcyac`e`sfjbwbwee``````````````",
"````````````````````ale`fo`sft`j`q`deeficmey`lcnekeyajedfbdadwav`mchdjchekfafaavavdwewcvcvek`wekcfdsemeddqfxdifyfdciacciddcoaeas````````````````",
"``````````````````e`evevfoezdmbqfyah`q`day`rbhayeyancwepfkedcfdaffeldrffewchdvdvg`djdceyelcnbhaicwbeaocwfxfy`xbfacfoalaebweebf``````````````````",
"````````````````````bne```foe`bnebbwdu`jbaah`b`bfxemdsbedscnemeuedczdqajapfeay`wbzapana`flewfeeyfx`idpah`xciezcbevcqfoas`naobn``````````````````",
"``````````````````````cqfo``e`ev`paceiacdpbfcydzfhbtbebebebebedsfgdsfkemdqananajanczededcfcmcmcwfhezfydzcifofoe``pev`sbwepei````````````````````",
"````````````````````````cbeicbacaccqalbnevdmacfobde``pbv`pbebebtcnbebtaoembtememaocodqdqahcwfyfh`peodzezalevcqe`eialcbeodo``````````````````````",
"``````````````````````````accyeoftbfdzac``eibdbn`pfhddbwdddzfgdsbvdsbwbadqfgbv`idtdzedfxbwdzeodmcbfdfdacale`e```aleibnac````````````````````````",
"`````````````````````````````eci`n`xciftbdei`pdmbdbddzbkfdef`x`sbdebciducwdudpac`pbddpfddzbfbdalebdzcycqdmcyaeasftacbn``````````````````````````",
"``````````````````````````````btcrcrddefaecibqbqe`eiasfteb`sdpeb`idmeoefahfyeodt`i`iebci`eace``sac`pe`bddpbffddo`w``````````````````````````````",
"``````````````````````````````````cbeb`nbwddddbfezdm`pacfodmbdbnevcb`sdpdzahduefascbfoe`bnbnale`bn`pasdz`nef`nas````````````````````````````````",
"````````````````````````````````````alevcbaeeedobwdpcyftcydmeie```ei`sdd`xbkahfjfdeodme`bn`pcbezdpefdoaeezdocb``````````````````````````````````",
"````````````````````````````````````````cq``bdbqefcrdzci`s`e``focqcqbncbeoftfdefcyei``eidmbdftefeeasasbqcb``````````````````````````````````````",
"````````````````````````````````````````````e```al`pbdddee`xddasebacbdbdasebfoe`evbnev`pebbfemciebcyez``````````````````````````````````````````",
"````````````````````````````````````````````````evevevalbqdzeeeebwdpezezcbcydmaldmeibncqevdmasfkbn``````````````````````````````````````````````",
"``````````````````````````````````````````````````````accqbdebcyeoeedpbqbqasezdmbdbdezacale`````````````````````````````````````````````````````",
"``````````````````````````````````````````````````````````````cncbev``evbndmaccrdocb````````````````````````````````````````````````````````````",
"````````````````````````````````````````````````````````````````````````````````````````````````````````````````````````````````````````````````",
"````````````````````````````````````````````````````````````````````````````````````````````````````````````````````````````````````````````````"
};
