/* XPM */
static char *blood2[] = {
/* width height ncolors chars_per_pixel */
"12 12 82 1",
/* colors */
"  c #000000",
". c #002E2E",
"X c #250000",
"o c #000D0D",
"O c #212A2A",
"+ c #000606",
"@ c #213030",
"# c #636A6A",
"$ c #072A2A",
"% c #445C5C",
"& c #4D5454",
"* c #163535",
"= c #000505",
"- c #052E2E",
"; c #041616",
": c #044444",
"> c #76C1C1",
", c #0C4545",
"< c #767F7F",
"1 c #002C2C",
"2 c #000B0B",
"3 c #030404",
"4 c #280404",
"5 c #385C5C",
"6 c #354F4F",
"7 c #001111",
"8 c #347272",
"9 c #6E3B3B",
"0 c #71B1B1",
"q c #000A0A",
"w c #270C0C",
"e c #001717",
"r c #253838",
"t c #418888",
"y c #013C3C",
"u c #192C2C",
"i c #000303",
"p c #164040",
"a c #032A2A",
"s c #520B0B",
"d c #001010",
"f c #435555",
"g c #0C3636",
"h c #8EAFAF",
"j c #282A2A",
"k c #515C5C",
"l c #1B5555",
"z c #002A2A",
"x c #2B3030",
"c c #4F3939",
"v c #AF5C5C",
"b c #003737",
"n c #010000",
"m c #001616",
"M c #042727",
"N c #0C3C3C",
"B c #030F0F",
"V c #002323",
"C c #0C4949",
"Z c #011A1A",
"A c #176464",
"S c #0F0000",
"D c #001C1C",
"F c #8A5B5B",
"G c #419A9A",
"H c #064949",
"J c #041919",
"K c #001515",
"L c #071212",
"P c #031B1B",
"I c #044040",
"U c #0F4E4E",
"Y c #242424",
"T c #031414",
"R c #063B3B",
"E c #2B5C5C",
"W c #396363",
"Q c #182525",
"! c #001414",
"~ c #506969",
"^ c #002121",
"/ c None",
/* pixels */
"////!IByn///",
"//qV$UAp-7i/",
"//.w&8F89,:/",
"/z4cGv#05Qj1",
"/bgrt>h<kYNo",
"/^LO%#00f@Lm",
"/ZPl6~kFcQ;S",
"/eTCuEWxlNaX",
"//.yHs*,HRd/",
"//q=23JM+in/",
"////D/K/S///",
"////////////"
};
