/* XPM */
static char *blood7[] = {
/* width height ncolors chars_per_pixel */
"36 36 92 1",
/* colors */
"  c #000000",
". c #2E4E4E",
"X c #000D0D",
"o c #5D1616",
"O c #212A2A",
"+ c #001A1A",
"@ c #0F2C2C",
"# c #276B6B",
"$ c #190101",
"% c #000606",
"& c #001313",
"* c #196A6A",
"= c #447070",
"- c #0C3939",
"; c #002020",
": c #002D2D",
"> c #084242",
", c #030505",
"< c #3E9191",
"1 c #163535",
"2 c #474E4E",
"3 c #011D1D",
"4 c #000505",
"5 c #57A6A6",
"6 c #052E2E",
"7 c #033939",
"8 c #360505",
"9 c #2B8181",
"0 c #012323",
"q c #000B0B",
"w c #366E6E",
"e c #033232",
"r c #021A1A",
"t c #233737",
"y c #0A0E0E",
"u c #171E1E",
"i c #002525",
"p c #6A8D8D",
"a c #77CBCB",
"s c #000404",
"d c #5FBABA",
"f c #739999",
"g c #0A2828",
"h c #012929",
"j c #364646",
"k c #001111",
"l c #030A0A",
"z c #5C9999",
"x c #0C5151",
"c c #000A0A",
"v c #332525",
"b c #2B3E3E",
"n c #064B4B",
"m c #262222",
"M c #173E3E",
"N c #0E1E1E",
"B c #192C2C",
"V c #AC6A6A",
"C c #062323",
"Z c #5C7777",
"A c #001616",
"S c #051111",
"D c #042727",
"F c #4A0909",
"G c #776D6D",
"H c #7FB0B0",
"J c #000202",
"K c #000F0F",
"L c #042020",
"P c #0F0000",
"I c #001C1C",
"U c #260606",
"Y c #713232",
"T c #5A6767",
"R c #000808",
"E c #021717",
"W c #135959",
"Q c #385959",
"! c #194B4B",
"~ c #000101",
"^ c #044040",
"/ c #264747",
"( c #0F0C0C",
") c #2B5C5C",
"_ c #000707",
"` c #003535",
"' c #343A3A",
"] c #495F5F",
"[ c #182525",
"{ c #245858",
"} c #0C4747",
"| c None",
/* pixels */
"||||||||||||||||cX&&J|||||||||||||||",
"||||||||||||sq%;+k&XA $hi|||||||||||",
"||||||||||kR&`1^:&K&i7^8 m+|||||||||",
"|||||||||As+`O>xx^DL!Oneh` U||||||||",
"|||||||c+_A`nC^W}-Nb}yCrl+ci3R||||||",
"||||||c@`0lDg-}xu[**@M}W6LXk&%s|||||",
"|||||k88FnCg(11!!#w{O{*oo'>,L+;L||||",
"|||||he7LF/.!b##))Y)t##Y'Wv6,`+8||||",
"||||Ic:&rUo*2##w=<Gwjw99Yoo}E7>JX|||",
"|||I_+ly>W)*]9w<p5<T]<Y<=**@yeO:`&||",
"|||;&I3nU.*#9Y<5VzZ]ZGpZ9.OuN6Ov+$||",
"||Rhk>U/*'Y9<25VzpTzdHV5Q'O[N-OFh:$|",
"||y`mmboW*oYY2dVHfpfddV52w/t[xvU-sL|",
"||;P8$FWW!{wz5dVHaHfpzz5]Q{/uxnO^s;|",
"||i`-m-NutbQ<5daaVHapppZ]Q'mug-7eXE|",
"|_A0$>S@ut'j=5zffaaaffT]]QjO1N@D:i&A",
"|+J%:>SxuO)2=zppffapaHZ]TQ'tMNyreAJA",
"|$k;i^S-BOb.]TZTZpHHaHZ]2QtOBNS,:AJ&",
"|PA&;hSNubbj2]TTZpHVdzZZ=Q/buNSL`h0E",
"|y&%P,Syu!)jQ2]ZZTp5TV5<<9/[uSy378h_",
"||A+7lrNNW#..j]TZT]Z5GZY'o{[ygEE3P3|",
"||;i`X3S-M!bbj'2222]]=<<o2{u@e3R&N+|",
"||3cU&ll@}!BOO.QwQ2j'.)){vMgnn04A0$|",
"||cAi`&hn}}1Bm{)wwQtjtb!WWy-$1h~&UJ|",
"|||%i:he>n--M!*o#))O/OWWv@N}F6+4_&||",
"|||_IUm$8>6>xF**o!MBuMWv!gg$7;cRX_||",
"||||s4:u 7C6nxxFyM11g}(OnSD7;%k$+|||",
"|||||4_&`P7mF7N}xtFx}v(PerDh+X3+||||",
"|||||s|JK0::0KKrLD>8M67m0A;X~_$s||||",
"||||||ccX4~Xq%%,,lrrEDi;%+4sRc |||||",
"|||||||X$Aq%q++;qAhA%A+qKkc+&s||||||",
"|||||||||K33X%_q~&+0&_s4s&$$||||||||",
"||||||||||sqI+&|ssA+k|c&P&c|||||||||",
"||||||||||||~~kP3Xcccs~&s|||||||||||",
"||||||||||||||||c|sX |||||||||||||||",
"||||||||||||||||||||||||||||||||||||"
};
