/* XPM */
static char *blood3[] = {
/* width height ncolors chars_per_pixel */
"14 14 101 2",
/* colors */
"`` c None",
"`a c #102A2A",
"`b c #250000",
"`c c #5D1616",
"`d c #415050",
"`e c #010404",
"`f c #3C9090",
"`g c #251A1A",
"`h c #095454",
"`i c #190101",
"`j c #70D0D0",
"`k c #000606",
"`l c #60C0C0",
"`m c #165D5D",
"`n c #636A6A",
"`o c #072A2A",
"`p c #6C7676",
"`q c #000C0C",
"`r c #102222",
"`s c #4D5454",
"`t c #163535",
"`u c #043737",
"`v c #4F6363",
"`w c #044444",
"`x c #76C1C1",
"`y c #001212",
"`z c #0C4545",
"a` c #767F7F",
"aa c #642525",
"ab c #360505",
"ac c #000B0B",
"ad c #385C5C",
"ae c #6D8686",
"af c #000404",
"ag c #001111",
"ah c #030A0A",
"ai c #5AABAB",
"aj c #001E1E",
"ak c #6E3B3B",
"al c #71B1B1",
"am c #274E4E",
"an c #0D1A1A",
"ao c #2B3E3E",
"ap c #053333",
"aq c #121515",
"ar c #270C0C",
"as c #418888",
"at c #374343",
"au c #013C3C",
"av c #040707",
"aw c #031D1D",
"ax c #192C2C",
"ay c #000303",
"az c #070000",
"b` c #164040",
"ba c #537272",
"bb c #120E0E",
"bc c #001010",
"bd c #062323",
"be c #282A2A",
"bf c #0C1515",
"bg c #515C5C",
"bh c #1B5555",
"bi c #002A2A",
"bj c #2B3030",
"bk c #4F3939",
"bl c #000909",
"bm c #003737",
"bn c #010000",
"bo c #001616",
"bp c #042727",
"bq c #030F0F",
"br c #074E4E",
"bs c #0C4949",
"bt c #011A1A",
"bu c #55A1A1",
"bv c #000F0F",
"bw c #042020",
"bx c #419A9A",
"by c #064949",
"bz c #1D4F4F",
"c` c #2D8686",
"ca c #000101",
"cb c #286A6A",
"cc c #044040",
"cd c #001B1B",
"ce c #0C4141",
"cf c #031414",
"cg c #011212",
"ch c #172121",
"ci c #002828",
"cj c #2B5C5C",
"ck c #000707",
"cl c #343A3A",
"cm c #182525",
"cn c #364949",
"co c #AA7979",
"cp c #506969",
"cq c #002121",
"cr c #1C7171",
"cs c #213E3E",
/* pixels */
"``````````cqcqagbiab````````",
"``````ajawbd`h`ranbdcfbc````",
"`````bbmaochcbc`cjaaarcf`b``",
"`````e`zcr`fbxbaas`fbhbfcc``",
"``bnby`mbjak`lae`jbuam`abebt",
"``ar`wcmataialcoa`bgatchbw`k",
"``bt`u`tclcp`pal`x`vclaxavck",
"``blahbbcb`dba`n`sbkcbaqbqci",
"``afcgbdb`beadcnatcjbzbrck`q",
"`````occ`o`c`gcsaxarbfaubl``",
"````caciazapcebbbsabci`yaw``",
"``````btafcdbobpbvbl``ag````",
"``````````acbv`yay`i````````",
"````````````````````````````"
};
