/* XPM */
static char *blue6[] = {
/* width height ncolors chars_per_pixel */
"30 30 91 1",
/* colors */
"  c #000000",
". c #2A2A47",
"X c #131323",
"o c #303050",
"O c #2E2E4E",
"+ c #1B1B2E",
"@ c #19192C",
"# c #101019",
"$ c #181824",
"% c #25253E",
"& c #12121E",
"* c #10101C",
"= c #292945",
"- c #141423",
"; c #2F2F4E",
": c #10101F",
"> c #2D2D4C",
", c #333355",
"< c #202035",
"1 c #1A1A2F",
"2 c #24243C",
"3 c #22223A",
"4 c #2E2E49",
"5 c #0D0D18",
"6 c #0B0B16",
"7 c #282843",
"8 c #11111F",
"9 c #0F0F1D",
"0 c #19192A",
"q c #151526",
"w c #323253",
"e c #040408",
"r c #111122",
"t c #08080F",
"y c #161620",
"u c #14141E",
"i c #212138",
"p c #10101D",
"a c #0E0E1B",
"s c #2B2B48",
"d c #181828",
"f c #161626",
"g c #2F2F4F",
"h c #0B0B11",
"j c #18182B",
"k c #161629",
"l c #333356",
"z c #07070D",
"x c #202036",
"c c #1E1E34",
"v c #1C1C32",
"b c #26263F",
"n c #24243D",
"m c #1F1F2E",
"M c #0D0D19",
"N c #2A2A46",
"B c #262642",
"V c #252537",
"C c #131322",
"Z c #2E2E4D",
"A c #363658",
"S c #151527",
"D c #06060B",
"F c #0C0C14",
"G c #DDDDEB",
"H c #0A0A12",
"J c #080810",
"K c #23233B",
"L c #0C0C17",
"P c #1C1C2A",
"I c #292944",
"U c #0A0A15",
"Y c #121220",
"T c #141425",
"R c #313152",
"E c #1E1E32",
"W c #1C1C30",
"Q c #28283F",
"! c #222239",
"~ c #202037",
"^ c #11111B",
"/ c #0F0F19",
"( c #0D0D17",
") c #090913",
"_ c #262640",
"` c #696985",
"' c #151522",
"] c #424262",
"[ c #212131",
"{ c #2C2C49",
"} c None",
/* pixels */
"}}}}}}}}}}}}Du00-5&}}}}}}}}}}}",
"}}}}}}}}}z@8yi!+8L6WUp}}}}}}}}",
"}}}}}}}}@y!2%K:KPB%k!Uq}}}}}}}",
"}}}}}}6)xp!7N9sC~[N7_<x&-}}}}}",
"}}}}}t6q!9Ns>>ZZK>>s-m%@HF}}}}",
"}}}}&*M$7.{Zgjg;S:gZ9_Y%$5&}}}",
"}}}}^0$9.{ZoRW~,BWR[{[KB+x@}}}",
"}}}tWd8={Zo[,roTl,,j[iq=T!Cf}}",
"}}F@6Y78%:c>,7~lV@,kXg>sKnxUh}",
"}}'UpjI{vrVkl7AAQQljRoZPIb!C'}",
"}}f6'8a[[SS,@cw]]AljwoOijpK$f}",
"}h0u0PP9OgrS+A`G`]A,joOrj+KcHh",
"}#fLCmNj[o0qkAGGG`A,~rZmW9-$^#",
"}^ucKb+n>VRcv4`GG]c1oj[{[aY$0(",
"}^06K_jTd;vT,@]]`AXRV;>fIaK-LD",
"}##6!%7aVZ:o3Q;EA,vogZ{.mn!Wdh",
"}DfTy2BWq>CVYTOsRRo<Z>s=BMi^#(",
"}D'Ly!%SPs>VOOj1ggOZ[s=P%q6yzz",
"}}&dLixa7=W9>>ZsZ>!v:=7bK6605}",
"}}/f6ECCb79XY{{N{{s0=W!2i0+f/}",
"}}e&5+&P2$M7I=[ra=mmC%8Ecad&z}",
"}}}5))WUiLpb_BmaKBmmnKiYW)'5}}",
"}}}}*505@xaK2njM%n2K!xYp0tD}}}",
"}}}}tt-)aW66ypf&!!yxcW*/F^z}}}",
"}}}}}JFzf@udEacccEE/u@-&zJ}}}}",
"}}}}}}D/zU*0F#++++@0htHhz}}}}}",
"}}}}}}}}Jh&--6-H#f--the}}}}}}}",
"}}}}}}}}}et(/H65p^/(HD}}}}}}}}",
"}}}}}}}}}}}}zeettzz}}}}}}}}}}}",
"}}}}}}}}}}}}}}}}}}}}}}}}}}}}}}"
};
