/* XPM */
static char *blue4[] = {
/* width height ncolors chars_per_pixel */
"20 20 130 2",
/* colors */
"`` c None",
"`a c #2A2A47",
"`b c #282845",
"`c c #323252",
"`d c #303050",
"`e c #111121",
"`f c #2E2E4E",
"`g c #0F0F1F",
"`h c #1D1D30",
"`i c #1B1B2E",
"`j c #0C0C12",
"`k c #0A0A10",
"`l c #17172A",
"`m c #212137",
"`n c #767691",
"`o c #1F1F35",
"`p c #2F2F48",
"`q c #101019",
"`r c #0E0E17",
"`s c #181824",
"`t c #25253E",
"`u c #12121E",
"`v c #10101C",
"`w c #20202F",
"`x c #0E0E1A",
"`y c #0C0C18",
"`z c #292945",
"a` c #161625",
"aa c #141423",
"ab c #121221",
"ac c #2F2F4E",
"ad c #2D2D4C",
"ae c #1A1A2C",
"af c #5C5C7A",
"ag c #161628",
"ah c #333355",
"ai c #07070C",
"aj c #313153",
"ak c #05050A",
"al c #0D0D15",
"am c #24243C",
"an c #202038",
"ao c #1D1D2B",
"ap c #0B0B16",
"aq c #282843",
"ar c #11111F",
"as c #2C2C4A",
"at c #3C3C5D",
"au c #1B1B2C",
"av c #19192A",
"aw c #131324",
"ax c #303051",
"ay c #111122",
"az c #1F1F33",
"b` c #19192D",
"ba c #08080F",
"bb c #161620",
"bc c #23233A",
"bd c #0E0E18",
"be c #0A0A14",
"bf c #272741",
"bg c #25253F",
"bh c #10101D",
"bi c #1E1E2E",
"bj c #2B2B48",
"bk c #0C0C19",
"bl c #292946",
"bm c #2F2F4F",
"bn c #101020",
"bo c #1C1C2F",
"bp c #2A2A40",
"bq c #18182B",
"br c #353558",
"bs c #09090F",
"bt c #07070D",
"bu c #15151E",
"bv c #1C1C32",
"bw c #090912",
"bx c #191925",
"by c #24243D",
"bz c #22223B",
"c` c #13131F",
"ca c #11111D",
"cb c #0D0D19",
"cc c #2A2A46",
"cd c #171726",
"ce c #151524",
"cf c #131322",
"cg c #0F0F1E",
"ch c #343456",
"ci c #08080D",
"cj c #151527",
"ck c #1F1F34",
"cl c #1B1B30",
"cm c #0C0C14",
"cn c #0A0A12",
"co c #494967",
"cp c #23233B",
"cq c white",
"cr c #14141F",
"cs c #1E1E2C",
"ct c #0C0C17",
"cu c #292944",
"cv c #141422",
"cw c #2D2D4B",
"cx c #0E0E1C",
"cy c #373758",
"cz c #181829",
"d` c #161627",
"da c #141425",
"db c #313152",
"dc c #121223",
"dd c #030307",
"de c #BCBCD7",
"df c #1C1C30",
"dg c #1A1A2E",
"dh c #0B0B12",
"di c #18182C",
"dj c #090910",
"dk c #222239",
"dl c #202037",
"dm c #11111B",
"dn c #1E1E35",
"do c #0D0D17",
"dp c #0B0B15",
"dq c #1B1B28",
"dr c #262640",
"ds c #171724",
"dt c #151522",
"du c #2C2C49",
/* pixels */
"```````````````vdpbbazd``idt````````````",
"``````````cmbbbxbg`ecpbfbgckbedm````````",
"`````````vdscb`zbjamcwbjbj`zcsbbav``````",
"``````czcbbq`acwbmbvaccjbmdudrcsbxca````",
"````c``vbvcxad`dajaqahdlbjbvcf`w`tbxc```",
"````aecbaqagbncjahdachawahblbmascpdkbe``",
"``baap`haodidn`bbpbpataechaw`dcwcsbyapba",
"``c`bubvaoadbmad`icodeafbr`laxadbqb`ckcv",
"``a`apbvcccl`danb``ncq`ncybmclcwcxagbd`q",
"```rdpby`ldfacagah`pcocodcdbacbicubxaadj",
"``cvbhbcbfdcadbn`oacd``cabbmadbiao`xabal",
"``bsct`m`t`objbv`fbndgbm`fcgbjcu`t`ybbdm",
"``akcdaparcfdqbvaqcw`gcwdubzbfaodkapcdbt",
"````c`bw`ubcdsbfcuccaycc`wbfbg`lckdmc```",
"````bacecr`sbobx`tbkd`dr`tamdkckaucndd``",
"```````rcecf`hd`bbctc`dkbbct`hdpcmci````",
"````````cmcfcdcvbocrcz`haeae`qdpal``````",
"``````````ba`jc`cebdcncmcec``kak````````",
"``````````````aidhcm`kdobsai````````````",
"````````````````````````````````````````"
};
