/* XPM */
static char *blue4[] = {
/* width height ncolors chars_per_pixel */
"20 20 89 1",
/* colors */
"  c #000000",
". c #282845",
"X c #303050",
"o c #111121",
"O c #2E2E4E",
"+ c #1D1D30",
"@ c #17172A",
"# c #212137",
"$ c #2F2F48",
"% c #101019",
"& c #181824",
"* c #25253E",
"= c #10101C",
"- c #1A1A29",
"; c #2F2F4E",
": c #2D2D4C",
"> c #1A1A2C",
", c #161628",
"< c #333355",
"1 c #07070C",
"2 c #141426",
"3 c #313153",
"4 c #0D0D15",
"5 c #090911",
"6 c #22223A",
"7 c #13131E",
"8 c #0D0D18",
"9 c #1D1D2B",
"0 c #0B0B16",
"q c #282843",
"w c #1D1D2E",
"e c #131324",
"r c #040408",
"t c #111122",
"y c #1F1F33",
"u c #08080F",
"i c #161620",
"p c #0A0A14",
"a c #272741",
"s c #25253F",
"d c #0E0E1B",
"f c #2B2B48",
"g c #0C0C19",
"h c #292946",
"j c #2F2F4F",
"k c #101020",
"l c #1C1C2F",
"z c #1A1A2D",
"x c #2A2A40",
"c c #18182B",
"v c #09090F",
"b c #15151E",
"n c #1C1C32",
"m c #191925",
"M c #24243D",
"N c #13131F",
"B c #1F1F2E",
"V c #2A2A46",
"C c #171726",
"Z c #151524",
"A c #131322",
"S c #0F0F1E",
"D c #38385A",
"F c #343456",
"G c #1F1F34",
"H c #1B1B30",
"J c #0C0C14",
"K c #DDDDEB",
"L c #494967",
"P c #23233B",
"I c #0C0C17",
"U c #292944",
"Y c #161624",
"T c #141422",
"R c #2D2D4B",
"E c #181829",
"W c #161627",
"Q c #0B0B12",
"! c #18182C",
"~ c #222239",
"^ c #202037",
"/ c #11111B",
"( c #1E1E35",
") c #0D0D17",
"_ c #0B0B15",
"` c #262640",
"' c #696985",
"] c #2C2C49",
"[ c None",
/* pixels */
"[[[[[[[=_iyWlT[[[[[[",
"[[[[[JimsoPasGp/[[[[",
"[[[[=&8hfMRffh9i-[[[",
"[[[E8cVRjn;Wj]`9m=[[",
"[[N=nd:X3q<^fnAB*mN[",
"[[>8q,kW<2Fe<hj]P~p[",
"[u0+9!(.xxD>FeXR9M0u",
"[Nbn9:j:lLK'F@X:czGT",
"[Y0nVHX^z'K'DjHRd,8%",
"[)_M@l;,<$LLe3;wUmT5",
"[T=Pae:kG;W3oj:w9do4",
"[vI#*GfnOkzjOSfU*gi/",
"[rC0kA-nqRSR]6a9~0C1",
"[[N57P&aUVtVBas@G/N[",
"[[uZN&lm*gW`*M~G>Qr[",
"[[[)ZA+WiIN~iI+_J1[[",
"[[[[JACTlNE+>>%_4[[[",
"[[[[[uQNZ8QJZN5r[[[[",
"[[[[[[[1QJ5)v1[[[[[[",
"[[[[[[[[[[[[[[[[[[[["
};
