/* XPM */
static char *blue11[] = {
/* width height ncolors chars_per_pixel */
"72 72 175 2",
/* colors */
"`` c None",
"`a c #2A2A47",
"`b c #1B1B2B",
"`c c #282845",
"`d c #191929",
"`e c #323252",
"`f c #303050",
"`g c #111121",
"`h c #2E2E4E",
"`i c #0F0F1F",
"`j c #1D1D30",
"`k c #1B1B2E",
"`l c #0C0C12",
"`m c #0A0A10",
"`n c #17172A",
"`o c #212137",
"`p c #767691",
"`q c #1F1F35",
"`r c #2F2F48",
"`s c #101019",
"`t c #0E0E17",
"`u c #272740",
"`v c #181824",
"`w c #25253E",
"`x c #21213A",
"`y c #12121E",
"`z c #10101C",
"a` c #20202F",
"aa c #0E0E1A",
"ab c #2B2B47",
"ac c #0C0C18",
"ad c #292945",
"ae c #161625",
"af c #141423",
"ag c #242436",
"ah c #313150",
"ai c #121221",
"aj c #2F2F4E",
"ak c #2D2D4C",
"al c #2B2B4A",
"am c #1A1A2C",
"an c #5C5C7A",
"ao c #161628",
"ap c #333355",
"aq c #07070C",
"ar c #313153",
"as c #05050A",
"at c #0D0D15",
"au c #07070F",
"av c #24243C",
"aw c #202038",
"ax c #0D0D18",
"ay c #1D1D2B",
"az c #0B0B16",
"b` c #282843",
"ba c #262641",
"bb c #232334",
"bc c #11111F",
"bd c #0F0F1D",
"be c #2C2C4A",
"bf c #3C3C5D",
"bg c #2A2A48",
"bh c #1B1B2C",
"bi c #19192A",
"bj c #151526",
"bk c #131324",
"bl c #303051",
"bm c #111122",
"bn c #1F1F33",
"bo c #19192D",
"bp c #08080F",
"bq c #161620",
"br c #23233A",
"bs c #212138",
"bt c #0E0E18",
"bu c #0A0A14",
"bv c #272741",
"bw c #25253F",
"bx c #23233D",
"by c #12121F",
"bz c #10101D",
"c` c #202030",
"ca c #0E0E1B",
"cb c #1E1E2E",
"cc c #2B2B48",
"cd c #0C0C19",
"ce c #292946",
"cf c #181828",
"cg c #28283B",
"ch c #262639",
"ci c #2F2F4F",
"cj c #101020",
"ck c #1C1C2F",
"cl c #2A2A40",
"cm c #18182B",
"cn c #353558",
"co c #09090F",
"cp c #333356",
"cq c #07070D",
"cr c #15151E",
"cs c #202036",
"ct c #1C1C32",
"cu c #090912",
"cv c #191925",
"cw c #26263F",
"cx c #24243D",
"cy c #22223B",
"cz c #13131F",
"d` c #11111D",
"da c #0F0F1B",
"db c #0D0D19",
"dc c #2A2A46",
"dd c #262642",
"de c #171726",
"df c #151524",
"dg c #131322",
"dh c #111120",
"di c #2E2E4D",
"dj c #0F0F1E",
"dk c #1D1D2F",
"dl c #343456",
"dm c #08080D",
"dn c #151527",
"do c #06060B",
"dp c #1F1F34",
"dq c #1B1B30",
"dr c #0C0C14",
"ds c #0A0A12",
"dt c #494967",
"du c #23233B",
"dv c white",
"dw c #14141F",
"dx c #212139",
"dy c #1E1E2C",
"dz c #2B2B46",
"e` c #0C0C17",
"ea c #292944",
"eb c #0A0A15",
"ec c #262637",
"ed c #141422",
"ee c #2D2D4B",
"ef c #0E0E1C",
"eg c #1A1A2B",
"eh c #373758",
"ei c #181829",
"ej c #161627",
"ek c #333354",
"el c #141425",
"em c #313152",
"en c #121223",
"eo c #222236",
"ep c #030307",
"eq c #BCBCD7",
"er c #1E1E32",
"es c #1C1C30",
"et c #1A1A2E",
"eu c #0B0B12",
"ev c #18182C",
"ew c #28283F",
"ex c #090910",
"ey c #222239",
"ez c #202037",
"f` c #11111B",
"fa c #1E1E35",
"fb c #0F0F19",
"fc c #0D0D17",
"fd c #0B0B15",
"fe c #1B1B28",
"ff c #090913",
"fg c #262640",
"fh c #171724",
"fi c #151522",
"fj c #212131",
"fk c #2E2E4B",
"fl c #2C2C49",
/* pixels */
"````````````````````````````````````````````````````````````````````````````````````````````````````````````````````````````````````````````````",
"``````````````````````````````````````````````````````````````bpcudf`tdeded`aedfdrau````````````````````````````````````````````````````````````",
"``````````````````````````````````````````````````````cqd`e`fdbh`kckck`yesesckckbzbiegaobped````````````````````````````````````````````````````",
"`````````````````````````````````````````````````ydeeidack`jficv`vdecscsdbazaccmaadgaf`jckdacuf`ed``````````````````````````````````````````````",
"````````````````````````````````````````````ae`dbhfdcmaoczcs`oeyeyeyfee`bzamazaaesacbiazczbnerckdgdfae``````````````````````````````````````````",
"````````````````````````````````````````ds`ybh`j`k`vbq`yeyduavavbddbcadbca`wdhaabravfedudpej`ocseraabubiau``````````````````````````````````````",
"````````````````````````````````````btcfbh`jfbaa`oeycvav`w`wamezaidgdbbjbselfebvbvfgcw`w`wcmbzet`o`vaaffbhde`t``````````````````````````````````",
"``````````````````````````````````dregckerdbaaeyfiaccxcwbvbvfeb`cabcbz`qduaielamdfcab`bvbvfeeyfhduey`yejerckcfej````````````````````````````````",
"``````````````````````````````bpdgbh`jdpfedbelctd`aedyb`b`eaaf`qbdbj`aaybnctelcxbvayadeab`b`bvfg`wfeetaadwdp`jbccfcz````````````````````````````",
"````````````````````````````fccuaxazda`o`odbcabja`b`b`addc`afj`adjbjfl`devbw`ndg`aafab`adcadb`b`bvcxcaey`o`o`qaobheied``````````````````````````",
"``````````````````````````ed`zfb`vesbhdudxelcmaib`addc`accflbebeeeeeeebbeeeeao`idjbebeflcc`adccbdecsdxbwcxdu`vaie`e``dfi````````````````````````",
"````````````````````````bpcufibier`qduaiaielaiefdc`accflbeeeeeakdidididididibjao`nakeeeebeflcca`af`kbdbvfi`wductazebaa`dat``````````````````````",
"``````````````````````auei`kbcfb`jdudbdbcacjcjdeccflbeeeakdia`faevenaoeab`brajcxbeawdidiakfldjaodhefdjfedhfe`w`oesdb`z`keids````````````````````",
"````````````````````czcfbhaxcsaidufecacxdgad`accfleeakdidiajam`ncjaodncjboevelcydqet`xajdidibhevbk`i`qbddecmfg`wfe`kbq`de``zcz``````````````````",
"``````````````````atdeamca`jazcacx`vbzb`ad`accbeeeakdiajci`fajcybxccctcmagbhawet`gbkbw`fciajdib`bkdjcjdjefb`bvcw`bdbbsdp`jamcud`````````````````",
"```````````````````tbibi`jacd`cxdycabcad`accbeeedidiajci`fcievcjbmbmee`e`e`ebgaw`gfaccbl`fci`wawfab`bkboevaib`bv`wboaa`obnesbi`s````````````````",
"````````````````cqeiff`vcsey`v`waidhbwayccbeeedi`hci`f`fememeablbmbmembrekbbetdqaoctevbiem`faocjdqfaelevezbv`bbnbv`wcseycsbq`kdaed``````````````",
"```````````````zcuegbuaxbsbzaofgeoa`efavfleedidici`fblemem`e`ech`hbmenchap`jagbednbmctccememccbabaagbjaw`dela`cbbvfgfe`jbsdpbuamat`m````````````",
"``````````````atbiffercsctavcsbvb`cbetflbeakdiaj`fbbdnem`eekek`n`nfab`cmelcmcpapapapcgek`eemciajeldkageaa`cbabadb`bvaieleycsbqbdd`fi````````````",
"````````````dsedame`debs`qaidbb`adfjbwbeeediajb`fa`hejc`ekekagevfaceaoecdldldlcpcpapapekek`edd`nbjciajdieecbccdcadbzduesdubs`qaae`de`y``````````",
"````````````fibtffebcmesdbezfeb`adelet`dbhcteldnbmencebmekapdncyenevctagdldldleldn`jamapcgbbevcidn`fci`hdieeflabadeyedfeaveyfh`kaicufi``````````",
"``````````drdeamfdejazaidb`nb`eaaybwbabmen`ncy`cecalenceapcpdndndqetfacncncnecdnecbockcgagb`bketfadzciajdieebecccjduayfg`wdubsbqdeeide`t````````",
"``````````eddefdcabdazducsbdb`ad`wejcjendqb`babbembgawelapcpbe`ecscncncncncnclcncgbmfkclbkcybmbaaobl`fcidiakbebbfacjb`bv`waveycs`je`cfed````````",
"`````````mcqbiffamazaicmcmeyb`dcccfl`icjdxfacjecagemdqapcpdlevccagcncncncncncncgcnecdldlch`haofjarem`fciajdieecbawcbb`bvcwaveycsckaibifbfd``````",
"`````````y`sdsazazer`jetdb`kerdcccbedubmdcbv`nfaenbkelapcpamelbwelehcgbfbfbfbfaocgcndldlcp`jaoee`eembl`fa`dieedgelbdeaefdycxbr`obqfdamde`y``````",
"````````dgcfdabudgacdkcsdbcjej`nb`beakbhevel`nbkaodncgcpdlenevbkb``rclahdtdtbfbf`rcncndldlcpaodnagembl`fcidiakdgbodqdgetefavdubs`qacbycfdg``````",
"``````btfdeiaafd`zaxd`cm`wet`nctbddjakdicmdi`n`genawapcpdlenelcmeyahahdtdtanandtbfbfcndldlcpdnbmcgembl`fcidiakezbdfgdgfebzfiaveycsbqe`f`fi`m````",
"```````zcqbiffbjerdbduca`qb`adaidcceakdicicjbxdubmarcmcpdlcmbvewdzandt`panananandtbfehcndlcpewdnbmemem`fcidiakcjaiefdhayer`qaveycserbqcuae`l````",
"```````ybpbidadw`jeydgdbfeb``wefbb`nakdiciagccejenctcecpdlcsehehehan`peqeqeq`p`pandtbfcndlcpagbxboecbl`fcidiakdgcfdueyayeserbyeycsercrcud``y````",
"``````by`tcuda`v`oey`naybnb`ad`wea`icbdici`fblemdnaoenekdlclekcl`p`peqdvdveqeqeq`pdtbfehdlcpcgbwbmcydk`fcidiakdjbaef`netelcacaey`obnesazbpby````",
"````asczdeaebubq`vdwef`qfeb`ad`acccyevejci`fblemaoen`hapdlcmerdtan`pdvdvdvdvdveq`panbfehdlapewevet`xb`fjagdiakegbkefdxaidgbkbjey`obhes`tbtczeu``",
"````atfbdee``jeb`ofeejfaay`dad`acc`qbkbkeaciblemfjbwbgapdzdleranan`pdvdvdvdvdveq`panbfehdlapcmcycybmbvcyetdiak`bduezdncmdhdbesey`oafbie``tfbat``",
"`````td`de`t`jcr`oeydkdbcffeayayfjdcdj`xet`g`fememendnapdib`csehdt`peqdvdvdveqeq`pdtbfehdlbkblakawfa`gbadgdieebedgefbdbodh`wdhax`oebdsatf`d``t``",
"````btbydeamesbncseyavayfgdebvaicj`n`nctaddx`fblem`nbmekec`famcgan`peqeqeqeqeq`pandtbfckenbmbmdncicjcjctawc`eeflccdccw`g`g`ndbdacsaxckcudefbds``",
"````btbpdeamckercseydufefgcb`n`gefcjdjadetcyci`fagad`gb`apce`kbf`rdtan`p`p`p`pandtbf`j`abkekenejelcj`cabdiakbeflabdceabodhbddueycsbidgegbpcqas``",
"`````md``scre`bccseydu`wfgaiduefcjdgesdgew`hci`fctbmcj`eekagelbibbbfdtbfdtanandtbfbf`netcm`eemembbeceo`hdieecb`db`adb`bccaaydueyazebckcucudsdm``",
"````eucqf`f`fffddbbsbrcxcwbvendhdncmbvfjakdiaj`gcicx`nem`eekaocmbn`e`rch`rbfdtbfehcnenboctemembl`fciajdiakeeflbrdcadb`bvcacabrbsfbdfaxcraeexeu``",
"````asdr`sfbaie`bd`oeyav`wfga`cacjcjaicbb`didicccjbwaiemembmenbbdlbhfkajcgbfehcndlapbbbwdnembl`fciajdidieebeccabdceab`fe`ncvey`ocvbubtbi`se`dr``",
"````dscqae`dbudsebaaeydu`wfgbvcfeyezefdgbeakdieecjbmamblbbdnevbbfkc`cybxaodldlapek`eemb`enc``fcici`hdiakbeflccdcadb`dhdectbyey`odpdbe``daecqco``",
"````epd`dfcfdgebdbebeyducxbwbvb`aebobk`gbeeeakagfgelb``fblelbgdnemenfa`xej`e`e`eemem`ffjccdg`waj`hdiakeebecc`udceab`dyay`kaceycserafamcf`tdreu``",
"````dof`eddefdejaiam`oeyav`wfgbva`dudccjccbeeeakejbk`ici`fddenbwfaevcjdgememememewblbl`f`fbxfa`hdiakeebeccabdcadb`bvfgcvdjfe`o`qerd`at`scqcqas``",
"``````fbbpdedgdebibz`veyducxbwbvbwcaeyefccflbeeeakbeaoajcibh`qcjelcjbxeiblblblec`f`f`fcicicb`gecakeebeflccdcaddya`bvbwboejesbhdp`je`e`dscqfb````",
"``````btcuaecufdfcelcsbseyav`wfgdjfgbv`d`accflbeeebjeedi`hajajawbmbmfacjen`f`fciciciciaj`hdidneleebeflcc`aadeaayayfgavdhbjbjeleresbjfdau`tbt````",
"``````atf`ficufdaabu`ycseyducxdyejfeafeadc`accccfjetfaakdidiecagcbfaevbkctfjciajaj`hdididiakelbkflcbcc`adceab`bvfg`wcvdbdbazd`buckf`dgd``yat````",
"``````ds`leddeedfdbuazcs`ofedacd`qbnfeb`eadc`accb`djbveeeeakdididiavdq`ib`didididididiakeeeebj`gdjfafjdceab`bvfgcw`wdueyazdhelaobhbiaefd`zds````",
"````````asczdff``tckdf`vcscvazacducdfebvb`eaaddcceetcyezbjeeeeeeakakc`aoakdiakakakeeeeee`dccctdxaocjdheab`bvbvcw`wavbrbhdbe`ckbiamcfdr`zfb``````",
"````````dod``yde`ybjbcbt`q`ocve`dhcxaibvbvb`cbayducydxdqbmctbbfjbeeeeecxdjeleeeebebebeflccceaicya`a`cj`qfjfeay`wavduey`oebbudgbhbidefdd`do``````",
"````````bp`sdraecfdafcejercsaiazesca`wcwfgbva`dudjefefcyctaicbccflflbefjdcbobeflflccccccabfjdyadadb`bo`nbo`wbyaocm`v`ocsbid`ckegcfaeeu`sep``````",
"``````````fc`zeddedacuffbqdpczcaerduav`wcwfgbhcjdqdgbzay`day`aabccccccdgefdxccccccab`a`adcfjadeab`b`dyeddbdbbzbzdbczcsbqelffam`ddeedf`fc````````",
"``````````ep`satdfcubdcuaferdpaz`odpduav`wbwdgdbaib`b`eaadaddcdcdcdcaydhefdxdjdcdcdcdcay`gelbhb`bvbvfgcvbs`kbd`jaibddpbubhaxbidedfczdseu````````",
"````````````fcdoedafejcudg`jercmesbseyducdcmctcabdbvbvb`b`b`eaeaadayfjbocjbdfaafadeaeaa`cmbdbvcfbjai`wedczda`jbze`fier`jaidrcfaeedd`co``````````",
"````````````as`lbycqdabpbick`jdweb`v`oeyfhdhbidbdbcwfgbvbvbvb`b`bcbkbzeybjefbddyb`b`b`ay`kbjbcbdbifiavdubrey`obtesdw`jcfe`dscufibyfbds``````````",
"``````````````ateuczdfbpcuamck`jbi`ycs`oey`zacdgcz`w`wcwfgfgbvbvcbaiaiaocadhfeaybvbvbv`obhdy`d`wcxavdueyey`ocsctbce`ckcfbudacufdfdco````````````",
"``````````````asbtd`bpededbiamcmbubj`vcscsbsdbcaaacvcx`w`w`wcwcwdyeyeldgejcmfefgfgcwcw`w`w`wcxavdubreybscscsdpbze`crambue`bybydoaqas````````````",
"````````````````eufb`y`sfdf`bifdaxbhacerdpcsfiazcabrduduavcxcx`wbycs`qdgbzbjed`w`w`wcxcxavdudubreybs`ocsdpbtaidbe`ambidfaubyeufdaq``````````````",
"``````````````````drfbdscqaedebideffaabuerdpfdbzaicafecfbrdudufhfhdpacbscsavavavavavdudubreyey`zbqcscsdpbubzbudwamcrdedsfd`ycqep````````````````",
"``````````````````dmat`zdobyaedefdcudgfbcr`jeraxeldb`kdbczeyeyazbjbd`vfielca`vbrbreyeybnbs`o`oebcvdperbqffacdgfcdr`saeed`s`zaqep````````````````",
"````````````````````coatdo`yeddfczbpde`d`kck`jer`v`zaibdescs`bamdbercvfi`veyeybsbs`ocvcscscsebazerer`jckdgfddrf`aue`dr`y`zatep``````````````````",
"``````````````````````exat`s`ydsbtcufibiegbh`kck`jaxbzaieldpbheiacbjcscscscscscscscs`qdpdpfh`jbt`jck`kbhegcuejfcdse`bp`satbp````````````````````",
"````````````````````````exdr`ldoaucqfidecfbiegbhcrcfao`y`jer`zebazdpdpdpdpdpdpdpbnerereregf`debqcrbhegbibzdfbybtcqcq`tatex``````````````````````",
"``````````````````````````coaqatf`byeddfaedeeibidgcubyfdckckfdbuff`j`jf`eicf`j`j`j`j`jaacadrbhf`e`bieibpaieucuexdododmco````````````````````````",
"````````````````````````````epeubtcq`yczbp`sbpbpdsfdaeegambheiff`sckckckckckckck`k`kf`buamegbi`dcfdedfdse`bpdofccqcodm``````````````````````````",
"``````````````````````````````aqeuatdocqfbds`tdfaededecfeiaacucregamamamamamamamegegbibieicfdedsbtdsbpbpcqbt`lasasaq````````````````````````````",
"``````````````````````````````````coepcqbpcq`yczedfidfaedeaecubpdeeieif`cucueieicfcfdededeaeatbpbybpdobpfdasdoep````````````````````````````````",
"````````````````````````````````````epaqasdofbf``ybyczedfifidfcucubpcubpeufificu`saedf`sfiedczdrcudo`mascq`maq``````````````````````````````````",
"````````````````````````````````````````epasdr`tfb`zf``ybyczeubpdscqaubtdred`tedededczczbyds`meufb`tasbpep``````````````````````````````````````",
"````````````````````````````````````````````asepaqdocofbfb`zfbbtdobpcq`zbt`y`y`yd`d`f``zfbfb`tateuepaq``````````````````````````````````````````",
"````````````````````````````````````````````````dodoepeudrat`tdodseudoas`mfbfbfbfbbt`tatdreudsdoaq``````````````````````````````````````````````",
"``````````````````````````````````````````````````````aqasepepasepcoasepexdrdreueuds`mepdoaq````````````````````````````````````````````````````",
"``````````````````````````````````````````````````````````````epepepepepdoaqaqasepaq````````````````````````````````````````````````````````````",
"````````````````````````````````````````````````````````````````````````````````````````````````````````````````````````````````````````````````",
"````````````````````````````````````````````````````````````````````````````````````````````````````````````````````````````````````````````````"
};
