/* XPM */
static char *blue10[] = {
/* width height ncolors chars_per_pixel */
"60 60 173 2",
/* colors */
"`` c None",
"`a c #2A2A47",
"`b c #1B1B2B",
"`c c #282845",
"`d c #191929",
"`e c #323252",
"`f c #303050",
"`g c #111121",
"`h c #2E2E4E",
"`i c #0F0F1F",
"`j c #1D1D30",
"`k c #1B1B2E",
"`l c #0C0C12",
"`m c #0A0A10",
"`n c #17172A",
"`o c #212137",
"`p c #767691",
"`q c #1F1F35",
"`r c #2F2F48",
"`s c #101019",
"`t c #0E0E17",
"`u c #272740",
"`v c #181824",
"`w c #25253E",
"`x c #12121E",
"`y c #10101C",
"`z c #20202F",
"a` c #0E0E1A",
"aa c #2B2B47",
"ab c #0C0C18",
"ac c #292945",
"ad c #161625",
"ae c #141423",
"af c #242436",
"ag c #313150",
"ah c #121221",
"ai c #2F2F4E",
"aj c #2D2D4C",
"ak c #2B2B4A",
"al c #1A1A2C",
"am c #5C5C7A",
"an c #161628",
"ao c #333355",
"ap c #07070C",
"aq c #313153",
"ar c #05050A",
"as c #0D0D15",
"at c #07070F",
"au c #24243C",
"av c #202038",
"aw c #0D0D18",
"ax c #1D1D2B",
"ay c #0B0B16",
"az c #282843",
"b` c #262641",
"ba c #232334",
"bb c #11111F",
"bc c #0F0F1D",
"bd c #2C2C4A",
"be c #3C3C5D",
"bf c #2A2A48",
"bg c #1B1B2C",
"bh c #19192A",
"bi c #151526",
"bj c #131324",
"bk c #303051",
"bl c #111122",
"bm c #1F1F33",
"bn c #19192D",
"bo c #08080F",
"bp c #161620",
"bq c #23233A",
"br c #212138",
"bs c #0E0E18",
"bt c #0A0A14",
"bu c #272741",
"bv c #25253F",
"bw c #23233D",
"bx c #12121F",
"by c #10101D",
"bz c #202030",
"c` c #0E0E1B",
"ca c #1E1E2E",
"cb c #2B2B48",
"cc c #0C0C19",
"cd c #292946",
"ce c #181828",
"cf c #28283B",
"cg c #262639",
"ch c #2F2F4F",
"ci c #101020",
"cj c #1C1C2F",
"ck c #2A2A40",
"cl c #18182B",
"cm c #353558",
"cn c #09090F",
"co c #333356",
"cp c #07070D",
"cq c #15151E",
"cr c #202036",
"cs c #1C1C32",
"ct c #090912",
"cu c #191925",
"cv c #26263F",
"cw c #24243D",
"cx c #22223B",
"cy c #13131F",
"cz c #11111D",
"d` c #0F0F1B",
"da c #0D0D19",
"db c #2A2A46",
"dc c #262642",
"dd c #171726",
"de c #151524",
"df c #131322",
"dg c #111120",
"dh c #2E2E4D",
"di c #0F0F1E",
"dj c #1D1D2F",
"dk c #343456",
"dl c #08080D",
"dm c #151527",
"dn c #06060B",
"do c #1F1F34",
"dp c #1B1B30",
"dq c #0C0C14",
"dr c #0A0A12",
"ds c #494967",
"dt c #23233B",
"du c white",
"dv c #14141F",
"dw c #212139",
"dx c #1E1E2C",
"dy c #2B2B46",
"dz c #0C0C17",
"e` c #292944",
"ea c #0A0A15",
"eb c #262637",
"ec c #141422",
"ed c #2D2D4B",
"ee c #0E0E1C",
"ef c #1A1A2B",
"eg c #373758",
"eh c #181829",
"ei c #161627",
"ej c #333354",
"ek c #141425",
"el c #313152",
"em c #121223",
"en c #222236",
"eo c #030307",
"ep c #BCBCD7",
"eq c #1E1E32",
"er c #1C1C30",
"es c #1A1A2E",
"et c #0B0B12",
"eu c #18182C",
"ev c #28283F",
"ew c #090910",
"ex c #222239",
"ey c #202037",
"ez c #11111B",
"f` c #1E1E35",
"fa c #0F0F19",
"fb c #0D0D17",
"fc c #0B0B15",
"fd c #1B1B28",
"fe c #090913",
"ff c #262640",
"fg c #171724",
"fh c #151522",
"fi c #212131",
"fj c #2C2C49",
/* pixels */
"````````````````````````````````````````````````````````````````````````````````````````````````````````````````````````",
"````````````````````````````````````````````````dn`tdvahbhdebhbhecehawbs`x``````````````````````````````````````````````",
"```````````````````````````````````````````yaweffcerbpbpeqbmbmbbaneiahay`kcedqfh````````````````````````````````````````",
"````````````````````````````````````cpddeffcbbbsbpbpbrexexal`kabdgdfabaway`v`jcjbt`tcz``````````````````````````````````",
"````````````````````````````````dnddaler`kbpfdexbqaucw`nccdac``wcccucwfdcueqcrcreq`kbsddar``````````````````````````````",
"``````````````````````````````dqefcjbpdzexcuau`wbvekdt`gciekdtbiaxbubuffbvbcandoexfgbtdvbiez````````````````````````````",
"``````````````````````````drdzbgeqcldfbcbxdjdxbuazazcibcax`dci`qffb`biazazbuff`wcwbqc`bpeqbgcecz````````````````````````",
"````````````````````````fcehfedzcrabbyalexbuaze`dbdfdidicbaxdfbuavdffidbdbe`azbuffc``qfhcreq`xbhec``````````````````````",
"``````````````````````cz`yalahfgbqahdabjazacdbaacbfjbdauede`edciblcbenfjcbaadbac`zexdxcwbqbpanaybhec````````````````````",
"````````````````````boezayclbidtexeedididbaacbbdededajdhdhdhdhdhdtesajededbdcbfiae`ndxff`wdtaldadrbhas``````````````````",
"```````````````````tbherc``ndtdteeeeby`zcbfjedajdhdy`abnbvbzebebciavcwebdhajbierahah`qdxcu`wdtal`kdzbhcp````````````````",
"````````````````bxeh`yawdadtcuclazac`acbbdeddh`hch`n`ncschdcaicsdmdmcif`ch`hdhfjdidiffbyahdx`wczcubmbsczbx``````````````",
"``````````````asddbxbtcsda`wcsekac`acbbdajdhaich`favcicif`cgaq`jcb`navdm`fchaiekesbjeeesbmazffbcc``oeqbgctcn````````````",
"``````````````ctez`j`dexfgcvbccw`acbbdbzdhch`fbkelfidpbleycfejcfdc`ndpbnelbkfiesbdbnfiexdt`ubucv`kexcr`jefde````````````",
"````````````cyehdz`ybrbycsbubqeecbbdajdhch`fbkelaq`eafazakafaobnbheyeucscbelbacsb`badffidf`zdxbu`wdabrcufcctcy``````````",
"```````````matdv`jcrehczbbazaccsfjeddhai`fbabz`eejejblchbkeuekcjcoaoaoaiej`eclemfifienafbiaaacazekccexcrdfctaddl````````",
"``````````cydzfcehbrclclcae`dxbueddh`i`qbdbdbjaiaobnesembj`jdkdkdkdkedaoaoejbkcsbjchaidhedcbdbe`exfdaubrawbtfccy````````",
"````````asezalayaydaahanaz`udganbvcici`gf`dmajbnao`jazekavdkdkdkcgbjbn`naoemancdbj`fchdhedbdaabcdtffcwexcrehbtad`m``````",
"````````bxbofebbbierdw`kazdbcaemcidtdc`nelbvblaocobfeualcfcmcmazbmcmemebclbidmaibjbkchaidhbd`bbrahbu`wdt`ocjfece`l``````",
"````````fhbhbtdzbybcclahe``afj`icsazblfiafdhancodkeuazcmcmcmcmcmcfejcfdkdkbj`n`naqel`faidhedaxcie`bucvfdexdodfbhfh``````",
"``````bobxehayabda`jdaexaxaabdeudpbvf`bv`a`ccfcockbjf`ckbebebebecfalcmdkdkcocdbj`eel`fchdhedahbcdxc`fhcwexcrayalbobo````",
"```````xddbcay`yfhbidgc`eecifiajfidcdmcidmfiaocoalekf`eq`eagdsdsdsbeegcmdkcoclcw`eelbkch`hajdwee`nc`by`wbqcr`va`ddbo````",
"``````dfehfeanfheidgekaz`zbldmaj`hcaajeubn`haodkbj`kexcfegamam`pamdsbeegcmdkaocxbjelbkch`hajbv`qclfd`wbcdt`oeqbhdedf````",
"````etcybhaycqfhbhcsfdazaxcadiaj`hchchdm`gajdmdk`kagbeds`p`pepep`pamdsbecmdkao`neuelbkch`hajblahclca`kbndtbrdocqdrecet``",
"````bsfcbhd`dobrbrczbmazcacb`qca`hchbkeldmf`andkdkej`ramepduduepep`pambecmdkaoelblciebch`hajandtdibuekcccubrdoerctdebs``",
"`````sfheifbdzfddfexdxazdbcbeuazfich`felbhblbidkanbmeg`pepdududuep`pambeegdkao`cavavblekdhaj`zclerbcdiciecbrcudvezat`s``",
"`````yad`d`jaybrczcsby`zdbca`bdp`gef`felelavcgcobnbzam`pepdududuep`pambeegcoclchcddmdpcw`zeddidweedpc`aney`vbsdzez`sbs``",
"````ezadcq`jdobrdtdfcvby`kahcwemajcwbabkelcsf`aocseq`ram`pepepepep`pdsbebmcbesbnbkci`nazfiedfjaafieec`dfahbr`vfcbhezfb``",
"````ezadbherdo`odtbqffbb`nahcicicdbwbz`felbvavejcb`kdsds`p`p`pep`pamdsen`nancldpcici`cbafiedcb`aacexdmczdt`obbaebbec`y``",
"````ez`tbhdzfc`obqcwffah`nciekerehfiai`fcsanek`eaoekef`rdsbedsamamdsbe`nem`eaqelbabaaidhedcaddaxe`axc`cubq`oaecjdzewdn``",
"`````yct`xfcbtcrexaucvbuekeeesf`crdh`hbibv`ffiaq`eekbh`jcg`e`rdsbeegcmekblbaelbk`fch`hdhedfjaadbazbuda`vexcrabadct`sfa``",
"`````sfh`sahaydzexdt`wffazdteebcbaeddh`gcibdbkelcxbjevdkaiejeqegcmdkejcgcsekbk`fchaidhedbdcb`aaccabbcwcuexcr`jbsehfhet``",
"````cneccedrbyczbrbqcwffbu`nazemddbdajebcwci`fbk`qbnafaicbdweiejej`eelelahbjfichaidhajbdfjcadbazax`v`na`brdoahcqceasas``",
"````arboddctekdgbpexau`wbucrerffbifjedajdfcieb`fahf`ek`f`h`gaaelelelelbk`fey`qaidhajedfjcbdbacazbu`wdadj`obmez`x`sctfb``",
"````eodqaddffeay`jexdt`wfffdeeexdicbbdedajcs`haibz`q`gemb`bjbkbkchdb`f`fchaicx`iajedbdcb`aac`zbuffcyei`ncreqa`dzdzasdq``",
"````arcnfhdrdzalbp`oexau`w`qdm`qax`acbfjedcsafdh`hdp`hcieubdes`fchchchai`hdhdhdififjcb`aace`axfd`wdgbiabay`jbpfccpezap``",
"``````dqecctawaydzcrexdtbcccahfde`db`acbahdieiajdhdhdh`heiemf`aiai`hdhdhdhajeddmciee`adbe`azbucvcwbhaybbancjef`ydr`m````",
"``````arbxadehaydzcj`ofhcreiee`zaze`ac`aercidibdedajajdhdhdmcbdhdhdhajajexbgcsdwciahace`azbucv`wdtcrayawfccqbhctbsas````",
"``````arezfhddaefcaycr`obbekbndfbuazfdacaccsdpciazfi`uededey`ifiededbdbdfjdfdicxaxeebububuax`wauex`oayaycjalddboezcp````",
"````````fadqadbofcbteqcrdf`ndf`wcvbuazbididibjf`ahcafjfjfjfidbeifjfjfjcbcbaa`ddbacazdpdaexbxaucsbrcrbhdebg`dadetfa``````",
"````````ctasfhdqd`fc`vdoekay`vau`wcvbuc`eebc`z`zdb`a`acbcb`beeahcbcb`a`adb`zace`azbu`wdtccdaabbccrcqa`deefddfhfbap``````",
"````````eofacyadawctbgeq`xeifdbqaucyfgeedabuazaze`acacdbfiddblbleedbacac`zb``zbudfffbvczdg`neqc`docja`ezceadcydnap``````",
"``````````dqdqecctctczcjeqeafgbrexexc`ccciffbubuazazazdddf`qesercsazazazfdcx`gbbaubccwdt`vcualaleqcjfcezeiecezdq````````",
"``````````eobs`xctdrctbgeraeeacrbrexabbicz`wcvffffbubudf`zaneecebqbububudxfddx`wcwaudtexbrcrah`jerbgctecfhcpbsar````````",
"````````````bofaezdeecbhdvfeaw`vcr`ocjaya`cucw`w`wcvcvccerdfei`w`jffcvcv`w`wcwaudtexex`ocrdoeafcbgcqdzdrasareo``````````",
"``````````````dq`ycpbs`sbhanbs`kef`qcrayd`exdtdtaucwcwer`ndfccbc`w`wcwcwaudtdtexex`ocr`qahekczdqbh`ybocpdnar````````````",
"``````````````apasezcydeddfhcta`eaeqdoawaebbfgcuexbqababf`ek`kaudtdtdtbqexexexdafgcrdofcdfeialdzddcycp`tapap````````````",
"````````````````bo`tbobodeezfedfa`cj`jeqayeiaybnbpbrbydzeifhcydjexexexbrbp`ocrdzdoeq`jdd`yfcfafcdqcyezdldl``````````````",
"``````````````````cn`tezcyatctddbhal`kcj`jbsayal`qddbba``y`o`o`ocrcrcrcr`qdoaybt`jcj`kalfebofbcpctez`teo````````````````",
"````````````````````ewfbdqdqcpfhddehefalcqdrehefeq`ya``vdododododobmeqeqeqcqfabpcqalef`sdebxbxbocpfbew``````````````````",
"``````````````````````dndq`s`xdffhaddd`tctecczbpcjdzdzdv`jdveh`j`j`j`jbpalfcbgalcyeh`satdrfcbsdnascn````````````````````",
"````````````````````````ardlfafbcpfbbtbo`yctbhbhasa``sbg`k`k`k`k`kbgbgalefbhbhceetdfbodfdr`metdrcp``````````````````````",
"``````````````````````````dndrewfadnboecfhadeidddrdzfcbhbhbhezbhbhbh`dehceddeiboctctdndqdndneoap````````````````````````",
"``````````````````````````````boewdq`lez`xcyecfhdeadfcbsecctdrdd`sdqadaddefheccybo`y`mareoar````````````````````````````",
"````````````````````````````````apaparfbfa`ycz`xcyetcpcpcpatdqec`sececcycy`xdnasfadrdleoar``````````````````````````````",
"````````````````````````````````````eoarbocnfbfafaasdrarfcbobsczczczez`yfafafbdqdreoar``````````````````````````````````",
"``````````````````````````````````````````apbodretcncndqarar`mbsasfbasdqcndreoap````````````````````````````````````````",
"````````````````````````````````````````````````apdneoeoeoarbocncnboapdnap``````````````````````````````````````````````",
"````````````````````````````````````````````````````````````````````````````````````````````````````````````````````````",
"````````````````````````````````````````````````````````````````````````````````````````````````````````````````````````"
};
