/* XPM */
static char *blue5[] = {
/* width height ncolors chars_per_pixel */
"24 24 91 1",
/* colors */
"  c #000000",
". c #2A2A47",
"X c #303050",
"o c #2E2E4E",
"O c #1F1F32",
"+ c #1D1D30",
"@ c #08080E",
"# c #25253B",
"$ c #1F1F35",
"% c #25253E",
"& c #20202F",
"* c #0E0E1A",
"= c #0C0C18",
"- c #292945",
"; c #161625",
": c #121221",
"> c #2F2F4E",
", c #2D2D4C",
"< c #1A1A2C",
"1 c #333355",
"2 c #07070C",
"3 c #090911",
"4 c #0B0B16",
"5 c #282843",
"6 c #262641",
"7 c #11111F",
"8 c #2C2C4A",
"9 c #BABAC8",
"0 c #19192A",
"q c #151526",
"w c #323253",
"e c #040408",
"r c #0C0C13",
"t c #08080F",
"y c #212138",
"u c #1C1C29",
"i c #0A0A14",
"p c #272741",
"a c #25253F",
"s c #12121F",
"d c #0E0E1B",
"f c #1E1E2E",
"g c #181828",
"h c #2F2F4F",
"j c #101020",
"k c #1C1C2F",
"l c #18182B",
"z c #161629",
"x c #333356",
"c c #07070D",
"v c #1E1E34",
"b c #0F0F18",
"n c #1C1C32",
"m c #24243D",
"M c #22223B",
"N c #11111D",
"B c #0D0D19",
"V c #2A2A46",
"C c #2E2E4D",
"Z c #0F0F1E",
"A c #38385A",
"S c #06060B",
"D c #0A0A12",
"F c #494967",
"G c #10101B",
"H c #0C0C17",
"J c #292944",
"K c #161624",
"L c #141422",
"P c #242435",
"I c #2D2D4B",
"U c #0E0E1C",
"Y c #1A1A2B",
"T c #161627",
"R c #141425",
"E c #313152",
"W c #121223",
"Q c #1C1C30",
"! c #1A1A2E",
"~ c #0B0B12",
"^ c #090910",
"/ c #15151F",
"( c #222239",
") c #202037",
"_ c #0F0F19",
"` c #0D0D17",
"' c #262640",
"] c #151522",
"[ c #0F0F1C",
"{ c #2C2C49",
"} c None",
/* pixels */
"}}}}}}}}}c4kQkYL}}}}}}}}",
"}}}}}}}s!smBd*uTO0}}}}}}",
"}}}}}t+BN5LqOm-5%*+s}}}}",
"}}}}t0MRV{ICCzI{LpMi`}}}",
"}}}`ddN.I>>.P!a>RZpB+N}}",
"}}}Yy'UIhEw:18nE6)&'y<}}",
"}}]iB5!n::qlxR<Pqo{(m!]}",
"}}04lVZvP1lxx#xoEhIf')0}",
"}b*B%n,CWxRXFFxx#X,'N(H^",
"}s[(O%fXq11F99Ax:X,UR(Qs",
"}N+(guZ:E1)F99AR)6IU7BDN",
"}NH('UQonwRAFFlwPof-d(kD",
"}ci*%gU,jXl&z1E&h,.5nyHc",
"}_LNMp({,>$jXPXf,{-pT$H_",
"}D;iy=uV5ICm5CCIZVp%4z;D",
"}}r[O4%pZMf{V{.&-lsK0Y~}",
"}}`LLl(lZ5JujLJZqL+]:;^}",
"}}}NLlKy*%'(T''%My$/HS}}",
"}}}@S;L+RB(ZRM(yg/L__e}}",
"}}}}^S]0/sG$$$OG/0sc^}}}",
"}}}}}2SD;g3<<<0gbtr2}}}}",
"}}}}}}}S_s~crLsD_t}}}}}}",
"}}}}}}}}}2e^^~^2}}}}}}}}",
"}}}}}}}}}}}}}}}}}}}}}}}}"
};
