/* XPM */
static char *blue8[] = {
/* width height ncolors chars_per_pixel */
"44 44 168 2",
/* colors */
"`` c None",
"`a c #2A2A47",
"`b c #1B1B2B",
"`c c #282845",
"`d c #191929",
"`e c #323252",
"`f c #303050",
"`g c #111121",
"`h c #2E2E4E",
"`i c #1D1D30",
"`j c #1B1B2E",
"`k c #0A0A10",
"`l c #17172A",
"`m c #212137",
"`n c #767691",
"`o c #1F1F35",
"`p c #2F2F48",
"`q c #101019",
"`r c #0E0E17",
"`s c #272740",
"`t c #181824",
"`u c #25253E",
"`v c #21213A",
"`w c #12121E",
"`x c #10101C",
"`y c #20202F",
"`z c #2B2B47",
"a` c #0C0C18",
"aa c #292945",
"ab c #161625",
"ac c #141423",
"ad c #242436",
"ae c #121221",
"af c #2F2F4E",
"ag c #2D2D4C",
"ah c #2B2B4A",
"ai c #1A1A2C",
"aj c #5C5C7A",
"ak c #161628",
"al c #333355",
"am c #07070C",
"an c #05050A",
"ao c #0D0D15",
"ap c #07070F",
"aq c #24243C",
"ar c #202038",
"as c #0D0D18",
"at c #1D1D2B",
"au c #0B0B16",
"av c #282843",
"aw c #262641",
"ax c #232334",
"ay c #11111F",
"az c #0F0F1D",
"b` c #2C2C4A",
"ba c #3C3C5D",
"bb c #2A2A48",
"bc c #1B1B2C",
"bd c #19192A",
"be c #151526",
"bf c #131324",
"bg c #303051",
"bh c #111122",
"bi c #19192D",
"bj c #08080F",
"bk c #161620",
"bl c #23233A",
"bm c #212138",
"bn c #0E0E18",
"bo c #0A0A14",
"bp c #272741",
"bq c #25253F",
"br c #23233D",
"bs c #12121F",
"bt c #10101D",
"bu c #202030",
"bv c #0E0E1B",
"bw c #1E1E2E",
"bx c #2B2B48",
"by c #0C0C19",
"bz c #292946",
"c` c #181828",
"ca c #28283B",
"cb c #262639",
"cc c #2F2F4F",
"cd c #101020",
"ce c #2D2D4D",
"cf c #1C1C2F",
"cg c #2A2A40",
"ch c #18182B",
"ci c #353558",
"cj c #09090F",
"ck c #333356",
"cl c #07070D",
"cm c #15151E",
"cn c #202036",
"co c #1C1C32",
"cp c #090912",
"cq c #191925",
"cr c #26263F",
"cs c #24243D",
"ct c #22223B",
"cu c #13131F",
"cv c #11111D",
"cw c #0F0F1B",
"cx c #0D0D19",
"cy c #2A2A46",
"cz c #262642",
"d` c #171726",
"da c #151524",
"db c #131322",
"dc c #111120",
"dd c #2E2E4D",
"de c #0F0F1E",
"df c #1D1D2F",
"dg c #343456",
"dh c #08080D",
"di c #151527",
"dj c #06060B",
"dk c #1F1F34",
"dl c #1B1B30",
"dm c #0C0C14",
"dn c #0A0A12",
"do c #494967",
"dp c #23233B",
"dq c white",
"dr c #14141F",
"ds c #212139",
"dt c #1E1E2C",
"du c #2B2B46",
"dv c #0C0C17",
"dw c #292944",
"dx c #0A0A15",
"dy c #262637",
"dz c #141422",
"e` c #2D2D4B",
"ea c #0E0E1C",
"eb c #1A1A2B",
"ec c #373758",
"ed c #181829",
"ee c #161627",
"ef c #333354",
"eg c #141425",
"eh c #313152",
"ei c #121223",
"ej c #222236",
"ek c #BCBCD7",
"el c #1E1E32",
"em c #1C1C30",
"en c #1A1A2E",
"eo c #0B0B12",
"ep c #18182C",
"eq c #28283F",
"er c #090910",
"es c #222239",
"et c #202037",
"eu c #11111B",
"ev c #1E1E35",
"ew c #0F0F19",
"ex c #0D0D17",
"ey c #0B0B15",
"ez c #1B1B28",
"f` c #090913",
"fa c #262640",
"fb c #171724",
"fc c #151522",
"fd c #212131",
"fe c #2C2C49",
/* pixels */
"````````````````````````````````````````````ao``````````````````````````````````````````",
"````````````````````````````````dmbs`wcffb`i`i`i`ieyaicxfc``````````````````````````````",
"````````````````````````````c`euegcwcnbmesa`a`aza`cxcffb`ibo`x``````````````````````````",
"````````````````````````c`cfau`mezdp`uenakaeeadpcr`u`ucxa``mbtcvc```````````````````````",
"````````````````````cvaiel`lezazd`bpavdbbvdbdseaeiayavbpbvcsesa`eleufc``````````````````",
"``````````````````eebeasaubycobpavaa`adic`cyeade`dbw`aaaavbpdbcvesdkdvd`````````````````",
"````````````````bjdvcxeschaqavaa`zbxb`e`agagddbwbfbdb`bx`zaaemdt`uesauf`d```````````````",
"``````````````d`cf`xcfazcx`j`ybxb`agddag`lchej`g`cbxddag`gdieaeaaz`ubeakcmbj````````````",
"````````````dabcdxee`udedw`afee`ddafccaf`ccecobg`lcdejafddaecddedtbp`uchdk`w`q``````````",
"``````````bnebdrcqbccxea`afee`ddcc`fbfbibhep`eaaawczbu`feqeiawbxegavfachbmelebcl````````",
"``````````c`bdcncvezateafee`ddccbgeh`ecbetcaaldfbqegawehdibxad`vae`yavcr`lcnbocv````````",
"````````dzaibkcwcvezaacse`ddccendf`eefbhdddlfeckckalef`ebfardddd`ybxaacseaes`taudz``````",
"`````````xbobv`o`uavdtdcde`g`gawbgalck`vepfddgdg`leldwaketei`fafagfecyeacrdpbkf``r``````",
"``````cuebazbvcdaedw`ybhegbqbudibfalcaahducicicaciegcbakei`lbgccddb`bmavbpcsbmbn`wcu````",
"``````bjf`dx`jchcsaabxbfbrbhbh`cbfckctdgciecececadcidgckdiejeh`ffde`bmaad``uescq`jao````",
"`````kd`dx`ofbenazcddbagbwcdcdawcbdgbrdi`i`pdodobaeccidgb`axeh`fafagbibpevdbdpcna`d`ex``",
"`````w`dbofbeeakavc`cdagafctet`leqdg`cblecajajajajbacidgdwbbeh`fafagawaaatetdpcneudv`w``",
"`````rbdcf`baidtavegdbebafeqcbbhavdg`i`pajekekek`ndobadgad`lai`fafagdpegazcoaz`m`ibodb``",
"````dnbdelelcdeaavcybuevaf`feh`vcodgesba`ndqdqdqekajbadgalbhctbdaxagee`gaebvcv`mel`qdz``",
"`````xcmau`mdfbt`yfdbwegbc`fehejbxdgefdo`ndqdqdq`najbadg`lepev`adye``lctem`jaz`mcfeudn``",
"````fcebel`mdpezatcsdbenbqbzbgbe`lalakcgdo`nekek`ndoadakepbhcdcocde`bxcybv`oez`mbddbbn``",
"``djcpbdeycndpesazeaeaemfdaf`fepaeefbpbdecajdoajdobaefaxehbgdyafagbw`yaaatdsdpcwdbdmcwdj",
"````cwcmbd`jes`ubpdpcoegcyddenepdfehbxaxcgcgcabaecdgarbdeh`fccdde`fecyavezbiescney`rdz``",
"````bnedf`auesaqfaavchazb`agcddidybgcdcacb`aegalef`eaxenfeccddagb`bxaaav`tevesdkbvedcl``",
"````bjd`daau`mdp`ubpatawcrb`age`ch`fcdbhbibeehehehbg`fcfavddagb`bxcyavbp`ua``melcp`qdj``",
"`````xabbdbodfescsfaeaarfdbxb`cyakafak`leieiax`f`fccccaf`lbwb`bx`aaadtfa`j`icv`iasas`x``",
"`````kdzbndvdv`mdpbsbiabaa`abxbxbpddddaxbccddsafaf`hdddd`ycoeg`aaaavfa`ubydbbecfcpbjbn``",
"````djcud`cpdbcnfcayaqezavaa`aazaaaxe`agagcdb`ddagage`ee`oakeaaaavbp`uaqfbcnbtd`eyewdn``",
"```````xda`qeyelcnbv`iatbpavdteacocsdeesb`bueiavb`b`febxcdfdelbvbeezezescnazeybd`q`x````",
"``````dmcud`eydvdkbeeaaq`ufadecdac`y`a`zbx`seaaqbx`z`acyaaavbpatbvbvaz`m`tdvaid`cuan````",
"````````clfccvbt`iaycwescvdebv`yavavdwaaaa`yde`l`yaadwemavabel`uaeakeldk`iaec`fc`x``````",
"````````dm`wap`x`j`icx`mescxbvaqfabpbpavaecodbabavavbpbmaebvcsdpes`mdv`i`j`x`r`wdm``````",
"``````````ewcv`xbdakdx`tcnbmbycwcs`ubqcrbicxeeayfacrbq`ucsdpblbmcndk`i`jdncvcvbn````````",
"``````````er`xex`qbddvbtbk`ocxazesdpaq`ta`by`jcscsaqaqbcescq`m`obecxbcbdcpbsaner````````",
"````````````eobjcveebscwey`ibkeleldceselauezcxcqesesez`mcncuel`idvaydveudz`xan``````````",
"``````````````dm`xaocpabebbccffbasbd`oegazcncncncncn`odkd`drcfbcazdzeybs`xdm````````````",
"````````````````dhbjdm`qd`edebbkd`emdrazelelelelelel`ibocfbofcedee`xdmaneo``````````````",
"``````````````````anbndjerbnbseydnebf`ai`jcfcfcf`jbcaiebbdc``qdmbndv`rdh````````````````",
"````````````````````dhdjdnaodbfcabd`cpc``dbd`rbd`dedc`d`aodzbjdjdmcldh``````````````````",
"````````````````````````anaoewcvbsdbdzeoclap`q`rdafcdzdbcldmewcjer``````````````````````",
"````````````````````````````djdj`reweoexcldjbn`wcveu`xew`rdmdh``````````````````````````",
"````````````````````````````````amcjdndjeoanandmdmdmdnamam``````````````````````````````",
"````````````````````````````````````````````am``````````````````````````````````````````",
"````````````````````````````````````````````````````````````````````````````````````````"
};
