/* XPM */
static char *blue6[] = {
/* width height ncolors chars_per_pixel */
"30 30 158 2",
/* colors */
"`` c None",
"`a c #2A2A47",
"`b c #191929",
"`c c #323252",
"`d c #303050",
"`e c #111121",
"`f c #2E2E4E",
"`g c #1D1D30",
"`h c #1B1B2E",
"`i c #0C0C12",
"`j c #0A0A10",
"`k c #17172A",
"`l c #212137",
"`m c #767691",
"`n c #1F1F35",
"`o c #2F2F48",
"`p c #101019",
"`q c #181824",
"`r c #25253E",
"`s c #12121E",
"`t c #10101C",
"`u c #20202F",
"`v c #0E0E1A",
"`w c #2B2B47",
"`x c #0C0C18",
"`y c #292945",
"`z c #161625",
"a` c #141423",
"aa c #242436",
"ab c #121221",
"ac c #2F2F4E",
"ad c #2D2D4C",
"ae c #1A1A2C",
"af c #5C5C7A",
"ag c #161628",
"ah c #333355",
"ai c #07070C",
"aj c #313153",
"ak c #05050A",
"al c #0D0D15",
"am c #07070F",
"an c #24243C",
"ao c #202038",
"ap c #0D0D18",
"aq c #1D1D2B",
"ar c #0B0B16",
"as c #282843",
"at c #232334",
"au c #11111F",
"av c #0F0F1D",
"aw c #2C2C4A",
"ax c #3C3C5D",
"ay c #1B1B2C",
"az c #19192A",
"b` c #151526",
"ba c #131324",
"bb c #303051",
"bc c #111122",
"bd c #1F1F33",
"be c #19192D",
"bf c #08080F",
"bg c #161620",
"bh c #23233A",
"bi c #212138",
"bj c #0E0E18",
"bk c #0A0A14",
"bl c #272741",
"bm c #25253F",
"bn c #12121F",
"bo c #10101D",
"bp c #202030",
"bq c #0E0E1B",
"br c #1E1E2E",
"bs c #2B2B48",
"bt c #0C0C19",
"bu c #181828",
"bv c #28283B",
"bw c #262639",
"bx c #2F2F4F",
"by c #101020",
"bz c #18182B",
"c` c #353558",
"ca c #09090F",
"cb c #333356",
"cc c #07070D",
"cd c #15151E",
"ce c #202036",
"cf c #1C1C32",
"cg c #090912",
"ch c #191925",
"ci c #26263F",
"cj c #24243D",
"ck c #22223B",
"cl c #13131F",
"cm c #11111D",
"cn c #0F0F1B",
"co c #0D0D19",
"cp c #2A2A46",
"cq c #262642",
"cr c #171726",
"cs c #151524",
"ct c #131322",
"cu c #111120",
"cv c #2E2E4D",
"cw c #0F0F1E",
"cx c #343456",
"cy c #08080D",
"cz c #151527",
"d` c #06060B",
"da c #1F1F34",
"db c #1B1B30",
"dc c #0C0C14",
"dd c #0A0A12",
"de c #494967",
"df c #23233B",
"dg c white",
"dh c #14141F",
"di c #212139",
"dj c #1E1E2C",
"dk c #0C0C17",
"dl c #292944",
"dm c #0A0A15",
"dn c #262637",
"do c #141422",
"dp c #2D2D4B",
"dq c #0E0E1C",
"dr c #1A1A2B",
"ds c #373758",
"dt c #181829",
"du c #161627",
"dv c #333354",
"dw c #141425",
"dx c #313152",
"dy c #121223",
"dz c #222236",
"e` c #030307",
"ea c #BCBCD7",
"eb c #1E1E32",
"ec c #1C1C30",
"ed c #1A1A2E",
"ee c #0B0B12",
"ef c #18182C",
"eg c #28283F",
"eh c #090910",
"ei c #222239",
"ej c #202037",
"ek c #11111B",
"el c #1E1E35",
"em c #0F0F19",
"en c #0D0D17",
"eo c #0B0B15",
"ep c #1B1B28",
"eq c #090913",
"er c #262640",
"es c #171724",
"et c #151522",
"eu c #212131",
"ev c #2C2C49",
/* pixels */
"````````````````````````d`dhazazdoap`s``````````````````````",
"``````````````````ccdraubgbiei`hcu`xar`gbkcm````````````````",
"````````````````drbgeianbmdfbydfaqblbmageibkb```````````````",
"````````````eoeqceboeiascpcwbsctaoeucpaser`nce`sdo``````````",
"``````````bfarb`eicwcpbsdpadcvcvdfaddpbsa`dj`raeddal````````",
"````````bn`tcochas`aawcvbx`kbxacczbybxcvcwerab`rchbjbn``````",
"````````ek`besav`aawcv`ddxdbejdvcqdbdxeuaweudfbl`hcedr``````",
"``````am`gdtau`yevcv`dbpdvbcbbdwcbahdvbzeudzb``ydweict`z````",
"````alaearabascubmbyeladahasaocxbwbeahagbabxdp`wdfcjcebk`j``",
"````etbkbobzdlevcfbcaaagcxasc`c`bvbvcx`kaj`dcvaqdlcieictet``",
"````craretcudqeueuczczahaeel`cdededscxbz`cbb`fdi`kbobh`qcr``",
"``eeazcdazepaqcw`fbx`ecz`hax`mea`mdec`ahefbb`fbcbz`hdfdaddee",
"```pdudkctdjcpefeu`dazb`agdseadgeaafdsahaobccv`ueccwdochek`p",
"``ekcddadfci`hcjadatdxelcf`o`meaeadebdedbb`keueveubqab`qazen",
"``ekazeobher`kdwdtaccfdwahdrdedeafaxdyajatacdpcrdlbqbha`dkd`",
"```p`parei`rasdqatcvbybbckegacebc`dvcfbbbxcvaw`abrcjei`gdtee",
"``akcrdwbganblecb`dpctdnabdw`f`wdxdx`d`ncvdpbs`yblco`lek`pen",
"``aketdkbgei`rczaqbsdpaa`f`fefedbxbx`fcveubs`yaq`rb`arbgccai",
"````bndtdk`lcedqas`yeccwdpadcvbscvadeicfby`yascidfareoazbj``",
"````em`zeoebctctciascwbaabevevcpevevbs`b`ydbeianbiazay`zem``",
"````e`clapay`sepanescoasdl`yeubcdq`y`u`uctbmcuebda`vbuclai``",
"``````bjcgcgecdmbi`xcmcierbl`udqbhbldjdjcjdfbiabeccgetbj````",
"`````````tbjazbjdrcecndfancj`kbt`rcjandfeiceabcmazbfd```````",
"````````bfbfcseq`v`gararbgboducleieibgceda`g`temdcekcy``````",
"``````````ehdccccrdrcddteb`vdadadaebebemcddrcsbncceh````````",
"````````````akemccbk`tazal`p`h`h`haydrazeebfddeecc``````````",
"````````````````eh`i`sdocseododd`p`zcsdobf`je```````````````",
"``````````````````e`bfenemddeobjcmekemenddak````````````````",
"````````````````````````aie`e`bfcaaiai``````````````````````",
"````````````````````````````````````````````````````````````"
};
