/* XPM */
static char *blue8[] = {
/* width height ncolors chars_per_pixel */
"44 44 91 1",
/* colors */
"  c #000000",
". c #303050",
"X c #1D1D30",
"o c #17172A",
"O c #08080E",
"+ c #25253B",
"@ c #0E0E17",
"# c #1B1B31",
"$ c #25253E",
"% c #10101C",
"& c #2B2B47",
"* c #0C0C18",
"= c #1C1C2B",
"- c #292945",
"; c #242436",
": c #2D2D4C",
"> c #5C5C7A",
", c #161628",
"< c #07070C",
"1 c #05050A",
"2 c #151520",
"3 c #22223A",
"4 c #2E2E49",
"5 c #282843",
"6 c #262641",
"7 c #0F0F1D",
"8 c #2C2C4A",
"9 c #BABAC8",
"0 c #19192A",
"q c #151526",
"w c #131324",
"e c #111122",
"r c #212138",
"t c #272741",
"y c #25253F",
"u c #161623",
"i c #23233D",
"p c #12121F",
"a c #10101D",
"s c #202030",
"d c #0E0E1B",
"f c #2B2B48",
"g c #181828",
"h c #121222",
"j c #2F2F4F",
"k c #101020",
"l c #1C1C2F",
"z c #353558",
"x c #333356",
"c c #202036",
"v c #090912",
"b c #24243D",
"n c #40405F",
"m c #0F0F1B",
"M c #1F1F2E",
"N c #0D0D19",
"B c #2A2A46",
"V c #282844",
"C c #262642",
"Z c #171726",
"A c #111120",
"S c #2E2E4D",
"D c #0F0F1E",
"F c #1D1D2F",
"G c #1F1F34",
"H c #0C0C14",
"J c #1E1E2C",
"K c #0C0C17",
"L c #0A0A15",
"P c #0E0E1C",
"I c #2B2B49",
"U c #1A1A2B",
"Y c #333354",
"T c #313152",
"R c #222236",
"E c #1E1E32",
"W c #1A1A2E",
"Q c #18182C",
"! c #28283F",
"~ c #090910",
"^ c #222239",
"/ c #202037",
"( c #11111B",
") c #1E1E35",
"_ c #0F0F19",
"` c #0D0D17",
"' c #1B1B28",
"] c #090913",
"[ c #171724",
"{ c #11111E",
"} c None",
/* pixels */
"}}}}}}}}}}}}}}}}}}}}}}H}}}}}}}}}}}}}}}}}}}}}",
"}}}}}}}}}}}}}}}}Hppl[XXXXLUNu}}}}}}}}}}}}}}}",
"}}}}}}}}}}}}}}g(qmcr^**7*Nl[XL%}}}}}}}}}}}}}",
"}}}}}}}}}}}}glKr'3$W,hP3y$$N*ra{g}}}}}}}}}}}",
"}}}}}}}}}}{UEo'7Zt5hdhrPhA5tdb^*E(u}}}}}}}}}",
"}}}}}}}}},qNK*#t5-BqgBPD0MB-5th{^GKZ}}}}}}}}",
"}}}}}}}}OKN^Qb5-&f8:::SMw08f&-lJ$^K]Z}}}}}}}",
"}}}}}}}Zl%l7NWsf8:S:oQReVfS:eqPP7$q,2O}}}}}}",
"}}}}}}u=L,$D-B8:SjjjV:#.okRjShkDJt$QGp_}}}}}",
"}}}}}@U2Z=NPB8:Sj.wWeQT-6Cs.!h6fq56QrEU<}}}}",
"}}}}}g0c{'=P8:Sj.TT+/!xFyq6Tqf;3hs5yocL{}}}}",
"}}}}2U2m{'-b:SjWFTYeS#8xxxYTw/SSsf-bP^[K2}}}",
"}}}}%LdG$5JADee6.xx3QsxxoE-,/h.j:8BPy32]@}}}",
"}}}pU7dkh-seqysqwx!I&zz!zq+,ho.jS8r5tbr@pp}}",
"}}}O]LWQb-fwieeVwx3xzzzz;zxxqRT.s:r-Z$^ZWH}}",
"}}~ZLG[W7kh:Mkk6+xiqX4nnnzzx8;T.j:Wt)h3c*Z`}",
"}}p0L[,,5gk:j3/o!xV3z>>>>nzx-fT.j:6-=/3c(Kp}",
"}}@0l=UJ5qhUj!+e5xX4>999>nnx;oU.j:3q7#7rXLh}",
"}}v0EEkP5Bs)j.T3#x^n>9999>nxxe30;:,ehd{rE_2}",
"}}%2KrFassMq=.TRfxYn>999>>nxoQ)B;:o3lW7rl(v}",
"}}uUEr3'=bhWy-.qox,!n>99>n;,Qek#k:fBdG'r0h@}",
"}<v0Lc3^7PPlsj.QhYt0z>n>nnY;T.;j:Ms-=r3mhHm<",
"}}m20W^$t3#qBSWQFTf;!!!nzx/0T.jS:8B5'W^cL@2}",
"}}@g]K^b65Q78:kq;.k!+BqxYT;W8jS:8f-5[)^Gdg<}",
"}}OZuKr3$t=6y8::Q.keWqTTT..l5S:8fB5t$*rEv_<}",
"}}%q0LF^b6P/sf8B,j,ohh;..jjjoM8fB-J6WX{XNN%}",
"}}~2@KKr3pWq-BfftSS;=krjjSSSs#qB-56$*hqlvO@}",
"}}<pZvhcuAb'5-B7-;:::k8S:::,G,P-5t$b[caZL_v}",
"}}}%u_LEcdX=t5JP#bD^8sh5888fksEdq''^c7L0_%}}",
"}}}HpZLKGqPb$6DkwsB&ftPbf&BB-5t=dd7r[KUZp1}}",
"}}}}<u{aXAm^{Dds55---sDos--l5qE$h,EGXhgu%}}}",
"}}}}HpO%WXNr^Ndb6tt5h#hq55trhdb3^rKXW%@pH}}}",
"}}}}}_{%0,L[cr*mb$yyWN,A6yy$b33rcGXWv{{@}}}}",
"}}}}}~%`_0Ka2GN7^3b[**Wbbbb=^ZrGqN=0vp1~}}}}",
"}}}}}}HO{,pmLX2EEA^EK'NZ^^'rcpEXKAK(2%1}}}}}",
"}}}}}}}H%HvqU=l[N0Gq7cccccGGZ2l=72Lp%H}}}}}}",
"}}}}}}}}OOH_ZgU2Zl27EEEEEEXLlLug,%H1H}}}}}}}",
"}}}}}}}}}1@<~@pLvU]UWlllW=UU0g_H@K@O}}}}}}}}",
"}}}}}}}}}}O<vHhuqZvg00@00ggZH2O<H<O}}}}}}}}}",
"}}}}}}}}}}}}1H_{ph2H<O_@uu2h<H_~~}}}}}}}}}}}",
"}}}}}}}}}}}}}}<<@_H`<<@p{(%_@HO}}}}}}}}}}}}}",
"}}}}}}}}}}}}}}}}<~v<H11HHHv<<}}}}}}}}}}}}}}}",
"}}}}}}}}}}}}}}}}}}}}}}<}}}}}}}}}}}}}}}}}}}}}",
"}}}}}}}}}}}}}}}}}}}}}}}}}}}}}}}}}}}}}}}}}}}}"
};
