/* XPM */
static char *blue1[] = {
/* width height ncolors chars_per_pixel */
"10 10 47 1",
/* colors */
"  c #000000",
". c #2A2A47",
"X c #2E2E4E",
"o c #1D1D30",
"O c #1B1B2E",
"+ c #0C0C12",
"@ c #0A0A10",
"# c #17172A",
"$ c #25253E",
"% c #12121E",
"& c #20202F",
"* c #141423",
"= c #2F2F4E",
"- c #1A1A2C",
"; c #333355",
": c #1D1D2B",
"> c #282843",
", c #303051",
"< c #111122",
"1 c #161620",
"2 c #0A0A14",
"3 c #25253F",
"4 c #2B2B48",
"5 c #2F2F4F",
"6 c #101020",
"7 c #18182B",
"8 c #353558",
"9 c #15151E",
"0 c #191925",
"q c #13131F",
"w c #0D0D19",
"e c #151524",
"r c #343456",
"t c #1F1F34",
"y c #0C0C14",
"u c #0A0A12",
"i c #494967",
"p c #23233B",
"a c #0C0C17",
"s c #292944",
"d c #121223",
"f c #BCBCD7",
"g c #1A1A2E",
"h c #0B0B15",
"j c #262640",
"k c #171724",
"l c None",
/* pixels */
"lll13p32ll",
"llw.5=5j0l",
"l->6;r;5p2",
"l9:5Of8,7t",
"lh#=;id=s*",
"la$4XgX4$1",
"lq%ks<&3tq",
"lleo1q1oyl",
"lll+eue@ll",
"llllllllll"
};
