/* XPM */
static char *blue3[] = {
/* width height ncolors chars_per_pixel */
"14 14 82 2",
/* colors */
"`` c None",
"`a c #2A2A47",
"`b c #282845",
"`c c #111121",
"`d c #2E2E4E",
"`e c #1B1B2E",
"`f c #0A0A10",
"`g c #17172A",
"`h c #101019",
"`i c #181824",
"`j c #21213A",
"`k c #10101C",
"`l c #20202F",
"`m c #0C0C18",
"`n c #161628",
"`o c #07070F",
"`p c #24243C",
"`q c #0B0B16",
"`r c #282843",
"`s c #11111F",
"`t c #0F0F1D",
"`u c #1B1B2C",
"`v c #19192A",
"`w c #151526",
"`x c #303051",
"`y c #111122",
"`z c #19192D",
"a` c #23233A",
"aa c #212138",
"ab c #0E0E18",
"ac c #0A0A14",
"ad c #272741",
"ae c #23233D",
"af c #202030",
"ag c #1E1E2E",
"ah c #2B2B48",
"ai c #181828",
"aj c #28283B",
"ak c #2F2F4F",
"al c #2D2D4D",
"am c #1C1C2F",
"an c #18182B",
"ao c #353558",
"ap c #15151E",
"aq c #191925",
"ar c #24243D",
"as c #13131F",
"at c #11111D",
"au c #0D0D19",
"av c #262642",
"aw c #151524",
"ax c #2E2E4D",
"ay c #343456",
"az c #06060B",
"b` c #0C0C14",
"ba c #494967",
"bb c #23233B",
"bc c white",
"bd c #0C0C17",
"be c #292944",
"bf c #0A0A15",
"bg c #2D2D4B",
"bh c #0E0E1C",
"bi c #1A1A2B",
"bj c #373758",
"bk c #181829",
"bl c #161627",
"bm c #141425",
"bn c #313152",
"bo c #121223",
"bp c #1E1E32",
"bq c #1C1C30",
"br c #18182C",
"bs c #222239",
"bt c #11111B",
"bu c #1E1E35",
"bv c #0F0F19",
"bw c #0D0D17",
"bx c #0B0B15",
"by c #1B1B28",
"bz c #262640",
"c` c #2C2C49",
/* pixels */
"``````````awbsau`mbp````````",
"``````bdbhbe`wbu`lbe`p`w````",
"`````var`aaxbmbn`caxbr`tb```",
"````aqbeblbr`baybnboax`lat``",
"``ai`pbq`g`ubmbaao`yak`g`pai",
"```s`tahakalbabcbaajafbr`tbw",
"``ap`p`cagav`vbabjbnax`l`i`n",
"``aiaaadc``d`jbn`x`cc`adai`h",
"``as`e`n`r`zagbzbgae`r`pacbx",
"````as`qanad`r`n`rag`pbf`h``",
"````bvbkbpbqaubba`byabbtbv``",
"``````azaw`sauabambi`o`f````",
"``````````abbw`katab````````",
"````````````````````````````"
};
