/* XPM */
static char *blue5[] = {
/* width height ncolors chars_per_pixel */
"24 24 139 2",
/* colors */
"`` c None",
"`a c #2A2A47",
"`b c #323252",
"`c c #303050",
"`d c #111121",
"`e c #2E2E4E",
"`f c #0F0F1F",
"`g c #1D1D30",
"`h c #1B1B2E",
"`i c #0C0C12",
"`j c #0A0A10",
"`k c #17172A",
"`l c #212137",
"`m c #767691",
"`n c #1F1F35",
"`o c #101019",
"`p c #181824",
"`q c #25253E",
"`r c #12121E",
"`s c #10101C",
"`t c #20202F",
"`u c #0E0E1A",
"`v c #292945",
"`w c #161625",
"`x c #141423",
"`y c #242436",
"`z c #313150",
"a` c #121221",
"aa c #2F2F4E",
"ab c #2D2D4C",
"ac c #1A1A2C",
"ad c #161628",
"ae c #333355",
"af c #07070C",
"ag c #313153",
"ah c #05050A",
"ai c #0D0D15",
"aj c #24243C",
"ak c #202038",
"al c #0D0D18",
"am c #1D1D2B",
"an c #0B0B16",
"ao c #282843",
"ap c #262641",
"aq c #232334",
"ar c #0F0F1D",
"as c #2C2C4A",
"at c #3C3C5D",
"au c #19192A",
"av c #151526",
"aw c #131324",
"ax c #303051",
"ay c #111122",
"az c #1F1F33",
"b` c #08080F",
"ba c #161620",
"bb c #23233A",
"bc c #212138",
"bd c #0E0E18",
"be c #0A0A14",
"bf c #272741",
"bg c #25253F",
"bh c #12121F",
"bi c #10101D",
"bj c #202030",
"bk c #0E0E1B",
"bl c #1E1E2E",
"bm c #2B2B48",
"bn c #0C0C19",
"bo c #181828",
"bp c #28283B",
"bq c #2F2F4F",
"br c #101020",
"bs c #1C1C2F",
"bt c #18182B",
"bu c #353558",
"bv c #09090F",
"bw c #333356",
"bx c #07070D",
"by c #15151E",
"bz c #202036",
"c` c #1C1C32",
"ca c #090912",
"cb c #191925",
"cc c #26263F",
"cd c #24243D",
"ce c #22223B",
"cf c #13131F",
"cg c #11111D",
"ch c #0F0F1B",
"ci c #0D0D19",
"cj c #2A2A46",
"ck c #171726",
"cl c #131322",
"cm c #111120",
"cn c #2E2E4D",
"co c #0F0F1E",
"cp c #343456",
"cq c #08080D",
"cr c #151527",
"cs c #06060B",
"ct c #1F1F34",
"cu c #0C0C14",
"cv c #0A0A12",
"cw c #494967",
"cx c #23233B",
"cy c white",
"cz c #0C0C17",
"d` c #292944",
"da c #0A0A15",
"db c #262637",
"dc c #141422",
"dd c #2D2D4B",
"de c #0E0E1C",
"df c #1A1A2B",
"dg c #161627",
"dh c #333354",
"di c #141425",
"dj c #313152",
"dk c #121223",
"dl c #030307",
"dm c #BCBCD7",
"dn c #1E1E32",
"do c #1C1C30",
"dp c #1A1A2E",
"dq c #0B0B12",
"dr c #18182C",
"ds c #090910",
"dt c #222239",
"du c #11111B",
"dv c #1E1E35",
"dw c #0F0F19",
"dx c #0D0D17",
"dy c #0B0B15",
"dz c #1B1B28",
"e` c #262640",
"ea c #151522",
"eb c #212131",
"ec c #2C2C49",
/* pixels */
"``````````````````bxdybsdobsdfdc````````````````",
"```````````````r`h`rajcibk`udzdgdnau````````````",
"``````````b``gcicgao`xavazcd`vao`q`u`gcf````````",
"````````b`aucxdicjecddcncnadddec`xbfcxdaai``````",
"``````aibkbkbi`addaaaabm`ydpbgaaawcobfci`gcg````",
"``````dfbce`deddbqdj`bayaeasc`djapak`te`bcac````",
"````eadaciaodpc`ayaycrdrcpdiacaqcr`eecdtaj`hea``",
"````auanbtcj`fdv`yaedrbububpcp`eagbqddblccbzau``",
"``bd`ual`qc`abcndkbwdi`zcwcwbubwbp`cabe`bidtcz`j",
"``bhchdtaz`qbl`ccrdhdh`mcydmatbway`cabdedidtdobh",
"``cg`gdtboamco`ddjaebz`mcydmatawakapdddecmalcvcg",
"``cgczdte`dedo`ec``bdiatcwcw`k`baq`ebl`vbkdtbscv",
"``bxbe`u`qbodeabbraxdrbjadaedjbjbqabbmaoc``lczbx",
"``dwclbicxbfdtecabaa`nbraxdb`cblabec`vbfdgctczdw",
"``cvckbe`lbndzcjaoddcnajaocncnddcocjbf`qanad`wcv",
"````cuchdnan`qbfcocebleccjecbmeb`v`kbh`paudfdq``",
"````dx`xclbtdtbtaraod`ambr`xd`aravdc`geaa``wbv``",
"``````cgdcbt`pbc`u`qccdtdge`cc`qcxbcctbyczcs````",
"``````cqcsckcl`gdicidtardibbdt`lcbbacl`o`odl````",
"````````dscseaauby`r`sctctctdndubyaubhbxds``````",
"``````````afcscv`wbocaacacacaubobdb``iaf````````",
"``````````````ahdw`rdqbxcudccfcvdwb`````````````",
"``````````````````afdlbvdsdq`jaf````````````````",
"````````````````````````````````````````````````"
};
