/* XPM */
static char *blue7[] = {
/* width height ncolors chars_per_pixel */
"36 36 89 1",
/* colors */
"  c #000000",
". c #2A2A47",
"X c #151525",
"o c #2E2E4E",
"O c #0F0F1F",
"+ c #1D1D30",
"@ c #17172A",
"# c #1B1B31",
"$ c #181824",
"% c #25253E",
"& c #21213A",
"* c #0E0E1A",
"= c #1C1C2B",
"- c #292945",
"; c #1A1A29",
": c #121221",
"> c #2D2D4C",
", c #161628",
"< c #26263B",
"1 c #333355",
"2 c #05050A",
"3 c #282840",
"4 c #090911",
"5 c #151520",
"6 c #2E2E49",
"7 c #0D0D18",
"8 c #282843",
"9 c #262641",
"0 c #252536",
"q c #0F0F1D",
"w c #2C2C4A",
"e c #1D1D2E",
"r c #19192A",
"t c #323253",
"y c #131324",
"u c #303051",
"i c #111122",
"p c #08080F",
"a c #212138",
"s c #0E0E18",
"d c #0A0A14",
"f c #25253F",
"g c #23233D",
"h c #12121F",
"j c #2B2B48",
"k c #181828",
"l c #141424",
"z c #2F2F4F",
"x c #1C1C2F",
"c c #1A1A2D",
"v c #0B0B11",
"b c #18182B",
"n c #07070D",
"m c #202036",
"M c #0D0D16",
"N c #11111D",
"B c #2A2A46",
"V c #262642",
"C c #171726",
"Z c #131322",
"A c #111120",
"S c #2E2E4D",
"D c #38385A",
"F c #343456",
"G c #151527",
"H c #212136",
"J c #1F1F34",
"K c #DDDDEB",
"L c #0A0A12",
"P c #494967",
"I c #23233B",
"U c #10101B",
"Y c #0C0C17",
"T c #292944",
"R c #161624",
"E c #2D2D4B",
"W c #0E0E1C",
"Q c #1A1A2B",
"! c #030307",
"~ c #1E1E32",
"^ c #1E1E35",
"/ c #0F0F19",
"( c #0B0B15",
") c #262640",
"_ c #696985",
"` c #151522",
"' c #212131",
"] c #2C2C49",
"[ c None",
/* pixels */
"[[[[[[[[[[[[[[[[4sCR([[[[[[[[[[[[[[[",
"[[[[[[[[[[[[hkx`$m7Y*lx4Z[[[[[[[[[[[",
"[[[[[[[[[[L=x5&gq**AI;Ja~dp[[[[[[[[[",
"[[[[[[[[[Q~*`g9;*qIlX89&Ih~k[[[[[[[[",
"[[[[[[[77Ua*'8B'O]b@.jB89*aJ=Z[[[[[[",
"[[[[[[p`~I::BjwESSSX@Ewjlq`I(*M[[[[[",
"[[[[[h=mI*Z.]>ScAGcl#&S=yJC);5Yh[[[[",
"[[[[[r+NeA.wSzubiEt.iju%^yb8%*Jr[[[[",
"[[[[4da,HW]Szuttoy10G#tj9Xr'9;adM[[[",
"[[[LcCJ7-fEz^,10^,FF111VXzEj-IIJYh[[",
"[[[C((78=9yI0y1G#^F00x0y^zSwA=%aCC[[",
"[[4rc:b8jO&A0#1b0FFFFF<,tuzEa8)&xr([",
"[[ZUZ+7,8>b@,<Fb83PD6FF,0uz>cZWIJhZ[",
"[[nd~IJ-B>zgibF9BP__PDF3itz>:A~gm5R[",
"[[sUa@J-TezuGyF1_KKK_DF<i+z>9@l*axp[",
"[MC+a,=-jyTu'.B~_KKK_DFbI9c>IGAxarsM",
"[sCxmg)9A@-uti0c_KKK_DyizAaEj)i7mxCL",
"[4/YmI)IAx3z#A1l0PP_D@bt0HSe88*I(x4n",
"[2/:q&%'A:8SA:tyFE<DF0GuzSEjB8@&$s/(",
"[!XZ7&g9Ryw>)8u.t^,ttuj%o>w3Tex&~csv",
"[[pZr$Iff&jw>,zJlguuuuzi>wj-'f,=+Yn[",
"[[U4*h&g,lBj'^S0eb#zzSSl]jB8)$7NxZh[",
"[[2XsXm(I;8--IXE>'>>>Er#,A89%I7xc(/[",
"[[p(k7~:x%)'OW#e]wBw]jje-cchbarxkv![",
"[[[/XqlJaI%Z:8-BB=WOBBi=9)aq:J=rXL[[",
"[[[2hUr+da$r7)98AqXq88xArgIax+Y4hL[[",
"[[[[spZcd$m7*g%)el,;))%gI&mJYcYhn[[[",
"[[[[[/nCC*~(:;II$YmggII&5mddcC(n[[[[",
"[[[[[p2ZhCx+$:x=7$$&a$md~+Z(p(U![[[[",
"[[[[[[4vp`kQ5,+U(JJJJ~QC5Qqhns4[[[[[",
"[[[[[[[!shppLRck/xxxxUcrkXY2nn[[[[[[",
"[[[[[[[[[!phZXC4Ck4kkCCMh2(2[[[[[[[[",
"[[[[[[[[[[!(/UhvLp(sZhh4/2![[[[[[[[[",
"[[[[[[[[[[[[2!(sL24//s(Ln[[[[[[[[[[[",
"[[[[[[[[[[[[[[[[!!2n![[[[[[[[[[[[[[[",
"[[[[[[[[[[[[[[[[[[[[[[[[[[[[[[[[[[[["
};
