/* XPM */
static char *blue10[] = {
/* width height ncolors chars_per_pixel */
"60 60 90 1",
/* colors */
"  c #000000",
". c #0D0D1A",
"X c #2A2A47",
"o c #282845",
"O c #151525",
"+ c #303050",
"@ c #111121",
"# c #2E2E4E",
"$ c #0F0F1F",
"% c #1D1D30",
"& c #0E0E17",
"* c #0A0A13",
"= c #25253E",
"- c #23233C",
"; c #21213A",
": c #10101C",
"> c #262638",
", c #121221",
"< c #2F2F4E",
"1 c #2D2D4C",
"2 c #333355",
"3 c #282840",
"4 c #2E2E49",
"5 c #0F0F1A",
"6 c #1F1F2D",
"7 c #0D0D18",
"8 c #0B0B16",
"9 c #282843",
"0 c #262641",
"q c #11111F",
"w c #0F0F1D",
"e c #19192A",
"r c #323253",
"t c #040408",
"y c #212135",
"u c #1F1F33",
"i c #08080F",
"p c #23233A",
"a c #212138",
"s c #10101A",
"d c #181825",
"f c #25253F",
"g c #202030",
"h c #2B2B48",
"j c #181828",
"k c #141424",
"l c #313151",
"z c #2F2F4F",
"x c #1C1C2F",
"c c #1A1A2D",
"v c #18182B",
"b c #161629",
"n c #202036",
"m c #1C1C32",
"M c #090912",
"N c #13131F",
"B c #11111D",
"V c #2A2A46",
"C c #131322",
"Z c #2E2E4D",
"A c #38385A",
"S c #343456",
"D c #151527",
"F c #06060B",
"G c #1B1B30",
"H c #0C0C14",
"J c #DDDDEB",
"K c #494967",
"L c #23233B",
"P c #0C0C17",
"I c #1C1C2A",
"U c #292944",
"Y c #0A0A15",
"T c #161624",
"R c #141422",
"E c #0E0E1C",
"W c #2B2B49",
"Q c #121223",
"! c #1E1E32",
"~ c #0B0B12",
"^ c #090910",
"/ c #07070E",
"( c #15151F",
") c #222239",
"_ c #202037",
"` c #1E1E35",
"' c #262640",
"] c #696985",
"[ c #151522",
"{ c None",
/* pixels */
"{{{{{{{{{{{{{{{{{{{{{{{{{{{{{{{{{{{{{{{{{{{{{{{{{{{{{{{{{{{{",
"{{{{{{{{{{{{{{{{{{{{{{{{F&N,eOeeRj7&q{{{{{{{{{{{{{{{{{{{{{{{",
"{{{{{{{{{{{{{{{{{{{{{:7e8x((!uuqbD,8xjH[{{{{{{{{{{{{{{{{{{{{",
"{{{{{{{{{{{{{{{{{{/de8q&((a))cxP@CP78d%x*&B{{{{{{{{{{{{{{{{{",
"{{{{{{{{{{{{{{{{Fdcxx(I)p-=v..E=.d=Id!nn!x&dF{{{{{{{{{{{{{{{",
"{{{{{{{{{{{{{{{Hex(P)d-=fkL@@kLOI00'fwbu)T*NO:{{{{{{{{{{{{{{",
"{{{{{{{{{{{{{*Pc!vCwq%6099@wIe@`'0O990'==pE(!cjB{{{{{{{{{{{{",
"{{{{{{{{{{{{8jMPnP:c)09UVC$$hIC0_CgVVU90'E`[n!qeR{{{{{{{{{{{",
"{{{{{{{{{{{B:c,Tp,.k9UVhhWW-1U1@@hyWhhVUg)6=p(b8eR{{{{{{{{{{",
"{{{{{{{{{{i:8vOL)E$$VhhW111ZZZZZLc111Whgkv6'=Lc.*eH{{{{{{{{{",
"{{{{{{{{{&exEvLLEE:ghW11ZVXcfg>>@_=>Z1Ox,,`6d=LcxPe/{{{{{{{{",
"{{{{{{{{qj:7.Ldv9UXhW1Z#zvvmz0<mDD@`z#ZW$$':,6=Bdu&Bq{{{{{{{",
"{{{{{{{Hdq*m.=mkUXhW1Z<z+_@@`>r%hv_D+z<kckEcu9'wEa!cM^{{{{{{",
"{{{{{{{M:%e)T'w=XhWgZz++lgG@_>2>0vGcl+gcWcg)L30'x)n%eO{{{{{{",
"{{{{{{NjP:a:m0pEhW1Zz++lrr>9W>2ce_vmhlym0yCgCg60=.ad8MN{{{{{",
"{{{{{^/N%njBq9UmW1Z<+ygr22@z+vkx222<2rvQggy>OhU9k.)nCMT/{{{{",
"{{{{{NP8javv6U601Z$`WWk<2ccQk%SSSS1222+mkz<Z1hVU)I-a7*8N{{{{",
"{{{{H:c88.,b93@bf@@@`D1c2%9k_SSS>kcv2QbVk+zZ1WhwL'=)nj*T^{{{",
"{{{{qiMqOx;x9V6Q@L0vlf@22Xvc>SS9uSQ>vOD<k+z<ZWIa,0=LaxMj~{{{",
"{{{{[e*P:wv,UXW$m9@g>Zb2Sv9SSSSS>2>SSkvvrl+<Z1I@U0'I)uCe[{{{",
"{{{iqj8P.%.)IhWvGf`fXo>23k`3AAAA>cSSS2Vkrl+zZ1,w6E[=)n8cii{{",
"{{{qdw8:[O@EE@g1g0D@Dg22ck`!rlKKKAASS2v=rl+z#1;EvE:=pnd.di{{",
"{{{CjMb[D@k9g@D1#61vc#2Skx)>A]]]]KAASS2Lkl+z#1f`vI=wLa!eOC{{",
"{{~Ne8([emI9I6$1#zzD@1DSxlAK]]JJ]]KASS2vvl+z#1@,v6xcLau(*R~{",
"{{&8e5uaaBu96h`6#z+lD`bSS24]JJJJJ]]ASS2l@@>z#1bL$0k.dauxMO&{",
"{{s[D7PIC)69Vhv9gz+le@OSbuA]JJJJJ]]AAS2o__@kZ1gvxw$@RadN:/s{",
"{{:Te%8aBm:gV6IG@e+ll_>2cg]]JJJJJ]]AA2vzVDG=g1$;EGEb_d&P:s&{",
"{{:T(%uaLC':x,=Q1=y+lm`2m!4]]JJJJ]KAuhcc+@v9g1WhgEEC,ad8e:7{",
"{{:TexuaLp'qv,@@V-g+lf_2hxKK]]]J]]KyvbvG@@oyg1hXU)DBLaqkqR:{",
"{{:&eP8ap=',v@kxjg<+mbkr2ke4KAK]]KAvQrrlyy<Z16dIUIEdpakxP^F{",
"{{:Mq8*n)-'0kEc`nZ#Of+grrke%>r4KAASk@yl++z#Z1WhV90.d)nPTMs5{",
"{{s[s,8P)L='9LEwy1Z@@W+lLk3S<2!ASS2>mk++z<Z1WhXU6q=d)n%&j[~{",
"{{^Rj*:Bap='0v9QdW1>=@++`c><h;D22rll,kgz<Z1WW6V9Idv.au,(jHH{",
"{{FidMk@()-=0nx'OW11C@>+,`k+#@hllll++_`<Z11WhVU90=.%au:qsM7{",
"{{tHTCM8%)L='IE)$hW11m#<g`@Q0k++zV++z<L$11WhXUg0'NDvn!.PPHH{",
"{{F^[*Pc(a)-=`D`IXhW1m>Z#G#@vWc+zzz<#ZZ$gWhXUUII=@OP8%(8/:F{",
"{{{HRM78Pn)Lw.,IUVXh,$D1ZZZ#DQ`<<#ZZZ11D@EXVU90'=e8qbxe:*^{{",
"{{{FqTj8Pxa[nDEg9UUXx@$W111ZZDhZZZ11)cm;@,UU90'=Ln878(eM&H{{",
"{{{F:[dk88naqkcC09IUUmG@9g311_$g11WWWC$LIE000I=-)a88xcdi:/{{",
"{{{{5HTi8*!nCvC='09O$$k`,6WWWgVDWWWhhheVU9G.)q-maneOceT~5{{{",
"{{{{MH[H58duk8d-='0EEwggVXXhhIE,hhXXVgUU90=L..Pwn(.Oed[7F{{{",
"{{{{t5NT7Mc!qDIp-NTE.099UUUVgd@@EVUUg0g0C'fB@v!Eux.:jTNFF{{{",
"{{{{{HHRMMBx!YTa))E.@'00999dC`cxm999IL@q-w=Lddcc!x8:DR:H{{{{",
"{{{{{t&qM*McxkYna)POB='''00CgbEjp0006I6==-L)an,%xcMR[/&F{{{{",
"{{{{{{i5:OReNM7dnax8.d===''.xCD=%'''===-L))anuY8c(P*HFt{{{{{",
"{{{{{{{H:/&seb&xe`n85)LL-==xvC.w====-LL))an`,kBHe:i/FF{{{{{{",
"{{{{{{{FH:NOd[M.Y!u7kqTd)pPP`kx-LLLp))).Tnu8CDcPdN/&FF{{{{{{",
"{{{{{{{{i&iiO:MC.x%!8D8c(a:PD[N%)))a(anPu!%d:858HN://{{{{{{{",
"{{{{{{{{{^&:N/Mdecxx%&8c`dq.:aaannnn`u8*%xxcMi7/M:&t{{{{{{{{",
"{{{{{{{{{{^7HH/[djec(*je!:.duuuuuu!!!(5((cesOqqi/7^{{{{{{{{{",
"{{{{{{{{{{{FHsqC[Td&MRB(xPPN%Nj%%%%(c8ccNjs/*8&FH^{{{{{{{{{{",
"{{{{{{{{{{{{F/57/7*i:MeeH.scxxxxxccceeej~CiC*^~*/{{{{{{{{{{{",
"{{{{{{{{{{{{{F*^5FiR[TDd*P8eee:eeeejjdDiMMFHFFtF{{{{{{{{{{{{",
"{{{{{{{{{{{{{{{i^H~:qNR[OT8&RM*dsHTTO[RNi:^FtF{{{{{{{{{{{{{{",
"{{{{{{{{{{{{{{{{FFF75:BqN~////HRsRRNNqFH5*/tF{{{{{{{{{{{{{{{",
"{{{{{{{{{{{{{{{{{{tFi^755H*F8i&BBB::557H*tF{{{{{{{{{{{{{{{{{",
"{{{{{{{{{{{{{{{{{{{{{Fi*~^^HFF^&H7HH^*tF{{{{{{{{{{{{{{{{{{{{",
"{{{{{{{{{{{{{{{{{{{{{{{{FFtttFi^^iFFF{{{{{{{{{{{{{{{{{{{{{{{",
"{{{{{{{{{{{{{{{{{{{{{{{{{{{{{{{{{{{{{{{{{{{{{{{{{{{{{{{{{{{{",
"{{{{{{{{{{{{{{{{{{{{{{{{{{{{{{{{{{{{{{{{{{{{{{{{{{{{{{{{{{{{"
};
