/* XPM */
static char *blue2[] = {
/* width height ncolors chars_per_pixel */
"12 12 71 1",
/* colors */
"  c #000000",
". c #323252",
"X c #303050",
"o c #0F0F1F",
"O c #1B1B2E",
"+ c #17172A",
"@ c #1F1F35",
"# c #181824",
"$ c #25253E",
"% c #10101C",
"& c #20202F",
"* c #0E0E1A",
"= c #292945",
"- c #141423",
"; c #242436",
": c #2D2D4C",
"> c #333355",
", c #313153",
"< c #0D0D15",
"1 c #24243C",
"2 c #262641",
"3 c #232334",
"4 c #3C3C5D",
"5 c #19192A",
"6 c #303051",
"7 c #111122",
"8 c #1F1F33",
"9 c #08080F",
"0 c #212138",
"q c #12121F",
"w c #0E0E1B",
"e c #1E1E2E",
"r c #2B2B48",
"t c #2F2F4F",
"y c #1C1C2F",
"u c #18182B",
"i c #353558",
"p c #15151E",
"a c #1C1C32",
"s c #26263F",
"d c #13131F",
"f c #0F0F1B",
"g c #2A2A46",
"h c #131322",
"j c #2E2E4D",
"k c #0F0F1E",
"l c #343456",
"z c #151527",
"x c #1F1F34",
"c c #0C0C14",
"v c #494967",
"b c #23233B",
"n c #FFFFFF",
"m c #0C0C17",
"M c #141422",
"N c #2D2D4B",
"B c #0E0E1C",
"V c #161627",
"C c #333354",
"Z c #141425",
"A c #1E1E32",
"S c #1C1C30",
"D c #0B0B12",
"F c #18182C",
"G c #090910",
"H c #222239",
"J c #0F0F19",
"K c #1B1B28",
"L c #262640",
"P c #151522",
"I c None",
/* pixels */
"IIIIO1wKAIII",
"II9bgNjN-b<I",
"II0Bt.>a2&0I",
"I5uo;Fil,Ns5",
"If8ezCn47:ZS",
"ImLSaZv+3ewy",
"IhbH:@6X:=Vm",
"IcA$kegr=q5D",
"IIM#*sVsbxmI",
"IIGPp%xApqGI",
"IIIIJDcdJIII",
"IIIIIIIIIIII"
};
