/* XPM */
static char *blue9[] = {
/* width height ncolors chars_per_pixel */
"50 50 170 2",
/* colors */
"`` c None",
"`a c #2A2A47",
"`b c #1B1B2B",
"`c c #282845",
"`d c #191929",
"`e c #323252",
"`f c #303050",
"`g c #111121",
"`h c #2E2E4E",
"`i c #0F0F1F",
"`j c #1D1D30",
"`k c #1B1B2E",
"`l c #0C0C12",
"`m c #0A0A10",
"`n c #17172A",
"`o c #212137",
"`p c #767691",
"`q c #1F1F35",
"`r c #2F2F48",
"`s c #101019",
"`t c #0E0E17",
"`u c #272740",
"`v c #181824",
"`w c #25253E",
"`x c #21213A",
"`y c #12121E",
"`z c #10101C",
"a` c #20202F",
"aa c #0E0E1A",
"ab c #2B2B47",
"ac c #0C0C18",
"ad c #292945",
"ae c #161625",
"af c #141423",
"ag c #242436",
"ah c #313150",
"ai c #121221",
"aj c #2F2F4E",
"ak c #2D2D4C",
"al c #1A1A2C",
"am c #5C5C7A",
"an c #161628",
"ao c #333355",
"ap c #07070C",
"aq c #313153",
"ar c #05050A",
"as c #0D0D15",
"at c #24243C",
"au c #202038",
"av c #0D0D18",
"aw c #1D1D2B",
"ax c #0B0B16",
"ay c #282843",
"az c #262641",
"b` c #232334",
"ba c #11111F",
"bb c #0F0F1D",
"bc c #2C2C4A",
"bd c #3C3C5D",
"be c #1B1B2C",
"bf c #19192A",
"bg c #151526",
"bh c #131324",
"bi c #303051",
"bj c #111122",
"bk c #1F1F33",
"bl c #19192D",
"bm c #08080F",
"bn c #161620",
"bo c #23233A",
"bp c #212138",
"bq c #0E0E18",
"br c #0A0A14",
"bs c #272741",
"bt c #25253F",
"bu c #23233D",
"bv c #12121F",
"bw c #10101D",
"bx c #202030",
"by c #0E0E1B",
"bz c #1E1E2E",
"c` c #2B2B48",
"ca c #0C0C19",
"cb c #292946",
"cc c #181828",
"cd c #28283B",
"ce c #262639",
"cf c #2F2F4F",
"cg c #101020",
"ch c #1C1C2F",
"ci c #2A2A40",
"cj c #18182B",
"ck c #353558",
"cl c #09090F",
"cm c #333356",
"cn c #07070D",
"co c #15151E",
"cp c #202036",
"cq c #1C1C32",
"cr c #090912",
"cs c #191925",
"ct c #26263F",
"cu c #24243D",
"cv c #22223B",
"cw c #13131F",
"cx c #11111D",
"cy c #0F0F1B",
"cz c #0D0D19",
"d` c #2A2A46",
"da c #262642",
"db c #171726",
"dc c #151524",
"dd c #131322",
"de c #111120",
"df c #2E2E4D",
"dg c #0F0F1E",
"dh c #1D1D2F",
"di c #343456",
"dj c #08080D",
"dk c #151527",
"dl c #06060B",
"dm c #1F1F34",
"dn c #1B1B30",
"do c #0C0C14",
"dp c #0A0A12",
"dq c #494967",
"dr c #23233B",
"ds c white",
"dt c #14141F",
"du c #1E1E2C",
"dv c #2B2B46",
"dw c #0C0C17",
"dx c #292944",
"dy c #0A0A15",
"dz c #262637",
"e` c #141422",
"ea c #2D2D4B",
"eb c #0E0E1C",
"ec c #1A1A2B",
"ed c #373758",
"ee c #181829",
"ef c #161627",
"eg c #333354",
"eh c #141425",
"ei c #313152",
"ej c #121223",
"ek c #222236",
"el c #030307",
"em c #BCBCD7",
"en c #1E1E32",
"eo c #1C1C30",
"ep c #1A1A2E",
"eq c #0B0B12",
"er c #18182C",
"es c #28283F",
"et c #090910",
"eu c #222239",
"ev c #202037",
"ew c #11111B",
"ex c #1E1E35",
"ey c #0F0F19",
"ez c #0D0D17",
"f` c #0B0B15",
"fa c #1B1B28",
"fb c #090913",
"fc c #262640",
"fd c #171724",
"fe c #151522",
"ff c #212131",
"fg c #2C2C49",
/* pixels */
"````````````````````````````````````````````````````````````````````````````````````````````````````",
"``````````````````````````````````````cnddbvalfeewchch`kbbbfcre`````````````````````````````````````",
"````````````````````````````````e`eeaibvendmcp`o`oaxczeoaxbyax`jcydwe```````````````````````````````",
"````````````````````````````e`ewchf`bnaaeudrataicacabyatatfebvaacpen`yewdp``````````````````````````",
"````````````````````````aseechbncpeucs`wbtatefbbcqdrcpfabsfcbtehbaeucpbrchbqew``````````````````````",
"``````````````````````f`al`jdydeacbabwbsaydccucgffa`eheu`wdxaybsfc`watch`y`janfe````````````````````",
"````````````````````cybrbr`oblcz`nbsdxad`aecdkccfgerfgdebzc``aaddxbsdkawfa`odwaaef``````````````````",
"``````````````````bm`k`kbadrddcpayad`ac`bceaeaakdfdfdf`ieheabcc``aadbtbw`wdrdwbybgdb````````````````",
"````````````````ef`kefbgatbyczdrddc`bceadfdzdkanekc`ffexblb`dfeadgdkcgcgbacsateoen`kf```````````````",
"``````````````dcbecjczdrebehad`afgeaakdfcfbudn`cazajepercgeacfdfbxehbbfcawductdrcsenbecr````````````",
"````````````bmbfbfaibb`wefdx`afgeadfajcf`fcgcgbjbxaqbhbtcuan`fcfdxdnbtaibldxbsbkcpcp`jbfet``````````",
"``````````dpccdd`qeu`vbzbbefc`abdfaj`fbiei`ebcejenegdhepeh`g`nbibhbtdkddbsehcgbsfaeu`qchbmdl````````",
"``````````eqcobncpendgaybba`bcdfaj`fb`ei`eb`ehbhau`ndzaoaoch`eeiayerb`a`b`bzd`ayeb`qbpezecfe````````",
"````````ewcrfbchdddefadxaibcakffbeaddkdzegejdk`xehdididicmaoeg`eaydacf`hakbc`adxdgczeucyf`cceq``````",
"````````fealdwacdeefay`d`adk`gcgercqeh`naodkehexdidididkbjanaobjbjex`fcfdfeac`aidrctat`oaxbrfe``````",
"``````eydcbralacehebdx`absercvbcdzdhaycdcmer`jckckckagckeocdb`ayehdkei`f`hakfg`qdhbscueudmfbdbas````",
"``````cwbfbraxen`n`nadc`bc`gd`bjbgcfaycmdiejehckedededcdfgdidiblblffei`feadfboejaddu`wbocpbfbfcw````",
"``````cwbfbrbqboddcgbtayeaefdfbj`n`ncdcmbldkep`r`rdqdqbdceckdicmejdzeibicfdf`bdgebefdbdr`o`jdtfe````",
"`````tcxavdbdwblcpbzaeepaidfdzbudkejagcmbhdkdm`rdqamamambdeddicm`jeieibicfdfcgaiebfadgatbpencraeeq``",
"````ewdbaxcofedebwayawffejdfcfcfepbjdncm`kah`r`p`pem`p`pambdckcmdz`nb`bicfdfef`bcjbzatcseudmeycrew``",
"`````yccbvdmeuehbaaybz`u`nescfbiei`n`ndidvbxdq`pdsdsememamdqeddidxbj`fbxcfdfecazbhbyczaceudmchcr`y``",
"````aseechdycsczbwcpd`c`bhcucf`feidkcucmdicedq`pdsdsdsem`pdqedcmandkcgcgcbdfeaazehbtczbbchavaiewbm``",
"````cneechdmeudhbwawddbzbtcjdn`feiaqbjao`wenam`pdsdsdsemamdqck`nbt`adnbjaidfbcddbscjbgdecscwbw`ydp``",
"````doeechdmbpatbodueobjep`gayddbi`nbjegdaatdqdq`p`pem`pdq`rbucqexcgdkcvddakbcabadbyanatdmbqafcrcn``",
"````cnccbff``odreke``n`g`n`nekaj`fcqbj`eaocqffbddqdqamdqbdb`ej`eeibiagajdfeabzatdxbyeodr`oafbvcrcr``",
"````cn`scrdw`obo`wbsebeb`nbgakdfcqbj`nei`edkceekajcibdbdckagbjb`ei`fcfdfakbcc`d`aybsbgbo`oaxf`dbbm``",
"`````ydbcrbrdmeucufcay`kexayeadf`xcgbhbiadaycdcjfgcjdiaoeg`eaybh`fcf`hdfeafg`aaddudd`jeucpeffedbdl``",
"````ewaecrddaxbpdr`wbsbzepddfgeadfcbev`fcf`xag`abcbf`eeieieibicgbo`hdfeafgc`a`aybs`weubpdmavecaveq``",
"````eyfeczf`dycsbocufcbw`gbbc`bceaefdkajb`anbj`gehbibiag`f`fcfajbhdfeabcc`d`ctayfcanaccpenbacocney``",
"````ase`avdwddcpeuat`wcz`kba`ac`bcd`cqdf`hbcc`cgc`ep`fcfcfaj`hdfbsejbcc``aadayfa`webdmal`jbnbm`yas``",
"````dp`yae`zdydw`ochddcjfaayad`ac`cjbleaakdfdf`hbjepaj`hdfdfakea`dbbbs`aadaybsctcudeeeefbrecbm`ydp``",
"```````zfe`ycrbgcpfd`qbpaibsayadd`bbcueubxeaakakcgbcakakakeabcdecqepdkawaybsct`wdrbpchcjeweeet`z````",
"``````ascwdbdpdpencpbl`ncjfcbsaybgeberbsd`bzbcbcb`ehb`bcbcfgc`bgaiawdxbycueb`vcxeucpczcxecdbcneq````",
"``````elewfeaaf`aadmcjaidr`wctbscgcgebafek`ac`c`ctbbffc`c``a`aawadayayfaddca`ndw`o`ybbbeccfeewdj````",
"`````````tcwaeddax`j`yaleudre`fdebaiayaydxadd`d`dubjcqffd`ada`aybka`fcbtbwcpbbacdmdtcrbfaecwdp``````",
"````````cnbmetcraach`jdy`oeuacbbczccfcbsbsaya`deayblazaeayaydbcqddexcwat`jeu`ybk`jbfcrdoe``zet``````",
"``````````as`yfef`bfcobfcocpbpaibgcs`wbtfcfcbsbwbyczbabsbsfcfcbt`wcudreubpcpbqdcchezaebmcxar````````",
"``````````elbq`t`zeyecaxbbbkcp`oaxbodratcu`w`weubhbwalbt`w`wcuatdrboeu`ocpbkdwbwecdwbmdoarap````````",
"`````````````meyeze`ccbrcrbren`dbwbfbvcsbodrbaaieu`katatdrdrboeueucscpdmbrbff`ecccdobm`ldl``````````",
"``````````````eqeqbmdc`screy`d`jenacac`qbnfdczbg`vcweueueubpbncpacbnen`jeecr`ycrdocw`sel````````````",
"````````````````eqeybm`ze`coecbech`jbwandmbnaxbkcpcpcpcpcp`qdmen`kchchbeec`zf`dodleyeq``````````````",
"``````````````````dlas`y`zaedb`decbnbfbe`jbrbfenenenenenen`j`jdpchf``y`ddpdobvbm`meq````````````````",
"````````````````````elbqarcwdpcxcrdbccalbebefbchch`dchchch`kfbalbfeedbbqcrcneyarap``````````````````",
"``````````````````````djdocncncne`aedbdbccdwbfbfecececbfbfbfeedbdbcxezcncnclarbm````````````````````",
"````````````````````````eldlas`lcxcwe`fedcaedpe`bmdpdbeqefaedcfee`dpbq`mcnelap``````````````````````",
"````````````````````````````elelasey`zcx`ycnbmbm`zcre`e`cwcw`ycx`zeyasdjap``````````````````````````",
"````````````````````````````````dlararas`tcndparareq`z`zey`m`taseqclap``````````````````````````````",
"``````````````````````````````````````apdlelaparelareqeqdpetelap````````````````````````````````````",
"````````````````````````````````````````````````````````````````````````````````````````````````````",
"````````````````````````````````````````````````````````````````````````````````````````````````````"
};
