/* XPM */
static char *blue7[] = {
/* width height ncolors chars_per_pixel */
"36 36 169 2",
/* colors */
"`` c None",
"`a c #2A2A47",
"`b c #1B1B2B",
"`c c #191929",
"`d c #323252",
"`e c #303050",
"`f c #111121",
"`g c #2E2E4E",
"`h c #0F0F1F",
"`i c #1D1D30",
"`j c #1B1B2E",
"`k c #0C0C12",
"`l c #0A0A10",
"`m c #17172A",
"`n c #212137",
"`o c #767691",
"`p c #1F1F35",
"`q c #2F2F48",
"`r c #101019",
"`s c #0E0E17",
"`t c #272740",
"`u c #181824",
"`v c #25253E",
"`w c #21213A",
"`x c #12121E",
"`y c #10101C",
"`z c #20202F",
"a` c #0E0E1A",
"aa c #2B2B47",
"ab c #0C0C18",
"ac c #292945",
"ad c #161625",
"ae c #141423",
"af c #242436",
"ag c #121221",
"ah c #2F2F4E",
"ai c #2D2D4C",
"aj c #1A1A2C",
"ak c #5C5C7A",
"al c #161628",
"am c #333355",
"an c #07070C",
"ao c #313153",
"ap c #05050A",
"aq c #0D0D15",
"ar c #07070F",
"as c #24243C",
"at c #202038",
"au c #0D0D18",
"av c #1D1D2B",
"aw c #0B0B16",
"ax c #282843",
"ay c #262641",
"az c #232334",
"b` c #11111F",
"ba c #0F0F1D",
"bb c #2C2C4A",
"bc c #3C3C5D",
"bd c #2A2A48",
"be c #1B1B2C",
"bf c #19192A",
"bg c #151526",
"bh c #131324",
"bi c #303051",
"bj c #111122",
"bk c #1F1F33",
"bl c #19192D",
"bm c #08080F",
"bn c #161620",
"bo c #23233A",
"bp c #212138",
"bq c #0E0E18",
"br c #0A0A14",
"bs c #272741",
"bt c #25253F",
"bu c #23233D",
"bv c #12121F",
"bw c #10101D",
"bx c #202030",
"by c #0E0E1B",
"bz c #1E1E2E",
"c` c #2B2B48",
"ca c #292946",
"cb c #181828",
"cc c #28283B",
"cd c #262639",
"ce c #2F2F4F",
"cf c #101020",
"cg c #1C1C2F",
"ch c #2A2A40",
"ci c #18182B",
"cj c #353558",
"ck c #09090F",
"cl c #333356",
"cm c #07070D",
"cn c #15151E",
"co c #202036",
"cp c #1C1C32",
"cq c #090912",
"cr c #191925",
"cs c #26263F",
"ct c #24243D",
"cu c #22223B",
"cv c #13131F",
"cw c #11111D",
"cx c #0F0F1B",
"cy c #0D0D19",
"cz c #2A2A46",
"d` c #262642",
"da c #171726",
"db c #151524",
"dc c #131322",
"dd c #111120",
"de c #2E2E4D",
"df c #0F0F1E",
"dg c #1D1D2F",
"dh c #343456",
"di c #08080D",
"dj c #151527",
"dk c #06060B",
"dl c #1F1F34",
"dm c #1B1B30",
"dn c #0C0C14",
"do c #0A0A12",
"dp c #494967",
"dq c #23233B",
"dr c white",
"ds c #212139",
"dt c #1E1E2C",
"du c #2B2B46",
"dv c #0C0C17",
"dw c #292944",
"dx c #0A0A15",
"dy c #262637",
"dz c #141422",
"e` c #2D2D4B",
"ea c #0E0E1C",
"eb c #1A1A2B",
"ec c #373758",
"ed c #181829",
"ee c #161627",
"ef c #333354",
"eg c #141425",
"eh c #313152",
"ei c #121223",
"ej c #222236",
"ek c #030307",
"el c #BCBCD7",
"em c #1E1E32",
"en c #1C1C30",
"eo c #1A1A2E",
"ep c #0B0B12",
"eq c #18182C",
"er c #28283F",
"es c #090910",
"et c #222239",
"eu c #11111B",
"ev c #1E1E35",
"ew c #0F0F19",
"ex c #0D0D17",
"ey c #0B0B15",
"ez c #1B1B28",
"f` c #090913",
"fa c #262640",
"fb c #171724",
"fc c #151522",
"fd c #212131",
"fe c #2E2E4B",
"ff c #2C2C49",
/* pixels */
"````````````````````````````````cq`sdaaddn``````````````````````````````",
"`````````````````````````xedcgfc`ucocyaba`aecgcqdz``````````````````````",
"````````````````````dobe`jbnetasbabybyddboezdl`nembrar``````````````````",
"``````````````````ebema`fcctbsezbybwdqegdbaxbsetdq`xemcb````````````````",
"``````````````exaucx`nby`zaxczfddfffeq`m`aaaczaxbsby`n`pbedz````````````",
"````````````bmfcemdqagagczc`bbe`dededebg`me`bbc`aebafcdqawa`aq``````````",
"``````````cvbecodqbydc`affaideajcfdjblegdm`wdebebh`pdafaezbndvcv````````",
"``````````bf`icwdtb``abbdeah`eeqbje``dbd`fc``e`vevbheqax`va`bkbf````````",
"````````cqbrbpalejeaffdecebieh`d`geiamafdjcpehc`aybg`c`zbsezbpbraq``````",
"``````doajda`pcyacbte`aheveeefafevaldhdhclamefd`bgahe`c`acdqdq`pdv`x````",
"``````daeyawcyaxavayeicudyeiamdjdmevcjdydycgafbhevcedebbcfav`vbpdada````",
"`````lbfajagciaxc``hdscfafdmcleqafcjcjcjcjdhcdalao`eahe`ataxcsetcgbfey``",
"````dccxdcdgcyeeaxaieq`malccdheqaxchdpbc`qcjdhalafbiceaibldceadq`pbvdc``",
"````cmf`emdq`pacczaicebubjcidhbsdudpakakdpecdherbjehceaiagddemascobnad``",
"`````scx`n`mbkacdwbzcebidjeidhef`oeldrel`obcdhccbjdgceaiay`megby`nenbm``",
"``aqda`i`neeavacc`bhdwbifdbdduemakdrdrdr`obcdhcicubseoaidqdjdden`nbf`saq",
"``bqdaencoasfabscf`mac`eehbjdyajakelelelakbceibjcecfate`c`cs`fcycocgdado",
"```l`rdvcodqfadqcfenercecpcfefegazdpdpakbc`mciehazejdebzaxaxbydqawcgcqdi",
"``ap`ragbaet`v`zcfagaxdecfageheidhfeccecdhazdjbicedee`c`czax`metcrbq`rdn",
"``ekdbdccyetctbsadbhbbaifaaxbibdehevee`deh`ec``v`gaibb`tdwdt`jetemaj`sep",
"````bmdcbf`udqbtbtetc`bbaialce`pegbubibi`e`ece`faibbc`ac`zbteebe`idvcm``",
"````eucqa``xetcteeaeczc`fdevdedybzeqcpceahdedeegffc`czaxfacrcycwcgdc`x``",
"````apdb`sdbcoawdqezaxaccacubge`aibxaiaiaie``ccpalddaxbs`vbocycgajdnew``",
"````bmdncbexemagen`vfa`zdfeacpbzffbbczbbffc`aadtacblblbvci`nbfcgcbepek``",
"```````rdbbaaedl`ndq`vdcagaxacczczaveadfczcz`fbebsfabpbaagdlbebfdbdo````",
"``````apbvcxbf`idx`nfbbfcyfabsaxb`bwbgbaaxax`jb`bfasbo`nen`idvcqbvdo````",
"````````bqbmdzajbr`ucocya`ct`vcsdtegeeezfacs`vctdqetcodldvajdvbvan``````",
"``````````ewcmdadaa`emeyagezbodqfbabcoasasdqboetbncobrbrajdaeycm````````",
"``````````ckdkdzcvda`j`i`uagen`bcycr`uetbpcrcodxem`idcdnardn`yek````````",
"````````````es`karfccbebcnal`i`yawdldldlbkemebdacnebbwbvcm`ses``````````",
"``````````````ekbq`xbmbmdoadajed`rcgcgcg`jeuajbfcbdbdvdkcmdi````````````",
"``````````````````ekbm`xdzdbdacqdaedcqedcbdadaaqbvdkeydk````````````````",
"````````````````````ekdneweubvepdoardn`sdzcvbv`lewapek``````````````````",
"````````````````````````dkekdn`sdodk`lewew`sdndoan``````````````````````",
"````````````````````````````````ekekdkanek``````````````````````````````",
"````````````````````````````````````````````````````````````````````````"
};
