/* XPM */
static char *glass9[] = {
/* width height ncolors chars_per_pixel */
"50 50 188 2",
/* colors */
"`` c None",
"`a c #27274E",
"`b c #25254C",
"`c c #383858",
"`d c #23234A",
"`e c #212148",
"`f c #2E2E62",
"`g c #292967",
"`h c #3535A1",
"`i c #272751",
"`j c #23234D",
"`k c #29293F",
"`l c #2C2C63",
"`m c #2A2A61",
"`n c #33334C",
"`o c #353579",
"`p c #272754",
"`q c #414188",
"`r c #20202C",
"`s c #2E2E3D",
"`t c #1C1C28",
"`u c #2E2E68",
"`v c #242447",
"`w c #2C2C66",
"`x c #222245",
"`y c #181824",
"`z c #25253E",
"a` c #161622",
"aa c #B9B9ED",
"ab c #3E3E67",
"ac c #1C1C3F",
"ad c #6767A3",
"ae c #2B2B47",
"af c #272743",
"ag c #222248",
"ah c #292931",
"ai c #29295C",
"aj c #1D1D39",
"ak c #252544",
"al c #1E1E47",
"am c #2B2B61",
"an c #29295F",
"ao c #1F1F3E",
"ap c #2F2F68",
"aq c #2D2D66",
"ar c #30305F",
"as c #2C2C5B",
"at c #11111C",
"au c #262655",
"av c #31316D",
"aw c #4C4C6D",
"ax c #222251",
"ay c #323264",
"az c #2D2D69",
"b` c #33335B",
"ba c #43436E",
"bb c #2B2B67",
"bc c #212146",
"bd c #37374B",
"be c #22223D",
"bf c #252536",
"bg c #1D1D42",
"bh c #2A2A5C",
"bi c #28285A",
"bj c #2B2B53",
"bk c #333372",
"bl c #2F2F6E",
"bm c #2B2B3F",
"bn c #2C2C36",
"bo c #424266",
"bp c #232337",
"bq c #2F2FB0",
"br c #34346C",
"bs c #525265",
"bt c #32326A",
"bu c #1B1B2F",
"bv c #3B3B55",
"bw c #303068",
"bx c #21214C",
"by c #292957",
"bz c #232351",
"c` c #26264A",
"ca c #2F2F60",
"cb c #202044",
"cc c #5D5D97",
"cd c #2B2B5C",
"ce c #363674",
"cf c #3C3C66",
"cg c #252556",
"ch c #30306E",
"ci c #3E3E54",
"cj c #414178",
"ck c #2C2C6A",
"cl c #2F2F4F",
"cm c #25252E",
"cn c #27275B",
"co c #363663",
"cp c #4C4C68",
"cq c #20204A",
"cr c #2E2E5B",
"cs c #29294C",
"ct c #242451",
"cu c #27274A",
"cv c #343464",
"cw c #4F4F64",
"cx c #252548",
"cy c #16162C",
"cz c #292938",
"d` c #333384",
"da c #3C3C6F",
"db c #353572",
"dc c #1E1E37",
"dd c #38386B",
"de c #414156",
"df c #242454",
"dg c #31316E",
"dh c #181831",
"di c #232349",
"dj c #272739",
"dk c #393979",
"dl c #4C4C85",
"dm c #2F2F83",
"dn c #28285B",
"do c #292952",
"dp c #36366C",
"dq c #48486D",
"dr c #23234C",
"ds c #37377A",
"dt c #20203F",
"du c #1E1E3D",
"dv c #26265C",
"dw c #313174",
"dx c #4C4C60",
"dy c #27273F",
"dz c #3C3C78",
"e` c #48485C",
"ea c white",
"eb c #383874",
"ec c #333379",
"ed c #444458",
"ee c #272756",
"ef c #47477C",
"eg c #32326E",
"eh c #1B1B33",
"ei c #1E1E2C",
"ej c #30306C",
"ek c #40407F",
"el c #292944",
"em c #212150",
"en c #23233E",
"eo c #141422",
"ep c #343473",
"eq c #323271",
"er c #2D2D76",
"es c #2E2E6D",
"et c #40406E",
"eu c #21213F",
"ev c #272731",
"ew c #8080BA",
"ex c #23232D",
"ey c #25255A",
"ez c #1B1B39",
"f` c #35356D",
"fa c #191937",
"fb c #262651",
"fc c #313169",
"fd c #2C2C6E",
"fe c #22224D",
"ff c #18182C",
"fg c #373786",
"fh c #2D2D65",
"fi c #232344",
"fj c #2B2B63",
"fk c #292961",
"fl c #27275F",
"fm c #202037",
"fn c #1C1C33",
"fo c #242452",
"fp c #45456F",
"fq c #484868",
"fr c #535380",
"fs c #1F1F43",
"ft c #2C2C5D",
"fu c #3535DD",
"fv c #353573",
"fw c #262657",
"fx c #393963",
"fy c #242455",
/* pixels */
"````````````````````````````````````````````````````````````````````````````````````````````````````",
"``````````````````````````````````````e`bscwbscwbsbsbsbsbsbsbscw````````````````````````````````````",
"````````````````````````````````bse`bscpbse`awawcwbsbsdqawawbsdxdxcwcw``````````````````````````````",
"````````````````````````````e`eddxfqcwcpfqfqawawdqawdqawawfqcwawawfqfqe`cw``````````````````````````",
"````````````````````````cie`e`dxfqboboawfpfpdqfpbafpawfpdqbofpabdqfqfqedcfdee```````````````````````",
"``````````````````````edede`cifqbodqabfpfpbabobaccbabafpbaddbaetfpfqabbobobodee`````````````````````",
"````````````````````deedbvbvfxfxcfetboetfpcfewetddetetdaefetbaetabetbofxabcfedcici``````````````````",
"``````````````````bdedbd`cabdefxababfxddetddcccjefbacjeaetddddcfdpdaddababb``cdeedde````````````````",
"````````````````bvbdbvfx`cb`fxcfcffxdddaddefccaaeaefewbwdldadaddcoayddcvcfb``cbvbdbvci``````````````",
"```````````````s`cbvbdb`b`b`cocvdddaddayf`braadlfrccdldzewdddaebddfcbwayfxcfb``cbd`cbd`s````````````",
"````````````bd`sclclbjb`crb`arcofr`ubtbtfcdkaaewewdlcjdabtdabtcvddebayaycadoarb``c`n`ncl`s``````````",
"``````````bdbv`c`ccub`b`b`ascrdp`fcadzaqbwfjebcjeaccewaaccdlfrdlegbw`f`lcab`crcrcrclclelbpbd````````",
"``````````bnbmcuclclcrb``pararcv`ff`fcegf`dzewcjcjeqdleabkavf`fc`mbrcaegfcaycabjararcrae`sbm````````",
"````````evaedycragcacvb`apcrasbwf``faybtavekewaddleqdkccccdkbrdzfcavapbrfhf`biascac`bjcuel`kbf``````",
"````````aeae`vcldo`acrcacr`fbtddaqapebceckbleqdzdseqaaadekdwebdkavceapbrbt`fftamcrbybjaeclbpbp``````",
"```````rfnbeakdocubzarfw`faiarbraqegejbkcheqeqekd``oefekewdzchekbkaqfhbtbkapcrcacr`j`vdocbbpfn`t````",
"``````cz`zdoakbccbbyasdr`fap`uf`fcejck`obkdl`odmfudwecdwaadzbkdzdbaz`legaqftar`fcadofbdobjafdccm````",
"``````bfehdc`aeefifbftaiambw`gavbkblck`gckd`eqecec`hfgd`addsepbkfvfkapazavf`fw`fbycrcd`a`vehbubp````",
"`````tbuehdyfbasdocaapayayebebbteq`geqchfvdwecbqdkaddsfudwdzbkckdwfjbrapf`bwf`byfwbyasdr`iezbucy`t``",
"`````yfnfieu`bdi`abydn`mfcf`f`egdbavdbec`odwcefgecdsd`dmbqepceeqf`az`wejdbbrambi`lcdft`bcbc``va`ei``",
"````a`eoenfifsaycrbyfl`mfc`uan`webceebdmer`gdwbqdsdsdmdmbqekdkeccechckfkejegfhbiftarby`a`v`vfiffbu``",
"````fmcycxdidt`iardpdnemanavflejazeqesepcefgblerfud`fgfderfgdkdsdkdzfkeqbkapapbt`lctfceuas`vcydhfn``",
"````ehdheudtagbybjcabidnapapfcebejblchcheqer`hbqbqerbqfufgecdsebcedkbkbleqf`fjambicaaycu`vcxa`du`y``",
"````fnfndhdtbgdobybifocnbwameqckdgeqeqfdesfdfgfgdwflfddmfufudwch`odschflejebdvayby`pee`vcbacfndcbu``",
"````bube`vacfe`iembyfc`f`ufc`wdveqdkeqflfddwfudm`her`hd`fgbqecd`ecbbflfkfjapdvbwdnftas`jfifieh`yeo``",
"````ffehdhdhdrcqalft`jembtai`wfkdg`obbesbldmfddm`gecfud`dmbbdw`ochbl`ufkap`weganaiar`j`j`ddu`adhff``",
"````ffdcdrdtbj`a`pfhfebibh`legfkesapaqeq`obqbqfddkfu`hd`dwfkchdw`wcheq`ufjemfyaucdby`peectduezdhbu``",
"`````tfadhag`v`iee`fcqfweefleyanaqfjazazebfg`g`qfu`hadcher`q`h`gazdwaibbap`lfw`waybxct`aagcbeueofn``",
"````eoa`ffcbfididr`eaxeybzbhcgaqepdlbkckazeqds`qfueqfdblefeqdzchdg`wfheyamey`laibyalbiagdraodheheo``",
"````at`ydhdh`dfsal`pfyalfyemeyey`waqdgazckepbkdw`qekepecfjdmejflazfj`ubw`lbiftaxee`beecbcbbcdu`ta```",
"````a`a`a`ficbalcqeeauct`fcgdffyflejapds`wefdleradewegaaegeseqbr`lfl`u`megamamctfb`vfebc`deudceoat``",
"``````eofffacb`abyftcbbybtfcanfwaidvapepap`wegazdzdlek`uerfgepdgfj`laqdncn`mbyfoct`p`vbgacezdhbu````",
"```````yffdhfsficbeealbybxbiemcncnamflch`u`uccew`udgdlf``wdldbcgflanbweefycnaxeeacezfsdyfmdh`y`t````",
"```````teoeiezajdcdc`ealeeai`jaxaiamcgavaiew`ucc`w`mandzanebflfcamfldvbiemdffw`pfeezcbdcbpeh`yeo````",
"`````````tfffffmaoakdtalamfbdremfjamaiaidffraiddegdbfhancnbrdn`mamegfwaxfocgftct`x`efeezeifn`t``````",
"````````ex`tehbeezdubydialcdaxcnbidndfbhfwbweydf`mandfcgdvananfyfofycncgcnaxfoacbg`e`pfadueiex``````",
"```````````rbufndcajacfscbbycqfofodnaifhfyai`paxcnfweyddcg`pcgfwfofedifeaxbyalfs`j`kduehfmfm````````",
"```````````yeifndhbefsao`vaxbxbxcsfebyfwbzfybidfcgbjfwaidnambibybzbx`afocdbc`vfidtezajbueha`````````",
"`````````````y`r`rezduaocxficb`jfw`abz`jct`jdnfwbzfwdnaufofofw`afo`i`ddiducb`zdudcezdu`rex``````````",
"``````````````evbudjfmajcbagbcctbcfwcgaufoct`afofb`afodf`jbzemfobx`dfe`val`xczdjbebpdccm````````````",
"````````````````evcmezfneufsaoelcqcxctfeaufecsfectbxbzfeae`b`jdrc``b`x`ecb`zbpfmfmeiev``````````````",
"``````````````````ffbubpfiafafbmbc`vag`bc`csdr`j`bct`jfefbcxcx`j`xdificxacbeenbfev`t````````````````",
"````````````````````cmczczdy`zak`kcucucudrcuaecxc`cxdrcxaeelak`vc``jajakbpafbfbf`r``````````````````",
"``````````````````````cmczbpdjdc`kcxelaoelakagbc`aaeel`bbxakakeu`zdtbm`zdjbpevbf````````````````````",
"````````````````````````cmbfeibfbmeuel`kelelafelelakaeelaf`k`k`zdjbebm`zbncmah``````````````````````",
"````````````````````````````czbnczbp`zafbmaedyafelbmdy`zdybeczdjczbf`kbpex``````````````````````````",
"`````````````````````````````````sevdjbncz`zdj`sczcz`k`k`s`sdjbfahevbn``````````````````````````````",
"``````````````````````````````````````evah`sbncz`kev`sbnczbnczah````````````````````````````````````",
"````````````````````````````````````````````````````````````````````````````````````````````````````",
"````````````````````````````````````````````````````````````````````````````````````````````````````"
};
