/* XPM */
static char *glass7[] = {
/* width height ncolors chars_per_pixel */
"36 36 90 1",
/* colors */
"  c #000000",
". c #27274E",
"X c #2F2F6D",
"o c #4A4A6D",
"O c #2E2E62",
"+ c #41416E",
"@ c #3C3C73",
"# c #2A2A5E",
"$ c #313172",
"% c #404066",
"& c #28285F",
"* c #353579",
"= c #414188",
"- c #28284B",
"; c #2E2E68",
": c #2B2B47",
"> c #2C2C3E",
", c #484860",
"< c #29295C",
"1 c #27275A",
"2 c #282851",
"3 c #3C3C54",
"4 c #333355",
"5 c #1F1F3E",
"6 c #48487A",
"7 c #2D2D66",
"8 c #11111C",
"9 c #262655",
"0 c #282843",
"q c #333372",
"w c #2F2F99",
"e c #212149",
"r c #1F1F47",
"t c #1A1A38",
"y c #34346C",
"u c #303068",
"i c #242445",
"p c #2C2C64",
"a c #2D2D5B",
"s c #292957",
"d c #272755",
"f c #26264A",
"g c #333364",
"h c #17172E",
"j c #242448",
"k c #B3B3D1",
"l c #282838",
"z c #2D2D5E",
"x c #161623",
"c c #1C1C40",
"v c #252556",
"b c #24244B",
"n c #1A1A2A",
"m c #252559",
"M c #58588B",
"N c #363663",
"B c #22224C",
"V c #2B2B62",
"C c #33336D",
"Z c #2E2E72",
"A c #242451",
"S c #333384",
"D c #242454",
"F c #2B2B68",
"G c #2D2D6D",
"H c #222244",
"J c #3636B1",
"K c #383874",
"L c #1B1B33",
"P c #2A2A66",
"I c #23233E",
"U c #1D1D38",
"Y c #292933",
"T c #3A3A68",
"R c #262651",
"E c #313169",
"W c #4F4F62",
"Q c #22224D",
"! c #28283F",
"~ c #292961",
"^ c #252532",
"/ c #2D2D51",
"( c #1F1F2C",
") c #222250",
"_ c #484868",
"` c #3D3D7B",
"' c #1F1F43",
"] c #20203A",
"[ c #353573",
"{ c None",
/* pixels */
"{{{{{{{{{{{{{{{{WWWWW{{{{{{{{{{{{{{{",
"{{{{{{{{{{{{WWW_WW_W_W,WW{{{{{{{{{{{",
"{{{{{{{{{{_Wo_o_oo_o+__o__W{{{{{{{{{",
"{{{{{{{{{,,__%+ooo++++o++_,3{{{{{{{{",
"{{{{{{{3,3%T+%+%MT%+6+++%4T333{{{{{{",
"{{{{{{333TNNTT+yM@M6+T@N@TN3333{{{{{",
"{{{{{333T3NgTgg`M6M`[yyTNgN4O433{{{{",
"{{{{{>:/aNagu7gKMM``ETENXaOaN4/:{{{{",
"{{{{>f//OdaEOEOX6TMMC`y7y;OOaaO0>{{{",
"{{{Y:/jg4zau7Eu`kMXKM[@EyEE7sa20/^{{",
"{{{>I/bazOyO7[$Z[M[k6$MqqyEOu/f:-I{{",
"{{n:5'BaQ7uy;F*M*S$*kK*`pX7gEaj/:U^{",
"{{^hjs2dsuFC$X~SXSSS=[$[V7EOgdd.5L!{",
"{{x]R2azpy[X7[[$*S=J*`*$VXKus~gH.Lh{",
"{{L0.OO<VupC[[J&Z`*PJ=[[F&u;1Eabfjh{",
"{xhjH2sV)7&XXXqSGGwSZ*[[[Fq7;&g52hLn",
"{8]5.2s<~7E$X$XGJJPwSJqK[FX7EDb-'Lhx",
"{x5HH2)EzE;~*XPXSSZJ*SwS~~7puDOBHhx8",
"{8(t'edz)7XFC~`SGPwZX~$F;;;7zOsQc']8",
"{8htj.zczD1pFP*SXZJ=SSX77VVV~sA2.Ux8",
"{{x5jHBemDv7KqFXSM`SSXF$;1<7v#AH5Lh{",
"{{xhtBABQzD&77X[M=SMGK~V7V;Av9scth8{",
"{{8h'.sbsy&<AX[V```$`S$Vp<&&AbcceLx{",
"{{8hLttcaee)v&C`VKk=7;m1&<D<#e5IUhx{",
"{{{nhI5'rdb17<VT<&``<V~E7QA<de'ULh{{",
"{{{n(thjes)v&A<&vvp<1<v9Av<)ccHLL({{",
"{{{{(t5c5eA.QOvvAv/<&v1bBDsejIItL{{{",
"{{{{{(LcIj'ABAAQ1Av1A12v.jcH]UI^{{{{",
"{{{{{^]]55HHQv1A.A.RRAQQAjH!lIU({{{{",
"{{{{{{lUIiH!BQbbQADdbff-bj'U^l({{{{{",
"{{{{{{{^YU!!i:ff:efe:f0fHH]!^^{{{{{{",
"{{{{{{{{{l]II>j!Hb0:e:500l>^{{{{{{{{",
"{{{{{{{{{{>IlI:!!i:00I0^llY{{{{{{{{{",
"{{{{{{{{{{{{Y>lll>Y!l>^YY{{{{{{{{{{{",
"{{{{{{{{{{{{{{{{^Y^>Y{{{{{{{{{{{{{{{",
"{{{{{{{{{{{{{{{{{{{{{{{{{{{{{{{{{{{{"
};
