/* XPM */
static char *glass11[] = {
/* width height ncolors chars_per_pixel */
"72 72 189 2",
/* colors */
"`` c None",
"`a c #27274E",
"`b c #25254C",
"`c c #383858",
"`d c #23234A",
"`e c #212148",
"`f c #2E2E62",
"`g c #292967",
"`h c #3535A1",
"`i c #272751",
"`j c #23234D",
"`k c #29293F",
"`l c #2C2C63",
"`m c #2A2A61",
"`n c #33334C",
"`o c #353579",
"`p c #272754",
"`q c #414188",
"`r c #20202C",
"`s c #2E2E3D",
"`t c #1C1C28",
"`u c #2E2E68",
"`v c #242447",
"`w c #2C2C66",
"`x c #222245",
"`y c #181824",
"`z c #25253E",
"a` c #161622",
"aa c #B9B9ED",
"ab c #3E3E67",
"ac c #1C1C3F",
"ad c #6767A3",
"ae c #2B2B47",
"af c #272743",
"ag c #222248",
"ah c #292931",
"ai c #29295C",
"aj c #1D1D39",
"ak c #252544",
"al c #1E1E47",
"am c #2B2B61",
"an c #29295F",
"ao c #1F1F3E",
"ap c #2F2F68",
"aq c #2D2D66",
"ar c #30305F",
"as c #2C2C5B",
"at c #11111C",
"au c #262655",
"av c #31316D",
"aw c #4C4C6D",
"ax c #222251",
"ay c #323264",
"az c #2D2D69",
"b` c #33335B",
"ba c #43436E",
"bb c #2B2B67",
"bc c #212146",
"bd c #37374B",
"be c #22223D",
"bf c #252536",
"bg c #1D1D42",
"bh c #2A2A5C",
"bi c #28285A",
"bj c #2B2B53",
"bk c #333372",
"bl c #2F2F6E",
"bm c #2B2B3F",
"bn c #2C2C36",
"bo c #424266",
"bp c #232337",
"bq c #2F2FB0",
"br c #34346C",
"bs c #525265",
"bt c #32326A",
"bu c #1B1B2F",
"bv c #3B3B55",
"bw c #303068",
"bx c #21214C",
"by c #2C2C64",
"bz c #292957",
"c` c #232351",
"ca c #26264A",
"cb c #2F2F60",
"cc c #202044",
"cd c #5D5D97",
"ce c #2B2B5C",
"cf c #363674",
"cg c #3C3C66",
"ch c #252556",
"ci c #30306E",
"cj c #3E3E54",
"ck c #414178",
"cl c #2C2C6A",
"cm c #2F2F4F",
"cn c #25252E",
"co c #27275B",
"cp c #363663",
"cq c #4C4C68",
"cr c #20204A",
"cs c #2E2E5B",
"ct c #29294C",
"cu c #242451",
"cv c #27274A",
"cw c #343464",
"cx c #4F4F64",
"cy c #252548",
"cz c #16162C",
"d` c #292938",
"da c #333384",
"db c #3C3C6F",
"dc c #353572",
"dd c #1E1E37",
"de c #38386B",
"df c #414156",
"dg c #242454",
"dh c #31316E",
"di c #181831",
"dj c #232349",
"dk c #272739",
"dl c #393979",
"dm c #4C4C85",
"dn c #2F2F83",
"do c #28285B",
"dp c #292952",
"dq c #36366C",
"dr c #48486D",
"ds c #23234C",
"dt c #37377A",
"du c #20203F",
"dv c #1E1E3D",
"dw c #26265C",
"dx c #313174",
"dy c #4C4C60",
"dz c #27273F",
"e` c #3C3C78",
"ea c #48485C",
"eb c white",
"ec c #383874",
"ed c #333379",
"ee c #444458",
"ef c #272756",
"eg c #47477C",
"eh c #32326E",
"ei c #1B1B33",
"ej c #1E1E2C",
"ek c #30306C",
"el c #40407F",
"em c #292944",
"en c #212150",
"eo c #23233E",
"ep c #141422",
"eq c #343473",
"er c #323271",
"es c #2D2D76",
"et c #2E2E6D",
"eu c #40406E",
"ev c #21213F",
"ew c #272731",
"ex c #8080BA",
"ey c #23232D",
"ez c #25255A",
"f` c #1B1B39",
"fa c #35356D",
"fb c #191937",
"fc c #262651",
"fd c #313169",
"fe c #2C2C6E",
"ff c #22224D",
"fg c #18182C",
"fh c #373786",
"fi c #2D2D65",
"fj c #232344",
"fk c #2B2B63",
"fl c #292961",
"fm c #27275F",
"fn c #202037",
"fo c #1C1C33",
"fp c #242452",
"fq c #45456F",
"fr c #484868",
"fs c #535380",
"ft c #1F1F43",
"fu c #2C2C5D",
"fv c #3535DD",
"fw c #353573",
"fx c #262657",
"fy c #393963",
"fz c #242455",
/* pixels */
"````````````````````````````````````````````````````````````````````````````````````````````````````````````````````````````````````````````````",
"``````````````````````````````````````````````````````````````bsbsbsbsbsbsdydybsbsea````````````````````````````````````````````````````````````",
"``````````````````````````````````````````````````````eabsbsdybsbsbsbsbsbscqcxbsbsbsbsbscxdy````````````````````````````````````````````````````",
"````````````````````````````````````````````````dydybsbsdycqcqdycxbsbsfrcqcxdyfrcqcxcxbseacxcxbsbs``````````````````````````````````````````````",
"````````````````````````````````````````````eaeaeafrcqawawawdrdrawcxawawcqcqawawawawawbscqfrfrdycxcxea``````````````````````````````````````````",
"````````````````````````````````````````frdfcxcqawcqcqawawfrcqdrawfrawawcqawawawfqawcqawcqdrawdrfrdycqdycx``````````````````````````````````````",
"````````````````````````````````````eeeaeaeadycqdffrboboawfqfqfqdrdrfqbabadrdrdrdrbobodrdrbaawdrdyfreaeaboeeee``````````````````````````````````",
"``````````````````````````````````eeeefreeeefrbofrfrbofrfqeudrbadrfqdrfqeubabababababafqdreufqfrbafrfreeeeeacjdf````````````````````````````````",
"``````````````````````````````eecjboeebocjboboababboabdrfsfqfqbabobobafqfqawdrfqawbaeueudrdebafrbocgbobobobodfdfcjbd````````````````````````````",
"````````````````````````````dfeeeedfcjbvab`ccgfyeuabboabbabaabdbadeucgdeabbabadbegfqfqfqbaeueueubobob`bocgcgdfeacjcjcj``````````````````````````",
"``````````````````````````cjbddfcjbv`ccgdffycgfqbofyfyabdbeuabfqexbaeueudefqexadckdbbadedebaabdedeeufyboabcpfycjdfdfeecj````````````````````````",
"````````````````````````cjcjdfdfbvb`cg`cfyfyfyfycgabcgdeeudbbregexdbdbadcddmegexeucgdedbdbayfydbdbabcgfycpb`bv`cbvcjdfbdcj``````````````````````",
"``````````````````````bdbdcjbvbvfy`c`cb`cpcgfyfyfycpdededbdeegexdmaaebexckaadm`ucddbdedbdbcwcpcpfddedeb`fyb`bvfycjcmbdcj`s`s````````````````````",
"````````````````````bd`nbvbvbv`ccg`c`ccscpcwcwcgdebrcwbraydqckdbcdegegcdcdade`btdcadbrdqfabrdebrcpbwaycpfyfyb``car`n`nbdcjbnbd``````````````````",
"```````````````````n`s`n`ncj`nb`b`b`b`b`b`arcpdqfabrbrcwaybtbrexadcddbadaae`dedeexaddbdqdebrdedbdededeayb`b`cpb`b`fy`n`c`ncmbdbd````````````````",
"```````````````````n`sbdaecmcmcscscscpcscscpcwfsbwfiaqfdaybtecadexaafsexe`exckdbbtecdedqfdaycpbrekcbcsaycb`icsaycpb`b``ncm`naebd````````````````",
"`````````````````scj`c`ccmctbjcsb`cparasascsdqayaybwecbwbrbrbbe`dee`ebadegcdexadegdbcdade`ecbrbwfk`ffuarcwarcscscscpcscmcmct`nd`bd``````````````",
"```````````````s`saecv`nbjaecmasarar`parcsayfdcb`fbrbtaq`fbtciecdmdbdeebcdebcdebehece`egfabtaqecbrcbazap`fayarcsas`casbjarcmem`n`sbn````````````",
"``````````````ew`s`zcv`nevcmbjcscsbzcscwaydedqbwavfafdfadcdcckadebcke`aaehdhadebe`dcehdcbtbran`fbr`fbrfibtayaybzbjarcsb`bjbjafbm`sae````````````",
"````````````bnaeae`kcmagdjfuaycsb``ffucscsbtbwdcaqfifdfabwave`exaaadcdcddh`oecadcddmfwapdbe`fdaqbrapbtbtfdecaqbhbzarcs`adpcmaf`zcmcncn``````````",
"````````````dz`n`kctcmct`idparcwaybw`farfubrdqbr`ffdfafaecekerdcfeazeleqavdmexaddmelcibkegbrbtbkfa`uehbwfifiambzfxcscs`abjbjakctcmcm`z``````````",
"``````````ey`saf`zafbjcv`befascsfuar`ffdbrde`faq`wdcdcbkerclesdlcfdmcdblfwcdebaddmdldxercdecbkavbkapbrbtfdbt`fcbbwcbbjbzcactaebectfn`zey````````",
"``````````a`bf`zcacvdpcv`icucscsbi`fefbhar`fbr`uekbrekcierdxdxdlcieleqes`odmelelexdmcfere`eldcetaqfibwfadcapcbcscsbtcsfcccakdp`vcv`zfncn````````",
"`````````tbpaecvao`vcccydsbzcsbzffaifiekbwbtbrap`uekbber`odladdteddndnbqdxeqedeqebeleceqdtelelerbyfkavdcfiancwarbtfdcsbjdjfcbjctaebpddbpbf``````",
"````````bf`rfodpevcv`vfjcybz`idpefbhayapetblapfdciblcleqeteqeldldxdxdadadaesdadtadcdcfereqdldcekapap`wflbwayamcbbhcbasasdp`pbjakcvfjfo`y`y``````",
"````````ewdddidvdj`abzagdpcu`p`lbzambwfdbbclehdcerfeetetflfedaedbldxdadndaeddada`qdmcfeqdxdheqblfkap`waqfddq`fdgaycs`pcsefef`afjeveieifo`k``````",
"```````ybfevei`zft`afubzcsas`fam`fbwfaecdcdcdccfetbbblcieretedesed`h`heldm`qdafvdndleceqercledetaqbrapbkfaayfabwbz`fbiascs`p`j`vftf`a`epbu`t````",
"```````y`ybufnaefc`bdpcucs`pfubw`lbwbrdqdcehavfw`wcfcfereqfwercidt`hdae``qdtbqbqeddle`cfdtdxercifk`uavavecbwbw`fbz`m`mefay`jbc`d`aaobua`fg`t````",
"``````epbuddcvfjefca`bdsbzbzbhezbyaqaqbrdqehecdcfddccfeqdaedblazdtfhfhdxdtdnfednfvfvcfdtererdcehfl`wfkbkfafaap`fcefifiasasfudjbc`bcadudda``t````",
"``````a`foeoemak`adparcsarefaidwamapbwapbyazeheccfeccfdxbqesfmblesbqeldtdtbq`g`hfvbq`q`qeqerfweqclbbfmdhbwfa`ufubifxbtarcscb`b`bcv`v`vfgfgbu````",
"````atejfgfgcy`v`bbcfuasef`ffiezchco`uazezezap`uekdlererereqeddadnfvfved`ofvesesbqfvdle`dleddtdlclfmfkerbr`mapfibtbi`lbzfufuccfccvccdvfg`yfoat``",
"`````yfodiaj`v`v`x`bdpcsbzdeamamaxfkaqehfm`wav`ueteretbkbkcffhdxfednfefv`hbqdadxesfedtfwcfdtfwe`dcflcldlbkfdfibtap`fanfpayasao`idpagczfneifg`t``",
"````atfgfofgagccao`abjasbzcbfufxbibtbwfdapecdlavekerblbkeqeqdaesfedafvdndn`hfvfv`hdxeddtdtcffwdlecdhcleqehbkaqaqfkfkco`f`fayafctdjcadiajdv`yfo``",
"````atejbpczaocc`aaldpbzbzfudoen`mbtfiambtbtereretererbletetfeesbq`hfv`g`gdn`hdafhdabqfvbkbkdldlfwerclfkekecaqaqfdfidgef`b`pctccftakfoajfgbua```",
"````ata`befofoft`daldp`p`laubzambi`lby`lehfm`gavciererclfe`g`gfhdtdxed`g`gesfmdnfvfvdndnetdxedblblazfmfmapec`mfzcbarc`bzbxfcaoccftf`fgbcepfgbu``",
"`````y`yevbefjdv`xfpdp`jenbifd`lfufkfdbtazdw`merdtdtci`g`gfebledfhesdnfeesdafvededfvdaed`hdadaclflfmflezfibtbycobwfudgfuarfuds`v`xaodidia`atat``",
"````atfgaobudif`acfp`ebxacfu`fc`fxfdfdan`mdw`gaz`ocfekcletesdndxfecletesdn`h`hfvfhedclfheqfherek`gbyazfm`uaz`ubtamanfucbceaufcccccducaevfoatat``",
"````atfoejfof`fbcc`jcrbheffufualaxamfiancifkbbciehekflcleleqdadxfedn`gbq`hfvesdnblfmflbberedcletazeqazehapfm`w`lfubzcbcsbzcr`jdpacf`ftdvfn`yat``",
"````atfgbufodjfjdudp`afpfu`l`jfcbiefdoapavfkfketazbyazbldxdt`hes`hesdxdx`h`hesdndaet`gazeler`wazdhdhcidhanbxezfzchbibh`p`pfceffffcf`czfodd`yat``",
"````atatczdif``b`v`v`afffu`facfcfubidgfmcoez`lapbbap`gbbedecfhedetdaesesfv`h`qcifhfhdadletfl`wekfianfkcifk`lfkchfl`lbzcrcufc`ift`aaodddda`buat``",
"````at`tdif`dvagcycc`iff`pefcraxfz`fbianezfkap`uehfw`ufl`gcieqcderfh`hdnedeqdcfedmazdldxdl`gazaq`lfmfmdwfi`l`lan`wfdfucrc`fp`b`d`daoddbufnatat``",
"``````fga`f`dvdvcycc`xffdsdscrchezcrfzeffxezfieqecdlbkfebbcidh`qfhfhad`qelfedndadnfkblcfclcierazapaqdwaibhchaqanfxcecealfpef`x`bdvf`eiczfg`y````",
"``````at`yeiczeiajftftac`j`pfpaxalaxefbxfzch`maqfkbkerazclblbkdmdtdaaaedexfvaddafe`udmblflfkazbbazaqfiaqanbiamanaxfpbzds`pfcbcccdvftaoei`yep````",
"``````a`a`didif`f`acbxalfp`pbxax`jcefufzfzfmfmbbfifkfibkdhaveqelexfv`qcddndmcdadfeekdl`hflanfkfm`wfdfkapapbhcuefchcuau`bbz`jacccf``vdidvat`y````",
"``````a`epfoczdv`baoacefbxbzcscr`pfi`fcochchezez`mavekdcecfmfmdmfa`wdlapexcdcddmaabbazes`wfd`lan`maqaibwehapcofiauauau`befalbcdp`ddvfodieiat````",
"````````ata`difbftao`a`bbzfu`bagbzfdbrfiandoaiaifp`wekeqfw`wfkeke`apckaqelecerfkckcdfherer`ufk`wbyaqaidoanamanbzcufx`b`pbgbcbgccagdieiczep``````",
"````````at`yfgf`difbctagbzascrbcefaubififx`lananezdo`mcidhapav`uelcddcecape`dcflfaekbkeqekdwcofkfiapaidgefchbic`ffalftaldvf`bpf`fbdidia`a```````",
"````````at`yczddeiaof`dvfb`jbgccasc`crbhcrfpenchchcoanekeh`we``wfkelececaaek`qcdaqfk`ufiezdgdwfman`lbhenfzfzaifpcealcraoaodueobeajdifg`ya```````",
"``````````a`bueibueiajajddddbcbgalbzfcbh`j`pfpdoaichchavapdodmbtbyad`mfkbydweccfckaielfmbybt`l`mcodwanaxaxenbifxbzdsbxf`ftacfndkajfofgfg````````",
"``````````a``teifgbubeftdvafccbgalamef`j`dbxcofkaqcodo`famdgdeanaidqanape``me`fiaianfk`m`mbwfdapaqfzffenfpc`bhfu`pftagagft`jddddfofofga`````````",
"````````````fg`tbueibpf`dvevfbevbgfpfpcrenbxaxamfiananfkbiaxfpezezfxfkecbwbifzch`mezfiamdocochfi`lcobibibzfpfpbzcufjevccac`efgbubu`tej``````````",
"`````````````tbu`rejf`aodidvdjfcagacbzbhaxdochfxanfzfpbiaichanbychchchbt`lfzbhezcofxaiaichchaufzc`fxch`jdoffenefbgalbgbcbccceiddfo`y`r``````````",
"```````````````rejeifodvdvajacbcccccdgbibxfpdgaufuezfz`manfzanfxaufp`fcodocoezchchenauchfxchefff`jagffbxenbzbi`dftbc`edz`df`buddbudd````````````",
"```````````````y`rbuf`diaoajacbgevevcrfpfpfp`afffffc`faqfxchchfzc`dgfxdgbjfxaiaiancofxfpcodg`bffds`adgbxbzbz`e`v`vftbeev`zajf`ddei`t````````````",
"`````````````````yfoeyfbaj`zajbgevakalbxcccu`e`b`bc`efbic`axaxchfxfpezchbjfcdodochfx`fanbzcuaufxcv`bfp`pef`e`eeoeoaof`f`ajdv`rfn`r``````````````",
"``````````````````cn`rejeidvacdveoak`vccccfffpbibx`ac``jcucu`jfxbifxfpfxfxfxcodgc`aybiai`i`jch`j`a`edjagacbc`x`zfnddajf`eodvey`t````````````````",
"``````````````````eybfej`rejfoaoevcccc`v`xbcc`c`fffpbicubxcucuffc`cu`pfcfpdgbhdoaucu`jcuffbxbx`bcr`efjagbcfjeodkeodkevddfobpcney````````````````",
"````````````````````eyejbpejbpdddvaoaodjbcagbcft`jefchfxbiauc``a`ac`c`fc`afcfccufcenfp`jfffp`jdsfpftcycrbcccdz`zdkbebebfddbf`r``````````````````",
"``````````````````````cnbpeyfofofodudd`eacdjafcr`d`dcufpffef`jca`bff`jfcbxcuc`dsaecv`d`jds`dcy`vag`xagbcfteo`zbpfnbpbfej`r`r````````````````````",
"````````````````````````d`bpddbfbebgak`zfj`z`kdsdsbxffff`bdj`b`b`jcucucudgcueffp`b`bcacacvcvctct`dagcyfjccevddeoeybpd`ej`r``````````````````````",
"``````````````````````````eyddbp`r`k`z`zdzem`kfjfj`b`d`vdjcyctctcactctcv`dcr`bcvctaeaecv`b`jfjdsccakcveoakbedz`zd`ahewah````````````````````````",
"````````````````````````````ewcnbnbndd`kdzfjdzemakemae`zcv`dcaaeaecy`e`acadsag`vaeaecvakaffjcacrbcajfj`zbp`z`kfnewewcn``````````````````````````",
"```````````````````````````````rewbfbp`z`zbedzafcyakembeafctcaak`d`v`acvaeae`dff`dag`baeakfj`zcy`zbm`z`z`k`zbfd`ahcn````````````````````````````",
"```````````````````````````````````sd`eyfnbmeobm`zdz`saf`v`k`kcvbcag`bcvemaeaecvagcyaecvevafaf`zem`zd`dkbmd`bfbf````````````````````````````````",
"````````````````````````````````````ahewfoewbf`k`z`zdz`zafemememcvaf`kdz`vafaeafakemembmbpafdkdkbp`k`zbp`seyah``````````````````````````````````",
"`````````````````````````````````````````sah`zewdk`z`zdzaeaf`kemdzakakaeae`kemakemeo`z`kemdkbfbpdk`kd`d`bn``````````````````````````````````````",
"````````````````````````````````````````````ahbnbf`zd`d``sbm`kdz`sdkdk`sae`k`zbmd``k`sbmdz`kbnah`s`sbn``````````````````````````````````````````",
"````````````````````````````````````````````````bncnbmbnd`dkdkdkdkbm`sbnbnbndzd`d``sbm`sbfd`bnewah``````````````````````````````````````````````",
"``````````````````````````````````````````````````````cnd``s`s`sahd`dkbmbnbn`sbnd`bnbn`newah````````````````````````````````````````````````````",
"``````````````````````````````````````````````````````````````ahcn`sbnahewbn`sewahbn````````````````````````````````````````````````````````````",
"````````````````````````````````````````````````````````````````````````````````````````````````````````````````````````````````````````````````",
"````````````````````````````````````````````````````````````````````````````````````````````````````````````````````````````````````````````````"
};
