/* XPM */
static char *glass8[] = {
/* width height ncolors chars_per_pixel */
"44 44 89 1",
/* colors */
"  c #000000",
". c #25254C",
"X c #323266",
"o c #212148",
"O c #2E2E62",
"+ c #3A3A71",
"@ c #23234D",
"# c #242444",
"$ c #2C2C63",
"% c #2A2A61",
"& c #404066",
"* c #212137",
"= c #26265D",
"- c #1B1B31",
"; c #1E1E2A",
": c #242447",
"> c #181824",
", c #191932",
"< c #252558",
"1 c #404083",
"2 c #464675",
"3 c #363679",
"4 c #1F1F3E",
"5 c #343463",
"6 c #2F2F68",
"7 c #45456D",
"8 c #2D2D66",
"9 c #30305F",
"0 c #3535B0",
"q c #31316D",
"w c #4C4C6D",
"e c #2A2A45",
"r c #2C2C72",
"t c #222251",
"y c #22223D",
"u c #28285A",
"i c #212132",
"p c #333372",
"a c #2F2F99",
"s c #1A1A38",
"d c #21214C",
"f c #292957",
"g c #2D2D5E",
"h c #343472",
"j c #2A2A68",
"k c #27275B",
"l c #35356C",
"z c #2E2E5B",
"x c #323276",
"c c #262653",
"v c #242451",
"b c #31316B",
"n c #4F4F64",
"m c #292938",
"M c #13131F",
"N c #242454",
"B c #1F1F45",
"V c #22223E",
"C c #4C4C85",
"Z c #2A2A5D",
"A c #A9A9BF",
"S c #21214A",
"D c #38385D",
"F c #292941",
"G c #17172C",
"H c #272756",
"J c #2A2A4F",
"K c #212150",
"L c #242449",
"P c #2A2A3B",
"I c #353553",
"U c #2A2A52",
"Y c #3E3E55",
"T c #2E2E6D",
"R c #40406E",
"E c #292933",
"W c #464660",
"Q c #1D1D3B",
"! c #3A3A68",
"~ c #313169",
"^ c #2D2D65",
"/ c #3D3D78",
"( c #2B2B63",
") c #27274B",
"_ c #2D2D68",
"` c #212145",
"' c #1D1D41",
"] c #353573",
"[ c None",
/* pixels */
"[[[[[[[[[[[[[[[[[[[[[[n[[[[[[[[[[[[[[[[[[[[[",
"[[[[[[[[[[[[[[[[nnWnwnnnwnnnn[[[[[[[[[[[[[[[",
"[[[[[[[[[[[[[[Wnwww7nwwwwww77nw[[[[[[[[[[[[[",
"[[[[[[[[[[[[Wn7n777ww77ww777wwWWW[[[[[[[[[[[",
"[[[[[[[[[[WW&7&w&77777R7777777&&&YW[[[[[[[[[",
"[[[[[[[[[YWY!Y!7&RRRR&&7!72R&R!&!YWY[[[[[[[[",
"[[[[[[[[Y&I!Y!&!!!+2C7R2AR+l!+!&!YYYY[[[[[[[",
"[[[[[[[IYY!!9!!!!+/AAA/C8+++XX!X5Y&DYI[[[[[[",
"[[[[[[PDY99999!!!X]AC/C++AlllblX959DDJI[[[[[",
"[[[[[IIIJz95z52^65lCCAqC+lClX8999zzDJ9eP[[[[",
"[[[[[eFJezgc9X9b~$q+/2CCA+1l6lO669f9zzFF[[[[",
"[[[[Ee)#fz995b]6+O]ACC6hCCq+qO6b+6U9UJ4)I[[[",
"[[[[IFJUU9z9O+~^]3qhj3qAA1T26p6b6ggzUJV)F[[[",
"[[[>JLU)H9%Hz66qqpx31x]CCCp1+88lq9f9c:U:e;[[",
"[[[*4y#BfzK66l~T_313x0xx3Cp33T$q%96OUH)UV*[[",
"[[>-Q.fV@^Zlqq]_T%xxxx333Cppp_q6669f9ZU#,-;[",
"[[M-ecUfz^Ol]qp_hppp33C1033xx(~6]~c%cfoc-M>[",
"[[>*:.fUH=$6bq]+]aTp01xr003q]q%ql^9^zHB:`Q*[",
"[[*GV:gf6=k6=%6]Tp31a0xxx0333]=p666ZHX')GG-[",
"[[>G'4UUX<k66pqqTp3xTa010T3]h+8h6^6%ZlVL`4-[",
"[[MGs.ffZt$868qqTT_113=0303q33q%]8$OHH:B#V>[",
"[M>*oBfKZ^Z~q<q3TjTxx0r0x0rx3j==b$%ggz`B,,MM",
"[[GG4L'oOBk6(=q3jqxrxj30xjTpTTq_(6Ou9@)'sV>[",
"[[>-):.c%cZ<^=T__x1aTx10xpjT8qqq<kNZ@HHcG->[",
"[[M4##)vfK%u<$8q8jp1xxrqx_xp_8==O$=XKH.c-,>[",
"[[>-V`B@cNtH@<q]pTq11CC33=Tqqq8Ou^NfBu44,G-[",
"[[MG-4'BctH%tkq6]]8/x1x1/q1=%%68^vucLc's'4M[",
"[[>>so.Uz`glZu==q]%q]C3q%ATq($^Z^%cHco'`-G>[",
"[[[M,s4`H'HKt=kO%+q^x6qA(j8==%6vu<@''Bys,>[[",
"[[[>G-s**`@ccNu%k~<6+(68qZ=b^%=tKufosB*Q;>[[",
"[[[[>-i'VVKv@d%%%uv=<6qZkk%Zub<<N<H#Bv-*G[[[",
"[[[[;;,44fBfv%H<v(<(HOO!<<<NuttdvH@o'c;;;[[[",
"[[[[[;ssQBVSvK@@Xk<NNNUk%kvu.K)@ZoL`yys,[[[[",
"[[[[[;;s44V`4oZ.vKvk<utHtN^vH.d@'oy*44*E[[[[",
"[[[[[[i;*44BL@SckK@@vccu<@t@K.d:ByVV**i[[[[[",
"[[[[[[[E**s*':SLv@v)@vLt))L@LL`LBVVy;i[[[[[[",
"[[[[[[[[G*V4eF#:o)).@)t@@)).`o#`44*i;[[[[[[[",
"[[[[[[[[[Em*e#e:e)LeeS)@#e#F:@4V*mi;[[[[[[[[",
"[[[[[[[[[[mm*FmVF:F.o)ee):e4FVFEF*i[[[[[[[[[",
"[[[[[[[[[[[[*mmFFFFe:e:F##eFFymmi[[[[[[[[[[[",
"[[[[[[[[[[[[[[EmmmFVPmPVmFPFmmP[[[[[[[[[[[[[",
"[[[[[[[[[[[[[[[[mmPmmmPFmEPPE[[[[[[[[[[[[[[[",
"[[[[[[[[[[[[[[[[[[[[[[i[[[[[[[[[[[[[[[[[[[[[",
"[[[[[[[[[[[[[[[[[[[[[[[[[[[[[[[[[[[[[[[[[[[["
};
