/* XPM */
static char *glass10[] = {
/* width height ncolors chars_per_pixel */
"60 60 189 2",
/* colors */
"`` c None",
"`a c #27274E",
"`b c #25254C",
"`c c #383858",
"`d c #23234A",
"`e c #212148",
"`f c #2E2E62",
"`g c #292967",
"`h c #3535A1",
"`i c #272751",
"`j c #23234D",
"`k c #29293F",
"`l c #2C2C63",
"`m c #2A2A61",
"`n c #33334C",
"`o c #353579",
"`p c #272754",
"`q c #414188",
"`r c #20202C",
"`s c #2E2E3D",
"`t c #1C1C28",
"`u c #2E2E68",
"`v c #242447",
"`w c #2C2C66",
"`x c #222245",
"`y c #181824",
"`z c #25253E",
"a` c #161622",
"aa c #B9B9ED",
"ab c #3E3E67",
"ac c #1C1C3F",
"ad c #6767A3",
"ae c #2B2B47",
"af c #272743",
"ag c #222248",
"ah c #292931",
"ai c #29295C",
"aj c #1D1D39",
"ak c #252544",
"al c #1E1E47",
"am c #2B2B61",
"an c #29295F",
"ao c #1F1F3E",
"ap c #2F2F68",
"aq c #2D2D66",
"ar c #30305F",
"as c #2C2C5B",
"at c #11111C",
"au c #262655",
"av c #31316D",
"aw c #4C4C6D",
"ax c #222251",
"ay c #323264",
"az c #2D2D69",
"b` c #33335B",
"ba c #43436E",
"bb c #2B2B67",
"bc c #212146",
"bd c #37374B",
"be c #22223D",
"bf c #252536",
"bg c #1D1D42",
"bh c #2A2A5C",
"bi c #28285A",
"bj c #2B2B53",
"bk c #333372",
"bl c #2F2F6E",
"bm c #2B2B3F",
"bn c #2C2C36",
"bo c #424266",
"bp c #232337",
"bq c #2F2FB0",
"br c #34346C",
"bs c #525265",
"bt c #32326A",
"bu c #1B1B2F",
"bv c #3B3B55",
"bw c #303068",
"bx c #21214C",
"by c #2C2C64",
"bz c #292957",
"c` c #232351",
"ca c #26264A",
"cb c #2F2F60",
"cc c #202044",
"cd c #5D5D97",
"ce c #2B2B5C",
"cf c #363674",
"cg c #3C3C66",
"ch c #252556",
"ci c #30306E",
"cj c #3E3E54",
"ck c #414178",
"cl c #2C2C6A",
"cm c #2F2F4F",
"cn c #25252E",
"co c #27275B",
"cp c #363663",
"cq c #4C4C68",
"cr c #20204A",
"cs c #2E2E5B",
"ct c #29294C",
"cu c #242451",
"cv c #27274A",
"cw c #343464",
"cx c #4F4F64",
"cy c #252548",
"cz c #16162C",
"d` c #292938",
"da c #333384",
"db c #3C3C6F",
"dc c #353572",
"dd c #1E1E37",
"de c #38386B",
"df c #414156",
"dg c #242454",
"dh c #31316E",
"di c #181831",
"dj c #232349",
"dk c #272739",
"dl c #393979",
"dm c #4C4C85",
"dn c #2F2F83",
"do c #28285B",
"dp c #292952",
"dq c #36366C",
"dr c #48486D",
"ds c #23234C",
"dt c #37377A",
"du c #20203F",
"dv c #1E1E3D",
"dw c #26265C",
"dx c #313174",
"dy c #4C4C60",
"dz c #27273F",
"e` c #3C3C78",
"ea c #48485C",
"eb c white",
"ec c #383874",
"ed c #333379",
"ee c #444458",
"ef c #272756",
"eg c #47477C",
"eh c #32326E",
"ei c #1B1B33",
"ej c #1E1E2C",
"ek c #30306C",
"el c #40407F",
"em c #292944",
"en c #212150",
"eo c #23233E",
"ep c #141422",
"eq c #343473",
"er c #323271",
"es c #2D2D76",
"et c #2E2E6D",
"eu c #40406E",
"ev c #21213F",
"ew c #272731",
"ex c #8080BA",
"ey c #23232D",
"ez c #25255A",
"f` c #1B1B39",
"fa c #35356D",
"fb c #191937",
"fc c #262651",
"fd c #313169",
"fe c #2C2C6E",
"ff c #22224D",
"fg c #18182C",
"fh c #373786",
"fi c #2D2D65",
"fj c #232344",
"fk c #2B2B63",
"fl c #292961",
"fm c #27275F",
"fn c #202037",
"fo c #1C1C33",
"fp c #242452",
"fq c #45456F",
"fr c #484868",
"fs c #535380",
"ft c #1F1F43",
"fu c #2C2C5D",
"fv c #3535DD",
"fw c #353573",
"fx c #262657",
"fy c #393963",
"fz c #242455",
/* pixels */
"````````````````````````````````````````````````````````````````````````````````````````````````````````````````````````",
"````````````````````````````````````````````````bsbsbsbsbsbsbsbsbsbsbscxbs``````````````````````````````````````````````",
"``````````````````````````````````````````dycxdydycxawawawbsbsbsawcxcxcqdycxcxbs````````````````````````````````````````",
"````````````````````````````````````dyeacxfrawcqawfrawcqcxawcqawawawawawawfrfrcxcqeabs``````````````````````````````````",
"````````````````````````````````dfeadydyawcqawawfrcqawawdrawcqawawfqawcqcqfrawawfrdyeaeadf``````````````````````````````",
"``````````````````````````````eadyeadyfreedrboawfqfqfqdrfqeufqawbaawbabofqeufqdrcqfreeboeadf````````````````````````````",
"``````````````````````````dydffrbocjfrfrdrfrfrfqfqbabofrfqfsbaeubafqfqcgeubafqdrbaabbobobocjeedf````````````````````````",
"````````````````````````dfeeeadffyboeecgeufrfreufqeueueucgbaeubadrdbbacdbaeucgbabocpboboabboeaeebd``````````````````````",
"``````````````````````bdbdcjbd`cfyeefybaabcgfyeubaabdmfseudbdefsaackdbeudebaeudedebocgbofyfycjcjeecj````````````````````",
"````````````````````cjdfabbvb`cg`cfyfyfycgabcgdeckbrfscddecdcddmdmfsabdeeucwcpdbdbcgcgcp`cbvbvcjbvbdcj``````````````````",
"``````````````````bdbddfbv`ccgfyb`cgcgcpfycwdedbdbcdadcdexexckcd`u`uegdedbdbaycpaydecpcpb`bvfybvbdcj`s`s````````````````",
"````````````````dfbdcjbvbd`c`c`cb`cpcwcgdededqayfabrcdexdbcdcdcddeexebbrdbecdedqcwfdaycpcgarb`b`bd`cbd`sbd``````````````",
"```````````````sbdbd`n`ncmcscsarcscwcpdbbtbwbwbtbrfaebexegexaddbdeeceldqbrbrdqbtbkaybt`fbjcscpb`b``ncmctbdbd````````````",
"``````````````aebd`c`ncmcsb`cwayascsdebraybwbrfdbtazdmdeexaddladexckdedmdme`btay`lcbcscwarasfucpb`cmcmae`nbd````````````",
"`````````````saeeo`nbjcmcsarar`paycsbtcb`fbrbtfkfdciecdmdqebcdaacddmece`elbrazfabr`f`wbwbtarbzcsascsarbjbm`kbn``````````",
"``````````ewd`ae`z`c`zbjcsb`cscscwcwbrbravbtecbrfackaadmckexavciexdme`bkfabtapanbr`ffabtfdbtdpcscsbjbjdpbeae`s`s````````",
"``````````ahcm`kcm`bdparaycsay`fcscsfdbrfibwbtbrfdeqcd`qdmelbkeldmexdmeqdce`faerdcapbtbwfa`waucscscvdpdpafcmae`n````````",
"````````cncmaeakcmct`adpcsarcbcbbwdqdeapamdcehcfclbldlbldmeqeradexade`esecelehehdc`ubrbrbtfucsbhcsas`actbecmbpbpey``````",
"````````ejbpeo`vctcv`abzb`ef`ffxfucbbwapbldcdheqetesdlfwdmescfcddmdmdmbkbleldldhaq`ubrfabtcbcsbtcs`pcccycm`veobe`t``````",
"`````````rae`aajevdjdsasas`jbifiapbrbtav`uapclcfdlad`odndnfvdxededexegeceqe`e`cfbybydcbrfmcwcbfdcbbjdjca`bcv`zdd`t``````",
"``````ej`rbu`vcvcv`vcyfcbzefbz`f`uclapfderfeerclerdldlerdada`hedfhe`aacferdtcfciazapfk`ubramcbfuararbzfc`zaeaofo`t`r````",
"``````bpfodibedsdp`jcs`abwbh`lfadccidcecerclet`gfe`hdxdx`hededdt`hdaelcfereterer`wbk`ubtfdbtef`fefcb`paudpbcdiczdi`y````",
"``````ejddddemfcbjefcscs`faycedcececapciazcieqbldterdxdnbqelcdfhfv`h`oe`ererdnetfkfdekfabwbtfubifxfcar`affdpf``yepfo````",
"`````tej`ycyevcuctftbzefdoaiapaqbrbrehfw`udcfwda`oerekfhfhdxdtdaes`hbqfwcferbkehflfkekcffabwfuco`lbzcsbzftbccaevfneja```",
"````atddddem`xaocscsar`pdwdwfibwapbyapeccfdlcf`hdnfmbl`hfhdtdt`hclfvbq`qfhdxbkcfcl`gfkehfa`ufufpamaycsaydjcc`v`vfoepat``",
"````ejfgbucy`vccceaseffdfldgai`ubbfzfdazazcfblereqdt`hdnbq`hedbqfedndndte`dtdtdletfmdhehfkapapbt`mdgfubzacdp`xf`dicz`y``",
"````budddi`x`vevdpcsbzcwfxai`mapfdflfaavblercibkcffhcl`gfvfvfvdadaedclcfcfdteqecdcfkercfav`lbt`famchfdcsbe`bcaczfjbefg``",
"````a`buepccevcrdpbzbzcbfxbifdfififacfekazereretblfe`hfhbqesesdnfh`h`hbq`hfwecdldcerclavecaqaqfifxbhbzbzcv`xfjfodufnat``",
"````atepbufodualfcdp`lauauchfi`lapek`gcicieretfecl`gfhed`hesfm`gfefvfvfvdxbl`oederetfm`wdlfkfxaybzau`d`j`xduf`fgdufga```",
"`````yepddfjacccbz`benamfd`f`mfdbr`mdwcidtcfclfmfebldadneddnesdadadx`hdaededdaclflfmflfmehbyaiaydofuarasftccfjdidiei`t``",
"````a``yczczfbbcbc`bacficucraqfdanfkflaz`oehbbesbldndxfefefeesfvbqbqdnbbdtedciciazaqfkazaz`ubw`laicbas`pdjcccc`advddat``",
"````fo`yddccf`fcalcefucbcufpbi`fbyav`wazbt`ucldxed`hblescldn`hbqdndncl`gazedazazazfw`wekfzanameffucbbzbxbz`jf`fbevbuep``",
"````at`yfbaccy`a`bdsceaiffbzbichfi`manekaq`uclbkcffheletfvesfh`hesdx`qclci`gfkapap`wekapezanfzaifubxeffcfc`bdubufgepat``",
"````a`czdvf`bcdv`bffbzbicrax`fbiezcofifiekbkfk`geredeserbqdndndtadfhazcfblfecl`u`laiflaq`f`lez`ucbdgff`j`bdpccdddiepep``",
"````atczdidvaocy`v`edsbcaxdwbxfzefchameqecdlbl`gazdh`qfhaaadelesfhdaflblbkblerazapfidwbhchaqdobibzalfp`pccbgdveiczepat``",
"````a`epfoczdi`dccac`jaufzcraxaubxdwez`wfkehekbbclbkelaa`obqeleddldafkdmekfm`wfk`wfibwfidobhaiaxef`j`pdsbcacbcaodiddat``",
"``````eifgczevccfbau`jefdgffbhamaxfxezfd`w`l`odl`udcbk`wdneldtegadaaazetdlfmanan`waqfkehfifpbic``p`dbzagftao`vdifbfg````",
"``````a``yfgdv`b`v`ifcbz`b`ibwbtamfxfxfmfxekdhcfby`lciehec`wdlaverapcdecelaz`lby`lfidofiap`mcefxfp`idsagbcagajeicza`````",
"``````ata`czfbdv`vdjceasac`ibiamfian`maifxanazehave`apekehap`uege`ecazcfbkekdwfkfifiauchefbiencuftbcdvfbfof`fbdi`y`y````",
"`````````yczbudvdvdvfbcubgfcaucrbicraxfzchco`wekfke`aqflav`uaa`udm`u`w`uamfzchfmanameffpdgaidgfpaldvaoevf``zfbfgbu``````",
"````````a``tejeif`ajddajdsccbz`pbi`jfpdoanfzanbtai`f`ufkfkdq`lanebexaidcfme`fafiancodgenenbiai`pcracccf`bpddbufg`t``````",
"`````````t`yfgfgbpacaoakdubgbiauffdsenanfidoamaidgcdcoezbtecdc`mdmanbifidoanan`uapfzaxfpfpbhcecr`xbcbgbxddbufoej`t``````",
"```````````t`yfoddaodidv`i`xaleffpc`chfxamchezaichezfmfzanbwanfpcb`famfkanfxfzezcoanbifxc`ffefacbgccacf`ddddej`t````````",
"```````````tcnfobpdvbgdvbgbxftefbibxaiaudofzaxfichanfxfpfxezananfxchdgefezfzfxcuc`crdsfpcubz`jft`eeofcfbfoejfg`r````````",
"````````````eyfgbudiaoajbgdvbecrfpfpff`bffefbwaichchdgdgbhdgbjbidoaicofxfpaicubxds`afpdgas`e`vduag`z`zajdibuey``````````",
"```````````````t`rbuddeodvft`zalbccr`ec``bc`auenfp`jezchfxaidpc`fxdgfpfiamfcdgfxcvcrfcfpalcr`zbeajf`dvajbfey````````````",
"```````````````rbfbpfofbbgdvaffjfjcc`jfxbxfcc``b`bdsbiau`jc`biaibifxfpfcch`afpc``d`d`vdvfjfj`zdvajfbdvbp`tcn````````````",
"````````````````cnfnfnbpfnaoftftdj`ecuftfpaubidgfp`j`bfcfpfc`afpdgc``jfpencuc``b`j`e`vcrevdkdzewbefnfobfej``````````````",
"``````````````````bffnfnajfodvddccftaf`e`b`jdgcuai`jcv`jc`fcdj`jbxcvcvdsdsbxbxdjcr`xbxdjft`z`zddbefnbf`r````````````````",
"````````````````````d`eyewbeduak`zfjemcads`dfp`jdj`b`bcu`jcudgfpefds`bcacacvctct`dagak`xaoddbeeybpfn`r``````````````````",
"``````````````````````eyfnbpdkdz`z`zbmakfj`bag`v`dctctctctem`d`ecvctaeaeafcu`v`ecc`zakafbp`kbpewbfew````````````````````",
"````````````````````````eyeybfbpdk`zemcvcyafemakcvcvaeaeffdjcvcv`j`vae`vemaf`vagcc`z`z`zeodkbfd`ey``````````````````````",
"``````````````````````````cnbnfobe`kbe`kevemdzfj`k`z`b`edjctaeaeemds`eaf`vevdzdjafemd`dk`zbfd`ey````````````````````````",
"``````````````````````````````bncneybf`kbeaf`kememem`kcvafemakaeaeakemem`kdk`z`kbebm`zd`d`ah````````````````````````````",
"````````````````````````````````ahcnewd`dk`z`zaeaf`kaf`k`vemaedzcvakak`z`kdzd`dkdkbmbfbnah``````````````````````````````",
"````````````````````````````````````cncnbf`z`sd``s`k`z`s`zbm`s`kd`d``s`s`k`kd`ahd`bncn``````````````````````````````````",
"``````````````````````````````````````````bnd``s`s`kbnd`d`bfd``kbnbnd`bnd`ewahbn````````````````````````````````````````",
"````````````````````````````````````````````````ahbnahbnd`ewdkbfewahahewbn``````````````````````````````````````````````",
"````````````````````````````````````````````````````````````````````````````````````````````````````````````````````````",
"````````````````````````````````````````````````````````````````````````````````````````````````````````````````````````"
};
