/* XPM */
static char *glass7[] = {
/* width height ncolors chars_per_pixel */
"36 36 187 2",
/* colors */
"`` c None",
"`a c #27274E",
"`b c #25254C",
"`c c #383858",
"`d c #23234A",
"`e c #212148",
"`f c #2E2E62",
"`g c #292967",
"`h c #3535A1",
"`i c #272751",
"`j c #23234D",
"`k c #29293F",
"`l c #2C2C63",
"`m c #2A2A61",
"`n c #33334C",
"`o c #353579",
"`p c #272754",
"`q c #414188",
"`r c #20202C",
"`s c #2E2E3D",
"`t c #1C1C28",
"`u c #2E2E68",
"`v c #242447",
"`w c #2C2C66",
"`x c #222245",
"`y c #181824",
"`z c #25253E",
"a` c #161622",
"aa c #B9B9ED",
"ab c #3E3E67",
"ac c #1C1C3F",
"ad c #6767A3",
"ae c #2B2B47",
"af c #272743",
"ag c #222248",
"ah c #292931",
"ai c #29295C",
"aj c #1D1D39",
"ak c #252544",
"al c #1E1E47",
"am c #2B2B61",
"an c #29295F",
"ao c #1F1F3E",
"ap c #2F2F68",
"aq c #2D2D66",
"ar c #30305F",
"as c #2C2C5B",
"at c #11111C",
"au c #262655",
"av c #31316D",
"aw c #4C4C6D",
"ax c #222251",
"ay c #323264",
"az c #2D2D69",
"b` c #33335B",
"ba c #43436E",
"bb c #2B2B67",
"bc c #212146",
"bd c #37374B",
"be c #22223D",
"bf c #252536",
"bg c #1D1D42",
"bh c #2A2A5C",
"bi c #28285A",
"bj c #2B2B53",
"bk c #333372",
"bl c #2F2F6E",
"bm c #2B2B3F",
"bn c #2C2C36",
"bo c #424266",
"bp c #232337",
"bq c #2F2FB0",
"br c #34346C",
"bs c #525265",
"bt c #32326A",
"bu c #1B1B2F",
"bv c #3B3B55",
"bw c #303068",
"bx c #21214C",
"by c #2C2C64",
"bz c #292957",
"c` c #232351",
"ca c #26264A",
"cb c #2F2F60",
"cc c #202044",
"cd c #5D5D97",
"ce c #2B2B5C",
"cf c #363674",
"cg c #3C3C66",
"ch c #252556",
"ci c #30306E",
"cj c #3E3E54",
"ck c #414178",
"cl c #2C2C6A",
"cm c #2F2F4F",
"cn c #25252E",
"co c #27275B",
"cp c #363663",
"cq c #4C4C68",
"cr c #20204A",
"cs c #2E2E5B",
"ct c #29294C",
"cu c #242451",
"cv c #27274A",
"cw c #343464",
"cx c #4F4F64",
"cy c #252548",
"cz c #16162C",
"d` c #292938",
"da c #333384",
"db c #3C3C6F",
"dc c #353572",
"dd c #1E1E37",
"de c #38386B",
"df c #414156",
"dg c #242454",
"dh c #31316E",
"di c #181831",
"dj c #232349",
"dk c #272739",
"dl c #393979",
"dm c #4C4C85",
"dn c #2F2F83",
"do c #28285B",
"dp c #292952",
"dq c #48486D",
"dr c #23234C",
"ds c #37377A",
"dt c #1E1E3D",
"du c #26265C",
"dv c #313174",
"dw c #4C4C60",
"dx c #27273F",
"dy c #3C3C78",
"dz c #48485C",
"e` c white",
"ea c #383874",
"eb c #333379",
"ec c #444458",
"ed c #272756",
"ee c #47477C",
"ef c #32326E",
"eg c #1B1B33",
"eh c #1E1E2C",
"ei c #30306C",
"ej c #40407F",
"ek c #292944",
"el c #212150",
"em c #23233E",
"en c #141422",
"eo c #343473",
"ep c #323271",
"eq c #2D2D76",
"er c #2E2E6D",
"es c #40406E",
"et c #21213F",
"eu c #272731",
"ev c #8080BA",
"ew c #23232D",
"ex c #25255A",
"ey c #1B1B39",
"ez c #35356D",
"f` c #191937",
"fa c #262651",
"fb c #313169",
"fc c #2C2C6E",
"fd c #22224D",
"fe c #18182C",
"ff c #373786",
"fg c #2D2D65",
"fh c #232344",
"fi c #2B2B63",
"fj c #292961",
"fk c #27275F",
"fl c #202037",
"fm c #1C1C33",
"fn c #242452",
"fo c #45456F",
"fp c #484868",
"fq c #535380",
"fr c #1F1F43",
"fs c #2C2C5D",
"ft c #3535DD",
"fu c #353573",
"fv c #262657",
"fw c #393963",
"fx c #242455",
/* pixels */
"````````````````````````````````bsbsbsdwbs``````````````````````````````",
"````````````````````````dwbsdwcqcxbscqdwcqcxdzcxbs``````````````````````",
"````````````````````fpcxawcqawcqawawcqawfocqcqawfpcqcx``````````````````",
"``````````````````ececfpfpbofodqdqdqesbababadqfobafpeccj````````````````",
"``````````````dfeccjabcgesbobaabadcgabbaeefobaesbob`cgdfcjcj````````````",
"````````````cjdfbvcgfwfwcgcgesbrevdbcdeeesdedbfwdbcgcpbvbvdfcj``````````",
"``````````bdbvbvcg`ccpcwdecwayckcdeecddydcbrezdecpayfwb`ar`ncjbd````````",
"```````````saecmcscpcscwbwaqayeaevfqdyckbtdefbcpeicscbcscpb`cmae````````",
"`````````scvbjcmar`pcsfb`fbt`fcidmdecdcdefdyezaqbraz`farasasarek`s``````",
"``````bnaecmdjayb`fscsbwaqfbbwdyaacddheacdfudbfbbrbtfbaqbzcsdpafcmcn````",
"```````s`zbj`basfs`fbr`f`wdcepeqcfcdfue`dmdvcdbkbkbrfb`fbwbjcaaect`z````",
"`````taeaoccdrcsfdfgbwbr`ubb`oadebdndvebe`eadsejbyavfgcwbtcsdjbjaeddbf``",
"````eudidjbzdp`pbzbwbbefeperfjdabldadada`qcfdveofi`wfb`fay`ped`aeteg`k``",
"`````yflfadpcsfs`lbrdcav`wcfeoepdsda`qbqebdydsepfiaveabwbz`maybc`abufe``",
"````fmek`aararaiambwbyefcfcfbqfkeqejds`gft`qeofuclfkbw`ubibtcs`bcv`vfe``",
"```ydi`v`xdpbzamaxaqfkavererbkfffcfc`hdaeqdscffudcclbkfgapanayaodpczeg`t",
"``atbpao`adpbzdo`mfgbtepereperfcbqft`g`hffbqbkdlfucleiaqfbdg`bctfrfmfea`",
"```yetfh`xdpelfbfsfbaz`mdsci`gblffdneqftebda`hdafjfjfgbybwdgardr`xdia`at",
"``ateheycccredfsaxfgcibbeffjejdafc`g`heqblfjepclazazap`wfscbbz`jacfrflat",
"``atczey`v`afsacfsdgco`lbb`gebffereqft`qffdaer`wfgfifififjbzcu`i`adda`at",
"````a`dtcy`xdrcrexfxfvfgeabkbbdhffadejdndnblclepapdubhaqfvcefn`xdtegfe``",
"````a`dieybxfnbx`jfsfxfkfgfgdheoev`qdncdfcdlfjfi`wfiapcuchaubzaceydiat``",
"````atdifr`abz`bbzbranaifneifufidyckejepckffepfibyaianancu`bbgbgagegen``",
"````atczegeyf`bgascrcrelchanefdyfieaaa`qaq`uexduanbhfxaicecraoemajfea```",
"```````tfebedtccaled`dcoaqdoamdeaiandydyaifi`mfbaqfdfnbh`pagfrddfmfe````",
"```````t`reydidjagbzaxchanfnaianchch`lbhcoaichauc`chdoelbgbgbcegfm`r````",
"`````````reyaoacetcrfn`afd`ffvchc`fvbjaianfvco`bdrdgbz`e`vbe`zeyeg``````",
"```````````regacem`vccfnbxc`cu`jbifnfvcoc`bi`ich`adjac`xflajemew````````",
"``````````ewbpbpdtaobcbc`jchbic``ac``afafafnfd`jfncybcdxdkbedd`r````````",
"````````````d`ddbeakfh`kdrfd`b`b`jcudged`bcacvct`dcyccddewd``r``````````",
"``````````````eubndddxdxakaecvcaae`ecaagaecvafcabcfhbp`keucn````````````",
"``````````````````d`flem`z`s`v`kbc`bekaeagaeetafekd`bmbf````````````````",
"`````````````````````s`zdk`zae`kdxakaeekek`zekbfdkd`bn``````````````````",
"````````````````````````bnbmd`dkdk`sbndxd`bmbfbnah``````````````````````",
"````````````````````````````````cnbneu`sah``````````````````````````````",
"````````````````````````````````````````````````````````````````````````"
};
