/* XPM */
static char *glass2[] = {
/* width height ncolors chars_per_pixel */
"12 12 75 2",
/* colors */
"`` c None",
"`a c #25254C",
"`b c #23234A",
"`c c #212148",
"`d c #2E2E62",
"`e c #29293F",
"`f c #272754",
"`g c #414188",
"`h c #20202C",
"`i c #2E2E68",
"`j c #242447",
"`k c #25253E",
"`l c #B9B9ED",
"`m c #6767A3",
"`n c #2B2B47",
"`o c #29295C",
"`p c #252544",
"`q c #29295F",
"`r c #1F1F3E",
"`s c #2F2F68",
"`t c #2D2D66",
"`u c #30305F",
"`v c #4C4C6D",
"`w c #2B2B53",
"`x c #2F2F6E",
"`y c #34346C",
"`z c #3B3B55",
"a` c #303068",
"aa c #2C2C64",
"ab c #26264A",
"ac c #5D5D97",
"ad c #363674",
"ae c #3C3C66",
"af c #252556",
"ag c #30306E",
"ah c #3E3E54",
"ai c #2C2C6A",
"aj c #4C4C68",
"ak c #20204A",
"al c #2E2E5B",
"am c #343464",
"an c #16162C",
"ao c #292938",
"ap c #333384",
"aq c #3C3C6F",
"ar c #1E1E37",
"as c #38386B",
"at c #242454",
"au c #31316E",
"av c #181831",
"aw c #232349",
"ax c #272739",
"ay c #23234C",
"az c #37377A",
"b` c #1E1E3D",
"ba c #313174",
"bb c #3C3C78",
"bc c #383874",
"bd c #1B1B33",
"be c #40407F",
"bf c #292944",
"bg c #212150",
"bh c #2D2D76",
"bi c #191937",
"bj c #313169",
"bk c #22224D",
"bl c #18182C",
"bm c #2D2D65",
"bn c #232344",
"bo c #292961",
"bp c #27275F",
"bq c #242452",
"br c #484868",
"bs c #262657",
"bt c #242455",
/* pixels */
"`````````vajajajbr``````",
"````ahaeae`yacasaq`zah``",
"`````w`f`dagacbb`y`u`u``",
"```naybm`i`mbabcaaamawar",
"``bf`ua`adbpaz`gai`ial`j",
"``bnbgbjaz`xbhapboaa`uav",
"``b`aybtbcaube`x`s`tbqbd",
"``anbiakafbb`l`i`q`o`rbl",
"`````rakbkaf`wbsay`c`k``",
"````ao`pay`aatab`bar`h``",
"````````ax`e`n`kax``````",
"````````````````````````"
};
