/* XPM */
static char *glass6[] = {
/* width height ncolors chars_per_pixel */
"30 30 91 1",
/* colors */
"  c #000000",
". c #25254C",
"X c #23234A",
"o c #35354B",
"O c #2A2A5E",
"+ c #3A3A71",
"@ c #24242D",
"# c #3535A1",
"$ c #1F1F49",
"% c #404066",
"& c #BFBFDC",
"* c #2E2E7C",
"= c #2E2E68",
"- c #242447",
"; c #2C2C66",
": c #181824",
"> c #25253E",
", c #21213A",
"< c #2A2A50",
"1 c #4A4A62",
"2 c #252558",
"3 c #292948",
"4 c #363679",
"5 c #1F1F3E",
"6 c #343463",
"7 c #353585",
"8 c #2C2C5B",
"9 c #4C4C6D",
"0 c #27274C",
"q c #28285A",
"w c #3F3F56",
"e c #19192A",
"r c #5D5D91",
"t c #2F2FB0",
"y c #34346C",
"u c #525265",
"i c #303068",
"p c #2A2A62",
"a c #232351",
"s c #191930",
"d c #34345B",
"f c #2F2F60",
"g c #3A3A78",
"h c #2B2B5C",
"j c #494980",
"k c #343472",
"l c #3A3A64",
"z c #2C2C6A",
"x c #27275B",
"c c #1B1B38",
"v c #35356C",
"b c #2E2E5B",
"n c #24243A",
"m c #27275E",
"M c #323276",
"N c #31316B",
"B c #4D4D62",
"V c #282841",
"C c #292938",
"Z c #13131F",
"A c #38386B",
"S c #242454",
"D c #31316E",
"F c #2D2D6D",
"G c #46466E",
"H c #2C2C65",
"J c #272756",
"K c #30306C",
"L c #40407F",
"P c #292944",
"I c #212150",
"U c #2A2A3B",
"Y c #202045",
"T c #323271",
"R c #2D2D62",
"E c #40406E",
"W c #292933",
"Q c #21213F",
"! c #1D1D3B",
"~ c #2A2A55",
"^ c #22224D",
"/ c #424273",
"( c #232344",
") c #262654",
"_ c #1C1C33",
"` c #1F1F2C",
"' c #242452",
"] c #1D1D41",
"[ c #353573",
"{ c #262657",
"} c None",
/* pixels */
"}}}}}}}}}}}}uuuuuuu}}}}}}}}}}}",
"}}}}}}}}}BB999B999919u}}}}}}}}",
"}}}}}}}}BBw%GGGGGGGG9w1}}}}}}}",
"}}}}}}w1lwE1GElEGGGl%%%1o}}}}}",
"}}}}}w%ddlll/jArj%E6+ldwww}}}}",
"}}}}wwodd6Avvr+rA&+A66ldooo}}}",
"}}}}oob68A6yNjrgrAjNRbfhd<o}}}",
"}}}C>>bb6yD+v&/Drgv=yvi<b~QU}}",
"}}@3<0bfiApDzgjTrg+D[yNbb0Qn@}",
"}}`0Q^8q=N=zg4*MMjkgH[mffX.>e}",
"}}_Q<biR[[TFFM#M#LTT;=iJJ)<ss}",
"}e:Q0~q=yD=[4K74*t[kpKvhRbY.,:",
"}`s-hJpO;i=Kk#tMF*g4FDp=ph](s:",
"}:ZQ<~{iH[=TK#t*7##+[z+;{~0(QZ",
"}:!]~Iipyx4zF7M*7#M7ppDOqfY(se",
"}_!c$h'qH;NzMKz#*z===;Sph~~cQZ",
"}:5Y.~$R2HKpT*t*r=KzRpR2f^.YsZ",
"}:_sY^Sa^2pKzL4LgpK;;iqOJ)YYsZ",
"}}:5-).ip{{DHD+gTrLRRq=h'^Y!e}",
"}}:s5c])qa{;p;D&j;p{OJSS$5ccs}",
"}}een5Qq^IHpSxN[jqqO=a'h(]!_e}",
"}}}@n]]YqOqa{{{O{S2{a^'^$)_e}}",
"}}}}`!5>Y$.)'2{<{'pS0)$>!5n}}}",
"}}}}@,,YX''q'.'0S^Ia^-QVQ_`}}}",
"}}}}}CWQ>P^'X.^SJ..0X(5Qn`}}}}",
"}}}}}}@nCP-P03^0^3P-Y>>n@}}}}}",
"}}}}}}}}@nQVPVV(3PV>Q>C}}}}}}}",
"}}}}}}}}}@nUU>>UCUVCC@}}}}}}}}",
"}}}}}}}}}}}}WWCCWWC}}}}}}}}}}}",
"}}}}}}}}}}}}}}}}}}}}}}}}}}}}}}"
};
