/* XPM */
static char *glass5[] = {
/* width height ncolors chars_per_pixel */
"24 24 89 1",
/* colors */
"  c #000000",
". c #27274E",
"X c #2F2F6D",
"o c #25254C",
"O c #2E2E62",
"+ c #2A2A33",
"@ c #35354B",
"# c #20203D",
"$ c #24242D",
"% c #272751",
"& c #1E1E2A",
"* c #2E2E68",
"= c #242447",
"- c #181824",
"; c #25253E",
": c #424257",
"> c #242436",
", c #202049",
"< c #2F2F68",
"1 c #4A4A68",
"2 c #2D2D66",
"3 c #30305F",
"4 c #31316D",
"5 c #4C4C6D",
"6 c #2A2A45",
"7 c #2C2C72",
"8 c #2D2D69",
"9 c #2B2B53",
"0 c #333372",
"q c #2F2F99",
"w c #424266",
"e c #26265B",
"r c #34346C",
"t c #32326A",
"y c #1B1B2F",
"u c #303068",
"i c #21214C",
"p c #2C2C64",
"a c #282860",
"s c #333364",
"d c #17172E",
"f c #B3B3D1",
"g c #222246",
"h c #5D5D97",
"j c #2B2B5C",
"k c #3A3A64",
"l c #252556",
"z c #1B1B35",
"x c #30306E",
"c c #2A2A68",
"v c #3E3E6B",
"b c #4F4F75",
"n c #2B2B62",
"m c #2E2E5B",
"M c #323276",
"N c #22224F",
"B c #292938",
"V c #333384",
"C c #1D1D40",
"Z c #13131F",
"A c #282858",
"S c #38386B",
"D c #262656",
"F c #242454",
"G c #272739",
"H c #1F1F45",
"J c #28285B",
"K c #23234C",
"L c #37377A",
"P c #3B3B56",
"I c #46466E",
"U c #4A4A5E",
"Y c #3636B1",
"T c #383874",
"R c #242449",
"E c #323271",
"W c #3E3E80",
"Q c #34345F",
"! c #2A2A3E",
"~ c #35356D",
"^ c #313169",
"/ c #22224D",
"( c #18182C",
") c #2D2D65",
"_ c #262654",
"` c #242452",
"' c #27274B",
"] c #353573",
"[ c None",
/* pixels */
"[[[[[[[[[UU5555U[[[[[[[[",
"[[[[[[[:5511151I1U[[[[[[",
"[[[[[::wvIIwIIvSww:@[[[[",
"[[[[P:kkkSrvhhSsvkPPP[[[",
"[[[@@QQ3~srhfSvrSssk@@[[",
"[[[69j_sO2xvhfTtr<3P3@[[",
"[[;'%sOrO~E84hxr~unm9';[",
"[[6=KA)t*EhVM]TWp]s^R'z[",
"[-z.mn~]XxMqbYT820~Om=-&",
"[-6%3eu8]MaYLqWE84*Dmo=y",
"[(g.ADuTX0VVVYM]T]2nO'd-",
"[-g`Np^eLcX77MVVaepj3=dZ",
"[(R%j%Jn8Xq7qVcE44eJ_/d-",
"[(#HKlFeT74VWVXx<J2j`oz-",
"[-d#i,Oln]a2hb8^nueDD%zZ",
"[[d#zH,`lXTWfh*FaNJH##([",
"[[(z##`i)n`Dul)epJ`gCy&[",
"[[[y#C,`/2lF9JDFKi,H;z[[",
"[[[$&#Hg/````JKi,g;Gz$[[",
"[[[[B>=;K/o`F`''Rgz>&[[[",
"[[[[[&>#=#'=6/og;;>$[[[[",
"[[[[[[[+G;!=6=;GGB[[[[[[",
"[[[[[[[[[$!B++++[[[[[[[[",
"[[[[[[[[[[[[[[[[[[[[[[[["
};
