/* XPM */
static char *glass3[] = {
/* width height ncolors chars_per_pixel */
"14 14 91 1",
/* colors */
"  c #000000",
". c #27274E",
"X c #383858",
"o c #2E2E62",
"O c #292967",
"+ c #3535A1",
"@ c #272751",
"# c #23234D",
"$ c #29293F",
"% c #353579",
"& c #272754",
"* c #20202C",
"= c #2E2E3D",
"- c #242447",
"; c #25253E",
": c #3E3E67",
"> c #1C1C3F",
", c #6767A3",
"< c #2B2B47",
"1 c #29295C",
"2 c #2B2B61",
"3 c #29295F",
"4 c #1F1F3E",
"5 c #2F2F68",
"6 c #2D2D66",
"7 c #222251",
"8 c #2D2D69",
"9 c #33335B",
"0 c #37374B",
"q c #22223D",
"w c #28285A",
"e c #2B2B53",
"r c #2C2C36",
"t c #424266",
"y c #232337",
"u c #525265",
"i c #32326A",
"p c #1B1B2F",
"a c #303068",
"s c #232351",
"d c #363674",
"f c #3C3C66",
"g c #252556",
"h c #27275B",
"j c #363663",
"k c #4C4C68",
"l c #2E2E5B",
"z c #29294C",
"x c #27274A",
"c c #252548",
"v c #16162C",
"b c #292938",
"n c #353572",
"m c #38386B",
"M c #4C4C85",
"N c #2F2F83",
"B c #20203F",
"V c #313174",
"C c #333379",
"Z c #444458",
"A c #272756",
"S c #47477C",
"D c #32326E",
"F c #1B1B33",
"G c #30306C",
"H c #40407F",
"J c #23233E",
"K c #141422",
"L c #343473",
"P c #2D2D76",
"I c #2E2E6D",
"U c #40406E",
"Y c #21213F",
"T c #8080BA",
"R c #25255A",
"E c #1B1B39",
"W c #35356D",
"Q c #262651",
"! c #18182C",
"~ c #373786",
"^ c #2B2B63",
"/ c #202037",
"( c #1C1C33",
") c #242452",
"_ c #484868",
"` c #1F1F43",
"' c #2C2C5D",
"] c #3535DD",
"[ c #262657",
"{ c #242455",
"} c None",
/* pixels */
"}}}}}k_uk_}}}}",
"}}}Z9:UUUft0}}",
"}}=ejW,TSio9X}",
"}}99liMDMDalx}",
"}/&oOOC+Md5'.(",
"}!lgR%C~]%n3.!",
"}J.23LCP]VRoQE",
"}F@{1DHNI835#p",
"}K..36GiS^[A>v",
"}}yYsmh23)wBp}",
"}}*Y`))[Q74q*}",
"}}}bYxzc<-;;}}",
"}}}}}b$<;r}}}}",
"}}}}}}}}}}}}}}"
};
