/* XPM */
static char *glass4[] = {
/* width height ncolors chars_per_pixel */
"20 20 91 1",
/* colors */
"  c #000000",
". c #4A4A6D",
"X c #25254C",
"o c #23234A",
"O c #252538",
"+ c #1E1E3B",
"@ c #2A2A61",
"# c #353579",
"$ c #272754",
"% c #2E2E3D",
"& c #21214E",
"* c #2E2E68",
"= c #242447",
"- c #3E3E7B",
"; c #222245",
": c #2B2B5B",
"> c #1C1C3F",
", c #444459",
"< c #9090C8",
"1 c #292931",
"2 c #26264F",
"3 c #252544",
"4 c #31317E",
"5 c #21212C",
"6 c #2F2F68",
"7 c #30305F",
"8 c #262655",
"9 c #31316D",
"0 c #1A1A32",
"q c #252536",
"w c #2B2B53",
"e c #46467E",
"r c #2F2F6E",
"t c #2C2C36",
"y c #212149",
"u c #303068",
"i c #232351",
"p c #272741",
"a c #44446E",
"s c #353552",
"d c #23233D",
"f c #363674",
"g c #12121F",
"h c #3535BF",
"j c #181828",
"k c #2A2A68",
"l c #29295D",
"z c #27275B",
"x c #58588B",
"c c #22224C",
"v c #2E2E5B",
"b c #303074",
"n c #29294C",
"m c #242451",
"M c #27274A",
"N c #292938",
"B c #282858",
"V c #353572",
"C c #1E1E37",
"Z c #38386B",
"A c #262656",
"S c #242454",
"D c #212147",
"F c #36366C",
"G c #2D2D6D",
"H c #222241",
"J c #313149",
"K c #505064",
"L c #4C4C60",
"P c #2C2C65",
"I c #1E1E40",
"U c #383874",
"Y c #32326E",
"T c #1E1E2C",
"R c #30306C",
"E c #373780",
"W c #323271",
"Q c #2D2D62",
"! c #3C3C6A",
"~ c #35356D",
"^ c #191937",
"/ c #33336B",
"( c #343462",
") c #2A2A41",
"_ c #2B2B63",
"` c #292961",
"' c #202037",
"] c #252549",
"[ c #1F1F43",
"{ c #2C2C5D",
"} c None",
/* pixels */
"}}}}}}}LL.KKLK}}}}}}",
"}}}}},L.a.a.a.,,}}}}",
"}}}}ss(!axZ-ZZ!(,}}}",
"}}}sss(Z~<x<!F(7s%}}",
"}}%Jv$/~uexe-~P7:wt}",
"}}nnv7ZVGrWxUY~{vnO}",
"}T==BQ6GWWh-Wr_@72I5",
"}TH[zPYV#E#hfYRu_BMT",
"}C=vA6~Wfkh#fUW_@vMd",
"}g>XuuzfG4bb#G`Pz:;0",
"}j]ccAl*fGEbr6Rl{2Ig",
"}g0>S8zYG<-4R_u:AcDC",
"}g^o>@@l9R*UW_8z[^^j",
"}}j>I8&zSzVlz*i:;c0}",
"}}50IycAASwlmcmyy+5}",
"}}}''[m8m22i&X=Odq}}",
"}}}}'p)Xononpy3)q}}}",
"}}}}}tqp)M33))d1}}}}",
"}}}}}}}t%NNtNt}}}}}}",
"}}}}}}}}}}}}}}}}}}}}"
};
