/* XPM */
static char *glass1[] = {
/* width height ncolors chars_per_pixel */
"10 10 62 1",
/* colors */
"  c #000000",
". c #27274E",
"X c #29293F",
"o c #2C2C63",
"O c #353579",
"+ c #242447",
"@ c #222245",
"# c #25253E",
"$ c #1C1C3F",
"% c #2B2B47",
"& c #252544",
"* c #222251",
"= c #323264",
"- c #212146",
"; c #37374B",
": c #22223D",
"> c #252536",
", c #232337",
"< c #34346C",
"1 c #303068",
"2 c #26264A",
"3 c #5D5D97",
"4 c #363674",
"5 c #2C2C6A",
"6 c #2E2E5B",
"7 c #242451",
"8 c #343464",
"9 c #3C3C6F",
"0 c #353572",
"q c #38386B",
"w c #242454",
"e c #181831",
"r c #28285B",
"t c #37377A",
"y c #20203F",
"u c #26265C",
"i c #4C4C60",
"p c #383874",
"a c #333379",
"s c #444458",
"d c #272756",
"f c #32326E",
"g c #30306C",
"h c #40407F",
"j c #292944",
"k c #212150",
"l c #323271",
"z c #2D2D76",
"x c #21213F",
"c c #25255A",
"v c #35356D",
"b c #313169",
"n c #2C2C6E",
"m c #18182C",
"M c #232344",
"N c #292961",
"B c #202037",
"V c #1C1C33",
"C c #242452",
"Z c #45456F",
"A c #242455",
"S c None",
/* pixels */
"SSSiZZZsSS",
"SS;8v39=;S",
"S%6q5lp<6,",
"SxrfOt4go2",
"S$bunzaNrM",
"SeAc5hg1d-",
"Smykw0r*@V",
"SSB7C.k+:S",
"SSS>j&X#SS",
"SSSSSSSSSS"
};
