/* XPM */
static char *glass9[] = {
/* width height ncolors chars_per_pixel */
"50 50 90 1",
/* colors */
"  c #000000",
". c #41416E",
"X c #2A2A61",
"o c #1E1E3E",
"O c #2C2C4F",
"+ c #2E2E7C",
"@ c #2E2E68",
"# c #141420",
"$ c #2C2C3E",
"% c #2C2C69",
"& c #4A4A62",
"* c #35357F",
"= c #29295C",
"- c #404083",
"; c #202035",
": c #4C4C6A",
"> c #343463",
", c #2F2F68",
"< c #30305F",
"1 c #22223A",
"2 c #262655",
"3 c #31316D",
"4 c #2A2A45",
"5 c #3E3E73",
"6 c #28285A",
"7 c #2B2B53",
"8 c #333372",
"9 c #27274F",
"0 c #1F1F47",
"q c #424266",
"w c #2F2FB0",
"e c #34346C",
"r c #32326A",
"t c #303068",
"y c #242445",
"u c #2D2D5B",
"i c #292957",
"p c #232351",
"a c #191930",
"s c #26264A",
"d c #393956",
"f c #242448",
"g c #B3B3D1",
"h c #202044",
"j c #2D2D5E",
"k c #3A3A78",
"l c #1E1E42",
"z c #30306E",
"x c #24244B",
"c c #27275B",
"v c #1B1B38",
"b c #35356C",
"n c #58588B",
"m c #2D2D64",
"M c #292960",
"N c #242451",
"B c #282841",
"V c #292938",
"C c #38386B",
"Z c #414156",
"A c #242454",
"S c #272739",
"D c #4C4C85",
"F c #23234C",
"G c #21214A",
"H c #22222D",
"J c #313174",
"K c #505064",
"L c #17172C",
"P c #222244",
"I c #3636B1",
"U c #383874",
"Y c #1B1B33",
"T c #212150",
"R c #353553",
"E c #2A2A66",
"W c #23233E",
"Q c #323271",
"! c #464674",
"~ c #2E2E6D",
"^ c #292933",
"/ c #1D1D3B",
"( c #22224D",
") c #2B2B63",
"_ c #343479",
"` c #1D1D2A",
"' c #353573",
"] c #3B3B65",
"[ c #262657",
"{ c None",
/* pixels */
"{{{{{{{{{{{{{{{{{{{{{{{{{{{{{{{{{{{{{{{{{{{{{{{{{{",
"{{{{{{{{{{{{{{{{{{{&KKKKKKKKKKKK{{{{{{{{{{{{{{{{{{",
"{{{{{{{{{{{{{{{{K&K:K&::KKK:::K&&KK{{{{{{{{{{{{{{{",
"{{{{{{{{{{{{{{&Z&:K:::::::::::K::::&K{{{{{{{{{{{{{",
"{{{{{{{{{{{{Z&&&:qq:!!:!.!:!:q!]:::Z]Z&{{{{{{{{{{{",
"{{{{{{{{{{{ZZ&Z:q:]!!.q.n..!.C..!:]qqqZ&{{{{{{{{{{",
"{{{{{{{{{{ZZdd]]].q.!]n.C..5!...].q]]]ZZZ{{{{{{{{{",
"{{{{{{{{{RZRd]Z]]]]C.Cn5!.5g.CC]b5C]]<dZZZ{{{{{{{{",
"{{{{{{{{dRd]d<]]]]C5C!ngg!ntD55C>>C>]<ddRdZ{{{{{{{",
"{{{{{{{$ddR<<<>>C5C>begDDnDknC5UCrt>]]<dRdR${{{{{{",
"{{{{{{R$OO7<u<<>D@rrrkgnnD55r5r>CU>><7<<dRRO${{{{{",
"{{{{{Rddds<<<uubm<kmt)U5gnngnDDD3tm)<<uuuOO41R{{{{",
"{{{{{V$sOOu<2<<>mbr3bkn55QDg83brXe<3r><7<<u4$${{{{",
"{{{{^4BuG<><,uutbm>r3-nnDQknnkekr3,emb6u<s7s4BS{{{",
"{{{{44fO79u<umrCm,U'%zQk_Qgn-JUk3',ermjXui74O11{{{",
"{{{HYWy7sp<[m=<em338zQQ-*_!-nkz-8mmr8,u<uFf7h1Y`{{",
"{{{VW7yhhiuFm,@br3%_8D_+IJ_Jgk8k'%)3mj<m<7977B;H{{",
"{{{SY;92P9j=XtE38z%E%*Q__I**n_'8'M,%3b[miu=9fYa1{{",
"{{`aYB9u7<,>>UUrQEQz'J_wkn_IJk8%J)e,btbi[iuF9vaL`{",
"{{#YPWxf9i6Xrbb3'3'__J'*__*+w''Qb%m3'eX6)=jxhsf#`{",
"{{##WPh>uiMXr@MmU'U+JEJw__++w-k_'z%M33m6j<i9ffPLa{",
"{{;Lffo9<b6TM3M3%Q~''*zJI**~J*k_kkMQ8,,r)NrWufLaY{",
"{{YaWoGi7<66,,rU3zzzQJIwwJwI*__U'k8zQb)X6<>sff#o#{",
"{{YYaol7i6NctXQ%3QQ~~~**JM~+IIJz__zM3Uc>i22fhoY;a{",
"{{aWfo(9Tirm@rmcQkQM~JI+IJI**w_*_EMM),ct6juFPPY##{",
"{{LYaaFG0jFTr=mM3_E~z+~+E_I*+EJ_zz@M,m3M=<FFxo9aL{",
"{{L;Fo792m(6=)3M~,mQ_ww~kII*JMzJmzQ@)TA2=i22Novaa{",
"{{`vaGf92mG[2McMm)%%U*E-IInzJ-IE%J=E,)[m>(N9GhW#Y{",
"{{##LhPfFGpcp=2m'D8%%Q_-IQ~z!Qkz3mmcXc)=i06GFoaY#{",
"{{##aaxh02A0ATccmm3%%'8J--'_)+3M%)@t)6jp2x2hhho`#{",
"{{###Ph0G22Nm2AAM3,_m!DJnn3g3~Qe)M@X3XXN9f(hxW;##{",
"{{{#Lvh9ijhirrM[=c,',m3%kD-@J*'3))m6cXiNN2flovaa{{",
"{{{#LahPh20i(6TccXMz@@nn@3DbmD'2MMt2Acp2ovhB;a#`{{",
"{{{`#`v/;;G02=Fp=X23=n@nmXMkMUMrXMc6TA[2(vh;1Y##{{",
"{{{{`LL;oyo0X9FT)X==AD=C3'mMce6XX3[pN2jNPG(v`Y`{{{",
"{{{{H`YWvoif0=pc66A=[tcAXMA2cMMANAc2cpNolG2vo`H{{{",
"{{{{{HaY;/ohhiGNN6=mA=2pc[cC222[N(f(pi0hFBoY;;{{{{",
"{{{{{#`YaWhofp((9(i[pA6A27[=6X6ip(9N=hfPov/aY#{{{{",
"{{{{{{#HHvoofPhF[9pFNF6[p[62NN[9N9xfohWo;voHH{{{{{",
"{{{{{{{^aS;/hGhNh[22NN9N99NAFpTN(x(f0PVSW1;H{{{{{{",
"{{{{{{{{^HvYWho4GfN(2(9(N(p(4xFFsxPGhW1;;`^{{{{{{{",
"{{{{{{{{{La1PBB$hfGxs9FFxNF(9ffFPfPfoWWS^`{{{{{{{{",
"{{{{{{{{{{HVVBWyBsssFs4fsfFf44yfsF/y1BSSH{{{{{{{{{",
"{{{{{{{{{{{HV1S;Bf4o4yGh944x(yyWWo$WS1^S{{{{{{{{{{",
"{{{{{{{{{{{{HS`S$W4B44B44y44BBBWSW$WVH^{{{{{{{{{{{",
"{{{{{{{{{{{{{{VVV1WB$4BB4$BWBWVSVSB1H{{{{{{{{{{{{{",
"{{{{{{{{{{{{{{{{$^SVVWS$VVBB$$SS^^V{{{{{{{{{{{{{{{",
"{{{{{{{{{{{{{{{{{{{^^$VVB^$VVVV^{{{{{{{{{{{{{{{{{{",
"{{{{{{{{{{{{{{{{{{{{{{{{{{{{{{{{{{{{{{{{{{{{{{{{{{",
"{{{{{{{{{{{{{{{{{{{{{{{{{{{{{{{{{{{{{{{{{{{{{{{{{{"
};
