/* XPM */
static char *glass5[] = {
/* width height ncolors chars_per_pixel */
"24 24 164 2",
/* colors */
"`` c None",
"`a c #27274E",
"`b c #25254C",
"`c c #383858",
"`d c #23234A",
"`e c #212148",
"`f c #2E2E62",
"`g c #292967",
"`h c #3535A1",
"`i c #272751",
"`j c #23234D",
"`k c #29293F",
"`l c #2C2C63",
"`m c #2A2A61",
"`n c #33334C",
"`o c #272754",
"`p c #414188",
"`q c #20202C",
"`r c #2E2E3D",
"`s c #1C1C28",
"`t c #2E2E68",
"`u c #242447",
"`v c #2C2C66",
"`w c #181824",
"`x c #25253E",
"`y c #161622",
"`z c #B9B9ED",
"a` c #3E3E67",
"aa c #1C1C3F",
"ab c #6767A3",
"ac c #2B2B47",
"ad c #222248",
"ae c #292931",
"af c #29295C",
"ag c #252544",
"ah c #1E1E47",
"ai c #2B2B61",
"aj c #29295F",
"ak c #1F1F3E",
"al c #2F2F68",
"am c #2D2D66",
"an c #30305F",
"ao c #2C2C5B",
"ap c #11111C",
"aq c #262655",
"ar c #31316D",
"as c #4C4C6D",
"at c #323264",
"au c #2D2D69",
"av c #33335B",
"aw c #212146",
"ax c #37374B",
"ay c #22223D",
"az c #252536",
"b` c #1D1D42",
"ba c #28285A",
"bb c #2B2B53",
"bc c #333372",
"bd c #2F2F6E",
"be c #2C2C36",
"bf c #424266",
"bg c #232337",
"bh c #2F2FB0",
"bi c #34346C",
"bj c #525265",
"bk c #32326A",
"bl c #1B1B2F",
"bm c #3B3B55",
"bn c #303068",
"bo c #21214C",
"bp c #2C2C64",
"bq c #292957",
"br c #26264A",
"bs c #202044",
"bt c #5D5D97",
"bu c #2B2B5C",
"bv c #363674",
"bw c #3C3C66",
"bx c #252556",
"by c #30306E",
"bz c #3E3E54",
"c` c #2C2C6A",
"ca c #25252E",
"cb c #27275B",
"cc c #363663",
"cd c #4C4C68",
"ce c #20204A",
"cf c #2E2E5B",
"cg c #29294C",
"ch c #242451",
"ci c #27274A",
"cj c #343464",
"ck c #252548",
"cl c #16162C",
"cm c #292938",
"cn c #333384",
"co c #3C3C6F",
"cp c #353572",
"cq c #1E1E37",
"cr c #38386B",
"cs c #414156",
"ct c #242454",
"cu c #31316E",
"cv c #181831",
"cw c #232349",
"cx c #272739",
"cy c #4C4C85",
"cz c #2F2F83",
"d` c #28285B",
"da c #292952",
"db c #48486D",
"dc c #23234C",
"dd c #37377A",
"de c #1E1E3D",
"df c #26265C",
"dg c #313174",
"dh c #4C4C60",
"di c #27273F",
"dj c #3C3C78",
"dk c #48485C",
"dl c white",
"dm c #383874",
"dn c #333379",
"do c #444458",
"dp c #272756",
"dq c #1B1B33",
"dr c #1E1E2C",
"ds c #30306C",
"dt c #40407F",
"du c #292944",
"dv c #212150",
"dw c #23233E",
"dx c #343473",
"dy c #323271",
"dz c #2D2D76",
"e` c #2E2E6D",
"ea c #40406E",
"eb c #21213F",
"ec c #8080BA",
"ed c #23232D",
"ee c #25255A",
"ef c #35356D",
"eg c #191937",
"eh c #262651",
"ei c #313169",
"ej c #2C2C6E",
"ek c #22224D",
"el c #18182C",
"em c #373786",
"en c #2D2D65",
"eo c #232344",
"ep c #2B2B63",
"eq c #292961",
"er c #27275F",
"es c #1C1C33",
"et c #242452",
"eu c #45456F",
"ev c #484868",
"ew c #1F1F43",
"ex c #2C2C5D",
"ey c #3535DD",
"ez c #262657",
"f` c #393963",
"fa c #242455",
/* pixels */
"``````````````````dkdhbjbjbjbjdh````````````````",
"``````````````csasascdevcdascddbevdh````````````",
"``````````dodobfa`dbeubfeueueacrbfbfcsax````````",
"````````bzcsbwf`bwcrbicobteccratcof`bmbzbz``````",
"```````n`navavanefcjbibt`zcrcobicratccf``nax````",
"``````acbbao`oat`fambycobtdldjbkbialan`can`n````",
"````dicg`icj`fbi`fefdyauarabbybiefbnaicfbbcg`x``",
"````ac`udcbqenbk`tdyabczdgdxdmdtbpcpcjeicwcgcq``",
"```wdq`acfaiefcpe`bydn`hcyeydmc`ambcef`fcf`u`y`s",
"```ydudaandfbnaubvdgerbhdd`h`pdyc`cu`tezcf`b`ubl",
"``elad`abqezbndmdsbccncnczeydnbvdmdxamep`fcgcv`w",
"```weoetdv`leidfdd`gbddzdzdncncneqeebpexan`ucvap",
"``elcwdaexehd`epaubd`hdz`hcz`gdycucueeba`oekcl`w",
"``eldebsdcbxfaeedmejcuemdtcnbdbyalafambuet`bdq`w",
"```yclakboce`fbx`mcper`veccyauei`mbncbaqdpdaesap",
"````clakegbsceetbxdsdjdt`zbt`tctajdvafahakayel``",
"````eldqdeebetboenepetezbnbxencb`lbaeteoaabldr``",
"``````blakb`ceetekambxctbbafezctdcbo`eew`xcq````",
"``````ed`qakbsawekchchchetd``jboceaddwcxesed````",
"````````cmazag`xdcek`bchctetbrci`deocqbg`q``````",
"```````````qbgayckaybr`uacek`beo`x`xazca````````",
"``````````````aecxdi`kagacag`xcxcxcm````````````",
"``````````````````ca`rcmbebebeae````````````````",
"````````````````````````````````````````````````"
};
