/* XPM */
static char *glass4[] = {
/* width height ncolors chars_per_pixel */
"20 20 151 2",
/* colors */
"`` c None",
"`a c #27274E",
"`b c #25254C",
"`c c #383858",
"`d c #23234A",
"`e c #212148",
"`f c #2E2E62",
"`g c #292967",
"`h c #3535A1",
"`i c #29293F",
"`j c #2C2C63",
"`k c #2A2A61",
"`l c #33334C",
"`m c #353579",
"`n c #272754",
"`o c #20202C",
"`p c #2E2E3D",
"`q c #2E2E68",
"`r c #242447",
"`s c #2C2C66",
"`t c #222245",
"`u c #181824",
"`v c #25253E",
"`w c #B9B9ED",
"`x c #1C1C3F",
"`y c #6767A3",
"`z c #2B2B47",
"a` c #272743",
"aa c #222248",
"ab c #292931",
"ac c #29295C",
"ad c #1D1D39",
"ae c #252544",
"af c #2B2B61",
"ag c #29295F",
"ah c #1F1F3E",
"ai c #2F2F68",
"aj c #2D2D66",
"ak c #30305F",
"al c #2C2C5B",
"am c #11111C",
"an c #262655",
"ao c #31316D",
"ap c #4C4C6D",
"aq c #222251",
"ar c #323264",
"as c #43436E",
"at c #212146",
"au c #37374B",
"av c #22223D",
"aw c #252536",
"ax c #1D1D42",
"ay c #2A2A5C",
"az c #28285A",
"b` c #2B2B53",
"ba c #333372",
"bb c #2F2F6E",
"bc c #2B2B3F",
"bd c #2C2C36",
"be c #232337",
"bf c #34346C",
"bg c #525265",
"bh c #32326A",
"bi c #303068",
"bj c #21214C",
"bk c #2C2C64",
"bl c #292957",
"bm c #232351",
"bn c #26264A",
"bo c #2F2F60",
"bp c #5D5D97",
"bq c #363674",
"br c #3C3C66",
"bs c #252556",
"bt c #30306E",
"bu c #414178",
"bv c #2C2C6A",
"bw c #20204A",
"bx c #2E2E5B",
"by c #29294C",
"bz c #242451",
"c` c #27274A",
"ca c #343464",
"cb c #4F4F64",
"cc c #252548",
"cd c #292938",
"ce c #333384",
"cf c #3C3C6F",
"cg c #353572",
"ch c #1E1E37",
"ci c #38386B",
"cj c #414156",
"ck c #242454",
"cl c #181831",
"cm c #232349",
"cn c #272739",
"co c #4C4C85",
"cp c #2F2F83",
"cq c #28285B",
"cr c #36366C",
"cs c #48486D",
"ct c #23234C",
"cu c #37377A",
"cv c #20203F",
"cw c #26265C",
"cx c #313174",
"cy c #4C4C60",
"cz c #27273F",
"d` c #3C3C78",
"da c #48485C",
"db c #383874",
"dc c #333379",
"dd c #444458",
"de c #272756",
"df c #32326E",
"dg c #1B1B33",
"dh c #1E1E2C",
"di c #30306C",
"dj c #40407F",
"dk c #292944",
"dl c #212150",
"dm c #141422",
"dn c #323271",
"do c #2D2D76",
"dp c #2E2E6D",
"dq c #21213F",
"dr c #8080BA",
"ds c #23232D",
"dt c #25255A",
"du c #35356D",
"dv c #191937",
"dw c #262651",
"dx c #313169",
"dy c #2C2C6E",
"dz c #22224D",
"e` c #18182C",
"ea c #373786",
"eb c #232344",
"ec c #2B2B63",
"ed c #292961",
"ee c #202037",
"ef c #1C1C33",
"eg c #242452",
"eh c #45456F",
"ei c #535380",
"ej c #1F1F43",
"ek c #2C2C5D",
"el c #3535DD",
"em c #262657",
"en c #393963",
"eo c #242455",
/* pixels */
"``````````````cycyapbgcbcybg````````````",
"``````````dacycsehcsehapehcsddcj````````",
"````````au`cenbraseicibucicibrendd``````",
"``````auau`ccacidudrbpdrcfcrarakau`p````",
"`````p`lbx`nbhbfdxcobpcodjdu`sakalb`bd``",
"`````zbybxbocicgbvbbdn`ydbdfbfekbxbybe``",
"``dh`r`rbl`faidydndn`hd`dnbtecafakdwah`o",
"``dhdqejcqajdfcg`meacu`hbqdfdibi`jblbndh",
"``ch`rbxemaidudnbq`geldcbqdbdn`jafbxbnav",
"``dm`x`bdxdxcwbqdycpdocxdcbvedbkcqalebdg",
"```uccctdzbsag`qbqdpeacxbtaidiagekdwcvdm",
"``dmcl`xeoandtdfbv`wdjcediecbiaydectatch",
"``amdvcm`xaf`kagaodi`qdbbaecanazejdvdv`u",
"````e``xcvandlcqckdtcgagcq`qaqay`tbjef``",
"````dsclaxbwdzdebsckb`acegbjeg`eaaadds``",
"``````eeeeejbzanegdw`abmdl`b`rcnavaw````",
"````````eeczbc`b`dby`dbya``eae`iaw``````",
"``````````bdawa`dkc`aeae`i`i`vab````````",
"``````````````bd`pcdcdbdcdbd````````````",
"````````````````````````````````````````"
};
