/* XPM */
static char *jade4[] = {
/* width height ncolors chars_per_pixel */
"20 20 89 1",
/* colors */
"  c #000000",
". c #1CB11C",
"X c #1AA71A",
"o c #179B17",
"O c #179517",
"+ c #149914",
"@ c #158B15",
"# c #158715",
"$ c #138913",
"% c #148514",
"& c #108710",
"* c #127D12",
"= c #0D830D",
"- c #127912",
"; c #0F7B0F",
": c #107710",
"> c #0F730F",
", c #0E730E",
"< c #0F6F0F",
"1 c #0F650F",
"2 c #0E630E",
"3 c #056B05",
"4 c #086508",
"5 c #0D590D",
"6 c #046704",
"7 c #0B570B",
"8 c #085B08",
"9 c #026302",
"0 c #075907",
"q c #074B07",
"w c #094709",
"e c #084508",
"r c #064706",
"t c #014F01",
"y c #034903",
"u c #014B01",
"i c #024302",
"p c #073907",
"a c #B4F0B4",
"s c #023D02",
"d c #033903",
"f c #003700",
"g c #022B02",
"h c #042504",
"j c #011901",
"k c #001100",
"l c #010D01",
"z c #2CC42C",
"x c #21B621",
"c c #1CB41C",
"v c #22AA22",
"b c #1AAC1A",
"n c #18A818",
"m c #17A217",
"M c #189E18",
"N c #149014",
"B c #119011",
"V c #108210",
"C c #0B800B",
"Z c #0B7C0B",
"A c #117211",
"S c #0B720B",
"D c #0F6A0F",
"F c #087408",
"G c #0C6A0C",
"H c #0A6C0A",
"J c #067006",
"K c #0B620B",
"L c #0D5E0D",
"P c #076007",
"I c #0A540A",
"U c #025E02",
"Y c #055405",
"T c #084E08",
"R c #094A09",
"E c #055005",
"W c #015201",
"Q c #074207",
"! c #083E08",
"~ c #014601",
"^ c #063606",
"/ c #052E05",
"( c #013201",
") c #032803",
"_ c #002400",
"` c #022002",
"' c #011C01",
"] c #011601",
"[ c None",
/* pixels */
"[[[[[[[/Q(sRw^[[[[[[",
"[[[[[!qiD;%*<8q^[[[[",
"[[[[pDH,FVo,P>#1Q[[[",
"[[[wKH%FM%+9FNU0Dp[[",
"[[!L(WmZ.J8mH3XEqL_[",
"[[/Y$W&=C+Cc9YUNP-5[",
"[`L2S6ox$cmxZJBMt-5j",
"[^r#;mmbFvz@xCbXKGf/",
"[w5~N3%B&zaz=6FZu,2p",
"[gDYO49c,vz@nbro@Arj",
"[_Ty*H@o+.V=3bZt%-Ih",
"['(A*W;6yUEJ=yWW>EI`",
"[kQf8-:NHOSOHH;42I)k",
"[[`d2K<4;@HP>#~0fd^[",
"[[l^5dy<84:0,A<T7p][",
"[[['!5iRryYyI12ej`[[",
"[[[[')wd2Q2q7Rw)h[[[",
"[[[[[kg^_w!w/!hk[[[[",
"[[[[[[[l]]j'`l[[[[[[",
"[[[[[[[[[[[[[[[[[[[["
};
