/* XPM */
static char *jade2[] = {
/* width height ncolors chars_per_pixel */
"12 12 77 1",
/* colors */
"  c #000000",
". c #35CB35",
"X c #1AA71A",
"o c #158B15",
"O c #148914",
"+ c #158715",
"@ c #137513",
"# c #107710",
"$ c #0F6D0F",
"% c #0E6B0E",
"& c #0E690E",
"* c #0F650F",
"= c #0E630E",
"- c #0A5F0A",
"; c #036703",
": c #0B570B",
"> c #075D07",
", c #0A550A",
"< c #0C4F0C",
"1 c #0A510A",
"2 c #045704",
"3 c #065106",
"4 c #074D07",
"5 c #074B07",
"6 c #094709",
"7 c #063B06",
"8 c #073907",
"9 c #033D03",
"0 c #033B03",
"q c #053505",
"w c #003D00",
"e c #053105",
"r c #003700",
"t c #042904",
"y c #012301",
"u c #011501",
"i c #1CB41C",
"p c #17A217",
"a c #189E18",
"s c #189A18",
"d c #119011",
"f c #128A12",
"g c #0F8C0F",
"h c #148214",
"j c #138013",
"k c #0F7A0F",
"l c #0B800B",
"z c #0A7A0A",
"x c #0A780A",
"c c #0A760A",
"v c #0B720B",
"b c #0F6A0F",
"n c #0A6A0A",
"m c #056C05",
"M c #056A05",
"N c #076407",
"B c #0D580D",
"V c #0A5C0A",
"C c #046404",
"Z c #075A07",
"A c #045E04",
"S c #055605",
"D c #035003",
"F c #015201",
"G c #B1FFB1",
"H c #034803",
"J c #044604",
"K c #074007",
"L c #083E08",
"P c #024402",
"I c #044004",
"U c #013A01",
"Y c #052E05",
"T c #042C04",
"R c #012A01",
"E c #000A00",
"W c None",
/* pixels */
"WWWW=&9jrWWW",
"WW8IosxC-PRW",
"WW@FCp>Sx3$W",
"WeJ5;livmaZK",
"WI2HgfGsMw+B",
"W,ZNdp.dcsh:",
"W<VAXzcZcI#7",
"Wt5IOvsknSUy",
"WWqU$%#Db4TW",
"WWE601*J0LuW",
"WWWWYeY8tWWW",
"WWWWWWWWWWWW"
};
