/* XPM */
static char *jade4[] = {
/* width height ncolors chars_per_pixel */
"20 20 143 2",
/* colors */
"`` c None",
"`a c #69E169",
"`b c #35CB35",
"`c c #23BD23",
"`d c #1CB11C",
"`e c #1AA71A",
"`f c #169D16",
"`g c #179717",
"`h c #149914",
"`i c #179317",
"`j c #1A8B1A",
"`k c #158B15",
"`l c #148914",
"`m c #158715",
"`n c #148514",
"`o c #0F890F",
"`p c #128312",
"`q c #0E850E",
"`r c #0D830D",
"`s c #0F7F0F",
"`t c #127912",
"`u c #107710",
"`v c #0C7D0C",
"`w c #0E750E",
"`x c #0F730F",
"`y c #0F6F0F",
"`z c #0E6B0E",
"a` c #077307",
"aa c #0F650F",
"ab c #0E630E",
"ac c #0B630B",
"ad c #0D5B0D",
"ae c #036703",
"af c #0B570B",
"ag c #075D07",
"ah c #026502",
"ai c #046104",
"aj c #0A550A",
"ak c #0B530B",
"al c #016101",
"am c #094F09",
"an c #065306",
"ao c #0A4B0A",
"ap c #065106",
"aq c #074D07",
"ar c #054F05",
"as c #074B07",
"at c #084908",
"au c #094709",
"av c #084508",
"aw c #064706",
"ax c #014F01",
"ay c #004B00",
"az c #063B06",
"b` c #073907",
"ba c #004100",
"bb c #013F01",
"bc c #033B03",
"bd c #053505",
"be c #003700",
"bf c #042B04",
"bg c #042904",
"bh c #012301",
"bi c #022102",
"bj c #021B02",
"bk c #011901",
"bl c #011701",
"bm c #011501",
"bn c #011301",
"bo c #010D01",
"bp c #21B621",
"bq c #1CB41C",
"br c #22AA22",
"bs c #1AAC1A",
"bt c #18A818",
"bu c white",
"bv c #18A418",
"bw c #17A217",
"bx c #189E18",
"by c #189A18",
"bz c #149014",
"c` c #119011",
"ca c #128A12",
"cb c #128612",
"cc c #127E12",
"cd c #127C12",
"ce c #107C10",
"cf c #0F7A0F",
"cg c #0B800B",
"ch c #0E780E",
"ci c #0B7C0B",
"cj c #117211",
"ck c #0A7A0A",
"cl c #0E720E",
"cm c #0A760A",
"cn c #106A10",
"co c #0B720B",
"cp c #0F6A0F",
"cq c #0A6E0A",
"cr c #0B6C0B",
"cs c #0A6A0A",
"ct c #0B680B",
"cu c #067006",
"cv c #0A660A",
"cw c #056C05",
"cx c #0B620B",
"cy c #0D5E0D",
"cz c #056A05",
"d` c #066806",
"da c #076407",
"db c #0D580D",
"dc c #076007",
"dd c #0A5A0A",
"de c #075A07",
"df c #085808",
"dg c #045E04",
"dh c #015E01",
"di c #055605",
"dj c #015201",
"dk c #034C03",
"dl c #034A03",
"dm c #074207",
"dn c #034803",
"do c #044604",
"dp c #083E08",
"dq c #014601",
"dr c #044004",
"ds c #053805",
"dt c #063606",
"du c #013A01",
"dv c #023802",
"dw c #052E05",
"dx c #013401",
"dy c #042C04",
"dz c #013001",
"e` c #042604",
"ea c #012A01",
"eb c #022802",
"ec c #042404",
"ed c #002600",
"ee c #022002",
"ef c #011E01",
"eg c #001000",
/* pixels */
"``````````````dwdmdzbbaoauds````````````",
"``````````dpasba`zce`ncd`yddasdt````````",
"````````azcpcr`wcm`sbycldc`x`maadm``````",
"``````aucxcr`ncmbxcb`halcmbzdgdecpaz````",
"````dpcydzdjbwci`dcuagbvcrcz`eapascybh``",
"````dwan`ldj`o`rcg`hcgbqahdidhbzdc`tdb``",
"``bicyabcod``fbpcabqbw`cckcuc`bxax`tdbbk",
"``bdaw`mcfbvbwbsa`br`a`jbpcgbs`eacctbedy",
"``auaddqbzczcbc``o`abu`b`qaecm`vayclabb`",
"``eacnan`idaaibqclbr`b`jbtbsdoby`kcjawbk",
"``bhamdlcccq`k`f`h`d`p`rcwbs`vax`n`taje`",
"``efdxcjcddjced`dndharcu`rdndjdj`xarakee",
"``bndmbedd`tchbzcs`ico`gcscqcecvabajebbn",
"````eebcabcx`ycvce`kcqdc`x`mdqdfbedvdt``",
"````bodtaddudk`yagcv`udeclcj`yaqafb`bl``",
"``````bjdpdbdratdodlandkajaaabavbkee````",
"````````bjebaudvabdmabasafaoaubgec``````",
"``````````egbfdtedaudpaudwdpecbn````````",
"``````````````bobmbmbkbjeebo````````````",
"````````````````````````````````````````"
};
