/* XPM */
static char *jade5[] = {
/* width height ncolors chars_per_pixel */
"24 24 92 1",
/* colors */
"  c #000000",
". c #28B328",
"X c #19A519",
"o c #149114",
"O c #108F10",
"+ c #128312",
"@ c #137B13",
"# c #107D10",
"$ c #127912",
"% c #0D810D",
"& c #0C7B0C",
"* c #0F6F0F",
"= c #0F6B0F",
"- c #087508",
"; c #0A710A",
": c #0C6B0C",
"> c #0E670E",
", c #0E630E",
"< c #056F05",
"1 c #056B05",
"2 c #0D5B0D",
"3 c #0A5F0A",
"4 c #046704",
"5 c #0A550A",
"6 c #0A530A",
"7 c #0A4D0A",
"8 c #0A4B0A",
"9 c #055105",
"0 c #015701",
"q c #074107",
"w c #014901",
"e c #014501",
"r c #073907",
"t c #014101",
"y c #033D03",
"u c #053705",
"i c #063306",
"p c #053105",
"a c #042904",
"s c #011501",
"d c #8DF08D",
"f c #1CB41C",
"g c #1AAC1A",
"h c #17A217",
"j c #189A18",
"k c #159C15",
"l c #199419",
"z c #159615",
"x c #148A14",
"c c #128A12",
"v c #148614",
"b c #108610",
"n c #0F760F",
"m c #0F720F",
"M c #0A6E0A",
"N c #0B680B",
"B c #0A660A",
"V c #0B620B",
"C c #0C600C",
"Z c #0D5E0D",
"A c #0D580D",
"S c #0A5C0A",
"D c #046404",
"F c #075E07",
"G c #046204",
"H c #0A580A",
"J c #075A07",
"K c #0B500B",
"L c #025C02",
"P c #045604",
"I c #074A07",
"U c #054C05",
"Y c #025002",
"T c #074607",
"R c #044604",
"E c #073C07",
"W c #044004",
"Q c #013C01",
"! c #033603",
"~ c #003800",
"^ c #052E05",
"/ c #042C04",
"( c #013001",
") c #022C02",
"_ c #012A01",
"` c #022602",
"' c #012201",
"] c #011E01",
"[ c #011A01",
"{ c #000E00",
"} c #000A00",
"| c None",
/* pixels */
"|||||||||E^TA6Tu||||||||",
"|||||||8,9>Ny9+w~7||||||",
"|||||`!SVFonLW~n+$Zu||||",
"||||r5Wmxoj4&mD03Fe2_|||",
"|||aW>YM0j+#D&Q&XRvV_s||",
"|||q$FYjDzhGFgPo&b9Q*p||",
"||r5Nxn1kkUBofGb+Pjl*2E|",
"||pZRoIX4o%fff;c1-jLJSq|",
"|`qR!;;kf<kj.v<k4%Dl$mK]",
"|^WqPlR<Okcdd.jf1LQSvSA`",
"|ry)e+#cJ<jddd.F&zMD+eZ/",
"|p5UJVD4Oohj.xO%-Jj$+*HE",
"|/qZ3##LXLgXS<4gj;Rx*Syu",
"|'KQSvL0XD&+-fJ0-;WvnZE'",
"|{u`*tIT#bcb00*&D@:=,78{",
"||a(IQWwxv;jje#BNBPUQA'|",
"||'T(5Sn=yN+;+YJvT35Ai[|",
"|||`u6Q=*$=BnVYm=VI,/[||",
"|||}a'2QWI>e3V9qCHIu'{||",
"||||}uT(yWKR>5R2y!Eis|||",
"|||||}/i88((KA()_Ea{||||",
"|||||||}^/pi^]r'as||||||",
"|||||||||{[s[[s}||||||||",
"||||||||||||||||||||||||"
};
