/* XPM */
static char *jade8[] = {
/* width height ncolors chars_per_pixel */
"44 44 189 2",
/* colors */
"`` c None",
"`a c #69E169",
"`b c #35CB35",
"`c c #23BD23",
"`d c #1CB11C",
"`e c #1AA71A",
"`f c #169D16",
"`g c #179717",
"`h c #149914",
"`i c #179317",
"`j c #139713",
"`k c #149514",
"`l c #1A8B1A",
"`m c #159315",
"`n c #129312",
"`o c #158B15",
"`p c #128D12",
"`q c #148914",
"`r c #158715",
"`s c #148514",
"`t c #0F890F",
"`u c #128312",
"`v c #0F870F",
"`w c #0E850E",
"`x c #108110",
"`y c #0D830D",
"`z c #0F7F0F",
"a` c #127912",
"aa c #137513",
"ab c #107710",
"ac c #0C7D0C",
"ad c #0E750E",
"ae c #0F730F",
"af c #0F6F0F",
"ag c #0F6D0F",
"ah c #0E6B0E",
"ai c #0E690E",
"aj c #077307",
"ak c #0F650F",
"al c #0E630E",
"am c #0B630B",
"an c #0D5B0D",
"ao c #0A5F0A",
"ap c #036703",
"aq c #0B570B",
"ar c #075D07",
"as c #026502",
"at c #046104",
"au c #0A550A",
"av c #0B530B",
"aw c #016101",
"ax c #0C4F0C",
"ay c #0A510A",
"az c #025B02",
"b` c #094F09",
"ba c #045704",
"bb c #0A4D0A",
"bc c #065306",
"bd c #0A4B0A",
"be c #065106",
"bf c #015901",
"bg c #074D07",
"bh c #054F05",
"bi c #074B07",
"bj c #084908",
"bk c #094709",
"bl c #084508",
"bm c #064706",
"bn c #014F01",
"bo c #004B00",
"bp c #063D06",
"bq c #063B06",
"br c #073907",
"bs c #033D03",
"bt c #004100",
"bu c #013F01",
"bv c #033B03",
"bw c #053505",
"bx c #003D00",
"by c #063306",
"bz c #053105",
"c` c #023502",
"ca c #003700",
"cb c #042B04",
"cc c #042904",
"cd c #012301",
"ce c #022102",
"cf c #011D01",
"cg c #021B02",
"ch c #011901",
"ci c #011701",
"cj c #011501",
"ck c #011301",
"cl c #010D01",
"cm c #21B621",
"cn c #1CB41C",
"co c #22AA22",
"cp c #1AAC1A",
"cq c #18A818",
"cr c #1F9C1F",
"cs c #18A418",
"ct c #17A217",
"cu c #189E18",
"cv c #189A18",
"cw c #149C14",
"cx c #149014",
"cy c #119011",
"cz c #128A12",
"d` c #0F8C0F",
"da c #128612",
"db c #148214",
"dc c #138013",
"dd c #127E12",
"de c #127C12",
"df c #107C10",
"dg c #0F7A0F",
"dh c #0B800B",
"di c #0E780E",
"dj c #0B7C0B",
"dk c #117211",
"dl c #0A7A0A",
"dm c #0E720E",
"dn c #0A780A",
"do c #0A760A",
"dp c #106A10",
"dq c #0B720B",
"dr c #0F6A0F",
"ds c #0A6E0A",
"dt c #0B6C0B",
"du c #0A6A0A",
"dv c #0B680B",
"dw c #067006",
"dx c #0C660C",
"dy c #0A660A",
"dz c #056E05",
"e` c #056C05",
"ea c #0B620B",
"eb c #0C600C",
"ec c #0D5E0D",
"ed c #056A05",
"ee c #066806",
"ef c #076407",
"eg c #0D580D",
"eh c #0A5C0A",
"ei c #076007",
"ej c #046404",
"ek c #0A5A0A",
"el c #075A07",
"em c #085808",
"en c #045E04",
"eo c #095409",
"ep c #015E01",
"eq c #055605",
"er c #055405",
"es c #015601",
"et c #015401",
"eu c #035003",
"ev c #015201",
"ew c #034C03",
"ex c #034A03",
"ey c #B1FFB1",
"ez c #074207",
"f` c #034803",
"fa c #044604",
"fb c #074007",
"fc c #083E08",
"fd c #014601",
"fe c #024402",
"ff c #034203",
"fg c #044004",
"fh c #053805",
"fi c #063606",
"fj c #013A01",
"fk c #023802",
"fl c #052E05",
"fm c #013401",
"fn c #013201",
"fo c #042C04",
"fp c #013001",
"fq c #012E01",
"fr c #012C01",
"fs c #042604",
"ft c #012A01",
"fu c #022802",
"fv c #042404",
"fw c #002600",
"fx c #022002",
"fy c #011E01",
"fz c #001000",
/* pixels */
"````````````````````````````````````````````br``````````````````````````````````````````",
"````````````````````````````````bzftfkbvavakbsavb`aqbwfbfc``````````````````````````````",
"````````````````````````````bwfgalaldpafafbcecebdkbubic`bpfmfq``````````````````````````",
"````````````````````````fhavaubgbldkerahdbaoauekdeewaof`eadpfffmbw``````````````````````",
"````````````````````fobbfaemdrewdrardfdfduekama`eoelamdydbfdbjaiakbbch``````````````````",
"``````````````````fravakexamam`q`scx`odidiaoffdxenfaevdddyabeqfdembgaqbl````````````````",
"````````````````bpbmekbeabdbdg`z`ods`z`mdqafeeatew`u`zemffba`rfdfdbubxbmft``````````````",
"``````````````fbfkaufe`sdd`q`zdqdn`gcxdo`e`ydtfaedfeejdqczdg`qeuboecf`fjfmby````````````",
"````````````fcecakbha`eaeuesefescz`f`yawdme`d`cpdzcsbf`ydocvdiekdebnfkaibiaybr``````````",
"``````````fybjb`exbtei`odgdacxaoeddodydiapcucs`dd`asep`y`f`mcsdqdc`oabemaaecbzcd````````",
"``````````bqayagbhewdtev`zcs`pdmctcp`fdhaj`eard`cp`wewas`jedaj`pefbeelb`emecanfh````````",
"````````blegdpdxeleq`idd`xeebucscncncyepawewfeeierajcpcn`nbfepcz`pefabdddyekdpavfc``````",
"````````c`egekeheu`udufjdm`z`edj`fcmapdiczapascq`cdjdtawapelbceadjcu`gdgeidcecalbw``````",
"``````fobrffbedd`rdqdyabdscudlasdncpfe`fcq`h`ccn`j`jeicsdy`mdvdz`uejenbob`afemecegfo````",
"``````bqegdpfeafba`ocudvdncpcy`tcnd`dzct`c`jcq`ccndncndnaraj`ke`dzesevdueqdvekdpblfl````",
"````fvfpanaqbpddbobhaecu`fdhctcq`h`m`tdjct`o`rcm`eaj`ycqcpdwaj`nedatbhexefdbddbgakbqch``",
"````fuftegbuembo`s`xdsencvcscncncycsdjdi`l`b`b`b`ldkcq`cd`eiedbf`gbfffahbe`rdkexezbrfi``",
"````cdbkakbuemfddgdgcvemaj`hac`dcmcme``l`b`a`aey`aeccu`d`yedbuea`u`qcababo`raoembzfuce``",
"````fcbdbmbuamfmdm`i`gbfeaarap`t`dfecu`b`aeyeyey`aco`dcmcy`eeddw`pencxfmdxafdxexfac`fc``",
"````bravalbifkbmei`xcvdqatdwcpawcndwcx`b`aeyeyey`bdpdodo`das`j`w`pdsbuazel`rfdbeakfpfl``",
"````fcblbwehbe`rarbadu`mdncsbtdncqedcpco`b`a`a`acrcodnctajcsacdjcu`xdidqdsa`dkbealbjbr``",
"``cgflfkb`bgamfdbndxazef`eeedzcsctdldh`ccocr`b`b`lef`hcyac`h`gfecscvendddgddehffanegbzfz",
"````bzbqfmaqbtam`sarahds`uazcuct`nbudhcqcmcr`cdi`demd``fcwcs`p`p`edi`xdqdmdbeheobqegfy``",
"````flfpblffaoeldd`o`xadabes`kcu`tepcq`fcnapdm`pajedej`f`d`fctdobfdddy`rababemecfgc`cc``",
"````fuftegfgaiela``s`ibacxevaz`w`ndfctcndwaje`cpctdl`zbx`ycu`xdsdxebdm`raoahagdpbdaxfl``",
"````fxbkayfmebaidbdeeuaret`iefcu`m`oazedawdzepd`cybfajczbfdseeaz`sdberafdca`aqakblfufx``",
"````ccfwezfbbmaaamahfpehfmbc`sdg`eeebxazdw`gazajdwfeaz`vdncaehbseo`sdvdedkaialbsaxfvfx``",
"````fzccblbjayaubcf`alfkeoeles`g`gcs`e`pcu`wcuf`el`idfaoabdydgbabo`o`sfeewakcdfpfrcfcj``",
"``````flfwbjbdffaffedbauffdydy`o`gdqefef`icu`xdccxfa`xeeef`gdy`ua`aobiakbjbgecfpbybz````",
"``````cecdbdbybvebbgbmewew`rddadcx`o`u`icvcvdicvahatdyei`oefbob`eualdkewdpblblfibyce````",
"````````cefcfxc`fjekftekdedddcdyetafefdfda`gdq`qdgeiafbe`r`seuafbcekaibgfmfnaxfuby``````",
"````````fvbzezc`fmaybgbuamafddaofdbobaaddmdcdsdydteiboeoabdcagbcaaemdpaqfkfyfpbycj``````",
"``````````chfibdfiavegfjfwbudeabbhfdei`sdy`rabdtameiardbaofkbeamecbgecanfqfwcdch````````",
"``````````clflfcfpbqanecauaudkdka`a`a`dxagdxaheqeabhdxagbtdkdralauakfgaxfhbrfxcj````````",
"````````````cjfxbrfrbkanalfgbkbbbibudrf`exfpemdxemehbhemexalecalbibjbkfqfucech``````````",
"``````````````fzcffobzaxbdanauffblezdkfafec`ftfeekb`alfralaqanblayavbrcbflfx````````````",
"````````````````cjflccfcfcc`c`fgfmbjavavbsaub`fqdpb`bwegecfmccbqezbzbzflci``````````````",
"``````````````````chcjcccdbkfcfhfregbkaxc`bjbsfkavfgc`c`bpbkbdbdfccffvfz````````````````",
"````````````````````clcjbzbzfifcbrezbkfnbzbpaxbkbkfbfhbzfcftfiflcffxcl``````````````````",
"````````````````````````clfsflfoficbbzflbqftbqftchfublfofuflcgcgcj``````````````````````",
"````````````````````````````cjckchckcefvfsfufsfychciflflcgckfz``````````````````````````",
"````````````````````````````````clclfzcjchcgcicgfxfvcgcjcl``````````````````````````````",
"````````````````````````````````````````````cl``````````````````````````````````````````",
"````````````````````````````````````````````````````````````````````````````````````````"
};
