/* XPM */
static char *jade5[] = {
/* width height ncolors chars_per_pixel */
"24 24 169 2",
/* colors */
"`` c None",
"`a c #69E169",
"`b c #35CB35",
"`c c #23BD23",
"`d c #1CB11C",
"`e c #1AA71A",
"`f c #169D16",
"`g c #149914",
"`h c #179317",
"`i c #139713",
"`j c #149514",
"`k c #1A8B1A",
"`l c #159315",
"`m c #129312",
"`n c #158B15",
"`o c #148914",
"`p c #158715",
"`q c #148514",
"`r c #128312",
"`s c #0F870F",
"`t c #0E850E",
"`u c #108110",
"`v c #0D830D",
"`w c #0F7F0F",
"`x c #127912",
"`y c #137513",
"`z c #107710",
"a` c #0C7D0C",
"aa c #0E750E",
"ab c #0F730F",
"ac c #0F6F0F",
"ad c #0F6D0F",
"ae c #0E6B0E",
"af c #0E690E",
"ag c #077307",
"ah c #0F650F",
"ai c #0E630E",
"aj c #0B630B",
"ak c #0D5B0D",
"al c #0A5F0A",
"am c #036703",
"an c #0B570B",
"ao c #075D07",
"ap c #0A550A",
"aq c #0B530B",
"ar c #016101",
"as c #0C4F0C",
"at c #0A510A",
"au c #025B02",
"av c #045704",
"aw c #0A4D0A",
"ax c #065306",
"ay c #0A4B0A",
"az c #065106",
"b` c #015901",
"ba c #074D07",
"bb c #054F05",
"bc c #074B07",
"bd c #084908",
"be c #094709",
"bf c #084508",
"bg c #064706",
"bh c #014F01",
"bi c #004B00",
"bj c #063B06",
"bk c #073907",
"bl c #033D03",
"bm c #004100",
"bn c #033B03",
"bo c #053505",
"bp c #003D00",
"bq c #063306",
"br c #053105",
"bs c #003700",
"bt c #042B04",
"bu c #042904",
"bv c #012301",
"bw c #022102",
"bx c #011D01",
"by c #021B02",
"bz c #011901",
"c` c #011701",
"ca c #011501",
"cb c #011301",
"cc c #010D01",
"cd c #1CB41C",
"ce c #1AAC1A",
"cf c #1F9C1F",
"cg c #18A418",
"ch c #17A217",
"ci c #189E18",
"cj c #189A18",
"ck c #149C14",
"cl c #149014",
"cm c #119011",
"cn c #128A12",
"co c #0F8C0F",
"cp c #128612",
"cq c #148214",
"cr c #138013",
"cs c #127C12",
"ct c #0F7A0F",
"cu c #0B800B",
"cv c #0B7C0B",
"cw c #117211",
"cx c #0A7A0A",
"cy c #0E720E",
"cz c #0A780A",
"d` c #0A760A",
"da c #106A10",
"db c #0B720B",
"dc c #0F6A0F",
"dd c #0A700A",
"de c #0A6E0A",
"df c #0B6C0B",
"dg c #0A6A0A",
"dh c #067006",
"di c #0C660C",
"dj c #0A660A",
"dk c #056E05",
"dl c #056C05",
"dm c #0B620B",
"dn c #0C600C",
"do c #0D5E0D",
"dp c #056A05",
"dq c #066806",
"dr c #076407",
"ds c #0D580D",
"dt c #0A5C0A",
"du c #076007",
"dv c #046404",
"dw c #0A5A0A",
"dx c #075A07",
"dy c #045E04",
"dz c #095409",
"e` c #015E01",
"ea c #055605",
"eb c #015601",
"ec c #035003",
"ed c #015201",
"ee c #034C03",
"ef c #034A03",
"eg c #B1FFB1",
"eh c #074207",
"ei c #034803",
"ej c #044604",
"ek c #074007",
"el c #083E08",
"em c #014601",
"en c #024402",
"eo c #034203",
"ep c #044004",
"eq c #053805",
"er c #063606",
"es c #013A01",
"et c #023802",
"eu c #052E05",
"ev c #042C04",
"ew c #013001",
"ex c #012E01",
"ey c #012C01",
"ez c #012A01",
"f` c #022802",
"fa c #042404",
"fb c #002600",
"fc c #022002",
"fd c #011E01",
"fe c #001000",
"ff c #000A00",
/* pixels */
"``````````````````eleubedsaqbfer````````````````",
"``````````````ayaibbafdiblbbcrefbsaw````````````",
"``````````f`etdtajaoclaadyeobsaacq`ydoer````````",
"````````bkapepab`n`lcjdqczcydvb`alduenakez``````",
"``````buepafbhdeebcj`u`wdvcvbpa`cgej`qdmezc`````",
"``````ek`yduedcidv`icharaoceea`mcz`tazesadbr````",
"````bkapdi`naadl`f`feedj`lcdar`t`reacj`hacakel``",
"````brdoejclbc`eam`mcucdcdcddbcndlagcidydxdwek``",
"``faeheietdbdb`gcddk`fcf`b`pdkckam`vdv`h`xcwatfd",
"``euepehav`heidhcockcn`aeg`bcjcddpe`bpdw`pdwdsf`",
"``bkbleyem`r`wcndxdhci`aeg`a`caocv`jdedrcqendoev",
"``brapeedxajdrdqcm`mchcf`b`kcmcud`dxcj`xcqadanel",
"``evehdoalctctau`ee`cecgdtdhamceciddei`nacdwbner",
"``fcasbpdt`pdyeb`edvcx`rd``ddxb`d`ddep`p`zdobjbw",
"``cceqfbacbmbabg`w`scn`sebebacczdrcsdfaeaiawayfe",
"````buexbcbpepbi`ocpdbcicjenctdjdgdjeaeeesdsbv``",
"````fcbfewdzdw`zaebldg`rdb`ueddx`qbgaldzdsbqby``",
"``````faboaqesdaad`xaedj`zajecabdcajbaaievbz````",
"``````ffbubvakeseobaafenalajaxehdnanbdeqbwcc````",
"````````fferbeewbnepatejahdzejakbnetelbqca``````",
"``````````ffbtbqayayewewasdseweyezelbucc````````",
"``````````````ffeuevbrbqeubxbkbvbuca````````````",
"``````````````````ccbyc`bybycbff````````````````",
"````````````````````````````````````````````````"
};
