/* XPM */
static char *jade8[] = {
/* width height ncolors chars_per_pixel */
"44 44 92 1",
/* colors */
"  c #000000",
". c #35CB35",
"X c #19A719",
"o c #169B16",
"O c #159715",
"+ c #159115",
"@ c #129512",
"# c #158715",
"$ c #148514",
"% c #108B10",
"& c #127F12",
"* c #0F7B0F",
"= c #127312",
"- c #0F750F",
"; c #0C790C",
": c #0A770A",
"> c #0D6D0D",
", c #0C690C",
"< c #067106",
"1 c #0D650D",
"2 c #0E630E",
"3 c #0B630B",
"4 c #0C5F0C",
"5 c #0B5B0B",
"6 c #075D07",
"7 c #025F02",
"8 c #065706",
"9 c #025702",
"0 c #084D08",
"q c #035103",
"w c #064706",
"e c #074307",
"r c #034903",
"t c #014B01",
"y c #073F07",
"u c #063D06",
"i c #053105",
"p c #023502",
"a c #013301",
"s c #022D02",
"d c #022B02",
"f c #022702",
"g c #022302",
"h c #011F01",
"j c #8DF08D",
"k c #21AC21",
"l c #1CB41C",
"z c #1BAE1B",
"x c #18A418",
"c c #17A217",
"v c #199419",
"b c #148A14",
"n c #118E11",
"m c #148214",
"M c #108610",
"N c #0E820E",
"B c #127A12",
"V c #0D7E0D",
"C c #0C720C",
"Z c #0F6A0F",
"A c #076C07",
"S c #0A660A",
"D c #0A600A",
"F c #046804",
"G c #0D580D",
"H c #076007",
"J c #046404",
"K c #0A580A",
"L c #075A07",
"P c #095409",
"I c #0A520A",
"U c #035C03",
"Y c #0B4E0B",
"T c #065206",
"R c #064E06",
"E c #084808",
"W c #024602",
"Q c #034203",
"! c #063A06",
"~ c #014201",
"^ c #033E03",
"/ c #043804",
"( c #003E00",
") c #053405",
"_ c #013801",
"` c #052E05",
"' c #013001",
"] c #011C01",
"[ c #011801",
"{ c #011401",
"} c #000E00",
"| c None",
/* pixels */
"||||||||||||||||||||||!|||||||||||||||||||||",
"||||||||||||||||id_^I2^I0K)yy|||||||||||||||",
"||||||||||||||)Q22Z>>T44=(0puas|||||||||||||",
"||||||||||||/IP0e=TZmDP5BrDr3ZQa)|||||||||||",
"||||||||||`YWLZrZ6**,53BPL3SmWEZ2Y[|||||||||",
"|||||||||sI2r33b$+b;;DQ1UWq&S-8WL0Ke||||||||",
"||||||||uw5T-m*Vb>V+C>FJrmVLQ8#WW((wd|||||||",
"|||||||y_PW$&bVC:O+:XN>WFWJCb*bqt4r_a)||||||",
"||||||y42RB3q9H9boN7CA%z<x9N:o;5Bq_Z0I!|||||",
"|||||hE0r~Hb*M+DF:S;Foxl%J7No+xC&b-L=4ig||||",
"|||||!I>Rr>qVxnCczoV<X6%zMrJ@F<nHTL0L45/||||",
"||||eGZ1L8v&NF(xlln77rWHT<zl@97bnH-&S5ZIy|||",
"||||pG55qm,_CVX;olF;bFJXl;>7FLT3;oO*H&42)|||",
"|||`!QT&#CS->o;J:zWoXOll@@HxS+,<mJUt0>L4G`||",
"|||!GZW>8bo,:zn%l%<cl@Xll:l:6<OA<9q,8,5Ze`||",
"||g'5Ku&tR-ooVcXO+%;cb#lX<NXz<<@FJRrHm&02![|",
"||fdG(Lt$N>Uoxllnx;;#...#=Xl%HF9O9QZT#=re!)|",
"||gE2(LW**oL<OVlllA#.jjjj4olNF(3mb_8t#DLifg|",
"||yYw(3aCvO936F%lWo.jjjjjkllnXF<nU+a1>1rWpy|",
"||!I20_wHNoCJ<z7l<+.jjjj.Z::lJ@Mn>(UL#WT2'`|",
"||ye)5T#68,+:x~:XFzk.jjjvk:c<xV;oN;C>B=T2E!|",
"|]`_003Wq1UHXF<xc;Vlkv..#HOnVOOWxoU&*&5Q5Gi}",
"||i!aK~3$6Z>mUoc@(VXlvl;lL%ooxnnX;NCCm5P!Gh|",
"||`'eQDL&bN--9Oo%7XolFCn<FJoloc:9&S#--L4Qpd|",
"||fdGQZLB$v8+qUM@*cl<<Azc;V(NoN>14C#DZ>ZYY`|",
"||hEIa4ZmBq69vHo+bUF7<7%n9<b9>FU$mT>&BK2efh|",
"||dfeyw=3Z'5aT$*XF(U<OU<<WUM:_5^P$,B=Z2^Ygh|",
"||}deEIPTr2_PL9OOxXnoMorLv*D-S*8tb$Wr2g's]{|",
"|||`fEYQ>WmPQSSbOCHHvoN&+WNFHOSmBD02E04')i||",
"|||ggY)^40wrr#&-+bmvoo;oZJSHbHt0q2=rZee))g||",
"||||gyhp_5d5B&&S9>H*MOCb*H>T#$q>T5Z0aaYf)|||",
"||||giepaI0(3>&DWt8-C&>S>HtP-&>T=LZK_h'){|||",
"|||||[)Y)IG_f(B-RWH$S#->3H6mD_T34045sfg[||||",
"|||||}`y'!54PP==BBB1>1Z83R1>~=Z2P2QY/!h{||||",
"||||||{h!sE52QEY0(Zrr'L1L5RLr2420EEsfg[|||||",
"|||||||}]`iYY5PQee=WWpdW502s2K5eII!d`h||||||",
"||||||||{`dyyppQaEII^P0sZ0)G4ad!eii`[|||||||",
"|||||||||[{dgEy/sGEYpE^_IQppuEYYy]g}||||||||",
"||||||||||}{ii)y!eEaiuYEEy/iyd)`]h}|||||||||",
"||||||||||||}f``)di`!d!d[fe`f`]]{|||||||||||",
"||||||||||||||{{[{ggfffh[[``]{}|||||||||||||",
"||||||||||||||||}}}{[][]hg]{}|||||||||||||||",
"||||||||||||||||||||||}|||||||||||||||||||||",
"||||||||||||||||||||||||||||||||||||||||||||"
};
