/* XPM */
static char *jade6[] = {
/* width height ncolors chars_per_pixel */
"30 30 185 2",
/* colors */
"`` c None",
"`a c #69E169",
"`b c #35CB35",
"`c c #23BD23",
"`d c #1CB11C",
"`e c #1AA71A",
"`f c #169D16",
"`g c #179717",
"`h c #149914",
"`i c #179317",
"`j c #139713",
"`k c #149514",
"`l c #1A8B1A",
"`m c #159315",
"`n c #129312",
"`o c #158B15",
"`p c #128D12",
"`q c #148914",
"`r c #158715",
"`s c #148514",
"`t c #0F890F",
"`u c #128312",
"`v c #0F870F",
"`w c #0E850E",
"`x c #108110",
"`y c #0D830D",
"`z c #0F7F0F",
"a` c #127912",
"aa c #137513",
"ab c #107710",
"ac c #0C7D0C",
"ad c #0E750E",
"ae c #0F730F",
"af c #0F6F0F",
"ag c #0F6D0F",
"ah c #0E6B0E",
"ai c #0E690E",
"aj c #077307",
"ak c #0F650F",
"al c #0E630E",
"am c #0B630B",
"an c #0D5B0D",
"ao c #0A5F0A",
"ap c #036703",
"aq c #0B570B",
"ar c #075D07",
"as c #026502",
"at c #046104",
"au c #0A550A",
"av c #0B530B",
"aw c #0C4F0C",
"ax c #0A510A",
"ay c #025B02",
"az c #094F09",
"b` c #045704",
"ba c #065306",
"bb c #0A4B0A",
"bc c #065106",
"bd c #015901",
"be c #074D07",
"bf c #054F05",
"bg c #074B07",
"bh c #084908",
"bi c #094709",
"bj c #084508",
"bk c #064706",
"bl c #014F01",
"bm c #004B00",
"bn c #063D06",
"bo c #063B06",
"bp c #073907",
"bq c #033D03",
"br c #004100",
"bs c #013F01",
"bt c #033B03",
"bu c #053505",
"bv c #003D00",
"bw c #063306",
"bx c #053105",
"by c #023502",
"bz c #003700",
"c` c #042B04",
"ca c #042904",
"cb c #012301",
"cc c #022102",
"cd c #011D01",
"ce c #021B02",
"cf c #011901",
"cg c #011701",
"ch c #011501",
"ci c #011301",
"cj c #010D01",
"ck c #21B621",
"cl c #1CB41C",
"cm c #22AA22",
"cn c #1AAC1A",
"co c #18A818",
"cp c #1F9C1F",
"cq c #18A418",
"cr c #17A217",
"cs c #189E18",
"ct c #189A18",
"cu c #149C14",
"cv c #149014",
"cw c #119011",
"cx c #128A12",
"cy c #0F8C0F",
"cz c #128612",
"d` c #148214",
"da c #138013",
"db c #127E12",
"dc c #127C12",
"dd c #107C10",
"de c #0F7A0F",
"df c #0B800B",
"dg c #0E780E",
"dh c #0B7C0B",
"di c #117211",
"dj c #0A7A0A",
"dk c #0E720E",
"dl c #0A780A",
"dm c #0A760A",
"dn c #106A10",
"do c #0B720B",
"dp c #0F6A0F",
"dq c #0A6E0A",
"dr c #0B6C0B",
"ds c #0A6A0A",
"dt c #0B680B",
"du c #067006",
"dv c #0C660C",
"dw c #0A660A",
"dx c #056E05",
"dy c #056C05",
"dz c #0B620B",
"e` c #0C600C",
"ea c #0D5E0D",
"eb c #056A05",
"ec c #066806",
"ed c #076407",
"ee c #0D580D",
"ef c #0A5C0A",
"eg c #076007",
"eh c #046404",
"ei c #0A5A0A",
"ej c #075A07",
"ek c #085808",
"el c #045E04",
"em c #095409",
"en c #015E01",
"eo c #055605",
"ep c #055405",
"eq c #015601",
"er c #035003",
"es c #015201",
"et c #034C03",
"eu c #B1FFB1",
"ev c #074207",
"ew c #034803",
"ex c #044604",
"ey c #074007",
"ez c #083E08",
"f` c #014601",
"fa c #024402",
"fb c #044004",
"fc c #053805",
"fd c #063606",
"fe c #013A01",
"ff c #023802",
"fg c #052E05",
"fh c #013401",
"fi c #013201",
"fj c #042C04",
"fk c #013001",
"fl c #012E01",
"fm c #012C01",
"fn c #042604",
"fo c #012A01",
"fp c #022802",
"fq c #042404",
"fr c #002600",
"fs c #022002",
"ft c #011E01",
"fu c #001000",
"fv c #000A00",
/* pixels */
"````````````````````````fpfmbbavbyfoca``````````````````````",
"``````````````````bwfhdndnafa`fkagbsbgeeeycc````````````````",
"````````````````eebgagakahdbdw`sblf`aff`bqbgfh``````````````",
"````````````fpanbsamejde`qdo`iefbdbzfeegd`ekbcavbx``````````",
"``````````bpazaaa`dd`octdgcq`odlaodqecbdaob`aketbgfo````````",
"````````fpaxdzd``r`ses`gcsdten`hdfdddmec`peldceidpbkfg``````",
"````````ffeiaaa`elcsecdyajdeckepclcvascn`v`eaierf`diee``````",
"``````cbanf`bm`xczdheh`dcnckerapeb`fcw`hcvcxecexdcagalbi````",
"````fqfgemet`qatfe`tdl`hdfeoerdf`c`was`g`xencz`iegeodneece``",
"````bpakbaex`odeeb`eapcl`fcqcrcl`c`t`eardyayddategeje`eeft``",
"````fcdnau`raees`fcwcncydxdx`e`lckduclajducwctbzbqaba`azbu``",
"``chflbkbfbmdeecebcrclcnajab`b`a`acmckcwcncnczfaamabaibzbofu",
"``fqbbeadzet`q`icndwdhcn`y`b`aeu`a`l`c`jdfduacahbs`rdzdibobw",
"``ftavazeaepeg`xdmaccvclcycm`aeu`acpap`f`wcwctay`q`rfadncbfg",
"``fseydndzej`ieqeqatcwcrdk`c`l`b`lcpcodhdmexdqed`od`eibkeefg",
"``fqbofbaiahdaedcveccraj`t`hdj`daj`d`ncucs`m`e`z`qahetazbbfq",
"``chfmazefaoadczeqdbdh`pdm`dduebcldfbddl`pdmesed`sd`alalbicd",
"``cjbxfheidvdcfbblddcscxew`icqbf`wdr`yacehesbebmaeaaexavceci",
"````cbevfcdibafkfbes`qcs`kctctctekdebsesdqblb`ddf`aoakbpch``",
"````ftcdbhbgexake`eg`q`gdqdocsctfebs`udrdsdkegbraqfebbbbcf``",
"````cjfscbfhalbqabafdkeodd`x`odqddedaedgddf`bfaabzbbbifdfv``",
"``````fqezeeeefefaafdtbmardb`oabdwegbmdcbcbaemakeafjfpfq````",
"````````fnbifcaxbgbvdpdvdcafdwdadweraeanaoageaaqawbucc``````",
"````````fvfqezaweafbfkeaexbvagbaeiaoaubce`aleeavcffsch``````",
"``````````fvbxbpbnfibtbzakavfeakbgeabzakbtbobjfjbxch````````",
"````````````cjcefpfobubobjezbtfkaneveebybuevcafqcj``````````",
"````````````````fuc`bpfdfrezbbezfofnfgbxbpfqce``````````````",
"``````````````````cjchchfufqcbcgcecefncccifv````````````````",
"````````````````````````cjcjcicgcicjfv``````````````````````",
"````````````````````````````````````````````````````````````"
};
