/* XPM */
static char *jade1[] = {
/* width height ncolors chars_per_pixel */
"10 10 59 1",
/* colors */
"  c #000000",
". c #69E169",
"X c #35CB35",
"o c #149914",
"O c #179317",
"+ c #158B15",
"@ c #148914",
"# c #148514",
"$ c #0F890F",
"% c #0D830D",
"& c #0F730F",
"* c #0F6F0F",
"= c #0E6B0E",
"- c #077307",
"; c #0E630E",
": c #0B630B",
"> c #026502",
", c #046104",
"< c #0A550A",
"1 c #0B530B",
"2 c #065306",
"3 c #054F05",
"4 c #074B07",
"5 c #064706",
"6 c #003700",
"7 c #042B04",
"8 c #011901",
"9 c #21B621",
"0 c #1AAC1A",
"q c #18A818",
"w c #17A217",
"e c #189E18",
"r c #127C12",
"t c #107C10",
"y c #0F7A0F",
"u c #0B800B",
"i c #0E720E",
"p c #0A760A",
"a c #106A10",
"s c #0F6A0F",
"d c #0A6E0A",
"f c #0B620B",
"g c #0D580D",
"h c #076007",
"j c #045E04",
"k c #015E01",
"l c #015201",
"z c #034803",
"x c #044604",
"c c #083E08",
"v c #014601",
"b c #044004",
"n c #063606",
"m c #052E05",
"M c #013401",
"N c #042404",
"B c #002600",
"V c #022002",
"C c None",
/* pixels */
"CCC4=#*4CC",
"CCf#eopjsC",
"Cm@$uu>khg",
"C5yw-.90:6",
"CaO,iXqx+5",
"CMrtz3%l&1",
"CV;*td&v6n",
"CCcbx2<;8C",
"CCC7BcmNCC",
"CCCCCCCCCC"
};
