/* XPM */
static char *jade9[] = {
/* width height ncolors chars_per_pixel */
"50 50 92 1",
/* colors */
"  c #000000",
". c #22B922",
"X c #199919",
"o c #169916",
"O c #179317",
"+ c #129512",
"@ c #149114",
"# c #158715",
"$ c #108B10",
"% c #108710",
"& c #128312",
"* c #137D13",
"= c #117F11",
"- c #127912",
"; c #107B10",
": c #0D7F0D",
"> c #107710",
", c #0B7B0B",
"< c #0C770C",
"1 c #0F6F0F",
"2 c #0C690C",
"3 c #0D650D",
"4 c #0E630E",
"5 c #0B610B",
"6 c #096309",
"7 c #0B5B0B",
"8 c #085F08",
"9 c #075B07",
"0 c #025F02",
"q c #025B02",
"w c #065306",
"e c #064D06",
"r c #094709",
"t c #024D02",
"y c #074307",
"u c #014901",
"i c #014501",
"p c #063906",
"a c #013D01",
"s c #063306",
"d c #013901",
"f c #033503",
"g c #033103",
"h c #042B04",
"j c #022D02",
"k c #022902",
"l c #022502",
"z c #012301",
"x c #011F01",
"c c #011D01",
"v c #011901",
"b c #000D00",
"n c #4FD64F",
"m c #1CB41C",
"M c #1FA61F",
"N c #1AAC1A",
"B c #18A818",
"V c #16A016",
"C c #159615",
"Z c #148A14",
"A c #118E11",
"S c #0D840D",
"D c #117211",
"F c #0E740E",
"G c #0F6A0F",
"H c #0A720A",
"J c #0C6E0C",
"K c #0A6E0A",
"L c #0A6A0A",
"P c #0A660A",
"I c #056E05",
"U c #0D5E0D",
"Y c #046804",
"T c #0D580D",
"R c #036403",
"E c #0A580A",
"W c #085808",
"Q c #0A540A",
"! c #0B500B",
"~ c #084E08",
"^ c #035603",
"/ c #094A09",
"( c #035203",
") c #035003",
"_ c #054605",
"` c #B1FFB1",
"' c #073E07",
"] c #044004",
"[ c #014001",
"{ c #052E05",
"} c #011401",
"| c None",
/* pixels */
"||||||||||||||||||||||||||||||||||||||||||||||||||",
"|||||||||||||||||||kzjsaTTg/rrp{||||||||||||||||||",
"||||||||||||||||kkf!44QQDw4D]~Qf/rh|||||||||||||||",
"||||||||||||||zT_E77wtitG1j5w*wg~!Upr|||||||||||||",
"||||||||||||{/Ue57_iG#1*Z#_-591iW[deU'p|||||||||||",
"|||||||||||hT]EW59-8FOoL]^*]^Z)F2G55D4rz||||||||||",
"||||||||||j~_u795&OO&OVHwG-R^o#Gt>PdW[G/s|||||||||",
"|||||||||'geDi>#F=;=K@@ReIHa^RLu5(u&i-]'aj||||||||",
"||||||||pfG4wP#ZZ>HBVZAVYWqY0BY:=>F^ewuar/c|||||||",
"|||||||'/U5i-G>#F7%BV@iN,oV<a5<K:@H0(&tfGarp||||||",
"||||||lTf7d-a6&=A9ISINPY^LVVV=$$AABRd(et1Ddzl|||||",
"|||||}p]1GtPOt=X@%<S$%Y09H$+YZHAB,@Vqe8u_D5fkz||||",
"|||||p~G1i5#J0OZRImNmYio;R,,BS<:S0IoAR5)9574ap||||",
"||||vp~45w^;6=KwINmBBPRYHRY<.ImV,0ZH=;FL;#GQ4~z|||",
"||||p{~WwiZ^^wY$BI$+:9@Z,:m.VIRR@Fw0&%O&8i-D4Tp|||",
"|||zhU_7G>*6^u%NH0Y.,HmBB.mB+R)=t&9IROK0GfG7UQrl||",
"|||sk44u1)&X=uAN$S.V)+B.oN..$[0RoIAR<*0&8^2GG!yv||",
"|||h74i4itod=S$:mm+,I$Sm%Z..+8+ouH,CI;Fd_P**w4Ts||",
"||vrQ4eie6>Ke@NVN.Am:+HXM..->I.VSPIIq*3[Fu#-G_ykz|",
"||}k!_i77F;VJHAVV.N9H=#.nnnM-..N$IONBqwY5G#13dpjz|",
"||s'a_QuQZ&XRiXHHBVARB.n```n.OV.$00R<RWW3t>3Wag/h|",
"||zg/U[3]P&@=<J2NS.2C..n```nXOmmIR:IB<Z__9;tu4]/p|",
"||{'a_ig]9KOA:=<Bmo5AM.n```n#MJu9<Ao@Z0^68Zwu4Qrh|",
"||hpr4Qiu9t0=SA+F<+NA...nnnXXZ+mH&%SA@=oPFF*e5!ss|",
"||'g4Ge5u)O;00qRIVVSFm.#X.MXGABSACq_]@>^Z#*1G_Qy'|",
"||{s/]4iJ*8uqXJRVNV0mBBOX.;DN,BoCVA=*YXFJ2&557]gs|",
"||x'/]Quw#Z6&65RNNCPCmNoR7SIOY%mB+V%w1OO*>*W5!fr{|",
"||{j!~TGe#FO=tW[KSV<$NB:VV+A$Rt<BX@=7WfZZ5-DUU!ks|",
"||{lQyU75F&*9^w^qYXR0:YBR<mNS%%R0Z6H8t5F*-GDGE'zx|",
"||llrfpUD>*t-(W;OVVquYJZ%eIAw;S@^^L(5dZ9F--_7Q/hc|",
"||bxjys]4797~aa*^Zo=K<,A0RRYq9q:H^q*5u5#9*GdQg/z}|",
"|||lsQ/r7Wwja]uP0ooZO=oBZ^aF@5#>oKZ8^F*1u[4d/!'x||",
"|||lzgk~]1t1i]DJLZX;8L=VVSVi^6=(KO6Z*2u[a4eU/hcx||",
"|||}cvffd5e[[w)t*;OZ%&oVo;(uOKH6@6#Zuj[D]d'7k'l}||",
"||||cxyzad4Dt>&1&FP(;F%ZOK=J8^FGZ*ti[e51djpgpph|||",
"||||}vksddQe45*3#J)~^LPK;P>;8)Du;#WDWD44!fflpsv|||",
"|||||lhpp'44/faG>5ef^F>FZ;PLF99*>-4GWQQ44gzsxl||||",
"|||||blxrg/QE]Da15WwGF>5##>5uW1>Dt1DD7UUTsshzb||||",
"||||||}l{'r/47e[1415-539t5tDWwG7wDG7Q4/Q/'hl}|||||",
"|||||||bxs'pQ~E]Ukyd_7i[7wWt7wQi1574~Qrpvzlc||||||",
"||||||||bxsp/rrT!_/4eE][7r_QQU4]QETa'!s{h{c|||||||",
"|||||||||}hx''pda]d]U~!e~e'7Ua444fpg!ykhh}||||||||",
"||||||||||}c{zzkkfp'7_pyT_TU/k~rr!!rrz{lb|||||||||",
"|||||||||||}bllpsrp!pg/rgyTQQ'fxjlp'xcz}||||||||||",
"||||||||||||bcxhhpplls///''cxg{s'pslvcb|||||||||||",
"||||||||||||||bbxlzzhhsshkhhczs{{v}cb|||||||||||||",
"||||||||||||||||b}cvxvvhcv}}cvhx}bb|||||||||||||||",
"|||||||||||||||||||bbb}}vx}vcbbb||||||||||||||||||",
"||||||||||||||||||||||||||||||||||||||||||||||||||",
"||||||||||||||||||||||||||||||||||||||||||||||||||"
};
