/* XPM */
static char *jade11[] = {
/* width height ncolors chars_per_pixel */
"72 72 192 2",
/* colors */
"`` c None",
"`a c #69E169",
"`b c #35CB35",
"`c c #23BD23",
"`d c #1CB11C",
"`e c #1AA71A",
"`f c #169D16",
"`g c #179717",
"`h c #149914",
"`i c #179317",
"`j c #139713",
"`k c #149514",
"`l c #1A8B1A",
"`m c #159315",
"`n c #129312",
"`o c #158B15",
"`p c #128D12",
"`q c #148914",
"`r c #158715",
"`s c #148514",
"`t c #0F890F",
"`u c #128312",
"`v c #0F870F",
"`w c #0E850E",
"`x c #108110",
"`y c #0D830D",
"`z c #0F7F0F",
"a` c #127912",
"aa c #137513",
"ab c #107710",
"ac c #0C7D0C",
"ad c #0E750E",
"ae c #0F730F",
"af c #0F6F0F",
"ag c #0F6D0F",
"ah c #0E6B0E",
"ai c #0E690E",
"aj c #077307",
"ak c #0F650F",
"al c #0E630E",
"am c #0B630B",
"an c #0D5B0D",
"ao c #0A5F0A",
"ap c #036703",
"aq c #0B570B",
"ar c #075D07",
"as c #026502",
"at c #046104",
"au c #0A550A",
"av c #0B530B",
"aw c #016101",
"ax c #0C4F0C",
"ay c #0A510A",
"az c #025B02",
"b` c #094F09",
"ba c #045704",
"bb c #0A4D0A",
"bc c #065306",
"bd c #0A4B0A",
"be c #065106",
"bf c #015901",
"bg c #074D07",
"bh c #054F05",
"bi c #074B07",
"bj c #084908",
"bk c #094709",
"bl c #084508",
"bm c #064706",
"bn c #014F01",
"bo c #004B00",
"bp c #063D06",
"bq c #063B06",
"br c #073907",
"bs c #033D03",
"bt c #004100",
"bu c #013F01",
"bv c #033B03",
"bw c #053505",
"bx c #003D00",
"by c #063306",
"bz c #053105",
"c` c #023502",
"ca c #003700",
"cb c #042B04",
"cc c #042904",
"cd c #012301",
"ce c #022102",
"cf c #011D01",
"cg c #021B02",
"ch c #011901",
"ci c #011701",
"cj c #011501",
"ck c #011301",
"cl c #010D01",
"cm c #21B621",
"cn c #1CB41C",
"co c #22AA22",
"cp c #1AAC1A",
"cq c #18A818",
"cr c #1F9C1F",
"cs c white",
"ct c #18A418",
"cu c #17A217",
"cv c #189E18",
"cw c #189A18",
"cx c #149C14",
"cy c #149014",
"cz c #119011",
"d` c #128A12",
"da c #0F8C0F",
"db c #128612",
"dc c #148214",
"dd c #138013",
"de c #127E12",
"df c #127C12",
"dg c #107C10",
"dh c #0F7A0F",
"di c #0B800B",
"dj c #0E780E",
"dk c #0B7C0B",
"dl c #117211",
"dm c #0A7A0A",
"dn c #0E720E",
"do c #0A780A",
"dp c #0A760A",
"dq c #106A10",
"dr c #0B720B",
"ds c #0F6A0F",
"dt c #0A700A",
"du c #0A6E0A",
"dv c #0B6C0B",
"dw c #0A6A0A",
"dx c #0B680B",
"dy c #067006",
"dz c #0C660C",
"e` c #0A660A",
"ea c #056E05",
"eb c #056C05",
"ec c #0B620B",
"ed c #0C600C",
"ee c #0D5E0D",
"ef c #056A05",
"eg c #066806",
"eh c #076407",
"ei c #0D580D",
"ej c #0A5C0A",
"ek c #076007",
"el c #046404",
"em c #0A5A0A",
"en c #075A07",
"eo c #085808",
"ep c #045E04",
"eq c #095409",
"er c #015E01",
"es c #055605",
"et c #055405",
"eu c #015601",
"ev c #015401",
"ew c #035003",
"ex c #015201",
"ey c #034C03",
"ez c #034A03",
"f` c #B1FFB1",
"fa c #074207",
"fb c #034803",
"fc c #044604",
"fd c #074007",
"fe c #083E08",
"ff c #014601",
"fg c #024402",
"fh c #034203",
"fi c #044004",
"fj c #053805",
"fk c #063606",
"fl c #013A01",
"fm c #023802",
"fn c #052E05",
"fo c #013401",
"fp c #013201",
"fq c #042C04",
"fr c #013001",
"fs c #012E01",
"ft c #012C01",
"fu c #042604",
"fv c #012A01",
"fw c #022802",
"fx c #042404",
"fy c #002600",
"fz c #022002",
"g` c #011E01",
"ga c #001000",
"gb c #000A00",
/* pixels */
"````````````````````````````````````````````````````````````````````````````````````````````````````````````````````````````````````````````````",
"``````````````````````````````````````````````````````````````brfebwfabdfafvbwbqfqbr````````````````````````````````````````````````````````````",
"``````````````````````````````````````````````````````feblaxfnfofjbkfaaqeibmfiavblavblbdbwfk````````````````````````````````````````````````````",
"````````````````````````````````````````````````fnfrftfpbjalavfcdqfjbmakedagafakbmfcaqbsfyanavaxbz``````````````````````````````````````````````",
"````````````````````````````````````````````ftbqfmbjanakalaldldlaaafemaqbtfbafagdlfhflbufvalbpfwc`frft``````````````````````````````````````````",
"````````````````````````````````````````fvbdbdbmalfyb`bhfgdqaianeydzesa`bsbvdlbheyesddafbjezaufhcaakbwbbbl``````````````````````````````````````",
"````````````````````````````````````cebkanalbgbmedfbfsfbbeah`rdcdf`samdlbncaewbofh`raraeaeaveoejfdfcbmavanfkcb``````````````````````````````````",
"``````````````````````````````````bravayfcbialaaeoa`eyesecdvdedxdnen`oedfcaieobedle`ekabarambjemfmbifbdqdqanfabz````````````````````````````````",
"``````````````````````````````fwfaaxfmeefyejemaoamenewardv`qcydbdbadafafepexemfhex`oca`oenad`odndcddddaaafdqeefafvfk````````````````````````````",
"````````````````````````````fqftayfidqb`eoecetarde`i`i`g`o`u`idb`idpdgdgdzejexatepafeudfbhddevdnabaoc`anbcfgbubdaycdfk``````````````````````````",
"``````````````````````````fkbdcabldqaiafece`dg`idrad`q`uegdr`id``xegad`qategfgfh`ieudtdu`gflaoahewbafi`sftaybxbubbfifqfy````````````````````````",
"````````````````````````brbdbsaueqdlfiaeddaedg`i`o`x`o`mdudpcwcwcyege``xdodperdnbfegelegevbfbnejaobibaekfffffgeyfhanbvfjfv``````````````````````",
"``````````````````````fefacaakeqalaudcah`r`idg`q`xdudrcv`m`e`tdk`k`ed`erarcyeneabfameudteg`wdbdbdudeedevaoewfibtbxfleeavaxfe````````````````````",
"````````````````````ccblfadqaqeoeedcecewbofoa`ddbiegac`ecpcydpbfatap`yctcpdkefdp`dbce`ategeg`v`i`iduekbaaien`rbiauejbgfab`fjfn``````````````````",
"``````````````````ccbkavfiembeaiaedfbnbndtdu`zdoeueldpcw`n`h`xeren`z`derelda`ddkd`erbx`y`pacac`gctdjepfcafba`saqffecaabgfvbqbwci````````````````",
"``````````````````fxeifmakbxalbtahffbodj`u`xcycyazbfebdpajapdgaodhapcnaddvapcpcucnasaodk`k`pcycp`kctdtbffhfobnfretendlafbmfefwbr````````````````",
"````````````````fwblfoanakdzeyaoekboemeudjcyct`gdycwebacdmacdpcn`uascwekdrajcpczdy`edxd``wct`dd`dk`gctdhdeaedlba`oaibtdldqakbkfvfy``````````````",
"``````````````ccfyfdeiemaabhejekdudgexatcycv`gd`eldpcv`jcpcqcudidyawe``uardmczcp`f`wesdhcn`nczegdodtcw`wdjexbebabnflfraoagedakbzfjfn````````````",
"``````````````fefdbmaldlbhbtfme`dgdjbidrcy`mdo`ibf`n`dcncn`daj`z`eetd`ezapdmajeadkcndadi`w`e`tbferaj`wcwd`dubafcdc`rdvaoaieqdqbbfdfe````````````",
"````````````cebzblayakdsbcbcboardhdjexd`docvfger`h`dcncpcn`fas`kapasaw`p`dehapasawad`w`d`d`f`tap`ecpajdk`mdj`zbaendgabdedlbcdqanayblg```````````",
"````````````brbpavauedamdzeye``oadepadatcweb`pcu`f`hcq`fcm`yeydjcue`cvas`m`ycucncxdoawasea`wapad`ueycyesdrcwcw`o`q`iesdxafecauananfafe``````````",
"``````````cfbwfjeebmbeeoagff`se`ehexep`sdpcy`dcxerajdmdacpeaeyapead``ddacxcq`c`c`j`yasdrasd`ffdv`ddjer`oendp`z`xadddboaiesdlafdqanbdfece````````",
"``````````fefaanfceqeoaiaia``odrehegdxafac`f`ddp`qdoeacpcueaefcxcpcqcxcp`c`d`ccu`j`jcyewdvenffdrbtaoeldybfeyepegbabaembseya`ememakavaxfq````````",
"````````fzccbzeeeqeebhbtfcba`rcyd`djbieucy`ecvajapdo`f`ndabtdicx`ccn`jcqcncn`ccn`w`wdr`fcmd``udyebdobfajeffccvepeuepbobnendcejemalavfdcech``````",
"````````fnfabdanakbefgbteybadhdh`x`geueu`tcu`e`hdkcp`dcudyasdacxcu`c`j`p`fcp`ccmcqebaseaajeaad`wajcx`kdodmahaz`odzbnboehdnabahecdqbmbkfvfz``````",
"````````ccbdfaaledfbaqdcbnbna`bueoegct`pcy`y`fcpcq`f`hczenaj`tdida`d`i`r`r`e`ccm`feb`k`ncqdaaraserdoda`ydyddeladeccafoe`a`dddfedbmdqeifdfn``````",
"``````fxfvfrfaakbmfbauezfmboekdrepeodr`ecv`hcxctcncudiea`mdm`fdicmcrcrcr`bcrcr`r`z`rea`dcncxdo`eapebaj`yazeyelamde`ibiboa``ra`dlflbiaybqfyg`````",
"``````fxfac`bbakbxfbbheneodedb`z`zexbfd`cv`ectcncncqcueaasaj`wdj`bcoco`bcr`a`a`l`raadicm`ccnczaw`zapapctdveoazfgeuafeoejdgabaea`bmfcbzfqfvch````",
"``````cbbqbjfib`bubiejbmetdv`zdjcvepcyeaacct`d`ncncncndmareaaca`cr`b`a`a`a`a`bcr`leiaccmcpcqdidk`ednbfey`eeueubuatepezaiabaedzembgfpbdbrfvcd````",
"``````fnbweifibgbufaeyagba`q`u`icwdrfbdjerdy`tajdacmcqcxawapd`co`b`a`af`f`f``a`bcrcocwcu`ccn`yefefcucnerdyegbxahfhem`iev`rendzemfbbkeiblccfw````",
"````cgg`bdbdalb`ezfgamffewdh`i`g`od`euazbeafbfapdicqcn`wbh`wcm`b`b`af`f`csf`f``a`b`bcocn`ccp`tcndmapajdy`wdpazfl`ubueoae`sesecaobheeeifrbqfyck``",
"````fzbybkanbmeeflbtejffewen`gcw`i`idpelbfe`ad`meaczcmeaaj`jco`b`a`af`f`f`f`f``a`acrdbcvcpczdyasdi`ydy`tcv`pdpflbhexddekdddxeoemeqeqaufwaxfecg``",
"````cgbrfjanbseqbuftftemffendu`ucw`o`zebacd`efcpenajcqdyaj`pcv`c`a`af`f`f`f``a`a`ldq`celawardhefdk`k`f`k`md`dudcbnehenardc`sbhfgejaleefaaxfqfx``",
"````cgbzftbdfobdembeaieqekbaexdjepdhcyacd``edpbt`mdm`najdo`j`eco`b`b`a`af``a`a`bcocrdudy`naccpd``wdo`h`gcvcvdpegdhdb`ie`dddcaheyfcakaqfdfjfqch``",
"````g`cbfqfwfmbueqbcbhfaenaragbobaduacdudk`kelardydacx`j`p`hcm`c`b`bco`a`a`a`b`b`ldj`p`ncq`f`j`ycydpdpazeg`pcw`g`zbnekdcdeabdlagakayavayfafefz``",
"````ccbzftbpauakaueyaoeyenewboam`iepehbfeuegafdycz`dcu`najascu`c`ccr`lcr`b`bcr`lcrducz`fcxdi`tcndp`dbxenecdocwduepa`badddcaiaiagfhfhaqanfkfecc``",
"````fxbrfrfdbdbiakbcbcetabafbaboageuepdzeodnat`h`hcu`kdias`q`ncn`cdbafa`aa`ccobdegeb`n`fcpdmcz`d`jdpaceadnegcvdhduekesdx`sabaiecfcbkavaxfkfqfx``",
"````cibzftfdfofibiafa`eydd`rdvdvepepdu`iev`odk`e`e`ncxefaodk`hctcucvegcmegdbdw`o`idwajczcq`kcp`dcv`n`vcyezazehcy`qdb`uaddxaheoaub`bsfmbkbzbyfx``",
"````cjfqbrc`fabmbseebhfgaodc`sdhdv`zdhbf`iazel`e`e`d`perdmctcp`hcpctdpcmejdk`pdycnelapdi`hcp`e`dcvcv`pdtdxamfbex`q`oddaeafafeoemalbmbvfrbwfkci``",
"````gaccfwfneibjfcauamfgag`rad`o`odjdwbfezdbbfac`k`k`e`ycwcu`dcpctcz`dfgdbdp`n`ndaapefcvapcpcpcp`pcw`vdpen`gdc`r`o`s`oahaga`aieqakeiavfrfwbrcj``",
"````gag`fefeaxaybmfcaiecaoa`a``o`idebabaeqdgeobfdp`k`fdpffdicvcp`yapdpaseacu`d`ecxajctercvcv`y`e`v`xdodw`i`oejba`s`sabamdfaidlakdqb`bvaxcebzga``",
"``````fzfnaxaxb`cdbxema`ejaeab`rdnekepepaheuepat`edk`felcweldm`yer`uefefdp`jcn`dczapendi`tbfdh`zdpatdudtcwdnfieoen`rabdfabdlageealbjbqfrcfce````",
"``````fufeg`fafacafieeaaecdedc`rbo`rbabnah`gexazafep`eegbfflebaterbfcwbfeneldi`kaze`cv`y`n`pepbhdududwbu`sbgevdden`saba`a`ecbgbgayanfdfycjg`````",
"``````cgbyfeaxfdbqblbgdlaaama`dfafafedbgflcafcaiat`xcwaceg`gfgctatatazcwerbhdkacbfdbcyegd`cyegbxfbaeflbebuboboewdxdeaeaidlbicafjbmblaxfwg`cg````",
"``````clfxbyfjbdfmfyfhalafeoenbtb`ffbgfmfobmexba`z`icv`vdodod``mdk`vdpateuddeleuerejafadazdoduexehekbndfdebodvafdeahbcafalalakbbavfsbdccfuga````",
"````````fucbfnaxaxcabdfcdleoeoa`bmb`fofodlbababadgcv`gcycycvd`ac`ect`gdt`e`qbcdvae`iamcyemfh`regdr`ue`arbadw`r`ra`fbfbfcakalakcabqbdbkfxcf``````",
"````````fxcbfnc`bbfpbscaemdsalbtfgffddagboe`duekdg`gcwdhepdwdrep`pcv`ed`doexeoaoeufbegdreheodudrcyad`o`sdg`ramaobhbpb`bbaqaqfwfrbrcfbrfqfz``````",
"````````cichccfkaxfsavfdbidlbcbxdsb`fieddcbodnde`q`z`idbaddrdrdrcycvcwcvcwatbufgecemdhdbdre``x`odwexdve`afenesfaemeyc`faflbsbjeifvfecdccga``````",
"``````````cgcdfkbkbkfrbsanaleeezdqbteyeyewffe`deab`s`icwdb`xdh`i`icwcvcwdhdr`ueqbeekduehe`ducyehen`oeyb`ewfmaybhaaeoakcacafveibvbyfncfch````````",
"``````````ckcig`fefrccbsalfidqfgdqaqeoaiafaoaf`rdnehdvdwdj`qdhdbcw`i`g`gdjdrdrbabaepexaieqex`udedvewa`bsc`fgbhdldlaibpflfrfmfjbkg`brgacg````````",
"````````````fzcdfeblg`bvfrbsbieqflb`ema`dfabdcdcahamarbsaiepdwdjdg`u`i`odr`q`o`xe`ehexahafen`o`o`saoaabmeyejaoafafeqfcbseic`fvbyfncccg``````````",
"````````````gafubybrbrfjc`caayakbgfrfbaiaadlecdcafenboafffbaekduekdv`s`udvehadadeke`bodlfhesab`rdeetagbhecaaakejeeanb`fpfrbdfsbkbrfzcg``````````",
"``````````````fxcefqfebqfvaveiaqaleeauavfbaidla`dzeneyfiffendx`rdnab`q`idharekdndnenenewecdn`recbtbjbhdfaieqaualdqakaqfmfqfebzfqcjfz````````````",
"``````````````cjchfxbzfjbwblbjavbgb`fleebjdqemdeagaebca`ffarah`sdne`dea`abdedvamararewafdeaeeobvdsbhaaamemakbgeeeialavftfqbzfwchcjga````````````",
"````````````````cifubybybdfsfteieibjb`bsfhfyezafdsedemejamdlababdxecaedf`rahafar`rbhecafaedzbmeybcaadldldldqakakaneifdfvfqfkcffxcg``````````````",
"``````````````````fxcccdfefefwfjeieialaqb`avbgdldlafaaagafdeafaoafamaresameyesafbceoaoamagbheyaaaidsalemauakeibmbjblfabqfefzcecj````````````````",
"``````````````````gbcegaccfefvcdfaeianavanflbqcafhbueqbgeyemaibcbhfgfmdeaoaiaiamaiedbcejemfabeakededdqaqbvaqbjaxbdfjfjfkcecccgcl````````````````",
"````````````````````clfzfxfwfefvfaavavbkavauavfidqbxfabkc`ejembgfbafc`bteybhfbdlbcecfbakejbqdlananayb`alb`eifaaxbwfyfycig`fxcj``````````````````",
"``````````````````````clcjfzfwbzfkbdaxfdbkayeeavayfob`bqbpeeejfcbufhfabxbqbxbueqemb`eddqalauemaueianbsbdfaaxaxbzfvcbfnfnfuci````````````````````",
"````````````````````````gbcgfzfkfebrbkfabqfrc`fibvbdfofibiakaydqbqfcbxbiakfsfheqakaqfcflfhanakb`bvfrbyfmaxbkfecdfqbyccfxcj``````````````````````",
"``````````````````````````ckcjcccifqcbfwfjfvfrc`g`bvfdfrbsakbgfmfjfheedqdqfhfldqb`bvcdbianeeanblblfofdbdfdfefzbybycccgcl````````````````````````",
"````````````````````````````clfxcicccefnfwchfrfrftc`blfmeiavblbsfvbsbbayfabdfaanavbseebjbsblfabdaxaxblbkfeccfucffxfzgb``````````````````````````",
"``````````````````````````````gbcicicbfqcdbyblbqbdfdfebdavfofrbdaxfrfwbzaxblaneiaxfafrfjfsftfrfvfvbwfefeccfzccfxcgcl````````````````````````````",
"``````````````````````````````````gackcgcgfxbrbybrfafkbwbqaxaxfabrfwfpbdbkbqbkbkblbqfafvcffyfyfnbyfkfececfcjfzcj````````````````````````````````",
"````````````````````````````````````gbgacjfxbyccbzfebzfvccfvfwbqbkblbqblbqbqfsfkfybrbzfwfyfqbrfebrfucjchcgcjcl``````````````````````````````````",
"````````````````````````````````````````clgbcgfxfnbyfqfqfwccbzcbbybyfyfwfnbzbzcfchfxbrfwbzcdfncccccjcjcjcl``````````````````````````````````````",
"````````````````````````````````````````````clcifzcichckcgcbccfuccfwcbg`cecfbrfncefzfubybzcbchchgagacl``````````````````````````````````````````",
"````````````````````````````````````````````````gbclcgchckfxcjchchcccifxckgachcicjchfzfufxcjgaclgb``````````````````````````````````````````````",
"``````````````````````````````````````````````````````clclckcggacicicjcgcgcjcgcgcgcgckcjclgb````````````````````````````````````````````````````",
"``````````````````````````````````````````````````````````````clgbgbgbgbgbclgbgbclgb````````````````````````````````````````````````````````````",
"````````````````````````````````````````````````````````````````````````````````````````````````````````````````````````````````````````````````",
"````````````````````````````````````````````````````````````````````````````````````````````````````````````````````````````````````````````````"
};
