/* XPM */
static char *jade3[] = {
/* width height ncolors chars_per_pixel */
"14 14 93 2",
/* colors */
"`` c None",
"`a c #35CB35",
"`b c #1CB11C",
"`c c #1AA71A",
"`d c #169D16",
"`e c #179717",
"`f c #179317",
"`g c #158B15",
"`h c #148914",
"`i c #158715",
"`j c #0F890F",
"`k c #128312",
"`l c #0D830D",
"`m c #127912",
"`n c #137513",
"`o c #0C7D0C",
"`p c #0E750E",
"`q c #0F730F",
"`r c #0F6F0F",
"`s c #0F6D0F",
"`t c #0E6B0E",
"`u c #077307",
"`v c #0E630E",
"`w c #0B630B",
"`x c #0A5F0A",
"`y c #0A550A",
"`z c #0B530B",
"a` c #0C4F0C",
"aa c #094F09",
"ab c #045704",
"ac c #0A4D0A",
"ad c #065306",
"ae c #0A4B0A",
"af c #065106",
"ag c #015901",
"ah c #054F05",
"ai c #074B07",
"aj c #084908",
"ak c #084508",
"al c #064706",
"am c #073907",
"an c #033D03",
"ao c #053505",
"ap c #063306",
"aq c #042B04",
"ar c #042904",
"as c #011D01",
"at c #011901",
"au c #21B621",
"av c #1CB41C",
"aw c white",
"ax c #18A418",
"ay c #189A18",
"az c #149C14",
"b` c #149014",
"ba c #0F8C0F",
"bb c #128612",
"bc c #148214",
"bd c #138013",
"be c #107C10",
"bf c #0A760A",
"bg c #0F6A0F",
"bh c #0A6A0A",
"bi c #0C660C",
"bj c #0A660A",
"bk c #0B620B",
"bl c #0C600C",
"bm c #056A05",
"bn c #066806",
"bo c #076407",
"bp c #0D580D",
"bq c #0A5C0A",
"br c #076007",
"bs c #046404",
"bt c #0A5A0A",
"bu c #075A07",
"bv c #095409",
"bw c #035003",
"bx c #034C03",
"by c #074207",
"bz c #034803",
"c` c #044604",
"ca c #074007",
"cb c #083E08",
"cc c #024402",
"cd c #053805",
"ce c #023802",
"cf c #012E01",
"cg c #042604",
"ch c #022802",
"ci c #042404",
"cj c #022002",
"ck c #011E01",
/* pixels */
"``````````aa`rbdahbp````````",
"``````akbi`gay`hal`qbgce````",
"````aebu`kbnayah`c`o`xahcf``",
"`````sb`cc`bbj`eaubmbfbbai``",
"``ambd`q`o`dba`f`cbxbfbkbcae",
"``aebk`fbeav`aawbc`j`obqadae",
"``ca`wbvbsaxau`abfazcc`t`mbp",
"``a``s`f`xax`d`ubm`lbo`i`nae",
"``aqaaajab`ebhagbzagbwafc`cb",
"````cjai`rbj`pbhbr`gafblam``",
"````asaoanbtadbiad`v`yaecg``",
"``````cichcdby`zceacaeci````",
"``````````arcgckapat````````",
"````````````````````````````"
};
