/* XPM */
static char *jade11[] = {
/* width height ncolors chars_per_pixel */
"72 72 92 1",
/* colors */
"  c #000000",
". c #22B922",
"X c #1AA71A",
"o c #159F15",
"O c #199719",
"+ c #169916",
"@ c #159515",
"# c #159115",
"$ c #129512",
"% c #158715",
"& c #148314",
"* c #108910",
"= c #118111",
"- c #117D11",
"; c #107910",
": c #0A7B0A",
"> c #0E730E",
", c #0F6F0F",
"< c #0A770A",
"1 c #0E6B0E",
"2 c #0A710A",
"3 c #0E690E",
"4 c #0F650F",
"5 c #067106",
"6 c #0E630E",
"7 c #0B630B",
"8 c #0B610B",
"9 c #0D5B0D",
"0 c #0B5D0B",
"q c #085F08",
"w c #046104",
"e c #075B07",
"r c #0B530B",
"t c #025F02",
"y c #075507",
"u c #025B02",
"i c #035503",
"p c #054F05",
"a c #074707",
"s c #084508",
"d c #024D02",
"f c #074107",
"g c #034703",
"h c #014501",
"j c #014101",
"k c #053505",
"l c #023902",
"z c #042B04",
"x c #012F01",
"c c #022902",
"v c #022702",
"b c #022302",
"n c #011F01",
"m c #011901",
"M c #000D00",
"N c #1CB41C",
"B c #1FA61F",
"V c #19AA19",
"C c #148A14",
"Z c #108E10",
"A c #108610",
"S c #0C800C",
"D c #107610",
"F c #117211",
"G c #106A10",
"H c #0B6A0B",
"J c #0C660C",
"K c #076C07",
"L c #086608",
"P c #046804",
"I c #0A5A0A",
"U c #036403",
"Y c #0B560B",
"T c #0B4E0B",
"R c #085008",
"E c #025802",
"W c #084C08",
"Q c #074A07",
"! c #025202",
"~ c #014A01",
"^ c #083E08",
"/ c #044004",
"( c #063C06",
") c #063806",
"_ c #013E01",
"` c #053005",
"' c #013601",
"] c #033203",
"[ c #022C02",
"{ c #011401",
"} c #9AE59A",
"| c None",
/* pixels */
"||||||||||||||||||||||||||||||||||||||||||||||||||||||||||||||||||||||||",
"|||||||||||||||||||||||||||||||)^kfWfck(z)||||||||||||||||||||||||||||||",
"|||||||||||||||||||||||||||^sT`')sfY9a/rsrsWkk||||||||||||||||||||||||||",
"||||||||||||||||||||||||`x[]Q6rgG)a48,,4agY_v9rT`|||||||||||||||||||||||",
"||||||||||||||||||||||[(lQ9466FFF,IYjg,,F/l_c6(c'x[|||||||||||||||||||||",
"||||||||||||||||||||cWWa6vRphG39dJy;_lFpdy=,Q~Y/'4kTs|||||||||||||||||||",
"||||||||||||||||||bs96Wa8gxgp1%&-&7Fd'!~/%e>>re0fgar9kz|||||||||||||||||",
"|||||||||||||||||)rrgQ6Fe;dy7H-H>eC8g3epFJqDe7QIlQgGG9f`||||||||||||||||",
"|||||||||||||||cfTl9v0I87e!eHC#AA>,,w!I/!C'Ce>C>&==F,G9fck||||||||||||||",
"||||||||||||||z[r/GRe7ye-@@+C=@A@<--J0!ww,E-p=!>D8'9yh_Wrbk|||||||||||||",
"|||||||||||||kW'sG3,7J-@2>C=P2@C=P>CwPh/@E22+l81!i/&[r__T/zv||||||||||||",
"||||||||||||)W_YrF/>=>-@C=C@2<++#PJ=<<t>EPUP!Ed08Qiqhhhd/9l)c|||||||||||",
"|||||||||||^f'4r6Y&1%@-C=22o@X*:@XCte#e5E7E2PAAA2-8!8!/j_l9rT^||||||||||",
"||||||||||zsfGYe9&7!~';=QPSXV#<EwPSXV:P<NyJwPPA@@2qi3e%QY0WfR)`|||||||||",
"|||||||||zsr/Ip3>-dd22=<EU<+$+=te=NtUZN:Ct_SZSS+X;wg,i&Yh7FWc(km||||||||",
"|||||||||b9l4_6j1h~;==##uEK<5P-8;PN>HPVoNU8:@Z#V@X2E/'dxyeF,a^c)||||||||",
"||||||||cs'94Jd8q~IE;#X+5+KS:S<N=U+q25VZ5XHCAXNC:+X;->FiC3jFG4scv|||||||",
"|||||||zvf9IFp0q2-!w#o+CU<o$VVoS5tJ=e:ZVoAy;N$ZP<2+A;!pidlx8,84`)`||||||",
"|||||||^fa6FpjlJ-;Q2#@<@E$NNNN5=XyC~P:55:NZSAX*Et5A+C2ig&%H83rGTf^||||||",
"||||||b`sr4Gyy~e;;!C<oht+NNVNoU@PUtZNLPUt>ANNo*PXV5:@;=ie-D-FyG9rsn|||||",
"||||||)(rY87JdJC>w>w+KZoo+Vo.Sd;oJoU@SoNo<tU5AP>=d#y2++CC@yH,7Y99f^|||||",
"|||||nk)9ape,h&JL!w&<#Not5:ZV5dP5CNZoV..$SU2UChHN;tCe<==>=~3yF,G9W^b||||",
"|||||^f9gre33;C2LPH,SoN<C<5Vo5PoVVoV.N.o$$#!Heh2j8U5EdwPiiI_d;II4rTz||||",
"||||nz`9r9pjgi%#C;QE#Xo5P<o$ZjSo.N$VNN.NAA2o.C=5K<E5PgowEw~de&0I6rfbm|||",
"||||`fW94phjdi;;=+EE*oX+:VNo5UZoo.$ZoV..VKU555>A5o@<:1uCJd~L>D17Gascn|||",
"||||zWf68gY&dd;_ePXZ#SoVVo+Ze5*SZN@%%X..oK@$VZeUt<ZS5=U>7''J;=-8aG9f`|||",
"|||bcxf4agY~l~q2we2Xo+oXNoS5@:oS.OOO.OO%=%5NNo<XPK5SudU7-@Q~;%;FlQr(vn||",
"|||bf'T4_gpee-A==!ECoXXNNVo5U5A;.BB.O}}%%FS..NZt=PPXHeuhE,e0-D>;ag`zcm||",
"|||z(Q/R_Q0ayH=;ow#5SXN$NNN:e5S;O.}}}}.O%9S.VVS:X>EdXEE_ww~3D>JIW]W)cb||",
"|||`k9/W_fd,iC=@+2g;t5*5Z.VotPCB.}}}}}}.OB+o.NSPPoNt5P_1/I@!%eJIgs9szc||",
"||mnWW6R~h7h!;@+CCEup,EPSVNApA...}}}}}}}..BN.V*N:P55A<ul=_e>&y78p99x(v{|",
"||nks9a9lj0h!e++@@<UEJ>@5Z.55$B.}}}}}}}}}OAoVZ5USS5*oZ<lp!=q=HeIrrYcT^m|",
"||m))9_r_[[Ihe2=+C=KSCPVe5V55Zo.}}}}}}}}%G.Ute;P:@o@@C2&dLee&&ph069fTzb|",
"||m`[W'WIp3rqi!;w;#SCX<j@:$5<$XB..}}}}}.BO25$SVCA<++oo<P;A@J=&1dg4Yf)zm|",
"||nzzcl_rypfee,~i2S2:@Ue5Zo$Z+....B}}}..%;Z$Vo$S#<<uPZ++=dq&-DF,4rrrf^n|",
"||z`[(Y4Yd8de!~7@wLEEP,5ZNo$5Uo..O%O..O%O2ZooS*N<N_e7<+2w;i=&33,//Y9k^z|",
"||b)xfWQ4yyyD,i~,EwJe>w++o@SUC$N.A,;F.BWPK$oV:ZN$<S5>Po;2qyH&D37gsrTkzb|",
"||m`[f'/Q,;d=%HHww2@!C:XX$oP8:+XooP.PAHC@H5ZV@VNo$A#~uL#CA=>H1eYR_ls`kb|",
"||{z)'fa_9ph8&&;H=;E@uUXXNZt:XV+VX<.0:Z5NUPS+VXNooZ2H7g!CC=>,,eI6alxkkm|",
"||Mzc`9QgY7h,%>CC;HE~AES@@XS+oNVXZNhA<$$ZPPoPVVVZ+A<e+&%C&C1,;3r49rxc){|",
"||Mn^^Trag378;;C@-iir-eE<@o<hSoVSP<U5oNXo5XtooSXA=<H@C0i&&D7-3F4GRlTb`M|",
"|||n`TTRb_I;0>D%>qww1EwwX:oU+U:St=PP<$NNZPeS*E;=<w22+>/ee%D-DF,96Q(xnb||",
"|||v^nff'/9F7-&%~%id1+!u,wXPElKwtE+EeUS@uJoS$Zwp22H_&W!=e&D;;7WWr9fv{n||",
"|||mk^Tf(sWFF7;-,,8Wl'g3w=+SP+hXwwu+tp:SEA#PC#P_g>lp_~~!H->3FQ')asTcnm||",
"|||Mbk)Wlv/6,eejRhWl'a!i=@oA<<C@:A<wE=UEt0,>u<2!Lqd--~H,-1y,664TrxWzvM||",
"||||vz`TT'WgFee;aR''Fiii-o+##oCSXX+2XCyH>@7#I/%P2=JeiH%%;ggg464'(Wsbn|||",
"||||bz`'T]_'IG6jhh=,~J2q-++;wH2wZoXC<!e8EgP2Le22#>C&-%78p(RTYYcx)n)zn|||",
"||||mmzkTxrfQFy_GR/8&~>-C=@A>222#o+o+w_h7I;A2J=CH!HJ,eyfId'fl_Q9c^bzM|||",
"|||||mbkssx_969~Gjdd!hJ-D&@+A=;@@+o+;2=rpq2LJ2#LeCdR!lrpFe4''c9lk`nm||||",
"|||||{mn^xz_6/GhGYe3,8,%>LHH;C;A+@++;22iiw!3r!=-H!;_'hpFF3(lxl)sn)Mm||||",
"||||||nb^snlx_QrlRI;-D&&17e_3wH;-=@C2CC=JL!1,eCC&8Fad08,,rg_9'ck`zm|||||",
"||||||Mvk)))''r4Wxg3FF7&,e~,hiq2qH&=HL>>qJ~F/yD%-y,p7F4099R]xWxs)nm|||||",
"|||||||bbz^(cr9Y69Yrg3F;Jed/heH%>DC@;eq>>ee!7>%7jQp-3rY6G4Ylz^`z{n||||||",
"|||||||{mb`)ksQrWRl9QGI-,>y;he1&>J-;D-H7ee!,->elGpF7I4W996r[z`cm{M||||||",
"||||||||mvkkWx[99QR_/v~,G8I07FDDH7>-%1,e%p7,>JadyFFFFG4499fczknbm|||||||",
"|||||||||bzb^^c)996YRrWFF,F,,-,8,7ey7dy,ye87,pdF3G6IY49aQsf(^nb{||||||||",
"|||||||||MbMz^cbf99r9l('/_rWdI3yphl-833738y0Ifp488GYlYQTW))kbzmM||||||||",
"||||||||||Mnbc^cfrrsrYr/G_fs'0IWg,'jdpgFy7g40(F99rR6R9fTkvvmnb{|||||||||",
"|||||||||||M{nc`kWTfsr9rr'R((90g_/f_(__rIR8G6YIY99_WfTT`cz``vm||||||||||",
"||||||||||||Mmnk^)sf(x'/lW'/Q4rG(g_Q4x/r4Ygl/94RlxklTs^bzkzb{|||||||||||",
"|||||||||||||{{zmzzc)cx'nlfx_4Wl)/9GG/lGRlbQ999ss'fWf^nkkzmM||||||||||||",
"||||||||||||||Mbmzb`cmxx['sl9rs_c_TrfWf9r_9Q_sfWTTss^zvnbnM|||||||||||||",
"|||||||||||||||Mmmzzbks(Wf^Wr'xWTxc`Ts99Tfx)x[xcck^^znzbmM||||||||||||||",
"|||||||||||||||||M{mmb)k)fkk(TTf)c]Ws(sss(fcnvv`kk^bn{n{||||||||||||||||",
"||||||||||||||||||MM{bkz`^`czcc(ss(s((xkv)`cvz)^)v{mm{M|||||||||||||||||",
"||||||||||||||||||||MMmb`kzzcz`zkkvc```nmb)c`b`zz{{{M|||||||||||||||||||",
"||||||||||||||||||||||Mmnmm{mzzvzcznbn)`bnvk`zmmMMM|||||||||||||||||||||",
"||||||||||||||||||||||||MMmm{b{mmzmb{Mmm{mnvb{MMM|||||||||||||||||||||||",
"|||||||||||||||||||||||||||MM{mMmm{mm{mmmm{{MM||||||||||||||||||||||||||",
"|||||||||||||||||||||||||||||||MMMMMMMMMMM||||||||||||||||||||||||||||||",
"||||||||||||||||||||||||||||||||||||||||||||||||||||||||||||||||||||||||",
"||||||||||||||||||||||||||||||||||||||||||||||||||||||||||||||||||||||||"
};
