/* XPM */
static char *jade7[] = {
/* width height ncolors chars_per_pixel */
"36 36 90 1",
/* colors */
"  c #000000",
". c #23BD23",
"X c #1CB11C",
"o c #20A920",
"O c #1A991A",
"+ c #159B15",
"@ c #169316",
"# c #139313",
"$ c #128312",
"% c #0F830F",
"& c #117D11",
"* c #107910",
"= c #0C790C",
"- c #0E730E",
"; c #0F6F0F",
": c #0F6D0F",
"> c #0A710A",
", c #0F650F",
"< c #067106",
"1 c #0E630E",
"2 c #0A690A",
"3 c #086908",
"4 c #0B5F0B",
"5 c #0B5B0B",
"6 c #026302",
"7 c #0C4F0C",
"8 c #094D09",
"9 c #025502",
"0 c #004D00",
"q c #024302",
"w c #063706",
"e c #023502",
"r c #022D02",
"t c #042904",
"y c #012901",
"u c #022302",
"i c #011F01",
"p c #011901",
"a c #001100",
"s c #000B00",
"d c #4FD64F",
"f c #1CB41C",
"g c #1AAC1A",
"h c #18A618",
"j c #17A017",
"k c #189A18",
"l c #159615",
"z c #148A14",
"x c #108E10",
"c c #148414",
"v c #108810",
"b c #0D7E0D",
"n c #117611",
"m c #107210",
"M c #0A760A",
"N c #0E6A0E",
"B c #0E680E",
"V c #0A6E0A",
"C c #0B620B",
"Z c #046A04",
"A c #0D580D",
"S c #056405",
"D c #075E07",
"F c #0A560A",
"G c #075A07",
"H c #095409",
"J c #0A520A",
"K c #025E02",
"L c #055605",
"P c #065206",
"I c #015A01",
"U c #084808",
"Y c #035003",
"T c #054C05",
"R c #074607",
"E c #B1FFB1",
"W c #074207",
"Q c #034803",
"! c #083E08",
"~ c #024602",
"^ c #033E03",
"/ c #043C04",
"( c #023A02",
") c #053205",
"_ c #023602",
"` c #052E05",
"' c #013201",
"] c #011C01",
"[ c #011601",
"{ c None",
/* pixels */
"{{{{{{{{{{{{{{{{!WWw`{{{{{{{{{{{{{{{",
"{{{{{{{{{{{{`rUJNR4;RFyJ){{{{{{{{{{{",
"{{{{{{{{{{y818qNTL^mT$UF_wR{{{{{{{{{",
"{{{{{{{{{JQ1GTC&-zQGmDDU(QNW{{{{{{{{",
"{{{{{{{`JNGL&@z@@&B9K9Y9neP^Jw{{{{{{",
"{{{{{{w^H^$&zzVk#2MKIS904L~qq/y{{{{{",
"{{{{{tWF4C0*TbgMS%gZX23v@DNzF88`{{{{",
"{{{{{A,1N0$#IZ<&*fVgf4l#l>q0LmRy{{{{",
"{{{{yAn5V9#lSjgj<2Dx+LfxMk*P0':,w{{{",
"{{{uR,P0*9Mq+ff6Z6XZ6%Xvh<@bGnmNJi{{",
"{{{w4P:cSKMXK=gT<X+.l66~XKGb-0L;5!{{",
"{{i)HYQzzT#jZ+xb.lf.%>f$ZIZj90G51Wp{",
"{{tW4F0*Gh#+h+Gvx@z.+lhDKx<SCe*&RA`{",
"{{W8(YG$bIjhfj6%.oOdzb.xbZVI9G&-R)y{",
"{{w^^TL$kQKvxh6z.dEdOk.%Zf<(q@zBQAt{",
"{iUR(5Yl@MI-<f<odEEEd$g<b<jMY$$GHF7]",
"{]re5ND9K#zM@#Mh.dEdoV#g%+jM*@$NQFwp",
"{trFF4G0@S9;xj<j.z.OOx+vM(CkKLcNqFwt",
"{[reT*$VKV9=h+4+j332@<hgjvQSz$2G8()u",
"{ayAQC:-z2QIlhkXhX$#xZZgxvGczz:N,Jy[",
"{{`7u55n-KNKh+k=KZMfxGv*MVk^Gnn:1/]{",
"{{)7/8n*;4(QSk3qSIK=I#z3Q(^02-m_R7i{",
"{{t`78mGRemL&l#zhlhP-C5z>2Lz*Q,,/U]{",
"{{[t7JTPN^c-z@->#kk^C*>%2V;L5e(Uyua{",
"{{{[!t1NNG;;-V**kl*>L9H$V*eYm!'wia{{",
"{{{a)weJ8QnC;0~DDcV-D0qn&:C,48'rw]{{",
"{{{{p)wU8(U5:P~N-&nVDY&GNn58AJ`y[{{{",
"{{{{{t!yA188mn;;;DCLP4:TN1FAUW!u{{{{",
"{{{{{su!WJJJNWe5QeTQPQ5m588Wwyi[{{{{",
"{{{{{{si!U/e/eTJ/(,q,Qq,/)7!`t[{{{{{",
"{{{{{{{s[uy'rRARy8WWJ4^W7R!tus{{{{{{",
"{{{{{{{{{a]www/7w'UURW]y)!]i{{{{{{{{",
"{{{{{{{{{{s]``y))y`)pw)`t[s{{{{{{{{{",
"{{{{{{{{{{{{s]a[p[ap[iuas{{{{{{{{{{{",
"{{{{{{{{{{{{{{{{sssss{{{{{{{{{{{{{{{",
"{{{{{{{{{{{{{{{{{{{{{{{{{{{{{{{{{{{{"
};
