/* XPM */
static char *jade10[] = {
/* width height ncolors chars_per_pixel */
"60 60 91 1",
/* colors */
"  c #000000",
". c #22B922",
"X c #1CB11C",
"o c #1AA71A",
"O c #169F16",
"+ c #159715",
"@ c #179317",
"# c #149114",
"$ c #108B10",
"% c #108710",
"& c #138113",
"* c #108110",
"= c #127D12",
"- c #137513",
"; c #0F7B0F",
": c #0C790C",
"> c #0F6F0F",
", c #0E690E",
"< c #0A6F0A",
"1 c #087108",
"2 c #0F650F",
"3 c #0E630E",
"4 c #0B670B",
"5 c #0B610B",
"6 c #086508",
"7 c #0D5B0D",
"8 c #0B5D0B",
"9 c #085F08",
"0 c #095909",
"q c #075B07",
"w c #0A550A",
"e c #025F02",
"r c #055505",
"t c #0A4B0A",
"y c #094709",
"u c #074907",
"i c #034F03",
"p c #084508",
"a c #074107",
"s c #014901",
"d c #024302",
"f c #063B06",
"g c #013F01",
"h c #053705",
"j c #053305",
"k c #013901",
"l c #013301",
"z c #022D02",
"x c #022902",
"c c #032703",
"v c #022102",
"b c #021B02",
"n c #011701",
"m c #001100",
"M c #000B00",
"N c #1FA81F",
"B c #19AA19",
"V c #18A418",
"C c #189A18",
"Z c #129412",
"A c #148A14",
"S c #148614",
"D c #0C820C",
"F c #117811",
"G c #0B7C0B",
"H c #117211",
"J c #0E740E",
"K c #0E720E",
"L c #0A760A",
"P c #0E6C0E",
"I c #0F6A0F",
"U c #086A08",
"Y c #046A04",
"T c #0D580D",
"R c #036403",
"E c #0A520A",
"W c #0B4E0B",
"Q c #025A02",
"! c #065206",
"~ c #084E08",
"^ c #015401",
"/ c #034C03",
"( c #083E08",
") c #024602",
"_ c #044004",
"` c #053005",
"' c #042404",
"] c #002400",
"[ c #011E01",
"{ c #9AE59A",
"} c None",
/* pixels */
"}}}}}}}}}}}}}}}}}}}}}}}}}}}}}}}}}}}}}}}}}}}}}}}}}}}}}}}}}}}}",
"}}}}}}}}}}}}}}}}}}}}}}}}xtzWtfEhlyx]c}}}}}}}}}}}}}}}}}}}}}}}",
"}}}}}}}}}}}}}}}}}}}}}`hfa7llzwgudtu_y7ah}}}}}}}}}}}}}}}}}}}}",
"}}}}}}}}}}}}}}}}}}jxl_I3II>FF!l5P>g!u7Taalv}}}}}}}}}}}}}}}}}",
"}}}}}}}}}}}}}}}}jlEu3lgdF,Hqq)_~))/&5w!Hklftj}}}}}}}}}}}}}}}",
"}}}}}}}}}}}}}}}(T7u/Pg2/PS=;4sSli=)q>r)0_gu~lh}}}}}}}}}}}}}}",
"}}}}}}}}}}}}}jfuugw8qq&4J;AJ>usius9ri44)//!PIwyz}}}}}}}}}}}}",
"}}}}}}}}}}}}xz77g555qF;SAA<A@,8PQAkrkr9;&r08!EEa`}}}}}}}}}}}",
"}}}}}}}}}}}hf_3Igr<&<JA<LCA*Q>C#AK^L9#PJqqSl22a_ax}}}}}}}}}}",
"}}}}}}}}}}ff~0-_FS;@A*C*:CV%A4LL5K<RU^Q55wr02d/]ufx}}}}}}}}}",
"}}}}}}}}}(lW35kF>SJ:&6SOoA1OBL#JUegARLAA<S^SsFH>kkyx}}}}}}}}",
"}}}}}}}}xyEI5~&<S&SC^L+oOe4SeD+VDe;)L<U#$Ues=q03Iuuf`}}}}}}}",
"}}}}}}}[al3hlK5wJS**^RL%Gd/eRdr$O1e&Z$GACS^wsF)rF>dk``}}}}}}",
"}}}}}}}xk705-&F0e<OOU^YL1Y;X./rDXL#4R$BO%Co^,ki,)HHET(}}}}}}",
"}}}}}}(E_7-/lS=^UOV#RGOVXVD15#qDVV$r<YoYLLo$^!qsuiP7~x]}}}}}",
"}}}}}']t7H)rs9*0S$GQR+XXB1.Yi:RGYYO+Z++1#<ACUe)k=qP03tyn}}}}",
"}}}}}xfu2Pqiq#J+<QeGVBBXV*;qR+RLZDR+XV1XBCeG##<;U>H!57pc}}}}",
"}}}}'l`Ew!/rA9R^k<$BLD+VDJr+iGDB.X%RRe+r*iegS#@S9HrFI3Thb}}}",
"}}}}`l7d)>3s=6U&e$oDJLDXGYBO$B.X.Z+or.4<q4YRdUUU53iPw0EWc}}}",
"}}}}f`27!/)9AA;uY+oDR1XOODV.VBX..O$<oAq1YLQU;OR09JqP52Ta[}}}",
"}}}vtT73F3i9<<SUU+OB$.VDAZZXX$V...1RGGe1YOZGQO^diqFF50Tp(n}}",
"}}}jhaIdw8S5Ji^#O%ZOB$$eYZYLoSAC.O1YXO1#11ZDCekk_rF=F/~Whx}}",
"}}}](t2d/rS&*&eUOBVBBB$/GZLFNN..-.SD.X+Y#1RB:QA+0d&=&0u_(x}}",
"}}nhzuugiSs;;@UVYCVVXBB;1DFN.{{{{ANL.BZDBoBOSod65uF4,0kyfzm}",
"}}[pp_dI!_rA;C*)CYG1$XBY.AN.{{{{{NCCB.OYY#e1Ug4F@rSq50ITfnc}",
"}}'ft77d5)/<A@@eB54eGBBqD..{{{{{{.Ao.X+RDY1$GRPkg,Si5dHkffj}",
"}}nyW_7ad),4#COYR1SgeZ+e$o.{{{{{{.A;%ZRRDZLC+GP!srAKig33lf[}",
"}}[yEk~!7kri9;*AL+G##LXO$ON.{{{{{.C3RYO#%DZ+C*QSA4SSd)I2](`}",
"}}`]f7d!i>qi@r<%L+%)R$BqZ....{{{NCJAVBBLeDLL###*r&F==5wEa]c}",
"}}vxawI~5!qs@J^6^RRYZXVGKV.NAC..AACZB%GBL;)k<C6@AF&H0wuwTn`}",
"}}zlhp)PgiFKqsi64)Q+OO$oq+XX<HHJC<5ZBODXZLGoR#;Jq<SH8wEuWjc}",
"}}'ff__d,)PA&<6;#0U+VO1<$o+BG.X%10X1ZoOXOO#^o+*+A&PP/5~kt]'}",
"}}`]ht~u>/KS=K*<^gADCOD:+BVXYq&G+DYRYZXBAOGo&i^@SFJF!0wlhcn}",
"}}n`zT~l855FJ@Sr^,=QGO$QLXX$1RYVXODQQCLV$%L^^56ASq&,323ly([}",
"}}mvzW_w3H8P=&6ee~^Uo%GeQGDXRRLOBVYq$L)<LU<9!_&JFJFP22wfxjv}",
"}}M[`alp0H4==5_^i);@OUA^)R@eV&iR%1<BD+G)RU^_~^s4JF-i)EEabvm}",
"}}}'xtah)7H45sw!u!iO<#+<U^UGG#eoGRJ;R**^QO0/ss4S,&,~aaktn'}}",
"}}}']palh~H!!wl__H^^A@O++CC+CUC=0=;dg@^R<<isr&;J)i572tftnv}}",
"}}}mvzafuk5202/FFi:q:#S6U<U@VS<=g+VRUFe<@*;<S4</3~7w`lx]`m}}",
"}}}}[c[fuku,)72_5&9;AS+;<<<COOC^k0g;&<<+UqK49rg5wEkktpt]n}}}",
"}}}}vv[fz_E7w)7i/ri&K&A@AS@+CO:6;~e<Ue&:r)dP5-5>uIklh`][b}}}",
"}}}}M[vp]kl_3H_5F&>AK4rr;<*AAC<S;96rJw:S;F)>i0-Hkztkyvh'M}}}",
"}}}}}'zhzlluTul!HF4&Jq/_q<K<J;4;S<6sF84SSqH0,-,2E_`zhhvn}}}}",
"}}}}}M'`(fTkT2k7d8>H4rs~q<=<AAFq449is5=J!u!Fww2I7_zxxx'M}}}}",
"}}}}}}M']hhx7uEka>/FP>/&qPS4J=FF4q5iKS5HI!>8,~I3wlzf[vn}}}}}",
"}}}}}}}'cjyzh7EwuggHI,45=F>54F&44)i4JF7!54PI7IwTWzhxvn}}}}}}",
"}}}}}}}Mcb`(jfT7wdI72w,0I40,&/5i,400>5~-2PwEw~pytph[vM}}}}}}",
"}}}}}}}}Mb'j(hWT7E_klu7g)Ig/Pg!00/5iw!!25w3~TpElncvvn}}}}}}}",
"}}}}}}}}}MbnchWEaw7T~_pEu0ddppt)d0!0HWIwT7apTtlxzccn}}}}}}}}",
"}}}}}}}}}}Mc``fyfllfkhkd2EE2ku2tuI7)ku2Eklfpp(zz`'n}}}}}}}}}",
"}}}}}}}}}}}Mbb[x(xytWk7l3EkawI3l~ukWw7Ttlfyy(cjj'm}}}}}}}}}}",
"}}}}}}}}}}}}Mbb`xzxahlfTp_(Ek_lk7Wa`Tplhhfa(c[''M}}}}}}}}}}}",
"}}}}}}}}}}}}}Mmn[cfjhthyaffh]kTWWWaah(xxxf(h[vbM}}}}}}}}}}}}",
"}}}}}}}}}}}}}}}mmvz`fhh]]`(ytt((xyc````(fz''bm}}}}}}}}}}}}}}",
"}}}}}}}}}}}}}}}}MMm'`j`xx`zhz]`zncbfc`x`cnbnM}}}}}}}}}}}}}}}",
"}}}}}}}}}}}}}}}}}}MMnnnmmc']]vn[bvbvc`vvmMM}}}}}}}}}}}}}}}}}",
"}}}}}}}}}}}}}}}}}}}}}Mmnnbnnnmnnvbv'vmmM}}}}}}}}}}}}}}}}}}}}",
"}}}}}}}}}}}}}}}}}}}}}}}}MMMmmnnmmmMMM}}}}}}}}}}}}}}}}}}}}}}}",
"}}}}}}}}}}}}}}}}}}}}}}}}}}}}}}}}}}}}}}}}}}}}}}}}}}}}}}}}}}}}",
"}}}}}}}}}}}}}}}}}}}}}}}}}}}}}}}}}}}}}}}}}}}}}}}}}}}}}}}}}}}}"
};
