/* XPM */
static char *jade6[] = {
/* width height ncolors chars_per_pixel */
"30 30 91 1",
/* colors */
"  c #000000",
". c #73E573",
"X c #23BD23",
"o c #20A920",
"O c #17A317",
"+ c #1A991A",
"@ c #159B15",
"# c #159115",
"$ c #129512",
"% c #158B15",
"& c #138713",
"* c #108710",
"= c #117F11",
"- c #127912",
"; c #0E790E",
": c #0D730D",
"> c #0F6D0F",
", c #0E690E",
"< c #0F650F",
"1 c #086F08",
"2 c #0E630E",
"3 c #0B670B",
"4 c #0B610B",
"5 c #0A5F0A",
"6 c #0B5B0B",
"7 c #0B570B",
"8 c #085908",
"9 c #035703",
"0 c #055305",
"q c #094909",
"w c #074B07",
"e c #044F04",
"r c #024D02",
"t c #044904",
"y c #014301",
"u c #073907",
"i c #013F01",
"p c #063306",
"a c #013901",
"s c #042D04",
"d c #012701",
"f c #012101",
"g c #011D01",
"h c #011901",
"j c #011501",
"k c #001100",
"l c #010D01",
"z c #1CB21C",
"x c #19AA19",
"c c #189E18",
"v c #189A18",
"b c #159615",
"n c #119011",
"m c #148814",
"M c #108C10",
"N c #138213",
"B c #127C12",
"V c #0D840D",
"C c #107C10",
"Z c #0D7E0D",
"A c #117611",
"S c #0A7A0A",
"D c #107010",
"F c #106A10",
"G c #0C6E0C",
"H c #087408",
"J c #0A660A",
"K c #056C05",
"L c #0D5E0D",
"P c #066806",
"I c #076407",
"U c #0D580D",
"Y c #076007",
"T c #036403",
"R c #0A540A",
"E c #045C04",
"W c #094E09",
"Q c #015401",
"! c #044604",
"~ c #064206",
"^ c #073C07",
"/ c #053605",
"( c #013C01",
") c #013601",
"_ c #033203",
"` c #012E01",
"' c #022A02",
"] c #042604",
"[ c #042404",
"{ c #000A00",
"} c None",
/* pixels */
"}}}}}}}}}}}}d`qR)''}}}}}}}}}}}",
"}}}}}}}}}p)FFD-`>iwU~f}}}}}}}}",
"}}}}}}}}Uw><,=J&ryDy(w)}}}}}}}",
"}}}}}}d6i48;m:#69)aYN80Rp}}}}}",
"}}}}}uWA-C%v;O%S5GP959<rw'}}}}",
"}}}}dR4Nm&Qbc3E@ZCHPMEB6F!s}}}",
"}}}}a6A-EcPKH;X0z#Tx*x,eyDU}}}",
"}}}f6yr=&STzxXeTK@n@#&P!B>2q}}",
"}}[sRrmTa*S@Z9eZXVTb=E&#Y9FUg}",
"}}u<0!%;KxTz@OOzX*xYKECTY84Ug}",
"}}/FRm:Q@nxMKKx%X1zH1nv)(A-W/}",
"}j`!er;PKOzxHAX..oXnxx&y4A,)^k",
"}[qL4rm#xJSxVX...%X$Z1Z,im4D^p",
"}gRWL0Y=HZ#zMo...+T@VnvEmmyFfs",
"}f~F48#QQTnO:X%X%+xSH!GI%N6!Us",
"}[^~,,NI#POH*@SzHz$@c#x=m,rWq[",
"}j`W65:&Q=SMHz1KzZ9SMHQI&N22qg",
"}lp)63B~rCc&t#OeVGVZTQwr:A!Rgj",
"}}f~/D0`~Qmcbvvv8;iQGr9Cy5<uj}",
"}}ggqw!<4YmbG:cvaiNG3:Yy7aqqh}",
"}}lff)2(AD:9C=%GCI:;CyeA)qq/{}",
"}}}[^UUayD3rY=%AJYrB00R<Lsd[}}",
"}}}}]q/Rw(F3BDJNJe:65>L7W/f}}}",
"}}}}{[^WL~`L!(>065R042URhfj}}}",
"}}}}}{pu^_()<Ra<wL)<(^~spj}}}}",
"}}}}}}lgd'/^~^(`6~U)/~'[l}}}}}",
"}}}}}}}}ksu/d^q^']spu[g}}}}}}}",
"}}}}}}}}}ljjk[fhgg]fj{}}}}}}}}",
"}}}}}}}}}}}}lljhjl{}}}}}}}}}}}",
"}}}}}}}}}}}}}}}}}}}}}}}}}}}}}}"
};
