/* XPM */
static char *jade3[] = {
/* width height ncolors chars_per_pixel */
"14 14 92 1",
/* colors */
"  c #000000",
". c #35CB35",
"X c #1CB11C",
"o c #1AA71A",
"O c #169D16",
"+ c #179717",
"@ c #179317",
"# c #158B15",
"$ c #148914",
"% c #158715",
"& c #0F890F",
"* c #128312",
"= c #0D830D",
"- c #127912",
"; c #137513",
": c #0C7D0C",
"> c #0E750E",
", c #0F730F",
"< c #0F6F0F",
"1 c #0F6D0F",
"2 c #0E6B0E",
"3 c #077307",
"4 c #0E630E",
"5 c #0B630B",
"6 c #0A5F0A",
"7 c #085B08",
"8 c #0A550A",
"9 c #0B530B",
"0 c #0C4F0C",
"q c #094F09",
"w c #045704",
"e c #0A4D0A",
"r c #065306",
"t c #0A4B0A",
"y c #065106",
"u c #015901",
"i c #054F05",
"p c #074B07",
"a c #084908",
"s c #084508",
"d c #064706",
"f c #074107",
"g c #073907",
"h c #033D03",
"j c #053505",
"k c #063306",
"l c #042B04",
"z c #042904",
"x c #011D01",
"c c #011901",
"v c #21B621",
"b c #1CB41C",
"n c #FFFFFF",
"m c #18A418",
"M c #189A18",
"N c #149C14",
"B c #149014",
"V c #0F8C0F",
"C c #128612",
"Z c #148214",
"A c #138013",
"S c #107C10",
"D c #0A760A",
"F c #0F6A0F",
"G c #0A6A0A",
"H c #0C660C",
"J c #0A660A",
"K c #0B620B",
"L c #0C600C",
"P c #056A05",
"I c #066806",
"U c #076407",
"Y c #0D580D",
"T c #076007",
"R c #046404",
"E c #0A5A0A",
"W c #095409",
"Q c #035003",
"! c #034C03",
"~ c #034803",
"^ c #044604",
"/ c #083E08",
"( c #024402",
") c #053805",
"_ c #023802",
"` c #012E01",
"' c #042604",
"] c #022802",
"[ c #042404",
"{ c #022002",
"} c #011E01",
"| c None",
/* pixels */
"|||||q<AiY||||",
"|||sH#M$d,F_||",
"||t7*IMio:6i`|",
"||1B(XJ+vPDCp|",
"|gA,:OV@o!DKZt",
"|tK@Sb.nZ&:Ert",
"|f5WRmv.DN(2-Y",
"|01@6mO3P=U%;t",
"|lqaw+Gu~uQy^/",
"||{p<J>GT#yLg|",
"||xjhErHr48t'|",
"|||[])f9_et[||",
"|||||z'}kc||||",
"||||||||||||||"
};
