/* XPM */
static char *jade9[] = {
/* width height ncolors chars_per_pixel */
"50 50 191 2",
/* colors */
"`` c None",
"`a c #69E169",
"`b c #35CB35",
"`c c #23BD23",
"`d c #1CB11C",
"`e c #1AA71A",
"`f c #169D16",
"`g c #179717",
"`h c #149914",
"`i c #179317",
"`j c #139713",
"`k c #149514",
"`l c #1A8B1A",
"`m c #159315",
"`n c #129312",
"`o c #158B15",
"`p c #128D12",
"`q c #148914",
"`r c #158715",
"`s c #148514",
"`t c #0F890F",
"`u c #128312",
"`v c #0F870F",
"`w c #0E850E",
"`x c #108110",
"`y c #0D830D",
"`z c #0F7F0F",
"a` c #127912",
"aa c #137513",
"ab c #107710",
"ac c #0C7D0C",
"ad c #0E750E",
"ae c #0F730F",
"af c #0F6F0F",
"ag c #0F6D0F",
"ah c #0E6B0E",
"ai c #0E690E",
"aj c #077307",
"ak c #0F650F",
"al c #0E630E",
"am c #0B630B",
"an c #0D5B0D",
"ao c #0A5F0A",
"ap c #036703",
"aq c #0B570B",
"ar c #075D07",
"as c #026502",
"at c #046104",
"au c #0A550A",
"av c #0B530B",
"aw c #016101",
"ax c #0C4F0C",
"ay c #0A510A",
"az c #025B02",
"b` c #094F09",
"ba c #045704",
"bb c #0A4D0A",
"bc c #065306",
"bd c #0A4B0A",
"be c #065106",
"bf c #015901",
"bg c #074D07",
"bh c #054F05",
"bi c #074B07",
"bj c #084908",
"bk c #094709",
"bl c #084508",
"bm c #064706",
"bn c #014F01",
"bo c #004B00",
"bp c #063D06",
"bq c #063B06",
"br c #073907",
"bs c #033D03",
"bt c #004100",
"bu c #013F01",
"bv c #033B03",
"bw c #053505",
"bx c #003D00",
"by c #063306",
"bz c #053105",
"c` c #023502",
"ca c #003700",
"cb c #042B04",
"cc c #042904",
"cd c #012301",
"ce c #022102",
"cf c #011D01",
"cg c #021B02",
"ch c #011901",
"ci c #011701",
"cj c #011501",
"ck c #011301",
"cl c #010D01",
"cm c #21B621",
"cn c #1CB41C",
"co c #22AA22",
"cp c #1AAC1A",
"cq c #18A818",
"cr c #1F9C1F",
"cs c #18A418",
"ct c #17A217",
"cu c #189E18",
"cv c #189A18",
"cw c #149C14",
"cx c #149014",
"cy c #119011",
"cz c #128A12",
"d` c #0F8C0F",
"da c #128612",
"db c #148214",
"dc c #138013",
"dd c #127E12",
"de c #127C12",
"df c #107C10",
"dg c #0F7A0F",
"dh c #0B800B",
"di c #0E780E",
"dj c #0B7C0B",
"dk c #117211",
"dl c #0A7A0A",
"dm c #0E720E",
"dn c #0A780A",
"do c #0A760A",
"dp c #106A10",
"dq c #0B720B",
"dr c #0F6A0F",
"ds c #0A700A",
"dt c #0A6E0A",
"du c #0B6C0B",
"dv c #0A6A0A",
"dw c #0B680B",
"dx c #067006",
"dy c #0C660C",
"dz c #0A660A",
"e` c #056E05",
"ea c #056C05",
"eb c #0B620B",
"ec c #0C600C",
"ed c #0D5E0D",
"ee c #056A05",
"ef c #066806",
"eg c #076407",
"eh c #0D580D",
"ei c #0A5C0A",
"ej c #076007",
"ek c #046404",
"el c #0A5A0A",
"em c #075A07",
"en c #085808",
"eo c #045E04",
"ep c #095409",
"eq c #015E01",
"er c #055605",
"es c #055405",
"et c #015601",
"eu c #015401",
"ev c #035003",
"ew c #015201",
"ex c #034C03",
"ey c #034A03",
"ez c #B1FFB1",
"f` c #074207",
"fa c #034803",
"fb c #044604",
"fc c #074007",
"fd c #083E08",
"fe c #014601",
"ff c #024402",
"fg c #034203",
"fh c #044004",
"fi c #053805",
"fj c #063606",
"fk c #013A01",
"fl c #023802",
"fm c #052E05",
"fn c #013401",
"fo c #013201",
"fp c #042C04",
"fq c #013001",
"fr c #012E01",
"fs c #012C01",
"ft c #042604",
"fu c #012A01",
"fv c #022802",
"fw c #042404",
"fx c #002600",
"fy c #022002",
"fz c #011E01",
"g` c #001000",
"ga c #000A00",
/* pixels */
"````````````````````````````````````````````````````````````````````````````````````````````````````",
"``````````````````````````````````````fvcdfsbwbsehehfqbdblbkbqfm````````````````````````````````````",
"````````````````````````````````fvfvc`ayakalepauaabcakdkfgb`aufnbjbkfp``````````````````````````````",
"````````````````````````````cdehbmaqanelbeexfeexdragfraobedebcfobbayedbqbl``````````````````````````",
"````````````````````````fmbdedbiecelbmfeah`rafdc`o`sfba`ecemaffeenbufkbiedfdfj``````````````````````",
"``````````````````````fpehfhaqenebema`ejdm`i`gdvfhbadcfhba`oevdmdwahaoaodkakblcd````````````````````",
"````````````````````fsbbbmeyelemaodb`i`i`u`icudqbeaha`ateu`g`rahbnabdzflenbudpbjbz``````````````````",
"``````````````````fdfobidkfeab`rad`xdf`zdt`mcxekbheadsbxetatdvfaamewbodbfea`fgbpbvfr````````````````",
"````````````````brfndpakbcdz`r`q`odids`ecuczcycueeenbfeeeq`eefac`xdiaebabiesfabxbkbdcf``````````````",
"``````````````fdbdedebfea`ahab`saeel`v`ecucxffcpdj`h`fdobxaododtaccxdqeoewdbexc`drbsbkfj````````````",
"````````````ftehfnanfla`bseg`u`x`peme``yeacpdzeeerdv`f`fcu`x`t`t`p`pcsatfkewbgexagdkcacdfw``````````",
"``````````cjfifhagaiexdz`ibn`zcv`mdadn`yd``vapeqemdq`t`nap`odqcycsdjcxcuazbgejbobmdkecfnfuce````````",
"``````````brbbdpaffeec`rdueo`iczeke``dcpcnapff`gdfasdjdjcs`wdndh`weqdx`g`patecevemameialbvbq````````",
"````````chbqb`akaoeserdfeg`xdtbedxcpcncqcqdzasapdqaseedncme`cnctdjeq`ods`zdgaddvdf`saiepalbbcd``````",
"````````brfmb`enbefe`qbaetbeef`t`ee`d``jdhem`mczdjdhcn`c`fdxasas`madbceq`uda`i`uejfea`dkakehbr``````",
"``````cefpedbmelaiabdcegetfa`vcpajeqee`cdlaj`dcqcs`ccncq`jasev`zex`uemdxat`idteoaifnaheiedavblfw````",
"``````bzfvalakfaafev`ucv`zfa`pcp`t`ycmctev`ncq`ccwcp`c`cd`btawas`gdxcyekdnddeo`uejbadwaiaiayf`ch````",
"``````fpanakffakfebn`gca`z`w`taccncn`jdje`d``y`dda`qcmcm`jej`j`hfaajdl`kdxdgdmcafbdzdddebcakehby````",
"````chblavakbifebiegdidtbhcxcp`fcpcmcycndh`jdqcrco`b`ba`die``cct`ydze`dxbfdddybudmbo`ra`aibmf`fuce``",
"````cjfuaybmffeieladdgcuduaj`pct`fcmcpemaj`z`l`b`a`a`acoa`cmcmcpd`e``icp`eazbcefamah`rafdycafifscd``",
"````byfdbvfbavfaep`o`ucvekffcvajajcq`fcyas`e`b`aezezez`a`b`ictcmd`eqeqekdoekenendybnabdyenbxfobdcc``",
"````cdfqbjedbudyfhdz`ucx`zdodudwcp`ycmdw`kcm`b`aezezez`acr`i`dcndxasacdxcsdn`ofbbmemdfexfaakfhbdbr``",
"````fmbpbsbmfffqfhemdt`i`pac`zdn`e`dcwebcyco`b`aezezez`a`lcodufaardocy`hcxczeoeuegej`oesfaakavblfp``",
"````cbbqbkakepfeboarbneo`x`w`p`naddo`jcpcy`c`c`b`a`a`acrcrcz`ncnaj`u`v`w`pcx`x`gdzdmaedebgecaybyby``",
"````fdfqaldpbiaoboev`idfeoeobfatdx`f`f`wdm`d`c`lcr`bcocrdp`pcq`ycy`kbffbfgcxdiba`o`sdcafdrbmavf`fd``",
"````fmbzbdfhalffdudcejboazcvduekcucpcteq`d`e`e`icr`bdgaacpdjcq`h`kct`p`zdcefcvaddudwdbececanfhfqby``",
"````fzfdbjfgepeybe`r`oeg`uegamekcpcp`kdz`kcncp`hekel`wdx`iap`v`d`e`ncu`vbcaf`i`idcabdeenecayc`bkfm``",
"````fmfsaxb`ehaibh`rdm`i`zbnenbudt`wctdnd`cpcqdhctcu`jcy`tasexdn`ecv`m`zeienfn`o`oaoa`dkededaxfuby``",
"````fmfxavf`edelebaedbddaretbcetazefcvekeqdhee`easdo`dcp`wda`vateqczegdqejbnamdmdda`ahdkdpaqbpcdfy``",
"````fwfxbkfnfieddkabdebna`ewendf`icucubffaefdu`odabhea`pbcdf`y`metetdvewamfl`oaraea`a`fbanavbdfpcg``",
"````g`fzfrf`bzfgakelemelb`bsbvdceucz`g`zdtdodj`peqatateeazarazacdsetazddamboam`rardedpfkavfqbdcdck``",
"``````fwbzavbdbkelenbcfsbvfhbodzeo`g`gcz`i`z`gcsczetbxadcxeb`rab`gdt`qejbaaedcaffabtalfkbdaxfdfy````",
"``````ftcdfqfvb`fgafexagfefhdkdudv`ocvdgejdv`zcucu`wcuffeteg`xewdt`ieg`qdcdweybtbvalbiedbjcccgfy````",
"``````cjcfchc`c`fkecbibtbtesevexdcdg`i`oda`u`gcu`gdgewey`idtdqegcxeg`s`obofsbtaafgfkfcanfufdftcj````",
"````````cgfyf`cdbvfkalaaexabdbafdbdmdzewdfdmda`o`idt`xduejbaaeai`qddbnfebtbhebafcafrbqfqfjfjcc``````",
"````````cjchfubwflfkaubgakebdedy`sduevb`erdvdzdtdfdzdidfejevdkbodf`rendkendkalalayfnc`fxbrbyci``````",
"``````````fwccbqfibpalakbjc`bxaiabambhfneradabdm`odfdzdvdmarardcaba`alaienauauakalfqcdbwfyfw````````",
"``````````gafwfzblfqbjavaqfhdkbxafaoenbeaiaeabam`r`rabaoeyenafabaaexafdkdkelededehbzbwcccega````````",
"````````````cjfwfmfdblbdalanbibuafakafeca`ebdyarexebexdkenbcaheibcaadrelauakbjavbdfdccfwcj``````````",
"``````````````g`fzbzfdfiavbbaqfhedfuf`fkfbelffbtanbcenexeibeauffafecelalb`avbkbqchcdfwcg````````````",
"````````````````g`fybzfjbdbkblehayfbbdalbgaqfgbuanblfbepauedakfgauaqehbsbpaxbwfmcbfmcg``````````````",
"``````````````````cjccfzfdfcbqflbvfhcafhedb`aybib`bibpanedbsakalalfnfjfoaxf`fvcccccj````````````````",
"````````````````````cjcgfmcecdfufufnbqbpanbmbqf`ehbmehedbdfvbbblblaxaxbkblcdfmfwg```````````````````",
"``````````````````````cjclfwftbrbzbkfiaxfifqbdbkfqf`ehavavbpc`fzfrfxfjfdfycfceck````````````````````",
"````````````````````````gacgfycbccbrbrfxfxbzbdbdbdfdfdcffzfqfmbzfdbrbyfwchcgcl``````````````````````",
"````````````````````````````gag`fyfwcececcfpbybzcbfucbcbcfcdbyfmfmcicjcgga``````````````````````````",
"````````````````````````````````gackcgcifychchcccfchcjckcgchccfycjg`ga``````````````````````````````",
"``````````````````````````````````````gagagackcjchfycjchcgg`clga````````````````````````````````````",
"````````````````````````````````````````````````````````````````````````````````````````````````````",
"````````````````````````````````````````````````````````````````````````````````````````````````````"
};
