/* XPM */
static char * nose_f4_xpm[] = {
"64 64 6 1",
" 	c black		m black",
".	c black		m white",
"X	c gray		m black",
"o	c yellow	m black",
"+	c purple	m black",
"@	c purple3	m black",
"                                                                ",
"                                                                ",
"                                                                ",
"                                                                ",
"                                                                ",
"                                                                ",
"                                                                ",
"                                                                ",
"                                                                ",
"                                                                ",
"                                                                ",
"                                                                ",
"                                                                ",
"                                                                ",
"                                                                ",
"                          ...............                       ",
"                      ....XXXXXXXXXXXXXXX....                   ",
"                   ...XXXXXXXXXXXXXXXXXXXXXXX...                ",
"                 ..XXXXXXXXXXXXXXXXXXXXXXXXXXXXX..              ",
"               ..XXXXXXXXXXXXXXXXXXXXXXXXXXXXXXXXX.             ",
"              .XXXXXXXXXXXXXXXXXXXXXXXXXXXXXXXXXXXX.            ",
"             .XXXXXXXXXXXXXXXXXXXXXXXXXXXXXXXXXXXXXX..          ",
"            .XXXXXXXXXXXXXXXXXX......XXXXXXXXXXXXXXXXX.         ",
"           .XXXXXXXXXXXXXXXXX..XXXXXX..XXXXXXXXXXXXXXXX.        ",
"           .XXXXXXXXXXXXXXXX.XXXXXXXXXX.XXXXXXXXXXXXXXX.        ",
"          .XXXXXXXXXXXXXXXX.XXXXXXXXXXXX.XXXXXXXXXXXXXXX.       ",
"          .XXXXXXXXXXXXXXXX.XXXXXXXXXXXX.XXXXXXXXXXXXXXX.       ",
"         .XXXXXXXXXXXXXXXXX..XXXXXXXXXX..XXXXXXXXXXXXXXXX.      ",
"         .XXXXXXXXXXXXXXXXX.X..XXXXXX..X.XXXXXXXXXXXXXXXX.      ",
"         .XXXXXXXXXXXXXXXXX.XXX......XXX.XXXXXXXXXXXXXXXX.      ",
"         .XXXXXXXXXXXXXXXXX.XXXXXXXXXXXX.XXXXXXXXXXXXXXXX.      ",
"         .XXXXXXXXXXXXXXXXXX.XXXXXXXXXX.XXXXXXXXXXXXXXXX..      ",
"         ..XXXXXXXXXXXXXXXXXX..XXXXXX..XXXXXXXXXXXXXXXX. .      ",
"          ..XXXXXXXXXXXXXXXXXXX......XXXXXXXXXXXXXXXXX.X.       ",
"          .X.XXXXXXXXXXXXXXXXXXXXXXXXXXXXXXXXXXXXXXXX.XX.       ",
"           .X.XXXXXXXXXXXXXXXXXXXXXXXXXXXXXXXXXXXXXX.XX.        ",
"            .X.XXXXXXXXXXXXXXXXXXXXXXXXXXXXXXXXXXXX.XX.         ",
"             .X..XXXXXXXXXXXXXXXXXXXXXXXXXXXXXXXX..XX.          ",
"              .XX....XXXXXXXXXXXXXXXXXXXXXXXXX...XXX.           ",
"               ..XXXX.....XXXXXXXXXXXXXXXX....XXXX..            ",
"                 ...XXXXXX................XXXXX...              ",
"                    .....XXXXXXXXXXXXXXXXXX....                 ",
"                         ...................                    ",
"                       ...oooooooooooooooo..                    ",
"                       .+.oooooooooooooooo.+.                   ",
"                     ..+++.oooooooooooooo.++.                   ",
"      .........     .+++++.oooooooooooooo.+++.       ....       ",
"    ...+++++++..   ..++++++.oooooooooooo.++++..   ...++++..     ",
"    .+++++++++++....@+++++++..oooooooo..++++++@....++++++++.    ",
"   .+++++++++++++..@@+++++++++........+++++++@@..++++++++++.    ",
"   .+++++++++++++++..@+++++++++++.++++++++++@@..++++++++++++.   ",
"  .+++++++++++++++++..++++++++++. .+++++++++..++++++++++++++.   ",
"  .++++++++++++++++++++++++++++.   .+++++++..++++++++++++++++.  ",
"  .++++++++++++++++++++++++++++.   .+++++++++++++++++++++++++.  ",
"  .+++++++++++++++++++++++++++.     .++++++++++++++++++++++++.  ",
"  .+@.++++++++++++++++++++++++.     .++++++++++++++++++++.+++.  ",
"  .++.++++++++++++++++++++++++.     .++++++++++++++++++++.@+@.  ",
"  .@+@.+++++++++++++++++++++++.     .+++++++++++++++++++.@+@.   ",
"  .@@+@..++++++++++++++++++++@..   ..@++++++++++++++++..@++@.   ",
"   .@@+++++++++++++++++++++++@@.   .@@+++++++++++++++++++@@.    ",
"    ..@@@@@@@@@@@@@@@@@@@@@@@@@.   .@@@@@@@@@@@@@@@@@@@@@@.     ",
"     ...........................   .......................      ",
"                                                                ",
"                                                                "};
