#define terra20_width 64
#define terra20_height 64
#define terra20_x_hot 32
#define terra20_y_hot 32
static char terra20_bits[] = {
0x00, 0x00, 0x00, 0x20, 0x00, 0x00, 0x00, 0x00, 0x00, 0x00, 0x80, 0xff, 
0x19, 0x00, 0x00, 0x00, 0x00, 0x00, 0xf0, 0xff, 0xff, 0x0f, 0x00, 0x00, 
0x00, 0x00, 0xfe, 0xff, 0xff, 0x0f, 0x00, 0x00, 0x00, 0x00, 0xff, 0xff, 
0x3f, 0x08, 0x00, 0x00, 0x00, 0xc0, 0xff, 0xff, 0x1f, 0x08, 0x02, 0x00, 
0x00, 0xe0, 0xff, 0xff, 0xff, 0x08, 0x00, 0x00, 0x00, 0xf8, 0xff, 0xff, 
0x7f, 0x00, 0x00, 0x00, 0x00, 0xfc, 0xff, 0xff, 0x7f, 0x00, 0x00, 0x00, 
0x00, 0xfe, 0xff, 0xff, 0x3f, 0x00, 0x00, 0x00, 0x00, 0xff, 0xff, 0xff, 
0x0f, 0x01, 0x00, 0x00, 0x80, 0xff, 0xff, 0x7f, 0x0d, 0x00, 0x00, 0x00, 
0x80, 0xff, 0xff, 0xff, 0x08, 0x01, 0x00, 0x00, 0xc0, 0xff, 0xff, 0xff, 
0x88, 0x00, 0x00, 0x00, 0xe0, 0xff, 0xff, 0xff, 0x20, 0x00, 0x00, 0x00, 
0xe0, 0xff, 0xff, 0xff, 0x01, 0x00, 0x00, 0x00, 0xf0, 0xff, 0xff, 0xff, 
0x01, 0x00, 0x00, 0x00, 0xd8, 0xff, 0xff, 0xff, 0x00, 0x00, 0x00, 0x00, 
0x38, 0xff, 0xff, 0x7f, 0x00, 0x00, 0x00, 0x00, 0x38, 0xfe, 0xff, 0x1f, 
0x01, 0x00, 0x00, 0x00, 0x3c, 0xfe, 0xfc, 0x01, 0x00, 0x00, 0x00, 0x00, 
0x1c, 0x7c, 0xf8, 0x04, 0x00, 0x00, 0x00, 0x00, 0x0e, 0x3c, 0xf8, 0x01, 
0x01, 0x00, 0x00, 0x00, 0x06, 0x0c, 0xe0, 0x03, 0x01, 0x00, 0x00, 0x00, 
0x02, 0x0c, 0xe0, 0x03, 0x02, 0x00, 0x00, 0x00, 0x00, 0x0c, 0x80, 0x03, 
0x04, 0x00, 0x00, 0x00, 0x02, 0x04, 0x00, 0x01, 0x00, 0x00, 0x00, 0x00, 
0x03, 0x00, 0x10, 0x00, 0x06, 0x00, 0x00, 0x00, 0x03, 0x00, 0x20, 0x40, 
0x00, 0x00, 0x00, 0x00, 0x01, 0x00, 0x68, 0x60, 0x00, 0x00, 0x00, 0x00, 
0x01, 0x00, 0x50, 0x70, 0x00, 0x00, 0x00, 0x00, 0x01, 0x00, 0x60, 0x7c, 
0x10, 0x00, 0x00, 0x00, 0x01, 0x00, 0x60, 0x3c, 0xc0, 0x00, 0x00, 0x00, 
0x00, 0x00, 0xc0, 0x38, 0x81, 0x06, 0x00, 0x00, 0x00, 0x00, 0x80, 0x00, 
0x02, 0x3e, 0x00, 0x00, 0x00, 0x00, 0x00, 0x00, 0x00, 0x7c, 0x00, 0x00, 
0x00, 0x00, 0x00, 0x00, 0x00, 0x58, 0x00, 0x00, 0x00, 0x00, 0x00, 0x00, 
0x00, 0x80, 0x00, 0x00, 0x00, 0x00, 0x00, 0x00, 0x00, 0x00, 0x00, 0x00, 
0x00, 0x00, 0x00, 0x00, 0xc0, 0x11, 0x00, 0x00, 0x00, 0x00, 0x00, 0x00, 
0xf8, 0x11, 0x00, 0x00, 0x00, 0x00, 0x00, 0x00, 0xfe, 0x1b, 0x00, 0x00, 
0x00, 0x00, 0x00, 0x00, 0xfe, 0x3f, 0x00, 0x00, 0x00, 0x00, 0x00, 0x80, 
0xff, 0x3f, 0x00, 0x00, 0x08, 0x00, 0x00, 0xe0, 0xff, 0x7f, 0x00, 0x00, 
0x00, 0x00, 0x00, 0xe0, 0xff, 0x7f, 0x00, 0x00, 0x00, 0x00, 0x00, 0xe0, 
0xff, 0xff, 0x00, 0x00, 0x00, 0x00, 0x00, 0xe0, 0xff, 0x7f, 0x00, 0x00, 
0x00, 0x00, 0x00, 0xc0, 0xff, 0x7f, 0x00, 0x00, 0x00, 0x00, 0x00, 0xc0, 
0x83, 0x3f, 0x00, 0x00, 0x00, 0x00, 0x00, 0x00, 0x80, 0x1f, 0x00, 0x00, 
0x00, 0x00, 0x00, 0x00, 0x00, 0x0e, 0x00, 0x00, 0x00, 0x00, 0x00, 0x00, 
0x00, 0x00, 0x10, 0x00, 0x00, 0x00, 0x00, 0x00, 0x00, 0x04, 0x00, 0x00, 
0x00, 0x00, 0x00, 0x00, 0x00, 0x00, 0x00, 0x00, 0x00, 0x00, 0x00, 0x00, 
0x00, 0x00, 0x00, 0x00, 0x00, 0x00, 0x00, 0x00, 0x00, 0x00, 0x00, 0x00, 
0x00, 0x00, 0x00, 0x00, 0x00, 0x00, 0x00, 0x00, 0x00, 0x00, 0x00, 0x00, 
0x00, 0x00, 0x00, 0x00, 0x00, 0x00, 0x00, 0x00, 0x00, 0x00, 0x00, 0x00, 
0x00, 0x00, 0x00, 0x00, 0x00, 0x00, 0x00, 0x00, 0x00, 0x00, 0x10, 0x12, 
0x00, 0x00, 0x00, 0x00, 0x00, 0x00, 0x80, 0xff, 0x7f, 0x00, 0x00, 0x00, 
0x00, 0x00, 0x00, 0xf0, 0x1f, 0x00, 0x00, 0x00};
