/* XPM */
static char * eyes_r_xpm[] = {
"64 64 3 1",
" 	c None",
"@	c #DEDEDE",
"#	c #2121DE",
"                                                                ",
"                                                                ",
"                                                                ",
"                                                                ",
"                                                                ",
"                                                                ",
"                                                                ",
"                                                                ",
"                                                                ",
"                                                                ",
"                                                                ",
"                                                                ",
"                                                                ",
"                                                                ",
"                  @@@@@@@@@                   @@@@@@@@@         ",
"                  @@@@@@@@@                   @@@@@@@@@         ",
"                  @@@@@@@@@                   @@@@@@@@@         ",
"                  @@@@@@@@@                   @@@@@@@@@         ",
"              @@@@@@@@@@@@@@@@@@         @@@@@@@@@@@@@@@@@@     ",
"              @@@@@@@@@@@@@@@@@@         @@@@@@@@@@@@@@@@@@     ",
"              @@@@@@@@@@@@@@@@@@         @@@@@@@@@@@@@@@@@@     ",
"              @@@@@@@@@@@@@@@@@@         @@@@@@@@@@@@@@@@@@     ",
"              @@@@@@@@@@@@@@@@@@         @@@@@@@@@@@@@@@@@@     ",
"              @@@@@@@@@#########         @@@@@@@@@#########     ",
"              @@@@@@@@@#########         @@@@@@@@@#########     ",
"              @@@@@@@@@#########         @@@@@@@@@#########     ",
"              @@@@@@@@@#########         @@@@@@@@@#########     ",
"              @@@@@@@@@#########         @@@@@@@@@#########     ",
"              @@@@@@@@@#########         @@@@@@@@@#########     ",
"              @@@@@@@@@#########         @@@@@@@@@#########     ",
"              @@@@@@@@@#########         @@@@@@@@@#########     ",
"              @@@@@@@@@#########         @@@@@@@@@#########     ",
"                  @@@@@@@@@                   @@@@@@@@@         ",
"                  @@@@@@@@@                   @@@@@@@@@         ",
"                  @@@@@@@@@                   @@@@@@@@@         ",
"                  @@@@@@@@@                   @@@@@@@@@         ",
"                  @@@@@@@@@                   @@@@@@@@@         ",
"                                                                ",
"                                                                ",
"                                                                ",
"                                                                ",
"                                                                ",
"                                                                ",
"                                                                ",
"                                                                ",
"                                                                ",
"                                                                ",
"                                                                ",
"                                                                ",
"                                                                ",
"                                                                ",
"                                                                ",
"                                                                ",
"                                                                ",
"                                                                ",
"                                                                ",
"                                                                ",
"                                                                ",
"                                                                ",
"                                                                ",
"                                                                ",
"                                                                ",
"                                                                ",
"                                                                "};
