/* XPM */
static char * ghost_sf2_xpm[] = {
"64 64 4 1",
" 	c None",
".	c #DEDEDE",
"# 	c #FF0000",
"@	c #000000",
"                       ..................                       ",
"                       ..................                       ",
"                       ..................                       ",
"                       ..................                       ",
"                       ..................                       ",
"              ....................................              ",
"              ....................................              ",
"              ....................................              ",
"              ....................................              ",
"         ..............................................         ",
"         ..............................................         ",
"         ..............................................         ",
"         ..............................................         ",
"         ..............................................         ",
"     ......................................................     ",
"     ......................................................     ",
"     ......................................................     ",
"     ......................................................     ",
"     ......................................................     ",
"     ......................................................     ",
"     ......................................................     ",
"     ......................................................     ",
"     ......................................................     ",
"     .............#########..........#########.............     ",
"     .............#########..........#########.............     ",
"     .............#########..........#########.............     ",
"     .............#########..........#########.............     ",
"..................#########..........#########..................",
"..................#########..........#########..................",
"..................#########..........#########..................",
"..................#########..........#########..................",
"..................#########..........#########..................",
"................................................................",
"................................................................",
"................................................................",
"................................................................",
"................................................................",
"................................................................",
"................................................................",
"................................................................",
"................................................................",
".........#########.........##########.........#########.........",
".........#########.........##########.........#########.........",
".........#########.........##########.........#########.........",
".........#########.........##########.........#########.........",
".........#########.........##########.........#########.........",
".....####.........#########..........#########.........####.....",
".....####.........#########..........#########.........####.....",
".....####.........#########..........#########.........####.....",
".....####.........#########..........#########.........####.....",
"................................................................",
"................................................................",
"................................................................",
"................................................................",
"................................................................",
".........@@@@@.............@@@@@@@@@@.............@@@@@.........",
".........@@@@@.............@@@@@@@@@@.............@@@@@.........",
".........@@@@@.............@@@@@@@@@@.............@@@@@.........",
".........@@@@@.............@@@@@@@@@@.............@@@@@.........",
".....@@@@@@@@@@@@@.........@@@@@@@@@@.........@@@@@@@@@@@@@.....",
".....@@@@@@@@@@@@@.........@@@@@@@@@@.........@@@@@@@@@@@@@.....",
".....@@@@@@@@@@@@@.........@@@@@@@@@@.........@@@@@@@@@@@@@.....",
".....@@@@@@@@@@@@@.........@@@@@@@@@@.........@@@@@@@@@@@@@.....",
".....@@@@@@@@@@@@@.........@@@@@@@@@@.........@@@@@@@@@@@@@....."};
