/* XPM */
static char * ghost_u2_xpm[] = {
"64 64 5 1",
" 	c None",
".	c #FF0000",
"@	c #DEDEDE",
"#	c #2121DE",
"+	c #000000",
"                       ..................                       ",
"                       ..................                       ",
"                       ..................                       ",
"                       ..................                       ",
"                       ..................                       ",
"              #########..................#########              ",
"              #########..................#########              ",
"              #########..................#########              ",
"              #########..................#########              ",
"         @@@@@#########@@@@..........@@@@#########@@@@@         ",
"         @@@@@#########@@@@..........@@@@#########@@@@@         ",
"         @@@@@#########@@@@..........@@@@#########@@@@@         ",
"         @@@@@#########@@@@..........@@@@#########@@@@@         ",
"         @@@@@#########@@@@..........@@@@#########@@@@@         ",
"     ....@@@@@@@@@@@@@@@@@@..........@@@@@@@@@@@@@@@@@@....     ",
"     ....@@@@@@@@@@@@@@@@@@..........@@@@@@@@@@@@@@@@@@....     ",
"     ....@@@@@@@@@@@@@@@@@@..........@@@@@@@@@@@@@@@@@@....     ",
"     ....@@@@@@@@@@@@@@@@@@..........@@@@@@@@@@@@@@@@@@....     ",
"     ....@@@@@@@@@@@@@@@@@@..........@@@@@@@@@@@@@@@@@@....     ",
"     ....@@@@@@@@@@@@@@@@@@..........@@@@@@@@@@@@@@@@@@....     ",
"     ....@@@@@@@@@@@@@@@@@@..........@@@@@@@@@@@@@@@@@@....     ",
"     ....@@@@@@@@@@@@@@@@@@..........@@@@@@@@@@@@@@@@@@....     ",
"     ....@@@@@@@@@@@@@@@@@@..........@@@@@@@@@@@@@@@@@@....     ",
"     .........@@@@@@@@@..................@@@@@@@@@.........     ",
"     .........@@@@@@@@@..................@@@@@@@@@.........     ",
"     .........@@@@@@@@@..................@@@@@@@@@.........     ",
"     .........@@@@@@@@@..................@@@@@@@@@.........     ",
"................................................................",
"................................................................",
"................................................................",
"................................................................",
"................................................................",
"................................................................",
"................................................................",
"................................................................",
"................................................................",
"................................................................",
"................................................................",
"................................................................",
"................................................................",
"................................................................",
"................................................................",
"................................................................",
"................................................................",
"................................................................",
"................................................................",
"................................................................",
"................................................................",
"................................................................",
"................................................................",
"................................................................",
"................................................................",
"................................................................",
"................................................................",
"................................................................",
".........+++++.............++++++++++.............+++++.........",
".........+++++.............++++++++++.............+++++.........",
".........+++++.............++++++++++.............+++++.........",
".........+++++.............++++++++++.............+++++.........",
".....+++++++++++++.........++++++++++.........+++++++++++++.....",
".....+++++++++++++.........++++++++++.........+++++++++++++.....",
".....+++++++++++++.........++++++++++.........+++++++++++++.....",
".....+++++++++++++.........++++++++++.........+++++++++++++.....",
".....+++++++++++++.........++++++++++.........+++++++++++++....."};
