/* XPM */
static char * ghost_s1_xpm[] = {
"64 64 4 1",
" 	c None",
".	c #2121DE",
"# 	c #FFB897",
"@	c #000000",
"                       ..................                       ",
"                       ..................                       ",
"                       ..................                       ",
"                       ..................                       ",
"                       ..................                       ",
"              ....................................              ",
"              ....................................              ",
"              ....................................              ",
"              ....................................              ",
"         ..............................................         ",
"         ..............................................         ",
"         ..............................................         ",
"         ..............................................         ",
"         ..............................................         ",
"     ......................................................     ",
"     ......................................................     ",
"     ......................................................     ",
"     ......................................................     ",
"     ......................................................     ",
"     ......................................................     ",
"     ......................................................     ",
"     ......................................................     ",
"     ......................................................     ",
"     .............#########..........#########.............     ",
"     .............#########..........#########.............     ",
"     .............#########..........#########.............     ",
"     .............#########..........#########.............     ",
"..................#########..........#########..................",
"..................#########..........#########..................",
"..................#########..........#########..................",
"..................#########..........#########..................",
"..................#########..........#########..................",
"................................................................",
"................................................................",
"................................................................",
"................................................................",
"................................................................",
"................................................................",
"................................................................",
"................................................................",
"................................................................",
".........#########.........##########.........#########.........",
".........#########.........##########.........#########.........",
".........#########.........##########.........#########.........",
".........#########.........##########.........#########.........",
".........#########.........##########.........#########.........",
".....####.........#########..........#########.........####.....",
".....####.........#########..........#########.........####.....",
".....####.........#########..........#########.........####.....",
".....####.........#########..........#########.........####.....",
"................................................................",
"................................................................",
"................................................................",
"................................................................",
"................................................................",
"..................@@@@@..................@@@@@..................",
"..................@@@@@..................@@@@@..................",
"..................@@@@@..................@@@@@..................",
"..................@@@@@..................@@@@@..................",
"@@@@@.........@@@@@@@@@@@@@..........@@@@@@@@@@@@@.........@@@@@",
"@@@@@.........@@@@@@@@@@@@@..........@@@@@@@@@@@@@.........@@@@@",
"@@@@@.........@@@@@@@@@@@@@..........@@@@@@@@@@@@@.........@@@@@",
"@@@@@.........@@@@@@@@@@@@@..........@@@@@@@@@@@@@.........@@@@@",
"@@@@@.........@@@@@@@@@@@@@..........@@@@@@@@@@@@@.........@@@@@"};
