/* XPM */
static char * pacman_ds6_xpm[] = {
"64 64 2 1",
" 	c #FFFF00",
".	c None 	 ",
"................................................................",
"................................................................",
"................................................................",
"................................................................",
"................................................................",
"................................................................",
"................................................................",
"................................................................",
"................................................................",
"................................................................",
"................................................................",
"................................................................",
"................................................................",
"................................................................",
"................................................................",
"................................................................",
"................................................................",
"................................................................",
"................................................................",
"................................................................",
"................................................................",
"................................................................",
"................................................................",
"................................................................",
"................................................................",
"................................................................",
"................................................................",
"................................................................",
"................................................................",
"................................................................",
"................................................................",
"................................................................",
"................................................................",
"................................................................",
"..............................    ..............................",
"..............................    ..............................",
"..............................    ..............................",
"..............................    ..............................",
"..........................            ..........................",
"..........................            ..........................",
"..........................            ..........................",
"..........................            ..........................",
"..........................            ..........................",
".....................                      .....................",
".....................                      .....................",
".....................                      .....................",
".....................                      .....................",
".....................                      .....................",
".....................                      .....................",
".....................                      .....................",
".....................                      .....................",
".................                              .................",
".................                              .................",
".................                              .................",
".................                              .................",
".............                                      .............",
".............                                      .............",
".............                                      .............",
".............                                      .............",
".............                                      .............",
".................             ....             .................",
".................             ....             .................",
".................             ....             .................",
".................             ....             ................."};
