/* XPM */
static char * pacman_u2_xpm[] = {
"64 64 2 1",
" 	c None",
"+	c #FFFF00",
"                                                                ",
"                                                                ",
"                                                                ",
"                                                                ",
"                                                                ",
"                                                                ",
"                                                                ",
"                                                                ",
"                                                                ",
"                                                                ",
"                                                                ",
"                                                                ",
"                                                                ",
"                                                                ",
"                                                                ",
"                                                                ",
"                                                                ",
"                                                                ",
"                                                                ",
"                                                                ",
"++++++++++                                            ++++++++++",
"++++++++++                                            ++++++++++",
"++++++++++                                            ++++++++++",
"++++++++++                                            ++++++++++",
"++++++++++                                            ++++++++++",
"+++++++++++++++                                  +++++++++++++++",
"+++++++++++++++                                  +++++++++++++++",
"+++++++++++++++                                  +++++++++++++++",
"+++++++++++++++                                  +++++++++++++++",
"+++++++++++++++                                  +++++++++++++++",
"++++++++++++++++++++                        ++++++++++++++++++++",
"++++++++++++++++++++                        ++++++++++++++++++++",
"++++++++++++++++++++                        ++++++++++++++++++++",
"++++++++++++++++++++                        ++++++++++++++++++++",
"+++++++++++++++++++++++++              +++++++++++++++++++++++++",
"+++++++++++++++++++++++++              +++++++++++++++++++++++++",
"+++++++++++++++++++++++++              +++++++++++++++++++++++++",
"+++++++++++++++++++++++++              +++++++++++++++++++++++++",
"+++++++++++++++++++++++++              +++++++++++++++++++++++++",
"++++++++++++++++++++++++++++++    ++++++++++++++++++++++++++++++",
"++++++++++++++++++++++++++++++    ++++++++++++++++++++++++++++++",
"++++++++++++++++++++++++++++++    ++++++++++++++++++++++++++++++",
"++++++++++++++++++++++++++++++    ++++++++++++++++++++++++++++++",
"++++++++++++++++++++++++++++++    ++++++++++++++++++++++++++++++",
"     ++++++++++++++++++++++++++++++++++++++++++++++++++++++     ",
"     ++++++++++++++++++++++++++++++++++++++++++++++++++++++     ",
"     ++++++++++++++++++++++++++++++++++++++++++++++++++++++     ",
"     ++++++++++++++++++++++++++++++++++++++++++++++++++++++     ",
"     ++++++++++++++++++++++++++++++++++++++++++++++++++++++     ",
"     ++++++++++++++++++++++++++++++++++++++++++++++++++++++     ",
"     ++++++++++++++++++++++++++++++++++++++++++++++++++++++     ",
"     ++++++++++++++++++++++++++++++++++++++++++++++++++++++     ",
"     ++++++++++++++++++++++++++++++++++++++++++++++++++++++     ",
"     ++++++++++++++++++++++++++++++++++++++++++++++++++++++     ",
"          ++++++++++++++++++++++++++++++++++++++++++++          ",
"          ++++++++++++++++++++++++++++++++++++++++++++          ",
"          ++++++++++++++++++++++++++++++++++++++++++++          ",
"          ++++++++++++++++++++++++++++++++++++++++++++          ",
"          ++++++++++++++++++++++++++++++++++++++++++++          ",
"                    ++++++++++++++++++++++++                    ",
"                    ++++++++++++++++++++++++                    ",
"                    ++++++++++++++++++++++++                    ",
"                    ++++++++++++++++++++++++                    ",
"                    ++++++++++++++++++++++++                    "};
