/* XPM */
static char * pacman_d2_xpm[] = {
"64 64 2 1",
" 	c None",
"+	c #FFFF00",
"                    ++++++++++++++++++++++++                    ",
"                    ++++++++++++++++++++++++                    ",
"                    ++++++++++++++++++++++++                    ",
"                    ++++++++++++++++++++++++                    ",
"                    ++++++++++++++++++++++++                    ",
"          ++++++++++++++++++++++++++++++++++++++++++++          ",
"          ++++++++++++++++++++++++++++++++++++++++++++          ",
"          ++++++++++++++++++++++++++++++++++++++++++++          ",
"          ++++++++++++++++++++++++++++++++++++++++++++          ",
"          ++++++++++++++++++++++++++++++++++++++++++++          ",
"     ++++++++++++++++++++++++++++++++++++++++++++++++++++++     ",
"     ++++++++++++++++++++++++++++++++++++++++++++++++++++++     ",
"     ++++++++++++++++++++++++++++++++++++++++++++++++++++++     ",
"     ++++++++++++++++++++++++++++++++++++++++++++++++++++++     ",
"     ++++++++++++++++++++++++++++++++++++++++++++++++++++++     ",
"     ++++++++++++++++++++++++++++++++++++++++++++++++++++++     ",
"     ++++++++++++++++++++++++++++++++++++++++++++++++++++++     ",
"     ++++++++++++++++++++++++++++++++++++++++++++++++++++++     ",
"     ++++++++++++++++++++++++++++++++++++++++++++++++++++++     ",
"     ++++++++++++++++++++++++++++++++++++++++++++++++++++++     ",
"++++++++++++++++++++++++++++++    ++++++++++++++++++++++++++++++",
"++++++++++++++++++++++++++++++    ++++++++++++++++++++++++++++++",
"++++++++++++++++++++++++++++++    ++++++++++++++++++++++++++++++",
"++++++++++++++++++++++++++++++    ++++++++++++++++++++++++++++++",
"++++++++++++++++++++++++++++++    ++++++++++++++++++++++++++++++",
"+++++++++++++++++++++++++              +++++++++++++++++++++++++",
"+++++++++++++++++++++++++              +++++++++++++++++++++++++",
"+++++++++++++++++++++++++              +++++++++++++++++++++++++",
"+++++++++++++++++++++++++              +++++++++++++++++++++++++",
"+++++++++++++++++++++++++              +++++++++++++++++++++++++",
"++++++++++++++++++++                        ++++++++++++++++++++",
"++++++++++++++++++++                        ++++++++++++++++++++",
"++++++++++++++++++++                        ++++++++++++++++++++",
"++++++++++++++++++++                        ++++++++++++++++++++",
"+++++++++++++++                                  +++++++++++++++",
"+++++++++++++++                                  +++++++++++++++",
"+++++++++++++++                                  +++++++++++++++",
"+++++++++++++++                                  +++++++++++++++",
"+++++++++++++++                                  +++++++++++++++",
"++++++++++                                            ++++++++++",
"++++++++++                                            ++++++++++",
"++++++++++                                            ++++++++++",
"++++++++++                                            ++++++++++",
"++++++++++                                            ++++++++++",
"                                                                ",
"                                                                ",
"                                                                ",
"                                                                ",
"                                                                ",
"                                                                ",
"                                                                ",
"                                                                ",
"                                                                ",
"                                                                ",
"                                                                ",
"                                                                ",
"                                                                ",
"                                                                ",
"                                                                ",
"                                                                ",
"                                                                ",
"                                                                ",
"                                                                ",
"                                                                "};
