/* XPM */
static char * pacman_l2_xpm[] = {
"64 64 2 1",
" 	c None",
"+	c #FFFF00",
"                    ++++++++++++++++++++++++                    ",
"                    ++++++++++++++++++++++++                    ",
"                    ++++++++++++++++++++++++                    ",
"                    ++++++++++++++++++++++++                    ",
"                    ++++++++++++++++++++++++                    ",
"                    ++++++++++++++++++++++++++++++++++          ",
"                    ++++++++++++++++++++++++++++++++++          ",
"                    ++++++++++++++++++++++++++++++++++          ",
"                    ++++++++++++++++++++++++++++++++++          ",
"                    ++++++++++++++++++++++++++++++++++          ",
"                         ++++++++++++++++++++++++++++++++++     ",
"                         ++++++++++++++++++++++++++++++++++     ",
"                         ++++++++++++++++++++++++++++++++++     ",
"                         ++++++++++++++++++++++++++++++++++     ",
"                         ++++++++++++++++++++++++++++++++++     ",
"                              +++++++++++++++++++++++++++++     ",
"                              +++++++++++++++++++++++++++++     ",
"                              +++++++++++++++++++++++++++++     ",
"                              +++++++++++++++++++++++++++++     ",
"                              +++++++++++++++++++++++++++++     ",
"                                  ++++++++++++++++++++++++++++++",
"                                  ++++++++++++++++++++++++++++++",
"                                  ++++++++++++++++++++++++++++++",
"                                  ++++++++++++++++++++++++++++++",
"                                  ++++++++++++++++++++++++++++++",
"                                       +++++++++++++++++++++++++",
"                                       +++++++++++++++++++++++++",
"                                       +++++++++++++++++++++++++",
"                                       +++++++++++++++++++++++++",
"                                       +++++++++++++++++++++++++",
"                                            ++++++++++++++++++++",
"                                            ++++++++++++++++++++",
"                                            ++++++++++++++++++++",
"                                            ++++++++++++++++++++",
"                                       +++++++++++++++++++++++++",
"                                       +++++++++++++++++++++++++",
"                                       +++++++++++++++++++++++++",
"                                       +++++++++++++++++++++++++",
"                                       +++++++++++++++++++++++++",
"                                  ++++++++++++++++++++++++++++++",
"                                  ++++++++++++++++++++++++++++++",
"                                  ++++++++++++++++++++++++++++++",
"                                  ++++++++++++++++++++++++++++++",
"                                  ++++++++++++++++++++++++++++++",
"                              +++++++++++++++++++++++++++++     ",
"                              +++++++++++++++++++++++++++++     ",
"                              +++++++++++++++++++++++++++++     ",
"                              +++++++++++++++++++++++++++++     ",
"                              +++++++++++++++++++++++++++++     ",
"                         ++++++++++++++++++++++++++++++++++     ",
"                         ++++++++++++++++++++++++++++++++++     ",
"                         ++++++++++++++++++++++++++++++++++     ",
"                         ++++++++++++++++++++++++++++++++++     ",
"                         ++++++++++++++++++++++++++++++++++     ",
"                    ++++++++++++++++++++++++++++++++++          ",
"                    ++++++++++++++++++++++++++++++++++          ",
"                    ++++++++++++++++++++++++++++++++++          ",
"                    ++++++++++++++++++++++++++++++++++          ",
"                    ++++++++++++++++++++++++++++++++++          ",
"                    ++++++++++++++++++++++++                    ",
"                    ++++++++++++++++++++++++                    ",
"                    ++++++++++++++++++++++++                    ",
"                    ++++++++++++++++++++++++                    ",
"                    ++++++++++++++++++++++++                    "};
