/* XPM */
static char * pacman_ds5_xpm[] = {
"64 64 2 1",
" 	c #FFFF00",
".	c None 	 ",
"................................................................",
"................................................................",
"................................................................",
"................................................................",
"................................................................",
"................................................................",
"................................................................",
"................................................................",
"................................................................",
"................................................................",
"................................................................",
"................................................................",
"................................................................",
"................................................................",
"................................................................",
"................................................................",
"................................................................",
"................................................................",
"................................................................",
"................................................................",
"................................................................",
"................................................................",
"................................................................",
"................................................................",
"................................................................",
"................................................................",
"................................................................",
"................................................................",
"................................................................",
"................................................................",
"................................................................",
"................................................................",
"................................................................",
"................................................................",
"..............................    ..............................",
"..............................    ..............................",
"..............................    ..............................",
"..............................    ..............................",
"..........................            ..........................",
"..........................            ..........................",
"..........................            ..........................",
"..........................            ..........................",
"..........................            ..........................",
".................                              .................",
".................                              .................",
".................                              .................",
".................                              .................",
".............                                      .............",
".............                                      .............",
".............                                      .............",
".............                                      .............",
"....                                                        ....",
"....                                                        ....",
"....                                                        ....",
"....                                                        ....",
"....                          ....                          ....",
"....                          ....                          ....",
"....                          ....                          ....",
"....                          ....                          ....",
"....                          ....                          ....",
".........                 ............                 .........",
".........                 ............                 .........",
".........                 ............                 .........",
".........                 ............                 ........."};
