/* XPM */
static char * pacman_0_xpm[] = {
"64 64 2 1",
" 	c None",
".	c #FFFF00",
"                    ........................                    ",
"                    ........................                    ",
"                    ........................                    ",
"                    ........................                    ",
"                    ........................                    ",
"          ............................................          ",
"          ............................................          ",
"          ............................................          ",
"          ............................................          ",
"          ............................................          ",
"     ......................................................     ",
"     ......................................................     ",
"     ......................................................     ",
"     ......................................................     ",
"     ......................................................     ",
"     ......................................................     ",
"     ......................................................     ",
"     ......................................................     ",
"     ......................................................     ",
"     ......................................................     ",
"................................................................",
"................................................................",
"................................................................",
"................................................................",
"................................................................",
"................................................................",
"................................................................",
"................................................................",
"................................................................",
"................................................................",
"................................................................",
"................................................................",
"................................................................",
"................................................................",
"................................................................",
"................................................................",
"................................................................",
"................................................................",
"................................................................",
"................................................................",
"................................................................",
"................................................................",
"................................................................",
"................................................................",
"     ......................................................     ",
"     ......................................................     ",
"     ......................................................     ",
"     ......................................................     ",
"     ......................................................     ",
"     ......................................................     ",
"     ......................................................     ",
"     ......................................................     ",
"     ......................................................     ",
"     ......................................................     ",
"          ............................................          ",
"          ............................................          ",
"          ............................................          ",
"          ............................................          ",
"          ............................................          ",
"                    ........................                    ",
"                    ........................                    ",
"                    ........................                    ",
"                    ........................                    ",
"                    ........................                    "};
