#define sickle_width 21
#define sickle_height 21
static unsigned char sickle_bits[] = {
   0x00, 0x1e, 0x00, 0x00, 0x38, 0x00, 0x00, 0x60, 0x00, 0x00, 0xc0, 0x00,
   0xc0, 0x81, 0x01, 0xe0, 0x00, 0x03, 0xf0, 0x00, 0x03, 0xb8, 0x01, 0x07,
   0x10, 0x03, 0x07, 0x00, 0x06, 0x07, 0x00, 0x0c, 0x07, 0x00, 0x18, 0x07,
   0x00, 0x30, 0x07, 0x30, 0xe0, 0x03, 0x78, 0xc0, 0x03, 0xcc, 0xc0, 0x01,
   0x86, 0xe3, 0x03, 0x07, 0x7f, 0x06, 0x07, 0x3c, 0x0c, 0x03, 0x00, 0x08,
   0x00, 0x00, 0x00};
