/* XPM */
static char * nose_f3_xpm[] = {
"64 64 7 1",
" 	c #000000	m #000000",
".	c #000000	m #FFFFFF",
"X	c #BEBEBE	m #000000",
"o	c #FFFF00	m #000000",
"O	c #EEEE00	m #000000",
"+	c #A020F0	m #000000",
"@	c #7D26CD	m #000000",
"                                                                ",
"                                                                ",
"                                                                ",
"                                                                ",
"                                                                ",
"                     .....................                      ",
"                     .XXXXXXXXXXXXXXXXXXX.                      ",
"                     .XXXXXXXXXXXXXXXXXXX.                      ",
"                     .XXXXXXXXXXXXXXXXXXX.                      ",
"                     .XXXXXXXXXXXXXXXXXXX.                      ",
"                     .XXXXXXXXXXXXXXXXXXX.                      ",
"          ...........................................           ",
"          .XXXXXXXXXXXXXXXXX.......XXXXXXXXXXXXXXXXX.           ",
"          .XXXXXXXXXXXXXXX..ooooooo..XXXXXXXXXXXXXXX.           ",
"          ................ooooooooooo................           ",
"                .OOOOOO.ooooooooooooooo.OOOOOO.                 ",
"               ..OOOOO.ooooooooooooooooo.OOOOO..                ",
"               .OOOOO.ooooooooooooooooooo.OOOOO.                ",
"              .OOOOOO.ooooooooooooooooooo.OOOOOO.               ",
"              .OOOOO.ooooooooooooooooooooo.OOOOO.               ",
"             .OOOOOO.ooooooooooooooooooooo.OOOOOO.              ",
"             .OOOOO.ooooooooooooooooooooooo.OOOOO.              ",
"            ..OOOOO.ooooooooooooooooooooooo.OOOOO..             ",
"            .OOOOOO.ooooooooooooooooooooooo.OOOOOO.             ",
"            .OOOOOO.ooooooooooooooooooooooo.OOOOOO..            ",
"           .OOOOOOO.ooooooooooooooooooooooo.OOOOOOO.            ",
"           .OOOOOOO.ooooooooooooooooooooooo.OOOOOOO.            ",
"           .OOOOOOO.ooooooooooooooooooooooo.OOOOOOO.            ",
"           .OOOOOOOO.ooooooooooooooooooooo.OOOOOOOO.            ",
"           .OOOOOOOO.ooooooooooooooooooooo.OOOOOOOO.            ",
"           .OOOOOOOOO.ooooooooooooooooooo.OOOOOOOOO.            ",
"           .OOOOOOOOO.ooooooooooooooooooo.OOOOOOOO..            ",
"           ..OOOOOOOOO.ooooooooooooooooo.OOOOOOOOO.             ",
"            .OOOOOOOOOO.ooooooooooooooo.OOOOOOOOOO.             ",
"            .OOOOOOOOOOO..ooooooooooo..OOOOOOOOOO..             ",
"            ..OOOOOOOOOOOO..ooooooo..OOOOOOOOOOO.               ",
"             .OOOOOOOOOOOOOO.......OOOOOOOOOOOOO.               ",
"             ..OOOOOOOOOOOOOOOOOOOOOOOOOOOOOOOO..               ",
"              .OOOOOOOOOOOOOOOOOOOOOOOOOOOOOOOO.                ",
"               ................................                 ",
"                                                                ",
"                    .........                                   ",
"                   .+++++++++.          ........                ",
"                   .++++++++++.      ...++++++++...             ",
"                  .++++++++++++..   ..++++++++++++..            ",
"                  .++++++++++++@.  .++++++++++++++++..          ",
"                  .++++++++++++@@..+++++++++++..@++++.          ",
"                  .++++++++++++@..++++++++++++++..++++.         ",
"                  .+++++++++++@.+++++++++++++++++.@+++.         ",
"                  .++++++++++@.+++++++++++++++++++.@+++.        ",
"                  .++++++++++..+++++++++++++++++++.@+++.        ",
"                  .+++++++++++++++++++++++++++++++.@+++.        ",
"                 .@++++++++++++++++++++++++++++++++++++.        ",
"                 .@++++++++++++++++++++++++++++++++++@..        ",
"                 .@+++++++++++++++++++++++++++++++++@@.         ",
"                 .@@++++++++++++++++++++++++++++++++@@.         ",
"                  .@++++++++++++++++++++++++++++++@@@.          ",
"                  .@@++++@@@++++++++++++++++++++@@@..           ",
"                   .@@@@@@@@@@@@@@@@@@@@@@@@@@@@@...            ",
"                    ..............................              ",
"                                                                ",
"                                                                ",
"                                                                ",
"                                                                "};
