/* XPM */
static char * nose_l1_xpm[] = {
"64 64 7 1",
" 	c black		m black",
".	c black		m white",
"X	c gray		m black",
"o	c yellow	m black",
"O	c yellow2	m black",
"+	c purple	m black",
"@	c purple3	m black",
"                                                                ",
"                                                                ",
"                                                                ",
"                                                                ",
"                                                                ",
"                      .....................                     ",
"                      .XXXXXXXXXXXXXXXXXXX.                     ",
"                      .XXXXXXXXXXXXXXXXXXX.                     ",
"                      .XXXXXXXXXXXXXXXXXXX.                     ",
"                      .XXXXXXXXXXXXXXXXXXX.                     ",
"                      .XXXXXXXXXXXXXXXXXXX.                     ",
"           ...........................................          ",
"           .XXXXXXXXXXXXXXXXXXXXXXXXXXXXXXXXXXXXXXXXX.          ",
"           .XXXXXXXXXXXXXXXXXXXXXXXXXXXXXXXXXXXXXXXXX.          ",
"           ...........................................          ",
"            ......OOOOOOOOOOOOOOOOOOOOOOOOOOOOO.                ",
"         ...ooOOOO..OOOOOOOOOOOOOOOOOOOOOOOOOOO..               ",
"        ..oooOOOOOOO..OOOOOOOOOOOOOOOOOOOOOOOOOO.               ",
"       .oooOOOOOOOOOOO.OOOOOOOOOOOOOOOOOOOOOOOOOO.              ",
"      .ooOOOOOOOOOOOOO..OOOOOOOOOOOOOOOOOOOOOOOOO.              ",
"     .ooOOOOOOOOOOOOOOO.OOOOOOOOOOOOOOOOOOOOOOOOOO.             ",
"    .ooOOOOOOOOOOOOOOOOOOOOOOOOOOOOOOOOOOOOOOOOOOO.             ",
"    .ooOOOOOOOOOOOOOOOOOOOOOOOOOOOOOOOOOOOOOOOOOOO..            ",
"   .oooOOOOOOOOOOOOOOOOOOOOOOOOOOOOOOOOOOOOOOOOOOOO.            ",
"   .ooOOOOOOOOOOOOOOOOOOOOOOOOOOOOOOOOOOOOOOOOOOOOO.            ",
"   .ooOOOOOOOOOOOOOOOOOOOOOOOOOOOOOOOOOOOOOOOOOOOOOO.           ",
"   .ooOOOOOOOOOOOOOOOOOOOOOOOOOOOOOOOOOOOOOOOOOOOOOO.           ",
"   .ooOOOOOOOOOOOOOOOOOOOOOOOOOOOOOOOOOOOOOOOOOOOOOO.           ",
"   .ooOOOOOOOOOOOOOOOOOOOOOOOOOOOOOOOOOOOOOOOOOOOOOO.           ",
"   .oooOOOOOOOOOOOOOOOOOOOOOOOOOOOOOOOOOOOOOOOOOOOOO.           ",
"   .oooOOOOOOOOOOOOOOOOOOOOOOOOOOOOOOOOOOOOOOOOOOOOO.           ",
"    .oooOOOOOOOOOOOOOOOOOOOOOOOOOOOOOOOOOOOOOOOOOOOO.           ",
"    .ooooOOOOOOOOOOOOOOo.OOOOOOOOOOOOOOOOOOOOOOOOOO..           ",
"     .ooooOOOOOOOOOOoooo.OOOOOOOOOOOOOOOOOOOOOOOOOO.            ",
"      .oooooooOOOOOoooo.OOOOOOOOOOOOOOOOOOOOOOOOOOO.            ",
"       .oooooooooooooo.OOOOOOOOOOOOOOOOOOOOOOOOOOO..            ",
"        .oooooooooooo.OOOOOOOOOOOOOOOOOOOOOOOOOOOO.             ",
"         ..oooooooo..OOOOOOOOOOOOOOOOOOOOOOOOOOOO..             ",
"           ........OOOOOOOOOOOOOOOOOOOOOOOOOOOOOO.              ",
"                   ..............................               ",
"                                                                ",
"                                   .........                    ",
"                ........          .+++++++++.                   ",
"             ...++++++++...      .++++++++++.                   ",
"            ..++++++++++++..   ..++++++++++++.                  ",
"          ..++++++++++++++++.  .@++++++++++++.                  ",
"          .++++@..+++++++++++..@@++++++++++++.                  ",
"         .++++..++++++++++++++..@++++++++++++.                  ",
"         .+++@.+++++++++++++++++.@+++++++++++.                  ",
"        .+++@.+++++++++++++++++++.@++++++++++.                  ",
"        .+++@.+++++++++++++++++++..++++++++++.                  ",
"        .+++@.+++++++++++++++++++++++++++++++.                  ",
"        .++++++++++++++++++++++++++++++++++++@.                 ",
"        ..@++++++++++++++++++++++++++++++++++@.                 ",
"         .@@+++++++++++++++++++++++++++++++++@.                 ",
"         .@@++++++++++++++++++++++++++++++++@@.                 ",
"          .@@@++++++++++++++++++++++++++++++@.                  ",
"           ..@@@++++++++++++++++++++@@@++++@@.                  ",
"            ...@@@@@@@@@@@@@@@@@@@@@@@@@@@@@.                   ",
"              ..............................                    ",
"                                                                ",
"                                                                ",
"                                                                ",
"                                                                "};
