/* XPM */
static char * nose_r1_xpm[] = {
"64 64 7 1",
" 	c #000000	m #000000",
".	c #000000	m #FFFFFF",
"X	c #BEBEBE	m #000000",
"o	c #FFFF00	m #000000",
"O	c #EEEE00	m #000000",
"+	c #A020F0	m #000000",
"@	c #7D26CD	m #000000",
"                                                                ",
"                                                                ",
"                                                                ",
"                                                                ",
"                                                                ",
"                     .....................                      ",
"                     .XXXXXXXXXXXXXXXXXXX.                      ",
"                     .XXXXXXXXXXXXXXXXXXX.                      ",
"                     .XXXXXXXXXXXXXXXXXXX.                      ",
"                     .XXXXXXXXXXXXXXXXXXX.                      ",
"                     .XXXXXXXXXXXXXXXXXXX.                      ",
"          ...........................................           ",
"          .XXXXXXXXXXXXXXXXXXXXXXXXXXXXXXXXXXXXXXXXX.           ",
"          .XXXXXXXXXXXXXXXXXXXXXXXXXXXXXXXXXXXXXXXXX.           ",
"          ...........................................           ",
"                .OOOOOOOOOOOOOOOOOOOOOOOOOOOOO......            ",
"               ..OOOOOOOOOOOOOOOOOOOOOOOOOOO..OOOOoo...         ",
"               .OOOOOOOOOOOOOOOOOOOOOOOOOO..OOOOOOOooo..        ",
"              .OOOOOOOOOOOOOOOOOOOOOOOOOO.OOOOOOOOOOOooo.       ",
"              .OOOOOOOOOOOOOOOOOOOOOOOOO..OOOOOOOOOOOOOoo.      ",
"             .OOOOOOOOOOOOOOOOOOOOOOOOOO.OOOOOOOOOOOOOOOoo.     ",
"             .OOOOOOOOOOOOOOOOOOOOOOOOOOOOOOOOOOOOOOOOOOOoo.    ",
"            ..OOOOOOOOOOOOOOOOOOOOOOOOOOOOOOOOOOOOOOOOOOOoo.    ",
"            .OOOOOOOOOOOOOOOOOOOOOOOOOOOOOOOOOOOOOOOOOOOOooo.   ",
"            .OOOOOOOOOOOOOOOOOOOOOOOOOOOOOOOOOOOOOOOOOOOOOoo.   ",
"           .OOOOOOOOOOOOOOOOOOOOOOOOOOOOOOOOOOOOOOOOOOOOOOoo.   ",
"           .OOOOOOOOOOOOOOOOOOOOOOOOOOOOOOOOOOOOOOOOOOOOOOoo.   ",
"           .OOOOOOOOOOOOOOOOOOOOOOOOOOOOOOOOOOOOOOOOOOOOOOoo.   ",
"           .OOOOOOOOOOOOOOOOOOOOOOOOOOOOOOOOOOOOOOOOOOOOOOoo.   ",
"           .OOOOOOOOOOOOOOOOOOOOOOOOOOOOOOOOOOOOOOOOOOOOOooo.   ",
"           .OOOOOOOOOOOOOOOOOOOOOOOOOOOOOOOOOOOOOOOOOOOOOooo.   ",
"           .OOOOOOOOOOOOOOOOOOOOOOOOOOOOOOOOOOOOOOOOOOOOooo.    ",
"           ..OOOOOOOOOOOOOOOOOOOOOOOOOO.oOOOOOOOOOOOOOOoooo.    ",
"            .OOOOOOOOOOOOOOOOOOOOOOOOOO.ooooOOOOOOOOOOoooo.     ",
"            .OOOOOOOOOOOOOOOOOOOOOOOOOOO.ooooOOOOOooooooo.      ",
"            ..OOOOOOOOOOOOOOOOOOOOOOOOOOO.oooooooooooooo.       ",
"             .OOOOOOOOOOOOOOOOOOOOOOOOOOOO.oooooooooooo.        ",
"             ..OOOOOOOOOOOOOOOOOOOOOOOOOOOO..oooooooo..         ",
"              .OOOOOOOOOOOOOOOOOOOOOOOOOOOOOO........           ",
"               ..............................                   ",
"                                                                ",
"                    .........                                   ",
"                   .+++++++++.          ........                ",
"                   .++++++++++.      ...++++++++...             ",
"                  .++++++++++++..   ..++++++++++++..            ",
"                  .++++++++++++@.  .++++++++++++++++..          ",
"                  .++++++++++++@@..+++++++++++..@++++.          ",
"                  .++++++++++++@..++++++++++++++..++++.         ",
"                  .+++++++++++@.+++++++++++++++++.@+++.         ",
"                  .++++++++++@.+++++++++++++++++++.@+++.        ",
"                  .++++++++++..+++++++++++++++++++.@+++.        ",
"                  .+++++++++++++++++++++++++++++++.@+++.        ",
"                 .@++++++++++++++++++++++++++++++++++++.        ",
"                 .@++++++++++++++++++++++++++++++++++@..        ",
"                 .@+++++++++++++++++++++++++++++++++@@.         ",
"                 .@@++++++++++++++++++++++++++++++++@@.         ",
"                  .@++++++++++++++++++++++++++++++@@@.          ",
"                  .@@++++@@@++++++++++++++++++++@@@..           ",
"                   .@@@@@@@@@@@@@@@@@@@@@@@@@@@@@...            ",
"                    ..............................              ",
"                                                                ",
"                                                                ",
"                                                                ",
"                                                                "};
