/* XPM */
static char * nose_f1_xpm[] = {
"64 64 7 1",
" 	c black		m black",
".	c black		m white",
"X	c gray		m black",
"o	c yellow	m black",
"O	c yellow2	m black",
"+	c purple	m black",
"@	c purple3	m black",
"                                                                ",
"                                                                ",
"                                                                ",
"                                                                ",
"                                                                ",
"                      .....................                     ",
"                      .XXXXXXXXXXXXXXXXXXX.                     ",
"                      .XXXXXXXXXXXXXXXXXXX.                     ",
"                      .XXXXXXXXXXXXXXXXXXX.                     ",
"                      .XXXXXXXXXXXXXXXXXXX.                     ",
"                      .XXXXXXXXXXXXXXXXXXX.                     ",
"           ...........................................          ",
"           .XXXXXXXXXXXXXXXXXX.......XXXXXXXXXXXXXXXX.          ",
"           .XXXXXXXXXXXXXXXX..ooooooo..XXXXXXXXXXXXXX.          ",
"           .................ooooooooooo...............          ",
"                 .OOOOOOO.ooooooooooooooo.OOOOO.                ",
"                ..OOOOOO.ooooooooooooooooo.OOOO..               ",
"                .OOOOOO.ooooooooooooooooooo.OOOO.               ",
"               .OOOOOOO.ooooooooooooooooooo.OOOOO.              ",
"               .OOOOOO.ooooooooooooooooooooo.OOOO.              ",
"              .OOOOOOO.ooooooooooooooooooooo.OOOOO.             ",
"              .OOOOOO.ooooooooooooooooooooooo.OOOO.             ",
"             ..OOOOOO.ooooooooooooooooooooooo.OOOO..            ",
"             .OOOOOOO.ooooooooooooooooooooooo.OOOOO.            ",
"             .OOOOOOO.ooooooooooooooooooooooo.OOOOO.            ",
"            .OOOOOOOO.ooooooooooooooooooooooo.OOOOOO.           ",
"            .OOOOOOOO.ooooooooooooooooooooooo.OOOOOO.           ",
"            .OOOOOOOO.ooooooooooooooooooooooo.OOOOOO.           ",
"            .OOOOOOOOO.ooooooooooooooooooooo.OOOOOOO.           ",
"            .OOOOOOOOO.ooooooooooooooooooooo.OOOOOOO.           ",
"            .OOOOOOOOOO.ooooooooooooooooooo.OOOOOOOO.           ",
"            .OOOOOOOOOO.ooooooooooooooooooo.OOOOOOOO.           ",
"            ..OOOOOOOOOO.ooooooooooooooooo.OOOOOOOO..           ",
"             .OOOOOOOOOOO.ooooooooooooooo.OOOOOOOOO.            ",
"             .OOOOOOOOOOOO..ooooooooooo..OOOOOOOOOO.            ",
"             ..OOOOOOOOOOOOO..ooooooo..OOOOOOOOOOO..            ",
"              .OOOOOOOOOOOOOOO.......OOOOOOOOOOOOO.             ",
"              ..OOOOOOOOOOOOOOOOOOOOOOOOOOOOOOOOO..             ",
"                .OOOOOOOOOOOOOOOOOOOOOOOOOOOOOOOO.              ",
"                 ................................               ",
"                                                                ",
"                       .....          ......                    ",
"                      .+++++.        .++++++.                   ",
"                     .+++++++..     ..+++++++.                  ",
"                     .++++++++..   ..++++++++.                  ",
"      .........     .++++++++++.. ..++++++++++.      ....       ",
"    ...+++++++..   ..+++++++++++. .+++++++++++.   ...++++..     ",
"    .+++++++++++....@+++++++++++. .+++++++++++@....++++++++.    ",
"   .+++++++++++++..@@+++++++++++. .++++++++++@@..++++++++++.    ",
"   .+++++++++++++++..@++++++++++. .+++++++++@@..++++++++++++.   ",
"  .+++++++++++++++++..@+++++++++. .++++++++@..++++++++++++++.   ",
"  .++++++++++++++++++++++++++++.   .+++++++..++++++++++++++++.  ",
"  .++++++++++++++++++++++++++++.   .+++++++++++++++++++++++++.  ",
"  .+++++++++++++++++++++++++++.     .++++++++++++++++++++++++.  ",
"  .+@.++++++++++++++++++++++++.     .++++++++++++++++++++.+++.  ",
"  .+@.++++++++++++++++++++++++.     .++++++++++++++++++++.@++.  ",
"  .+@@.+++++++++++++++++++++++.     .+++++++++++++++++++.@@+.   ",
"  .++@@..+++++++++++++++++++++..   ..+++++++++++++++++..@@++.   ",
"   .++@@++++++++++++++++++++++@.   .@++++++++++++++++++@@++.    ",
"    ..@@@@@@@@@@@@@@@@@@@@@@@@@.   .@@@@@@@@@@@@@@@@@@@@@@.     ",
"     ...........................   .......................      ",
"                                                                ",
"                                                                ",
"                                                                "};
