/* XPM */
static char * nose_f2_xpm[] = {
"64 64 7 1",
" 	c black		m black",
".	c black		m white",
"X	c gray		m black",
"o	c yellow	m black",
"O	c yellow2	m black",
"+	c purple	m black",
"@	c purple3	m black",
"                                                                ",
"                                                                ",
"                                                                ",
"                                                                ",
"                                                                ",
"                                                                ",
"                      .....................                     ",
"                      .XXXXXXXXXXXXXXXXXXX.                     ",
"                      .XXXXXXXXXXXXXXXXXXX.                     ",
"                      .XXXXXXXXXXXXXXXXXXX.                     ",
"                      .XXXXXXXXXXXXXXXXXXX.                     ",
"                      .XXXXXXXXXXXXXXXXXXX.                     ",
"           ...........................................          ",
"           .XXXXXXXXXXXXXXXXX.......XXXXXXXXXXXXXXXXX.          ",
"           .XXXXXXXXXXXXXXX..ooooooo..XXXXXXXXXXXXXXX.          ",
"           ................ooooooooooo................          ",
"                 .OOOOOO.ooooooooooooooo.OOOOOO.                ",
"                ..OOOOO.ooooooooooooooooo.OOOOO..               ",
"                .OOOOO.ooooooooooooooooooo.OOOOO.               ",
"               .OOOOOO.ooooooooooooooooooo.OOOOOO.              ",
"               .OOOOO.ooooooooooooooooooooo.OOOOO.              ",
"              .OOOOOO.ooooooooooooooooooooo.OOOOOO.             ",
"              .OOOOO.ooooooooooooooooooooooo.OOOOO.             ",
"             ..OOOOO.ooooooooooooooooooooooo.OOOOO..            ",
"             .OOOOOO.ooooooooooooooooooooooo.OOOOOO.            ",
"            ..OOOOOO.ooooooooooooooooooooooo.OOOOOO.            ",
"            .OOOOOOO.ooooooooooooooooooooooo.OOOOOOO.           ",
"            .OOOOOOO.ooooooooooooooooooooooo.OOOOOOO.           ",
"            .OOOOOOO.ooooooooooooooooooooooo.OOOOOOO.           ",
"            .OOOOOOOO.ooooooooooooooooooooo.OOOOOOOO.           ",
"            .OOOOOOOO.ooooooooooooooooooooo.OOOOOOOO.           ",
"            .OOOOOOOOO.ooooooooooooooooooo.OOOOOOOOO.           ",
"            ..OOOOOOOO.ooooooooooooooooooo.OOOOOOOOO.           ",
"             .OOOOOOOOO.ooooooooooooooooo.OOOOOOOOO..           ",
"             .OOOOOOOOOO.ooooooooooooooo.OOOOOOOOOO.            ",
"             ..OOOOOOOOOO..ooooooooooo..OOOOOOOOOOO.            ",
"               .OOOOOOOOOOO..ooooooo..OOOOOOOOOOOO..            ",
"               .OOOOOOOOOOOOO.......OOOOOOOOOOOOOO.             ",
"               ..OOOOOOOOOOOOOOOOOOOOOOOOOOOOOOOO..             ",
"                .OOOOOOOOOOOOOOOOOOOOOOOOOOOOOOOO.              ",
"                 ................................               ",
"                                                                ",
"                                   .........                    ",
"                ........          .+++++++++.                   ",
"             ...++++++++...      .++++++++++.                   ",
"            ..++++++++++++..   ..++++++++++++.                  ",
"          ..++++++++++++++++.  .@++++++++++++.                  ",
"          .++++@..+++++++++++..@@++++++++++++.                  ",
"         .++++..++++++++++++++..@++++++++++++.                  ",
"         .+++@.+++++++++++++++++.@+++++++++++.                  ",
"        .+++@.+++++++++++++++++++.@++++++++++.                  ",
"        .+++@.+++++++++++++++++++..++++++++++.                  ",
"        .+++@.+++++++++++++++++++++++++++++++.                  ",
"        .++++++++++++++++++++++++++++++++++++@.                 ",
"        ..@++++++++++++++++++++++++++++++++++@.                 ",
"         .@@+++++++++++++++++++++++++++++++++@.                 ",
"         .@@++++++++++++++++++++++++++++++++@@.                 ",
"          .@@@++++++++++++++++++++++++++++++@.                  ",
"           ..@@@++++++++++++++++++++@@@++++@@.                  ",
"            ...@@@@@@@@@@@@@@@@@@@@@@@@@@@@@.                   ",
"              ..............................                    ",
"                                                                ",
"                                                                ",
"                                                                "};
