/* XPM */
static char * bat2[] = {
"147 108 67 1",
" 	c #000000000000",
".	c #060606060606",
"X	c #B4B4B4B4B4B4",
"o	c #929292929292",
"O	c #BABABABABABA",
"+	c #FFFFFFFFFFFF",
"@	c #D6D6D6D6D6D6",
"#	c #131313131313",
"$	c #222222222222",
"%	c #DFDFDFDFDFDF",
"&	c #BFBFBFBFBFBF",
"*	c #565656565656",
"=	c #A1A1A1A1A1A1",
"-	c #9D9D9D9D9D9D",
";	c #616161616161",
":	c #A5A5A5A5A5A5",
">	c #C9C9C9C9C9C9",
",	c #E6E6E6E6E6E6",
"<	c #E3E3E3E3E3E3",
"1	c #848484848484",
"2	c #EFEFEFEFEFEF",
"3	c #F0F0F0F0F0F0",
"4	c #3F3F3F3F3F3F",
"5	c #1B1B1B1B1B1B",
"6	c #8B8B8B8B8B8B",
"7	c #696969696969",
"8	c #4B4B4B4B4B4B",
"9	c #F5F5F5F5F5F5",
"0	c #151515151515",
"q	c #8D8D8D8D8D8D",
"w	c #D9D9D9D9D9D9",
"e	c #949494949494",
"r	c #343434343434",
"t	c #3A3A3A3A3A3A",
"y	c #CECECECECECE",
"u	c #454545454545",
"i	c #0A0A0A0A0A0A",
"p	c #747474747474",
"a	c #595959595959",
"s	c #C7C7C7C7C7C7",
"d	c #515151515151",
"f	c #5D5D5D5D5D5D",
"g	c #C3C3C3C3C3C3",
"h	c #F8F8F8F8F8F8",
"j	c #E8E8E8E8E8E8",
"k	c #838383838383",
"l	c #0E0E0E0E0E0E",
"z	c #B2B2B2B2B2B2",
"x	c #414141414141",
"c	c #737373737373",
"v	c #D2D2D2D2D2D2",
"b	c #878784848181",
"n	c #A8A8A8A8A8A8",
"m	c #646464646464",
"M	c #6D6D6D6D6D6D",
"N	c #303030303030",
"B	c #292929292929",
"V	c #262626262626",
"C	c #7A7A7A7A7A7A",
"Z	c #7F7F7F7F7F7F",
"A	c #4C4C4C4C4C4C",
"S	c #1E1E1E1E1E1E",
"D	c #AEAEAEAEAEAE",
"F	c #FFFF00000000",
"L	c #FFFF77777777",
"G	c #989898989898",
"H	c #2D2D2D2D2D2D",
"                                                                                                                                                   ",
"                                                                                                                                                   ",
"                                                                                                                                                   ",
"                                                                                                                                                   ",
"                                                                                                                                                   ",
"                                                                                                                                                   ",
"                                                                                                                                                   ",
"                                                                                                                                                   ",
"                                                                                                                                                   ",
"                                                                                                                                                   ",
"                                                                                                                                                   ",
"                                                                                                                                                   ",
"                                                                                                                                                   ",
"                                                                                                                                                   ",
"                                                                                                                                                   ",
"                                                                                                                                                   ",
"                                                                                                                                                   ",
"                                                                                                                                                   ",
"                                                                                                                                                   ",
"                                                                                                                                                   ",
"                                                                                                                                                   ",
"                                                                                                                                                   ",
"                         .Xo.                                                                                                                      ",
"                          O+@#                                                                                                                     ",
"                           $%&                                                                                                                     ",
"                        *=-#;+                                                                                                                     ",
"                       :+>,+<+*                                                                                                                    ",
"                      12$ .>++3;                                                                                                                   ",
"                     4,5 *,+++++6                                                                                                                  ",
"                     &7 8+6o++++90                                                                                                                 ",
"                    .q. we  rty+9%u                                                                                                                ",
"                     i  +$    8+p3+a                                                                                                               ",
"                    .0  2#     wsd<+d                                                                                                              ",
"                        +*     f+oog+*                                                                                                             ",
"                        df     #hjklq+o                                                                                                            ",
"                                u++O k+oi                                                                                                          ",
"                                 z++8 *+%t                                                                                                         ",
"                                 x++20 d<+c                                                                                                        ",
"                                  X+vXibb7+6                                                                                                       ",
"                                  4+1oybbb4ys$                                                                                                     ",
"                                   &X gnbbb.z+a                      il                                                                            ",
"                                   8+ibzmbbbbf3-.                   $++M                                                                           ",
"                                   l+Nb41#$bbb8+@B                  chMjB                                                                 V7V      ",
"                                    9CbbmfxVbbbNwhM                 8h Zz                                                                 2++A     ",
"                                    ewbb.a5Blbbb.e+yB                a 5+i                                                               e+dn+N    ",
"                                    A90bbbflbbbbbbt@+nS                 sa                                                              l+1  yg    ",
"                                    i,rbbbl5bbbbbbbbm2+oi               *g       5d.                                                    M+$  53t   ",
"                                     sqbbbbbbbbbSbbbbbZh+ai             49i  .0az++N                                                    Dw 00 dhV  ",
"                                     12bbbbbbbbbbbbbbbbB:+2-dl     if&e$V+xlZ@2++wx                                                i#umayh&3hwX&5  ",
"                                     x+.bbbbbbbbbbbbbbbbbro@++,Dpxn+++++&+++++++hB                                         NNM1Zsww+++++++++q1&hk  ",
"                                     i9Abbbbbbbbbbbbbbbbbbbb.x19+++&FVSX+++++jy++@7f8AAAA40000i    00000000000000000048cn2++++++2O:ao+++32+3   u+r ",
"                                      @Gbbbbbbbbbbbbbbbi0ibbbbbl,+FFLLFB++++6F$+9+++++++++93hh2yg@@h3hhhh92h9hh9h999h+++9DCaCz@m  $>3@cuS$f+8   y6 ",
"                                      z=bbbbbbbbbbbbbbbbb#b#bbbb2%FFLLFo+-h%FFFF#%%NHNS5rxxuk1kO&GD-A1111;Hmakk1=k&ekxN0 #V5#$l iz+=H   .h.sX   k, ",
"                                      q@bbbbbbbbbbbbbbbbbbbib#SO++FFFF%+@l9,FLLFS+= l #bbbbbbbbbbbbbbbbbbbbbbbbbbbbbbbb#$S  V. C3@t     M+8Ds   8+5",
"                                      a3.bbbbbbbbbbbbbbbbbbbbbc+o++vgh+<r.j+FLLFG++GA S.bbbbb5.bb5V5bbbbbbbbbbbbbbbbb00ibbV4 #&+;.      z+rXo   #2d",
"                                      S3bbbbbbbbbbbbbbbbbbbbbbO+ 4e,+,%l  s++FF<+ww++s4bbbbbbbbbbbbbbbbbbbbbbbbbbbbbb.bbbb#ix+O5        #S gC    M:",
"                                      #+Vbbbbbbbbbbbbbbbbbbbbbgw   A2-z   vh+j,X;  0M9+Dbbbbbbbbbbbbbbbbbbbbbbbbbbbbbbbbbb#o+c            .<t      ",
"                                      V+Bbbbbbbbbbbbbbbbbbbbbbgj   Awoo  S9w%Si      #o+-lbbbbbbbbbbbbbbbbbbbbbbbbbbbbb.bx3@8             Bhl      ",
"                                       +HbbbbbbbbbbbbbbbbbbHubz+0  ;<-a  $j>,.         m+@Vbbbbbbbbbbbbbbbbbbbbbbbbbbbb.c+Z               Zs       ",
"                                      B+lbbbbbbbbbbbbbbbbVZ@+D<+G. f<-f  $,k<.          x3+*bbbbbbbbbbbbbbbbbbbbbbbbbixO34                Zk       ",
"                                      83.bbbbbbbbbbbbbbbNh+h+++++@Hd@-f  $%Dz            N2+cbbbbbbbbbbbbbbbbbbbbbbb.Aj%N                          ",
"                                      a,bb#.bbbbbbbbbbb03+7  l*+++%mq-f  4w>f             l3+rbbbbbbbbbbbbbbbbbbbbbbBXh                            ",
"                                      D:bbNbbbbbbbbbbbb8+c     =++h=oga  t++H              d+Obbbbbbbbbbbbbbbbbbbbb0424                            ",
"                                      wmbbp$l.bbbbbbbbbd+.     lG,fpaw*  f++                9sbbbbbbbbbbbbbbbbbbbb#0g=                             ",
"                                     5+Hbc++++gm#bbbbbb=3          Ct<H  f++                9nbbbbbbbbbbbbbbbbbbbbbS+$                             ",
"                                     N+ C+3O&&v++nNbbbb:D          Z83.  f++               N+:bbbbbbbbbbbbbbbbbbbbbD-                              ",
"                                     t+Z+>S    V6h+vdlbgD          &M+   f+>               p+abbbbbbbbbbbbbbbbbbbb5+5                              ",
"                                     Z++z         7,+%bw:          OGy   :+g               j%.bbbbbbbbbbbbbbbbb#Vbcj                               ",
"                                     1+9B           C+X3&          -nq   O+g              6+7.###bbbbbbbbbbbbbbx.bv*                               ",
"                                     >+e             ;++3          G@Z   X+6           iuD++23333%OC8.bbbbbbbbblbA2.                               ",
"                                    B++5              7+3          23d   O+m         $2+++hvD68t*eD<++<oNbbbbbbbb&g                                ",
"                                    k++                v+4         ++B   X+7         S9++pi         lAZ@+jcbbbbbV+a                                ",
"                                    g+9                4+6        #+2.   O+M          7Dr               H=+=bbbbq,.                                ",
"                                    fwk                 >3        r+v    X+N                              7+Mbbbwk                                 ",
"                                                        C+B       m+o    ,+V                               O+*b#+$                                 ",
"                                                        0+D       q+f    +90                               $9%ba3                                  ",
"                                                         g+4      6+$   t+@                                 M+Npv                                  ",
"                                                         d+yi     g%.   e++$                                .,:&q                                  ",
"                                                         t++C    S+D    8+si                                 C++7                                  ",
"                                                          =<*     4#                                         N++B                                  ",
"                                                                                                              ++B                                  ",
"                                                                                                              ++V                                  ",
"                                                                                                              ++f                                  ",
"                                                                                                              v+;                                  ",
"                                                                                                              ix                                   ",
"                                                                                                                                                   ",
"                                                                                                                                                   ",
"                                                                                                                                                   ",
"                                                                                                                                                   ",
"                                                                                                                                                   ",
"                                                                                                                                                   ",
"                                                                                                                                                   ",
"                                                                                                                                                   ",
"                                                                                                                                                   ",
"                                                                                                                                                   ",
"                                                                                                                                                   ",
"                                                                                                                                                   ",
"                                                                                                                                                   ",
"                                                                                                                                                   ",
"                                                                                                                                                   ",
"                                                                                                                                                   ",
"                                                                                                                                                   ",
"                                                                                                                                                   ",
"                                                                                                                                                   ",
"                                                                                                                                                   ",
"                                                                                                                                                   ",
"                                                                                                                                                   ",
"                                                                                                                                                   "};
