/* XPM */
static char * bat1[] = {
"147 108 67 1",
" 	c #000000000000",
".	c #1A1A1A1A1A1A",
"X	c #1C1C1C1C1C1C",
"o	c #A9A9A9A9A9A9",
"O	c #FFFFFFFFFFFF",
"+	c #A1A1A1A1A1A1",
"@	c #F9F9F9F9F9F9",
"#	c #3E3E3E3E3E3E",
"$	c #AEAEAEAEAEAE",
"%	c #A7A7A7A7A7A7",
"&	c #3B3B3B3B3B3B",
"*	c #B9B9B9B9B9B9",
"=	c #E7E7E7E7E7E7",
"-	c #E8E8E8E8E8E8",
";	c #2E2E2E2E2E2E",
":	c #7F7F7F7F7F7F",
">	c #797979797979",
",	c #B7B7B7B7B7B7",
"<	c #656565656565",
"1	c #262626262626",
"2	c #BFBFBFBFBFBF",
"3	c #B3B3B3B3B3B3",
"4	c #515151515151",
"5	c #0B0B0B0B0B0B",
"6	c #171717171717",
"7	c #D9D9D9D9D9D9",
"8	c #4F4F4F4F4F4F",
"9	c #050505050505",
"0	c #EDEDEDEDEDED",
"q	c #373737373737",
"w	c #4A4A4A4A4A4A",
"e	c #C6C6C6C6C6C6",
"r	c #131313131313",
"t	c #8F8F8F8F8F8F",
"y	c #E1E1E1E1E1E1",
"u	c #636363636363",
"i	c #6B6B6B6B6B6B",
"p	c #585858585858",
"a	c #2B2B2B2B2B2B",
"s	c #737373737373",
"d	c #808080808080",
"f	c #8B8B8B8B8B8B",
"g	c #464646464646",
"h	c #9E9E9E9E9E9E",
"j	c #575757575757",
"k	c #202020202020",
"l	c #757575757575",
"z	c #CCCCCCCCCCCC",
"x	c #CBCBCBCBCBCB",
"c	c #F0F0F0F0F0F0",
"v	c #D6D6D6D6D6D6",
"b	c #999999999999",
"n	c #858585858585",
"m	c #404040404040",
"M	c #FFFF00000000",
"L	c #FFFF77777777",
"N	c #0E0E0E0E0E0E",
"B	c #DFDFDFDFDFDF",
"V	c #C1C1C1C1C1C1",
"C	c #959595959595",
"Z	c #878784848181",
"A	c #919191919191",
"S	c #5F5F5F5F5F5F",
"D	c #313131313131",
"F	c #6C6C6C6C6C6C",
"G	c #F6F6F6F6F6F6",
"H	c #D1D1D1D1D1D1",
"                                                                                                                                                   ",
"                                                                                                                                                   ",
"                                                                                                                                                   ",
"                                                                                                                                                   ",
"                                                                                                                                                   ",
"                                                                                                                                                   ",
"                                                                                                                                                   ",
"                                                                                                                                                   ",
"                                                                                                                                                   ",
"                                                                                                                                                   ",
"                                                                                                                                                   ",
"                                                                                                                                                   ",
"                                                                                                                                                   ",
"                                                                                                                                                   ",
"                                                                                                                                                   ",
"                                                                                                                                                   ",
"                                                                                                                                                   ",
"                                                                                                                                                   ",
"                                                                                                                                                   ",
"                                                                                                                                                   ",
"                                                                                                                                                   ",
"                                                                                                                                                   ",
"                                                                                                                                                   ",
"                                                                                                                                                   ",
"                                                                                                                                                   ",
"                                                                                                                                                   ",
"                                                                                                                                                   ",
"                                                                                                                                                   ",
"                                                                                                                                                   ",
"                                                                                                                                                   ",
"                                                                                                                                                   ",
"                                                                                                                                                   ",
"                                                                                                                                                   ",
"                                                                                                                                                   ",
"                                                                          .X                                                                       ",
"                                                                          oO+                                                                      ",
"                                                                           X@#                                                                     ",
"                                                                            $%                                                                     ",
"                                                                      &*=-; $:                                                                     ",
"                                                                     >,<1+2 34                                                                     ",
"                                                                    5;   5O678          9                                                          ",
"                                                                          0q=w        qe2                                                          ",
"                                                                          *$O      rtOyu9                                                          ",
"                                                                          i@O     p0OOa                                                            ",
"                                                                          sO=   u7OOOOd                                                            ",
"                                                             r..66w$-,3fg hO, j=OOO@-o.                                                            ",
"                                                   9kql>2zxxx0c00cOO2+h0O:3O7,OOOOx1r                                                              ",
"                                               6wf%v-3bnm#&#&qqaeOMM  NBOOOVOOOOOO+                                                                ",
"                                         rquh%xCsuX9ZZZZZZZZZZZ9O+MMMMMi%OOOOO+sOOO&                                                               ",
"                                     9kd,h+swkNZZZZZZZZZZZZZZZZrOMMLLMM .OOOha tcOO&                                                               ",
"                                  1j+3tirZZZZZZZZZZZZZZZ.Z.94AZZzMNLLMMM;OOOMMM  SOp.g4X                                                           ",
"                             NqSCC>w.ZZZZZZZZZZZZZZZZZZZZZmv@,j .OcsMMMM*OyMMLLMMDO89#>*7%8X                                                       ",
"                          .F%ft#k9ZZZZZZZZZZZZZZZZZZZZZZZmOVa    mVOOOGOcGcuMLLMrxONZZZZ;SheoS5                                                    ",
"                       ;h$ds6ZZZZZZZZZZZZZZZZZZZZZZZZZZZFOl        9a<Fkf0OOMMM,O-ZZZZZZZZZZX>zha                                                  ",
"                    a<*Aw9ZZZZZZZZZZZZZZZZZZZZZZZZZZZZZ&OF          9+  eOA$Oe-2S9 ZZZZZZZZZZZZsH%k                                                ",
"                 Ng+3p6ZZZZZZZZZZZZZZZZZZZZZZZZZZZZZZZ5xi           jh  BO;eV N    ZZZZZZZZZZZZZZi2n6                                              ",
"               9>0%&ZZZZZZZZZZZZZZZZZZZZZZZZZZZZZZZZZZ2A            $8 1OO =<      ZZZZZZZZZZZZZZZZlyt                                             ",
"514#9        Nt2>NZZZZZZZZZZZZZZZZZZZZZZZZZZZZZZZZZZZf*             Vr f0%1-. 5D2OOhXZZZZZZZZZZZZZZZ9s$i                                           ",
"8h,=Hq      gA>NZZZZN#ZZZ5rZZZZZZZZZZZZZZZZZZZZZZZZZ6=;            m,  oVj%: X*3l48%co9ZZZZZZZZZZZZZZZkdzp                                         ",
"    lO.   #V2 .ZZZZZZrZZZZ9ZZZZZZZZZZZZZZZZZZZZZZZZZ7+             Cu 4lvDOX fm     X2@pZZZZZZZZZZZZZZZZqV*;                                       ",
"     Fv  u>mjCht8m6ZZZZZZZZZZZZZZZZZZZZZZZZZZZZZZZZ#OX             Br5vj*l+           8c39ZZZZZZZZZZZZZZZZ#*o1                                     ",
"      GA+OBcOOGGOOGV8NZZZZZZZZZZZZZZZZZZZZZZZZZZZZZ+o             .7 uobnyX            ;7xXZZZZZZZZZZZZZZZZZ>7F                                    ",
"      oOOO%1     5<bBO=A1ZZZZZZZZZZZZZZZZZZZZZZZZZ1O;             4f VDvA$               %OwZZZZZZZZZZZZZZZZZ1zx1                                  ",
"     kOOOi           rivO%&ZZZZZZZZZZZ6rNZZZZZZZZZ>G              hXpH;B=D                +-NZZZZZZZZZZZZZZZZZZgHfN                                ",
"    ;=OOO#              #,@VmZZZZZZrsvcGc2n.ZZ4ZZZvC             6e znCH2                 .@*ZZZZZZZZZZZZZZZZZZZ6+=j                               ",
"   k=x9$G                 rCOywZZZZ,O7tfn*OO+Z+rZkOp             gd;Oavv4                  nO5ZZZZZZZZZZZZZZZZZZZZ&H%5                             ",
"   7f  Nvd                  6COt9ZlOo     9>Ozu;ZpOD             AD%$.B%6                  aOXZZZZZZZZZZZZZZZZZZZZZZj2S                            ",
"  FB    acor                  4Oeacy5       jOFNZsO.             $&OX<O%                   wO.ZZZZZZZZZZZZZZZZZZZZZZZ;e35                          ",
" 9V5      f@+g.5               8OyOl         H*ZZ:B             &Ctv vOa                   d=ZZZZZZZZZZZZZZZZZZZZZZZZZZi=g                         ",
" ;n        X>2=i                COOD         sONZee             CuBSaO=                   .@:ZZZZZZZZZZZZZZZZZZZZZZZZZZZ1e+                        ",
" lg           69                wOOD         6OmZv:             $p= sOo                   lOZZZZZZZZZZZZZZZZZZZZZZZZZZZZZNo3r                      ",
" tN                             &O0r          =+Z=s            .zeA VOw                  .-tZZZZZZNZZZZ95ZZZZZZZZZZZZZZZZZZty;                     ",
" %.                             N7o           +vZOF            wOOD O@.                  HOaZZZ.X5&5ZZ9a;5ZZZ9qZZ1ZZZZZZZZZZuyg                    ",
" N                               r9           j0XO&            FOv <O7           ap  96FzOdNZZZZZZZZZZZZZZZZZZ9ZZ6ZZZZZZ99ZZZlOk                   ",
"                                              1@hO.            ,O< eOF          NyO0xOOOo.ZZZZZZZZZZZZZZZZZZZZZZZ5ZZZZZZZZZXZZhH6                  ",
"                                              9cOOX           9BO1 @@X          X@OOOcaZZZZZZZZZZZZZZZZZZZZZZZ1ZZk.wA+x@G0+#ZZ#Oe                  ",
"                                               yOOX           kOB kOV            8hjh@z4ZZZZZZZZZZZZZZZZZZZZZZ5ZsHc=**lpp%OOBd;wGs                 ",
"                                               zOOk           XOd lOj                9AOerZZZZZZZZZZZZZZZZZZZ#b@e8N        rm+OBVO1                ",
"                                               AO05            SXrc-                   ;2Ot9ZZZZZZZZZZZZZZZD2=fX              XhOO$                ",
"                                               sOV               NhS                     sO%ZZZZZZZZkXZZZ1oc:N                  jO@k 9             ",
"                                               #O;                                        sOAZZZZZN9.ZZZlOf                      yO=OOH            ",
"                                               91                                          FO<ZZZZk9ZZ1v7q                  9 5r;dOO%$Oi           ",
"                                                                                            $c.ZN5ZZZ#0,N                   4z-0OOOO; *2           ",
"                                                                                            rce9ZZZZ;@u                      61   bO6 ,x           ",
"                                                                                             gO:ZZZkHS                            CO  B:           ",
"                                                                                             N0oZZN=h                            9-H #ON           ",
"                                                                                              FO5ZB%                            mOyX hh            ",
"                                                                                              6Oq:79                            8lr  .N            ",
"                                                                                              9Ov0.                                                ",
"                                                                                               zOl                                                 ",
"                                                                                               zB9                                                 ",
"                                                                                               =z                                                  ",
"                                                                                              DO*                                                  ",
"                                                                                              hOl                                                  ",
"                                                                                              vOq                                                  ",
"                                                                                             qOb                                                   ",
"                                                                                             fOm                                                   ",
"                                                                                             8OF                                                   ",
"                                                                                              wOa                                                  ",
"                                                                                               %n                                                  ",
"                                                                                                                                                   ",
"                                                                                                                                                   ",
"                                                                                                                                                   ",
"                                                                                                                                                   ",
"                                                                                                                                                   ",
"                                                                                                                                                   ",
"                                                                                                                                                   ",
"                                                                                                                                                   "};
