/* XPM */
static char * bat0[] = {
"147 108 67 1",
" 	c #000000000000",
".	c #090909090909",
"X	c #969696969696",
"o	c #9C9C9C9C9C9C",
"O	c #1E1E1E1E1E1E",
"+	c #F0F0F0F0F0F0",
"@	c #FFFFFFFFFFFF",
"#	c #C6C6C6C6C6C6",
"$	c #474747474747",
"%	c #212121212121",
"&	c #E2E2E2E2E2E2",
"*	c #414141414141",
"=	c #0C0C0C0C0C0C",
"-	c #272727272727",
";	c #AAAAAAAAAAAA",
":	c #808080808080",
">	c #B4B4B4B4B4B4",
",	c #1A1A1A1A1A1A",
"<	c #DDDDDDDDDDDD",
"1	c #EDEDEDEDEDED",
"2	c #2A2A2A2A2A2A",
"3	c #D7D7D7D7D7D7",
"4	c #2C2C2C2C2C2C",
"5	c #999999999999",
"6	c #FBFBFBFBFBFB",
"7	c #4A4A4A4A4A4A",
"8	c #BDBDBDBDBDBD",
"9	c #B2B2B2B2B2B2",
"0	c #585858585858",
"q	c #C8C8C8C8C8C8",
"w	c #101010101010",
"e	c #151515151515",
"r	c #6C6C6C6C6C6C",
"t	c #C0C0C0C0C0C0",
"y	c #7F7F7F7F7F7F",
"u	c #3F3F3F3F3F3F",
"i	c #6B6B6B6B6B6B",
"p	c #868686868686",
"a	c #353535353535",
"s	c #F4F4F4F4F4F4",
"d	c #4D4D4D4D4D4D",
"f	c #5D5D5D5D5D5D",
"g	c #050505050505",
"h	c #EBEBEBEBEBEB",
"j	c #606060606060",
"k	c #A2A2A2A2A2A2",
"l	c #FFFF00000000",
"L	c #FFFF77777777",
"z	c #656565656565",
"x	c #7A7A7A7A7A7A",
"c	c #919191919191",
"v	c #6E6E70707070",
"b	c #A5A5A5A5A5A5",
"n	c #CECECECECECE",
"m	c #727272727272",
"M	c #515151515151",
"N	c #E6E6E6E6E6E6",
"B	c #D0D0D0D0D0D0",
"V	c #3B3B3B3B3B3B",
"C	c #BABABABABABA",
"Z	c #555555555555",
"A	c #888888888888",
"S	c #313131313131",
"D	c #ACACACACACAC",
"F	c #757575757575",
"G	c #8C8C8C8C8C8C",
"H	c #DADADADADADA",
"                                                                                                                                                   ",
"                                                                                                                                                   ",
"                                                                                                                                                   ",
"                                                                                                                                                   ",
"                                                                                                                                                   ",
"                                                                                                                                                   ",
"                                                                                                                                                   ",
"                                                                                                                                                   ",
"                                                                                                                                                   ",
"                                                                                                                                                   ",
"                                                                                                                                                   ",
"                                                                                                                                                   ",
"                                                                                                                                                   ",
"                                                                                                                                                   ",
"                                                                                                                                                   ",
"                                                                                                                                                   ",
"                                                                                                                                                   ",
"                                                                                                                                                   ",
"                                                                                                                                                   ",
"                                                                                                                                                   ",
"                                                                                                                                                   ",
"                                                                                                                                                   ",
"                                                                                                                                                   ",
"                                                                                                                                                   ",
"                                                                                                                                                   ",
"                                                                                                                                                   ",
"                                                                                                                                                   ",
"                                                                                                                                                   ",
"                                                                                                                                                   ",
"                                                                                                                                                   ",
"                                                                                                                                                   ",
"                                                                                                                                                   ",
"                                                                                                                                                   ",
"                                                                                                                                                   ",
"                                                                                                                                                   ",
"                                                                   .Xo                                                                             ",
"                                                                   O+@#$                                                                           ",
"                                                                    %&@@*        %=                                                                ",
"                                                                     -&@;      .:@>                                                                ",
"                                                                      ,<1     23@@2                                                                ",
"                                                                       4@2   5@@67                                                                 ",
"                                                                        89 0&@@@q                                                                  ",
"                                                          w=eee         r@t@@@@>%                                                                  ",
"                                                       %y9@@@@@@<u ipua=%@@@@@s df                                                                 ",
"                                                     gy@@h5ffffjki<@@@@@3@@@3l@zx@t=                                                               ",
"                                                    =9@c%=vvvvvve<+llll9@@@bllln.m@t,                                                              ",
"                                                   a+@Mvvvvvvvvv.N3lLLll@@BlLLl@t u+@2                                                             ",
"                                                  f@<avvvvvvvvO% m@lLLlq@1hlLLl>@, ,t@V                                                            ",
"                                                 M@Cevvvvvv=Z#6@t061lll@ZA@llll;@,   3+2                                                           ",
"                                                O+nvvvvvvvz@@@5c@@@3@@64 Z@&lll1&V;   #&                                                           ",
"                                               ,s&,vvvvvvz@N0g   S% t@@z D@@@1N@iF@7 .-sG                                                          ",
"                                               5@4vvvvvvv3s-        t@@q h@@@++5g=@n %$j@%                                                         ",
"                                              f@Zvvvvvvvw@>         :@sZ @@&=     j@y 0=B#                                                         ",
"                                             ghCvvvvvvvvv6>         r@; O+3;       b6 -02@f                                                        ",
"                                             i@2vvvvvvMxm&B         x@k 7N<m       2@uvm bs                                                        ",
"                                             skvvvvvvx@@@@@M        t@b X#qV        &5v*aO@z                                                       ",
"                                            G@%vvvvvw1h2e<@F        #@G >X#4        Dovvr Dhg                                                      ",
"                                           .1bvvvvvv7@i  4*g        t@0 hj<4        D8vvFg-@u                                                      ",
"                                           u@OvvvvvvX@              t@7g@V3         CNgv7M &C                                                      ",
"                                           ;&vvvvvvvnN             =&@4%@u&        .1>vvwf rs,                                                     ",
"                                          ,@5vvvvvvvsD             O+@ 7#f9        %@0vvvrge@0                                                     ",
"                                          Ss-vvvvvvw@o             a@@ AxDX        ;@vvvva% #t                                                     ",
"                                          D<vvvvvvvvsZ             Z@n q$#j     io;@ivvvve$ :@                                                     ",
"                                          B5vvvvvvvv6Z             x@# Be@S    ,6@@C.vvvvv- 4@S                                                    ",
"                                          6ivvvvvvvvs0             D@:eBO+.     D@N=vvvvvv-g=+j                                                    ",
"                                         w@2vvvvvvvvsk             #@j,ny<g     w1Hvvvvvvvvvv#5                                                    ",
"                                         7@%vvvvvvvvh>             @@2%n>k       o@*vvvvvvvuv>H                                                    ",
"                                         01vvvvvvvvvo@             @1 jtNd       a@yvvvvvvv-vm1                                                    ",
"                                         bNvvvvv=.vv:@g           4@& f1@$        HXvvvvvvvdv2@%                                                   ",
"                                         bNgv,vvOgvv*@V           m@; 0@@g        q3vvvvvvv2w @j                                                   ",
"                                         ;#vvgvuvvvv.hD           jH- r@H         qHvvvvvvv.d 39                                                   ",
"                                         DkvvvOgvvvvvD@,           g  5@p         3kvvvvvvvvi ;q                                                   ",
"                                         Dbvvvz.0r0ev*@j              =0.         @mvvvvvvvvf=yn                                                   ",
"                                         Dkvvm@@@@@@o-Nt                         a@%vvvvvvvv-%i6,                                                  ",
"                                         Dkv.@@;2e7C@+h@V                        chvvvvvvvvv,*21e                                                  ",
"                                         Dkvy@x     *<@@k                        #8vvvvvvvvv%c-@2                                                  ",
"                                         DovsH       .b@@2                      e@MvvvvvvvvvgF=@Z                                                  ",
"                                         DD-@d         B@t                      j@vvvvvvvvvvvk @M                                                  ",
"                                         ;Ha@%         -N@S                     C6vvvvvvvvvvvA sf                                                  ",
"                                         x3:@           A@3.                   ,@DvvvvvvvvvvvX 6c                                                  ",
"                                         dHi@           a@q.                   f@Zvvvvvvvvvvvx #D                                                  ",
"                                         d&4@            u,                    DhgvvvvvvvvvvvXS59                                                  ",
"                                         71a@e                                 @pvvvvvvvvvvvvZek9                                                  ",
"                                         .@X@V                                F@evvvvvvvvvvvv0,o9                                                  ",
"                                          @C@iOX                             %@Bvvvvvvvvvvvvvm4oC                                                  ",
"                                          @B@5S@                             o@fvvvvvvvvvvvvv5wA@                                                  ",
"                                          #tG3S@                            ,+1vvvvvvvvvvvvvvm*Z@                                                  ",
"                                          :Hu@7@                           -n@8udM*gvvvvvvvvvi7$@                                                  ",
"                                          a@m@i@   m=                     gH@@@@@@@@+nk*vvvvvXpa@-                                                 ",
"                                          -@N@t@   @-                      o@+:aO,fFG36@sAOvvr8S@a                                                 ",
"                                          .&@@@@   @O                      =ja        ,d9@6uvCyOsa                                                 ",
"                                           y@@@@  46                                     S3@VbzZNV                                                 ",
"                                           .9@@6  Xk                                      -@<krfNa                                                 ",
"                                            ,@@@ w@*                                       $@@D5@a                                                 ",
"                                             o@@;tH                                         d@@1@S                                                 ",
"                                             a@@@hS                                          k@H@0                                                 ",
"                                             u@6AO     ge                                    -@@@k                                                 ",
"                                              +:       cC                              f.     t@@q                                                 ",
"                                              r@a     $N*                             gH0   7C@@@p                                                 ",
"                                               F@x,=0>1*                               x<dMC@18@@4                                                 ",
"                                                *n+sn:                                  D6hqf i@;                                                  ",
"                                                  gg                                     .    8@M                                                  ",
"                                                                                             ,@@4                                                  ",
"                                                                                            %+@q                                                   ",
"                                                                                        f-  8#3y                                                   ",
"                                                                                       ,@$%8+46Z                                                   ",
"                                                                                       d@@@9 c+                                                    ",
"                                                                                        ZiO  47                                                    "};
