/* XPM */
static char * calvinf[] = {
"148 103 50 1",
" 	c #000000000000",
".	c #999999996767",
"X	c #CCCCCCCC0000",
"o	c #666666660000",
"O	c #000055550000",
"+	c #7474B0B03333",
"@	c #8787CCCC9999",
"#	c #808080800000",
"$	c #999999990000",
"%	c #333333330000",
"&	c #A7A764640202",
"*	c #666633330000",
"=	c #2A2A66660101",
"-	c #CCCCCCCC9999",
";	c #999999999999",
":	c #CCCC99996666",
"?	c #CCCCCCCC3333",
">	c #FFFFCCCC9999",
",	c #CDCD8B8B1D1D",
"<	c #FFFFFFFF6666",
"1	c #FFFFCCCC6666",
"2	c #FFFFCCCC3333",
"3	c #CCCCCCCC6666",
"4	c #CCCCFFFFCCCC",
"5	c #FFFFFFFF2222",
"6	c #CCCCCCCCCCCC",
"7	c #FFFFCCCC0000",
"8	c #9999CCCC4949",
"9	c #FFFFCCCCCCCC",
"0	c #5F5F66665F5F",
"q	c #080826260000",
"w	c #9999CCCCCCCC",
"e	c #FFFF99996666",
"r	c #C0C0C0C0C0C0",
"t	c #666699996666",
"y	c #666673735959",
"u	c #9E9E73735555",
"i	c #EFEF99994747",
"p	c #555555555555",
"a	c #808086868C8C",
"s	c #AAAAAAAAAAAA",
"d	c #CCCC9999CCCC",
"f	c #595900000000",
"g	c #CCCCCCCCFFFF",
"h	c #333333333333",
"j	c #B7B71E1E0C0C",
"k	c #1B1B82825858",
"l	c #99999999CCCC",
"z	c #FFFFCCCCFFFF",
"x	c #9999CCCCFFFF",
"                                                                                                                                                    ",
"                                                                                                                                                    ",
"                                                                                                                                                    ",
"                                                                                                                                                    ",
"                                            .                                                                                                       ",
"                                         XoO+                                                                                                       ",
"                                         @Oo#         X+                                                                                            ",
"                              $#         @o%o       &O*      $                                                                                      ",
"                              =o#         oo*X      O*o -   @$                                                                                      ",
"                              o ##       #%;:#-     #oo-   $o                                                                                       ",
"                              &  oX?     #*->,#,<   -*O-1 #oo21   $, 1                                                                              ",
"                              #  Xo-     oo> 2,##3 ,1#o+@ooo:< >4$o <#                                                                              ",
"                              # >1$,5    oo61113#oo,13*oO*o,7114#=,1,o                                                                              ",
"                              8 >11o3    #o9<7111X,1113&oo:>12 &oo>1#%                                                                              ",
"                               & 11X$X   oO172<7<>17<11>,117<1#oo323%                                                                               ",
"                               o3111$ 3  oo9<72<72<271<211117+oo112oO                                                                               ",
"                               #$7<11& 76o.77<177<217<71211?#oo111:Oo                                                                               ",
"                               .o>712X&X?o>11711171<771<7111?,>111$o0   8#                                                                          ",
"               8#OOo            o317<11&#O,7<117<7<7111717<21>17<>#o+-+o$                                                                           ",
"              3oqo*==o$3        *#>2211 #&-27<72712<7XX2217<72<771?%oo=.1                                                                           ",
"              woO%oe:oo#$3-     #o,<17<7>111177<17<71?#11$?7227<121.o#,1-                                                                           ",
"               roo%-11$oo#--  - 8*#1127<212121?7<7212X&1O$111<77<7111>1                                                                             ",
"                wo%,111>,Oo$$3-4-Oo&<17717<2?111717<1&##o12127<77111111-                                                                            ",
"                9+*t1<7111#=oo##o*Oo71222271<77211171$%o11X7<1721271<X$$#%$                                                                         ",
"                 6y%$2112123e.,u#=u,11222<12721<27211X.i?1227<71<2122i+u#u                                                                          ",
"                  6po#?717<111111>>11171<1172127<17<7<117<2<277<72711173,$$                                                                         ",
"                  -.Oo&?1221<7<2<711<1717271<7377127<77177171117221<7$Ooooa              #o                                                         ",
"                   so%%o#17<7171717<71171<11722177<17212<12127<212171$oor              +ooOo+                                                       ",
"                    oo%%oO,1112<71<727<127<71<7<727<71<271<1<771<7<7?&%o              #os9o%0                                                       ",
"                    w%%oqo#117<711721277127<17171<277<722172127<11731O%o             .o.9soO&                                                       ",
"                  3 -o%%*O:1<771<71<71715<77<721171117221<7122171<7,,oO*             #od98fog----                                                   ",
"                   -6aphoo2<71127<27<17<271777<7<127<212<717<527<2,#y%*#         o#$ O*-9&o08##o#X                                                  ",
"          3 3+8+###=oOos>1171<7127127<771721117171<771<72121721171Xqohhp         +:u#*y9--*o*.r-%o                                                  ",
"        #oooOo%oooo&$,:11117<717<17<17212<17<7<7<27<11X<17<1717<1>+oph%o##8    3O:996sr>9>>--99.o.                                                  ",
"         -.-,-:>31>11111111171<77127<71<27<7712<7227<71<717712<77<&&Oy%%o%*.   w#%.$o996>99>3:$o                 X3$###$#@                          ",
"           1111111112111?7<27<7117<277<722717<17717<71172177<17711uoh%*o:oO&4   wooO&-19>-9-ooo@               @#o%oOoOoOoo$3                       ",
"         - 711<71<72<7211171272<71711172211<77211<771<711211727172=ou%p>3&o#..##.hys99--9>>-.os               $o%p;rsss;.oooo:r                     ",
"          ?121712711727<2?7<121775127<212<27177<2711277<?122122713Ou0p%2>0%*Oo*Ooo:69-.o&3>-9ao#1            $Oop6----->-6s0Oo$                     ",
"         >1<7112115211171<772<71271<771<72<71117<72<72171<7125#$2&o:#qy:,o%O*j&jjhu>3Oo=ou9>>oOow           @#odh61---1--3-:oOo:                    ",
"          177 17<2X?1X<1171217221177<11X<177<7<271177<17172112+o1#Oyq*%o=%%%p*f*u*OoOoar0=.>;Oo%            +*.hh6-----3>->-ao=o?                   ",
"       3 X1177?X&$&##,721213211<72<772<7712177712<72171171<7X1,o:o*O*hh%*hp%qhhh*h*qosg  ;#Oo*ps            oOghg--1-3---3---.*=#                   ",
"         11?$#o%ooO=o:?<17<212272271217217<121751722127<127221#o#O%phhh*ph*hhhhhh%%p%#8 6  6sr6            wooph-r--3>--3-->-ra%o8                  ",
"        13#ooO*Ooaruo9>11372<712112112111<72121721<771277121$?ofo*h%p%ujjjju*h*h*hh*ho*o-6 -  6            8*o%po:-3---33>3-3>soO#                  ",
"        o%oOy.r    .o, 9-1217217<77<717<27217<17<1727<27<123#,%ph%ph*jjjjjujh*jjj&hqpqoOOoOooo#o##8       6rOo ho0 33->----3>36s%o8                 ",
"         ;  g       %r:99113112171171<77171577227<711727722Xoo%*%hjj,ju&jufhjjj,jufh*j%*O%oOO%%%*OOo@      -oO9h@& r>-3-3-3333,.oq.6                ",
"                    ou9>-9+##$1<7212222222121122171722127?uo*&uhjjj,&jju***j,jp*jf&j,j*%%j*%*j&***%%=.-3-666o=#g6oy$#y##o#o#0okyu=%3                ",
"                    Oo-9>>>311171127<27127<1X<1751771171+%&&jpj,jujjju*jj,jjp**ju,jjfhfujj,jj,j**%*%%o%qo$-@=*Oo.O%ou.-r;a.p=*o#p*O,                ",
"                    oo4::34e>?1<7<72712<217717717711<72?&,&jj*jj,j&j**jjj,j**jujjju*hjjj,jjujhp*j*hh*%p0%oO*%O*O*ppl6-##oO*y0au.upoa                ",
"                    o*3:99193,271712X$X,7512321217<2711o,&,jyjj,jjj**j,juj**j,jj,j**juj,jju*h*jj0hh*ppyga%*Oph%pOdlyy*oo0:;-6-9-6r%$                ",
"                    #o;9>-98o#11<7$ooo%o.7712122217127O&&jjyf&jj,j0*juj,j*hjjjujjp*jjj,j,*f*j,jjfhhp0h;6&O*h*phag 6*=ar-6--3---3--#*                ",
"                    ;*&-9>>>-911Xo#$r>6:o117<7<175121#ojj&*fujj,j**jujjj*hj,j&j,*jjuj,jufpjjujjh*hh%;p;+hfk%p%og  gaor>-01---1----aO#-              ",
"                     *o4::3>>931$os999>9.$1172722712#o%&j**,j,,ju*j,j&jh*jjjuj&fhj,j,jyf*jujjhhhhhp%*hr*Opfpqhos 3.goar-s-----3>-33%o6              ",
"                     ;*o->:99193o$>:9919.o,<21221XXoo%%j&*jjjjj0fjujjj**,juj&jh*u&j,j**juh%h**0hph%hp%ooh%phhh*tzto.so-1----3---3>;oO$              ",
"                      o*s99>-993%;99>-9>:O:7122?$*%O%&j%f*jujjyfjjj,,f*jj,j,jp*jj,,ju*jh*0urs6-ssa0*qhh%phhhp%ha 9oog#06>333>--3---ooy              ",
"                      oO#6-9>>9#O:>-9>>4-*+2223o%o%ojjj*q,jj&uf,jj,jf*uj,j,jh*j,jjj**jhous9--3----rshpphphhp*pho9 wo#go3-->--3>---ro%#              ",
"                      #o*:4::3>>:6:4::31.%:11Xo%oq*jj&j,fhjjj*jjejjjpjj,j,jhjjjjuj**jp%a6--1--:->3--sohp%phhk*hkg z=o; %---3---3>?3%pO              ",
"                       oq#6>4::9919>-96>uo,11o%%%*%j,j,jj*hjjj,jj,jhjjjjjj*hj,j,j,*ju%*s3>3--1---3-3-rphh%ph*hqo#  o%#g;#-->--3---so%#              ",
"                       .oq>6199>-9-9>>>6#o>3$o%*ju*hjjj,jjp*jjjujjy*jj,j,jhjuj,j,j*j*ha66-----3>--3>3&%phhhphhh%o.6Oo*#g+.-->33-318fOy              ",
"                        ro#>6>-9>>4::39-=,3#*%j,jjjj**ujjuj**j,j,**jjujjjhj,j,jjjhjj**6g--1-3---3>--:hyphphhhphhqo=**%O&rs$3-1----.o*t              ",
"                         o% 1>4>-->9>+$opro*O**j,jjij0fyjj,jj&j,j*jjjj,ufujj,j,j*j,j0* -r--3>--3-----3s*hhphhhhphh*hhpyOo.ry$@3>-3o%pa              ",
"                        s*o>>4:9>>4::6.o.o**jj%*jj,j,jjf,jjjuj,jf,j,j,jhjjj,jjj**jjj**$o:-3---33-33--;&;;0hhp%phhp%kyrgl*o*.s###.ooh%#              ",
"                        #O*1619>4::4::9-.%jjj,jp*ujj,jjufjj,jjjhuj,j,j**jjuju&j*j,ji*h;o0h33->--3-13#$r--:pp%p*phhpl   66yOo.rr.o%%p0;              ",
"                        oo01>6>619919999ojjjujjjhfjijj,jjh,jj&**jji,jjhjj,j&jj*j,juj*Ous*rr>-3-3--to:ru3-r6pp%phho.  9   grhofo*Ohho                ",
"                        O*%o>4:>6>-6>--$*jj&j,ij,***j,jjujf,j,%j,jue&jjujj,juojjj,ju**k6oa6--->-:#o;.#.-->3rop%ppl          a0Op*0sg                ",
"                        o=oO619>149149$o*pjj&jjjjj**ujj,jjj*jfj,jj,,jh,jj,j,j*jjuju*hh*saos->-s#o.;.o:--3---rphO.              6w                   ",
"                        o=*0>6>-,to+o#*&jj**jjj,jju&j**j,ju**pjjj,jjfpj,jj,jpj&j,j*hphhp@uoss$y0#uy.6-3-3--3-sy*=.                                  ",
"                        ro09>149o*%%h%*j&jjj**jjj,jj:j**jjjjj*uj?j,jhjjj,j,fjj,jj&hhhp%p*g;oOoy0a-9-3>>-->-----o%=.                                 ",
"                         .o?363u*0apphhf,jujj**j,jjijjjjjjuhhpj,j,jhjjj,j,jhjijujfh*phhO%oga*p&-6-a6--1--:3-3--rpOo                                 ",
"                          #*oooo%ay%*ujhujj,j,j**j,jjuj,*h*hh%h*jj,hjjuj&jpjjj,j,phhhph*hO&;0pd61-s3>3--1-->->--#*O                                 ",
"                            ;;a0p%%p*jjuf,jj.jjujpjj,j,jhhhhhpph*0h*j,j,juf,j,j,jhhhph*p0aO.g;o36166-----3>-33--;Oo                                 ",
"                               -0pp%%*jj&jjjj,j&>j**jj**hhalsppp%fhpjj,j&fjjjj,jhhphhhhp*go%;gro;6g--1-3---3>--3:Oo                                 ",
"                                 gahhjujjh*j&j&jjjujh*hhor   g6 l0hh*0j,j*,j,,j*hh*phph*O%a%o#6g##9r--3>--3--3>-tof                                 ",
"                                 -#ohpfjjjjhjjj,jjju*hhpg        #a;h**ju*j,jju%hhhhhhph*O*hOoosg#o6-3---33-3--3o%o                                 ",
"                                6+osshh*ujjjhhujjjufphao            gahh*hjjj,*h*pphph%php%p%*%o#6ao.33->--3---.o%#                                 ",
"                               -$=s99aohfuj,j**pj*hh*l               9aohh*ujjhhhh*hhhhhp%p%hphOo%asoo+883,$#$oO%p                                  ",
"                               #os>9-9;ppf,jj,j**ph%o 8                6ahp%***hhphhphphhphhph%p*%%otd;ooooyyayo%o                                  ",
"                              #os99-9$o*0hf*ujjph*hpho                   .ofkfkhhhhhhhphp*khhhp%k*h%*=l6zgg zs=%ps                                  ",
"                             +o-9>>9+oo6g;pp%hhhhhyaut                  - lpfpfa;phphp*phhh*hphhfk%ppO*o#.-#o=%o.6                                  ",
"                     $#$#   8os9>>1$o0g    ap*hhhpg                      - r0Oplgohhp%k*phhphhpphhp%l tooO*OOohag                                   ",
"                    #oooo*  o.9>>9uo+       glpp*t                           6.6 lhp*phh%pphhphhp*O* -  wsssr;r                                     ",
"                    Ou >.ooou 9916=og                                            roqhhphp%hphp*p%pp66                                               ",
"                    o.>69;*#69>-9##                                               pppphphhp%p%php066                                                ",
"                    oo9>93od>>9>>oa -                                             r#%hhh0hhphppag                                                   ",
"                    %*8>>-:9916ooor-                                               xpppphhp%oar                                                     ",
"                    oO&99>9>-9#oq0                                                  wo*ppppawg                                                      ",
"                  oo=*y-9>-9>>.%%*=$                                               6 66 6 66                                                        ",
"                 oohus-9-94::39s00oo#                                                                                                               ",
"                 o*s69>X4::3>-99 9 #o                                                                                                               ",
"                 *o9>3=*3>9>$o8->>9uo                                                                                                               ",
"                 o,>+OoO:9>3*O*. >-o#                                                                                                               ",
"                 *,$O,&o,>>sos0o&.#o.                                                                                                               ",
"                  Oh&:,o>19-=6 .+oOyg                                                                                                               ",
"                    e1:o21>,or    ;                                                                                                                 ",
"                       &#1?#o6                                                                                                                      ",
"                       >##+o%3                                                                                                                      ",
"                         #o%y                                                                                                                       ",
"                          u&                                                                                                                        ",
"                                                                                                                                                    ",
"                                                                                                                                                    ",
"                                                                                                                                                    ",
"                                                                                                                                                    ",
"                                                                                                                                                    ",
"                                                                                                                                                    "};
