/* XPM */
static char * calvin4[] = {
"76 116 59 1",
" 	c #000000000000",
".	c #FFFFCCCCCCCC",
"X	c #999999990000",
"o	c #FFFFCCCC6666",
"O	c #CCCC99990000",
"+	c #808080800000",
"@	c #666666660000",
"#	c #000055550000",
"$	c #CCCCCCCCCCCC",
"%	c #999999997C7C",
"&	c #CCCC99999999",
"*	c #999966660000",
"=	c #FFFFCCCCFFFF",
"-	c #EEEEEEEEEEEE",
";	c #999999999999",
":	c #CCCCCCCC9999",
">	c #BFBFBFBFC0C0",
",	c #666699996666",
"<	c #BABAFFFFD7D7",
"1	c #DDDDDDDDDDDD",
"2	c #FFFFCCCC9999",
"3	c #AAAAAAAAAAAA",
"4	c #9595A6A62C2C",
"5	c #666666663333",
"6	c #25256A6A0606",
"7	c #CCCCCCCC6666",
"8	c #91917B7B7979",
"9	c #FFFFFFFFCCCC",
"0	c #555555555555",
"q	c #666633330000",
"w	c #999966665252",
"e	c #CCCC99996666",
"r	c #66669D9D3C3C",
"t	c #333333330000",
"y	c #666666666666",
"u	c #CCCC99995E5E",
"i	c #CCCCCCCC0000",
"p	c #D2D266660A0A",
"a	c #CCCCCCCCFFFF",
"s	c #FFFFCCCC3333",
"d	c #FCFCFFFF6464",
"f	c #FFFFCCCC0000",
"g	c #FFFFFFFF9797",
"h	c #CCCC66666666",
"j	c #9999CCCCB7B7",
"k	c #CCCCCCCC3333",
"l	c #333333333333",
"z	c #14141D1D0000",
"x	c #666600000000",
"c	c #FFFFFFFFFFFF",
"v	c #141475757575",
"b	c #666699999999",
"n	c #FFFF9999A2A2",
"m	c #CCCCFFFFFFFF",
"M	c #99996666CCCC",
"N	c #666666669A9A",
"B	c #CCCC9999FFFF",
"V	c #FFFF99996666",
"C	c #FFFF99993333",
"             .Xo                                                            ",
"            O+@#$                                                           ",
"           $+%&@O                                                           ",
"           *%=-*;                                                           ",
"          :@> .%,.<.                                                        ",
"          X+121X@3@+@@                                                      ",
"         -@41.-5562-.@%                                                     ",
"         7@8192%;1..:+8-                                                    ",
"      ++@@081.9219:%+@#q#@3              @@+                                ",
"     >we&;e:.9:.-r@@#00q@@@$            X+O@4                               ",
"     X  -.-.92-92:w55t0y u@@            iO p@                               ",
"     %+.71212.929-a.80@@72o@@           @7s2OX                              ",
"      @#@@#19$2-2921%@ty2doo@@         i+2dso+:                             ",
"      $>&;*7$29.:+@@@t@@7fgoo*@        #OdfdgO@                             ",
"       >33$X3-29u@3>ah6@ooogfo+       i@:foosgp+                            ",
"      >+6@#@@+$$.> = a@@7odfogoq      ++osgfgs2*                            ",
"      X#@5h@@q+4j    .#@Xgfdsod++    .+XgssdfddfX                           ",
"      3@#r222u@@@@Xj a@#@fdssdoo@+   $@Xfdgosdo2+$                          ",
"       6@@joo22kp+@@@+q@#:sgfsdoo@@  X@e2fsdosddO+                          ",
"      a;@t@d7sdo2o2e@@l@@Xofodsg2o@+3,@Xdodosddoo+O     g                   ",
"       .@5t+2dfogio227*@qr2gsodsgfo@@@t:sdfdsssgso#:    4                   ",
"        a#@#Xkfgffgodo.eu7fdsdsdfd22e@+oofdssddfd2u@9   X                   ",
"         u#@@+:fgffdfgf2goofdfdodfogso7gskOogfsdfdop+ 9g+                   ",
"          8@t@@XOdofdfodfdsdfdsdsfdso7u+@@@+ioofdso2X@9o@                   ",
"          .r@q@q@kgfodsogfgfoodfkX+6@@@q#@t@+odosgdsoX+g+;                  ",
"      9odsg.h@#q@sfgofddfdfdods+@6q@#z@#@qt@tXofgsfogoOfeO                  ",
"    gsfgfdfogooeo2osdosdsodfdO+#@t#qq0tl0l0t@tkdfdodfgso7+                  ",
"   do7gkos777o2ogsdsdsgfodfiq@#@zq5l0lq00lq0t@@Odffdofdoo+.  9              ",
"  :kdiOX+@++Ogsdfdfgfdfdss+t#@qq0ll0000t00l0tt@@ogffdssddo7299ggd           ",
" 7++t@@@*OOkofdoofdfofdo7+#q@tt80000t0t0q000w@t@7fsgsodsf2O6#@+X:           ",
" :3&3&$22goodfodooodsdfoX#@#q00-1x000t0l0l08=&@@@7dfodfdgf2kOu2             ",
"      godssdsodssdkOik74#@q0l0t-=8l0q00l00q:1.$@#+Odsdoffodsgog.            ",
"    2gsdf7dfodfdi@@#@q@@w8>hy@qac+5lvq00q0;..9..@t+Ogfododfgfoo             ",
" .gsf7O7ofgfiX@@tt@ql1..-2-g2-e@1$@@tl08a..92.921e@@q+sof@@t6+u             ",
"  7X+#Xfgof7+x@t@0q#4$.91292-.=@#@@lye$...9:.<2-..1w#q+72*#w@@#@i           ",
"7++t@*:osdi@q#qlt0l08-2.912-g<2qww8>=1.19..9.9:9.-2$*@q+o+y-a&;3=           ",
"@@@w$ ksgO@@t@l0l0l@4..979.<...61=.-:929o9-292-o<29.=w#@7+;=-c-             ",
" >= a.2dO@qt#l0yq00ty192-2929$9@-.-2-2-2-2912$21ij7$92w@+#; :e37            ",
" .   7:Ot@z0q@a=8l00q7212-2929$$.:929.9291:e++@#@qt72-=8#q@q@6@q+.9         ",
"  . 2@X@tt0t0ya-$@ql0qb-92-2-299.9212<7:++#@##@qt@5=9292005&$.;@@;          ",
"    a5@z@0t0t@>-->00#@+29.9.g-2.129$>*@t@q@#lqq#t@>.29.1wye-.-.;t+.         ",
"   . @#5z0ll0t5a:,@y>&1..92-2991g%++#@q#q#q00l0l05=9.$92.-..1.1:@qa         ",
"   j+t0l0t00lq#@#q*1.-..92-29..7t@#t@#lq00l0q0t0q*<2.9o--2$92<..@#.         ",
" :4@#@q0l0q0t0qt@8=.9o192-992<Ot#q#qtl00t00t0l00l3.192-g9292-o1.3@a         ",
" %6@wtyw3wvt00lw>..92-2<.92.3@6@@0q0l00t0lt0l0q0@;..o9.2212-2129:@          ",
" ew$awa..1n3&3$.=9..929212j+@@ttl0l00ql0l00t000l0$9.1.9..9.929..4%          ",
"  m= 3:.-.--..-.929<29.$:+@@#t0lvq0lt00l0ll0t0l0@.792<291o92-79-%@.         ",
"  .m. % 2129192-2-2.-:7+#@t@qt0ll0l00q00000l0000y=..92-2g$.92-2:+y          ",
"    m=@:.9-29..g-2917+@#@t0ll0l00t00qv8n>>000q0te<.<.29$..92921%@&          ",
"      +,-29.2992-9O+@#q@t0q00t0ql0l000a..>.@l0t0$2.9.129<7.12$+@>           ",
"      %+71.$912-:4@@t0lt0t0t0l00l880qy.>..>=w0@@$.92929..*++#6*$            ",
"       @+$<2$9.X@#t0@t0l00t0l0ltM=eq0yn1n1.$n6qy.-o12-29:6@5;$              ",
"      = @+212.%@t@00lq00ll0l0l0z.>n>;&an1n$n1&5%1..g-29.%@@ =               ",
"      m:@@1.<X+#0ttt0l0l00l0q00y>.1n.$2$.$n1&;51.9..9929@@a                 ",
"      $$@@:1&@#0t0l0lvq0q0l0l0qy.1n.1n..>...>@8292<9.29.@@                  ",
"     .+@ty$2#@ql0l0l0qvl0q000l0N=na..$...$.$e51..-292-2:@a                  ",
"     j#@0@X1&500l0q0l0l0l0l0l0l@&1..>..$=n$.w%.-.g-299-%*                   ",
"     +$.@t;1.$*5000q0l0qvt0l00008.$...>..1n351.9929..2$+3                   ",
"    7@..%@y1.<2.-.%w0qvxvx0l00t0#53$n.$e%@#0>-.9929927@5                    ",
"    $r<.$0@:1o91.1.=>;w0q000q0lt0q@588q@q@0@..29..9. 4@>                    ",
"    .#2<o#@$.$29$9.<.-.1$hy50t00l0lq@t0t0l81.-92-929O@a                     ",
"     %;:;5t*<.-:92129..-.1=.>8wlyl00l0l0q,...912:21:4=                      ",
"     .@#@q0#&-2-.99$.9929.9$.=.&hy5l000t0>-9:7+@@6+@3m                      ",
"      >>&a0@@7.929.291212929.g---.$.$&;w%.$++q@6q@#q#+2                     ",
"          &@#@;.9:-92929$.921.99.-.-.-.-.,@@t5l8y05l@q6$                    ",
"           8@t+67. 29.129.9.9.7292929.$%6q@83jaaaaaaNl@@9                   ",
"           =%@#@#%:1.9.129:-2-.9:.1:X++y3aaamam1m$1am3#@=                   ",
"             =&5@t@@,O<:9$29.9.:.14+%a$mam$mjm$m$1m$maa52                   ",
"               =>w@@x6q++X%++++%+63aamjam:m$m>m>mjam$mjjb                   ",
"                  =>3w@@#@#q#t#@8;m$mj1m$m$m>m$m>mm>mjma+2                  ",
"                      =%@t0#q05aamjmjma<a1ajm$am$j1m>m>a+5                  ",
"                        >y0l@,aamja>m>ma$m$majm$a1m$a>mjarp                 ",
"                       $r#50Namm$m1m>m>m<>mjm1jm$m>mjm$ma3@:                ",
"                     >r6@508+m$$m$mja$m$1mjajjm>m$a>m>mamar@.               ",
"                     i@#lyaam$mm$m$mjm>m$amjm1jm$m$m>mjm1m%@;               ",
"                    >8t50#;mjm$1m>m$m$mj$mjm1jm>m>m>m$ajm$a+@               ",
"                  7@@+$&w5@baamm$m$a1ajmm>ajam>m>m>m>m1m1am%@;              ",
"                 %@X:-.-=8l@4m$1ma$m1<m1j1m$m>m>m>m>m1a>jmja5+              ",
"              :X+3.-..$X+w;@#8a1amm:a$am1m>m>m>m>m>m$m$mm$mj;@              ",
"             %*e-.-.%++ea  =y@,j<m$1m1m>m>m$ajjra$a1a>m>>mjaa@1             ",
"           2Xe--2 X++>      =+#ma$ma$m$m>mjj+@,jam$m$m>am>m$j+3             ",
"         .X+o- 2-4+w         a@3jm$<m$m>m;565%a$m>m:m>mj$aj1m;@             ",
"        2+@&-.. X@3           :5ama1jmj3@65;aaamjajm>m>mm1mj1j@3            ",
"       O@1.- 2.2@@a  .         .t,b@+@t8Baam:m>m$ajm$m>mmjmj1mq#            ",
"      :@$..9..9-.3+4           -@6q@#qb>m1m1a>m>mjm$m$m$jm>maa8@            ",
"      O%- 1297.9..#,            @#0t0yaa1m:am1jm>m>a1m>ma$m>m$jt@           ",
"      +1.+X91u,79-*@>          ;#0@N8v,1m$a1mjm>m$a<a>m>1m>m>mj@8           ",
"      @-7@%..1*@3$4@y          7@qbaaj@j$m$m:m>m>m$a<j1am:a1a$$63           ",
"     .%1eq#.-.;@@@@@$          =@6%amaa@j>mjmaa>mjjm$maj$a1m$ma@,           ",
"     .&-4@@j9.7@y>>=            4@0m$m$a>m>ajmjm>m$jm$m1m$m>mj$@3           ",
"     >$.5q#+:.$tr=              80@+a>m$m$mjm>mjmjam$jmj$m$1mab@,           ",
"     :,+#y3q+jX@y               +@#@,a$m>m>m>m>mjm1amajmm1mj1mq@;           ",
"      5@5,==;@@wa              X@#33@@bja$m>m$m>majm$<m1<a$ma+@@r           ",
"      *yy=m  =              9g@@55#3a%@@bj$a1m$mjma<aa<ajmj>+@bq@+@         ",
"        =                   Ot@jaB8#q,aj855,b>ajm$<a1m1mmj3#@javq#@*        ",
"                          o@#8jam1a$8@#8jaaj3;baam$m$1a<%+@3aaj@l0#@u       ",
"                         7#@jaam1jmama38@@,%jja$m$m$mjj55;jamja5y8wqts      ",
"                        O@@3am$jma<ajmama$;b%r+,rajm>;;jamam>mj+#a2#@*      ",
"                       :@#b$m>mm$m$<m$ma1mamaajmaam$mamamjm$a$j@@X1&t+      ",
"                      :@@yaa$m$$m$m$amjm11m>mam>m$m$1m$m$mjm1a$6q3.1*@e     ",
"                      e#@,a1mjmm$maam11mjm>m$m>m>m1am$mjmjm$<ajl@7..$@@     ",
"                      4@vamjam$am$m<$m1jm1mjm>m>m$m1jm$m1a1a1<%508-2.+@V    ",
"                      ;5@a:mma11m1m$m$m$7mja3m>m$ma$majmjmjmja3b5%291e*7    ",
"                      u6yma1<mjm$m$mjm3+@q+#r>aam:mm$mm:a<a<a<raw3..97*O    ",
"                       y@,1ma$m$m1m$m$maa;y@@@,j$m1$m1$mm$m>mjaab7$92.%@+++u",
"                       :@@a1m1ja1mjm$j,+@@;=a@q,a1m$am1a$mjm>mjm;%9219e@#@@@",
"                        86+j>ma$m$mjb+@e: =  8@@ja$m$m$mmjm>m>ma>62$92.@;&q#",
"                         *@,a$mmj3+@63=. .   .#@am1am>m$jm>m>m$1r@$..19*$.4@",
"                           *@5#t0q08=$92 243  .@#amjm$mj$mmj1a$m@;1.9:92$4@@",
"                            a8w000#%:9.:9 +>  m$@b>mjmjmm1$mamj%@X9$9.2$+@*u",
"                               a=3w5>.197O@a    @qj$amaa$m1jm$+#@y.9219O@@2 ",
"                                  a5+r%X@6%     $@@,j>m1amjma3#@yq7.:9.;6C  ",
"                                    *@5@8a=       q@@,%am:m74#ya;@t%1::+@o  ",
"                                     a =          a;6@#@+y@t@@3j8q5#@@@@>   ",
"                                                    =%w@t5@885@ql3=a%w8a    ",
"                                                      m=aa = awy>           "};
