/* XPM */
static char * face_data[] = {
"64 64 64 1",
".	c #3A127E",
"+	c #326DB3",
"@	c #12E6FA",
"#	c #1CB9E2",
"$	c #3655A6",
"%	c #34499D",
"&	c #1EB0DD",
"*	c #4AE6F6",
"=	c #38368F",
"-	c #2298CF",
";	c #32E2F2",
">	c #3A2C8C",
",	c #12D6EE",
"'	c #22A6D6",
")	c #2A76B6",
"!	c #2AEAFA",
"~	c #16CEEA",
"{	c #228BC6",
"]	c #0EF2FE",
"^	c #47BEE8",
"/	c #3A2286",
"(	c #2EAEDA",
"_	c #4A76C6",
":	c #1EEAFE",
"<	c #3B95D5",
"[	c #16DAF2",
"}	c #1EFEFE",
"|	c #36F8FE",
"1	c #3EBBE5",
"2	c #32A2D2",
"3	c #3A1E82",
"4	c #2EEEFA",
"5	c #36D6FE",
"6	c #2A7EBE",
"7	c #3BA8DE",
"8	c #2F60AA",
"9	c #23C2EB",
"0	c #268AC6",
"a	c #419EDD",
"b	c #0AFAFE",
"c	c #387EC1",
"d	c #56B2F2",
"e	c #3A1A82",
"f	c #16FEFE",
"g	c #50FEFE",
"h	c #32BAE6",
"i	c #2ECCF3",
"j	c #3E127E",
"k	c #43D5F8",
"l	c #4896D6",
"m	c #2BFDFE",
"n	c #436AB9",
"o	c #4AA4E4",
"p	c #4060B0",
"q	c #22BEE6",
"r	c #4656AE",
"s	c #46F4FE",
"t	c #318CCC",
"u	c #2883C0",
"v	c #38167E",
"w	c #393E97",
"x	c #404AA0",
"y	c #50ABEC",
"z	c #4381C6",
"jjjjjjjjjjjjjjjjjjjjjjjjjjjjjjjjjjjjjjjjjjjjjjjjjjjjjjjjjjjjjjjj",
"..........................v/>>>/.....v.........................v",
"jjjjjjjjjjjjjjjjjjjjjjj>8u--{)%=.j..e>w%w>3.jjjjjjjjjjjjjjjjj.jj",
"..................../%-&###-{)%=...v/=%$)6)%>e...............j..",
"jvvvvvvvvvvvvvvvvv/6'#&####'{)$=.j..vew%66{6{+>3vvvvvvvvvvvvv.jj",
".jjjjjjjjjjjjjj.>8-#&######&-6%=.v....v/%+)u)uu83jjjjjjjjjjjj.v.",
"..jjj..jjj..jj.=#######&##&&-{8=...v/>>/./=uu{u6u%>...j..jj.j.jj",
"j....jj...j..v)&&&##########-{$w...e>w$8%/v=$)uuuu+3...jj..j.j..",
"jjjj..jjj...>)##########&##-)%vv...3>%8)6)$.3=)666u)%3...j.j.jjv",
"v...jj.....%-######&##&#-8=v3/%=..ve=%8)u6u$=e=8{u6{)8vj..j.j..j",
".jj..jjj..=&###&######&)vv%,@~{8.../=%+666uu68v/))uuuu%3j.j.jj.j",
"...j.....w{&#########-//)~]]],{8..v/w%)6u{u)66=3%)6u666$.j.j..j.",
"jj..jj..=-##&####&#'8>8#bbbbb@{+..v/%%6)6){{6u)%v=8{6u)u>v.jj.jj",
"..jj.../&&########'/38]bbbbb]@-8vv.=%8){u{)u6u{)>e=)u){6)=...j..",
"j..j...$###&#&##&'8%#]bbb]bbb]'+..v>%8666{6{)6uu+=386u666+w..jjj",
".jj...%-########-==,]]b]]bb]]]-).vv=$8uuu6uu{u{6{8==8)uuu68vj...",
"..j..v'&#######'>={]bbbbbbbbb]&).vv=8){{{{{{u6uu{)8v%+u6u)6/v.jj",
"j...v%&#######&)/'@bbbbbbbbbbb#6.v3%860{u0u{{{{{u{)//$){uu{$>...",
"..../+&#######uw-@bbfbffbbfbbb#{..v%)){tt<ttt{0{u{u%3=6)6)u)%3.v",
"...v8-##&#####%%bbfbfffffbb]bb,{.v38)uuuttt<<<tt{{{)=/){u{6{8=jj",
"j../{########'/{bffbfbfbfbbbbb,-vv38){utt<t<<<<<tt{{%>8u66uu{$v.",
"..v$'####9#~#+89fff}}fffbbbbb]]'.v/+)uuutu<<<<<<<-t{)w%)u6u)u8ej",
"..v{&#####99-$#]bf}fffffbbbbbbb&vv/66uuuttt<<<<<<a<t6%=+{uu66)/.",
".v/&#&##99#9+=[f}ff}}fffbbbbb]b#.vw66uuu0tt<<aaa<<<t-838{u6{{6=e",
"..=#####99i#%$4f}}}}}ffbbbb]bbb~..=%%%+6utt<<<aaa<<<<+e$0uu)uu%>",
"..8&####9i9'w+b}}}}}}fbfbb]bb]],..vvv3.v$c0<<aaa<aa<<)/x{{6{66+=",
".v8#####99it%0}}}m}}}fbbbbbb]bb,v/)~,~{8./$<<<ao7aa<<c3%t0uu66)w",
".v)&##999ii8=0}}}}}f}fffbb]bb]b]v8&@@@@@{w/n<aoaaoaaaz/wtt{uu{6w",
".=)#&##9i9ix%-m}mm}}}fffbb#%==6,.{~[@@@@@98>8tooooaa<z/%tt0u){6%",
"v={##999i5ix82}}fm}}}}ff'%3$){%>.&]@]@@::@i/=naoo7oo2z/x<<0uuuu$",
"v%{#&##99ii=%2mmmmm}}}f93=-]bbb~v&@@@@@]:]!z=xlodooooc3x<ttuuuu8",
"v$-###9ii5i$w<}}mm}}}f;8%~]]]bbbv&@@]@@@:::!8/lyydoo7_/$<tt{6u68",
".%{####ii5i8=c}mmmmm}}8/fbb]]]b].&@@[@@:!::!c=loyyyoon3n<<<u66u8",
"v${###9iiikc=ummmmmm};>8}fb]]bbbv&@@@@::!!4;i)xlyyyoar>c<<tuuu68",
".${####ii5i7wcmmmmmmmh/uffbbb@]].#@@@::@::44;_/noyyylxxc<<tuuuu8",
".%{##q99i5!^r84mmmmm}2%(}}}bbb]].#@:]@::!!4!inj=oydon=_l<<t0uu6$",
".>6##99iiik58%;mmmm|4<%h}}}fbfbb.#@::::!!444t=j/_lolw/z<<<<uu6u%",
"./)###qiiik;aximmmmmm<pi}m}}}f}f.h:!:!4!44|1xw=/rlyr>wo2<<tu6uu%",
"..8###qii5ikinni|||ht%=1mm}}m}f;.t~!!!!4|4;/wzr/=nl/>raa<-t0u)6=",
".v$&#q99ii55k2=7;h<rw=3nmmmmm}m#.ci4!4||4in=y*zw/rr/rzoa<ttuuu+=",
"..=&&#q9ii5kkk=%cr%>ev/3c;|mmmm(.ph4|4|!c>>ks*lwe=/xzya<a<0uu6$/",
".v>&##q9iiii;k<===/e/wcz.3ni4mm2j$(m4;arjp1g4gdrjj3looo<<ttuuu=3",
".vv-&##9ii5kkkkzjv/wr_ss^uxv/=>ejv/=///r^**ssg1xj/pyyoa<<tt6u)/.",
"...8'#9qqii5k;kkve/n<kssgsskyz_zka_clyssg|gsss^pjnlyoaa<t{uu6+ej",
".../{&#999i55kkk1==y*sggggggssssgggsssggsgsggstw_ydyoo<attuu6$v.",
"...v8-#q99ii5k5kk_=kssggsggsggggggsggggggggss*w=ddoooat<tu{6+=.v",
"....=)##99955kkkkk_=ysgggsggggggggggggggggggsa>_ddyoaa<t0uu6%3..",
"..v..='#999iii5k;k^=%<sggggggggggggggggggggszwzddyoa<<<<uuu$/...",
"....e/'#q99iii;kkk*1x=^sgggggggggggggggggg*%/rddoooo<<ttuuu>e.jj",
"......$-qq99iiik5k;k^_/cgggggggggggggggss^n>_ldyyoa<<-tu6u8e....",
".......8&##99iki5kkk*kp/r1*gggggggggggg*r//dddyyaoaattt0u+=..vvj",
"j...v../'##9i9ii;i;ki*k^=j=d*gggggggs*n=/_yddyoooa<<tt{66=ev..j.",
"j..j..ve%-##99ii5ik;k;kk*lpj3wld**dp=v/rdddyyyol<a<ttuu)=v....jj",
".j.......%{##q9hiikikk;kkkkklreejjj/r_ddddyyooo2<<tttu)8.....j..",
"..j.j...v.=&qq99iii;5kk5kk*k^orwjv>rzoddyyyoalaa<ttu{u%/.....jjv",
"jj.j....j.v$-##9qiiiii5kkkkk^opwjejxnllyooolaa<ttt{6u+3v...jj..j",
".j.jjjj.v..v=)#q99iii5555k5k^2nxjee=r_llolaa<<<ttuu6w/......jj.j",
"j.j....j.j.../)'##9qi9ii555k17nxjje>xpzzaa<<<t0tuu)/3...v.jj..j.",
"j.jjjj.j.v...ev%##q99ii9ii55h2zxjjj/wxnc<<<<<0utu$>.....j..jj.jj",
".j....j.jj.j..jj=8-qqq99iiih12c833e3/xpnt<t0ttu8/vv....j.jj..j..",
".jjjj.j.jj.j...jvv>)'99999i9h(cpeee3/=r8cu0uu)=/.......j..jj.jjj",
"j....j.j..j..jjjjjjv>%-&q99q#(0n//ej3>w$)66w=e...j...jj.jj..j...",
"jjjj.j.jj.jj...j..j...e>8u-#&#t+//3v3/==w>/.......v...j..jj.jjjj",
"....j.j..j..jj...j.j....vje/=w%w>/ej.v.v.v...j.....jjj.jj..j...."};
