/* XPM */
static char * image_name[] = {
"93 59 13 1",
" 	c None",
".	c #A8B2C4",
"+	c #2B4F8D",
"@	c #0A357E",
"#	c #DEDEDF",
"$	c #F3F3F4",
"%	c #5B739D",
"&	c #8E9AAE",
"*	c #CDCDCD",
"=	c #D6D6D8",
"-	c #BEC4CD",
";	c #FFFFFF",
">	c #E5E6E7",
"   .+@@@@@@@@@@@@@@@@@@@@@@@@@@@@@@###++@+++#$%%@@@@@@@@@@@@@@@@@@@@@@@@@@@@@@@@@@@+&>>      ",
" %%@@@@@@@@@@@@@@@@@@@@@@@@@@@@@@@&*..@@@@@%==++@@@@@@@@@@@@@@@@@@@@@@@@@@@@@@@@@@@@@%%*     ",
" %%@@@@@@@@@@@@@@@@@@@@@@@@@@@@@@@&*..@@@@@%==++@@@@@@@@@@@@@@@@@@@@@@@@@@@@@@@@@@@@@%%*     ",
"-@@@@@@@@@@@@@@@@@@@@@@@@@@@@@@@@@-=%%@@@@@.=.@@@@@@@@@@@@@@@@@@@@@@@@@@@@@@@@@@@@@@@@@&*#   ",
"+@@@@@@@@@@@@@@@@@@@@@@@@@@@@@@%%.**++@@@++**#===-&&%+@@@@@@@@@@@@@@@@@@@@@@@@@@@@@@@@@+*=   ",
"@@@@@@@@@@@@@@@@@@@@@@@@@@@@@%.***=&@@@@@%%*=$;;;;$$>#.%%@@@@@@@@@@@@@@@@@@@@@@@@@@@@@@+**>> ",
"@@@@@@@@@@@@@@@@@@@@@@@@@@@@&**===>%@@@@@--=#;;;;;;;;;$$$*%@@@@@@@@@@@@@@@@@@@@@@@@@@@@+**## ",
"@@@@@@@@@@@@@@@@@@@@@@@@@@@@&**===>%@@@@@--=#;;;;;;;;;$$$*%@@@@@@@@@@@@@@@@@@@@@@@@@@@@+**## ",
"@@@@@@@@@@@@@@@@@@@@@@@@@+..=*=##$$+@@@@+**=$;;;;;;;;;;;;;$.@@@@@@@@@@@@@@@@@@@@@@@@@@@+**## ",
"@@@@@@@@@@@@@@@@@@@@@@@@+.==*=>$$;.@@@@@&**=$;;;;;;;;;;;;;;;**+@@@@@@@@@@@@@@@@@@@@@@@@+**## ",
"@@@@@@@@@@@@@@@@@@@@@@@@.=**#>;;;;%@@@@@-**#;;;;;;;;;;;;;;;;;;#+@@@@@@@@@@@@@@@@@@@@@@@+**## ",
"@@@@@@@@@@@@@@@@@@@@@@@.**==>;;;;#@@@@@%*==$;;;;;;;;;;;;;;;;;;;=@@@@@@@@@@@@@@@@@@@@@@@+**## ",
"@@@@@@@@@@@@@@@@@@@@@@@.**==>;;;;#@@@@@%*==$;;;;;;;;;;;;;;;;;;;=@@@@@@@@@@@@@@@@@@@@@@@+**## ",
"@@@@@@@@@@@@@@@@@@@@@%%*==>>;;;;;.@@@@@&*==$;;;;;;;;;;;;;;;;;;;;.@@@@@@@@@@@@@@@@@@@@@@+**## ",
"@@@@@@@@@@@@@@@@@@@@+--*=>$$;;;;;%@@@@@-=>>;;;;;;;;;;;;;;;;;;;;;;%%@@@@@@@@@@@@@@@@@@@@+**## ",
"@@@@@@@@@@@@@@@@@@@@&==*#$;;;;;==@@@@@%*=$$;;;;;;;;;;;;;;;;;;;;;;##+@@@@@@@@@@@@@@@@@@@+**## ",
"@@@@@@@@@@@@@@@@@@@@-**=>;;;;;;&&@@@@@+%%%%&>;;;;$%%%%%%%%%%%%-;;;;&@@@@@@@@@@@@@@@@@@@+**## ",
"@@@@@@@@@@@@@@@@@@@@-**=>;;;;;;&&@@@@@+%%%%&>;;;;$%%%%%%%%%%%%-;;;;&@@@@@@@@@@@@@@@@@@@+**## ",
"@@@@@@@@@@@@@@@@@@@%***=$;;;;;;++@@@@@@@@@@@+#;;;-@@@@@@@@@@@@@&>;;=@@@@@@@@@@@@@@@@@@@+**## ",
"@@@@@@@@@@@@@@@@@@@&===>;;;;;;=@@@@@++++@@@@@.==;%@@@@@+++@@@@@%*>>;+@@@@@@@@@@@@@@@@@@+**## ",
"@@@@@@@@@@@@@@@@@@+**==$;;;;;;&@@@@@&&=%@@@@@.**=@@@@@%==*+@@@@%*##;.@@@@@@@@@@@@@@@@@@+**## ",
"@@@@@@@@@@@@@@@@@@+=*##$;;;;;$+@@@@+===+@@@@+=**.@@@@@&==&@@@@@&=##;=@@@@@@@@@@@@@@@@@@+**## ",
"@@@@@@@@@@@@@@@@@@+=*##$;;;;;$+@@@@+===+@@@@+=**.@@@@@&==&@@@@@&=##;=@@@@@@@@@@@@@@@@@@+**## ",
"@@@@@@@@@@@@@@@@@@%=*>>;;;;;;-@@@@@&==.@@@@@%***%@@@@@-**%@@@@+**>>;$+@@@@@@@@@@@@@@@@@+**## ",
"@@@@@@@@@@@@@@@@@@%==>>;;;;;;&@@@@@.**%@@@@@.*--@@@@@%=--@@@@@%==$$;;+@@@@@@@@@@@@@@@@@+**## ",
"@@@@@@@@@@@@@@@@@@%*=$$;;;;;>+@@@@+***+@@@@+**&&@@@@@&=&&@@@@@.*#;;;;%@@@@@@@@@@@@@@@@@+**## ",
"@@@@@@@@@@@@@@@@@@&*=$$;;;;;.@@@@@&*..@@@@@&*=++@@@@+*=%%@@@++*=>;;;;%@@@@@@@@@@@@@@@@@+**## ",
"@@@@@@@@@@@@@@@@@@&*=$$;;;;;.@@@@@&*..@@@@@&*=++@@@@+*=%%@@@++*=>;;;;%@@@@@@@@@@@@@@@@@+**## ",
"@@@@@@@@@@@@@@@@@@%*=$$;;;;;%@@@@@-*%%@@@@@.*-@@@@@@%=.@@@@@%%*=$;;;;%@@@@@@@@@@@@@@@@@+**## ",
"@@@@@@@@@@@@@@@@@@%==$$;;;$$+@@@@%**++@@@++=*%@@@@@@&=%@@@@@--=#;;;;;%@@@@@@@@@@@@@@@@@+**## ",
"@@@@@@@@@@@@@@@@@@%*=$$;;;..@@@@@&*&@@@@@&&=*+@@@@++=#+@@@@+==*>;;;;$+@@@@@@@@@@@@@@@@@+**## ",
"@@@@@@@@@@@@@@@@@@+*=$$;;;++@@@++-*%@@@@+--*.@@@@@&&*.@@@@@&**=$;;;;$+@@@@@@@@@@@@@@@@@+**## ",
"@@@@@@@@@@@@@@@@@@+*=$$;;;++@@@++-*%@@@@+--*.@@@@@&&*.@@@@@&**=$;;;;$+@@@@@@@@@@@@@@@@@+**## ",
"@@@@@@@@@@@@@@@@@@+**$$;;#@@@@@%%=-@@@@@%===%@@@@@..=%@@@@@.==#;;;;;-@@@@@@@@@@@@@@@@@@+**## ",
"@@@@@@@@@@@@@@@@@@@&=>>;;&@@@@@&&=&@@@@@&**-+@@@@+==*+@@@@%=**>;;;;;&@@@@@@@@@@@@@@@@@@+**## ",
"@@@@@@@@@@@@@@@@@@@%*##;$%@@@@+***+@@@@+-**&@@@@@+%%+@@@@@&*==$;;;;$+@@@@@@@@@@@@@@@@@@+**## ",
"@@@@@@@@@@@@@@@@@@@@.==$*@@@@@%**.@@@@@%=**%@@@@@@@@@@@@@+-=##;;;;;-@@@@@@@@@@@@@@@@@@@+**## ",
"@@@@@@@@@@@@@@@@@@@@.==$*@@@@@%**.@@@@@%=**%@@@@@@@@@@@@@+-=##;;;;;-@@@@@@@@@@@@@@@@@@@+**## ",
"@@@@@@@@@@@@@@@@@@@@%==$$#==..****#=...**--+@@@@+%%%%%%%%-*=>>;;;;;%@@@@@@@@@@@@@@@@@@@+**## ",
"@@@@@@@@@@@@@@@@@@@@+--=;;>>#####>;$#####..@@@@@&-*****====#$$;;;--@@@@@@@@@@@@@@@@@@@@+**## ",
"@@@@@@@@@@@@@@@@@@@@@%%=$;$$$$$$$$;$$$$$$%%@@@@@-===######>$;;;;;++@@@@@@@@@@@@@@@@@@@@+**## ",
"@@@@@@@@@@@@@@@@@@@@@@@&#;;;;;;;;;;;;;;;#@@@@@%%**>>;;$;;;;;;;;;&@@@@@@@@@@@@@@@@@@@@@@+**## ",
"@@@@@@@@@@@@@@@@@@@@@@@&#;;;;;;;;;;;;;;;#@@@@@%%**>>;;$;;;;;;;;;&@@@@@@@@@@@@@@@@@@@@@@+**## ",
"@@@@@@@@@@@@@@@@@@@@@@@@.$;;;;;;;;;;;;;;.@@@@@&&==$$;;;;;;;;;;;.@@@@@@@@@@@@@@@@@@@@@@@+**## ",
"@@@@@@@@@@@@@@@@@@@@@@@@+.$$;;;;;;;;;;;;%@@@@@--*#;;;;;;;;;;;;.@@@@@@@@@@@@@@@@@@@@@@@@+**## ",
"@@@@@@@@@@@@@@@@@@@@@@@@@+..;;;;;;;;;;;=@@@@@%===>;;;;;;;;;;..@@@@@@@@@@@@@@@@@@@@@@@@@+**## ",
"@@@@@@@@@@@@@@@@@@@@@@@@@@@@&$;;;;;;;;;&@@@@@.**=$;;;;;;;;>%@@@@@@@@@@@@@@@@@@@@@@@@@@@+**## ",
"@@@@@@@@@@@@@@@@@@@@@@@@@@@@&$;;;;;;;;;&@@@@@.**=$;;;;;;;;>%@@@@@@@@@@@@@@@@@@@@@@@@@@@+**## ",
"@@@@@@@@@@@@@@@@@@@@@@@@@@@@@+-;;;;;;;;+@@@@+*==#;;;;;;$$&+@@@@@@@@@@@@@@@@@@@@@@@@@@@@+**## ",
"+@@@@@@@@@@@@@@@@@@@@@@@@@@@@@@%%.>;;;=@@@@@%=**>;;;$*&++@@@@@@@@@@@@@@@@@@@@@@@@@@@@@@+**## ",
"%@@@@@@@@@@@@@@@@@@@@@@@@@@@@@@@@@@*;;&@@@@@.*..&&%%+@@@@@@@@@@@@@@@@@@@@@@@@@@@@@@@@@@+**## ",
"-@@@@@@@@@@@@@@@@@@@@@@@@@@@@@@@@@+=>>@@@@@+**%%@@@@@@@@@@@@@@@@@@@@@@@@@@@@@@@@@@@@@@@&=*## ",
"-@@@@@@@@@@@@@@@@@@@@@@@@@@@@@@@@@+=>>@@@@@+**%%@@@@@@@@@@@@@@@@@@@@@@@@@@@@@@@@@@@@@@@&=*## ",
" &&@@@@@@@@@@@@@@@@@@@@@@@@@@@@@@@&=&&@@@@@&=-@@@@@@@@@@@@@@@@@@@@@@@@@@@@@@@@@@@@@@@%%**=## ",
"   -%%%%%%%%%%%%%%%%%%%%%%%%%%%%%%-*&&%%+%%.*.%%%%%%%%%%%%%%%%%%%%%%%%%%%%%%%%%%%%%%.****#>> ",
"    =*********************************>>=***=#$$;$**************************************=>   ",
"    >=================================$#=====>;;;>=====================================#>    ",
"    >=================================$#=====>;;;>=====================================#>    ",
"      >>>>>>>>>>>>>>>>>>>>>>>>>>>>>>>>;$>>>>>$;;;$>>>>>>>>>>>>>>>>>>>>>>>>>>>>>>>>>>>>>      "};
