/* XPM */
static char * image_name[] = {
"108 108 54 1",
" 	c None",
".	c #909090",
"+	c #606060",
"@	c #585C58",
"#	c #000000",
"$	c #808080",
"%	c #808480",
"&	c #707070",
"*	c #707470",
"=	c #383C38",
"-	c #181C18",
";	c #404040",
">	c #686868",
",	c #E0E0E0",
"'	c #E8E8E8",
")	c #989898",
"!	c #303030",
"~	c #383838",
"{	c #282828",
"]	c #202020",
"^	c #888888",
"/	c #D8D8D8",
"(	c #B8B8B8",
"_	c #A0A0A0",
":	c #787C78",
"<	c #181818",
"[	c #F8F8F8",
"}	c #B0B0B0",
"|	c #787878",
"1	c #484848",
"2	c #909490",
"3	c #505050",
"4	c #585858",
"5	c #A8A8A8",
"6	c #A0A4A0",
"7	c #989C98",
"8	c #888C88",
"9	c #C8C8C8",
"0	c #D0D0D0",
"a	c #F0F0F0",
"b	c #484C48",
"c	c #A8ACA8",
"d	c #B0B4B0",
"e	c #080808",
"f	c #303430",
"g	c #101010",
"h	c #606460",
"i	c #404440",
"j	c #686C68",
"k	c #C0C0C0",
"l	c #F8FCF8",
"m	c #C8CCC8",
"n	c #D0D4D0",
"o	c #505450",
"                                                                                                            ",
"                                                                                                            ",
"                                                                                                            ",
"                                                                                                            ",
"                                                                                                            ",
"                                                                                                            ",
"                                                                                                            ",
"                                                                                                            ",
"                                                                                                            ",
"                                                                                                            ",
"                                                                                                            ",
"                                                                                                            ",
"                                              .+.           .+.                                             ",
"                                              @#@           @#@                                             ",
"                                          .@$ %$   &     $*@=-;>+@8                                         ",
"                                          @#;$ ,,')!>   %+!#-~{]g#@                                         ",
"                                      .@$ ^$  //(_>~:   .>;<-]]---;>+@8                                     ",
"                                      @#;% ,'[/}|;~1$   2&3{-<<]!~!-<#@                                     ",
"                                  .@$ .$  //(_.$&4++.    &>+44;!]]]]--;>@@^                                 ",
"                                  @#;. ,'[/5&;14&$$^_   )^^^.)>~]g<]!;!]<#@                                 ",
"                              .@$ .$  ,,(_^$|&||||%^6    ^^^^^^^>3;]]]]]--;>@4^                             ",
"                              @#;. ,'[/(|~13$}678$%86    ^^^^^59 )+~]e<]!~!]<#@                             ",
"                          2>.  |  ',9_.$&&||87)7)28^_   )^..^^.__)^|+3;{{]]!--;>@4^                         ",
"                          ><> 0'a['0.;1;|65}2%.76}2$_    ^.5)^^|._} }^+~]-]!!~!{<#@                         ",
"                      .@++b!|0,'/}.|&&||86cdc666662$_   )^))_.)__ c(_.$&4;~]!~]]-g;|.                       ",
"                      @#e<];)/,'}3;{+_6}65}    56_8$_    $.))_     (_2_5^>3{{{]]--!;|5                      ",
"                    .@fg<]~~4|^.|4+>8}cddd    dc6_8$_   )^^.)_5    }}5cc)^+1{]]~3&^  0)&.                   ",
"                    @#g<!;~!]e<{;4%c}(         }_78$7    $..)_         }5_|4~<];$ ,'aa){>                   ",
"                    8+=-]]{{]{{!~;4$)         }5668$)   )$$.._c         8+b!;4|_ '/0}.>;$                   ",
"                      >!-<]]~~~!{{~b^          6}6.|)   _|^.25}         *!-g450,aa0_+{;4^                   ",
"                      .*@;~~{{{!{!!;bh.       }__2%|)    &$$.)c         %b>^50/,k_.&+4|^                    ",
"                        8&4{{g-!~;!{<eh        _8%|&)   ^$|&$2c         )> [[[,9%;;1&85                     ",
"                        ^+++b~~{{{{{{]ij>>)   c_%>&|)    |>4$)c   .+>$ 9m /[0c2%|>>>^c                      ",
"                        $4&||&1{<g{!~;{]<g>    _$b+|)   )$+;|_    @#]=_/,a[[64b1+2886                       ",
"                         |2 &>+4b~{{{{{{{]1>&*&^+3>$_    ^|4+$++j*>&%_9,,k6_%&&&$.)6                        ",
"                            ^4|.$4;gg<{;~~{-{~3>+4&^6    )$++4~#<!$900,, $4;+8.72.5                         ",
"                ^+4@^        $%|&+431!{{{!{!!~;b;;4&)   .^4~~;b+|. ,,0 _^|&&|8)cc6      .@+>.               ",
"                @##e@         .>+&$2&b{e<{!;;~!~!~;h^   )>~#g{&(,,a'/5&~3|86)86         +#g->               ",
"              ^@=]--;>8        %).$&>+4b;{{{{{~~~~;~>^..h=;b&2},,,958^|&|%2}66       |$&@3&.                ",
"              @#];~!!]>           %b+%%.+;<e-!~~;;{{~@+h~#b_0[[[,/^;44%c_26(d       %4=]+)m0,,0             ",
"              +g<]]!!!1>>>8        |)_$+&+4;~{{]{~!~~~3>>^59,[0c_8%$||8_65c       7>j+&) 990}^              ",
"              >-<g-!{~!]]]>           $;>28$3{<e<~!;{{;> ''a[a}+3b$_7222c         &]1> '',05+->             ",
"              2|4;!-]]]~!!;>>|.        *%^||&+3;!{{{{{&}/a,kc28%$$$8)c6c      7&$$$$_ /a0_^|&>)             ",
"               9 &1<<e]~!~!]!~|         )&&48(2&;ge#<{)[[[k%+1&65}8|)         |!=3)m0'aa2;~~$(              ",
"                5_^|3{]]]]!!!!b>>$       ^))$&||&+1{{{+65c)%%^8.27_)      6$|:&>^  ,0 _^$&|^_c              ",
"               _}090.3{#<]{~~!]]~;>         *!487(|3!<!b4+|%c06$%85       $;=~& 9'aa(|b{42}0kc              ",
"              5)}( 9})|4;]{]]!!!!~3>.       &!4%%%$||||$%82__68|^_5     )&>+|_ /,,(_$&|$2}ck(5}             ",
"               __(}(9,9_>{<#]{~~~{{]&       &{4|&4|7(09}(k}}2|||86      *{3: 'aa,9${b+_/9(}}66d             ",
"               __(565cc()|4~~]]{]~!!1>|^$:>@1!b||$$|7}}72%$|||+4|.$&|$^8$$  'a/}.$|&$))565}(56              ",
"              5)}(5_8$_999_|~<<e{{~;!];41=]#-~3+^6$+|22.>b1~4>4b4|b{!b34 0,aaac4b;&6d )|%25(c6}             ",
"               _5}c68$2(90(.$+b!{]]{{!~;;3;~~{~~4^^.)c6c)%&3b1~{1+3;+|^ (',9c_$|||2d  ^+^_c((_c             ",
"               _5((52|8_9,0((k^b!#<]{~~~13+&3{]g~+)       )>1g<g{b4|^5/'aa9.+{4%_}    $b$c}(}_              ",
"              5_}(5}2%._9a,,09c)&4~{{]]{~13+31~{b|)        .h1;~4|8}90,,9_^$$%)c}     ^3$5}k5_5             ",
"               _5}(678279llla0/0(5>!<g<{{;;13+4b>$6         )++&$70l[[,/$~3+_/009     ^+$5ck}_c             ",
"               _5}c62^2_9lll9.%$)c_$+~~]{]!~~1>))_        )&j&8ck9,l/}_%$$867)886     ^3|5ck5_c             ",
"              5_}}(_2$260lll61;{|k9/5$;<g<-!{!$/0k        &{b>(a[lll}>3;%90/73b;$     $1*5ck}_}             ",
"               _5}c6)875}(_$>3|7},k}65^&b!]<<<&000_*j>>*$)3<{1_a'/(7%|%26(7%+;;;3+.   $b|_ck}_c             ",
"               _5}(c_)6}2|~#!>}lllk$6009^b!ee#+90,^!]<-]3&=#g].a/}|!+%},/}&{{{!;{#h   $3|5}(})              ",
"              5_}(562882|3>|7}0a09)|$%_}).&4;{4%_c$b+|4!3&@1;~>5)2^|86_78$+31{!~!!3&**>@%}}k6_5             ",
"               _5(5_8$$|3{2llla/($||4;+)ck(_$3b14|||50.~4>|^>bbb4|2k(984b1+%4!!!14~{!!3>% (}c_c             ",
"               _5(}68|%7)29l,(62%%8).|)5dk}c_.8^8)88ka^{1>. _)^.8)5(0,}^&34>43b11;~]{~3>^}(}c_              ",
"              5_}(}}%+8(/lll(|+b>$_      9}}90999(}6/[^g~*5,/009k}kk/l, )h4b4++31{{-!;+&.}}(c_c             ",
"               _}(5}8&8}(0(}2%||%_        }c}9(k((})__4{b|_09k(k}}c}9/n  %.%&4443b;!~~4|.(}(c6}             ",
"               _5}c}.|8666|3&82_c         (5cc(}}}6.>1;{48_k(}c}cc56d       ^344+>31~~4$.((cc6              ",
"               55(}c7%82.8%|8)6c       *|%)(c}c(}(7||>+4+|)k(cc}}(68$|)      |..>obbb;+$)(c}c_c             ",
"               5}5(}688^||866}d       &1;;$ 9c(}}92+|28$&48k}}}c(97$4!|         |~b444+|)((cc5              ",
"               (55}}_82_2%_cd      )$&&&^65}(c(}}k6))56)).6(c}(c}968&;@>)        *%^>~;b^k}c}_}             ",
"               k5_}(6^_(})5       _%3]j 0,/55cc(}(         6((c(}k}5$4;]&           >{{-|0}66c              ",
"                _^8.%|)(}c      _|||^^ ,/,k5}c(}}(         _5}cc(96%+1~{1+>>        )&@1$}c6cd              ",
"                .$>+>+29        |=4* aa[,(c}5}(c}(        }5c}}((9241{~~]<<-+         .>^665d               ",
"                 ))).)5     6^^.^^6 /[/52%_}c}(((}         6(}(}(9)+1{{~!]]];+>:       ^6 c                 ",
"                            ^@@@_n,a[a6443%}(}(}}}(        _c}(}(97|1]{{~~~]-g]~&                           ",
"                         c_).^_ 9,09c_).^.)cc}(}(}d        5((cc((_||&3;~!!{]]!!1@>$                        ",
"                        c.$+) /'''98>1|    _5(}c(c         _5}}}}}625 %1~{{~~;{{<g{1.,9                     ",
"                      .h&^..). a/(_^$$    6)_}}}}(d       }5c}}}}}6c  6$j31~~;~{{]>) 9                      ",
"                      +e;>)9)+6,6&|$)     6^_k}}}c         _c}}}6_c      |+1;;~{;1)/9_k,                    ",
"                      @#-~+$&+&|&+%)      _$_k}}}}d        _c}}}5_c      .*1~!1+$_9,}$8(                    ",
"                      @###]~4+;g~>)       _$)k}}c(d       }5c(}}}_}       $1~<b.9,,,5b&)}                   ",
"                      $3;{{{{;!{!~3*7     _*_k}}c(         _c}}}6_c     .>3~+^_90, _$+^5                    ",
"                       )|+{ee<!3{e<{&     )*. (}(5d        _c}}}6_c     >g<{^,aa,9|~4$)                     ",
"                       )^|+;!<{{{<<]=+)   )|_k}}}c         _c(}}5_    .@3;&^9,/(_%^|.)                      ",
"                       _).^.4<e#<!{<g#@    &_((}(c(       }5c}}}}6}   @#;| ,,a(&43%                         ",
"                        5 .^|+b{{g<{-{3:*>&|_ (}}c         _c}}}}})|&&**2 /,9_8|$^                          ",
"                          _^_}%3{#g{~b1;!]@%59}}}(d        _c}}}(9$={]$90,,/^;+$)                           ",
"                           __68$4b!{{{~i11+^)k}}cc         _c(}}}}8|$^ ,0 }.^%.6                            ",
"                            6.))224{ge{14>>|_ (}}(d       }5c}}}c5650,a' $+3%                               ",
"                             66 )%$+b{{{!~+^_9}}(5d        _c}}}}_(0,a06.|$$                                ",
"                                )$2($3{#eeb)5k((}c         5c((c6_9l[,_b+$)                                 ",
"                                 .).%$41{e;^_k}(5c(        _c}((56}k}_8^))                                  ",
"                                  _|8)28be;^_k}(}cd       }_c}}((})|>4.                                     ",
"                                   )6c.^&3&|7(}(}c         _}}}c(}2%^.6                                     ",
"                                      6^.68$2(}}cc(       c_5}(}c()%6                                       ",
"                                       _)^$>2k}(ccd        )5(}(c(c6                                        ",
"                                        _|+48k((c5        5)6kccd                                           ",
"                                         ).^5   }}         6 ( d                                            ",
"                                                                                                            ",
"                                                                                                            ",
"                                                                                                            ",
"                                                                                                            ",
"                                                                                                            ",
"                                                                                                            ",
"                                                                                                            ",
"                                                                                                            ",
"                                                                                                            ",
"                                                                                                            ",
"                                                                                                            ",
"                                                                                                            ",
"                                                                                                            "};
