/* XPM */
static char * image_name [] = {
/* width height num_colors chars_per_pixel */
"    64    75      250            2",
/* colors */
"bZ c #000000",
"b3 c #f8f8f8",
".. c #a87010",
".# c #f0c814",
".a c #a88004",
".b c #100404",
".c c #503800",
".d c #eccc38",
".e c #101004",
".f c #f0d014",
".g c #684800",
".h c #b08804",
".i c #f0d820",
".j c #503000",
".k c #a87800",
".l c #684808",
".m c #d09010",
".n c #503008",
".o c #e0a410",
".p c #805800",
".q c #f8d830",
".r c #f8c838",
".s c #a08004",
".t c #d0b404",
".u c #f0d810",
".v c #281804",
".w c #d8a410",
".x c #f0cc20",
".y c #d8a800",
".z c #686868",
".A c #a87c1c",
".B c #b88804",
".C c #c08810",
".D c #a08c74",
".E c #805808",
".F c #483000",
".G c #e4cc20",
".H c #a4803c",
".I c #483008",
".J c #604c04",
".K c #f4d850",
".L c #e8b010",
".M c #606060",
".N c #a48804",
".O c #684000",
".P c #606058",
".Q c #c08010",
".R c #201804",
".S c #745804",
".T c #a8a8a8",
".U c #e0b800",
".V c #805000",
".W c #685030",
".X c #f0d818",
".Y c #a8a8a0",
".Z c #805008",
".0 c #201004",
".1 c #a0a0a0",
".2 c #f4d448",
".3 c #403004",
".4 c #583800",
".5 c #604000",
".6 c #785000",
".7 c #585858",
".8 c #f0d838",
".9 c #707070",
"#. c #a07000",
"## c #e0b808",
"#a c #b0aca4",
"#b c #b87800",
"#c c #885800",
"#d c #e8c808",
"#e c #b48410",
"#f c #503c2c",
"#g c #f8b808",
"#h c #e0c808",
"#i c #986000",
"#j c #888888",
"#k c #784804",
"#l c #484848",
"#m c #a07008",
"#n c #887870",
"#o c #f8cc14",
"#p c #181404",
"#q c #c0881c",
"#r c #e8a810",
"#s c #e8cc14",
"#t c #986800",
"#u c #503808",
"#v c #909090",
"#w c #606068",
"#x c #704800",
"#y c #b0b0b0",
"#z c #f4d028",
"#A c #906804",
"#B c #f0b008",
"#C c #707078",
"#D c #583808",
"#E c #404040",
"#F c #604008",
"#G c #704808",
"#H c #906000",
"#I c #704004",
"#J c #e8b808",
"#K c #240004",
"#L c #c08000",
"#M c #c08008",
"#N c #886000",
"#O c #e0b008",
"#P c #986808",
"#Q c #886008",
"#R c #383838",
"#S c #e8a800",
"#T c #e8a808",
"#U c #505050",
"#V c #785008",
"#W c #f8d820",
"#X c #583004",
"#Y c #989898",
"#Z c #303030",
"#0 c #808080",
"#1 c #a8a8b0",
"#2 c #a06800",
"#3 c #585864",
"#4 c #d8b404",
"#5 c #c88800",
"#6 c #684008",
"#7 c #e0a000",
"#8 c #c88c10",
"#9 c #d09810",
"a. c #382420",
"a# c #282828",
"aa c #603804",
"ab c #888890",
"ac c #484840",
"ad c #906008",
"ae c #885808",
"af c #483804",
"ag c #a87000",
"ah c #b88000",
"ai c #c89000",
"aj c #181818",
"ak c #f8d814",
"al c #c08800",
"am c #e0d08c",
"an c #e8e8e8",
"ao c #a06808",
"ap c #d09000",
"aq c #d8d8d8",
"ar c #a87008",
"as c #d08808",
"at c #f0c808",
"au c #a06008",
"av c #c09004",
"aw c #a86804",
"ax c #f0d008",
"ay c #705004",
"az c #d89810",
"aA c #806404",
"aB c #787878",
"aC c #b08004",
"aD c #c89008",
"aE c #e0e0d8",
"aF c #e0e0e0",
"aG c #f0d808",
"aH c #101010",
"aI c #d89010",
"aJ c #402800",
"aK c #402808",
"aL c #a0a0ac",
"aM c #8c6030",
"aN c #d09800",
"aO c #b88008",
"aP c #e4bc10",
"aQ c #986008",
"aR c #404038",
"aS c #d09808",
"aT c #d89800",
"aU c #080800",
"aV c #905804",
"aW c #202020",
"aX c #d89008",
"aY c #b07800",
"aZ c #080004",
"a0 c #b07004",
"a1 c #c08808",
"a2 c #d0d0d0",
"a3 c #685004",
"a4 c #f0f0e8",
"a5 c #f0e8ec",
"a6 c #b07808",
"a7 c #f8d83c",
"a8 c #080808",
"a9 c #c4a474",
"b. c #d8a000",
"b# c #403824",
"ba c #482804",
"bb c #e0a800",
"bc c #382804",
"bd c #d8a008",
"be c #382004",
"bf c #c0c0c0",
"bg c #f8cc08",
"bh c #d09008",
"bi c #242418",
"bj c #886804",
"bk c #e8b000",
"bl c #e8d008",
"bm c #bc8c3c",
"bn c #c88808",
"bo c #e0a008",
"bp c #e8e8f0",
"bq c #a87808",
"br c #e8b008",
"bs c #c88008",
"bt c #e0a808",
"bu c #201c10",
"bv c #d89808",
"bw c #e0c004",
"bx c #80809c",
"by c #f0b010",
"bz c #a07804",
"bA c #f0e8d8",
"bB c #2c2404",
"bC c #885004",
"bD c #f8d808",
"bE c #b49804",
"bF c #484850",
"bG c #b8b8b8",
"bH c #f0b808",
"bI c #d8d8e8",
"bJ c #f0c008",
"bK c #f8b008",
"bL c #d8a808",
"bM c #282840",
"bN c #544404",
"bO c #b87808",
"bP c #c4b4a4",
"bQ c #d0a404",
"bR c #e8c008",
"bS c #c8c8c8",
"bT c #d8ac34",
"bU c #947404",
"bV c #f8a808",
"bW c #f0b810",
"bX c #f8b810",
"bY c #c0c0e0",
"b0 c #f8c008",
"b1 c #f0f0f0",
"b2 c #0000f8",
/* pixels */
"b2b2b2b2b2b2b2b2b2b2b2b2b2b2b2b2b2b2b2b2b2b2b2b2b2b2b2b2b2b2bZbZbZbZb2b2b2b2b2b2b2b2b2b2b2b2b2b2b2b2b2b2b2b2b2b2b2b2b2b2b2b2b2b2",
"b2b2b2b2b2b2b2b2b2b2b2b2b2b2b2b2b2b2b2b2b2b2b2b2b2b2b2bZbZbZbZbZbZbZbZbZbZbZb2b2b2b2b2b2b2b2b2b2b2b2b2b2b2b2b2b2b2b2b2b2b2b2b2b2",
"b2b2b2b2b2b2b2b2b2b2b2b2b2b2b2b2b2b2b2b2b2b2b2b2b2bZbZbZbZbZbZbZbZbZbZbZbZbZbZb2b2b2b2b2b2b2b2b2b2b2b2b2b2b2b2b2b2b2b2b2b2b2b2b2",
"b2b2b2b2b2b2b2b2b2b2b2b2b2b2b2b2b2b2b2b2b2b2b2b2bZbZbZbZbZbZbZbZbZbZbZaHbMaWbZbZbZb2b2b2b2b2b2b2b2b2b2b2b2b2b2b2b2b2b2b2b2b2b2b2",
"b2b2b2b2b2b2b2b2b2b2b2b2b2b2b2b2b2b2b2b2b2b2b2bZbZbZbZbZbZbZbZbZbZbZbZaj.M#w#Za8bZbZb2b2b2b2b2b2b2b2b2b2b2b2b2b2b2b2b2b2b2b2b2b2",
"b2b2b2b2b2b2b2b2b2b2b2b2b2b2b2b2b2b2b2b2b2b2bZbZbZbZbZbZbZbZbZbZbZbZbZaj.9.9#Ea#bZbZb2b2b2b2b2b2b2b2b2b2b2b2b2b2b2b2b2b2b2b2b2b2",
"b2b2b2b2b2b2b2b2b2b2b2b2b2b2b2b2b2b2b2b2b2b2bZbZbZbZbZbZbZbZbZbZbZbZbZaW#l#ZajaHbZbZ.bb2b2b2b2b2b2b2b2b2b2b2b2b2b2b2b2b2b2b2b2b2",
"b2b2b2b2b2b2b2b2b2b2b2b2b2b2b2b2b2b2b2b2b2b2bZbZbZbZbZbZbZbZbZbZbZbZbZaHaHbZbZbZbZbZbZb2b2b2b2b2b2b2b2b2b2b2b2b2b2b2b2b2b2b2b2b2",
"b2b2b2b2b2b2b2b2b2b2b2b2b2b2b2b2b2b2b2b2b2b2bZbZbZbZbZbZbZbZbZbZbZbZbZbZbZbZbZbZbZbZbZbZb2b2b2b2b2b2b2b2b2b2b2b2b2b2b2b2b2b2b2b2",
"b2b2b2b2b2b2b2b2b2b2b2b2b2b2b2b2b2b2b2b2b2bZbZbZbZbZbZbZbZbZbZbZbZbZbZa8bZbZbZbZbZbZbZbZb2b2b2b2b2b2b2b2b2b2b2b2b2b2b2b2b2b2b2b2",
"b2b2b2b2b2b2b2b2b2b2b2b2b2b2b2b2b2b2b2b2b2bZbZbZaHa8aWaWbZbZbZbZa8bZbZbZbZ.9bZbZbZbZbZbZb2b2b2b2b2b2b2b2b2b2b2b2b2b2b2b2b2b2b2b2",
"b2b2b2b2b2b2b2b2b2b2b2b2b2b2b2b2b2b2b2b2b2bZbZbZaH#v#0aHajbZbZa8bZab#v.1.TbZ.zbZbZbZbZbZb2b2b2b2b2b2b2b2b2b2b2b2b2b2b2b2b2b2b2b2",
"b2b2b2b2b2b2b2b2b2b2b2b2b2b2b2b2b2b2b2b2b2bZbZa8aLbS#y#0ajbZbZbZ#j.TbGbSaq.1bZaHbZbZbZbZb2b2b2b2b2b2b2b2b2b2b2b2b2b2b2b2b2b2b2b2",
"b2b2b2b2b2b2b2b2b2b2b2b2b2b2b2b2b2b2b2b2b2bZbZ.zbfb3b3b3bZbZbZbZaqb3b3b3b3bG#jbZbZbZbZbZbZb2b2b2b2b2b2b2b2b2b2b2b2b2b2b2b2b2b2b2",
"b2b2b2b2b2b2b2b2b2b2b2b2b2b2b2b2b2b2b2b2b2bZbZ#YaHa8a#b3.9bZaHbZa4b3bZ#Ya8b3b3bZbZbZbZbZbZb2b2b2b2b2b2b2b2b2b2b2b2b2b2b2b2b2b2b2",
"b2b2b2b2b2b2b2b2b2b2b2b2b2b2b2b2b2b2b2b2b2b2bZa2bZbZ#jb3.9aW.7bZb3bZbZbZ#Eb3b3bZbZbZbZbZbZb2b2b2b2b2b2b2b2b2b2b2b2b2b2b2b2b2b2b2",
"b2b2b2b2b2b2b2b2b2b2b2b2b2b2b2b2b2b2b2b2b2b2bZbSajbZ#Yan.7.bbZa8bSbZbZbZbZbfb3bZbZbZbZbZbZb2b2b2b2b2b2b2b2b2b2b2b2b2b2b2b2b2b2b2",
"b2b2b2b2b2b2b2b2b2b2b2b2b2b2b2b2b2b2b2b2b2b2bZbZb3bZbZbyb0#J#4.ubL#pbZbZbZb3b3bZbZbZbZbZbZb2b2b2b2b2b2b2b2b2b2b2b2b2b2b2b2b2b2b2",
"b2b2b2b2b2b2b2b2b2b2b2b2b2b2b2b2b2b2b2b2b2b2bZbZb3bZa6bWb0.##haP.G#oaD.Wb3b3bZbZbZbZbZbZbZb2b2b2b2b2b2b2b2b2b2b2b2b2b2b2b2b2b2b2",
"b2b2b2b2b2b2b2b2b2b2b2b2b2b2b2b2b2b2b2b2b2b2bZbZ.bbn#rb0.xblak.d.d.d#h#haxbL#pbZbZbZbZbZbZb2b2b2b2b2b2b2b2b2b2b2b2b2b2b2b2b2b2b2",
"b2b2b2b2b2b2b2b2b2b2b2b2b2b2b2b2b2b2b2b2b2b2bZbc.AbobHbWbJat#h.d.d.G.G#h#h.G#obZbZbZbZbZbZb2b2b2b2b2b2b2b2b2b2b2b2b2b2b2b2b2b2b2",
"b2b2b2b2b2b2b2b2b2b2b2b2b2b2b2b2b2b2b2b2b2b2bZa6bnbobJbJ.f.f.G.d.G#h#h#hbEaS.LbZbZbZbZbZbZb2b2b2b2b2b2b2b2b2b2b2b2b2b2b2b2b2b2b2",
"b2b2b2b2b2b2b2b2b2b2b2b2b2b2b2b2b2b2b2b2b2b2bZayaDbtb0b0bg.Gam#h#h.G.saS#7bdbTbZbZbZbZbZbZbZb2b2b2b2b2b2b2b2b2b2b2b2b2b2b2b2b2b2",
"b2b2b2b2b2b2b2b2b2b2b2b2b2b2b2b2b2b2b2b2b2b2bZbZ.p.ab0.#.8.d#h.G.h#xaSbtbt.Q.0bZbZ#0#wbZbZbZb2b2b2b2b2b2b2b2b2b2b2b2b2b2b2b2b2b2",
"b2b2b2b2b2b2b2b2b2b2b2b2b2b2b2b2b2b2b2b2b2b2bZbibSad.cbzbU.I.4albvbvbv#8a9#1bfbZbZbZ#0#0bZaZbZb2b2b2b2b2b2b2b2b2b2b2b2b2b2b2b2b2",
"b2b2b2b2b2b2b2b2b2b2b2b2b2b2b2b2b2b2b2b2b2b2bZbZbGbGaQ..bdazbvbv.Q.Q.1bSbfa2bfbSbZbZ#0#0bZbZbZb2b2b2b2b2b2b2b2b2b2b2b2b2b2b2b2b2",
"b2b2b2b2b2b2b2b2b2b2b2b2b2b2b2b2b2b2b2b2b2b2bZbZbfbfaLad#QaQaQaQa6bGbSbfb3b3b3a2bZbZbZbZbZbZbZaHb2b2b2b2b2b2b2b2b2b2b2b2b2b2b2b2",
"b2b2b2b2b2b2b2b2b2b2b2b2b2b2b2b2b2b2b2b2b2bZbZbZb1a2bfbGaLaLbSbGbfbYa2b1b3b3b3b3.7bZbZbZbZbZbZbZb2b2b2b2b2b2b2b2b2b2b2b2b2b2b2b2",
"b2b2b2b2b2b2b2b2b2b2b2b2b2b2b2b2b2b2b2b2ajaHbZaLb3b3bGbGbGbGbGbSbSaFb3b3b3b3b3b3b3bZbZbZbZbZbZbZaHb2b2b2b2b2b2b2b2b2b2b2b2b2b2b2",
"b2b2b2b2b2b2b2b2b2b2b2b2b2b2b2b2b2b2b2b2bZa8bZb3b3b3b3bGbGbSbfa2b3b3b3b3b3b3b3b3b3#jbZbZbZbZbZbZbZbZb2b2b2b2b2b2b2b2b2b2b2b2b2b2",
"b2b2b2b2b2b2b2b2b2b2b2b2b2b2b2b2b2b2b2bZbZbZb3b3b3b3b3b3aqaqb1b3b3b3b3b3b3b3b3b3b3b3bZbZbZbZbZbZbZbZb2b2b2b2b2b2b2b2b2b2b2b2b2b2",
"b2b2b2b2b2b2b2b2b2b2b2b2b2b2b2b2b2b2bZbZbZbfb3b3b3b3b3b3b3b3b3b3b3b3b3b3b3b3b3b3b3b3aWbZbZbZbZbZbZbZbZb2b2b2b2b2b2b2b2b2b2b2b2b2",
"b2b2b2b2b2b2b2b2b2b2b2b2b2b2b2b2b2bZbZbZbZb1b3b3b3b3b3b3b3b3b3b3b3b3b3b3b3b3b3b3b3b3#0bZbZbZbZbZbZbZbZbZb2b2b2b2b2b2b2b2b2b2b2b2",
"b2b2b2b2b2b2b2b2b2b2b2b2b2b2b2b2b2bZbZbZ#Cb1b3b3b3b3b3b3b3b3b3b3b3b3b3b3b3b3b3b3b1b3b1bZbZbZbZbZbZbZbZbZbZb2b2b2b2b2b2b2b2b2b2b2",
"b2b2b2b2b2b2b2b2b2b2b2b2b2b2b2b2bZbZbZbZ.1bfb1b3b3b3b3ananaFb1b3b3b3b3b1b1anaFaqa2aqb3bZbZbZbZbZbZbZbZbZbZb2b2b2b2b2b2b2b2b2b2b2",
"b2b2b2b2b2b2b2b2b2b2b2b2b2b2b2bZbZbZbZbZ.1.Ya2aFb3b3b3b3aFb3b3b3b3b3b3b1aqbSbfbfbfbfa2b3bZbZaHbZbZbZbZbZbZbZb2b2b2b2b2b2b2b2b2b2",
"b2b2b2b2b2b2b2b2b2b2b2b2b2b2b2bZbZbZbZaB#yanb3b3b3b3b3b3b1b3b3b3b3b3b3b3b3b3b3aFa2bSbSb3bZbZbZ#ZaHbZbZbZbZbZbZb2b2b2b2b2b2b2b2b2",
"b2b2b2b2b2b2b2b2b2b2b2b2b2b2bZbZbZbMbZ#yb1b3b3b3b3b3b3b3b3b3b3b3b3b3b3b3b3b3b3b3b3b1a2bfb3bZbZbZ#la8bZbZbZbZbZb2b2b2b2b2b2b2b2b2",
"b2b2b2b2b2b2b2b2b2b2b2b2b2b2bZbZ#lbZbZb1b3b3b3b3b3b3b3b3b3b3b3b3b3b3b3b3b3b3b3b3b3b3b3a2aqbZbZbZbZ#RbZbZbZbZbZbZb2b2b2b2b2b2b2b2",
"b2b2b2b2b2b2b2b2b2b2b2b2b2b2bZbZbZbZb3b3b3b3b3b3b3b3b3b3b3b3b3b3b3b3b3b3b3b3b3b3b3b3b3b3bSb3bZaH#RaHa#bZbZbZbZbZb2b2b2b2b2b2b2b2",
"b2b2b2b2b2b2b2b2b2b2b2b2b2bZbZ#UbZbZb3b3b3b3b3b3b3b3b3b3b3b3b3b3b3b3b3b3b3b3b3b3b3b3b3b3b3b3aHaW#Ua#bMbZbZbZbZbZb2b2b2b2b2b2b2b2",
"b2b2b2b2b2b2b2b2b2b2b2b2b2bZbZbZbZb3b3b3b3b3b3b3b3b3b3b3b3b3b3b3b3b3b3b3b3b3b3b3b3b3b3b3b3b3#Eajaja8bZ#lbZbZbZbZbZb2b2b2b2b2b2b2",
"b2b2b2b2b2b2b2b2b2b2b2b2bZbZ#RbZbZb3b3b3b3b3b3b3b3b3b3b1b3b3b3b3b3b3b3b3b3b3b3b3b3b3b3b3b3b3b3bZbZbZbZ#UbZbZbZbZbZb2b2b2b2b2b2b2",
"b2b2b2b2b2b2b2b2b2b2b2b2bZaZbZbZb1b3b3b3b3b3b3b3b3b3b1b3b3b3b3b3b3b3b3b3b3b3b3b3b3b3b3b3b3b3b3bZbZbZbZbZbZbZbZbZbZb2b2b2b2b2b2b2",
"b2b2b2b2b2b2b2b2b2b2b2b2bZa8bZbZb3b3b3b3b3b3b3b3b3b3anb3b3b3b3b3b3b3b3b3b3b3b3b3b3b3b3b3b3b3b3bZbZbZbZbZbZbZbZbZbZbZb2b2b2b2b2b2",
"b2b2b2b2b2b2b2b2b2b2b2bZbZ#RbZbZb3b3b3b3b3b3b3b3b3b3aFb3b3b3b3b3b3b3b3b3b3b3b3b3b3b3b3b3b3b3b3bZbZbZbZaWbZbZbZbZbZbZb2b2b2b2b2b2",
"b2b2b2b2b2b2b2b2b2b2b2bZbZ#UbZ#Eb3b3b3b3b3b3b3b3b3b3aqb3b3b3b3b3b3b3b3b3b3b3b3b3b3b3b3b3b3b3b3bZbZbZbZ#lbZbZbZbZbZbZb2b2b2b2b2b2",
"b2b2b2b2b2b2b2b2b2b2bZbZbZ#0bZbfb3b3b3b3b3b3b3b3b3b3aqb3b3b3b3b3b3b3b3b3b3b3b3b3b3b3b3b3b3b3b3bZbZbZbZ#3bZbZbZbZbZbZb2b2b2b2b2b2",
"b2b2b2b2b2b2b2b2b2bZbZbZbZ.PbZbfb3b3b3b3b3b3b3b3b3b3aqb3b3b3b3b3b3b3b3b3b3b3b3b3b3b3b3b3b3b3b3bZbZbZbZaWbZbZbZbZbZbZb2b2b2b2b2b2",
"b2b2b2b2b2b2b2b2b2bZbZbZa##UbZbfb3b3b3b3b3b3b3b3b3b3aqb3b3b3b3b3b3b3b3b3b3b3b3b3b3b3b3b3b3b3b3bZbZbZaHbZbZbZbZbZbZbZb2b2b2b2b2b2",
"b2b2b2b2b2b2b2b2b2bZbZbZbZaHbZbSb3b3b3b3b3b3b3b3b3b3aqb3b3b3b3b3b3b3b3b3b3b3b3b3b3b3b3b3b3b3b3bZbZbZ#RbZbZbZbZbZbZbZb2b2b2b2b2b2",
"b2b2b2b2b2b2b2b2b2bZbZbXbZbZ.zbSb3b3b3b3b3b3b3b3b3b3aqb3b3b3b3b3b3b3b3b3b3b3b3b3b3b3b3b3b3b3b3bZa#bZbZbZa8#Z#ZbZbZbZb2b2b2b2b2b2",
"b2b2b2b2b2b2b2b2b2b2bXb0bXb0bZ.Tb3b3b3b3b3b3b3b3b3b3aqb3b3b3b3b3b3b3b3b3b3b3b3b3b3b3b3b3b3b3b3aWbZbZbZbZbZbZbZ.MbZbZb2b2b2b2b2b2",
"b2b2b2b2b2b2b2b2b2azb0.#b0.#bJbZ#lb3b3b3b3b3b3b3b3b3aqb3b3b3b3b3b3b3b3b3b3b3b3b3b3b3b3b3#h.G#o.JbZbZbZbZbZbZbZa#bZb2b2b2b2b2b2b2",
"b2b2b2b2b2b2b2b2.maz.x#o.#b0.x.LbZa#b3b3b3b3b3b3b3b3aFb3b3b3b3b3b3b3b3b3b3b3b3b3b3b3b3azb0#h#h.HbZbZbZbZbZbZajaH.G#h#ob2b2b2b2b2",
"b2b2b2b2b2b2b2b2asbobybXb0bXbXb0btbZaHbfb3b3b3b3b3b3b3b3b3b3b3b3b3b3b3b3b3b3b3b3b3b3b3bm.#bXat.JbZbZbZbZbZbZbZ.B#h#h.Gb2b2b2b2b2",
"b2b2b2b2b2b2a6bnaz.L.#.#bobXb0b0b0bZbZbZa2b3b3b3b3b3b3b3b3b3b3b3b3b3b3b3b3b3b3b3b3b3aFbmbobJazarbZbZbZbZbZbZbU.LbJb0bVb2b2b2b2b2",
"b2b2b2b2.Aa6#8bd#rbWbX#o.#.#.#bob0aPbZbZbZaFb3b3b3b3b3b3b3b3b3b3b3b3b3b3b3b3b3b3b3aqbSbmbobHbvaOarbebZbZbBaraibrbHb0bXb2b2b2b2b2",
"b2au#rby#r.L.L.LbWb0bob0.#bX.xb0b0bRa8bZbZbZ#Rb3b3b3b3b3b3b3b3b3b3b3b3b3b3b3b3b3b3a2bfa9bo#Jbobh#MbOa6a6aCaD#ObWbXbX.#b2b2b2b2b2",
"b2azaPbybWbWbXbXbWb0b0bX#z.x.#bX.xbJbtbZbZbZbZbZb3b3b3b3b3b3b3b3b3b3b3b3b3b3b3b3b3a2bSbmbdbrbtb.aSbhaDaDaSbtb0bobob0.#.xb2b2b2b2",
"b2btb0b0b0bo.x.##z#z.#.#.#.#.xb0.xbWax.wbZbZbZbZ#Eb3b3b3b3b3b3b3b3b3b3b3b3b3b3b3b3anbS.Ha1#Tbb#SbtbdbdbobtbH.xbX.x.#bobX.xb2b2b2",
"b2bTbWbob0.#bo.#b0#zbXbo#zbobobo.xbXb0#JbZbZbZbZbZb3b3b3b3b3b3b3b3b3b3b3b3b3b3b3b3b3bSaM.Bbd#T#Jbr.LbrbrbWbHb0b0b0b0bXb0b0b0b2b2",
"b2#9.Lb0bo.#bobobo.#bobo.#.xbobob0b0b0.##rbZbZbZ.Mb3b3b3b3b3b3b3b3b3b3b3b3b3b3b3b3b3bSada1b.bHbHbXbHbHb0bJb0b0.#bob0b0bX.#b0#ob2",
"b2.m#rb0b0bobX.x#z.#.x.#.xbo.xbo.#bXb0bJ.uaza#anb3b3b3b3b3b3b3b3b3b3b3b3b3b3b3b3b3a8bZ#QaibobHb0b0.#bo.x.xb0.xb0b0bo.x.x.#.xbobX",
"b2#8.obX.#bXbo.#bX#o.#.x.xb0b0.#.#bobobWbR#Oaub3b3b3b3b3b3b3b3b3b3b3b3b3b3b3b3b3bZbZbZaeaibtbWb0.#b0.#b0b0.##obXbXbXbX#zbob0#o.x",
"b2aIbobXbob0b0.xb0#obo.xbo.xbob0b0bXb0bW#J#daDb3b3b3b3b3b3b3b3b3b3b3b3b3b3b3b3bZbZbZbZadaSbtbWb0.x#z.xbX#z.#.x#z.x.#.xbX#o.xbXaI",
"b2aIbtb0bobo.x.r.#b0b0.#.#.#bob0.#b0.#b0#JaPaS#Gb3b3b3b3b3b3b3b3b3b3b3b3b3bZbZbZbZbZ#p#tbhbtbH.#.#b0bXbXbob0b0bXb0bX#zbXbXbXazb2",
"b2azbtbWbX.#bXb0#o.xb0b0bo.#bXbXb0.xb0bJbH#O#9#m.3b1b3b3b3b3b3b3b3b3#jbZbZbZbZbZbZbZ.v#maSbtbW.#b0b0bXb0bo.x.xbX.#b0bX.#boazb2b2",
"azbvazbtbrbr.LbWbXbXb0b0b0.#.#.xbXbobobXb0.L#9aOaJbZbZbZbZbZbZbZbZbZbZbZbZbZbZbZbZbZ.FagaSbtb0.#bX.#bX.#.#bobob0bX.razazb2b2b2b2",
"b2bh.mbhaz#9bdbtbt#Tbr#JbXb0bXbo.##z.#bXbXbtaDar#6bZbZbZbZbZbZbZbZbZbZbZbZbZbZbZbZbZ.cawaDb.#JbXb0.xb0bXbXbWby#raI.Ab2b2b2b2b2b2",
"b2adaQ.AbOa1bnaDbhbhaSbdbobtbW.#.##zbXby#TaSbOao#GbZbZbZbZbZbZbZbZbZbZbZbZbZbZbZbZbZ.F#H#MaNbtbrbWbWbr#Tbtbd.m.Qb2b2b2b2b2b2b2b2",
"b2b2b2b2b2#Qaoa6a6a6bOaOa1bnaSbtbt#ObtbdaDaOao.V.nbZbZbZbZbZbZbZbZbZbZbZbZbZbZbZbZbZbebCa6#MaDbvbdbdbdaSala6#Qb2b2b2b2b2b2b2b2b2",
"b2b2b2b2b2b2b2b2b2#Gad#Paoaoa6aOa1aDa1aOa6ao.p.ObBbZb2b2b2b2b2b2b2b2b2b2b2b2b2b2b2b2.3#xaoa0aOa1aD#5ala6#maKb2b2b2b2b2b2b2b2b2b2",
"b2b2b2b2b2b2b2b2b2b2b2b2b2#uaV#Paoar#maoad.Z.OaKb2b2b2b2b2b2b2b2b2b2b2b2b2b2b2b2b2b2b2.n.V#2ara6aYa6aoae#fb2b2b2b2b2b2b2b2b2b2b2",
"b2b2b2b2b2b2b2b2b2b2b2b2b2b2b2.3#u#G#V.6#x#F.3b2b2b2b2b2b2b2b2b2b2b2b2b2b2b2b2b2b2b2b2.3.F.O.Zadae.V#FaKb2b2b2b2b2b2b2b2b2b2b2b2"
};
