/* XPM */
static char * image_name[] = {
"120 94 17 1",
" 	c None",
".	c #FFFFFF",
"+	c #FAFAFA",
"@	c #F3F3F3",
"#	c #E6E6E6",
"$	c #CFCFCF",
"%	c #B4B4B4",
"&	c #989898",
"*	c #888888",
"=	c #797979",
"-	c #696969",
";	c #535353",
">	c #353535",
",	c #191919",
"'	c #0C0C0C",
")	c #050505",
"!	c #000000",
"                                                                                                 #                      ",
"                                                                                                 #                      ",
"                                                                                              $,,)!!;                   ",
"                                                                                            ##'))!!!!;;                 ",
"                                                                                            ##'))!!!!;;                 ",
"                                                                                            **!!!!!!!!!$$               ",
"                                                                                            ;;!!!!!!!))%%               ",
"                                                                                            ;;!!!!!!!))%%               ",
"                                                                        ##*;;!''=           &&!!!!!!!))##               ",
"                                                                        ##*;;!''=           &&!!!!!!!))##               ",
"                                                                     ##-!!!!!!!!)%%           >!!!!!!**                 ",
"                                                                    %''!!!!!!!!!!&&            ==>;;%                   ",
"                                                                    %''!!!!!!!!!!&&            ==>;;%                   ",
"                                                                  %%)!!!!!!!!!!!,##                                     ",
"                                                                 %!!!!!!!!!!!>**                                        ",
"                                                                 %!!!!!!!!!!!>**                                        ",
"                                                               ##,!!!!!!!!>%%                                           ",
"           #%%--->;;=&&##                              $$*--;-->>!!!!!!!;;                                              ",
"           #%%--->;;=&&##                              $$*--;-->>!!!!!!!;;                                              ",
"        $;;)!!!!!!!!!!!));$$                        **,!!!!!!!!!!!!!!!!;              %%-------------==   $$-,,=--*  -==",
"      &&'))!!!!!!!!!!!!!!!!!;                    $$,!!!!!!!!!!!!!!!!!!!-              **!!!!!!!!!!!!!,,      ;; ;;-  ;==",
"      &&'))!!!!!!!!!!!!!!!!!;                    $$,!!!!!!!!!!!!!!!!!!!-              **!!!!!!!!!!!!!,,      ;; ;;-  ;==",
"     *!!!!!!!!!!!!!!!!!!!!!!)>>                 &!!!!!!!!!!!!!!!!!!!!!!!>>            **!!!!!!!!!!!!!,,      -- --&==&==",
"   $$!!!!!!!!!!!!!!!!!!!!!!!!!!-              %%!!!!!!!!!!!!!!!!!!!!!!!!))>           **!!!!!!!!!!!!!,,      ;; ;; >>#**",
"   $$!!!!!!!!!!!!!!!!!!!!!!!!!!-              %%!!!!!!!!!!!!!!!!!!!!!!!!))>           **!!!!!!!!!!!!!,,      ;; ;; >>#**",
"   >>!!!!!!!)),--&&&;,,!!!!!!!!!$$           $))!!!!!!!!!>==&&&;;'!!!!!!!!)**         **!!!!!!!!!!!!!,,      ** **   #&&",
" $$!!!!!!!!!&&         ;;!!!!!!!%%           >!!!!!!!!,&&         ;;!!!!!!!))$        ##$$$$&&!!!!!!!,,                 ",
" $$!!!!!!!!!&&         ;;!!!!!!!%%           >!!!!!!!!,&&         ;;!!!!!!!))$        ##$$$$&&!!!!!!!,,                 ",
" **!!!!!!!!=             *))!!!)##         %%)!!!!!!))$             ;!!!!!!!!-              %%!!!!!!!,,                 ",
" **!!!!!!!!=             *))!!!)##         %%)!!!!!!))$             ;!!!!!!!!-              %%!!!!!!!,,                 ",
" --!!!!!!!!#              %%;;;%           --!!!!!!!==              #))!!!!!!'              %%!!!!!!!,,                 ",
" ;;!!!!!!))                                ,,!!!!!!)$$               ;;!!!!!!!%%            %%!!!!!!!,,                 ",
" ;;!!!!!!))                                ,,!!!!!!)$$               ;;!!!!!!!%%            %%!!!!!!!,,                 ",
" ==!!!!!!!!#                               !!!!!!!!)                 --!!!!!!!**            %%)!!!!!!,,                 ",
" **!!!!!!!!=                             $$!!!!!!!!,                 **!!!!!!!==            %%!!!!!!!,,                 ",
" **!!!!!!!!=                             $$!!!!!!!!,                 **!!!!!!!==            %%!!!!!!!,,                 ",
" $$!!!!!!!!!&&                           $$!!!!!!!!,                 **!!!!!!!;;            %%!!!!!!!,,                 ",
"   ,,!!!!!!!!!>%%                        $$!!!!!!!!,                 **!!!!!!!--            %%!!!!!!!,,                 ",
"   ,,!!!!!!!!!>%%                        $$!!!!!!!!,                 **!!!!!!!--            %%!!!!!!!,,                 ",
"   %%!!!!!!!!!!!!'--%                    $$!!!!!!!!,                 **)!!!!!!;;            %%)!!!!!!,,                 ",
"     -!!!!!!!!!!!!!!!'';;$               $$!!!!!!!!,                 **!!!!!!!--            %%)!!!!!!,,                 ",
"     -!!!!!!!!!!!!!!!'';;$               $$!!!!!!!!,                 **!!!!!!!--            %%)!!!!!!,,                 ",
"      --!!!!!!!!!!!!!!!!!!;;$            $$!!!!!!!!,                 **!!!!!!!--            %%!!!!!!!,,                 ",
"        %,,!!!!!!!!!!!!!!!!!)%%          ##!!!!!!!!'                 ==!!!!!!!**            %%!!!!!!!,,                 ",
"        %,,!!!!!!!!!!!!!!!!!)%%          ##!!!!!!!!'                 ==!!!!!!!**            %%!!!!!!!,,                 ",
"           %;;!!!!!!!!!!!!!!!!!&           ))!!!!!!!##               ;;!!!!!!!%%            %%)!!!!!!,,                 ",
"              $==>!!!!!!!!!!!!!)$$         >>)!!!!!!&&              #''!!!!!!!##            %%)!!!!!!,,                 ",
"              $==>!!!!!!!!!!!!!)$$         >>)!!!!!!&&              #''!!!!!!!##            %%)!!!!!!,,                 ",
"                  ##*,,!!!!!!!!)>>         &&!!!!!!!''#             ;!!!!!!))>              %%!!!!!!!,,                 ",
"                  ##*,,!!!!!!!!)>>         &&!!!!!!!''#             ;!!!!!!))>              %%!!!!!!!,,                 ",
"                       ==!!!!!!!))$          ,!!!!!!!!>$$         --!!!!!!!!!%              %%!!!!!!!,,                 ",
"                         ;!!!!!!!!*          &!!!!!!!!!))-%%$%%=='!!!!!!!!!;;               %%)!!!!!!,,                 ",
"                         ;!!!!!!!!*          &!!!!!!!!!))-%%$%%=='!!!!!!!!!;;               %%)!!!!!!,,                 ",
"                         $))!!!!!!;           --!!!!!!!!!!!!!!!!!)!!!!!!!!,                 %%)!!!!!!,,                 ",
"                          ''!!!!))>           ==!!!!!!!!!!!!!!!!!!!!!!!),,$                 %%!!!!!!!,,                 ",
"                          ''!!!!))>           ==!!!!!!!!!!!!!!!!!!!!!!!),,$                 %%!!!!!!!,,                 ",
"     *,,%                 ,,!!!!!!>           ,,!!!!!!!!!!!!!!!!!!!!!))>##                  %%!!!!!!!,,                 ",
"$--))!))>                #!!!!!!!!;          %))!!!!!!!!!!!!!!!!!!!!,&&                     $$!!!!!!!''                 ",
"$--))!))>                #!!!!!!!!;          %))!!!!!!!!!!!!!!!!!!!!,&&                     $$!!!!!!!''                 ",
";!!!!!!!)==              &!!!!!!!!-          -!!!!!!--$==>>>!,,>>-%%                        ##!!!!!!!!!$$               ",
"%!!!!!!!!))%           $$)!!!!!!))%          '!!!!!!%%                                        ,!!!!!!!!;;               ",
"%!!!!!!!!))%           $$)!!!!!!))%          '!!!!!!%%                                        ,!!!!!!!!;;               ",
" >>!!!!!!!!!==      #--!!!!!!!!),,         %%!!!!!!,                                          ;!!!!!!!!!!;$$            ",
" $$!!!!!!!!!!!!>>>,,!))!!!!!!!!!%%         ;;!!!!!!-                                          $))!!!!!!!!!))=           ",
" $$!!!!!!!!!!!!>>>,,!))!!!!!!!!!%%         ;;!!!!!!-                                          $))!!!!!!!!!))=           ",
"   &&!!!!!!!!!!!!!!!!!!!!!!!!!!-         ##!!!!!!!!$                                           --!!!!!!!!!!!!%%         ",
"     &!!!!!!!!!!!!!!!!!!!!!!!--          &&!!!!!!''&&&&&&&&&&&&&&&&&%$$                          ;!!!!!!!!!!!--         ",
"     &!!!!!!!!!!!!!!!!!!!!!!!--          &&!!!!!!''&&&&&&&&&&&&&&&&&%$$                          ;!!!!!!!!!!!--         ",
"      %%>!!!!!!!!!!!!!!!!!''%            ;;!!!!!!!!!!!!!!!!!!!!!!!!!)!!'--$                       ==)!!!!!!!!&&         ",
"      %%>!!!!!!!!!!!!!!!!!''%            ;;!!!!!!!!!!!!!!!!!!!!!!!!!)!!'--$                       ==)!!!!!!!!&&         ",
"         &&>!!!!!!!!!!!>>*               >>))!!!!!!!!!!!!!!!!!!!!!!!!!!!!!!==                       $**;;,,,-           ",
"            ##%&&&&&%##                  &&))!!!!!!!!!!!!!!!!!!!!!!!!!!!!!!!!;                                          ",
"            ##%&&&&&%##                  &&))!!!!!!!!!!!!!!!!!!!!!!!!!!!!!!!!;                                          ",
"                                           &&;>>>>>,!!!!!!!!!!!>>>,,!!!!!!!!!)&&                                        ",
"                                                   ,!!!!!!''%       #==!!!!!!),,                                        ",
"                                                   ,!!!!!!''%       #==!!!!!!),,                                        ",
"                                                 **!!!!!!)$$           &!!!!!!!!$                                       ",
"                                                 >>!!!!!!=              >>!!!!!!=                                       ",
"                                                 >>!!!!!!=              >>!!!!!!=                                       ",
"                                                 ))!!!!!!%              --!!!!!!-                                       ",
"                                                 ))!!!!!!%              --!!!!!!-                                       ",
"                                                 ))!!!!!!%              --!!!!!!-                                       ",
"                                                 ,,)!!!!!-              >>!!!!!!*                                       ",
"                                                 ;;!!!!!!'##           *!!!!!!!!%                                       ",
"                                                 ;;!!!!!!'##           *!!!!!!!!%                                       ",
"                                                 %%!!!!!!!''&##     #--!!!!!!!,,                                        ",
"                                                   >!!!!!!!!)))!!!!!!!!!!!!!!!&&                                        ",
"                                                   >!!!!!!!!)))!!!!!!!!!!!!!!!&&                                        ",
"                                                   $,,!!!!!!!!!!!!!!!!!!!!!!!;                                          ",
"                                                    $$>!!!!!!!!!!!!!!!!!!!!--                                           ",
"                                                    $$>!!!!!!!!!!!!!!!!!!!!--                                           ",
"                                                       &&>!!!!!!!!!!!!!';;$                                             ",
"                                                       &&>!!!!!!!!!!!!!';;$                                             ",
"                                                            $$$$$$$$$$$                                                 "};
