/* XPM */
static char * image_name[] = {
/* width height ncolors cpp */
"100 48 3 1",
/* colors */
" 	c Black",
".	c Red",
"X	c SteelBlue",
/* pixels */
"                                                                                                    ",
"                                                                                                    ",
"  ...................                                  .....                                        ",
"   ...................                                .....                                         ",
"    ...................                              .....                                          ",
"     ...................                            .....                                           ",
"      ...................                          .....                                            ",
"       ...................                        .....                                             ",
"        ...................                      .....                        XXXXXXXXXX            ",
"         ...................                    .....                       XXXXXXXXXXXXXX          ",
"          ...................                  .....                      XXXXXXXXXXXXXXXXXX        ",
"           ...................                .....                       XXXXXXXXXXXXXXXXXX        ",
"            ...................              .....                       XXXXXXXXXXXXXXXXXXXX       ",
"             ...................            .....                        XXXXXXXXXXXXXXXXXXXX       ",
"              ...................          .....                        XXXXXXXXX    XXXXXXXXX      ",
"               ...................        .....                         XXXXXXXX      XXXXXXXX      ",
"                ...................      .....                          XXXXXXX        XXXXXXX      ",
"                 ...................    .....                           XXXXXX          XXXXXX      ",
"                  ..................   .....                            XXXXXX          XXXXXX      ",
"                   ................   .....                             XXXXXX          XXXXXX      ",
"                    ..............   .....                              XXXXXX          XXXXXX      ",
"                     ............   .....                               XXXXXX          XXXXXX      ",
"                      ..........   ......                               XXXXXX          XXXXXX      ",
"                       ........   ........                                                          ",
"                        ......   ..........                         XXXXXXXXXXXXXXXXXXXXXXXXXXXXXX  ",
"                        .....   ............                        XXXXXXXXXXXXXXXXXXXXXXXXXXXXXX  ",
"                       .....   ..............                       XXXXXXXXXXXXXXXXXXXXXXXXXXXXXX  ",
"                      .....   ................                      XXXXXXXXXXXXXXXXXXXXXXXXXXXXXX  ",
"                     .....   ..................                     XXXXXXXXXX  XXXXXX  XXXXXXXXXX  ",
"                    .....    ...................                    XXXXXXXXXX  XXXXXX  XXXXXXXXXX  ",
"                   .....      ...................                   XXXX  XXXX          XXXX  XXXX  ",
"                  .....        ...................                  XXXX  XXXX          XXXX  XXXX  ",
"                 .....          ...................                 XXXX  XXXX  XXXXXX  XXXX  XXXX  ",
"                .....            ...................                XXXX  XXXX  XXXXXX  XXXX  XXXX  ",
"               .....              ...................               XXXX  XXXX          XXXX  XXXX  ",
"              .....                ...................              XXXX  XXXX          XXXX  XXXX  ",
"             .....                  ...................             XXXX  XXXX  XXXXXX  XXXX  XXXX  ",
"            .....                    ...................            XXXX  XXXX  XXXXXX  XXXX  XXXX  ",
"           .....                      ...................           XXXX  XXXX          XXXX  XXXX  ",
"          .....                        ...................          XXXX  XXXX          XXXX  XXXX  ",
"         .....                          ...................         XXXX  XXXX  XXXXXX  XXXX  XXXX  ",
"        .....                            ...................        XXXX  XXXX  XXXXXX  XXXX  XXXX  ",
"       .....                              ...................       XXXXXXXXXXXXXXXXXXXXXXXXXXXXXX  ",
"      .....                                ...................      XXXXXXXXXXXXXXXXXXXXXXXXXXXXXX  ",
"     .....                                  ...................     XXXXXXXXXXXXXXXXXXXXXXXXXXXXXX  ",
"    .....                                    ...................    XXXXXXXXXXXXXXXXXXXXXXXXXXXXXX  ",
"                                                                                                    ",
"                                                                                                    "};
