/* XPM */
static char *image_name[] = {
/* width height num_colors chars_per_pixel */
"    64    64        5            1",
/* colors */
"b c #000000",
"g c #00ff00",
"d c #008000",
"w c #c0c0c0",
"  c None",
/* pixels */
"                                                                ",
"                                                                ",
"                                                                ",
"                                                                ",
"                                                                ",
"             wwwwwwwwwwwwwwwwwwwwwwwwwwwwww                     ",
"             wbbbbbbbbbbbbbbbbbbbbbbbbbbbbw                     ",
"         wwwwwbbbbbbbbbbbbbbbbbbbbbbbbbbbbwwwwwwwww             ",
"         wbbbbbbbbbbbbbbbbbbbbbbbbbbbbbbbbbbbbbbbbw             ",
"       wwwbbbbbbbbbbbbbbbbbbbbbbbbbbbbbbbbbbbbbbbbwwwwwww       ",
"       wbbbbbbbbbbbbbbbbbbbbbbbbbbbbbbbbbbbbbbbbbbbbbbbbw       ",
"       wbbbbbbbbbbbbbbbbbbbbbbbbbbbbbbbbbbbbbbbbbbbbbbbbw       ",
"       wbbbbbbbbbbbbbbbbbbbbbbbbbbbbbbbbbbbbbbbbbbbbbbbbw       ",
"     wwwbbbbbbbbbbbbbbbbbbbbbbbbbbbbbbbbbbbbbbbbbbbbbbbbw       ",
"     wbbbbbbbbbbbbbbbbbbbbbbbbbbbbbbbbbbbbbbbbbbbbwwwwwww       ",
"     wbbbbbbbbbbbbbbbbbbbbbbbbbbbbbbbbbbbbbbbbbbbbw             ",
"     wbbbbbbbbbbbbbbbbbbbbbbbbbbbbbbbbbbbbwwwwwwwww             ",
"     wbbbbbbbbbbbbbbbbbbbbbbbbbbbbbbbbbbbbw                     ",
"     wbbbbbbbbbbbbbbwwwwwwwwwwwwwwwwwwwwwww                     ",
"     wbbbbbbbbbbbbbbw                                           ",
"     wbbbbbbbbbbbbwww                                           ",
"     wbbbbbbbbbbbbw                                             ",
"     wbbbbbbbbbbbbw                                             ",
"     wbbbbbbbbbbbbw        dddddddd                             ",
"     wbbbbbbbbbbbbw        dggggggd                             ",
"     wbbbbbbbbbbbbw      dddgggggggdddddddd                     ",
"     wbbbbbbbbbbbbw      dggggggggggggggggd                     ",
"     wbbbbbbbbbbbbw      dgggggggggggggggggdddddddd             ",
"     wbbbbbbbbbbbbw      dddggggggggggggggggggggggd             ",
"     wbbbbbbbbbbbbw        dgggggggggggggggggggggggdddddd       ",
"     wbbbbbbbbbbbbw        dddggggggggggggggggggggggggggd       ",
"     wbbbbbbbbbbbbw          dgggggggggggggggggggggggggggd      ",
"     wbbbbbbbbbbbbw          dgggggggggggggggggggggggggggd      ",
"     wbbbbbbbbbbbbw        dddggggggggggggggggggggggggggd       ",
"     wbbbbbbbbbbbbw        dgggggggggggggggggggggggdddddd       ",
"     wbbbbbbbbbbbbw      dddggggggggggggggggggggggd             ",
"     wbbbbbbbbbbbbw      dgggggggggggggggggdddddddd             ",
"     wbbbbbbbbbbbbw      dggggggggggggggggd                     ",
"     wbbbbbbbbbbbbw      dddgggggggdddddddd                     ",
"     wbbbbbbbbbbbbw        dggggggd                             ",
"     wbbbbbbbbbbbbw        dddddddd                             ",
"     wbbbbbbbbbbbbw                                             ",
"     wbbbbbbbbbbbbw                                             ",
"     wbbbbbbbbbbbbwww                                           ",
"     wbbbbbbbbbbbbbbw                                           ",
"     wbbbbbbbbbbbbbbwwwwwwwwwwwwwwwwwwwwwww                     ",
"     wbbbbbbbbbbbbbbbbbbbbbbbbbbbbbbbbbbbbw                     ",
"     wbbbbbbbbbbbbbbbbbbbbbbbbbbbbbbbbbbbbwwwwwwwww             ",
"     wbbbbbbbbbbbbbbbbbbbbbbbbbbbbbbbbbbbbbbbbbbbbw             ",
"     wbbbbbbbbbbbbbbbbbbbbbbbbbbbbbbbbbbbbbbbbbbbbwwwwwww       ",
"     wwwbbbbbbbbbbbbbbbbbbbbbbbbbbbbbbbbbbbbbbbbbbbbbbbbw       ",
"       wbbbbbbbbbbbbbbbbbbbbbbbbbbbbbbbbbbbbbbbbbbbbbbbbw       ",
"       wbbbbbbbbbbbbbbbbbbbbbbbbbbbbbbbbbbbbbbbbbbbbbbbbw       ",
"       wbbbbbbbbbbbbbbbbbbbbbbbbbbbbbbbbbbbbbbbbbbbbbbbbw       ",
"       wwwbbbbbbbbbbbbbbbbbbbbbbbbbbbbbbbbbbbbbbbbwwwwwww       ",
"         wbbbbbbbbbbbbbbbbbbbbbbbbbbbbbbbbbbbbbbbbw             ",
"         wwwwwbbbbbbbbbbbbbbbbbbbbbbbbbbbbwwwwwwwww             ",
"             wbbbbbbbbbbbbbbbbbbbbbbbbbbbbw                     ",
"             wwwwwwwwwwwwwwwwwwwwwwwwwwwwww                     ",
"                                                                ",
"                                                                ",
"                                                                ",
"                                                                ",
"                                                                "
};
