/* XPM */
/*****************************************************************************/
/**       This pixmap is kindly offered by Ion Cionca   1992                **/
/**       Swiss Federal Institute of Technology                             **/
/**       Central Computing Service                                         **/
/*****************************************************************************/
static char * image_name [] = {
/**/
"64 38 8 1",
/**/
" 	s mask	c black",
".	c gray70",
"X	c gray85",
"o	c gray50",
"O	c blue",
"+	c darkolivegreen",
"@	c white",
"#	c black",
"                                                                ",
"                                                                ",
"                          ...........................           ",
"                         .XXXXXXXXXXXXXXXXXXXXXXXXXXX.          ",
"                        .XXXXXXXXXXXXXXXXXXXXXXXXXXXXXoo        ",
"                        .XX+++++++++++++++++++++++XXXXoo        ",
"                        .XX++++++++++++++++++++++++XXXooo       ",
"                        .XX++@@+@++@+@@@@++@+++++++XXXooo       ",
" OOOOOOO  OOOOOOOO   OOOOXX+++OOOO+++++++++++++++++XXXoooo      ",
"                         XX++@    @@+@@@+++++++++++XXXoooo      ",
" OOOOOOO  OOOOOOOO   OOOOXX+++OOOO+++++++++++++++++XXXooooo     ",
"                         XX++@    @@@@@+@@@@@++++++XXXooooo     ",
"   OOO     OO    OO   OOOXX+++OOO++++++++++++++++++XXXooooo     ",
"                          X++    @@@@+@@++@@@++++++XXXooooo     ",
"   OOO     OOOOOOO    OOOOX++OOOO++++++++++++++++++XXXooooo     ",
"                           +     ++++++++++++++++++XXXooooo     ",
"   OOO     OOOOOOO    OO.OO+OO+OO++++++++++++++++++XXXooooo     ",
"                              @  +@+@@@+@++++++++++XXXooooo     ",
"   OOO     OO    OO   OO.XOOO++OO++++++++++++++++++XXXooooo     ",
"                        .X   @+   @++++++++++++++++XXXooooo     ",
" OOOOOOO  OOOOOOOO   OOO.XXO+++OOO++++++++++++++++XXXXoooo      ",
"                        .XX XXX   XXXXXXXXXXXXXXXXXXXXooo       ",
" OOOOOOO  OOOOOOOO   OOO .XXXXXOOOXXXXXXXXXXXXXXXXXXXooo        ",
"                            ooooooooooooooooooooooooo...oo      ",
"                             ..........................ooo      ",
"                            oooooooooooooooooooooooooooooo      ",
"                          oXXXXXXXXXXXXXXXXXXXXXXXXXXXoooo.. .. ",
"                          oXXXXXXXXXXXXXXXXXX#######XXoooo  .  .",
"                        oooooooooooooooooooooooooooXXXooo     . ",
"                       oXXXXXXXXXXXXXXXXXXXXXXXXXXooooo      .  ",
"                      oXXXXXXXXXXXXXXXXXXXXXXXXXXoo      oooooo ",
"                      oXX@@@@@@@@@@@@@@@@@@@XXXXXoo   ooooo...o ",
"                     oXXXXXXXXXXXXXXXXXXXXXXXXXXoo   ooXXXoo..o ",
"                    oXX@@@@@@@@@@@@@@@@@@@@XXXXoo    oXXXXX..o  ",
"                   oXXXXXXXXXXXXXXXXXXXXXXXXXXoo     o.....oo   ",
"                   oooooooooooooooooooooooooooo      ooooooo    ",
"                                                                ",
"                                                                "};
