/* XPM */
/*****************************************************************************/
/**       This pixmap is kindly offered by Ion Cionca - 1992 -              **/
/**       Swiss Federal Institute of Technology                             **/
/**       Central Computing Service                                         **/
/*****************************************************************************/
static char * image_name [] = {
/**/
"64 38 23 1",
/**/
" 	s mask	c black",
".	c gray70",
"X	c white",
"O	c black",
"+	c gray85",
"@	c gray50",
"#	c darkolivegreen",
"o c #574c8f",
"0 c #5c519a",
"a c #6559a6",
"b c #4e4582",
"c c #7368af",
"d c #453c72",
"e c #8278b8",
"f c #37305a",
"g c #9f574c",
"h c #aa5c51",
"i c #b66559",
"j c #924e45",
"k c #bf7368",
"l c #82453c",
"m c #c88278",
"n c #6a3730",
"                                                                ",
"                                                                ",
"                          ...........................           ",
"             g           .+++++++++++++++++++++++++++.          ",
"             ij     g   .+++++++++++++++++++++++++++++@@        ",
"             kj     kn  .++#######################++++@@        ",
"       g     kg    ggj  .++#.######################+++@@@       ",
"       kg    mgj   mjn  .++##XX#X##X#XXXX##X#######+++@@@       ",
"        g    mgl  mmj   .++########################+++@@@@      ",
"        ih   mhn imgj   .++##XXXX#XX#XXX###########+++@@@@      ",
"         hh  mhn mkln   .k+########################+++@@@@@     ",
"         kh  mhl mhn   kmhn##XXXXXXXXXX#XXXXX######+++@@@@@     ",
"         ghhnhnnnlhn kmmnn+########################+++@@@@@     ",
"    mmi   klnj    llmminn++##XXX#XXXX#XX##XXX######+++@@@@@     ",
"     ljhgkgj        hlnj.++########################+++@@@@@     ",
"       lhhn         lnl .++##X#####################+++@@@@@     ",
"        lhn          l  .++########################+++@@@@@     ",
"         jn   oaacceeeeeeeeeccaoX#X#XXX#X##########+++@@@@@     ",
"        aeeeeeecca0bffffffffffddb##################+++@@@@@     ",
"    aeeeeao000dfffff    .++##X#XXXX################+++@@@@@     ",
"  aeeco00000ffd         .+++######################++++@@@@      ",
" cec000000bff           .+++++++++++++++++++++++++++++@@@       ",
" aa0000000bf             .+++++++++++++++++++++++++++@@@        ",
"  dd0000000oo               @@@@@@@@@@@@@@@@@@@@@@@@@...@@      ",
"    fffb0000oeeao            ..........................@@@      ",
"       dffffffddoccccaa     @@@@@@@@@@@@@@@@@@@@@@@@@@@@@@      ",
"                          @+++++++++++++++++++++++++++@@@@.. .. ",
"                          @++++++++++++++++++OOOOOOO++@@@@  .  .",
"                        @@@@@@@@@@@@@@@@@@@@@@@@@@@+++@@@     . ",
"                       .++++++++++++++++++++++++++@@@@@      .  ",
"                      @++++++++++++++++++++++++++@@      @@@@@@ ",
"                      @++XXXXXXXXXXXXXXXXXXX+++++@@   @@@@@...@ ",
"                     @++++++++++++++++++++++++++@@   @@+++@@..@ ",
"                    @++XXXXXXXXXXXXXXXXXXXX++++@@    @+++++..@  ",
"                   @++++++++++++++++++++++++++@@     @.....@@   ",
"                   @@@@@@@@@@@@@@@@@@@@@@@@@@@@      @@@@@@@    ",
"                                                                ",
"                                                                "};
