/* XPM */
/*****************************************************************************/
/**       This pixmap is kindly offered by Ion Cionca - 1992 -              **/
/**       Swiss Federal Institute of Technology                             **/
/**       Central Computing Service                                         **/
/*****************************************************************************/
static char * image_name [] = {
/**/
"64 38 11 1",
/**/
" 	s mask	c black",
".	c gray70",
"X	c gray85",
"o	c gray50",
"O	c red",
"+	c darkolivegreen",
"@	c white",
"#	c black",
"g	c green",
"b	c blue",
"y	c yellow",
"                                                                ",
"                                                                ",
"         OOOOOOOO         ...........................           ",
"       OOOOOOOOOOOO      .XXXXXXXXXXXXXXXXXXXXXXXXXXX.          ",
"       OOOOOOOOOOOO     .XXXXXXXXXXXXXXXXXXXXXXXXXXXXXoo        ",
"      OOOOOOOOOOOO ggg  .XX++++g++++++++++++++++++XXXXoo        ",
"      OOOOOOOOOOOO ggggggggggggg+++++++++++++++++++XXXooo       ",
"      OOOOOOOOOOOO ggggggggggggg@++@+@@@@++@+++++++XXXooo       ",
"     OOOOOOOOOOOOO gggggggggggg++++++++++++++++++++XXXoooo      ",
"     OOOOOOOOOOOO ggggggggggggg@@+@@+@@@+++++++++++XXXoooo      ",
"     OOOOOOOOOOOO ggggggggggggg++++++++++++++++++++XXXooooo     ",
"     OOOOOOOOOOOO gggggggggggg@@@@@@@@@+@@@@@++++++XXXooooo     ",
"    OOOOOOOOOOOO ggggggggggggg+++++++++++++++++++++XXXooooo     ",
"    OO        OO ggggggggggggg@@+@@@@+@@++@@@++++++XXXooooo     ",
"      bbbbbbbb   ggggggggggggg+++++++++++++++++++++XXXooooo     ",
"    bbbbbbbbbbb  gggggggggggg@+++++++++++++++++++++XXXooooo     ",
"   bbbbbbbbbbbb   ggggggggg++++++++++++++++++++++++XXXooooo     ",
"   bbbbbbbbbbbb yy      .XXyy@@@@+@+@@@+@++++++++++XXXooooo     ",
"   bbbbbbbbbbbb yyyyyyyyyyyyy++++++++++++++++++++++XXXooooo     ",
"   bbbbbbbbbbb yyyyyyyyyyyyy+@+@@@@++++++++++++++++XXXooooo     ",
"  bbbbbbbbbbbb yyyyyyyyyyyyy++++++++++++++++++++++XXXXoooo      ",
"  bbbbbbbbbbbb yyyyyyyyyyyyyXXXXXXXXXXXXXXXXXXXXXXXXXXooo       ",
"  bbbbbbbbbbb yyyyyyyyyyyyyyXXXXXXXXXXXXXXXXXXXXXXXXXooo        ",
" bbbbbbbbbbbb yyyyyyyyyyyyy ooooooooooooooooooooooooo...oo      ",
" bbbbbbbbbbbb yyyyyyyyyyyyy  ..........................ooo      ",
" b        bbb yyyyyyyyyyyyy oooooooooooooooooooooooooooooo      ",
"             yyyyyyyyyyyyyoXXXXXXXXXXXXXXXXXXXXXXXXXXXoooo.. .. ",
"             yyyyyyyyyyyyyoXXXXXXXXXXXXXXXXXX#######XXoooo  .  .",
"               yyyyyyyyyoooooooooooooooooooooooooooXXXooo     . ",
"                       oXXXXXXXXXXXXXXXXXXXXXXXXXXooooo      .  ",
"                      oXXXXXXXXXXXXXXXXXXXXXXXXXXoo      oooooo ",
"                      oXX@@@@@@@@@@@@@@@@@@@XXXXXoo   ooooo...o ",
"                     oXXXXXXXXXXXXXXXXXXXXXXXXXXoo   ooXXXoo..o ",
"                    oXX@@@@@@@@@@@@@@@@@@@@XXXXoo    oXXXXX..o  ",
"                   oXXXXXXXXXXXXXXXXXXXXXXXXXXoo     o.....oo   ",
"                   oooooooooooooooooooooooooooo      ooooooo    ",
"                                                                ",
"                                                                "};
