/* XPM */
static char* image2_name[] = {
/* width height num_colors chars_per_pixel */
"30 33 4 1",
/* colors */
"- c #000000",
". c #9f9f9f",
"g c #7fff7f",
"b c #7f7fff",
/* pixels */
"------------------------------", 
"------------------------------", 
"-----..----------------..-----", 
"----.--.--------------.--.----", 
"--------.------------.--------", 
"---------.--gggggg--.---------", 
"---------gggggggggggg---------", 
"-------gggggggggggggggg-------", 
"------gggggggggggggggggg------", 
"-----gggggggggggggggggggg-----", 
"-----gggggggggggggggggggg-----", 
"----ggggggbbggggggbbgggggg----", 
"----gggggb..bggggb..bggggg----", 
"----ggggggbbggggggbbgggggg----", 
"----gggggggggggggggggggggg----", 
"-----gggggggggggggggggggg-----", 
"------gggggggggggggggggg------", 
"-------gggggggggggggggg-------", 
"---------gggggggggggg---------", 
"-----------bbbbbbbb-----------", 
"-----------bbb--bbb-----------", 
"------------bb--bb------------", 
"------------bb--bb------------", 
"------------bb--bb------------", 
"------------g----g------------", 
"------------g----g------------", 
"------------g----g------------", 
"-------......----......-------", 
"------........--........------", 
"-------......----......-------", 
"------------------------------", 
"------------------------------", 
"------------------------------", 
};
