/* XPM */
static const char * const logo_50_xpm[] = {
/* columns rows colors chars-per-pixel */
"50 50 15 1 ",
"  c #0F242F",
". c #26272F",
"X c #5B272B",
"o c #1E3240",
"O c #263949",
"+ c #525858",
"@ c #EF263C",
"# c #DA1D2E",
"$ c #BE3E25",
"% c #33454E",
"& c None",
"* c #8D989E",
"= c #5A6971",
"- c #C6CED4",
"; c #C9D1D7",
/* pixels */
"&&&&&&&&&&&&&&&&&&&&&&&&&&&&&&&&&&&&&&&&&&&&&&&&&&",
"&&&&&&&&&&&&&&&&&&&&&&&&&&&&&&&&&&&&&&&&&&&&&&&&&&",
"&&&&&&&&&&&&&&&&&&**&&&&&&&&&&&&&&&&&&&&&&&&&&&&&&",
"&&&&&&&&&&&&&&&&&&%.=&&&&&&&&&&&&&&&&&&&&&&&&&&&&&",
"&&&&&&&&&&&&&&&&&&%  %&&&&&&&&&&&&&&&&&&&&&&&&&&&&",
"&&&&&&&&&&&&&&&&&&*. .%&&&&&&&&&&&&&&&&&&&&&&&&&&&",
"&&&&&&&&&&&&&&&&&&&+XX =&&&&&&&&&&&&&&&&&&&&&&&&&&",
"&&&&&&&&&&&&&&&&&&&+X@X.*&*&&&&&&&&&&&&&&&&&&&&&&&",
"&&&&&&&&&&&&&&&&&&*.X@$.%=.%&&&&&&&&&&&&&&&&&&&&&&",
"&&&&&&&&&&&&&&&&&&=.$@@X+. %&&&&&&&&&&&&&&&&&&&&&&",
"&&&&&&&&&&&&&&&&&&%.#@@X ..%&&&&&&&&&&&&&&&&&&&&&&",
"&&&&&&&&&&&&&&&&&=.X@@@X XX%&&&&&&&&&&&&&&&&&&&&&&",
"&&&&&&&&&&&&&&=*&%.#@@$X.#X.*&&&&&&&&&&&&&&&&&&&&&",
"&&&&&&&&&&&&&=.%%.$@@@$.X@$.%&&&&&&&&&&&&&&&&&&&&&",
"&&&&&&&*%++++. ..X@@@@$ X@$X.++++++++++++%*&&&&&&&",
"&&&&&&*+         #@@@@X X@@$              .*&&&&&&",
"&&&&&&%  ooo .. X@@@@@X X@@$X .o      ooo  %&&&&&&",
"&&&&&&% o    X. $@@@@@X X@@@$.           o %&&&&&&",
"&&&&&&% o   X#X $@@@@@X .#@@$$           o %&&&&&&",
"&&&&&&% o   X@X $@@@@@$  X@@@$X          o %&&&&&&",
"&&&&&&% o  .#@$ X@@@@@@X .#@@@$X         o %&&&&&&",
"&&&&&&% o  X@@$..#@@@@@@X X@@@@$         o %&&&&&&",
"&&&&&&% o  X@@@X X@@@@@@@X.#@@@$X        o %&&&&&&",
"&&&&&&% o  X@@@$. $@@@@@@$.$@@@@$.       o %&&&&&&",
"&&&&&&% o  X@@@@$ .#@@@@@@XX@@@@@X       o %&&&&&&",
"&&&&&&% o  X#@@@@X X@@@@@@XX@@@@@$       o %&&&&&&",
"&&&&&&% o  .#@@@@$..#@@@@@@@@@@@@$       o %&&&&&&",
"&&&&&&% o   X#@@@@$ $@@@@@@@@@@@@$.      o %&&&&&&",
"&&&&&&% o   .##@@@@XX@@@@@@@@@@@@#.      o %&&&&&&",
"&&&&&&%      X##@@@XX@@@@@@@@@@@@$       o %&&&&&&",
"&&&&&&% o     X##@@##@@@@@@@@@@@@$       o %&&&&&&",
"&&&&&&% o      X##@@@@@@@@@@@@@@@X       o %&&&&&&",
"&&&&&&% o       X###@@@@@@@@@@@@#.       o %&&&&&&",
"&&&&&&% o        $##@@@@@@@@@@@@X        o %&&&&&&",
"&&&&&&% o        .$#@@@@@@@@@@@X         o %&&&&&&",
"&&&&&&% o         .##@@@@@@@@#X          o %&&&&&&",
"&&&&&&% oOOOOOOOOO X#@@@@@@@$. oOOOOOOOOOo %&&&&&&",
"&&&&&&% oOOOOOOOOOO X##@@#$X  OOOOOOOOOOOo %&&&&&&",
"&&&&&&=. oOOooooooo   XXX.   ooooooooooOo .=&&&&&&",
"&&&&&&&%.                                .%&&&&&&&",
"&&&&&&&&*==========%          %==========*&&&&&&&&",
"&&&&&&&&&&&&&&&&&&*+          +*&&&&&**&&&&&&&&&&&",
"&&&&&&&&&&&&&&&&&*%OooooooooooO%*&&&&&&&&&&&&&&&&&",
"&&&&&&&&&&&&&&&=%.              .+=&&&&&&&&&&&&&&&",
"&&&&&&&&&&**%+++                  +++%*&&&&&&&&&&&",
"&&&&&&&&&&&*=%%+++++++++++++++++++++%=&&&&&&&&&&&&",
"&&&&&&&&&&&&**&&*************&&&&&&&&&&&&&&&&&&&&&",
"&&&&&&&&&&&&&&&&&**&&&*&&&&&&&&&&&&&&&&&&&&&&&&&&&",
"&&&&&&&&&&&&&&&&&&&&&&&&&&&&&&&&**&&&&&&&&&&&&&&&&",
"&&&&&&&&&&&&&&&&&&&&&&&&&&&&&&&&***&&&&&&&&&&&&&&&"
};
