/* XPM */

/* XScreenSaver Logo, designed by Angela Goodman <rzr_grl@yahoo.com>
   Copyright (c) 2001 by Jamie Zawinski <jwz@jwz.org>
   Unauthorized use or reproduction prohibited.

   http://www.jwz.org/xscreensaver/
 */

static unsigned const char * const logo_50_xpm[] = {
"50 50 16 1",
" 	c None    m None",
".	c #050305 m #000000",
"+	c #989798 m #000000",
"@	c #A30805 m #000000",
"#	c #5E4D34 m #000000",
"$	c #A6531B m #000000",
"%	c #620805 m #000000",
"&	c #FA0204 m #FFFFFF",
"*	c #A63013 m #000000",
"=	c #CCCBCB m #000000",
"-	c #B1B0AE m #000000",
";	c #707070 m #000000",
">	c #523410 m #000000",
",	c #FCFCFA m #FFFFFF",
"'	c #AC6C44 m #000000",
")	c #24221C m #000000",
"                                                  ",
"                  ..                              ",
"                  ..                              ",
"                   @.                             ",
"                   @@.                            ",
"                   %&%                            ",
"                    &&.     .                     ",
"                    &&*.   ..                     ",
"                    &&@>  %.                      ",
"                    &&*.  @)                      ",
"                   %&&#. @&#                      ",
"     ..............@&*)..&&#.................     ",
"    .+,,,,,,,,,,,,'&&$;,'&@#=,,,,,,,,,,,,,,,-.    ",
"    .+,,,,,,,,,,,-&&*#=,@&&>-,,,,,,,,,,,,,,,-.    ",
"    .+,,,,,,,,,,,@&&$#,=&&&*;,,,,,,,,,,,,,,,-.    ",
"    .+,,=;;;;;>)*&&&'>;#&&&*>;;;;;;;;;;;;+,,-.    ",
"    .+,=.....%..&&&&'..%&&&&>.............+,-.    ",
"    .+,-.....@..&&&&$..%&&&&*.............;,-.    ",
"    .+,+....%@.%&&&&$..%&&&&@)............;,-.    ",
"    .+,-....@@.%&&&&&).%&&&&&*............;,-.    ",
"    .+,-....&*>$&&&&&@);&&&&&@>#==-==;....;,-.    ",
"    .+,-....&*>-&&&&&&%#*&&&&&*>-,,,,,....;,-.    ",
"    .+,+...%&@#=&&&&&&&%)&&&&&&*#,,,,,....;,-.    ",
"    .+,-...@&&$;'&&&&&&&)@&&&&&@>=,,,,....;,-.    ",
"    .+,-...&&&$>=&&&&&&&@)&&&&&&*;,,,,....;,-.    ",
"    .+,-...&&&&#-$&&&&&&&>@&&&&&@#,,,,....;,-.    ",
"    .+,+...&&&&$>-&&&&&&&*%&&&&&&),,,,....;,-.    ",
"    .+,-...&&&&&#+*&&&&&&&@&&&&&&%=,,,....;,-.    ",
"    .+,-...&&&&&@>+&&&&&&&&&&&&&&%+,,,....;,-.    ",
"    .+,-...@&&&&&%#&&&&&&&&&&&&&&@;,,,....;,-.    ",
"    .+,+....&&&&&&)@&&&&&&&&&&&&&&>,,,....;,-.    ",
"    .+,-....@&&&&&%%&&&&&&&&&&&&&&),,,....;,-.    ",
"    .+,-....%&&&&&&&&&&&&&&&&&&&&&),,,....;,-.    ",
"    .+,-....;*&&&&&&&&&&&&&&&&&&&&>=,,....;,-.    ",
"    .+,+....;=&&&&&&&&&&&&&&&&&&&@#-,,....;,-.    ",
"    .+,-....;,'&&&&&&&&&&&&&&&&&&*#,,,....;,-.    ",
"    .+,-....;,,*&&&&&&&&&&&&&&&&@),,,,....;,-.    ",
"    .+,-.....#;#@&&&&&&&&&&&&&&&.#;;;)....;,-.    ",
"    .+,+.........@&&&&&&&&&&&&&%..........;,-.    ",
"    .+,-..........@&&&&&&&&&&&............;,-.    ",
"    .+,-...........%&&&&&&&&@.............;,-.    ",
"    .+,,#)))))))))))..%@@@*)...))))))))))>,,-.    ",
"    .+,,,,,,,,,,,,,,).........;,,,,,,,,,,,,,-.    ",
"    .+,,,,,,,,,,,,,#...........-,,,,,,,,,,,,-.    ",
"    .+,,,,,,,,,,,=#.............+,,,,,,,,,,,-.    ",
"    .+,,,,,,,,,,#.................-,,,,,,,,,-.    ",
"    .+,,,,,,,,,,==-=-=-=-=-=-=-=-=,,,,,,,,,,-.    ",
"    .;++++++++++++++++++++++++++++++++++++++;.    ",
"     ........................................     ",
"                                                  "};
