/* XPM */
static char * screensaver_diagnostic_xpm[] = {
"24 24 269 2",
"  	c None",
". 	c #000000",
"+ 	c #F8F8F8",
"@ 	c #D8D8D8",
"# 	c #D1D1D1",
"$ 	c #E0E0E0",
"% 	c #797979",
"& 	c #373737",
"* 	c #3F3F3F",
"= 	c #424242",
"- 	c #444444",
"; 	c #4E4E4E",
"> 	c #474747",
", 	c #464646",
"' 	c #4A4A4A",
") 	c #484848",
"! 	c #4B4B4B",
"~ 	c #737373",
"{ 	c #BCBCBC",
"] 	c #BABABA",
"^ 	c #939393",
"/ 	c #A2A2A2",
"( 	c #959595",
"_ 	c #383838",
": 	c #36442C",
"< 	c #5F7751",
"[ 	c #68815A",
"} 	c #758F67",
"| 	c #708A62",
"1 	c #748D64",
"2 	c #6D8660",
"3 	c #6D875E",
"4 	c #617951",
"5 	c #5C724B",
"6 	c #4F663F",
"7 	c #4B5F3A",
"8 	c #141B0E",
"9 	c #E5E5E5",
"0 	c #FAF7EC",
"a 	c #D2D2D2",
"b 	c #5A5A5A",
"c 	c #3E3E3E",
"d 	c #4E6443",
"e 	c #FBFEF6",
"f 	c #C2D9B7",
"g 	c #A0BD93",
"h 	c #98B48A",
"i 	c #9CBA8D",
"j 	c #92AE85",
"k 	c #92AF81",
"l 	c #839E72",
"m 	c #769363",
"n 	c #6D8957",
"o 	c #65814F",
"p 	c #222C1A",
"q 	c #CDCDCD",
"r 	c #E4E3E3",
"s 	c #A8A8A7",
"t 	c #748A66",
"u 	c #FAFFF4",
"v 	c #D2E2C8",
"w 	c #C6E2BA",
"x 	c #B3CFA8",
"y 	c #B7D4A9",
"z 	c #CEE1C6",
"A 	c #A4C096",
"B 	c #89A379",
"C 	c #83A06E",
"D 	c #B5C8A7",
"E 	c #88A86F",
"F 	c #293520",
"G 	c #EAEAEA",
"H 	c #696969",
"I 	c #515151",
"J 	c #141414",
"K 	c #505050",
"L 	c #454545",
"M 	c #728664",
"N 	c #DFF4D6",
"O 	c #FDFFFB",
"P 	c #E8F3E1",
"Q 	c #B2CCA8",
"R 	c #B9D4AF",
"S 	c #FCFFFA",
"T 	c #D1E2C8",
"U 	c #8AA67A",
"V 	c #89A677",
"W 	c #F8FBF5",
"X 	c #C2D2B4",
"Y 	c #26301D",
"Z 	c #E6E6E6",
"` 	c #767676",
" .	c #626262",
"..	c #7A7A7A",
"+.	c #6C835E",
"@.	c #E6F2DC",
"#.	c #E2F0DC",
"$.	c #FFFFFF",
"%.	c #B1CCA6",
"&.	c #D6E7D0",
"*.	c #D2E2CC",
"=.	c #F9FEF6",
"-.	c #839E71",
";.	c #BACEAD",
">.	c #C7D6BB",
",.	c #F8FBF4",
"'.	c #2A3520",
").	c #EEEEEE",
"!.	c #898989",
"~.	c #848484",
"{.	c #7E7E7E",
"].	c #858585",
"^.	c #586E4B",
"/.	c #C8D6C2",
"(.	c #9BB48C",
"_.	c #E3EEDD",
":.	c #9BB690",
"<.	c #CCDBC5",
"[.	c #809E72",
"}.	c #D0DEC8",
"|.	c #718C5F",
"1.	c #B7C5AE",
"2.	c #668150",
"3.	c #CAD7C2",
"4.	c #242C1C",
"5.	c #F1F1F1",
"6.	c #B0B0B0",
"7.	c #B3AF9A",
"8.	c #8A8A8A",
"9.	c #9F9F9F",
"0.	c #556B46",
"a.	c #EDF5E7",
"b.	c #9AB38A",
"c.	c #D4E2CE",
"d.	c #C3D6B9",
"e.	c #F5FBF2",
"f.	c #7F9D6D",
"g.	c #BDCDB4",
"h.	c #9AB08A",
"i.	c #E2ECDA",
"j.	c #566D45",
"k.	c #A4B298",
"l.	c #232A1C",
"m.	c #D0D0D0",
"n.	c #F7F7F5",
"o.	c #C7C7C7",
"p.	c #4F4F4F",
"q.	c #404040",
"r.	c #57694B",
"s.	c #DAE5D1",
"t.	c #859E76",
"u.	c #B6CBAA",
"v.	c #E7ECE4",
"w.	c #DFEADA",
"x.	c #6B865B",
"y.	c #869E79",
"z.	c #D1DACA",
"A.	c #C4CFBC",
"B.	c #4A6039",
"C.	c #6C7D5E",
"D.	c #40453B",
"E.	c #E4E4E4",
"F.	c #B5B5B5",
"G.	c #E0DFDE",
"H.	c #909090",
"I.	c #4F6042",
"J.	c #829A72",
"K.	c #7A9368",
"L.	c #88A277",
"M.	c #DAE4D5",
"N.	c #8EA67E",
"O.	c #5A7349",
"P.	c #C7D0BE",
"Q.	c #6C7F5A",
"R.	c #4A5F38",
"S.	c #617250",
"T.	c #2E3426",
"U.	c #838383",
"V.	c #2B2B2B",
"W.	c #282828",
"X.	c #747474",
"Y.	c #3D4C30",
"Z.	c #5A6E49",
"`.	c #687E58",
" +	c #788E65",
".+	c #6C805C",
"++	c #6B825B",
"@+	c #5C734C",
"#+	c #586F48",
"$+	c #627355",
"%+	c #526643",
"&+	c #4E6140",
"*+	c #647455",
"=+	c #21281A",
"-+	c #F3F3F3",
";+	c #989898",
">+	c #979797",
",+	c #343F28",
"'+	c #4F6142",
")+	c #5C6E4E",
"!+	c #718462",
"~+	c #687C5A",
"{+	c #778968",
"]+	c #758968",
"^+	c #76896A",
"/+	c #6E7C60",
"(+	c #687859",
"_+	c #647457",
":+	c #738465",
"<+	c #1C2117",
"[+	c #F7F7F7",
"}+	c #F2F2F2",
"|+	c #BBBBBB",
"1+	c #CCCCCC",
"2+	c #B8B8B8",
"3+	c #878787",
"4+	c #585858",
"5+	c #616161",
"6+	c #666666",
"7+	c #6F6F6F",
"8+	c #727272",
"9+	c #6E6E6E",
"0+	c #646464",
"a+	c #6D6D6D",
"b+	c #D6D6D6",
"c+	c #C6C6C6",
"d+	c #DFDECD",
"e+	c #8E8E8E",
"f+	c #A4A4A4",
"g+	c #C0C0C0",
"h+	c #CBCBCB",
"i+	c #CACACA",
"j+	c #DFDFDF",
"k+	c #F4F4F4",
"l+	c #F5F5F5",
"m+	c #C5C5C5",
"n+	c #2F2F2F",
"o+	c #7D7D7D",
"p+	c #5C5C5C",
"q+	c #040404",
"r+	c #575757",
"s+	c #9C9C9C",
"t+	c #AFAFAF",
"u+	c #A7A7A7",
"v+	c #AEAEAE",
"w+	c #A8A8A8",
"x+	c #B2B2B2",
"y+	c #E9E9E9",
"z+	c #C9C9C9",
"A+	c #DBDBDB",
"B+	c #525252",
"C+	c #202020",
"D+	c #2D2D2D",
"E+	c #828282",
"F+	c #787878",
"G+	c #9A9A9A",
"H+	c #BFBFBF",
"I+	c #C1C1C1",
"J+	c #3A3A3A",
"K+	c #3C3C3C",
"L+	c #6C6C6C",
"M+	c #434343",
"N+	c #2E2E2E",
"O+	c #303030",
"P+	c #545454",
"Q+	c #C2C2C2",
"R+	c #DCDCDC",
"S+	c #868686",
"T+	c #676767",
"                                                ",
"  . . . . . . . . . . . . . . . . . . . .       ",
". + @ @ @ @ @ @ @ @ @ @ @ @ @ @ @ @ @ @ # .     ",
". $ % & & * = - ; > > , ' ) ! ~ { ] ^ / ( .     ",
". $ _ : < [ } | 1 2 3 4 5 6 7 8 9 / 0 a b .     ",
". $ c d e f g h i j k l m n o p $ q r s - .     ",
". $ * t u v w x y z A B C D E F G H I J K .     ",
". $ L M N O P Q R S T U V W X Y Z ] `  ....     ",
". $ ' +.@.#.$.%.&.*.=.-.;.>.,.'.).!.~.{.]..     ",
". $ ) ^./.(._.:.<.[.}.|.1.2.3.4.5.6.7.8.9..     ",
". $ , 0.a.b.c.d.e.f.g.h.i.j.k.l.).m.n.o.p..     ",
". $ q.r.s.t.u.v.w.x.y.z.A.B.C.D.E.F.G.H.L .     ",
". $ c I.J.K.L.M.N.4 O.P.Q.R.S.T.9 U.V.W.X..     ",
". $ = Y.Z.`. +.+++@+#+$+%+&+*+=+-+;+8.].>+.     ",
". $ = ,+'+)+!+~+{+]+^+/+(+_+:+<+[+}+|+1+2+.     ",
". $ 3+' ! K 4+5+6+7+8+9+0+a+~ b++ c+d+e+f+.     ",
". $ ~.g+h+i+h+q j+b+k+-+-+l+).i+m+b+k+# n+.     ",
". $ > o+p+0+q+r+= s+t+u+v+] w+x+y+..z+^ & .     ",
". A+8+p+B+C+b D+; , E+F+G+p+^ >+H+I+J+K+L+.     ",
". { !.7+M+N+O+P+e+v+|+{ H+Q+q @ R+S+{.T+b .     ",
"  . . . . . . . . . . . . . . . . . . . . .     ",
"        . . . . . . . . . . . . . . . .         ",
"                                                ",
"                                                "};
