/* XPM */
static char * screensaver_power_xpm[] = {
"24 24 203 2",
"  	c None",
". 	c #1E1D19",
"+ 	c #000000",
"@ 	c #D3CDBA",
"# 	c #EDE6CD",
"$ 	c #E1D6B0",
"% 	c #C2B997",
"& 	c #786C42",
"* 	c #ECDB9D",
"= 	c #EEDA94",
"- 	c #E7D185",
"; 	c #E2CC7E",
"> 	c #D2C185",
", 	c #E9DFBB",
"' 	c #CFC7A8",
") 	c #A6996B",
"! 	c #948450",
"~ 	c #C2AE68",
"{ 	c #B39F5E",
"] 	c #A99858",
"^ 	c #73663E",
"/ 	c #F6F0DA",
"( 	c #EEE0A8",
"_ 	c #F1E1AB",
": 	c #EBD99B",
"< 	c #E5D28E",
"[ 	c #CFBD7C",
"} 	c #B9A96F",
"| 	c #988B5B",
"1 	c #8D8054",
"2 	c #B6A56B",
"3 	c #B9A86A",
"4 	c #A7955D",
"5 	c #9B8952",
"6 	c #907F4A",
"7 	c #897C4F",
"8 	c #FCF9ED",
"9 	c #F3E9C6",
"0 	c #F2E8C4",
"a 	c #EEE1B4",
"b 	c #EADCA9",
"c 	c #E7D8A5",
"d 	c #E4D6A4",
"e 	c #DFD2A0",
"f 	c #D8CA97",
"g 	c #C3B47E",
"h 	c #B1A16F",
"i 	c #998A57",
"j 	c #867846",
"k 	c #7D6F41",
"l 	c #93875C",
"m 	c #F0DD96",
"n 	c #FBF7E9",
"o 	c #FBF9EF",
"p 	c #F5F1E1",
"q 	c #F2EEDF",
"r 	c #F7F2E4",
"s 	c #F4EEDC",
"t 	c #EBE4C9",
"u 	c #DDD1AA",
"v 	c #C0B284",
"w 	c #A89A70",
"x 	c #928554",
"y 	c #9A916C",
"z 	c #8A7F59",
"A 	c #74673A",
"B 	c #F0DB90",
"C 	c #F8EFCE",
"D 	c #FDFBF1",
"E 	c #FBF8EC",
"F 	c #F8F4DC",
"G 	c #F0E3B2",
"H 	c #E4D295",
"I 	c #E0D19A",
"J 	c #D7C895",
"K 	c #C2B584",
"L 	c #B2A479",
"M 	c #9C8F65",
"N 	c #796B3D",
"O 	c #6E6236",
"P 	c #6B6036",
"Q 	c #ECD88E",
"R 	c #F8EFCD",
"S 	c #FDFBF4",
"T 	c #FDFBF5",
"U 	c #FBFAED",
"V 	c #F0E5B1",
"W 	c #DCC77B",
"X 	c #D1BB70",
"Y 	c #C4AF69",
"Z 	c #AA9856",
"` 	c #99874F",
" .	c #857544",
"..	c #76673C",
"+.	c #6C6037",
"@.	c #5E5433",
"#.	c #BCB59B",
"$.	c #EEE5C5",
"%.	c #FCF9EC",
"&.	c #FCFAF2",
"*.	c #FAF9EC",
"=.	c #EEE2AD",
"-.	c #DAC578",
";.	c #CDB76D",
">.	c #BEAA64",
",.	c #A89656",
"'.	c #97854B",
").	c #847544",
"!.	c #74683C",
"~.	c #5A5337",
"{.	c #36352F",
"].	c #A6A5A5",
"^.	c #C4C3BD",
"/.	c #E5E3DE",
"(.	c #F4F2ED",
"_.	c #F8F4E5",
":.	c #ECDEA6",
"<.	c #D9C377",
"[.	c #CBB56C",
"}.	c #BCA863",
"|.	c #A89759",
"1.	c #897B4D",
"2.	c #6B634A",
"3.	c #5B574B",
"4.	c #3F3E3D",
"5.	c #353535",
"6.	c #A3A3A3",
"7.	c #BCBCBC",
"8.	c #D7D7D7",
"9.	c #E6E6E6",
"0.	c #E5E5E5",
"a.	c #BFBFBF",
"b.	c #A2A2A2",
"c.	c #929292",
"d.	c #868686",
"e.	c #787878",
"f.	c #6C6C6C",
"g.	c #5D5D5D",
"h.	c #525252",
"i.	c #424242",
"j.	c #363636",
"k.	c #BBBBBB",
"l.	c #D4D4D4",
"m.	c #E2E2E2",
"n.	c #7A7A7A",
"o.	c #737373",
"p.	c #5B5B5B",
"q.	c #A5A5A5",
"r.	c #B8B8B8",
"s.	c #CFCFCF",
"t.	c #E1E1E1",
"u.	c #A0A0A0",
"v.	c #939393",
"w.	c #888888",
"x.	c #767676",
"y.	c #7B7B7B",
"z.	c #7E7E7E",
"A.	c #5F5F5F",
"B.	c #404040",
"C.	c #A4A4A4",
"D.	c #B7B7B7",
"E.	c #CCCCCC",
"F.	c #E0E0E0",
"G.	c #DFDFDF",
"H.	c #B6B6B6",
"I.	c #A1A1A1",
"J.	c #878787",
"K.	c #777777",
"L.	c #757575",
"M.	c #828282",
"N.	c #414141",
"O.	c #C8C8C8",
"P.	c #DDDDDD",
"Q.	c #DCDCDC",
"R.	c #B4B4B4",
"S.	c #595959",
"T.	c #B5B5B5",
"U.	c #C5C5C5",
"V.	c #DBDBDB",
"W.	c #B1B1B1",
"X.	c #7F7F7F",
"Y.	c #B3B3B3",
"Z.	c #C1C1C1",
"`.	c #D9D9D9",
" +	c #D8D8D8",
".+	c #ADADAD",
"++	c #C0C0C0",
"@+	c #6F6F6F",
"#+	c #686868",
"$+	c #535353",
"%+	c #959595",
"&+	c #6B6B6B",
"*+	c #5C5C5C",
"=+	c #515151",
"-+	c #2A2A2A",
";+	c #8A8A8A",
">+	c #D6D6D6",
",+	c #242424",
"'+	c #919191",
")+	c #626262",
"!+	c #494949",
"~+	c #343434",
"{+	c #111111",
"                                                ",
"              . + + +                           ",
"      + + + + @ # $ % & + + + +                 ",
"    + * = - ; > , ' ) ! ~ { ] ^ +               ",
"  + / ( _ : < [ } | 1 2 3 4 5 6 7 +             ",
"  + 8 9 0 a b c d e f g h i j k l +             ",
"  + m n o p q r s t u v w x y z A +             ",
"  + B C D E F G H I J K L M N O P +             ",
"  + Q R S T U V W X Y Z `  ...+.@.+             ",
"  + #.$.%.&.*.=.-.;.>.,.'.).!.~.{.+             ",
"  + ].^./.(._.:.<.[.}.|.1.2.3.4.5.+             ",
"  + 6.7.8.9.0.a.b.c.d.e.f.g.h.i.j.+             ",
"  + 6.k.l.0.m.7.b.c.d.e.n.o.p.i.j.+             ",
"  + q.r.s.m.t.r.u.v.w.x.y.z.A.B.5.+             ",
"  + C.D.E.F.G.H.I.v.J.K.L.M.A.N.5.+             ",
"  + 6.D.O.P.Q.R.b.c.d.e.o.L.S.i.j.+             ",
"  + C.T.U.V.V.W.I.c.d.e.X.M.S.i.j.+             ",
"  + C.Y.Z.`. +.+I.v.J.K.z.J.g.N.5.+             ",
"  + C.Y.++ +8..+I.c.J.K.@+#+$+i.j.+ + +         ",
"  + %+Y.++ +8..+b.v.J.e.&+*+=+i.-++ +           ",
"    + ;+++`.>+.+b.v.J.e.&+*+=+,++ +             ",
"      + + L.'+@+&+)+S.!+~+{++ + +               ",
"          + + + + + + + + +                     ",
"                                                "};
