/* XPM */
static char * screensaver_cmndln_xpm[] = {
"24 24 330 2",
"  	c None",
". 	c #878583",
"+ 	c #000000",
"@ 	c #85817B",
"# 	c #D8D6CE",
"$ 	c #DBD8D0",
"% 	c #DEDBD3",
"& 	c #DFDCD5",
"* 	c #E0DDD6",
"= 	c #DEDBD4",
"- 	c #DCD8D1",
"; 	c #DAD7D0",
"> 	c #D8D4CC",
", 	c #D4D0C9",
"' 	c #D0CDC5",
") 	c #CCC8C0",
"! 	c #C6C2BA",
"~ 	c #C0BCB4",
"{ 	c #B9B5AC",
"] 	c #B2AEA5",
"^ 	c #ABA79E",
"/ 	c #A39F96",
"( 	c #9E9A91",
"_ 	c #DAD7CF",
": 	c #787B72",
"< 	c #62695D",
"[ 	c #676E62",
"} 	c #686F63",
"| 	c #6C7367",
"1 	c #6E7468",
"2 	c #70766C",
"3 	c #71766C",
"4 	c #70766B",
"5 	c #6F756A",
"6 	c #6E7268",
"7 	c #6C7066",
"8 	c #666A61",
"9 	c #62675D",
"0 	c #5C6058",
"a 	c #565A51",
"b 	c #50544C",
"c 	c #4A4D46",
"d 	c #83837B",
"e 	c #98948B",
"f 	c #D9D6CE",
"g 	c #454B45",
"h 	c #444B44",
"i 	c #3A433A",
"j 	c #414941",
"k 	c #474E47",
"l 	c #4E554E",
"m 	c #505750",
"n 	c #545A54",
"o 	c #515751",
"p 	c #4D534D",
"q 	c #494E49",
"r 	c #444A44",
"s 	c #3D423D",
"t 	c #373C37",
"u 	c #2F342F",
"v 	c #898983",
"w 	c #938E85",
"x 	c #D6D2CB",
"y 	c #EEEEEE",
"z 	c #B4B4B4",
"A 	c #747874",
"B 	c #555C55",
"C 	c #5A605A",
"D 	c #5E645E",
"E 	c #606660",
"F 	c #616761",
"G 	c #616661",
"H 	c #5E635E",
"I 	c #5B605B",
"J 	c #565A56",
"K 	c #4D524D",
"L 	c #484D48",
"M 	c #414641",
"N 	c #393D39",
"O 	c #92928B",
"P 	c #8C887F",
"Q 	c #D1CDC5",
"R 	c #3A423A",
"S 	c #E8E8E8",
"T 	c #FAFAFA",
"U 	c #828782",
"V 	c #636963",
"W 	c #696F69",
"X 	c #6B716B",
"Y 	c #6E746E",
"Z 	c #6C716C",
"` 	c #6A6E6A",
" .	c #656A65",
"..	c #606460",
"+.	c #4E524E",
"@.	c #464A46",
"#.	c #3E423E",
"$.	c #858178",
"%.	c #CBC8C0",
"&.	c #EAECEA",
"*.	c #A2A9A2",
"=.	c #686E68",
"-.	c #6E736E",
";.	c #717671",
">.	c #747974",
",.	c #737873",
"'.	c #707470",
").	c #6A6F6A",
"!.	c #656965",
"~.	c #5C5F5C",
"{.	c #515551",
"].	c #4A4E4A",
"^.	c #404540",
"/.	c #91908A",
"(.	c #7E7A71",
"_.	c #C4C0B8",
":.	c #505650",
"<.	c #525852",
"[.	c #646A64",
"}.	c #6D736D",
"|.	c #767B76",
"1.	c #797E79",
"2.	c #797D79",
"3.	c #787C78",
"4.	c #737773",
"5.	c #6B6F6B",
"6.	c #666966",
"7.	c #5E615E",
"8.	c #565956",
"9.	c #4C4F4C",
"0.	c #434743",
"a.	c #8F8E88",
"b.	c #76736A",
"c.	c #BEB9B0",
"d.	c #4A514A",
"e.	c #565C56",
"f.	c #5F655F",
"g.	c #707570",
"h.	c #787B78",
"i.	c #6D716D",
"j.	c #666A66",
"k.	c #5D615D",
"l.	c #555855",
"m.	c #444744",
"n.	c #8E8D87",
"o.	c #706C63",
"p.	c #B5B0A8",
"q.	c #4C524C",
"r.	c #565B56",
"s.	c #686C68",
"t.	c #727672",
"u.	c #777A77",
"v.	c #767976",
"w.	c #6C706C",
"x.	c #646764",
"y.	c #545754",
"z.	c #4C4E4C",
"A.	c #8D8C85",
"B.	c #6A665D",
"C.	c #AEA99F",
"D.	c #4B514B",
"E.	c #666C66",
"F.	c #757975",
"G.	c #767A76",
"H.	c #747774",
"I.	c #6E726E",
"J.	c #626462",
"K.	c #595C59",
"L.	c #525452",
"M.	c #4B4E4B",
"N.	c #424642",
"O.	c #8B8A84",
"P.	c #646057",
"Q.	c #A4A096",
"R.	c #484E48",
"S.	c #535853",
"T.	c #595E59",
"U.	c #626662",
"V.	c #696D69",
"W.	c #717571",
"X.	c #6F726F",
"Y.	c #646864",
"Z.	c #484C48",
"`.	c #414441",
" +	c #898881",
".+	c #5E5B52",
"++	c #9B978D",
"@+	c #434943",
"#+	c #555A55",
"$+	c #636763",
"%+	c #676B67",
"&+	c #6B6E6B",
"*+	c #676A67",
"=+	c #646664",
"-+	c #5F625F",
";+	c #535653",
">+	c #464846",
",+	c #3F423F",
"'+	c #86857E",
")+	c #59564D",
"!+	c #928E84",
"~+	c #3E443E",
"{+	c #464C46",
"]+	c #505550",
"^+	c #616561",
"/+	c #616461",
"(+	c #5A5D5A",
"_+	c #4D504D",
":+	c #474A47",
"<+	c #424542",
"[+	c #3C403C",
"}+	c #85847C",
"|+	c #535047",
"1+	c #8A867B",
"2+	c #393F39",
"3+	c #3F453F",
"4+	c #4F544F",
"5+	c #585C58",
"6+	c #5A5F5A",
"7+	c #5C605C",
"8+	c #5B5F5B",
"9+	c #575A57",
"0+	c #525552",
"a+	c #484B48",
"b+	c #3E413E",
"c+	c #383C38",
"d+	c #828079",
"e+	c #4E4A41",
"f+	c #908C83",
"g+	c #272E27",
"h+	c #4A4F4A",
"i+	c #505350",
"j+	c #515451",
"k+	c #505450",
"l+	c #494C49",
"m+	c #464946",
"n+	c #3D403D",
"o+	c #383B38",
"p+	c #262A26",
"q+	c #7F7E76",
"r+	c #4B483E",
"s+	c #939088",
"t+	c #999589",
"u+	c #A29D93",
"v+	c #A39D93",
"w+	c #A19C91",
"x+	c #9F9B8F",
"y+	c #9D978D",
"z+	c #9A958A",
"A+	c #969186",
"B+	c #938D83",
"C+	c #8F8B7F",
"D+	c #8D887C",
"E+	c #898579",
"F+	c #868175",
"G+	c #837E72",
"H+	c #817D70",
"I+	c #7F7B6D",
"J+	c #7D796C",
"K+	c #959186",
"L+	c #8D8A82",
"M+	c #706C62",
"N+	c #726D62",
"O+	c #716C62",
"P+	c #706C61",
"Q+	c #6E6A60",
"R+	c #6C675D",
"S+	c #69645A",
"T+	c #656156",
"U+	c #615E53",
"V+	c #5E5A50",
"W+	c #5B584C",
"X+	c #58554A",
"Y+	c #565348",
"Z+	c #545046",
"`+	c #524E44",
" @	c #504C42",
".@	c #4E4A40",
"+@	c #4D493F",
"@@	c #78756B",
"#@	c #6B665C",
"$@	c #6A665C",
"%@	c #6B675C",
"&@	c #6A665B",
"*@	c #68645A",
"=@	c #666157",
"-@	c #625F54",
";@	c #5F5B51",
">@	c #5D584E",
",@	c #5B574C",
"'@	c #58544A",
")@	c #504D43",
"!@	c #4F4B40",
"~@	c #4D4A40",
"{@	c #4C483E",
"]@	c #21201D",
"^@	c #4B4741",
"/@	c #4F4D46",
"(@	c #4E4A45",
"_@	c #504D48",
":@	c #53514C",
"<@	c #514F48",
"[@	c #4E4A46",
"}@	c #4A4843",
"|@	c #46433E",
"1@	c #43413B",
"2@	c #403D38",
"3@	c #3C3933",
"4@	c #383630",
"5@	c #35332D",
"6@	c #35332C",
"7@	c #36342E",
"8@	c #13120F",
"9@	c #46443E",
"0@	c #4E4C46",
"a@	c #55544E",
"b@	c #5D5B56",
"c@	c #64625E",
"d@	c #65635D",
"e@	c #62605B",
"f@	c #5F5D58",
"g@	c #5C5A55",
"h@	c #595752",
"i@	c #54534D",
"j@	c #4F4D47",
"k@	c #484640",
"l@	c #42403A",
"m@	c #3F3D36",
"n@	c #3D3B33",
"o@	c #3E3B34",
"                                                ",
". + + + + + + + + + + + + + + + + + + + + + @   ",
"+ # $ % & * * * = - ; > , ' ) ! ~ { ] ^ / ( +   ",
"+ _ : < [ } | 1 2 3 4 5 6 7 8 9 0 a b c d e +   ",
"+ f 5 g h i j k l m n n n o p q r s t u v w +   ",
"+ x 5 g y z A B C D E F G H I J K L M N O P +   ",
"+ Q 5 R I S T U V W X Y Z `  ...J +.@.#.O $.+   ",
"+ %.5 g &.*.Y =.-.;.>.>.,.'.).!.~.{.].^./.(.+   ",
"+ _.5 :.<.C [.}.,.|.1.2.3.4.5.6.7.8.9.0.a.b.+   ",
"+ c.5 d.e.f.=.g.,.|.3.3.h.A i.j.k.l.9.m.n.o.+   ",
"+ p.5 q.r.f.s.g.t.3.2.u.v.t.w.x.~.y.z.m.A.B.+   ",
"+ C.5 D.n H E.w.'.F.G.4.H.I.s.J.K.L.M.N.O.P.+   ",
"+ Q.5 R.S.T.U.V.I.'.W.I.X.` Y.7.l.+.Z.`. +.++   ",
"+ ++5 @+K #+I $+%+&+` s.*+=+-+K.;+].>+,+'+)++   ",
"+ !+5 ~+{+]+r.k...U.U.^+/+7.(+y._+:+<+[+}+|++   ",
"+ 1+5 2+3+R.4+J 5+6+7+8+K.9+0+9.a+0.b+c+d+e++   ",
"+ f+5 g+2+^.@.h+4+i+j+{.k+9.l+m+<+n+o+p+q+r++   ",
"+ s+t+u+v+u+w+x+y+z+A+B+C+D+E+F+G+H+I+J+K+r++   ",
"+ L+M+N+O+P+Q+R+S+T+U+V+W+X+Y+Z+`+ @.@+@r+r++   ",
"+ @@#@$@%@&@*@=@-@;@>@,@'@Y+Z+`+)@!@~@{@r+r++   ",
"]@+ + ^@/@(@_@:@:@<@[@}@|@1@2@3@4@5@6@7@+ + 8@  ",
"  + + 9@0@a@b@c@d@e@f@g@h@i@j@k@l@m@n@o@+ +     ",
"    + + + + + + + + + + + + + + + + + + +       ",
"                                                "};
