/* XPM */
static char * screensaver_locking_xpm[] = {
"24 24 179 2",
"  	c None",
". 	c #000000",
"+ 	c #A5A5A5",
"@ 	c #EEEEEE",
"# 	c #ECECEC",
"$ 	c #E7E7E7",
"% 	c #E3E3E3",
"& 	c #CBCBCB",
"* 	c #424242",
"= 	c #D4D4D4",
"- 	c #E8E8E8",
"; 	c #B5B5B5",
"> 	c #DFDFDF",
", 	c #C8C8C8",
"' 	c #5B5B5B",
") 	c #A4A4A4",
"! 	c #818181",
"~ 	c #DDDDDD",
"{ 	c #BCBCBC",
"] 	c #2D2D2D",
"^ 	c #EDEDED",
"/ 	c #BABABA",
"( 	c #D6D6D6",
"_ 	c #777777",
": 	c #E2E2E2",
"< 	c #757575",
"[ 	c #E6E6E6",
"} 	c #AFAFAF",
"| 	c #DCDCDC",
"1 	c #616161",
"2 	c #E5E5E5",
"3 	c #D2A06E",
"4 	c #AD8562",
"5 	c #C99560",
"6 	c #C48F5A",
"7 	c #EFDBBF",
"8 	c #E5C7A0",
"9 	c #D8B385",
"0 	c #D4AC7C",
"a 	c #D0A873",
"b 	c #CAA06A",
"c 	c #C79C64",
"d 	c #C89C64",
"e 	c #C3985F",
"f 	c #C09054",
"g 	c #BC8545",
"h 	c #B67A38",
"i 	c #9A5E1B",
"j 	c #F0DABF",
"k 	c #E4C6A0",
"l 	c #D6AF80",
"m 	c #D3AC7B",
"n 	c #D0A570",
"o 	c #B48D59",
"p 	c #81643D",
"q 	c #6E5534",
"r 	c #BC9A6D",
"s 	c #C79C65",
"t 	c #C39860",
"u 	c #C09256",
"v 	c #BC8645",
"w 	c #B67C36",
"x 	c #985E1A",
"y 	c #EED8BC",
"z 	c #E3C39C",
"A 	c #D3AA7B",
"B 	c #CDA36C",
"C 	c #81643E",
"D 	c #21190E",
"E 	c #0C0905",
"F 	c #43331F",
"G 	c #D3B185",
"H 	c #C49961",
"I 	c #C09358",
"J 	c #BC8746",
"K 	c #B77D39",
"L 	c #EED8BB",
"M 	c #E2C29B",
"N 	c #D6AE7F",
"O 	c #D2A97A",
"P 	c #CEA46E",
"Q 	c #6A5232",
"R 	c #080604",
"S 	c #D2B287",
"T 	c #C2945A",
"U 	c #BE8E50",
"V 	c #BA8442",
"W 	c #B47834",
"X 	c #975C1A",
"Y 	c #EFDABE",
"Z 	c #E4C49D",
"` 	c #D7B080",
" .	c #D4AC79",
"..	c #CDA570",
"+.	c #846641",
"@.	c #19130C",
"#.	c #7A6A53",
"$.	c #CEAA7B",
"%.	c #C19458",
"&.	c #BE8C4E",
"*.	c #B9813F",
"=.	c #B37834",
"-.	c #975D1A",
";.	c #EFD8BB",
">.	c #E0C199",
",.	c #D3AA7A",
"'.	c #D0A774",
").	c #CBA26B",
"!.	c #A58152",
"~.	c #2E2316",
"{.	c #CBAC83",
"].	c #C39861",
"^.	c #C09257",
"/.	c #BA833F",
"(.	c #B37934",
"_.	c #9B601E",
":.	c #E3C29C",
"<.	c #D2AA78",
"[.	c #896C44",
"}.	c #1C150C",
"|.	c #A08C72",
"1.	c #C19257",
"2.	c #BD8C4C",
"3.	c #BA813E",
"4.	c #B27733",
"5.	c #A36B2F",
"6.	c #EDD6B8",
"7.	c #E1BD94",
"8.	c #D1A874",
"9.	c #CEA46D",
"0.	c #C69C64",
"a.	c #44341F",
"b.	c #17110A",
"c.	c #766246",
"d.	c #D0AF84",
"e.	c #BE8E51",
"f.	c #B67D3A",
"g.	c #B07530",
"h.	c #A67137",
"i.	c #EED8BA",
"j.	c #E0C099",
"k.	c #D1A973",
"l.	c #654F32",
"m.	c #503F28",
"n.	c #4E3D27",
"o.	c #705737",
"p.	c #D0AE81",
"q.	c #BD8C4E",
"r.	c #B9803D",
"s.	c #B67D38",
"t.	c #AB783F",
"u.	c #EED5B7",
"v.	c #DFC096",
"w.	c #D2A776",
"x.	c #C89D65",
"y.	c #CFAD80",
"z.	c #D4B68F",
"A.	c #D5B68F",
"B.	c #D2B38A",
"C.	c #C69D66",
"D.	c #C09155",
"E.	c #BC8A4B",
"F.	c #BE8A4C",
"G.	c #A9773C",
"H.	c #D5AE7E",
"I.	c #CFA772",
"J.	c #C49256",
"K.	c #C08D51",
"L.	c #BA8849",
"M.	c #B78342",
"N.	c #B48240",
"O.	c #B68241",
"P.	c #B88544",
"Q.	c #BB8949",
"R.	c #BC8748",
"S.	c #BA874A",
"T.	c #B98548",
"U.	c #B27B3B",
"V.	c #88521A",
"                                                ",
"                                                ",
"                  . . . . . . .                 ",
"                . + @ # $ % & * .               ",
"              . = - ; . . . > , ' .             ",
"            . ) - ! .       . ~ { ]             ",
"            . ^ / .           . ( _ .           ",
"            . : < .           . [ } .           ",
"            . | 1 .           . 2 / .           ",
"          . . 3 4 . . . . . . . 5 6 . .         ",
"        . 7 8 9 0 a b c c d c e f g h i .       ",
"        . j k l m n o p q r s t u v w x .       ",
"        . y z l A B C D E F G H I J K i .       ",
"        . L M N O P Q . . R S T U V W X .       ",
"        . Y Z `  ...+.@.R #.$.%.&.*.=.-..       ",
"        . ;.>.,.'.).!.~.. {.].^.&./.(._..       ",
"        . y :.N <.B [.}.. |.t 1.2.3.4.5..       ",
"        . 6.7.8.9.0.a.b.. c.d.e.J f.g.h..       ",
"        . i.j.A k.).l.m.n.o.p.^.q.r.s.t..       ",
"        . u.v.w.P x.y.z.A.B.C.D.E.V F.G..       ",
"        . H.I.J.K.L.M.N.O.P.Q.R.S.T.U.V..       ",
"          . . . . . . . . . . . . . . .         ",
"                                                ",
"                                                "};
