/* XPM */
static char * logo_xpm[] = {
"50 50 33 1",
" 	c None",
".	c #030204",
"+	c #868586",
"@	c #A20407",
"#	c #4A494A",
"$	c #530204",
"%	c #AD4A31",
"&	c #CF060F",
"*	c #2C2C2B",
"=	c #D0CECE",
"-	c #4A3019",
";	c #2B0505",
">	c #8C2F04",
",	c #FC020C",
"'	c #6F0405",
")	c #ADADAB",
"!	c #B0160A",
"~	c #EAEAE9",
"{	c #676767",
"]	c #A37274",
"^	c #B99093",
"/	c #AF3525",
"(	c #703304",
"_	c #575654",
":	c #BDBDBB",
"<	c #393839",
"[	c #18181A",
"}	c #939395",
"|	c #FEFEFC",
"1	c #777776",
"2	c #501B07",
"3	c #2E1707",
"4	c #6E1E04",
"                  ){                              ",
"                  +.)                             ",
"                  ~@[~                            ",
"                   %@<                            ",
"                   ^,$1                           ",
"                   =&,;:   :+=                    ",
"                   ~&,!<  =<[                     ",
"                   ~&,&(= %;1                     ",
"                   ~&,!-~:&[)                     ",
"     =}}}}}}}}}}}}}1,,(<}/&({}}}}}}}}}}}}}}})     ",
"    =[#############',!2#*&,(*###############*#    ",
"    )*||||||||||||],,>{|],,()|||||||||||||||:[    ",
"    )*|||||||||||),,!(=|!,,>1|||||||||||||||:[    ",
"    )*||||||||===!,,/<~=,,,!#~||||||||||||||:[    ",
"    )*||1.....$.$,,,%...,,,&3............*=|:[    ",
"    )*||.....';.&,,,%..$,,,,4.............1|:[    ",
"    )*||.....&..,,,,/..;,,,,!;............{|:[    ",
"    )*||....;&.;,,,,&2.;,,,,,4............{|:[    ",
"    )*||....@@(#,,,,,@.{&,,,,&3#1+++1#....{|:[    ",
"    )*||....&&(),,,,,,'*/,,,,,!2:||||~....{|:[    ",
"    )*||...;,&>}/,,,,,,'[&,,,,,><|||||[...{|:[    ",
"    )*||...',,%_^,,,,,,,2$,,,,,&2:|||~[...{|:[    ",
"    )*||...@,,!-=!,,,,,,&3&,,,,,@{|||~[...{|:[    ",
"    )*||...@,,,>{^,,,,,,,4$,,,,,&*|||~[...{|:[    ",
"    )*||...&,,,!-:!,,,,,,&;,,,,,,;=||~[...{|:[    ",
"    )*||...@,,,,>-^,,,,,,,&,,,,,,')||~[...{|:[    ",
"    )*||...',,,,,21&,,,,,,,,,,,,,@{||~[...{|:[    ",
"    )*||...;,,,,,&[/,,,,,,,,,,,,,&#||~[...{|:[    ",
"    )*||....@,,,,,'2,,,,,,,,,,,,,,[||~[...{|:[    ",
"    )*||....;,,,,,&@,,,,,,,,,,,,,,;~|~[...{|:[    ",
"    )*||....*/,,,,,,,,,,,,,,,,,,,,2=|~[...{|:[    ",
"    )*||....<:&,,,,,,,,,,,,,,,,,,&()|~[...{|:[    ",
"    )*||....<|],,,,,,,,,,,,,,,,,,@<~|~[...{|:[    ",
"    )*||....*||%,,,,,,,,,,,,,,,,&[=||~....{|:[    ",
"    )*||.....{1{',,,,,,,,,,,,,,,$<11+_....{|:[    ",
"    )*||.........',,,,,,,,,,,,,$..........{|:[    ",
"    )*||..........',,,,,,,,,,,$...........{|:[    ",
"    )*||...........;@,,,,,,&@.............+|:[    ",
"    )*||)#<<<<<<<<<<[.$$''>;..[<<<<<<<<<<{~|:[    ",
"    )*|||||||||||||~*.........<|||||||||||||:[    ",
"    )*|||||||||||||_...........{~|||||||||||:[    ",
"    )*||||||||||~}[.............*}~|||||||||:[    ",
"    )*||||||||||+*****************)|||||||||:[    ",
"    )*||||||||||||||||||||||||||||||||||||||:[    ",
"    =.{{{{{{{{{{{{{{{{{{{{{{{{{{{{{{{{{{{{{{<#    ",
"     :11111111111111111111111111111111111111+     ",
"                                                  ",
"                                                  ",
"                                                  ",
"                                                  "};
