#define bat4_width 150
#define bat4_height 110
static char bat4_bits[] = {
 0x00,0x00,0x00,0x00,0x00,0x00,0x00,0x00,0x00,0x00,0x00,0x00,0x00,0x00,0x00,
 0x00,0x00,0x00,0xc0,0x00,0x00,0x00,0x00,0x00,0x00,0x00,0x00,0x00,0x00,0x00,
 0x00,0x00,0x00,0x00,0x00,0x00,0x00,0xc0,0x00,0x00,0x00,0x00,0x00,0x00,0x00,
 0x00,0x00,0x00,0x00,0x00,0x00,0x00,0x00,0x00,0x00,0x00,0xc0,0x00,0x00,0x00,
 0x00,0x00,0x00,0x00,0x00,0x00,0x00,0x00,0x00,0x00,0x00,0x00,0x00,0x00,0x00,
 0xc0,0x00,0x00,0x00,0x00,0x00,0x00,0x00,0x00,0x00,0x00,0x00,0x00,0x00,0x00,
 0x00,0x00,0x00,0x00,0xc0,0x00,0x00,0x00,0x00,0x00,0x00,0x00,0x00,0x00,0x00,
 0x00,0x00,0x00,0x00,0x00,0x00,0x00,0x00,0xc0,0x00,0x00,0x00,0x00,0x00,0x00,
 0x00,0x00,0x00,0x00,0x00,0x00,0x00,0x00,0x00,0x00,0x00,0x00,0xc0,0x00,0x00,
 0x00,0x00,0x00,0x00,0x00,0x00,0x00,0x00,0x00,0x00,0x00,0x00,0x00,0x00,0x00,
 0x00,0xc0,0x00,0x00,0x00,0x00,0x00,0x07,0x00,0x00,0x00,0x00,0x00,0x00,0x00,
 0x00,0x00,0x00,0x00,0x00,0xc0,0x00,0x00,0x00,0x00,0x80,0x01,0x00,0x00,0x00,
 0x00,0x00,0x00,0x00,0x00,0x00,0x00,0x00,0x00,0xc0,0x00,0x00,0x00,0x00,0xc0,
 0x00,0x00,0x00,0x00,0x00,0x00,0x00,0x00,0x00,0x00,0x00,0x00,0x00,0xc0,0x00,
 0x00,0x00,0x00,0x60,0x00,0x00,0x00,0x00,0x00,0x00,0x00,0x00,0x00,0x00,0x00,
 0x00,0x00,0xc0,0x00,0x00,0x00,0x00,0x60,0x00,0x00,0x00,0x00,0x00,0x00,0x00,
 0x00,0x00,0x00,0x00,0x00,0x00,0xc0,0x00,0x00,0x00,0x00,0x70,0x00,0x00,0x00,
 0x00,0x00,0x00,0x00,0x00,0x00,0x00,0x00,0x00,0x00,0xc0,0x00,0x00,0x00,0x00,
 0xe0,0x80,0x00,0x00,0x00,0x00,0x00,0x00,0x00,0x00,0x00,0x00,0x00,0x00,0xc0,
 0x00,0x00,0x00,0x00,0x98,0xe1,0x03,0x00,0x00,0x00,0x00,0x00,0x00,0x00,0x00,
 0x00,0x00,0x00,0xc0,0x00,0x00,0x00,0x00,0x0c,0x33,0x00,0x00,0x00,0x00,0x00,
 0x00,0x00,0x00,0x00,0x00,0x00,0x00,0xc0,0x00,0x00,0x00,0x00,0x1c,0x1e,0x00,
 0x00,0x00,0x00,0x00,0x00,0x00,0x00,0x00,0x00,0x00,0x00,0xc0,0x00,0x00,0x00,
 0x00,0x0c,0x18,0x00,0x00,0x00,0x00,0x00,0x00,0x00,0x00,0x00,0x00,0x00,0x00,
 0xc0,0x00,0x00,0x00,0x00,0x38,0x18,0x00,0x00,0x00,0x00,0x00,0x00,0x00,0xe0,
 0x00,0x00,0x00,0x00,0xc0,0x00,0x00,0x00,0x00,0xe0,0x1c,0x00,0x00,0x00,0x00,
 0x00,0x00,0x00,0x80,0x00,0x00,0x00,0x00,0xc0,0x00,0x00,0x00,0x00,0x80,0x1f,
 0x00,0x00,0x00,0x00,0x00,0x00,0x00,0x80,0x00,0x00,0x00,0x00,0xc0,0x00,0x00,
 0x00,0x00,0x00,0x38,0x00,0x00,0x00,0x00,0x00,0x00,0x00,0x80,0x00,0x00,0x00,
 0x00,0xc0,0x00,0x00,0x00,0x00,0x00,0x18,0x00,0x00,0x00,0x00,0x00,0x00,0x00,
 0x9f,0x18,0x00,0x00,0x00,0xc0,0x00,0x00,0x00,0x00,0x00,0x38,0x00,0x00,0x00,
 0x00,0x00,0x00,0x80,0xd1,0x0c,0x00,0x00,0x00,0xc0,0x00,0x00,0x00,0x00,0x00,
 0x38,0x00,0x00,0x00,0x00,0x00,0x00,0x80,0x70,0x07,0x00,0x00,0x00,0xc0,0x00,
 0x00,0x00,0x00,0x00,0x30,0x00,0x00,0x00,0x00,0x00,0x00,0xc0,0xf0,0x01,0x00,
 0x00,0x00,0xc0,0x00,0x00,0x00,0x00,0x00,0x30,0x00,0x00,0x00,0x00,0x00,0x00,
 0x00,0xf0,0x00,0x00,0x00,0x00,0xc0,0x00,0x00,0x00,0x00,0x00,0x30,0x00,0x00,
 0x00,0x00,0x00,0x00,0x00,0x78,0x00,0x00,0x00,0x00,0xc0,0x00,0x00,0x00,0x00,
 0x00,0x70,0x00,0x00,0x00,0x00,0x00,0x00,0x00,0x70,0x00,0x00,0x00,0x00,0xc0,
 0x00,0x00,0x00,0x00,0x00,0x70,0x00,0x00,0x00,0x00,0x00,0x00,0x00,0x58,0x03,
 0x00,0x00,0x00,0xc0,0x00,0x00,0x00,0x00,0x00,0x70,0x00,0x00,0x00,0x00,0x00,
 0x00,0x00,0x48,0x01,0x00,0x00,0x00,0xc0,0x00,0x00,0x00,0x00,0x00,0xf0,0x00,
 0x00,0x00,0x00,0x00,0x00,0x00,0x44,0x00,0x00,0x00,0x00,0xc0,0x00,0x00,0x00,
 0x00,0x00,0xb0,0x00,0x00,0x00,0x00,0x00,0x00,0x00,0x54,0x00,0x00,0x00,0x00,
 0xc0,0x00,0x00,0x00,0x00,0x00,0xb0,0x01,0x00,0x00,0x00,0x00,0x00,0x00,0xd2,
 0x00,0x00,0x00,0x00,0xc0,0x00,0x00,0x00,0x00,0x00,0xa0,0x01,0x00,0x00,0x00,
 0x00,0x00,0x00,0x91,0x00,0x00,0x00,0x00,0xc0,0x00,0x00,0x00,0x00,0x00,0x30,
 0x03,0x00,0x00,0x00,0x00,0x00,0x80,0x81,0x00,0x00,0x00,0x00,0xc0,0x00,0x00,
 0x00,0x00,0x00,0x70,0x06,0x00,0x00,0x00,0x00,0x00,0x80,0x90,0x01,0x00,0x00,
 0x00,0xc0,0x00,0x00,0x00,0x00,0x00,0x50,0x0c,0x00,0x00,0x00,0x00,0x00,0x40,
 0x10,0x01,0x00,0x00,0x00,0xc0,0x00,0x00,0x00,0x00,0x00,0x50,0x18,0x00,0x00,
 0x00,0x00,0x00,0x20,0x08,0x01,0x00,0x00,0x00,0xc0,0x00,0x00,0x00,0x00,0x00,
 0x10,0x30,0x00,0x00,0x00,0x00,0x00,0x10,0x08,0x03,0x00,0x00,0x00,0xc0,0x00,
 0x00,0x00,0x00,0x00,0x10,0x60,0x00,0x00,0x00,0x00,0x00,0x08,0x18,0x02,0x00,
 0x00,0x00,0xc0,0x00,0x00,0x00,0x00,0x00,0x10,0xc0,0x01,0x00,0x02,0x00,0x00,
 0x04,0x04,0x02,0x00,0x00,0x00,0xc0,0x00,0x00,0x00,0x00,0x00,0x18,0x80,0x03,
 0x00,0x02,0x00,0x00,0x02,0x24,0x06,0x00,0x00,0x00,0xc0,0x00,0x00,0x00,0x00,
 0x00,0x08,0x00,0x0e,0xc0,0x05,0x00,0x00,0x01,0x24,0x0c,0x00,0x00,0x00,0xc0,
 0x00,0x00,0x00,0x00,0x00,0x08,0x00,0x1c,0x00,0x07,0x00,0x80,0x00,0x06,0x08,
 0x00,0x00,0x00,0xc0,0x00,0x00,0x00,0x00,0x00,0x08,0x00,0x70,0x00,0x06,0x00,
 0x60,0x00,0x42,0x18,0x00,0x00,0x00,0xc0,0x00,0x00,0x00,0x00,0x00,0x04,0x00,
 0xc0,0x01,0x04,0x08,0x30,0x00,0x84,0x30,0x00,0x00,0x00,0xc0,0x00,0x00,0x00,
 0x00,0x00,0x04,0x00,0x80,0x03,0x0c,0x0c,0x08,0x00,0x01,0x60,0x00,0x00,0x00,
 0xc0,0x00,0x00,0x00,0x00,0x00,0x06,0x00,0x00,0x0e,0x88,0x0f,0x04,0x00,0x00,
 0x41,0x00,0x00,0x00,0xc0,0x00,0x00,0x00,0x00,0x00,0x02,0x00,0x00,0x18,0xcc,
 0x03,0x03,0x00,0x00,0x82,0x01,0x00,0x00,0xc0,0x00,0x00,0x00,0x00,0x00,0x03,
 0x01,0x00,0xc0,0xff,0x83,0x01,0x80,0x02,0x80,0x01,0x00,0x00,0xc0,0x00,0x00,
 0x00,0x00,0x00,0x01,0x00,0x00,0xe0,0xff,0x66,0x00,0x80,0x00,0x08,0x06,0x00,
 0x00,0xc0,0x00,0x00,0x00,0x00,0x00,0x01,0x00,0xc0,0x31,0x3c,0x16,0x00,0x40,
 0x02,0x10,0x0c,0x00,0x00,0xc0,0x00,0x00,0x00,0x00,0x80,0x00,0x00,0xf0,0xbf,
 0x69,0x06,0x00,0x40,0x00,0x20,0x18,0x00,0x00,0xc0,0x00,0x00,0x00,0x00,0xc0,
 0x00,0x00,0x18,0xb0,0x4d,0x06,0x00,0x00,0x00,0xc0,0x70,0x00,0x00,0xc0,0x00,
 0x00,0x00,0x00,0x40,0x00,0x00,0x18,0xe0,0x1f,0x03,0x00,0x20,0x00,0x00,0xe1,
 0x00,0x00,0xc0,0x00,0x00,0x00,0x00,0x20,0x00,0x00,0x08,0xe0,0xff,0x01,0x00,
 0x00,0x00,0x00,0x82,0x03,0x00,0xc0,0x00,0x00,0x00,0x00,0x20,0x00,0x00,0x08,
 0xc0,0x7b,0x7e,0x00,0x10,0x01,0x00,0x08,0x06,0x00,0xc0,0x00,0x00,0x00,0x00,
 0x10,0x00,0x80,0x1b,0x40,0x79,0xe0,0x00,0x08,0x00,0x00,0x00,0x0c,0x00,0xc0,
 0x00,0x00,0x00,0x00,0x18,0x00,0xe0,0x1f,0x40,0x29,0x80,0x01,0x08,0x00,0x00,
 0x00,0x38,0x00,0xc0,0x00,0x00,0x00,0x00,0x0c,0x00,0x30,0x1d,0x40,0x29,0x00,
 0x03,0x04,0x01,0x00,0xf0,0x3f,0x00,0xc0,0x00,0x00,0x00,0x00,0xe6,0x01,0x10,
 0x38,0x40,0x29,0x00,0x02,0x00,0x00,0x00,0x5e,0x70,0x00,0xc0,0x00,0x00,0x00,
 0x00,0xff,0x07,0x18,0x00,0x60,0x29,0x00,0x06,0x02,0x01,0x80,0x03,0xc0,0x00,
 0xc0,0x00,0x00,0x00,0x80,0x07,0x0c,0x18,0x00,0x40,0x29,0x00,0x04,0x02,0x00,
 0xe0,0x00,0x00,0x00,0xc0,0x00,0x00,0x00,0x00,0x01,0x18,0x0c,0x00,0xc0,0x29,
 0x00,0x0c,0x01,0x00,0x38,0x00,0x00,0x00,0xc0,0x00,0x00,0x00,0x00,0x00,0x30,
 0x0c,0x00,0xa0,0x28,0x00,0x8c,0x80,0x00,0x0e,0x00,0x00,0x00,0xc0,0x00,0x00,
 0x00,0x00,0x00,0x60,0x0c,0x00,0xe0,0x38,0x00,0x8c,0x80,0x00,0x03,0x00,0x00,
 0x00,0xc0,0x00,0x00,0x00,0x00,0x00,0xc0,0x04,0x00,0xa0,0x18,0x00,0x0c,0x00,
 0x80,0x01,0x00,0x00,0x00,0xc0,0x00,0x00,0x00,0x00,0x00,0x80,0x05,0x00,0xe0,
 0x18,0x00,0x0c,0x80,0xc0,0x00,0x00,0x00,0x00,0xc0,0x00,0x00,0x00,0x00,0x00,
 0x00,0x05,0x00,0xe0,0x18,0x00,0x0c,0x00,0x60,0x00,0x00,0x00,0x00,0xc0,0x00,
 0x00,0x00,0x00,0x00,0x00,0x07,0x00,0xe0,0x18,0x00,0x04,0x00,0x10,0x00,0x00,
 0x00,0x00,0xc0,0x00,0x00,0x00,0x00,0x00,0x00,0x06,0x00,0xe0,0x18,0x00,0x04,
 0x40,0x18,0x00,0x00,0x00,0x00,0xc0,0x00,0x00,0x00,0x00,0x00,0x00,0x0c,0x00,
 0x60,0x1c,0x00,0xfe,0x03,0x0c,0x00,0x00,0x00,0x00,0xc0,0x00,0x00,0x00,0x00,
 0x00,0x00,0x0c,0x00,0x60,0x1c,0x00,0x0c,0x07,0x06,0x00,0x00,0x00,0x00,0xc0,
 0x00,0x00,0x00,0x00,0x00,0x00,0x0c,0x00,0x60,0x0c,0x00,0x00,0x44,0x03,0x00,
 0x00,0x00,0x00,0xc0,0x00,0x00,0x00,0x00,0x00,0x00,0x08,0x00,0x60,0x0c,0x00,
 0x00,0x0c,0x01,0x00,0x00,0x00,0x00,0xc0,0x00,0x00,0x00,0x00,0x00,0x00,0x18,
 0x00,0x60,0x0c,0x00,0x00,0x98,0x01,0x00,0x00,0x00,0x00,0xc0,0x00,0x00,0x00,
 0x00,0x00,0x00,0x18,0x00,0x60,0x0c,0x00,0x00,0x98,0x00,0x00,0x00,0x00,0x00,
 0xc0,0x00,0x00,0x00,0x00,0x00,0x00,0x18,0x00,0x60,0x0c,0x00,0x00,0xd0,0x00,
 0x00,0x00,0x00,0x00,0xc0,0x00,0x00,0x00,0x00,0x00,0x00,0x30,0x00,0x20,0x0c,
 0x00,0x00,0x70,0x00,0x00,0x00,0x00,0x00,0xc0,0x00,0x00,0x00,0x00,0x00,0x00,
 0x30,0x00,0x00,0x00,0x00,0x00,0x70,0x00,0x00,0x00,0x00,0x00,0xc0,0x00,0x00,
 0x00,0x00,0x00,0x00,0x30,0x00,0x00,0x00,0x00,0x00,0x30,0x00,0x00,0x00,0x00,
 0x00,0xc0,0x00,0x00,0x00,0x00,0x00,0x00,0x60,0x00,0x00,0x00,0x00,0x00,0x20,
 0x00,0x00,0x00,0x00,0x00,0xc0,0x00,0x00,0x00,0x00,0x00,0x00,0x60,0x00,0x00,
 0x00,0x00,0x00,0x30,0x00,0x00,0x00,0x00,0x00,0xc0,0x00,0x00,0x00,0x00,0x00,
 0x00,0xc0,0x00,0x00,0x00,0x00,0x00,0x30,0x00,0x00,0x00,0x00,0x00,0xc0,0x00,
 0x00,0x00,0x00,0x00,0x00,0xc0,0x00,0x00,0x00,0x00,0x00,0x30,0x00,0x00,0x00,
 0x00,0x00,0xc0,0x00,0x00,0x00,0x00,0x00,0x00,0xc0,0x00,0x00,0x00,0x00,0x00,
 0x10,0x00,0x00,0x00,0x00,0x00,0xc0,0x00,0x00,0x00,0x00,0x00,0x00,0xc0,0x00,
 0x00,0x00,0x00,0x00,0x10,0x00,0x00,0x00,0x00,0x00,0xc0,0x00,0x00,0x00,0x00,
 0x00,0x00,0xc0,0x00,0x00,0x00,0x00,0x00,0x10,0x00,0x00,0x00,0x00,0x00,0xc0,
 0x00,0x00,0x00,0x00,0x00,0x00,0xc0,0x00,0x00,0x00,0x00,0x00,0x10,0x00,0x00,
 0x00,0x00,0x00,0xc0,0x00,0x00,0x00,0x00,0x00,0x00,0x00,0x00,0x00,0x00,0x00,
 0x00,0x30,0x00,0x00,0x00,0x00,0x00,0xc0,0x00,0x00,0x00,0x00,0x00,0x00,0x00,
 0x00,0x00,0x00,0x00,0x00,0x20,0x00,0x00,0x00,0x00,0x00,0xc0,0x00,0x00,0x00,
 0x00,0x00,0x00,0x00,0x00,0x00,0x00,0x00,0x00,0x00,0x00,0x00,0x00,0x00,0x00,
 0xc0,0x00,0x00,0x00,0x00,0x00,0x00,0x00,0x00,0x00,0x00,0x00,0x00,0x00,0x00,
 0x00,0x00,0x00,0x00,0xc0,0x00,0x00,0x00,0x00,0x00,0x00,0x00,0x00,0x00,0x00,
 0x00,0x00,0x00,0x00,0x00,0x00,0x00,0x00,0xc0,0x00,0x00,0x00,0x00,0x00,0x00,
 0x00,0x00,0x00,0x00,0x00,0x00,0x00,0x00,0x00,0x00,0x00,0x00,0xc0,0x00,0x00,
 0x00,0x00,0x00,0x00,0x00,0x00,0x00,0x00,0x00,0x00,0x00,0x00,0x00,0x00,0x00,
 0x00,0xc0,0x00,0x00,0x00,0x00,0x00,0x00,0x00,0x00,0x00,0x00,0x00,0x00,0x00,
 0x00,0x00,0x00,0x00,0x00,0xc0,0x00,0x00,0x00,0x00,0x00,0x00,0x00,0x00,0x00,
 0x00,0x00,0x00,0x00,0x00,0x00,0x00,0x00,0x00,0xc0,0x00,0x00,0x00,0x00,0x00,
 0x00,0x00,0x00,0x00,0x00,0x00,0x00,0x00,0x00,0x00,0x00,0x00,0x00,0xc0,0x00,
 0x00,0x00,0x00,0x00,0x00,0x00,0x00,0x00,0x00,0x00,0x00,0x00,0x00,0x00,0x00,
 0x00,0x00,0xc0,0x00,0x00,0x00,0x00,0x00,0x00,0x00,0x00,0x00,0x00,0x00,0x00,
 0x00,0x00,0x00,0x00,0x00,0x00,0xc0,0x00,0x00,0x00,0x00,0x00,0x00,0x00,0x00,
 0x00,0x00,0x00,0x00,0x00,0x00,0x00,0x00,0x00,0x00,0xc0,0x00,0x00,0x00,0x00,
 0x00,0x00,0x00,0x00,0x00,0x00,0x00,0x00,0x00,0x00,0x00,0x00,0x00,0x00,0xc0,
 0x00,0x00,0x00,0x00,0x00,0x00,0x00,0x00,0x00,0x00,0x00,0x00,0x00,0x00,0x00,
 0x00,0x00,0x00,0xc0,0x00,0x00,0x00,0x00,0x00,0x00,0x00,0x00,0x00,0x00,0x00,
 0x00,0x00,0x00,0x00,0x00,0x00,0x00,0xc0,0x00,0x00,0x00,0x00,0x00,0x00,0x00,
 0x00,0x00,0x00,0x00,0x00,0x00,0x00,0x00,0x00,0x00,0x00,0xc0,0x00,0x00,0x00,
 0x00,0x00,0x00,0x00,0x00,0x00,0x00,0x00,0x00,0x00,0x00,0x00,0x00,0x00,0x00,
 0xc0,0x00,0x00,0x00,0x00,0x00,0x00,0x00,0x00,0x00,0x00,0x00,0x00,0x00,0x00,
 0x00,0x00,0x00,0x00,0xc0};
