#define bat1_width 150
#define bat1_height 110
static char bat1_bits[] = {
 0x00,0x00,0x00,0x00,0x00,0x00,0x00,0x00,0x00,0x00,0x00,0x00,0x00,0x00,0x00,
 0x00,0x00,0x00,0xc0,0x00,0x00,0x00,0x00,0x00,0x00,0x00,0x00,0x00,0x00,0x00,
 0x00,0x00,0x00,0x00,0x00,0x00,0x00,0xc0,0x00,0x00,0x00,0x00,0x00,0x00,0x00,
 0x00,0x00,0x00,0x00,0x00,0x00,0x00,0x00,0x00,0x00,0x00,0xc0,0x00,0x00,0x00,
 0x00,0x00,0x00,0x00,0x00,0x00,0x00,0x00,0x00,0x00,0x00,0x00,0x00,0x00,0x00,
 0xc0,0x00,0x00,0x00,0x00,0x00,0x00,0x00,0x00,0x00,0x00,0x00,0x00,0x00,0x00,
 0x00,0x00,0x00,0x00,0xc0,0x00,0x00,0x00,0x00,0x00,0x00,0x00,0x00,0x00,0x00,
 0x00,0x00,0x00,0x00,0x00,0x00,0x00,0x00,0xc0,0x00,0x00,0x00,0x00,0x00,0x00,
 0x00,0x00,0x00,0x00,0x00,0x00,0x00,0x00,0x00,0x00,0x00,0x00,0xc0,0x00,0x00,
 0x00,0x00,0x00,0x00,0x00,0x00,0x00,0x00,0x00,0x00,0x00,0x00,0x00,0x00,0x00,
 0x00,0xc0,0x00,0x00,0x00,0x00,0x00,0x00,0x00,0x00,0x00,0x00,0x00,0x00,0x00,
 0x00,0x00,0x00,0x00,0x00,0xc0,0x00,0x00,0x00,0x00,0x00,0x00,0x00,0x00,0x00,
 0x00,0x00,0x00,0x00,0x00,0x00,0x00,0x00,0x00,0xc0,0x00,0x00,0x00,0x00,0x00,
 0x00,0x00,0x00,0x00,0x00,0x00,0x00,0x00,0x00,0x00,0x00,0x00,0x00,0xc0,0x00,
 0x00,0x00,0x00,0x00,0x00,0x00,0x00,0x00,0x00,0x00,0x00,0x00,0x00,0x00,0x00,
 0x00,0x00,0xc0,0x00,0x00,0x00,0x00,0x00,0x00,0x00,0x00,0x00,0x00,0x00,0x00,
 0x00,0x00,0x00,0x00,0x00,0x00,0xc0,0x00,0x00,0x00,0x00,0x00,0x00,0x00,0x00,
 0x00,0x00,0x00,0x00,0x00,0x00,0x00,0x00,0x00,0x00,0xc0,0x00,0x00,0x00,0x00,
 0x00,0x00,0x00,0x00,0x00,0x00,0x00,0x00,0x00,0x00,0x00,0x00,0x00,0x00,0xc0,
 0x00,0x00,0x00,0x00,0x00,0x00,0x00,0x00,0x00,0x00,0x00,0x00,0x00,0x00,0x00,
 0x00,0x00,0x00,0xc0,0x00,0x00,0x00,0x00,0x00,0x00,0x00,0x00,0x00,0x00,0x00,
 0x00,0x00,0x00,0x00,0x00,0x00,0x00,0xc0,0x00,0x00,0x00,0x00,0x00,0x00,0x00,
 0x00,0x00,0x00,0x00,0x00,0x00,0x00,0x00,0x00,0x00,0x00,0xc0,0x00,0x00,0x00,
 0x00,0x00,0x00,0x00,0x00,0x00,0x00,0x00,0x00,0x00,0x00,0x00,0x00,0x00,0x00,
 0xc0,0x00,0x00,0x00,0x00,0x00,0x00,0x00,0x00,0x00,0x00,0x00,0x00,0x00,0x00,
 0x00,0x00,0x00,0x00,0xc0,0x00,0x00,0x00,0x00,0x00,0x00,0x00,0x00,0x00,0x00,
 0x00,0x00,0x00,0x00,0x00,0x00,0x00,0x00,0xc0,0x00,0x00,0x00,0x00,0x00,0x00,
 0x00,0x00,0x00,0x00,0x00,0x00,0x00,0x00,0x00,0x00,0x00,0x00,0xc0,0x00,0x00,
 0x00,0x00,0x00,0x00,0x00,0x00,0x00,0x00,0x00,0x00,0x00,0x00,0x00,0x00,0x00,
 0x00,0xc0,0x00,0x00,0x00,0x00,0x00,0x00,0x00,0x00,0x00,0x00,0x00,0x00,0x00,
 0x00,0x00,0x00,0x00,0x00,0xc0,0x00,0x00,0x00,0x00,0x00,0x00,0x00,0x00,0x00,
 0x00,0x00,0x00,0x00,0x00,0x00,0x00,0x00,0x00,0xc0,0x00,0x00,0x00,0x00,0x00,
 0x00,0x00,0x00,0x00,0x00,0x00,0x00,0x00,0x00,0x00,0x00,0x00,0x00,0xc0,0x00,
 0x00,0x00,0x00,0x00,0x00,0x00,0x00,0x00,0x00,0x00,0x00,0x00,0x00,0x00,0x00,
 0x00,0x00,0xc0,0x00,0x00,0x00,0x00,0x00,0x00,0x00,0x00,0x00,0x00,0x00,0x00,
 0x00,0x00,0x00,0x00,0x00,0x00,0xc0,0x00,0x00,0x00,0x00,0x00,0x00,0x00,0x00,
 0x00,0x00,0x00,0x00,0x00,0x00,0x00,0x00,0x00,0x00,0xc0,0x00,0x00,0x00,0x00,
 0x00,0x00,0x00,0x00,0x00,0x00,0x00,0x00,0x00,0x00,0x00,0x00,0x00,0x00,0xc0,
 0x00,0x00,0x00,0x00,0x00,0x00,0x00,0x00,0x00,0x00,0x00,0x00,0x00,0x00,0x00,
 0x00,0x00,0x00,0xc0,0x00,0x00,0x00,0x00,0x00,0x00,0x00,0x00,0x00,0x00,0x00,
 0x00,0x00,0x00,0x00,0x00,0x00,0x00,0xc0,0x00,0x00,0x00,0x00,0x00,0x00,0x00,
 0x00,0x00,0x00,0x00,0x00,0x00,0x00,0x00,0x00,0x00,0x00,0xc0,0x00,0x00,0x00,
 0x00,0x00,0x00,0x00,0x00,0x00,0x00,0x00,0x00,0x00,0x00,0x00,0x00,0x00,0x00,
 0xc0,0x00,0x00,0x00,0x00,0x00,0x00,0x00,0x00,0x00,0x00,0x00,0x00,0x00,0x00,
 0x00,0x00,0x00,0x00,0xc0,0x00,0x00,0x00,0x00,0x00,0x00,0x00,0x00,0xc0,0x00,
 0x00,0x00,0x00,0x00,0x00,0x00,0x00,0x00,0xc0,0x00,0x00,0x00,0x00,0x00,0x00,
 0x00,0x00,0xc0,0x01,0x00,0x00,0x00,0x00,0x00,0x00,0x00,0x00,0xc0,0x00,0x00,
 0x00,0x00,0x00,0x00,0x00,0x00,0x80,0x03,0x00,0x00,0x00,0x00,0x00,0x00,0x00,
 0x00,0xc0,0x00,0x00,0x00,0x00,0x00,0x00,0x00,0x00,0x00,0x07,0x1c,0x00,0x00,
 0x00,0x00,0x00,0x00,0x00,0xc0,0x00,0x00,0x00,0x00,0x00,0x00,0x00,0x00,0x00,
 0x06,0x0e,0x00,0x00,0x00,0x00,0x00,0x00,0x00,0xc0,0x00,0x00,0x00,0x00,0x00,
 0x00,0x00,0x00,0x00,0x84,0x07,0x00,0x00,0x00,0x00,0x00,0x00,0x00,0xc0,0x00,
 0x00,0x00,0x00,0x00,0x00,0x00,0x00,0x00,0xcc,0x07,0x00,0x00,0x00,0x00,0x00,
 0x00,0x00,0xc0,0x00,0x00,0x00,0x00,0x00,0x00,0x00,0x00,0x00,0xf8,0x03,0x00,
 0x00,0x00,0x00,0x00,0x00,0x00,0xc0,0x00,0x00,0x00,0x00,0x00,0x00,0x00,0xfc,
 0x47,0xf8,0x01,0x00,0x00,0x00,0x00,0x00,0x00,0x00,0xc0,0x00,0x00,0x00,0x00,
 0x00,0x00,0x00,0x0f,0xf4,0xff,0x1d,0x00,0x00,0x00,0x00,0x00,0x00,0x00,0xc0,
 0x00,0x00,0x00,0x00,0x00,0x00,0x80,0x01,0xd8,0x3e,0x33,0x00,0x00,0x00,0x00,
 0x00,0x00,0x00,0xc0,0x00,0x00,0x00,0x00,0x00,0x00,0xc0,0x00,0xd8,0x9d,0x66,
 0x00,0x00,0x00,0x00,0x00,0x00,0x00,0xc0,0x00,0x00,0x00,0x00,0x00,0x00,0x60,
 0x00,0x18,0xdf,0xc6,0x00,0x00,0x00,0x00,0x00,0x00,0x00,0xc0,0x00,0x00,0x00,
 0x00,0x00,0x00,0x30,0x80,0x77,0x1b,0x86,0x01,0x00,0x00,0x00,0x00,0x00,0x00,
 0xc0,0x00,0x00,0x00,0x00,0x00,0x00,0x18,0xe0,0xff,0x31,0x16,0x03,0x00,0x00,
 0x00,0x00,0x00,0x00,0xc0,0x00,0x00,0x00,0x00,0x00,0x00,0x0c,0x70,0xc0,0xf9,
 0x1b,0x06,0x00,0x00,0x00,0x00,0x00,0x00,0xc0,0x00,0x00,0x00,0x00,0x00,0x00,
 0x06,0x18,0xc0,0xfb,0x33,0x04,0x00,0x00,0x00,0x00,0x00,0x00,0xc0,0x00,0x00,
 0x00,0x00,0x00,0x00,0x02,0x18,0x80,0x39,0x20,0x0c,0x00,0x00,0x00,0x00,0x00,
 0x00,0xc0,0x00,0x00,0x00,0x00,0x00,0x00,0x03,0x18,0xc0,0x39,0x60,0x08,0x00,
 0x00,0x00,0x00,0x00,0x00,0xc0,0x00,0x00,0x00,0x00,0x00,0x00,0x01,0x1a,0x80,
 0x19,0x40,0x1a,0x00,0x00,0x00,0x00,0x00,0x00,0xc0,0x00,0x00,0x00,0x00,0x00,
 0x80,0x81,0x1f,0xc0,0x1d,0xc0,0x10,0x00,0x00,0x00,0x00,0x00,0x00,0xc0,0x00,
 0x00,0x00,0x00,0x00,0xc0,0x80,0x39,0xc0,0x14,0xc0,0x30,0x00,0x00,0x00,0x00,
 0x00,0x00,0xc0,0x00,0x00,0x00,0x00,0x00,0xc0,0x80,0x00,0xc0,0x14,0xc0,0x24,
 0x00,0x00,0x00,0x00,0x00,0x00,0xc0,0x00,0x00,0x00,0x00,0x00,0x40,0xc0,0x00,
 0xc0,0x14,0xc0,0x60,0x00,0x00,0x00,0x00,0x00,0x00,0xc0,0x00,0x00,0x00,0x00,
 0x00,0x60,0xc0,0x00,0xc0,0x14,0xc0,0x40,0x00,0x00,0x00,0x00,0x00,0x00,0xc0,
 0x00,0x00,0x00,0x00,0x00,0x60,0xc0,0x00,0xc0,0x1c,0x40,0x40,0x00,0x00,0x00,
 0x00,0x00,0x00,0xc0,0x00,0x00,0x00,0x00,0x00,0x20,0xc0,0x00,0xc0,0x0a,0x60,
 0xc0,0x00,0x00,0x00,0x00,0x00,0x00,0xc0,0x00,0x00,0x00,0x00,0x00,0x30,0x40,
 0x00,0xc0,0x0a,0x38,0xc0,0x00,0x00,0x00,0x00,0x00,0x00,0xc0,0x00,0x00,0x00,
 0x00,0x00,0x30,0x40,0x00,0xe0,0x0a,0x3c,0x80,0x00,0x00,0x00,0x00,0x00,0x00,
 0xc0,0x00,0x00,0x00,0x00,0x00,0x10,0x40,0x00,0x60,0x0a,0x1c,0x80,0x00,0x00,
 0x00,0x00,0x00,0x00,0xc0,0x00,0x00,0x00,0x00,0x00,0x10,0xc0,0x00,0x60,0x0e,
 0x18,0x80,0x01,0x00,0x00,0x00,0x00,0x00,0xc0,0x00,0x00,0x00,0x00,0x00,0x10,
 0xc0,0x00,0x60,0x0e,0x18,0x80,0x01,0x00,0x00,0x00,0x00,0x00,0xc0,0x00,0x00,
 0x00,0x00,0x00,0x10,0xc0,0x00,0x60,0x06,0x10,0x00,0x01,0x00,0x00,0x00,0x00,
 0x00,0xc0,0x00,0x00,0x00,0x00,0x00,0x18,0x80,0x00,0x60,0x06,0x30,0x00,0x01,
 0x00,0x00,0x00,0x00,0x00,0xc0,0x00,0x00,0x00,0x00,0x00,0x18,0x80,0x00,0x60,
 0x06,0x30,0x00,0x01,0x00,0x00,0x00,0x00,0x00,0xc0,0x00,0x00,0x00,0x00,0x00,
 0x18,0x80,0x01,0x20,0x07,0x30,0x00,0x03,0x00,0x00,0x00,0x00,0x00,0xc0,0x00,
 0x00,0x00,0x00,0x00,0x08,0x80,0x01,0x00,0x03,0x30,0x40,0x03,0x00,0x00,0x00,
 0x00,0x00,0xc0,0x00,0x00,0x00,0x00,0x00,0x18,0x00,0x01,0x00,0x00,0x10,0x00,
 0x02,0x00,0x00,0x00,0x00,0x00,0xc0,0x00,0x00,0x00,0x00,0x00,0x18,0x7f,0x03,
 0x00,0x00,0x10,0x00,0x03,0x00,0x00,0x00,0x00,0x00,0xc0,0x00,0x00,0x00,0x00,
 0x00,0x88,0xe3,0x03,0x00,0x00,0x18,0x00,0x02,0x00,0x00,0x00,0x00,0x00,0xc0,
 0x00,0x00,0x00,0x00,0x00,0xd8,0x81,0x07,0x00,0x00,0x18,0x80,0x02,0x00,0x00,
 0x00,0x00,0x00,0xc0,0x00,0x00,0x00,0x00,0x00,0xc8,0x00,0x07,0x00,0x00,0x08,
 0x00,0x02,0x00,0x00,0x00,0x00,0x00,0xc0,0x00,0x00,0x00,0x00,0x00,0x58,0x00,
 0x0e,0x00,0x00,0x08,0x80,0x02,0x00,0x00,0x00,0x00,0x00,0xc0,0x00,0x00,0x00,
 0x00,0x00,0x58,0x00,0x0c,0x00,0x00,0x0c,0x00,0x02,0x00,0x00,0x00,0x00,0x00,
 0xc0,0x00,0x00,0x00,0x00,0x00,0x50,0x00,0x1c,0x00,0x00,0x0c,0x80,0x06,0x00,
 0x00,0x00,0x00,0x00,0xc0,0x00,0x00,0x00,0x00,0x00,0x70,0x00,0x18,0x00,0x00,
 0x04,0x00,0x06,0x00,0x00,0x00,0x00,0x00,0xc0,0x00,0x00,0x00,0x00,0x00,0x50,
 0x00,0x00,0x00,0x00,0x06,0x80,0x06,0x00,0x00,0x00,0x00,0x00,0xc0,0x00,0x00,
 0x00,0x00,0x00,0x50,0x00,0x00,0x00,0x00,0x06,0x00,0x06,0x00,0x00,0x00,0x00,
 0x00,0xc0,0x00,0x00,0x00,0x00,0x00,0x70,0x00,0x00,0x00,0x00,0x02,0x00,0x02,
 0x00,0x00,0x00,0x00,0x00,0xc0,0x00,0x00,0x00,0x00,0x00,0x70,0x02,0x00,0x00,
 0x00,0x03,0x80,0x06,0x00,0x00,0x00,0x00,0x00,0xc0,0x00,0x00,0x00,0x00,0x00,
 0xf0,0x02,0x00,0x00,0x80,0x01,0x00,0x04,0x00,0x00,0x00,0x00,0x00,0xc0,0x00,
 0x00,0x00,0x00,0x00,0xb0,0x02,0x00,0x00,0x80,0x01,0x80,0x04,0x00,0x00,0x00,
 0x00,0x00,0xc0,0x00,0x00,0x00,0x00,0x00,0xa0,0x02,0x00,0x00,0xc0,0x01,0x00,
 0x04,0x00,0x00,0x00,0x00,0x00,0xc0,0x00,0x00,0x00,0x00,0x00,0xe0,0x02,0x00,
 0x00,0xe0,0xff,0x81,0x05,0x00,0x00,0x00,0x00,0x00,0xc0,0x00,0x00,0x00,0x00,
 0x00,0xe0,0x23,0x00,0x00,0xe0,0xa0,0x0f,0x05,0x00,0x00,0x00,0x00,0x00,0xc0,
 0x00,0x00,0x00,0x00,0x00,0xe0,0x23,0x00,0x00,0x00,0x00,0x9c,0x04,0x00,0x00,
 0x00,0x00,0x00,0xc0,0x00,0x00,0x00,0x00,0x00,0xe0,0x23,0x00,0x00,0x00,0x00,
 0xb0,0x06,0x00,0x00,0x00,0x00,0x00,0xc0,0x00,0x00,0x00,0x00,0x00,0xc0,0x33,
 0x00,0x00,0x00,0x00,0xe0,0x04,0x00,0x00,0x00,0x00,0x00,0xc0,0x00,0x00,0x00,
 0x00,0x00,0x80,0x13,0x00,0x00,0x00,0x00,0xc0,0x07,0x00,0x00,0x00,0x00,0x00,
 0xc0,0x00,0x00,0x00,0x00,0x00,0x80,0x1f,0x00,0x00,0x00,0x00,0x80,0x07,0x00,
 0x00,0x00,0x00,0x00,0xc0,0x00,0x00,0x00,0x00,0x00,0x00,0x0f,0x00,0x00,0x00,
 0x00,0x80,0x07,0x00,0x00,0x00,0x00,0x00,0xc0,0x00,0x00,0x00,0x00,0x00,0x00,
 0x03,0x00,0x00,0x00,0x00,0x00,0x0f,0x00,0x00,0x00,0x00,0x00,0xc0,0x00,0x00,
 0x00,0x00,0x00,0x00,0x03,0x06,0x00,0x00,0x00,0x00,0x0f,0x00,0x00,0x00,0x00,
 0x00,0xc0,0x00,0x00,0x00,0x00,0x00,0x00,0x02,0x02,0x00,0x00,0x00,0x82,0x07,
 0x00,0x00,0x00,0x00,0x00,0xc0,0x00,0x00,0x00,0x00,0x00,0x00,0x8c,0x01,0x00,
 0x00,0x00,0xe6,0x07,0x00,0x00,0x00,0x00,0x00,0xc0,0x00,0x00,0x00,0x00,0x00,
 0x00,0x78,0x00,0x00,0x00,0x00,0x3c,0x06,0x00,0x00,0x00,0x00,0x00,0xc0,0x00,
 0x00,0x00,0x00,0x00,0x00,0x00,0x00,0x00,0x00,0x00,0x00,0x03,0x00,0x00,0x00,
 0x00,0x00,0xc0,0x00,0x00,0x00,0x00,0x00,0x00,0x00,0x00,0x00,0x00,0x00,0x00,
 0x03,0x00,0x00,0x00,0x00,0x00,0xc0,0x00,0x00,0x00,0x00,0x00,0x00,0x00,0x00,
 0x00,0x00,0x00,0x80,0x03,0x00,0x00,0x00,0x00,0x00,0xc0,0x00,0x00,0x00,0x00,
 0x00,0x00,0x00,0x00,0x00,0x00,0x00,0xc0,0x03,0x00,0x00,0x00,0x00,0x00,0xc0,
 0x00,0x00,0x00,0x00,0x00,0x00,0x00,0x00,0x00,0x00,0x00,0x64,0x01,0x00,0x00,
 0x00,0x00,0x00,0xc0,0x00,0x00,0x00,0x00,0x00,0x00,0x00,0x00,0x00,0x00,0x00,
 0xbc,0x01,0x00,0x00,0x00,0x00,0x00,0xc0,0x00,0x00,0x00,0x00,0x00,0x00,0x00,
 0x00,0x00,0x00,0x00,0x08,0x00,0x00,0x00,0x00,0x00,0x00,0xc0,0x00,0x00,0x00,
 0x00,0x00,0x00,0x00,0x00,0x00,0x00,0x00,0x00,0x00,0x00,0x00,0x00,0x00,0x00,
 0xc0,0x00,0x00,0x00,0x00,0x00,0x00,0x00,0x00,0x00,0x00,0x00,0x00,0x00,0x00,
 0x00,0x00,0x00,0x00,0xc0};
