#define donkey_width 21
#define donkey_height 21
static unsigned char donkey_bits[] = {
   0x44, 0x00, 0x00, 0x6c, 0x00, 0x00, 0x6c, 0x00, 0x00, 0x6c, 0x00, 0x00,
   0x28, 0x00, 0x00, 0x38, 0x00, 0x00, 0x74, 0x00, 0x00, 0xfe, 0x00, 0x00,
   0xef, 0xff, 0x00, 0xc2, 0xff, 0x01, 0xc0, 0xff, 0x01, 0x80, 0xff, 0x02,
   0x80, 0xff, 0x02, 0x80, 0xa2, 0x04, 0x80, 0x42, 0x05, 0x80, 0x42, 0x01,
   0x80, 0xa2, 0x00, 0x80, 0xa2, 0x00, 0x80, 0xa2, 0x00, 0x80, 0x20, 0x00,
   0x00, 0x00, 0x00};
