#define enterprise5_width 241
#define enterprise5_height 102
static unsigned char enterprise5_bits[] = {
 0x00,0x00,0x00,0x00,0xe4,0x0f,0x00,0x00,0x00,0x00,0x00,0x00,0x00,0x00,0x00,
 0x00,0x00,0x00,0x00,0x00,0x00,0x00,0x00,0x00,0x00,0x00,0x00,0x00,0x00,0x00,
 0x00,0x00,0x00,0x00,0x00,0x43,0xff,0xc7,0xff,0x01,0x00,0x00,0x00,0x00,0x00,
 0x00,0x00,0x00,0x00,0x00,0x00,0x00,0x00,0x00,0x00,0x00,0x00,0x00,0x00,0x00,
 0x00,0x00,0x00,0x00,0x00,0xe0,0x29,0x01,0xf8,0xff,0xff,0x03,0x00,0x00,0x00,
 0x00,0x00,0x00,0x00,0x00,0x00,0x00,0x00,0x00,0x00,0x00,0x00,0x00,0x00,0x00,
 0x00,0x00,0x00,0x00,0x00,0x00,0x50,0x46,0x01,0x00,0x00,0xfe,0x07,0x3f,0x00,
 0x00,0x00,0x00,0x00,0x00,0x00,0x00,0x00,0x00,0x00,0x00,0x00,0x00,0x00,0x00,
 0x00,0x00,0x00,0x00,0x00,0x00,0x00,0x78,0x9a,0xfa,0xff,0x01,0x00,0xbc,0x3f,
 0x00,0x00,0x00,0x00,0x00,0x00,0x00,0x00,0x00,0x00,0x00,0x00,0x00,0x00,0x00,
 0x00,0x00,0x00,0x00,0x00,0x00,0x00,0x00,0x84,0x93,0x02,0x00,0xfe,0xff,0x3f,
 0x00,0x00,0x00,0x00,0x00,0x00,0x00,0x00,0x00,0x00,0x00,0x00,0x00,0x00,0x00,
 0x00,0x00,0x00,0x00,0x00,0x00,0x00,0x00,0x00,0x3c,0x40,0x05,0x00,0x00,0x00,
 0xc0,0xff,0x1f,0x00,0x00,0x00,0x00,0x00,0x00,0x00,0x00,0x00,0x00,0x00,0x00,
 0x00,0x00,0x00,0x00,0x00,0x00,0x00,0x00,0x00,0x00,0x2c,0x38,0x09,0x00,0x00,
 0x00,0x00,0x00,0x08,0x00,0x00,0x00,0x00,0x00,0x00,0x00,0x00,0x00,0x00,0x00,
 0x00,0x00,0x00,0x00,0x00,0x00,0x00,0x00,0x00,0x00,0x00,0x18,0x20,0x09,0x00,
 0x00,0x00,0x00,0x00,0x00,0x00,0x00,0x00,0x00,0x00,0x00,0x00,0x00,0x00,0x00,
 0x00,0x00,0x00,0x00,0x00,0x00,0x00,0x00,0x00,0x00,0x00,0x00,0x2c,0x98,0xf5,
 0xff,0xff,0xff,0xff,0xff,0x1f,0x00,0x00,0x00,0x00,0x00,0x00,0x00,0x00,0x00,
 0x00,0x00,0x00,0x00,0x00,0x80,0x07,0x00,0x00,0x00,0x00,0x00,0x00,0x58,0x48,
 0x0a,0x00,0x00,0x00,0x00,0x00,0x00,0x00,0x00,0x00,0x00,0x00,0x00,0x00,0x00,
 0x00,0x00,0x00,0x00,0x00,0x80,0x22,0x1f,0xfc,0x03,0x00,0x00,0x00,0x00,0x90,
 0x56,0x06,0x00,0x00,0x00,0x00,0xf0,0x07,0x00,0x00,0x00,0x00,0x00,0x00,0x00,
 0x00,0x00,0x00,0x00,0x00,0x00,0x60,0xd0,0xe4,0xff,0x3c,0x00,0x00,0x00,0x00,
 0x70,0x95,0x04,0x00,0xff,0xff,0xff,0x0f,0x04,0x00,0x00,0x00,0x00,0x00,0x00,
 0x00,0x00,0x00,0x00,0x00,0x00,0x00,0xe0,0xbe,0x06,0x00,0xbf,0x00,0x00,0x00,
 0x00,0x20,0x11,0xfa,0xbf,0x11,0x00,0x00,0x00,0x07,0x00,0x00,0x00,0x00,0x00,
 0x00,0x00,0x00,0x00,0x00,0x00,0x00,0x00,0x90,0x89,0x0a,0x00,0x00,0x01,0x00,
 0x00,0x00,0xc0,0x86,0x02,0x40,0x22,0xe0,0x7f,0x7f,0x01,0x00,0x00,0x00,0x00,
 0x00,0x00,0x00,0x00,0x00,0x00,0x00,0x00,0x00,0x40,0x89,0x14,0x00,0x00,0x01,
 0x00,0x00,0x00,0x00,0x53,0x01,0x3c,0xcc,0x5f,0xf8,0x01,0x00,0x00,0x00,0x00,
 0x00,0x00,0x00,0x00,0x00,0x00,0x00,0x00,0x00,0x00,0x30,0x8e,0xf0,0xff,0xff,
 0x01,0x00,0x00,0x00,0x00,0xa8,0x00,0x1c,0x90,0x03,0x00,0x00,0x00,0x00,0x00,
 0x00,0x00,0x00,0x00,0x00,0x00,0x00,0x00,0x00,0x00,0x00,0xb0,0x31,0x2d,0x00,
 0x80,0x00,0x00,0x00,0x00,0x00,0x76,0x00,0x20,0xa0,0x00,0x00,0x00,0x00,0x00,
 0x00,0x00,0x00,0x00,0x00,0x00,0x00,0x00,0x00,0x00,0x00,0x00,0x5c,0xa0,0x29,
 0x00,0x00,0x00,0x00,0x00,0x00,0x00,0x00,0x00,0xc0,0x00,0x01,0x00,0x00,0x00,
 0x00,0x00,0x00,0x00,0x00,0x00,0x00,0x00,0x00,0x00,0x00,0x00,0x00,0x48,0x40,
 0x2a,0x00,0x80,0x01,0x00,0x00,0x00,0x00,0x00,0x00,0x00,0x82,0x04,0x00,0x00,
 0x00,0x00,0x00,0x00,0x00,0x00,0x00,0x00,0x00,0x00,0x00,0x00,0x00,0x00,0x48,
 0xc0,0xad,0x3f,0xb0,0x01,0x00,0x00,0x00,0x00,0x00,0x00,0x00,0x04,0x19,0x00,
 0x00,0x00,0x00,0x00,0x00,0x00,0x00,0x00,0x00,0x00,0x00,0x00,0x00,0x00,0x00,
 0x50,0x00,0x52,0x00,0x10,0x01,0x00,0x00,0x00,0x00,0x00,0x00,0x00,0x08,0x22,
 0x00,0x00,0x00,0x00,0x00,0x00,0x00,0x00,0x00,0x00,0x00,0x00,0x00,0x00,0x00,
 0x00,0xb0,0x40,0x49,0x00,0x70,0x01,0x00,0x00,0x00,0x00,0x00,0x00,0x00,0x10,
 0x44,0x00,0x00,0x00,0x00,0x00,0x00,0x00,0x00,0x00,0x00,0x00,0x00,0x00,0x00,
 0x00,0x00,0x18,0xb0,0x29,0x00,0x1f,0x00,0x00,0x00,0x00,0x00,0x00,0x00,0x00,
 0x20,0x08,0x00,0x00,0x00,0x00,0x00,0x00,0x00,0x00,0x00,0x00,0x00,0x00,0x00,
 0x00,0x00,0x00,0xa8,0x1f,0x2a,0xf0,0x07,0x00,0x00,0x00,0x00,0x00,0x00,0x00,
 0x00,0x00,0x90,0x00,0x60,0x00,0x00,0x00,0x00,0x00,0x00,0x00,0x00,0x00,0x00,
 0x00,0x00,0x00,0x00,0x78,0xd4,0x98,0xff,0x00,0x00,0x00,0x00,0x00,0x00,0x00,
 0x00,0x00,0x40,0x20,0x01,0xaa,0x00,0x00,0x00,0x00,0x00,0x00,0x00,0x00,0x00,
 0x00,0x00,0x00,0x00,0x00,0x5c,0x24,0x62,0x0f,0x00,0x00,0x00,0x00,0x00,0x00,
 0x00,0x00,0x00,0x80,0x41,0x02,0x52,0x0e,0x00,0x00,0x00,0x00,0x00,0x00,0x00,
 0x00,0x00,0x00,0x00,0x00,0x00,0x82,0xb5,0xed,0x00,0x00,0x00,0x00,0x00,0x00,
 0x00,0x00,0x00,0x00,0x00,0x82,0x84,0xab,0x1f,0x00,0x00,0x00,0x00,0x00,0x00,
 0x00,0x00,0x00,0x00,0x00,0x00,0x80,0x21,0x0a,0x1c,0x00,0x00,0x00,0x00,0x00,
 0x00,0x00,0x00,0x00,0x00,0x00,0x08,0xef,0xd4,0x7c,0x00,0x00,0x00,0x00,0x00,
 0x00,0x00,0x00,0x00,0x00,0x00,0x00,0x30,0xa0,0x3c,0x00,0x00,0x00,0x00,0x00,
 0x00,0x00,0x00,0x00,0x00,0x00,0x00,0x90,0xc6,0xa4,0xfe,0x03,0x00,0x00,0x00,
 0x00,0x00,0x00,0x00,0x00,0x00,0x00,0x00,0x08,0x50,0x0c,0x00,0x00,0x00,0x00,
 0x00,0x00,0x00,0x00,0x00,0x00,0x00,0x00,0xa0,0xcb,0x1d,0xa9,0x05,0x00,0x00,
 0x00,0x00,0x00,0x00,0x00,0x00,0x00,0x00,0x00,0x04,0x2c,0x00,0x00,0x00,0x00,
 0x00,0x00,0x00,0x00,0x00,0x00,0x00,0x00,0x00,0xc0,0x49,0xe1,0xfe,0x07,0x00,
 0x00,0x00,0x00,0x00,0x00,0x00,0x00,0x00,0x00,0x00,0x03,0x12,0x00,0x00,0x00,
 0x00,0x00,0x00,0x00,0x00,0x00,0x00,0x00,0x80,0x00,0x80,0x45,0x11,0x49,0x05,
 0x00,0x00,0x00,0x00,0x00,0x00,0x00,0x00,0x00,0x00,0x80,0x80,0x0d,0x00,0x00,
 0x00,0x00,0x00,0x00,0x00,0x00,0x00,0x00,0x00,0x00,0x00,0x40,0x25,0x11,0x49,
 0x09,0x00,0x00,0x00,0x00,0x00,0x00,0x00,0x00,0x00,0x00,0x60,0x40,0x02,0x00,
 0x00,0x00,0x00,0x00,0x00,0x00,0x00,0x00,0x00,0xff,0x03,0xc2,0xff,0x22,0x10,
 0x89,0x0e,0x00,0x00,0x00,0x00,0x00,0x00,0x00,0x00,0x00,0x00,0x10,0xb0,0x01,
 0x00,0x00,0x00,0x00,0x00,0x00,0x03,0x80,0xff,0xff,0xff,0xfb,0x3d,0x78,0xa1,
 0x03,0x89,0xee,0x03,0x00,0x00,0x00,0x00,0x00,0x00,0x00,0x00,0x00,0x08,0x68,
 0x00,0x00,0x00,0x00,0x00,0x00,0x04,0xff,0xbf,0xff,0x3f,0xff,0x07,0xf8,0xf7,
 0x3a,0xef,0x6f,0xd8,0xfe,0x00,0x00,0x00,0x00,0x00,0x00,0x00,0x00,0x00,0x05,
 0x14,0x00,0x00,0x00,0x00,0x00,0x00,0x1c,0xc0,0xff,0x03,0x00,0xfc,0x07,0x3e,
 0x80,0x01,0x08,0x02,0xe3,0xfd,0xb4,0x1f,0x00,0x00,0x00,0x00,0x00,0x00,0x80,
 0x81,0x04,0x00,0x00,0x00,0x00,0x00,0x00,0xed,0x3f,0x00,0x00,0xfc,0x03,0xe0,
 0x01,0x70,0x00,0x04,0x04,0x0c,0xc6,0xb7,0xed,0x0f,0x00,0x00,0x00,0x00,0x00,
 0x60,0x60,0x03,0x00,0x00,0x00,0x00,0x00,0x00,0xf2,0x00,0x00,0xfc,0x03,0x80,
 0x1f,0x00,0x0c,0x00,0x04,0x08,0x30,0x78,0xbc,0xfd,0xf3,0x03,0x00,0x00,0x00,
 0x00,0x10,0x98,0x00,0x00,0x00,0x00,0x00,0x00,0x00,0x12,0x1f,0xfe,0x03,0x00,
 0x7c,0x00,0x80,0x03,0x00,0x02,0x10,0xc0,0x81,0xc7,0xf7,0xfd,0xfc,0x01,0x00,
 0x00,0x00,0x0c,0x60,0x00,0x00,0x00,0x00,0x00,0x00,0x00,0x12,0x60,0x06,0x00,
 0xe0,0x03,0x00,0x60,0x00,0x00,0x01,0x20,0x00,0x06,0x38,0x78,0x3e,0x33,0x7e,
 0x00,0x00,0x00,0x00,0x1e,0x00,0x00,0x00,0x00,0x00,0x00,0x00,0x24,0x40,0xf8,
 0x03,0x1f,0x00,0x00,0x18,0x00,0x00,0x01,0xc0,0x00,0x18,0xc0,0x81,0xc7,0x4b,
 0x9c,0x0f,0x00,0x00,0x03,0x01,0x00,0x00,0x00,0x00,0x00,0x00,0x00,0x24,0x40,
 0x00,0xbc,0x00,0x00,0x00,0x07,0x00,0x00,0x00,0x00,0x01,0x60,0x00,0x0e,0x78,
 0x78,0xa3,0xf7,0x00,0x80,0xc0,0x06,0x00,0x00,0x00,0x00,0x00,0x00,0x00,0x2c,
 0x80,0x00,0xc0,0x1f,0x00,0xe0,0x00,0x00,0x80,0x00,0x00,0x02,0x80,0x03,0xf0,
 0x80,0x0f,0x7f,0xc0,0x07,0x60,0x30,0x01,0x00,0x00,0x00,0x00,0x00,0x00,0x00,
 0x68,0x80,0x00,0x40,0xe0,0x1f,0x10,0x00,0x00,0x80,0x00,0x00,0x00,0x00,0x0c,
 0x00,0x07,0xf0,0xc0,0x3b,0xf7,0x10,0xc8,0x00,0x00,0x00,0x00,0x00,0x00,0x00,
 0x00,0x80,0x01,0x01,0x80,0x00,0xf0,0xff,0xff,0xff,0x23,0x00,0x00,0x08,0x00,
 0xc0,0x00,0xc0,0x03,0xe0,0x00,0xcf,0x01,0x1a,0x00,0x00,0x00,0x00,0x00,0x00,
 0x00,0x00,0x00,0x3a,0x01,0x80,0x00,0x00,0x10,0x00,0x00,0xcc,0x3f,0x00,0x10,
 0x00,0x00,0x07,0x00,0x3c,0x00,0x1f,0xf0,0x91,0x05,0x00,0x00,0x00,0x00,0x00,
 0x00,0x00,0x00,0x00,0xdc,0x02,0x80,0x00,0x00,0x10,0x00,0x00,0x10,0xc0,0xff,
 0x23,0x00,0x00,0x08,0x00,0xc0,0x00,0xe0,0x01,0x7c,0x02,0x00,0x00,0x00,0x00,
 0x00,0x00,0x00,0x00,0x00,0xe0,0x73,0x80,0x00,0x00,0x10,0x00,0x00,0x10,0x00,
 0x00,0xfc,0x0f,0x00,0x30,0x00,0x00,0x07,0x00,0xfa,0x9d,0x01,0x00,0x00,0x00,
 0x00,0x00,0x00,0x00,0x00,0x00,0x00,0x76,0x0e,0x01,0x00,0x00,0x00,0x00,0x10,
 0x00,0x00,0x40,0xf0,0xff,0xbf,0xff,0xff,0xff,0xff,0x03,0x46,0x00,0x00,0x00,
 0x00,0x00,0x00,0x00,0x00,0x00,0x00,0x00,0x00,0x8e,0x3c,0x00,0x00,0x00,0x00,
 0x10,0x00,0x00,0x40,0x00,0x00,0x40,0x00,0x00,0x08,0x00,0x02,0x36,0x00,0x00,
 0x00,0x00,0x00,0x00,0x00,0x00,0x00,0x00,0x00,0x00,0x80,0xc3,0x7f,0x00,0x00,
 0x00,0x10,0x00,0x00,0x40,0x00,0x00,0x40,0x00,0x00,0x08,0x00,0x02,0x0c,0x00,
 0x00,0x00,0x00,0x00,0x00,0x00,0x00,0x00,0x00,0x00,0x00,0x00,0xf8,0x81,0xff,
 0x3f,0x00,0x10,0x00,0x00,0x40,0x00,0x00,0x20,0x00,0x00,0x04,0x00,0x01,0x04,
 0x00,0x00,0x00,0x00,0x00,0x00,0x00,0x00,0x00,0x00,0x00,0x00,0x00,0x00,0xfe,
 0x21,0xc0,0xff,0x11,0x00,0x00,0x40,0x00,0x00,0x20,0x00,0x00,0x04,0x00,0x01,
 0x03,0x00,0x00,0x00,0x00,0x00,0x00,0x00,0x00,0x00,0x00,0x00,0x00,0x00,0x00,
 0x00,0x00,0xfc,0x9f,0xf0,0xff,0x01,0x20,0x00,0x00,0x20,0x00,0x00,0x02,0x00,
 0x30,0x01,0x00,0x00,0x00,0x00,0x00,0x00,0x00,0x00,0x00,0x00,0x00,0x00,0x00,
 0x00,0x00,0x00,0x00,0xa0,0x76,0xff,0xff,0xdf,0x07,0x00,0x10,0x00,0x00,0xfd,
 0x3f,0x3f,0x00,0x00,0x00,0x00,0x00,0x00,0x00,0x00,0x00,0x00,0x00,0x00,0x00,
 0x00,0x00,0x00,0x00,0x00,0x80,0x93,0x04,0xf7,0xdb,0xff,0xff,0xff,0xff,0x7f,
 0x03,0x38,0x17,0x00,0x00,0x00,0x00,0x00,0x00,0x00,0x00,0x00,0x00,0x00,0x00,
 0x00,0x00,0x00,0x00,0x00,0x00,0x80,0x17,0x84,0x88,0x06,0xf8,0xfe,0xff,0xff,
 0xbf,0x7f,0x77,0x04,0x00,0x00,0x00,0x00,0x00,0x00,0x00,0x00,0x00,0x00,0x00,
 0x00,0x00,0x00,0x00,0x00,0x00,0x00,0x00,0x2e,0x88,0x44,0x0e,0x00,0x01,0x00,
 0x00,0x00,0x00,0x60,0x03,0x00,0x00,0x00,0x00,0x00,0x00,0x00,0x00,0x00,0x00,
 0x00,0x00,0x00,0x00,0x00,0x00,0x00,0x00,0x00,0x5c,0x89,0x22,0x17,0x00,0x01,
 0x00,0x00,0x00,0x60,0x98,0x00,0x00,0x00,0x00,0x00,0x00,0x00,0x00,0x00,0x00,
 0x00,0x00,0x00,0x00,0x00,0x00,0x00,0x00,0x00,0x00,0xa8,0x49,0x90,0x18,0x00,
 0x02,0x00,0x00,0x00,0x10,0x44,0x00,0x00,0x00,0x00,0x00,0x00,0x00,0x00,0x00,
 0x00,0x00,0x00,0x00,0x00,0x00,0x00,0x00,0x00,0x00,0x00,0x40,0x4a,0x68,0x18,
 0x00,0x02,0x00,0x00,0x00,0x0c,0x33,0x00,0x00,0x00,0x00,0x00,0x00,0x00,0x00,
 0x00,0x00,0x00,0x00,0x00,0x00,0x00,0x00,0x00,0x00,0x00,0x00,0x80,0x4b,0x15,
 0x18,0x00,0x02,0x00,0x00,0x00,0x83,0x08,0x00,0x00,0x00,0x00,0x00,0x00,0x00,
 0x00,0x00,0x00,0x00,0x00,0x00,0x00,0x00,0x00,0x00,0x00,0x00,0x00,0x00,0x65,
 0x03,0x30,0x00,0x02,0x00,0x00,0x40,0x30,0x01,0x00,0x00,0x00,0x00,0x00,0x00,
 0x00,0x00,0x00,0x00,0x00,0x00,0x00,0x00,0x00,0x00,0x00,0x00,0x00,0x00,0x00,
 0x30,0x00,0x30,0x00,0x00,0x00,0x00,0x20,0x88,0x00,0x00,0x00,0x00,0x00,0x00,
 0x00,0x00,0x00,0x00,0x00,0x00,0x00,0x00,0x00,0x00,0x00,0x00,0x00,0x00,0x00,
 0x00,0x40,0x00,0x60,0x00,0x0c,0x00,0x00,0x18,0x46,0x00,0x00,0x00,0x00,0x00,
 0x00,0x00,0x00,0x00,0x00,0x00,0x00,0x00,0x00,0x00,0x00,0x00,0x00,0x00,0x00,
 0x00,0x00,0x00,0x00,0x60,0x00,0x08,0x00,0x00,0x04,0x31,0x00,0x00,0x00,0x00,
 0x00,0x00,0x00,0x00,0x00,0x00,0x00,0x00,0x00,0x00,0x00,0x00,0x00,0x00,0x00,
 0x00,0x00,0x00,0x00,0x00,0x60,0xd0,0xff,0xff,0x1f,0xc3,0x0c,0x00,0x00,0x00,
 0x00,0x00,0x00,0x00,0x00,0x00,0x00,0x00,0x00,0x00,0x00,0x00,0x00,0x00,0x00,
 0x00,0x00,0x00,0x00,0x00,0x00,0xe0,0x6c,0xf8,0xff,0x9f,0x20,0x02,0x00,0x00,
 0x00,0x00,0x00,0x00,0x00,0x00,0x00,0x00,0x00,0x00,0x00,0x00,0x00,0x00,0x00,
 0x00,0x00,0x00,0x00,0x00,0x00,0x00,0x20,0x63,0x08,0x00,0x40,0x90,0x01,0x00,
 0x00,0x00,0x00,0x00,0x00,0x00,0x00,0x00,0x00,0x00,0x00,0x00,0x00,0x00,0x00,
 0x00,0x00,0x00,0x00,0x00,0x00,0x00,0x00,0x64,0x16,0x00,0x00,0x00,0x4c,0x00,
 0x00,0x00,0x00,0x00,0x00,0x00,0x00,0x00,0x00,0x00,0x00,0x00,0x00,0x00,0x00,
 0x00,0x00,0x00,0x00,0x00,0x00,0x00,0x00,0x00,0x07,0x10,0x30,0xa0,0x0d,0x22,
 0x00,0x00,0x00,0x00,0x00,0x00,0x00,0x00,0x00,0x00,0x00,0x00,0x00,0x00,0x00,
 0x00,0x00,0x00,0x00,0x00,0x00,0x00,0x00,0x00,0xa0,0x6a,0xc0,0x80,0x1f,0x60,
 0x0c,0x00,0x00,0x00,0x00,0x00,0x00,0x00,0x00,0x00,0x00,0x00,0x00,0x00,0x00,
 0x00,0x00,0x00,0x00,0x00,0x00,0x00,0x00,0x00,0x00,0x78,0xa1,0x04,0x61,0x00,
 0x20,0x00,0x00,0x00,0x00,0x00,0x00,0x00,0x00,0x00,0x00,0x00,0x00,0x00,0x00,
 0x00,0x00,0x00,0x00,0x00,0x00,0x00,0x00,0x00,0x00,0x00,0x1c,0x41,0x01,0x12,
 0x01,0x40,0x05,0x00,0x00,0x00,0x00,0x00,0x00,0x00,0x00,0x00,0x00,0x00,0x00,
 0x00,0x00,0x00,0x00,0x00,0x00,0x00,0x00,0x00,0x00,0x00,0x00,0x04,0x43,0x0a,
 0x0d,0x01,0x80,0x07,0x00,0x00,0x00,0x00,0x00,0x00,0x00,0x00,0x00,0x00,0x00,
 0x00,0x00,0x00,0x00,0x00,0x00,0x00,0x00,0x00,0x00,0x00,0x00,0x00,0xc6,0x67,
 0xb4,0x02,0x02,0x60,0x04,0x00,0x00,0x00,0x00,0x00,0x00,0x00,0x00,0x00,0x00,
 0x00,0x00,0x00,0x00,0x00,0x00,0x00,0x00,0x00,0x00,0x00,0x00,0x00,0x00,0x54,
 0x98,0x08,0x04,0x02,0x10,0x04,0x00,0x00,0x00,0x00,0x00,0x00,0x00,0x00,0x00,
 0x00,0x00,0x00,0x00,0x00,0x00,0x00,0x00,0x00,0x00,0x00,0x00,0x00,0x00,0x00,
 0x1d,0x60,0x69,0x04,0x04,0x0e,0x04,0x00,0x00,0x00,0x00,0x00,0x00,0x00,0x00,
 0x00,0x00,0x00,0x00,0x00,0x00,0x00,0x00,0x00,0x00,0x00,0x00,0x00,0x00,0x00,
 0x00,0x01,0x80,0x96,0x08,0x84,0x01,0x02,0x00,0x00,0x00,0x00,0x00,0x00,0x00,
 0x00,0x00,0x00,0x00,0x00,0x00,0x00,0x00,0x00,0x00,0x00,0x00,0x00,0x00,0x00,
 0x00,0x80,0x06,0x00,0xa5,0x08,0x78,0x00,0x05,0x00,0x00,0x00,0x00,0x00,0x00,
 0x00,0x00,0x00,0x00,0x00,0x00,0x00,0x00,0x00,0x00,0x00,0x00,0x00,0x00,0x00,
 0x00,0x00,0xc0,0x00,0x00,0x4c,0x81,0x09,0x20,0x01,0x00,0x00,0x00,0x00,0x00,
 0x00,0x00,0x00,0x00,0x00,0x00,0x00,0x00,0x00,0x00,0x00,0x00,0x00,0x00,0x00,
 0x00,0x00,0x00,0x40,0x01,0x00,0x4c,0x7a,0x08,0x70,0x00,0x00,0x00,0x00,0x00,
 0x00,0x00,0x00,0x00,0x00,0x00,0x00,0x00,0x00,0x00,0x00,0x00,0x00,0x00,0x00,
 0x00,0x00,0x00,0x00,0x40,0x01,0x00,0x90,0x16,0x08,0x08,0x00,0x00,0x00,0x00,
 0x00,0x00,0x00,0x00,0x00,0x00,0x00,0x00,0x00,0x00,0x00,0x00,0x00,0x00,0x00,
 0x00,0x00,0x00,0x00,0x00,0x40,0x01,0x00,0x20,0x11,0x08,0x14,0x00,0x00,0x00,
 0x00,0x00,0x00,0x00,0x00,0x00,0x00,0x00,0x00,0x00,0x00,0x00,0x00,0x00,0x00,
 0x00,0x00,0x00,0x00,0x00,0x00,0x40,0x01,0x00,0x40,0x12,0x08,0x0b,0x00,0x00,
 0x00,0x00,0x00,0x00,0x00,0x00,0x00,0x00,0x00,0x00,0x00,0x00,0x00,0x00,0x00,
 0x00,0x00,0x00,0x00,0x00,0x00,0x00,0x40,0x01,0x00,0x58,0x12,0x88,0x06,0x00,
 0x00,0x00,0x00,0x00,0x00,0x00,0x00,0x00,0x00,0x00,0x00,0x00,0x00,0x00,0x00,
 0x00,0x00,0x00,0x00,0x00,0x00,0x00,0x00,0x40,0x01,0x00,0x58,0x12,0x68,0x01,
 0x00,0x00,0x00,0x00,0x00,0x00,0x00,0x00,0x00,0x00,0x00,0x00,0x00,0x00,0x00,
 0x00,0x00,0x00,0x00,0x00,0x00,0x00,0x00,0x00,0xc0,0x01,0x00,0x58,0x12,0x98,
 0x00,0x00,0x00,0x00,0x00,0x00,0x00,0x00,0x00,0x00,0x00,0x00,0x00,0x00,0x00,
 0x00,0x00,0x00,0x00,0x00,0x00,0x00,0x00,0x00,0x00,0x80,0x00,0x00,0x58,0x12,
 0x60,0x00,0x00,0x00,0x00,0x00,0x00,0x00,0x00,0x00,0x00,0x00,0x00,0x00,0x00,
 0x00,0x00,0x00,0x00,0x00,0x00,0x00,0x00,0x00,0x00,0x00,0x00,0x03,0x00,0x60,
 0x7d,0x34,0x00,0x00,0x00,0x00,0x00,0x00,0x00,0x00,0x00,0x00,0x00,0x00,0x00,
 0x00,0x00,0x00,0x00,0x00,0x00,0x00,0x00,0x00,0x00,0x00,0x00,0x00,0x03,0x00,
 0x88,0x11,0x0a,0x00,0x00,0x00,0x00,0x00,0x00,0x00,0x00,0x00,0x00,0x00,0x00,
 0x00,0x00,0x00,0x00,0x00,0x00,0x00,0x00,0x00,0x00,0x00,0x00,0x00,0x00,0x05,
 0x00,0xac,0x08,0x04,0x00,0x00,0x00,0x00,0x00,0x00,0x00,0x00,0x00,0x00,0x00,
 0x00,0x00,0x00,0x00,0x00,0x00,0x00,0x00,0x00,0x00,0x00,0x00,0x00,0x00,0x00,
 0x0c,0x00,0x92,0x08,0x03,0x00,0x00,0x00,0x00,0x00,0x00,0x00,0x00,0x00,0x00,
 0x00,0x00,0x00,0x00,0x00,0x00,0x00,0x00,0x00,0x00,0x00,0x00,0x00,0x00,0x00,
 0x00,0x1a,0x80,0x54,0x08,0x01,0x00,0x00,0x00,0x00,0x00,0x00,0x00,0x00,0x00,
 0x00,0x00,0x00,0x00,0x00,0x00,0x00,0x00,0x00,0x00,0x00,0x00,0x00,0x00,0x00,
 0x00,0x00,0x32,0x60,0x2b,0xc4,0x01,0x00,0x00,0x00,0x00,0x00,0x00,0x00,0x00,
 0x00,0x00,0x00,0x00,0x00,0x00,0x00,0x00,0x00,0x00,0x00,0x00,0x00,0x00,0x00,
 0x00,0x00,0x00,0xa4,0xd7,0x60,0x72,0x00,0x00,0x00,0x00,0x00,0x00,0x00,0x00,
 0x00,0x00,0x00,0x00,0x00,0x00,0x00,0x00,0x00,0x00,0x00,0x00,0x00,0x00,0x00,
 0x00,0x00,0x00,0x00,0x88,0x3e,0x84,0x1c,0x00,0x00,0x00,0x00,0x00,0x00,0x00,
 0x00,0x00,0x00,0x00,0x00,0x00,0x00,0x00,0x00,0x00,0x00,0x00,0x00,0x00,0x00,
 0x00,0x00,0x00,0x00,0x00,0xb0,0x10,0x65,0x0e,0x00,0x00,0x00,0x00,0x00,0x00,
 0x00,0x00,0x00,0x00,0x00,0x00,0x00,0x00,0x00,0x00,0x00,0x00,0x00,0x00,0x00,
 0x00,0x00,0x00,0x00,0x00,0x00,0x00,0x18,0x0b,0x00,0x00,0x00,0x00,0x00,0x00,
 0x00,0x00,0x00,0x00,0x00,0x00,0x00,0x00,0x00,0x00,0x00,0x00,0x00,0x00,0x00,
 0x00,0x00,0x00,0x00,0x00,0x00,0x00,0x00,0xf8,0x01,0x00,0x00,0x00,0x00,0x00,
 0x00,0x00,0x00,0x00,0x00,0x00,0x00,0x00,0x00,0x00,0x00,0x00};
