#define fish2_width 20
#define fish2_height 20
static unsigned char fish2_bits[] = {
   0x00, 0x00, 0x00, 0x00, 0x00, 0x00, 0x00, 0x00, 0x00, 0x00, 0x01, 0x00,
   0xc0, 0x01, 0x00, 0x00, 0x03, 0x00, 0x00, 0x06, 0x00, 0x00, 0x0f, 0x00,
   0x00, 0x2f, 0x00, 0xc0, 0x3f, 0x00, 0x80, 0x1f, 0x00, 0x00, 0x0f, 0x00,
   0x00, 0x0f, 0x00, 0x00, 0x06, 0x00, 0x00, 0x06, 0x00, 0x00, 0x00, 0x00,
   0x00, 0x00, 0x00, 0x00, 0x00, 0x00, 0x00, 0x00, 0x00, 0x00, 0x00, 0x00};
