#define fish5_width 20
#define fish5_height 20
static char fish5_bits[] = {
   0x00, 0x00, 0x00, 0x00, 0x00, 0x00, 0x00, 0x00, 0x00, 0x00, 0x00, 0x00,
   0x00, 0x00, 0x00, 0x00, 0x00, 0x00, 0x10, 0x02, 0x00, 0x10, 0x06, 0x00,
   0xb8, 0x1f, 0x00, 0xe0, 0x7f, 0x00, 0xc0, 0x7f, 0x00, 0x80, 0x1f, 0x00,
   0x00, 0x06, 0x00, 0x00, 0x03, 0x00, 0x00, 0x00, 0x00, 0x00, 0x00, 0x00,
   0x00, 0x00, 0x00, 0x00, 0x00, 0x00, 0x00, 0x00, 0x00, 0x00, 0x00, 0x00};
