#define fish3_width 20
#define fish3_height 20
static unsigned char fish3_bits[] = {
   0x00, 0x00, 0x00, 0x00, 0x00, 0x00, 0x00, 0x00, 0x00, 0x00, 0x00, 0x00,
   0x00, 0x00, 0x00, 0x00, 0x00, 0x00, 0x00, 0x84, 0x00, 0x00, 0x86, 0x00,
   0x80, 0xdf, 0x01, 0xe0, 0x7f, 0x00, 0xe0, 0x3f, 0x00, 0x80, 0x1f, 0x00,
   0x00, 0x06, 0x00, 0x00, 0x0c, 0x00, 0x00, 0x00, 0x00, 0x00, 0x00, 0x00,
   0x00, 0x00, 0x00, 0x00, 0x00, 0x00, 0x00, 0x00, 0x00, 0x00, 0x00, 0x00};
