#define image_width 76
#define image_height 76
static unsigned char image_bits[] = {
   0x00, 0x00, 0x00, 0x00, 0x00, 0x00, 0x00, 0x00, 0x00, 0x00, 0x00, 0x00,
   0x00, 0x00, 0x00, 0x00, 0x00, 0x00, 0x00, 0x00, 0x00, 0x00, 0x00, 0x00,
   0xff, 0x07, 0x00, 0x00, 0x00, 0x00, 0x00, 0x00, 0x00, 0xf0, 0xff, 0x7f,
   0x00, 0x00, 0x00, 0x00, 0x00, 0x00, 0x00, 0xff, 0x01, 0xfc, 0x07, 0x00,
   0x00, 0x00, 0x00, 0x00, 0xc0, 0x0f, 0x00, 0x80, 0x1f, 0x00, 0x00, 0x00,
   0x00, 0x00, 0xf0, 0x03, 0x00, 0x00, 0x7c, 0x00, 0x00, 0x00, 0x00, 0x00,
   0x78, 0x00, 0x00, 0x00, 0xf0, 0x01, 0x00, 0x00, 0x00, 0x00, 0x1e, 0x00,
   0x00, 0x00, 0xc0, 0x03, 0x00, 0x00, 0x00, 0x00, 0x0f, 0x00, 0x00, 0x00,
   0x00, 0x07, 0x00, 0x00, 0x00, 0xc0, 0x03, 0x00, 0x00, 0x00, 0x01, 0x1e,
   0x00, 0x00, 0x00, 0xe0, 0x01, 0x0c, 0x00, 0x00, 0x01, 0x38, 0x00, 0x00,
   0x00, 0x70, 0x00, 0x0c, 0x00, 0x80, 0x01, 0x70, 0x00, 0x00, 0x00, 0x38,
   0x00, 0x0c, 0x00, 0x80, 0x03, 0xe0, 0x00, 0x00, 0x00, 0x1c, 0x00, 0x1e,
   0x00, 0x80, 0x03, 0xc0, 0x01, 0x00, 0x00, 0x0e, 0x00, 0x1e, 0x00, 0x80,
   0x03, 0x80, 0x03, 0x00, 0x00, 0x0e, 0x00, 0x1e, 0x00, 0xc0, 0x03, 0x00,
   0x03, 0x00, 0x00, 0x07, 0x00, 0x1e, 0x00, 0xc0, 0x07, 0x00, 0x07, 0x00,
   0x80, 0x03, 0x00, 0x3f, 0x00, 0xc0, 0x07, 0x00, 0x0e, 0x00, 0x80, 0x01,
   0x00, 0x3f, 0x00, 0xe0, 0x07, 0x00, 0x0c, 0x00, 0xc0, 0x01, 0x00, 0x3f,
   0x00, 0xe0, 0x0f, 0x00, 0x18, 0x00, 0xc0, 0x00, 0x80, 0x7f, 0x00, 0xe0,
   0x0f, 0x00, 0x38, 0x00, 0xe0, 0x00, 0x80, 0x7f, 0x00, 0xf0, 0x0f, 0x00,
   0x30, 0x00, 0x60, 0x00, 0x80, 0x7f, 0x00, 0xf0, 0x1f, 0x00, 0x70, 0x00,
   0x70, 0x00, 0xc0, 0xff, 0x00, 0xf0, 0x1f, 0x00, 0x60, 0x00, 0x30, 0x00,
   0xc0, 0xff, 0x00, 0xf0, 0x1f, 0x00, 0x60, 0x00, 0x30, 0x00, 0xc0, 0xff,
   0x00, 0xf8, 0x3f, 0x00, 0xe0, 0x00, 0x38, 0x00, 0xc0, 0xff, 0x01, 0xf8,
   0x3f, 0x00, 0xc0, 0x00, 0x18, 0x00, 0xe0, 0xff, 0x01, 0xf8, 0x3f, 0x00,
   0xc0, 0x00, 0x18, 0x00, 0xe0, 0xff, 0x01, 0xfc, 0x7f, 0x00, 0xc0, 0x01,
   0x18, 0x00, 0xe0, 0xff, 0x03, 0xfc, 0x7f, 0x00, 0x80, 0x01, 0x1c, 0x00,
   0xf0, 0xff, 0x03, 0xfc, 0x7f, 0x00, 0x80, 0x01, 0x0c, 0x00, 0xf0, 0xff,
   0x03, 0xfc, 0x7f, 0x00, 0x80, 0x01, 0x0c, 0x00, 0xf0, 0xff, 0x03, 0xfe,
   0xff, 0x00, 0x80, 0x01, 0x0c, 0x00, 0xf8, 0xff, 0x07, 0xfe, 0xff, 0x00,
   0x80, 0x01, 0x0c, 0x00, 0xf8, 0xff, 0x07, 0xfe, 0xff, 0x00, 0x80, 0x03,
   0x0c, 0x00, 0xf8, 0xff, 0x07, 0xff, 0xff, 0x01, 0x00, 0x03, 0x0c, 0x00,
   0xf8, 0xff, 0x0f, 0xff, 0xff, 0x01, 0x00, 0x03, 0x0c, 0x00, 0xfc, 0xc1,
   0x0f, 0x1f, 0xf8, 0x01, 0x00, 0x03, 0x0c, 0x00, 0x7c, 0x00, 0x8f, 0x0f,
   0xe0, 0x03, 0x00, 0x03, 0x0c, 0x00, 0x3c, 0x00, 0x9e, 0x07, 0xc0, 0x03,
   0x00, 0x03, 0x0c, 0x00, 0x1e, 0x00, 0x9c, 0x03, 0x80, 0x03, 0x80, 0x01,
   0x0c, 0x00, 0x0e, 0x00, 0x9c, 0x01, 0x80, 0x07, 0x80, 0x01, 0x0c, 0x00,
   0x0e, 0x00, 0xf8, 0x01, 0x00, 0x07, 0x80, 0x01, 0x1c, 0x00, 0x06, 0x00,
   0xf0, 0x00, 0x00, 0x07, 0x80, 0x01, 0x18, 0x00, 0x07, 0x00, 0x70, 0x00,
   0x00, 0x06, 0x80, 0x01, 0x18, 0x00, 0x07, 0x00, 0x60, 0x00, 0x00, 0x0e,
   0xc0, 0x01, 0x18, 0x00, 0x03, 0x00, 0x60, 0x00, 0x00, 0x0c, 0xc0, 0x00,
   0x38, 0x80, 0x03, 0x00, 0x00, 0x00, 0x00, 0x0c, 0xc0, 0x00, 0x30, 0x80,
   0x01, 0x00, 0x00, 0x00, 0x00, 0x1c, 0xc0, 0x00, 0x30, 0x80, 0x01, 0x00,
   0x00, 0x00, 0x00, 0x18, 0xe0, 0x00, 0x70, 0xc0, 0x01, 0x00, 0x00, 0x00,
   0x00, 0x18, 0x60, 0x00, 0x60, 0xc0, 0x01, 0x00, 0x00, 0x00, 0x00, 0x38,
   0x70, 0x00, 0xe0, 0xc0, 0x00, 0x00, 0x00, 0x00, 0x00, 0x30, 0x30, 0x00,
   0xc0, 0xc0, 0x00, 0x00, 0x00, 0x00, 0x00, 0x30, 0x38, 0x00, 0xc0, 0x01,
   0x00, 0x00, 0x00, 0x00, 0x00, 0x00, 0x18, 0x00, 0x80, 0x01, 0x00, 0x00,
   0x00, 0x00, 0x00, 0x00, 0x1c, 0x00, 0x00, 0x03, 0x00, 0x00, 0x00, 0x00,
   0x00, 0x00, 0x0e, 0x00, 0x00, 0x07, 0x00, 0x00, 0x00, 0x00, 0x00, 0x00,
   0x06, 0x00, 0x00, 0x0e, 0x00, 0x00, 0x00, 0x00, 0x00, 0x00, 0x07, 0x00,
   0x00, 0x0c, 0x00, 0x00, 0x00, 0x00, 0x00, 0x80, 0x03, 0x00, 0x00, 0x18,
   0x00, 0x00, 0x00, 0x00, 0x00, 0xc0, 0x01, 0x00, 0x00, 0x38, 0x00, 0x00,
   0x00, 0x00, 0x00, 0xe0, 0x00, 0x00, 0x00, 0xf0, 0x00, 0x00, 0x00, 0x00,
   0x00, 0x70, 0x00, 0x00, 0x00, 0xe0, 0x01, 0x00, 0x00, 0x00, 0x00, 0x38,
   0x00, 0x00, 0x00, 0xc0, 0x03, 0x00, 0x00, 0x00, 0x00, 0x1c, 0x00, 0x00,
   0x00, 0x00, 0x07, 0x00, 0x00, 0x00, 0x00, 0x0f, 0x00, 0x00, 0x00, 0x00,
   0x1e, 0x00, 0x00, 0x00, 0xc0, 0x03, 0x00, 0x00, 0x00, 0x00, 0x78, 0x00,
   0x00, 0x00, 0xf0, 0x01, 0x00, 0x00, 0x00, 0x00, 0xf0, 0x01, 0x00, 0x00,
   0x7c, 0x00, 0x00, 0x00, 0x00, 0x00, 0xc0, 0x0f, 0x00, 0x80, 0x1f, 0x00,
   0x00, 0x00, 0x00, 0x00, 0x00, 0xfe, 0x01, 0xfc, 0x07, 0x00, 0x00, 0x00,
   0x00, 0x00, 0x00, 0xf8, 0xff, 0xff, 0x00, 0x00, 0x00, 0x00, 0x00, 0x00,
   0x00, 0x00, 0xff, 0x0f, 0x00, 0x00, 0x00, 0x00, 0x00, 0x00, 0x00, 0x00,
   0x00, 0x00, 0x00, 0x00, 0x00, 0x00, 0x00, 0x00, 0x00, 0x00, 0x00, 0x00,
   0x00, 0x00, 0x00, 0x00};
