#define light_gray_width 4
#define light_gray_height 2
static unsigned char light_gray_bits[] = {
   0x08, 0x02};
