#define image_width 50
#define image_height 50
static unsigned char image_bits[] = {
   0x00, 0x00, 0x00, 0x00, 0x00, 0x00, 0x00, 0x00, 0x00, 0x0c, 0x00, 0x00,
   0x00, 0x00, 0x00, 0x00, 0x0a, 0x00, 0x00, 0x00, 0x00, 0x00, 0x00, 0x05,
   0x00, 0x00, 0x00, 0x00, 0x00, 0x00, 0x05, 0x00, 0x00, 0x00, 0x00, 0x00,
   0x00, 0xe3, 0x01, 0x0c, 0x00, 0x00, 0x00, 0x80, 0x1e, 0x06, 0x14, 0x00,
   0x00, 0x00, 0x80, 0x06, 0x1c, 0x3c, 0x00, 0x00, 0x00, 0x80, 0x03, 0x38,
   0x28, 0x00, 0x00, 0x00, 0x00, 0x01, 0x70, 0x2c, 0x00, 0x00, 0x00, 0x00,
   0x19, 0xe0, 0x27, 0x00, 0x00, 0x00, 0x00, 0x25, 0x03, 0x30, 0x00, 0x00,
   0x00, 0x80, 0xa4, 0x04, 0x18, 0x00, 0x00, 0x00, 0x80, 0xbe, 0x04, 0x07,
   0x00, 0x00, 0x00, 0x40, 0x9a, 0x45, 0x01, 0x00, 0x00, 0x00, 0x20, 0x5e,
   0x85, 0x00, 0x00, 0x00, 0x00, 0x20, 0xcc, 0x87, 0x00, 0x00, 0x00, 0x80,
   0x20, 0xc4, 0xc3, 0x00, 0x00, 0x00, 0x80, 0x23, 0x84, 0x81, 0x00, 0x00,
   0x00, 0x00, 0x43, 0x3d, 0x60, 0x00, 0x00, 0x00, 0x20, 0x86, 0x02, 0x70,
   0x00, 0x00, 0x00, 0xe0, 0x06, 0x8d, 0x39, 0x00, 0x00, 0x00, 0xc0, 0x06,
   0x7a, 0x1c, 0x00, 0x00, 0x00, 0x88, 0x07, 0x06, 0x0e, 0x00, 0x00, 0x00,
   0x18, 0xcf, 0xfa, 0x06, 0x00, 0x00, 0x00, 0xf0, 0x3f, 0x03, 0x06, 0x00,
   0x00, 0x00, 0xc0, 0x38, 0x04, 0x04, 0x00, 0x00, 0x00, 0x00, 0x10, 0x03,
   0x0c, 0x00, 0x00, 0x00, 0x00, 0x10, 0x00, 0x08, 0x00, 0x00, 0x00, 0x00,
   0x50, 0x34, 0x0c, 0x00, 0x00, 0x00, 0x00, 0x30, 0x7d, 0x0c, 0x00, 0x00,
   0x00, 0x00, 0xa0, 0x02, 0x04, 0x00, 0x00, 0x00, 0x00, 0xe0, 0x01, 0x04,
   0x00, 0x00, 0x00, 0x00, 0x00, 0x03, 0x04, 0x00, 0x00, 0x00, 0x00, 0x00,
   0xc5, 0x05, 0x00, 0x00, 0x00, 0x00, 0x80, 0xe8, 0x07, 0x00, 0x00, 0x00,
   0x00, 0x80, 0x10, 0x07, 0x00, 0x00, 0x00, 0x00, 0x80, 0x00, 0x0e, 0x00,
   0x00, 0x00, 0x00, 0x80, 0x00, 0x7a, 0x00, 0x00, 0x00, 0x00, 0x80, 0x01,
   0xc8, 0x01, 0x00, 0x00, 0x00, 0x00, 0x0a, 0x74, 0x3f, 0x00, 0x00, 0x00,
   0x00, 0x53, 0x88, 0xdf, 0x01, 0x00, 0x00, 0x80, 0x25, 0x09, 0xf0, 0x07,
   0x00, 0x00, 0x70, 0x9d, 0x18, 0x00, 0x0e, 0x00, 0x00, 0x4c, 0x4f, 0x18,
   0x00, 0x0c, 0x00, 0x00, 0x82, 0x3c, 0x0c, 0x80, 0x0e, 0x00, 0x00, 0x41,
   0x48, 0x03, 0xc0, 0x07, 0x00, 0x00, 0x3e, 0xc0, 0x01, 0x60, 0x01, 0x00,
   0x00, 0xc0, 0x3f, 0x00, 0xf8, 0x00, 0x00, 0x00, 0x00, 0x00, 0x00, 0x00,
   0x00, 0x00};

/*
 * BSD daemon
 * The original BSD daemon is Copyright (c) 1988 Marshall Kirk McKusick.
 * All Rights Reserved.  Used by permission.
 */
