/*
 * BSD daemon
 * The original BSD daemon is Copyright (c) 1988 Marshall Kirk McKusick.
 * All Rights Reserved.  Reproduced with permission.
 */

#define maze_width 64
#define maze_height 64
static char maze_bits[] = {
   0x00, 0x00, 0x00, 0x00, 0x00, 0x00, 0x00, 0x00, 0x00, 0x00, 0x00, 0x01,
   0x00, 0x00, 0x00, 0x00, 0x00, 0x00, 0x80, 0x01, 0x00, 0x00, 0x00, 0x00,
   0x00, 0x00, 0x60, 0x01, 0x00, 0x00, 0x00, 0x00, 0x00, 0x00, 0x90, 0x00,
   0x00, 0x00, 0x00, 0x00, 0x00, 0x00, 0xd0, 0x00, 0x00, 0x00, 0x00, 0x00,
   0x00, 0x00, 0x50, 0x3c, 0x00, 0x08, 0x00, 0x00, 0x00, 0x00, 0x48, 0xee,
   0x01, 0x18, 0x00, 0x00, 0x00, 0x00, 0xe8, 0x81, 0x0f, 0x70, 0x00, 0x00,
   0x00, 0x00, 0xa8, 0x00, 0x0a, 0xd0, 0x00, 0x00, 0x00, 0x00, 0x18, 0x00,
   0x38, 0xa0, 0x01, 0x00, 0x00, 0x00, 0x20, 0x00, 0x38, 0x90, 0x01, 0x00,
   0x00, 0x00, 0x30, 0x07, 0x50, 0xdc, 0x01, 0x00, 0x00, 0x00, 0x90, 0x08,
   0xc0, 0xe3, 0x00, 0x00, 0x00, 0x00, 0x90, 0xc8, 0x01, 0xd0, 0x00, 0x00,
   0x00, 0x00, 0x48, 0x24, 0x02, 0x7c, 0x00, 0x00, 0x00, 0x00, 0xc8, 0x25,
   0x02, 0x34, 0x00, 0x00, 0x00, 0x00, 0x44, 0x25, 0x82, 0x0f, 0x00, 0x00,
   0x00, 0x00, 0xc4, 0x73, 0xc2, 0x03, 0x00, 0x00, 0x00, 0x00, 0xc2, 0x53,
   0xa2, 0x01, 0x00, 0x00, 0x00, 0x00, 0x81, 0xf1, 0x82, 0x01, 0x00, 0x00,
   0x00, 0x00, 0x01, 0xf3, 0xe1, 0x01, 0x00, 0x00, 0x00, 0x06, 0x81, 0xe0,
   0xa0, 0x00, 0x00, 0x00, 0x00, 0x1e, 0x41, 0x00, 0x90, 0x00, 0x00, 0x00,
   0x00, 0x1c, 0x96, 0x08, 0xe0, 0x00, 0x00, 0x00, 0x00, 0x1c, 0x24, 0x0f,
   0x70, 0x00, 0x00, 0x00, 0xc0, 0x18, 0xc8, 0x80, 0x58, 0x00, 0x00, 0x00,
   0xc0, 0x11, 0x90, 0x73, 0x34, 0x00, 0x00, 0x00, 0x80, 0x13, 0x60, 0x0f,
   0x1a, 0x00, 0x00, 0x00, 0x18, 0x1f, 0x80, 0x00, 0x07, 0x00, 0x00, 0x00,
   0x38, 0x3c, 0x00, 0xd1, 0x06, 0x00, 0x00, 0x00, 0xf0, 0xfe, 0x0e, 0x01,
   0x05, 0x00, 0x00, 0x00, 0xf0, 0xf3, 0x13, 0x01, 0x07, 0x00, 0x00, 0x00,
   0x00, 0xe0, 0xa9, 0x00, 0x06, 0x00, 0x00, 0x00, 0x00, 0x80, 0x43, 0x80,
   0x04, 0x00, 0x00, 0x00, 0x00, 0x80, 0x08, 0x00, 0x06, 0x00, 0x00, 0x00,
   0x00, 0x80, 0x2c, 0x80, 0x0a, 0x00, 0x00, 0x00, 0x00, 0x80, 0xa4, 0x3e,
   0x0e, 0x00, 0x00, 0x00, 0x00, 0x80, 0xd2, 0xa1, 0x0e, 0x00, 0x00, 0x00,
   0x00, 0x00, 0x59, 0x61, 0x04, 0x00, 0x00, 0x00, 0x00, 0x00, 0x09, 0x01,
   0x06, 0x00, 0x00, 0x00, 0x00, 0x00, 0xf6, 0x00, 0x06, 0x00, 0x00, 0x00,
   0x00, 0x00, 0x40, 0x80, 0x04, 0x00, 0x00, 0x00, 0x00, 0x00, 0xe0, 0xe1,
   0x06, 0x00, 0x00, 0x00, 0x00, 0x00, 0x10, 0xff, 0x05, 0x00, 0x00, 0x00,
   0x00, 0x00, 0x10, 0xc0, 0x07, 0x00, 0x00, 0x00, 0x00, 0x00, 0x10, 0x80,
   0x0f, 0x00, 0x00, 0x00, 0x00, 0x00, 0x20, 0x00, 0x37, 0x00, 0x00, 0x00,
   0x00, 0x00, 0x20, 0xc0, 0x6c, 0x00, 0x00, 0x00, 0x00, 0x00, 0x20, 0xc1,
   0xff, 0x00, 0x00, 0x00, 0x00, 0x00, 0x40, 0x7b, 0xdc, 0x03, 0x00, 0x00,
   0x00, 0x00, 0x60, 0x08, 0xf6, 0xff, 0x00, 0x00, 0x00, 0x00, 0x30, 0x99,
   0x04, 0x57, 0x0f, 0x00, 0x00, 0x00, 0xd0, 0x28, 0x04, 0xfc, 0x17, 0x00,
   0x00, 0x00, 0xc8, 0x5e, 0x08, 0x00, 0xfc, 0x00, 0x00, 0xc0, 0xb7, 0x27,
   0x08, 0x00, 0xb0, 0x01, 0x00, 0x30, 0xf4, 0x19, 0x18, 0x00, 0xc0, 0x02,
   0x00, 0x08, 0x5c, 0x0a, 0x1c, 0x00, 0xb4, 0x03, 0x00, 0x04, 0x04, 0x03,
   0x0b, 0x80, 0xdb, 0x00, 0x00, 0x04, 0x06, 0xd1, 0x07, 0x80, 0x34, 0x00,
   0x00, 0xf8, 0x01, 0xe2, 0x00, 0xe0, 0x09, 0x00, 0x00, 0x00, 0x06, 0x1f,
   0x00, 0xf8, 0x07, 0x00, 0x00, 0x00, 0xf8, 0x00, 0x00, 0x00, 0x00, 0x00,
   0x00, 0x00, 0x00, 0x00, 0x00, 0x00, 0x00, 0x00};
