#define image_width 16
#define image_height 16
static unsigned char image_bits[] = {
   0xff, 0xff, 0xff, 0xff, 0x07, 0xe0, 0x03, 0x80, 0x03, 0xf8, 0xe3, 0xff,
   0x63, 0xfe, 0x63, 0xe0, 0xe3, 0x80, 0x63, 0xf8, 0xe3, 0xff, 0xe3, 0xff,
   0x03, 0xe0, 0x03, 0x80, 0x0f, 0xf8, 0xff, 0xff};
