#define image_width 17
#define image_height 23
static unsigned char image_bits[] = {
   0x00, 0x00, 0x00, 0xbe, 0xfe, 0x00, 0xbe, 0xfc, 0x00, 0xbf, 0xf8, 0x01,
   0x9f, 0xf0, 0x01, 0xcf, 0xe0, 0x01, 0x4f, 0xe0, 0x01, 0x4f, 0xe0, 0x01,
   0xcf, 0xec, 0x01, 0xe7, 0xce, 0x01, 0xe7, 0xca, 0x01, 0xa7, 0xca, 0x01,
   0xa7, 0xca, 0x01, 0xa7, 0xca, 0x01, 0xaf, 0xee, 0x01, 0x0f, 0xe6, 0x01,
   0x0f, 0xe2, 0x01, 0x0f, 0xe2, 0x01, 0x1f, 0xf3, 0x01, 0x3f, 0xf9, 0x01,
   0x7e, 0xfd, 0x00, 0x7e, 0xfd, 0x00, 0x00, 0x00, 0x00};
