#define shark5_width 20
#define shark5_height 20
static unsigned char shark5_bits[] = {
   0x00, 0x00, 0x00, 0x00, 0x00, 0x00, 0x00, 0x00, 0x00, 0x00, 0x00, 0x00,
   0x00, 0x00, 0x00, 0x02, 0x00, 0x00, 0x07, 0x08, 0x00, 0x01, 0x18, 0x00,
   0xc3, 0xff, 0x01, 0xfe, 0xff, 0x07, 0xfc, 0xff, 0x07, 0xc0, 0xff, 0x01,
   0x00, 0x18, 0x00, 0x00, 0x0c, 0x00, 0x00, 0x00, 0x00, 0x00, 0x00, 0x00,
   0x00, 0x00, 0x00, 0x00, 0x00, 0x00, 0x00, 0x00, 0x00, 0x00, 0x00, 0x00};
