#define shark7_width 20
#define shark7_height 20
static unsigned char shark7_bits[] = {
   0x00, 0x00, 0x00, 0x00, 0x00, 0x00, 0x00, 0x00, 0x00, 0x00, 0x00, 0x00,
   0x00, 0x00, 0x00, 0x00, 0x00, 0x00, 0x00, 0x03, 0x00, 0x80, 0x01, 0x00,
   0xf8, 0x3f, 0x00, 0xfe, 0xff, 0x03, 0xfe, 0xff, 0x07, 0xf8, 0x3f, 0x0c,
   0x80, 0x01, 0x08, 0x00, 0x01, 0x0e, 0x00, 0x00, 0x04, 0x00, 0x00, 0x00,
   0x00, 0x00, 0x00, 0x00, 0x00, 0x00, 0x00, 0x00, 0x00, 0x00, 0x00, 0x00};
