#define shark3_width 20
#define shark3_height 20
static unsigned char shark3_bits[] = {
   0x00, 0x00, 0x00, 0x00, 0x00, 0x00, 0x00, 0x00, 0x00, 0x00, 0x00, 0x00,
   0x00, 0x00, 0x00, 0x00, 0x00, 0x04, 0x00, 0x01, 0x0e, 0x80, 0x01, 0x08,
   0xf8, 0x3f, 0x0c, 0xfe, 0xff, 0x07, 0xfe, 0xff, 0x03, 0xf8, 0x3f, 0x00,
   0x80, 0x01, 0x00, 0x00, 0x03, 0x00, 0x00, 0x00, 0x00, 0x00, 0x00, 0x00,
   0x00, 0x00, 0x00, 0x00, 0x00, 0x00, 0x00, 0x00, 0x00, 0x00, 0x00, 0x00};
