#define shark6_width 20
#define shark6_height 20
static char shark6_bits[] = {
   0x00, 0x38, 0x00, 0x00, 0x6c, 0x00, 0x00, 0x26, 0x00, 0x00, 0x06, 0x00,
   0x00, 0x06, 0x00, 0x00, 0x06, 0x00, 0x00, 0x0f, 0x00, 0x00, 0x0f, 0x00,
   0x00, 0x0f, 0x00, 0x00, 0x0f, 0x00, 0x40, 0x0f, 0x00, 0xc0, 0x3f, 0x00,
   0x80, 0x1f, 0x00, 0x00, 0x0f, 0x00, 0x00, 0x0f, 0x00, 0x00, 0x0f, 0x00,
   0x00, 0x0f, 0x00, 0x00, 0x06, 0x00, 0x00, 0x06, 0x00, 0x00, 0x00, 0x00};
