#define terra16_width 64
#define terra16_height 64
#define terra16_x_hot 32
#define terra16_y_hot 32
static unsigned char terra16_bits[] = {
0x00, 0x00, 0x00, 0x00, 0x00, 0x00, 0x00, 0x00, 0x00, 0x00, 0x80, 0x1b, 
0x00, 0x02, 0x00, 0x00, 0x00, 0x00, 0xf0, 0xff, 0xef, 0x0f, 0x00, 0x00, 
0x00, 0x00, 0xfe, 0xff, 0x83, 0x7f, 0x00, 0x00, 0x00, 0x00, 0xff, 0x61, 
0x00, 0xe6, 0x00, 0x00, 0x00, 0xc0, 0x7f, 0x30, 0x00, 0x00, 0x03, 0x00, 
0x00, 0xe0, 0xff, 0x10, 0x00, 0x00, 0x06, 0x00, 0x00, 0xf8, 0x7f, 0x00, 
0x00, 0x00, 0x18, 0x00, 0x00, 0xfc, 0x5f, 0x00, 0x00, 0x00, 0x30, 0x00, 
0x00, 0xfe, 0x4f, 0x00, 0x00, 0x00, 0x60, 0x00, 0x00, 0xff, 0x01, 0x00, 
0x00, 0x00, 0xc0, 0x00, 0x80, 0xbf, 0x10, 0x00, 0x00, 0x00, 0x80, 0x01, 
0x80, 0x9f, 0x08, 0x00, 0x00, 0x00, 0x00, 0x01, 0xc0, 0x0f, 0x06, 0x00, 
0x00, 0x00, 0x00, 0x02, 0xe0, 0x0f, 0x00, 0x00, 0x00, 0x00, 0x00, 0x04, 
0xe0, 0x0f, 0x00, 0x00, 0x00, 0x00, 0x00, 0x00, 0xf0, 0x0f, 0x00, 0x00, 
0x00, 0x00, 0x00, 0x08, 0xf8, 0x07, 0x00, 0x00, 0x00, 0x00, 0x00, 0x10, 
0xf8, 0x03, 0x00, 0x00, 0x00, 0x00, 0x00, 0x00, 0xf8, 0x00, 0x00, 0x00, 
0x00, 0x00, 0x00, 0x00, 0x3c, 0x00, 0x00, 0x00, 0x00, 0x00, 0x00, 0x00, 
0x18, 0x00, 0x00, 0x00, 0x00, 0x00, 0x00, 0x00, 0x18, 0x02, 0x00, 0x00, 
0x00, 0x00, 0x00, 0x00, 0x18, 0x02, 0x00, 0x00, 0x00, 0x00, 0x00, 0x00, 
0x18, 0x00, 0x00, 0x00, 0x00, 0x00, 0x00, 0x00, 0x10, 0x00, 0x00, 0x00, 
0x00, 0x00, 0x00, 0x00, 0x00, 0x00, 0x00, 0x00, 0x00, 0x00, 0x00, 0x00, 
0x00, 0x06, 0x00, 0x00, 0x00, 0x00, 0x00, 0x00, 0x00, 0x04, 0x00, 0x00, 
0x00, 0x00, 0x00, 0x00, 0xc4, 0x00, 0x00, 0x00, 0x00, 0x00, 0x00, 0x00, 
0x64, 0x00, 0x00, 0x00, 0x00, 0x00, 0x00, 0x00, 0x64, 0x00, 0x00, 0x00, 
0x00, 0x00, 0x00, 0x00, 0x64, 0x20, 0x00, 0x00, 0x00, 0x00, 0x00, 0x00, 
0x68, 0xe0, 0x01, 0x00, 0x00, 0x00, 0x00, 0x00, 0x00, 0x80, 0x8f, 0x00, 
0x00, 0x00, 0x00, 0x00, 0x00, 0x00, 0x1f, 0x00, 0x00, 0x00, 0x00, 0x00, 
0x40, 0x04, 0x16, 0x00, 0x00, 0x00, 0x00, 0x00, 0x00, 0x00, 0x00, 0x00, 
0x00, 0x00, 0x00, 0x00, 0x00, 0x00, 0x00, 0x00, 0x00, 0x00, 0x00, 0x00, 
0x00, 0x60, 0x04, 0x00, 0x00, 0x00, 0x00, 0x00, 0x00, 0xf8, 0x0c, 0x00, 
0x00, 0x00, 0x00, 0x00, 0x00, 0xfc, 0x0d, 0x00, 0x00, 0x00, 0x00, 0x00, 
0x00, 0xfc, 0x1f, 0x00, 0x00, 0x00, 0x00, 0x00, 0x00, 0xfe, 0x3f, 0x00, 
0x00, 0x00, 0x00, 0x00, 0x00, 0xff, 0x7f, 0x00, 0x00, 0x00, 0x00, 0x00, 
0x00, 0xff, 0xff, 0x00, 0x00, 0x00, 0x00, 0x00, 0x00, 0xfe, 0xff, 0x01, 
0x00, 0x00, 0x00, 0x00, 0x00, 0xfe, 0xff, 0x01, 0x00, 0x00, 0x00, 0x00, 
0x00, 0xfc, 0xff, 0x01, 0x00, 0x00, 0x00, 0x00, 0x00, 0x38, 0xfe, 0x01, 
0x00, 0x00, 0x00, 0x00, 0x00, 0x00, 0xf8, 0x00, 0x00, 0x00, 0x00, 0x00, 
0x00, 0x00, 0xf0, 0x00, 0x08, 0x00, 0x00, 0x00, 0x00, 0x00, 0x00, 0x00, 
0x08, 0x00, 0x00, 0x00, 0x00, 0x00, 0x80, 0x00, 0x06, 0x00, 0x00, 0x00, 
0x00, 0x00, 0x00, 0x00, 0x03, 0x00, 0x00, 0x00, 0x00, 0x00, 0x00, 0x00, 
0x00, 0x00, 0x00, 0x00, 0x00, 0x00, 0x00, 0x00, 0x00, 0x00, 0x00, 0x00, 
0x00, 0x00, 0x00, 0x00, 0x00, 0x00, 0x00, 0x00, 0x00, 0x00, 0x00, 0x00, 
0x00, 0x00, 0x00, 0x00, 0x00, 0x00, 0x00, 0x00, 0x00, 0x00, 0x00, 0x00, 
0x00, 0x00, 0x00, 0x00, 0x00, 0x00, 0x00, 0x00, 0x00, 0x00, 0x20, 0x00, 
0x00, 0x00, 0x00, 0x00, 0x00, 0x00, 0x80, 0xff, 0x00, 0x00, 0x00, 0x00, 
0x00, 0x00, 0x00, 0xf0, 0x18, 0x00, 0x00, 0x00};
