#define terra05_width 64
#define terra05_height 64
#define terra05_x_hot 32
#define terra05_y_hot 32
static unsigned char terra05_bits[] = {
0x00, 0x00, 0x00, 0xf0, 0x0f, 0x00, 0x00, 0x00, 0x00, 0x00, 0x80, 0x3f,
0x3e, 0x00, 0x00, 0x00, 0x00, 0x00, 0xf0, 0x67, 0x3c, 0x00, 0x00, 0x00,
0x00, 0x00, 0xfe, 0x00, 0x0c, 0x20, 0x00, 0x00, 0x00, 0x00, 0x7f, 0x78,
0x00, 0x80, 0x00, 0x00, 0x00, 0x80, 0xff, 0xf8, 0x00, 0x40, 0x02, 0x00,
0x00, 0xc0, 0xff, 0xfd, 0x01, 0x80, 0x06, 0x00, 0x00, 0xe0, 0xff, 0x7f,
0x02, 0x00, 0x1e, 0x00, 0x00, 0xf0, 0xff, 0x3f, 0x00, 0x00, 0x3c, 0x00,
0x00, 0xf8, 0xff, 0x2f, 0x00, 0x00, 0x70, 0x00, 0x00, 0xf8, 0xff, 0x07,
0x00, 0x00, 0xdc, 0x00, 0x00, 0xfc, 0xff, 0x03, 0x00, 0x00, 0x38, 0x01,
0x00, 0xfe, 0xff, 0x01, 0x00, 0x00, 0x30, 0x01, 0x00, 0xfe, 0xff, 0x00,
0x00, 0x00, 0xc0, 0x01, 0x00, 0xfe, 0x7f, 0x00, 0x00, 0x00, 0xe0, 0x03,
0x00, 0xfe, 0x3f, 0x00, 0x00, 0x00, 0xe0, 0x07, 0x00, 0x7c, 0x20, 0x00,
0x00, 0x00, 0xe0, 0x0f, 0x00, 0x3c, 0x20, 0x00, 0x00, 0x00, 0xe0, 0x1f,
0x00, 0x3c, 0x00, 0x00, 0x00, 0x00, 0xe0, 0x1f, 0x00, 0x38, 0x00, 0x00,
0x00, 0x00, 0xe0, 0x1f, 0x00, 0x38, 0xc2, 0x00, 0x00, 0x00, 0xe0, 0x3f,
0x00, 0x38, 0x03, 0x06, 0x00, 0x00, 0xe0, 0x3f, 0x00, 0xf0, 0x01, 0x00,
0x00, 0x00, 0xe0, 0x3f, 0x00, 0x80, 0x07, 0x00, 0x00, 0x00, 0xe0, 0x7f,
0x00, 0x00, 0x06, 0x00, 0x00, 0x00, 0xc0, 0x7f, 0x00, 0x00, 0x04, 0x02,
0x00, 0x00, 0xc0, 0x7f, 0x00, 0x00, 0x88, 0x7f, 0x00, 0x00, 0x80, 0x7f,
0x00, 0x00, 0xd0, 0xff, 0x00, 0x00, 0x80, 0x7f, 0x00, 0x00, 0x80, 0xff,
0x03, 0x00, 0x00, 0xef, 0x00, 0x00, 0x80, 0xff, 0x1f, 0x00, 0x00, 0xe0,
0x00, 0x00, 0xc0, 0xff, 0x1f, 0x00, 0x00, 0xc0, 0x00, 0x00, 0xe0, 0xff,
0x1f, 0x00, 0x00, 0xc0, 0x00, 0x00, 0xe0, 0xff, 0x7f, 0x00, 0x00, 0xc0,
0x00, 0x00, 0xe0, 0xff, 0xff, 0x01, 0x00, 0xc0, 0x00, 0x00, 0xe0, 0xff,
0xff, 0x0f, 0x00, 0x80, 0x00, 0x00, 0xe0, 0xff, 0xff, 0x1f, 0x00, 0x80,
0x00, 0x00, 0xe0, 0xff, 0xff, 0x1f, 0x00, 0x00, 0x00, 0x00, 0xc0, 0xff,
0xff, 0x1f, 0x00, 0x40, 0x00, 0x00, 0x80, 0xff, 0xff, 0x0f, 0x00, 0x40,
0x00, 0x00, 0x80, 0xff, 0xff, 0x07, 0x00, 0x40, 0x00, 0x00, 0x00, 0xff,
0xff, 0x07, 0x00, 0x40, 0x00, 0x00, 0x00, 0xfc, 0xff, 0x07, 0x00, 0x20,
0x00, 0x00, 0x00, 0xf8, 0xff, 0x03, 0x00, 0x20, 0x00, 0x00, 0x00, 0xf8,
0xff, 0x03, 0x00, 0x20, 0x00, 0x00, 0x00, 0xf8, 0xff, 0x00, 0x00, 0x00,
0x00, 0x00, 0x00, 0xf8, 0x3f, 0x00, 0x00, 0x10, 0x00, 0x00, 0x00, 0xf8,
0x1f, 0x00, 0x00, 0x10, 0x00, 0x00, 0x00, 0xf8, 0x1f, 0x00, 0x00, 0x08,
0x00, 0x00, 0x00, 0xf8, 0x1f, 0x00, 0x00, 0x00, 0x00, 0x00, 0x00, 0xf8,
0x0f, 0x00, 0x00, 0x00, 0x00, 0x00, 0x00, 0xf8, 0x03, 0x00, 0x00, 0x00,
0x00, 0x00, 0x00, 0xfc, 0x01, 0x00, 0x00, 0x00, 0x00, 0x00, 0x00, 0x7c,
0x00, 0x00, 0x00, 0x00, 0x00, 0x00, 0x00, 0x3c, 0x00, 0x00, 0x00, 0x00,
0x00, 0x00, 0x00, 0x3c, 0x00, 0x00, 0x00, 0x00, 0x00, 0x00, 0x00, 0x3c,
0x00, 0x00, 0x00, 0x00, 0x00, 0x00, 0x00, 0x18, 0x00, 0x00, 0x00, 0x00,
0x00, 0x00, 0x00, 0x18, 0x00, 0x00, 0x00, 0x00, 0x00, 0x00, 0x00, 0x00,
0x00, 0x00, 0x00, 0x00, 0x00, 0x00, 0x00, 0x00, 0x00, 0x00, 0x00, 0x00,
0x00, 0x00, 0x00, 0x00, 0x00, 0x00, 0x00, 0x00, 0x00, 0x00, 0x00, 0x40,
0x00, 0x00, 0x00, 0x00, 0x00, 0x00, 0x00, 0xe0, 0x00, 0x03, 0x00, 0x00,
0x00, 0x00, 0x00, 0xf0, 0x19, 0x00, 0x00, 0x00};
