#define terra21_width 64
#define terra21_height 64
#define terra21_x_hot 32
#define terra21_y_hot 32
static unsigned char terra21_bits[] = {
0x00, 0x00, 0x00, 0xc0, 0x00, 0x00, 0x00, 0x00, 0x00, 0x00, 0x00, 0xf6,
0x37, 0x00, 0x00, 0x00, 0x00, 0x00, 0xf0, 0xff, 0xff, 0x0f, 0x00, 0x00,
0x00, 0x00, 0xfe, 0xff, 0xff, 0x3f, 0x00, 0x00, 0x00, 0x00, 0xff, 0xff,
0xff, 0x21, 0x00, 0x00, 0x00, 0xc0, 0xff, 0xff, 0xff, 0x61, 0x00, 0x00,
0x00, 0xe0, 0xff, 0xff, 0xff, 0x47, 0x00, 0x00, 0x00, 0xf8, 0xff, 0xff,
0xff, 0x0f, 0x00, 0x00, 0x00, 0xfc, 0xff, 0xff, 0xff, 0x07, 0x00, 0x00,
0x00, 0xfe, 0xff, 0xff, 0xff, 0x07, 0x00, 0x00, 0x00, 0xff, 0xff, 0xff,
0xff, 0x21, 0x00, 0x00, 0x80, 0xff, 0xff, 0xff, 0x9f, 0x21, 0x00, 0x00,
0xc0, 0xff, 0xff, 0xff, 0x1f, 0x21, 0x00, 0x00, 0xc0, 0xff, 0xff, 0xff,
0x1f, 0x30, 0x00, 0x00, 0xc0, 0xff, 0xff, 0xff, 0x3f, 0x04, 0x00, 0x00,
0xe0, 0xff, 0xff, 0xff, 0x3f, 0x00, 0x00, 0x00, 0xf0, 0xfe, 0xff, 0xff,
0x7f, 0x00, 0x00, 0x00, 0xf8, 0xfe, 0xff, 0xff, 0x3f, 0x00, 0x00, 0x00,
0xf8, 0xe0, 0xff, 0xff, 0x1f, 0x00, 0x00, 0x00, 0xe8, 0xe3, 0xff, 0xff,
0x0f, 0x00, 0x00, 0x00, 0xfc, 0xc1, 0x1f, 0xff, 0x00, 0x00, 0x00, 0x00,
0xf4, 0x81, 0x0f, 0x7f, 0x00, 0x00, 0x00, 0x00, 0x76, 0x80, 0x07, 0xfe,
0x00, 0x00, 0x00, 0x00, 0x36, 0x80, 0x03, 0xf8, 0x00, 0x00, 0x00, 0x00,
0x1e, 0x80, 0x01, 0xf8, 0x00, 0x00, 0x00, 0x00, 0x06, 0x80, 0x01, 0xe0,
0x00, 0x00, 0x00, 0x00, 0x1e, 0x80, 0x01, 0x40, 0x00, 0x03, 0x00, 0x00,
0x1f, 0x00, 0x02, 0x08, 0x00, 0x03, 0x00, 0x00, 0x0f, 0x00, 0x00, 0x10,
0x10, 0x00, 0x00, 0x00, 0x0f, 0x00, 0x00, 0x16, 0x38, 0x00, 0x00, 0x00,
0x0f, 0x00, 0x00, 0x2c, 0x1c, 0x00, 0x00, 0x00, 0x07, 0x00, 0x00, 0x18,
0x3e, 0x00, 0x00, 0x00, 0x07, 0x00, 0x00, 0x30, 0x1e, 0x20, 0x00, 0x00,
0x03, 0x00, 0x00, 0x70, 0xdc, 0xa0, 0x01, 0x00, 0x03, 0x00, 0x00, 0x60,
0x00, 0x80, 0x07, 0x00, 0x03, 0x00, 0x00, 0x00, 0x00, 0x00, 0x0f, 0x00,
0x03, 0x00, 0x00, 0x00, 0x00, 0x00, 0x0e, 0x00, 0x06, 0x00, 0x00, 0x00,
0x00, 0x00, 0x00, 0x00, 0x06, 0x00, 0x00, 0x00, 0x00, 0x00, 0x00, 0x00,
0x06, 0x00, 0x00, 0x00, 0x00, 0x70, 0x00, 0x00, 0x26, 0x00, 0x00, 0x00,
0x00, 0x7e, 0x06, 0x00, 0x26, 0x00, 0x00, 0x00, 0x00, 0xff, 0x06, 0x00,
0x24, 0x00, 0x00, 0x00, 0x80, 0xff, 0x07, 0x00, 0x24, 0x00, 0x00, 0x00,
0xe0, 0xff, 0x0f, 0x00, 0x28, 0x00, 0x00, 0x00, 0xf8, 0xff, 0x0f, 0x00,
0x08, 0x00, 0x00, 0x00, 0xf8, 0xff, 0x0f, 0x00, 0x08, 0x00, 0x00, 0x00,
0xf8, 0xff, 0x0f, 0x00, 0x10, 0x00, 0x00, 0x00, 0xf8, 0xff, 0x0f, 0x00,
0x00, 0x00, 0x00, 0x00, 0xf0, 0xff, 0x0f, 0x00, 0x00, 0x00, 0x00, 0x00,
0xf0, 0xf0, 0x07, 0x00, 0x00, 0x00, 0x00, 0x00, 0x00, 0xf0, 0x03, 0x00,
0x00, 0x00, 0x00, 0x00, 0x00, 0xc0, 0x81, 0x00, 0x00, 0x00, 0x00, 0x00,
0x00, 0x00, 0x00, 0x00, 0x00, 0x00, 0x00, 0x00, 0x00, 0x00, 0x00, 0x00,
0x00, 0x00, 0x00, 0x00, 0x00, 0x00, 0x10, 0x00, 0x00, 0x00, 0x00, 0x00,
0x00, 0x00, 0x00, 0x00, 0x00, 0x00, 0x00, 0x00, 0x00, 0x00, 0x00, 0x00,
0x00, 0x00, 0x00, 0x00, 0x00, 0x00, 0x00, 0x00, 0x00, 0x00, 0x00, 0x00,
0x00, 0x00, 0x00, 0x00, 0x00, 0x00, 0x00, 0x00, 0x00, 0x00, 0x00, 0x00,
0x00, 0x00, 0x00, 0x00, 0x00, 0x00, 0x00, 0x00, 0x00, 0x00, 0x20, 0x90,
0x00, 0x00, 0x00, 0x00, 0x00, 0x00, 0x80, 0xff, 0xff, 0x01, 0x00, 0x00,
0x00, 0x00, 0x00, 0xf0, 0x1f, 0x00, 0x00, 0x00};
