#define terra17_width 64
#define terra17_height 64
#define terra17_x_hot 32
#define terra17_y_hot 32
static unsigned char terra17_bits[] = {
0x00, 0x00, 0x00, 0x00, 0x00, 0x00, 0x00, 0x00, 0x00, 0x00, 0x80, 0x6f, 
0x00, 0x00, 0x00, 0x00, 0x00, 0x00, 0xf0, 0xff, 0x3f, 0x0f, 0x00, 0x00, 
0x00, 0x00, 0xfe, 0xff, 0x1f, 0x7e, 0x00, 0x00, 0x00, 0x00, 0xff, 0x0f, 
0x06, 0x90, 0x00, 0x00, 0x00, 0xc0, 0xff, 0x03, 0x03, 0x10, 0x02, 0x00, 
0x00, 0xe0, 0xff, 0x07, 0x01, 0x00, 0x04, 0x00, 0x00, 0xf8, 0xff, 0x03, 
0x00, 0x00, 0x00, 0x00, 0x00, 0xfc, 0xff, 0x03, 0x00, 0x00, 0x00, 0x00, 
0x00, 0xfe, 0xff, 0x04, 0x00, 0x00, 0x00, 0x00, 0x00, 0xff, 0x3f, 0x00, 
0x00, 0x00, 0x00, 0x00, 0x80, 0xff, 0x1b, 0x02, 0x00, 0x00, 0x00, 0x00, 
0x80, 0xff, 0x09, 0x01, 0x00, 0x00, 0x00, 0x00, 0xc0, 0xff, 0x81, 0x00, 
0x00, 0x00, 0x00, 0x00, 0xe0, 0xff, 0x10, 0x00, 0x00, 0x00, 0x00, 0x00, 
0xe0, 0xff, 0x00, 0x00, 0x00, 0x00, 0x00, 0x00, 0xf0, 0xff, 0x00, 0x00, 
0x00, 0x00, 0x00, 0x00, 0xf8, 0x7f, 0x00, 0x00, 0x00, 0x00, 0x00, 0x00, 
0xf8, 0x3f, 0x00, 0x00, 0x00, 0x00, 0x00, 0x00, 0xf8, 0x1f, 0x00, 0x00, 
0x00, 0x00, 0x00, 0x00, 0xec, 0x01, 0x00, 0x00, 0x00, 0x00, 0x00, 0x00, 
0xe4, 0x01, 0x00, 0x00, 0x00, 0x00, 0x00, 0x00, 0xe6, 0x41, 0x00, 0x00, 
0x00, 0x00, 0x00, 0x00, 0xc2, 0x01, 0x00, 0x00, 0x00, 0x00, 0x00, 0x00, 
0xc2, 0x01, 0x00, 0x00, 0x00, 0x00, 0x00, 0x00, 0x80, 0x81, 0x00, 0x00, 
0x00, 0x00, 0x00, 0x00, 0x80, 0x80, 0x00, 0x00, 0x00, 0x00, 0x00, 0x00, 
0x00, 0xc0, 0x00, 0x00, 0x00, 0x00, 0x00, 0x00, 0x00, 0x88, 0x00, 0x00, 
0x00, 0x00, 0x00, 0x00, 0x10, 0x0c, 0x00, 0x00, 0x00, 0x00, 0x00, 0x00, 
0x20, 0x0c, 0x00, 0x00, 0x00, 0x00, 0x00, 0x00, 0x60, 0x0e, 0x00, 0x00, 
0x00, 0x00, 0x00, 0x00, 0x40, 0x0e, 0x00, 0x00, 0x00, 0x00, 0x00, 0x00, 
0x40, 0x26, 0x68, 0x00, 0x00, 0x00, 0x00, 0x00, 0x40, 0x20, 0xe0, 0x03, 
0x00, 0x00, 0x00, 0x00, 0x00, 0x00, 0xc0, 0x87, 0x00, 0x00, 0x00, 0x00, 
0x00, 0x00, 0x80, 0x05, 0x00, 0x00, 0x00, 0x00, 0x00, 0x00, 0x00, 0x00, 
0x00, 0x00, 0x00, 0x00, 0x00, 0x00, 0x00, 0x01, 0x00, 0x00, 0x00, 0x00, 
0x00, 0x00, 0x1c, 0x01, 0x00, 0x00, 0x00, 0x00, 0x00, 0x00, 0x1f, 0x03, 
0x00, 0x00, 0x00, 0x00, 0x00, 0x80, 0x7f, 0x07, 0x00, 0x00, 0x00, 0x00, 
0x00, 0x80, 0xff, 0x07, 0x00, 0x00, 0x00, 0x00, 0x00, 0xe0, 0xff, 0x0f, 
0x00, 0x00, 0x00, 0x00, 0x00, 0xf0, 0xff, 0x1f, 0x00, 0x00, 0x00, 0x00, 
0x00, 0xf0, 0xff, 0x3f, 0x00, 0x00, 0x00, 0x00, 0x00, 0xe0, 0xff, 0x3f, 
0x00, 0x00, 0x00, 0x00, 0x00, 0xe0, 0xff, 0x7f, 0x00, 0x00, 0x00, 0x00, 
0x00, 0xc0, 0xff, 0x3f, 0x00, 0x00, 0x00, 0x00, 0x00, 0x80, 0xc3, 0x3f, 
0x00, 0x00, 0x00, 0x00, 0x00, 0x00, 0x80, 0x1f, 0x00, 0x00, 0x00, 0x00, 
0x00, 0x00, 0x00, 0x1e, 0x00, 0x01, 0x00, 0x00, 0x00, 0x00, 0x00, 0x00, 
0x00, 0x01, 0x00, 0x00, 0x00, 0x00, 0x00, 0x10, 0xc0, 0x00, 0x00, 0x00, 
0x00, 0x00, 0x00, 0x00, 0x20, 0x00, 0x00, 0x00, 0x00, 0x00, 0x00, 0x00, 
0x00, 0x00, 0x00, 0x00, 0x00, 0x00, 0x00, 0x00, 0x00, 0x00, 0x00, 0x00, 
0x00, 0x00, 0x00, 0x00, 0x00, 0x00, 0x00, 0x00, 0x00, 0x00, 0x00, 0x00, 
0x00, 0x00, 0x00, 0x00, 0x00, 0x00, 0x00, 0x00, 0x00, 0x00, 0x00, 0x00, 
0x00, 0x00, 0x00, 0x00, 0x00, 0x00, 0x00, 0x00, 0x00, 0x00, 0xb0, 0x00, 
0x00, 0x00, 0x00, 0x00, 0x00, 0x00, 0x80, 0xff, 0x03, 0x00, 0x00, 0x00, 
0x00, 0x00, 0x00, 0xf0, 0x01, 0x00, 0x00, 0x00};
