#define terra15_width 64
#define terra15_height 64
#define terra15_x_hot 32
#define terra15_y_hot 32
static unsigned char terra15_bits[] = {
0x00, 0x00, 0x00, 0x00, 0x00, 0x00, 0x00, 0x00, 0x00, 0x00, 0x80, 0x05, 
0x00, 0x03, 0x00, 0x00, 0x00, 0x00, 0xf0, 0xff, 0xf9, 0x0f, 0x00, 0x00, 
0x00, 0x00, 0xfe, 0x7f, 0xf0, 0x7f, 0x00, 0x00, 0x00, 0x00, 0x3f, 0x04, 
0xc0, 0xf8, 0x00, 0x00, 0x00, 0xc0, 0x0f, 0x06, 0x00, 0xe0, 0x03, 0x00, 
0x00, 0xe0, 0x0f, 0x01, 0x00, 0x80, 0x0f, 0x00, 0x00, 0xf8, 0x0f, 0x00, 
0x00, 0x00, 0x1e, 0x00, 0x00, 0xfc, 0x03, 0x00, 0x00, 0x00, 0x3c, 0x00, 
0x00, 0xfe, 0x00, 0x00, 0x00, 0x00, 0x78, 0x00, 0x00, 0x3f, 0x00, 0x00, 
0x00, 0x00, 0xf0, 0x00, 0x80, 0x1f, 0x00, 0x00, 0x00, 0x00, 0xf0, 0x01, 
0x80, 0x8b, 0x00, 0x00, 0x00, 0x00, 0xe0, 0x01, 0xc0, 0x41, 0x00, 0x00, 
0x00, 0x00, 0xc0, 0x03, 0xe0, 0x01, 0x00, 0x00, 0x00, 0x00, 0x00, 0x07, 
0xe0, 0x01, 0x00, 0x00, 0x00, 0x00, 0x00, 0x06, 0xf0, 0x00, 0x00, 0x00, 
0x00, 0x00, 0x00, 0x0e, 0x78, 0x00, 0x00, 0x00, 0x00, 0x00, 0x00, 0x1c, 
0x78, 0x00, 0x00, 0x00, 0x00, 0x00, 0x00, 0x18, 0x18, 0x00, 0x00, 0x00, 
0x00, 0x00, 0x00, 0x10, 0x0c, 0x00, 0x00, 0x00, 0x00, 0x00, 0x00, 0x20, 
0x04, 0x00, 0x00, 0x00, 0x00, 0x00, 0x00, 0x20, 0x06, 0x00, 0x00, 0x00, 
0x00, 0x00, 0x00, 0x00, 0x22, 0x00, 0x00, 0x00, 0x00, 0x00, 0x00, 0x00, 
0x22, 0x00, 0x00, 0x00, 0x00, 0x00, 0x00, 0x00, 0x02, 0x00, 0x00, 0x00, 
0x00, 0x00, 0x00, 0x00, 0x20, 0x00, 0x00, 0x00, 0x00, 0x00, 0x00, 0x00, 
0x20, 0x00, 0x00, 0x00, 0x00, 0x00, 0x00, 0x00, 0x09, 0x00, 0x00, 0x00, 
0x00, 0x00, 0x00, 0x00, 0x09, 0x00, 0x00, 0x00, 0x00, 0x00, 0x00, 0x00, 
0x05, 0x00, 0x00, 0x00, 0x00, 0x00, 0x00, 0x00, 0x0d, 0x00, 0x00, 0x00, 
0x00, 0x00, 0x00, 0x00, 0x05, 0x01, 0x00, 0x00, 0x00, 0x00, 0x00, 0x00, 
0x16, 0x0f, 0x00, 0x00, 0x00, 0x00, 0x00, 0x00, 0x10, 0x3c, 0x00, 0x00, 
0x00, 0x00, 0x00, 0x00, 0x00, 0x78, 0x00, 0x00, 0x00, 0x00, 0x00, 0x00, 
0x00, 0x58, 0x00, 0x00, 0x00, 0x00, 0x00, 0x00, 0x00, 0x00, 0x00, 0x00, 
0x00, 0x00, 0x00, 0x00, 0x00, 0x00, 0x00, 0x00, 0x00, 0x00, 0x00, 0x00, 
0x00, 0x03, 0x00, 0x00, 0x00, 0x00, 0x00, 0x00, 0x80, 0x27, 0x00, 0x00, 
0x00, 0x00, 0x00, 0x00, 0xc0, 0x7f, 0x00, 0x00, 0x00, 0x00, 0x00, 0x00, 
0xc0, 0x7f, 0x00, 0x00, 0x00, 0x00, 0x00, 0x00, 0xe0, 0xff, 0x00, 0x00, 
0x00, 0x00, 0x00, 0x00, 0xe0, 0xff, 0x01, 0x00, 0x00, 0x00, 0x00, 0x00, 
0xe0, 0xff, 0x03, 0x00, 0x00, 0x00, 0x00, 0x00, 0xc0, 0xff, 0x07, 0x00, 
0x00, 0x00, 0x00, 0x00, 0xc0, 0xff, 0x07, 0x00, 0x00, 0x00, 0x00, 0x00, 
0x80, 0xff, 0x07, 0x00, 0x00, 0x00, 0x00, 0x00, 0x00, 0xe3, 0x07, 0x00, 
0x00, 0x00, 0x00, 0x00, 0x00, 0xc0, 0x07, 0x00, 0x00, 0x00, 0x00, 0x00, 
0x00, 0x80, 0x07, 0x00, 0x00, 0x00, 0x00, 0x00, 0x00, 0x00, 0x00, 0x40, 
0x00, 0x00, 0x00, 0x00, 0x00, 0x00, 0x04, 0x30, 0x00, 0x00, 0x00, 0x00, 
0x00, 0x00, 0x00, 0x18, 0x00, 0x00, 0x00, 0x00, 0x00, 0x00, 0x00, 0x00, 
0x00, 0x00, 0x00, 0x00, 0x00, 0x00, 0x00, 0x00, 0x00, 0x00, 0x00, 0x00, 
0x00, 0x00, 0x00, 0x00, 0x00, 0x00, 0x00, 0x00, 0x00, 0x00, 0x00, 0x00, 
0x00, 0x00, 0x00, 0x00, 0x00, 0x00, 0x00, 0x00, 0x00, 0x00, 0x00, 0x00, 
0x00, 0x00, 0x00, 0x00, 0x00, 0x00, 0x00, 0x00, 0x00, 0x00, 0x00, 0x00, 
0x00, 0x00, 0x00, 0x00, 0x00, 0x00, 0x80, 0x3f, 0x00, 0x00, 0x00, 0x00, 
0x00, 0x00, 0x00, 0x70, 0x1c, 0x00, 0x00, 0x00};
