#define terra04_width 64
#define terra04_height 64
#define terra04_x_hot 32
#define terra04_y_hot 32
static char terra04_bits[] = {
0x00, 0x00, 0x00, 0xf0, 0x07, 0x00, 0x00, 0x00, 0x00, 0x00, 0x80, 0x8f, 
0x0f, 0x00, 0x00, 0x00, 0x00, 0x00, 0xf0, 0x9d, 0x07, 0x08, 0x00, 0x00, 
0x00, 0x00, 0x3e, 0x81, 0x03, 0x70, 0x00, 0x00, 0x00, 0x00, 0x0f, 0x0b, 
0x00, 0xa0, 0x00, 0x00, 0x00, 0xc0, 0x9f, 0x0f, 0x00, 0x90, 0x02, 0x00, 
0x00, 0xe0, 0xdf, 0x1f, 0x00, 0x70, 0x07, 0x00, 0x00, 0xf8, 0xff, 0x31, 
0x00, 0x80, 0x1f, 0x00, 0x00, 0xf8, 0xff, 0x03, 0x00, 0x00, 0x3f, 0x00, 
0x00, 0xfc, 0xff, 0x00, 0x00, 0x00, 0x7e, 0x00, 0x00, 0xfe, 0x7f, 0x00, 
0x00, 0x80, 0xf3, 0x00, 0x00, 0xff, 0x1f, 0x00, 0x00, 0x00, 0xc3, 0x01, 
0x00, 0xff, 0x0f, 0x00, 0x00, 0x00, 0x02, 0x01, 0x80, 0xff, 0x07, 0x00, 
0x00, 0x00, 0x38, 0x00, 0x80, 0xff, 0x03, 0x00, 0x00, 0x00, 0x7e, 0x00, 
0x80, 0xff, 0x01, 0x00, 0x00, 0x00, 0xfe, 0x07, 0xc0, 0x07, 0x01, 0x00, 
0x00, 0x00, 0xfe, 0x0f, 0xc0, 0x03, 0x01, 0x00, 0x00, 0x00, 0xff, 0x1f, 
0x80, 0x03, 0x00, 0x00, 0x00, 0x00, 0xff, 0x1f, 0x80, 0x01, 0x00, 0x00, 
0x00, 0x00, 0xff, 0x1f, 0x80, 0x11, 0x02, 0x00, 0x00, 0x00, 0xff, 0x3f, 
0x80, 0x1b, 0x18, 0x00, 0x00, 0x00, 0xff, 0x3f, 0x80, 0x0f, 0x00, 0x00, 
0x00, 0x00, 0xff, 0x3f, 0x00, 0x3c, 0x00, 0x00, 0x00, 0x00, 0xff, 0x7f, 
0x00, 0x38, 0x00, 0x00, 0x00, 0x00, 0xff, 0x7f, 0x00, 0x10, 0x08, 0x00, 
0x00, 0x00, 0xfe, 0x7f, 0x00, 0x20, 0xfe, 0x01, 0x00, 0x00, 0xfc, 0x7f, 
0x00, 0x40, 0xff, 0x03, 0x00, 0x00, 0xfc, 0x7f, 0x00, 0x00, 0xff, 0x07, 
0x00, 0x00, 0xf8, 0xfe, 0x00, 0x00, 0xff, 0x3f, 0x00, 0x00, 0x00, 0xfc, 
0x00, 0x00, 0xff, 0x3f, 0x00, 0x00, 0x00, 0xf8, 0x00, 0x80, 0xff, 0x7f, 
0x00, 0x00, 0x00, 0xf8, 0x00, 0x80, 0xff, 0xff, 0x00, 0x00, 0x00, 0xf8, 
0x00, 0x80, 0xff, 0xff, 0x03, 0x00, 0x00, 0xf8, 0x00, 0x80, 0xff, 0xff, 
0x3f, 0x00, 0x00, 0xf0, 0x00, 0x80, 0xff, 0xff, 0x7f, 0x00, 0x00, 0xf0, 
0x00, 0x80, 0xff, 0xff, 0x7f, 0x00, 0x00, 0x70, 0x00, 0x00, 0xff, 0xff, 
0x7f, 0x00, 0x00, 0x70, 0x00, 0x00, 0xfe, 0xff, 0x3f, 0x00, 0x00, 0x70, 
0x00, 0x00, 0xfe, 0xff, 0x1f, 0x00, 0x00, 0x78, 0x00, 0x00, 0xfc, 0xff, 
0x1f, 0x00, 0x00, 0x78, 0x00, 0x00, 0xf8, 0xff, 0x1f, 0x00, 0x00, 0x38, 
0x00, 0x00, 0xe0, 0xff, 0x0f, 0x00, 0x00, 0x38, 0x00, 0x00, 0xe0, 0xff, 
0x0f, 0x00, 0x00, 0x38, 0x00, 0x00, 0xe0, 0xff, 0x03, 0x00, 0x00, 0x1c, 
0x00, 0x00, 0xe0, 0xff, 0x00, 0x00, 0x00, 0x1c, 0x00, 0x00, 0xe0, 0xff, 
0x00, 0x00, 0x00, 0x0c, 0x00, 0x00, 0xe0, 0x7f, 0x00, 0x00, 0x00, 0x0c, 
0x00, 0x00, 0xe0, 0x7f, 0x00, 0x00, 0x00, 0x06, 0x00, 0x00, 0xe0, 0x3f, 
0x00, 0x00, 0x00, 0x02, 0x00, 0x00, 0xe0, 0x0f, 0x00, 0x00, 0x00, 0x00, 
0x00, 0x00, 0xe0, 0x0f, 0x00, 0x00, 0x00, 0x00, 0x00, 0x00, 0xe0, 0x03, 
0x00, 0x00, 0x00, 0x00, 0x00, 0x00, 0xc0, 0x01, 0x00, 0x00, 0x00, 0x00, 
0x00, 0x00, 0xc0, 0x01, 0x00, 0x00, 0x00, 0x00, 0x00, 0x00, 0xc0, 0x01, 
0x00, 0x00, 0x00, 0x00, 0x00, 0x00, 0xc0, 0x01, 0x00, 0x00, 0x00, 0x00, 
0x00, 0x00, 0x80, 0x01, 0x00, 0x00, 0x00, 0x00, 0x00, 0x00, 0x00, 0x00, 
0x00, 0x00, 0x00, 0x00, 0x00, 0x00, 0x00, 0x00, 0x00, 0x00, 0x00, 0x00, 
0x00, 0x00, 0x00, 0x00, 0x00, 0x00, 0x00, 0x00, 0x00, 0x00, 0x00, 0x10, 
0x00, 0x00, 0x00, 0x00, 0x00, 0x00, 0x00, 0x38, 0x80, 0x03, 0x00, 0x00, 
0x00, 0x00, 0x00, 0x70, 0x1e, 0x00, 0x00, 0x00};
