#define terra07_width 64
#define terra07_height 64
#define terra07_x_hot 32
#define terra07_y_hot 32
static unsigned char terra07_bits[] = {
0x00, 0x00, 0x00, 0xc0, 0x1f, 0x00, 0x00, 0x00, 0x00, 0x00, 0x00, 0xe4,
0xe1, 0x01, 0x00, 0x00, 0x00, 0x00, 0xf0, 0xff, 0xcc, 0x03, 0x00, 0x00,
0x00, 0x00, 0xfe, 0x3f, 0x08, 0x03, 0x00, 0x00, 0x00, 0x00, 0xf9, 0x1f,
0x2c, 0x00, 0x00, 0x00, 0x00, 0x00, 0xfc, 0x7f, 0x7c, 0x00, 0x02, 0x00,
0x00, 0x00, 0xfc, 0xff, 0xfd, 0x01, 0x08, 0x00, 0x00, 0x00, 0xfc, 0xff,
0xff, 0x02, 0x00, 0x00, 0x00, 0x00, 0xfc, 0xff, 0x7f, 0x00, 0x00, 0x00,
0x00, 0x00, 0xfe, 0xff, 0xbf, 0x00, 0x00, 0x00, 0x00, 0x00, 0xfe, 0xff,
0x1f, 0x00, 0x80, 0x00, 0x00, 0x00, 0xff, 0xff, 0x0f, 0x00, 0x00, 0x01,
0x00, 0x00, 0xff, 0xff, 0x0f, 0x00, 0x00, 0x00, 0x00, 0x00, 0xff, 0xff,
0x07, 0x00, 0x00, 0x00, 0x00, 0x00, 0xfe, 0xff, 0x03, 0x00, 0x00, 0x04,
0x00, 0x00, 0xfe, 0xbf, 0x01, 0x00, 0x00, 0x00, 0x00, 0x00, 0xf8, 0x03,
0x01, 0x00, 0x00, 0x08, 0x00, 0x00, 0xf8, 0x01, 0x02, 0x00, 0x00, 0x18,
0x00, 0x00, 0xf0, 0x01, 0x00, 0x00, 0x00, 0x18, 0x00, 0x00, 0xe0, 0x01,
0x00, 0x00, 0x00, 0x18, 0x00, 0x00, 0xe0, 0x21, 0x08, 0x00, 0x00, 0x30,
0x00, 0x00, 0xe0, 0x33, 0xe0, 0x00, 0x00, 0x30, 0x00, 0x00, 0x80, 0x3f,
0x00, 0x00, 0x00, 0x20, 0x00, 0x00, 0x00, 0xf8, 0x00, 0x00, 0x00, 0x60,
0x00, 0x00, 0x00, 0xe0, 0x00, 0x00, 0x00, 0x60, 0x00, 0x00, 0x00, 0x80,
0x40, 0x00, 0x00, 0x60, 0x00, 0x00, 0x00, 0x80, 0xe1, 0x0f, 0x00, 0x40,
0x00, 0x00, 0x00, 0x00, 0xfa, 0x1f, 0x00, 0x40, 0x00, 0x00, 0x00, 0x00,
0xf0, 0x3f, 0x00, 0x80, 0x00, 0x00, 0x00, 0x00, 0xf0, 0xff, 0x01, 0x00,
0x00, 0x00, 0x00, 0x00, 0xf8, 0xff, 0x03, 0x00, 0x00, 0x00, 0x00, 0x00,
0xfc, 0xff, 0x03, 0x00, 0x00, 0x00, 0x00, 0x00, 0xfc, 0xff, 0x07, 0x00,
0x00, 0x00, 0x00, 0x00, 0xfc, 0xff, 0x1f, 0x00, 0x00, 0x00, 0x00, 0x00,
0xfc, 0xff, 0x7f, 0x00, 0x00, 0x00, 0x00, 0x00, 0xfc, 0xff, 0xff, 0x00,
0x00, 0x00, 0x00, 0x00, 0xf8, 0xff, 0xff, 0x00, 0x00, 0x00, 0x00, 0x00,
0xf8, 0xff, 0xff, 0x00, 0x00, 0x00, 0x00, 0x00, 0xf0, 0xff, 0x7f, 0x00,
0x00, 0x00, 0x00, 0x00, 0xf0, 0xff, 0x3f, 0x00, 0x00, 0x00, 0x00, 0x00,
0xe0, 0xff, 0x3f, 0x00, 0x00, 0x00, 0x00, 0x00, 0xc0, 0xff, 0x1f, 0x00,
0x00, 0x00, 0x00, 0x00, 0x80, 0xff, 0x1f, 0x00, 0x00, 0x00, 0x00, 0x00,
0x80, 0xff, 0x1f, 0x00, 0x00, 0x00, 0x00, 0x00, 0x80, 0xff, 0x07, 0x00,
0x00, 0x00, 0x00, 0x00, 0x80, 0xff, 0x01, 0x00, 0x00, 0x00, 0x00, 0x00,
0x80, 0xff, 0x01, 0x00, 0x00, 0x00, 0x00, 0x00, 0xc0, 0xff, 0x00, 0x00,
0x00, 0x00, 0x00, 0x00, 0xc0, 0x7f, 0x00, 0x00, 0x00, 0x00, 0x00, 0x00,
0xc0, 0x3f, 0x00, 0x00, 0x00, 0x00, 0x00, 0x00, 0xe0, 0x0f, 0x00, 0x00,
0x00, 0x00, 0x00, 0x00, 0xe0, 0x0f, 0x00, 0x00, 0x00, 0x00, 0x00, 0x00,
0xe0, 0x01, 0x00, 0x00, 0x00, 0x00, 0x00, 0x00, 0xf0, 0x00, 0x00, 0x00,
0x00, 0x00, 0x00, 0x00, 0x70, 0x00, 0x00, 0x00, 0x00, 0x00, 0x00, 0x00,
0x78, 0x00, 0x00, 0x00, 0x00, 0x00, 0x00, 0x00, 0x38, 0x00, 0x00, 0x00,
0x00, 0x00, 0x00, 0x00, 0x18, 0x00, 0x00, 0x00, 0x00, 0x00, 0x00, 0x00,
0x00, 0x00, 0x00, 0x00, 0x00, 0x00, 0x00, 0x00, 0x00, 0x00, 0x00, 0x00,
0x00, 0x00, 0x00, 0x00, 0x00, 0x00, 0x00, 0x00, 0x00, 0x00, 0x00, 0x00,
0x00, 0x00, 0x00, 0x00, 0x00, 0x00, 0x00, 0x00, 0x0e, 0x00, 0x00, 0x00,
0x00, 0x00, 0x00, 0xf0, 0x07, 0x00, 0x00, 0x00};
