#define terra18_width 64
#define terra18_height 64
#define terra18_x_hot 32
#define terra18_y_hot 32
static unsigned char terra18_bits[] = {
0x00, 0x00, 0x00, 0x00, 0x00, 0x00, 0x00, 0x00, 0x00, 0x00, 0x80, 0xbf,
0x01, 0x00, 0x00, 0x00, 0x00, 0x00, 0xf0, 0xff, 0xff, 0x0e, 0x00, 0x00,
0x00, 0x00, 0xfe, 0xff, 0xff, 0x78, 0x00, 0x00, 0x00, 0x00, 0xff, 0x7f,
0x30, 0xc0, 0x00, 0x00, 0x00, 0xc0, 0xff, 0x3f, 0x30, 0x00, 0x00, 0x00,
0x00, 0xe0, 0xff, 0xff, 0x10, 0x00, 0x00, 0x00, 0x00, 0xf8, 0xff, 0xff,
0x00, 0x00, 0x00, 0x00, 0x00, 0xfc, 0xff, 0xbf, 0x00, 0x00, 0x00, 0x00,
0x00, 0xfe, 0xff, 0x9f, 0x00, 0x00, 0x00, 0x00, 0x00, 0xff, 0xff, 0x43,
0x00, 0x00, 0x00, 0x00, 0x80, 0xff, 0x1f, 0x41, 0x00, 0x00, 0x00, 0x00,
0x80, 0xff, 0x1f, 0x61, 0x00, 0x00, 0x00, 0x00, 0xc0, 0xff, 0x1f, 0x11,
0x00, 0x00, 0x00, 0x00, 0xe0, 0xff, 0x1f, 0x04, 0x00, 0x00, 0x00, 0x00,
0xe0, 0xff, 0x1f, 0x00, 0x00, 0x00, 0x00, 0x00, 0xf0, 0xff, 0x1f, 0x00,
0x00, 0x00, 0x00, 0x00, 0xf8, 0xff, 0x0f, 0x00, 0x00, 0x00, 0x00, 0x00,
0xf8, 0xff, 0x0f, 0x00, 0x00, 0x00, 0x00, 0x00, 0xf0, 0xff, 0x03, 0x00,
0x00, 0x00, 0x00, 0x00, 0x70, 0xbe, 0x00, 0x00, 0x00, 0x00, 0x00, 0x00,
0x38, 0x1e, 0x00, 0x00, 0x00, 0x00, 0x00, 0x00, 0x18, 0x1e, 0x00, 0x00,
0x00, 0x00, 0x00, 0x00, 0x08, 0x3c, 0x00, 0x00, 0x00, 0x00, 0x00, 0x00,
0x08, 0x3c, 0x10, 0x00, 0x00, 0x00, 0x00, 0x00, 0x08, 0x38, 0x30, 0x00,
0x00, 0x00, 0x00, 0x00, 0x00, 0x10, 0x20, 0x00, 0x00, 0x00, 0x00, 0x00,
0x08, 0x02, 0x30, 0x00, 0x00, 0x00, 0x00, 0x00, 0x00, 0x04, 0x22, 0x00,
0x00, 0x00, 0x00, 0x00, 0x00, 0x05, 0x03, 0x00, 0x00, 0x00, 0x00, 0x00,
0x00, 0x86, 0x03, 0x00, 0x00, 0x00, 0x00, 0x00, 0x00, 0xc6, 0x03, 0x00,
0x00, 0x00, 0x00, 0x00, 0x00, 0xc4, 0x01, 0x02, 0x00, 0x00, 0x00, 0x00,
0x00, 0xcc, 0x09, 0x3e, 0x00, 0x00, 0x00, 0x00, 0x00, 0x08, 0x00, 0xf0,
0x11, 0x00, 0x00, 0x00, 0x00, 0x00, 0x00, 0xe0, 0x03, 0x00, 0x00, 0x00,
0x00, 0x00, 0x40, 0xc0, 0x02, 0x00, 0x00, 0x00, 0x00, 0x00, 0x00, 0x00,
0x00, 0x00, 0x00, 0x00, 0x00, 0x00, 0x00, 0x00, 0x00, 0x00, 0x00, 0x00,
0x00, 0x00, 0x00, 0x8e, 0x00, 0x00, 0x00, 0x00, 0x00, 0x00, 0xc0, 0x8f,
0x01, 0x00, 0x00, 0x00, 0x00, 0x00, 0xe0, 0xdf, 0x01, 0x00, 0x00, 0x00,
0x00, 0x00, 0xf0, 0xff, 0x03, 0x00, 0x00, 0x00, 0x00, 0x00, 0xfc, 0xff,
0x07, 0x00, 0x00, 0x00, 0x00, 0x00, 0xfe, 0xff, 0x07, 0x00, 0x00, 0x00,
0x00, 0x00, 0xfe, 0xff, 0x0f, 0x00, 0x00, 0x00, 0x00, 0x00, 0xfc, 0xff,
0x0f, 0x00, 0x00, 0x00, 0x00, 0x00, 0xfc, 0xff, 0x0f, 0x00, 0x00, 0x00,
0x00, 0x00, 0xf8, 0xff, 0x0f, 0x00, 0x00, 0x00, 0x00, 0x00, 0x78, 0xf8,
0x0f, 0x00, 0x00, 0x00, 0x00, 0x00, 0x00, 0xe0, 0x07, 0x00, 0x00, 0x00,
0x00, 0x00, 0x00, 0xc0, 0x03, 0x20, 0x00, 0x00, 0x00, 0x00, 0x00, 0x00,
0x00, 0x20, 0x00, 0x00, 0x00, 0x00, 0x00, 0x00, 0x02, 0x00, 0x00, 0x00,
0x00, 0x00, 0x00, 0x00, 0x00, 0x04, 0x00, 0x00, 0x00, 0x00, 0x00, 0x00,
0x00, 0x00, 0x00, 0x00, 0x00, 0x00, 0x00, 0x00, 0x00, 0x00, 0x00, 0x00,
0x00, 0x00, 0x00, 0x00, 0x00, 0x00, 0x00, 0x00, 0x00, 0x00, 0x00, 0x00,
0x00, 0x00, 0x00, 0x00, 0x00, 0x00, 0x00, 0x00, 0x00, 0x00, 0x00, 0x00,
0x00, 0x00, 0x00, 0x00, 0x00, 0x00, 0x00, 0x00, 0x00, 0x00, 0xa0, 0x02,
0x00, 0x00, 0x00, 0x00, 0x00, 0x00, 0x80, 0xff, 0x0f, 0x00, 0x00, 0x00,
0x00, 0x00, 0x00, 0xf0, 0x03, 0x00, 0x00, 0x00};
