#define terra14_width 64
#define terra14_height 64
#define terra14_x_hot 32
#define terra14_y_hot 32
static unsigned char terra14_bits[] = {
0x00, 0x00, 0x00, 0x00, 0x00, 0x00, 0x00, 0x00, 0x00, 0x00, 0x80, 0x03,
0xc0, 0x03, 0x00, 0x00, 0x00, 0x00, 0xf0, 0x7f, 0xff, 0x0f, 0x00, 0x00,
0x00, 0x00, 0xfe, 0x0f, 0xfe, 0x7f, 0x00, 0x00, 0x00, 0x00, 0x87, 0x00,
0x1c, 0xfe, 0x00, 0x00, 0x00, 0xc0, 0x61, 0x00, 0x00, 0xfc, 0x03, 0x00,
0x00, 0xe0, 0x01, 0x00, 0x00, 0xf0, 0x07, 0x00, 0x00, 0xf8, 0x01, 0x00,
0x00, 0xc0, 0x1f, 0x00, 0x00, 0x3c, 0x00, 0x00, 0x00, 0x80, 0x3f, 0x00,
0x00, 0x1e, 0x00, 0x00, 0x00, 0x00, 0x7f, 0x00, 0x00, 0x07, 0x00, 0x00,
0x00, 0x00, 0xff, 0x00, 0x80, 0x13, 0x00, 0x00, 0x00, 0x00, 0xfe, 0x01,
0x80, 0x00, 0x00, 0x00, 0x00, 0x00, 0xfc, 0x01, 0x40, 0x05, 0x00, 0x00,
0x00, 0x00, 0xf8, 0x03, 0x20, 0x00, 0x00, 0x00, 0x00, 0x00, 0xe0, 0x07,
0x20, 0x00, 0x00, 0x00, 0x00, 0x00, 0xc0, 0x07, 0x30, 0x00, 0x00, 0x00,
0x00, 0x00, 0x80, 0x07, 0x18, 0x00, 0x00, 0x00, 0x00, 0x00, 0x00, 0x07,
0x08, 0x00, 0x00, 0x00, 0x00, 0x00, 0x00, 0x07, 0x08, 0x00, 0x00, 0x00,
0x00, 0x00, 0x00, 0x0c, 0x04, 0x00, 0x00, 0x00, 0x00, 0x00, 0x00, 0x28,
0x00, 0x00, 0x00, 0x00, 0x00, 0x00, 0x00, 0x38, 0x00, 0x00, 0x00, 0x00,
0x00, 0x00, 0x00, 0x30, 0x00, 0x00, 0x00, 0x00, 0x00, 0x00, 0x00, 0x40,
0x00, 0x00, 0x00, 0x00, 0x00, 0x00, 0x00, 0x40, 0x00, 0x00, 0x00, 0x00,
0x00, 0x00, 0x00, 0x00, 0x00, 0x00, 0x00, 0x00, 0x00, 0x00, 0x00, 0x00,
0x00, 0x00, 0x00, 0x00, 0x00, 0x00, 0x00, 0x00, 0x04, 0x00, 0x00, 0x00,
0x00, 0x00, 0x00, 0x00, 0x00, 0x00, 0x00, 0x00, 0x00, 0x00, 0x00, 0x00,
0x01, 0x00, 0x00, 0x00, 0x00, 0x00, 0x00, 0x00, 0x03, 0x00, 0x00, 0x00,
0x00, 0x00, 0x00, 0x00, 0x03, 0x00, 0x00, 0x00, 0x00, 0x00, 0x00, 0x00,
0x63, 0x00, 0x00, 0x00, 0x00, 0x00, 0x00, 0x00, 0xe0, 0x01, 0x00, 0x00,
0x00, 0x00, 0x00, 0x00, 0xc1, 0x01, 0x00, 0x00, 0x00, 0x00, 0x00, 0x00,
0x80, 0x02, 0x00, 0x00, 0x00, 0x00, 0x00, 0x00, 0x00, 0x00, 0x00, 0x00,
0x00, 0x00, 0x00, 0x00, 0x00, 0x00, 0x00, 0x00, 0x00, 0x00, 0x00, 0x00,
0x30, 0x01, 0x00, 0x00, 0x00, 0x00, 0x00, 0x00, 0x30, 0x01, 0x00, 0x00,
0x00, 0x00, 0x00, 0x00, 0xf0, 0x03, 0x00, 0x00, 0x00, 0x00, 0x00, 0x00,
0xf8, 0x07, 0x00, 0x00, 0x00, 0x00, 0x00, 0x00, 0xf8, 0x07, 0x00, 0x00,
0x00, 0x00, 0x00, 0x00, 0xf8, 0x0f, 0x00, 0x00, 0x00, 0x00, 0x00, 0x00,
0xf0, 0x1f, 0x00, 0x00, 0x00, 0x00, 0x00, 0x00, 0xf0, 0x3f, 0x00, 0x00,
0x00, 0x00, 0x00, 0x00, 0xe0, 0x3f, 0x00, 0x00, 0x00, 0x00, 0x00, 0x00,
0xe0, 0x3f, 0x00, 0x00, 0x00, 0x00, 0x00, 0x00, 0x40, 0x3e, 0x00, 0x00,
0x00, 0x00, 0x00, 0x00, 0x00, 0x3c, 0x00, 0x00, 0x00, 0x00, 0x00, 0x00,
0x00, 0x70, 0x00, 0x01, 0x00, 0x00, 0x00, 0x00, 0x00, 0x00, 0x00, 0x02,
0x00, 0x00, 0x00, 0x00, 0x00, 0x00, 0x00, 0x01, 0x00, 0x00, 0x00, 0x00,
0x00, 0x00, 0x80, 0x00, 0x00, 0x00, 0x00, 0x00, 0x00, 0x00, 0x00, 0x00,
0x00, 0x00, 0x00, 0x00, 0x00, 0x00, 0x00, 0x00, 0x00, 0x00, 0x00, 0x00,
0x00, 0x00, 0x00, 0x00, 0x00, 0x00, 0x00, 0x00, 0x00, 0x00, 0x00, 0x00,
0x00, 0x00, 0x00, 0x00, 0x00, 0x00, 0x00, 0x00, 0x00, 0x00, 0x00, 0x00,
0x00, 0x00, 0x00, 0x00, 0x00, 0x00, 0x00, 0x00, 0x00, 0x00, 0x00, 0x00,
0x00, 0x00, 0x00, 0x00, 0x00, 0x00, 0x80, 0x0f, 0x00, 0x00, 0x00, 0x00,
0x00, 0x00, 0x00, 0x10, 0x1e, 0x00, 0x00, 0x00};
