#define terra06_width 64
#define terra06_height 64
#define terra06_x_hot 32
#define terra06_y_hot 32
static unsigned char terra06_bits[] = {
0x00, 0x00, 0x00, 0x60, 0x1f, 0x00, 0x00, 0x00, 0x00, 0x00, 0x00, 0xfc, 
0x78, 0x00, 0x00, 0x00, 0x00, 0x00, 0xf0, 0x9f, 0xf3, 0x00, 0x00, 0x00, 
0x00, 0x00, 0xfe, 0x07, 0x60, 0x00, 0x00, 0x00, 0x00, 0x00, 0xff, 0xc3, 
0x05, 0x80, 0x00, 0x00, 0x00, 0x00, 0xff, 0xc7, 0x0f, 0x00, 0x02, 0x00, 
0x00, 0x80, 0xff, 0xdf, 0x1f, 0x00, 0x06, 0x00, 0x00, 0x80, 0xff, 0xff, 
0x07, 0x00, 0x18, 0x00, 0x00, 0x80, 0xff, 0xff, 0x07, 0x00, 0x30, 0x00, 
0x00, 0xc0, 0xff, 0xff, 0x01, 0x00, 0x40, 0x00, 0x00, 0xe0, 0xff, 0xff, 
0x00, 0x00, 0xe0, 0x00, 0x00, 0xe0, 0xff, 0x7f, 0x00, 0x00, 0xc0, 0x00, 
0x00, 0xf0, 0xff, 0x3f, 0x00, 0x00, 0x80, 0x00, 0x00, 0xf0, 0xff, 0x3f, 
0x00, 0x00, 0x00, 0x03, 0x00, 0xe0, 0xff, 0x0f, 0x00, 0x00, 0x00, 0x07, 
0x00, 0xe0, 0xff, 0x07, 0x00, 0x00, 0x00, 0x07, 0x00, 0xc0, 0x1f, 0x08, 
0x00, 0x00, 0x00, 0x0e, 0x00, 0xc0, 0x0f, 0x08, 0x00, 0x00, 0x00, 0x1e, 
0x00, 0x80, 0x07, 0x00, 0x00, 0x00, 0x00, 0x1e, 0x00, 0x80, 0x07, 0x00, 
0x00, 0x00, 0x00, 0x1e, 0x00, 0x00, 0x87, 0x20, 0x00, 0x00, 0x00, 0x3e, 
0x00, 0x00, 0xcf, 0x00, 0x03, 0x00, 0x00, 0x3e, 0x00, 0x00, 0x7e, 0x00, 
0x00, 0x00, 0x00, 0x3c, 0x00, 0x00, 0xe0, 0x03, 0x00, 0x00, 0x00, 0x7c, 
0x00, 0x00, 0x80, 0x03, 0x00, 0x00, 0x00, 0x7c, 0x00, 0x00, 0x00, 0x81, 
0x01, 0x00, 0x00, 0x7c, 0x00, 0x00, 0x00, 0xc2, 0x3f, 0x00, 0x00, 0x78, 
0x00, 0x00, 0x00, 0xe0, 0x7f, 0x00, 0x00, 0x78, 0x00, 0x00, 0x00, 0xe0, 
0xff, 0x00, 0x00, 0xf0, 0x00, 0x00, 0x00, 0xe0, 0xff, 0x07, 0x00, 0x80, 
0x00, 0x00, 0x00, 0xe0, 0xff, 0x0f, 0x00, 0x00, 0x00, 0x00, 0x00, 0xf0, 
0xff, 0x0f, 0x00, 0x00, 0x00, 0x00, 0x00, 0xf8, 0xff, 0x1f, 0x00, 0x00, 
0x00, 0x00, 0x00, 0xf8, 0xff, 0x7f, 0x00, 0x00, 0x00, 0x00, 0x00, 0xf8, 
0xff, 0xff, 0x03, 0x00, 0x00, 0x00, 0x00, 0xf8, 0xff, 0xff, 0x07, 0x00, 
0x00, 0x00, 0x00, 0xf0, 0xff, 0xff, 0x07, 0x00, 0x00, 0x00, 0x00, 0xe0, 
0xff, 0xff, 0x07, 0x00, 0x00, 0x00, 0x00, 0xe0, 0xff, 0xff, 0x03, 0x00, 
0x00, 0x00, 0x00, 0xc0, 0xff, 0xff, 0x01, 0x00, 0x00, 0x00, 0x00, 0xc0, 
0xff, 0xff, 0x01, 0x00, 0x00, 0x00, 0x00, 0x00, 0xff, 0xff, 0x01, 0x00, 
0x00, 0x00, 0x00, 0x00, 0xfe, 0xff, 0x00, 0x00, 0x00, 0x00, 0x00, 0x00, 
0xfe, 0xff, 0x00, 0x00, 0x00, 0x00, 0x00, 0x00, 0xfe, 0x3f, 0x00, 0x00, 
0x00, 0x00, 0x00, 0x00, 0xfe, 0x0f, 0x00, 0x00, 0x00, 0x00, 0x00, 0x00, 
0xfe, 0x07, 0x00, 0x00, 0x00, 0x00, 0x00, 0x00, 0xff, 0x07, 0x00, 0x00, 
0x00, 0x00, 0x00, 0x00, 0xff, 0x03, 0x00, 0x00, 0x00, 0x00, 0x00, 0x00, 
0xff, 0x01, 0x00, 0x00, 0x00, 0x00, 0x00, 0x00, 0x7f, 0x00, 0x00, 0x00, 
0x00, 0x00, 0x00, 0x00, 0x7f, 0x00, 0x00, 0x00, 0x00, 0x00, 0x00, 0x00, 
0x0f, 0x00, 0x00, 0x00, 0x00, 0x00, 0x00, 0x80, 0x07, 0x00, 0x00, 0x00, 
0x00, 0x00, 0x00, 0x80, 0x07, 0x00, 0x00, 0x00, 0x00, 0x00, 0x00, 0x80, 
0x03, 0x00, 0x00, 0x00, 0x00, 0x00, 0x00, 0x80, 0x03, 0x00, 0x00, 0x00, 
0x00, 0x00, 0x00, 0x80, 0x01, 0x00, 0x00, 0x00, 0x00, 0x00, 0x00, 0x00, 
0x00, 0x00, 0x00, 0x00, 0x00, 0x00, 0x00, 0x00, 0x00, 0x00, 0x00, 0x00, 
0x00, 0x00, 0x00, 0x00, 0x00, 0x00, 0x00, 0x00, 0x00, 0x00, 0x00, 0x00, 
0x02, 0x00, 0x00, 0x00, 0x00, 0x00, 0x00, 0x80, 0x03, 0x00, 0x00, 0x00, 
0x00, 0x00, 0x00, 0xf0, 0x03, 0x00, 0x00, 0x00};
