#define trek2_width 281
#define trek2_height 82
static unsigned char trek2_bits[] = {
   0x00, 0x00, 0x00, 0x00, 0x00, 0x00, 0x00, 0x00, 0x00, 0x00, 0x00, 0xe0,
   0x01, 0x3e, 0x80, 0x40, 0x03, 0x00, 0x3c, 0x00, 0x00, 0x00, 0x00, 0x00,
   0x00, 0x00, 0x00, 0x00, 0x00, 0x00, 0x00, 0x00, 0x00, 0x00, 0x00, 0x00,
   0x00, 0x00, 0x00, 0x00, 0x00, 0x00, 0x00, 0x00, 0x00, 0x00, 0x03, 0x02,
   0x08, 0x00, 0x02, 0x00, 0x00, 0x00, 0x02, 0x80, 0x70, 0x00, 0x00, 0x00,
   0x00, 0x00, 0x00, 0x00, 0x00, 0x00, 0x00, 0x00, 0x00, 0x00, 0x00, 0x00,
   0x00, 0x00, 0x00, 0x00, 0x00, 0x00, 0x00, 0x00, 0x80, 0x81, 0x01, 0x00,
   0x00, 0x10, 0x00, 0x04, 0x00, 0x00, 0x00, 0x08, 0x82, 0x80, 0x03, 0x00,
   0x00, 0x00, 0x00, 0x00, 0x00, 0x00, 0x00, 0x00, 0x00, 0x00, 0x00, 0x00,
   0x00, 0x00, 0x00, 0x00, 0x00, 0x00, 0x00, 0xc0, 0x10, 0x00, 0x00, 0x00,
   0x00, 0x02, 0x04, 0x00, 0x00, 0x00, 0x00, 0x00, 0x10, 0x80, 0x00, 0x0c,
   0x00, 0x00, 0x00, 0x00, 0x00, 0x00, 0x00, 0x00, 0x00, 0x00, 0x00, 0x00,
   0x00, 0x00, 0x00, 0x00, 0x00, 0x00, 0x00, 0x33, 0x00, 0x00, 0x00, 0x00,
   0x0c, 0x00, 0xe1, 0x25, 0x00, 0x00, 0x00, 0x00, 0x00, 0x02, 0x00, 0x00,
   0x06, 0x00, 0x00, 0x00, 0x00, 0x00, 0x00, 0x00, 0x00, 0x00, 0x00, 0x00,
   0x00, 0x00, 0x00, 0x00, 0x00, 0x00, 0x0c, 0x0e, 0x00, 0x00, 0x00, 0x01,
   0x00, 0x80, 0x43, 0x4a, 0x0a, 0x00, 0x00, 0x00, 0x00, 0x81, 0x01, 0xe0,
   0x00, 0x01, 0x00, 0x00, 0x00, 0x00, 0x00, 0x00, 0x00, 0x00, 0x00, 0x00,
   0x00, 0x00, 0x00, 0x00, 0x00, 0x50, 0x00, 0x00, 0x00, 0x00, 0x00, 0x00,
   0x82, 0x80, 0x41, 0x12, 0x52, 0x06, 0x00, 0xc0, 0x00, 0x00, 0x00, 0x0c,
   0x00, 0x80, 0x00, 0x00, 0x00, 0x00, 0x00, 0x00, 0x00, 0x00, 0x00, 0x00,
   0x00, 0x00, 0x00, 0x00, 0x80, 0x01, 0x00, 0x00, 0x00, 0x00, 0x00, 0x00,
   0x00, 0x03, 0x22, 0x25, 0x0d, 0x69, 0x81, 0x0f, 0x00, 0x00, 0x00, 0x80,
   0x0f, 0xf0, 0x10, 0x00, 0x00, 0x00, 0x00, 0x00, 0x00, 0x00, 0x00, 0x00,
   0x00, 0x00, 0x00, 0x00, 0x00, 0x00, 0x00, 0x0e, 0x08, 0x00, 0x74, 0x00,
   0x00, 0x02, 0x02, 0x60, 0x29, 0x89, 0x00, 0x00, 0x00, 0x80, 0xff, 0xff,
   0x07, 0x00, 0x0c, 0x04, 0x00, 0x00, 0x00, 0x00, 0x00, 0x00, 0x00, 0x00,
   0x00, 0x00, 0x00, 0x00, 0x00, 0x00, 0x02, 0x20, 0x00, 0x30, 0x06, 0x20,
   0x00, 0x04, 0x04, 0x10, 0x23, 0x00, 0xc0, 0x7f, 0x00, 0x00, 0x00, 0x00,
   0x00, 0x00, 0x66, 0xd0, 0x00, 0x00, 0x00, 0x00, 0x00, 0x00, 0x00, 0x00,
   0x00, 0x00, 0x00, 0x00, 0x02, 0x20, 0x80, 0x00, 0xc0, 0x18, 0x0d, 0x40,
   0x02, 0x08, 0x20, 0x80, 0x00, 0x00, 0x00, 0x00, 0x00, 0x00, 0xc0, 0xf5,
   0x37, 0x7f, 0x00, 0xe0, 0x08, 0x00, 0x00, 0x00, 0x00, 0x00, 0x00, 0x00,
   0x00, 0x00, 0x00, 0x80, 0x07, 0x08, 0x01, 0x80, 0x51, 0x08, 0x02, 0x40,
   0x00, 0x20, 0x20, 0xb0, 0x00, 0x00, 0x00, 0x08, 0x1b, 0x00, 0x00, 0x00,
   0x40, 0x08, 0x21, 0xb0, 0x80, 0x01, 0x00, 0x00, 0x00, 0x00, 0x00, 0x00,
   0x00, 0x00, 0x00, 0x02, 0x20, 0x04, 0x00, 0x46, 0x25, 0x08, 0x0b, 0x40,
   0x00, 0x08, 0x00, 0x43, 0x1e, 0x00, 0x40, 0x00, 0x00, 0x00, 0x00, 0x91,
   0x31, 0x62, 0x4c, 0x02, 0x00, 0x08, 0x00, 0x00, 0x00, 0x00, 0x00, 0x00,
   0x00, 0x00, 0x20, 0x00, 0x88, 0x00, 0x8c, 0xd2, 0x14, 0x84, 0x41, 0x00,
   0x00, 0x00, 0x01, 0x30, 0x32, 0x18, 0x00, 0x00, 0x81, 0x01, 0x00, 0x00,
   0x00, 0x00, 0x00, 0x00, 0x00, 0x00, 0x01, 0x00, 0x00, 0x00, 0x00, 0x00,
   0x00, 0x00, 0x04, 0x00, 0x00, 0x30, 0x8a, 0xd2, 0x14, 0x02, 0x01, 0x04,
   0x00, 0x80, 0x00, 0x4c, 0xb0, 0x04, 0x00, 0x00, 0x40, 0x00, 0x00, 0x00,
   0x00, 0x00, 0x00, 0x00, 0x00, 0x00, 0x10, 0x00, 0x00, 0x00, 0x00, 0x00,
   0x00, 0x80, 0x80, 0x00, 0x00, 0x3a, 0x16, 0xd1, 0x14, 0x06, 0x40, 0x00,
   0x00, 0x02, 0x81, 0x02, 0x26, 0x04, 0x00, 0x00, 0x00, 0x10, 0x00, 0x00,
   0x07, 0x00, 0x00, 0x40, 0x06, 0x00, 0x00, 0x03, 0x00, 0x00, 0x00, 0x00,
   0x00, 0x80, 0x00, 0x00, 0x28, 0x1a, 0x82, 0xb0, 0x0c, 0x00, 0x03, 0x00,
   0x20, 0x20, 0x30, 0x01, 0xf0, 0x07, 0x00, 0x00, 0x00, 0x00, 0x06, 0x00,
   0x00, 0x00, 0x00, 0x00, 0x40, 0x10, 0x00, 0x40, 0x00, 0x00, 0x00, 0x00,
   0x00, 0x00, 0x03, 0x00, 0x00, 0x1a, 0x92, 0x30, 0x00, 0x18, 0xf0, 0xdf,
   0x5f, 0x02, 0x00, 0x00, 0x42, 0x00, 0x00, 0x00, 0x00, 0x94, 0x00, 0x00,
   0x38, 0x00, 0x00, 0x40, 0x00, 0x04, 0x18, 0x00, 0x20, 0x00, 0x00, 0x00,
   0x00, 0x00, 0x40, 0x00, 0x22, 0x96, 0x62, 0x00, 0x40, 0x00, 0x00, 0x00,
   0x38, 0x00, 0x00, 0x20, 0x00, 0x32, 0x00, 0x00, 0x20, 0xa5, 0x02, 0x00,
   0x00, 0x00, 0x00, 0x00, 0x08, 0x80, 0x00, 0x18, 0x00, 0x08, 0x00, 0x00,
   0x00, 0x00, 0x40, 0x20, 0x06, 0x16, 0x01, 0x00, 0x02, 0x00, 0x00, 0x00,
   0x24, 0xc8, 0x00, 0x00, 0x00, 0x00, 0x00, 0x80, 0x85, 0x52, 0x03, 0x00,
   0x00, 0x00, 0x80, 0x00, 0x80, 0x00, 0x00, 0x00, 0x04, 0x80, 0x00, 0x00,
   0x00, 0x00, 0x40, 0x40, 0x24, 0x06, 0x00, 0x10, 0x00, 0x00, 0x00, 0x00,
   0x02, 0x02, 0x40, 0x00, 0x00, 0x00, 0x00, 0x42, 0x28, 0xa5, 0x0c, 0x00,
   0x00, 0x00, 0x00, 0x02, 0x00, 0x08, 0x40, 0x00, 0x00, 0x00, 0x06, 0x00,
   0x00, 0x00, 0x40, 0x08, 0x00, 0x00, 0x20, 0x00, 0x00, 0x00, 0x00, 0xc0,
   0x00, 0x08, 0x04, 0x00, 0x00, 0x00, 0x08, 0x10, 0x4a, 0x29, 0x14, 0x00,
   0x00, 0x00, 0x00, 0x84, 0x00, 0x00, 0x01, 0x04, 0x00, 0x19, 0x22, 0x00,
   0x00, 0x00, 0x40, 0x00, 0x80, 0xc0, 0x00, 0x00, 0x00, 0x00, 0x00, 0x10,
   0x00, 0x40, 0x10, 0x00, 0x00, 0x03, 0x00, 0x20, 0x85, 0x50, 0x2b, 0x01,
   0x00, 0x00, 0x80, 0x82, 0x08, 0x00, 0x10, 0x20, 0x20, 0x00, 0x20, 0x00,
   0x00, 0x00, 0x13, 0x00, 0x70, 0x00, 0x00, 0x00, 0x00, 0x00, 0xc0, 0x00,
   0x00, 0x7c, 0x00, 0x00, 0x00, 0x00, 0x00, 0x00, 0x28, 0xb4, 0xd0, 0x90,
   0x01, 0x00, 0x00, 0x40, 0x88, 0x00, 0x00, 0x00, 0x08, 0x00, 0x80, 0x00,
   0x00, 0x40, 0x00, 0x60, 0x00, 0x00, 0x00, 0x00, 0x00, 0x00, 0x01, 0x00,
   0x40, 0x00, 0x00, 0x00, 0x80, 0x00, 0x00, 0x00, 0x10, 0x0a, 0x21, 0x10,
   0x24, 0x00, 0x00, 0x04, 0x01, 0x08, 0x80, 0xa0, 0x04, 0x00, 0x63, 0x00,
   0x00, 0xe0, 0x3d, 0x00, 0x10, 0x04, 0x00, 0x00, 0x24, 0x06, 0x00, 0x20,
   0x00, 0x00, 0x00, 0x00, 0x00, 0x20, 0x00, 0x00, 0x20, 0x94, 0x92, 0x00,
   0x02, 0x09, 0x48, 0x40, 0x28, 0x44, 0x40, 0x00, 0x09, 0x80, 0x40, 0x00,
   0x00, 0x00, 0x00, 0x00, 0x40, 0x40, 0x00, 0x80, 0x00, 0x01, 0x20, 0x00,
   0x40, 0x00, 0x00, 0x00, 0x80, 0x00, 0x00, 0x00, 0x80, 0xad, 0x14, 0x00,
   0x40, 0x40, 0x26, 0x08, 0x85, 0x02, 0x20, 0x06, 0x10, 0x00, 0x61, 0x00,
   0x00, 0x00, 0x00, 0x00, 0x00, 0x02, 0x04, 0x03, 0x00, 0x40, 0x00, 0x60,
   0x00, 0x00, 0x00, 0x00, 0x00, 0x20, 0x20, 0x02, 0x02, 0x42, 0x09, 0x40,
   0x00, 0x04, 0x00, 0x82, 0x08, 0x10, 0x12, 0x14, 0x20, 0x00, 0x00, 0x00,
   0x00, 0x00, 0x00, 0x00, 0x00, 0x40, 0x03, 0x00, 0x80, 0x04, 0x40, 0x4a,
   0x00, 0x0c, 0x00, 0x00, 0x80, 0x00, 0x04, 0x04, 0x00, 0x82, 0x02, 0x00,
   0x00, 0x40, 0x00, 0x41, 0x88, 0x02, 0x80, 0x08, 0x20, 0x00, 0x00, 0x00,
   0x00, 0x00, 0x00, 0x00, 0x00, 0x08, 0x00, 0x00, 0x80, 0x80, 0x60, 0x20,
   0x04, 0x00, 0x00, 0xe0, 0x03, 0x10, 0x20, 0x08, 0x0c, 0x08, 0x00, 0x00,
   0x00, 0x00, 0x00, 0x10, 0x84, 0x10, 0x06, 0x22, 0x20, 0x00, 0x00, 0x00,
   0x00, 0x00, 0x00, 0x00, 0x40, 0x00, 0x00, 0x80, 0x02, 0x01, 0x20, 0x04,
   0x00, 0x70, 0x00, 0x00, 0x18, 0x10, 0x01, 0x01, 0x10, 0x10, 0x00, 0x00,
   0x00, 0x00, 0x10, 0x00, 0x41, 0x44, 0x04, 0x00, 0x00, 0x00, 0x04, 0x00,
   0x00, 0x00, 0x00, 0x00, 0x00, 0x00, 0x00, 0x07, 0x03, 0x00, 0x04, 0x00,
   0x0c, 0x00, 0x00, 0x18, 0x00, 0x00, 0x02, 0x08, 0x11, 0x00, 0x00, 0x04,
   0x01, 0x08, 0x00, 0x00, 0x10, 0x00, 0x00, 0x00, 0x10, 0x00, 0x00, 0x00,
   0x00, 0x00, 0x00, 0x40, 0x00, 0x00, 0x18, 0x04, 0x00, 0x08, 0x00, 0x08,
   0x00, 0x00, 0x10, 0x00, 0x00, 0x08, 0x10, 0x00, 0x00, 0x00, 0x00, 0x10,
   0x04, 0x40, 0x00, 0x00, 0x00, 0x00, 0x02, 0x00, 0x06, 0x30, 0x00, 0x00,
   0x00, 0x00, 0x00, 0x00, 0x00, 0x40, 0x10, 0x00, 0x08, 0x00, 0x0c, 0x00,
   0x00, 0x0c, 0x10, 0x04, 0x00, 0x00, 0x00, 0x02, 0x21, 0x00, 0x00, 0x40,
   0x10, 0x08, 0x02, 0x40, 0x00, 0x08, 0x02, 0x20, 0x00, 0x02, 0x00, 0x00,
   0x00, 0x00, 0x00, 0x01, 0x00, 0x08, 0x00, 0x20, 0x00, 0x18, 0x00, 0x00,
   0x18, 0x08, 0x00, 0x00, 0x00, 0x04, 0x00, 0x04, 0x80, 0x00, 0x00, 0x00,
   0x00, 0x00, 0x00, 0x00, 0x00, 0x00, 0x12, 0x08, 0x00, 0x01, 0x00, 0x00,
   0x00, 0x00, 0x00, 0x00, 0x00, 0x02, 0x00, 0x22, 0x20, 0x00, 0x00, 0x30,
   0x00, 0x80, 0x00, 0x00, 0x00, 0x00, 0x00, 0x00, 0x00, 0x02, 0x00, 0x00,
   0x02, 0x01, 0x00, 0x00, 0x00, 0x00, 0x10, 0x09, 0x50, 0x00, 0x00, 0x00,
   0x00, 0x00, 0x00, 0x00, 0x00, 0x00, 0x20, 0x04, 0x00, 0x00, 0x10, 0x00,
   0x00, 0x00, 0x00, 0x01, 0x00, 0x02, 0x00, 0x80, 0x01, 0x08, 0x00, 0x04,
   0x00, 0x01, 0x00, 0x01, 0x20, 0x00, 0x08, 0x04, 0x00, 0x00, 0x00, 0x00,
   0x00, 0x00, 0x00, 0x00, 0x00, 0x3a, 0x40, 0x30, 0x00, 0x20, 0x20, 0x00,
   0x00, 0x00, 0x00, 0x00, 0x00, 0x00, 0x02, 0x00, 0x06, 0x20, 0x00, 0x08,
   0x08, 0x04, 0x00, 0x00, 0x80, 0x40, 0x00, 0x81, 0x02, 0x00, 0x00, 0x00,
   0x00, 0x00, 0x00, 0x00, 0x20, 0x01, 0x01, 0x02, 0x20, 0x00, 0x00, 0x00,
   0x00, 0x00, 0x00, 0x00, 0x00, 0x05, 0x00, 0x03, 0x14, 0x80, 0x00, 0x40,
   0x08, 0x10, 0x00, 0x28, 0x00, 0x02, 0x00, 0x94, 0x00, 0x00, 0x00, 0x00,
   0x00, 0x00, 0x00, 0x00, 0x00, 0x00, 0x00, 0x48, 0x00, 0x00, 0x03, 0x08,
   0x00, 0x00, 0x00, 0x00, 0x02, 0x01, 0x08, 0x40, 0x4c, 0x00, 0x00, 0x00,
   0x00, 0x40, 0x00, 0xa0, 0x00, 0x00, 0x00, 0x24, 0x00, 0x00, 0x00, 0x00,
   0x00, 0x00, 0x01, 0x00, 0x01, 0x00, 0x00, 0x00, 0x00, 0x82, 0x10, 0x00,
   0x00, 0x00, 0x00, 0x00, 0x06, 0x40, 0x04, 0x03, 0x80, 0x00, 0x04, 0x00,
   0xc0, 0x00, 0x04, 0x80, 0x00, 0x00, 0x00, 0x00, 0x00, 0x00, 0x00, 0x00,
   0x00, 0x40, 0x00, 0x20, 0x00, 0x00, 0x00, 0x02, 0x02, 0x00, 0x80, 0x00,
   0x00, 0x00, 0x00, 0x00, 0x80, 0x00, 0x22, 0x92, 0x00, 0x02, 0x10, 0x00,
   0x00, 0x00, 0x10, 0x00, 0x00, 0x00, 0x00, 0x04, 0x00, 0x00, 0x00, 0x00,
   0x00, 0x20, 0x00, 0x02, 0x00, 0x00, 0x02, 0x01, 0xc0, 0x00, 0x00, 0x02,
   0x00, 0x00, 0x00, 0x00, 0x01, 0x04, 0x00, 0x01, 0x04, 0x08, 0x00, 0x00,
   0x00, 0x02, 0x08, 0x00, 0x00, 0x00, 0x00, 0x02, 0x00, 0x00, 0x00, 0x00,
   0x00, 0x10, 0x00, 0x00, 0x00, 0x00, 0x10, 0xc0, 0x80, 0x00, 0x00, 0x08,
   0x00, 0x32, 0x00, 0x00, 0x20, 0x02, 0x01, 0x04, 0x10, 0x26, 0x00, 0x00,
   0x00, 0x08, 0x80, 0x00, 0x50, 0x00, 0x00, 0x00, 0x00, 0x00, 0x00, 0x00,
   0x00, 0x00, 0x00, 0x00, 0x00, 0x40, 0x00, 0x32, 0x01, 0x00, 0x04, 0x00,
   0x79, 0x92, 0x00, 0x08, 0x81, 0x06, 0x10, 0x20, 0x08, 0x80, 0x00, 0x00,
   0x00, 0x10, 0x40, 0x00, 0xa0, 0x00, 0x00, 0x00, 0x00, 0x00, 0x00, 0x00,
   0x00, 0x30, 0x00, 0x00, 0x00, 0x20, 0x00, 0x32, 0x23, 0x00, 0x20, 0x00,
   0x01, 0x92, 0x06, 0x00, 0x02, 0x20, 0x40, 0x10, 0x00, 0x02, 0x00, 0x04,
   0x08, 0x20, 0x80, 0x00, 0x00, 0x00, 0x00, 0x01, 0x00, 0x00, 0x00, 0x00,
   0x00, 0x3c, 0x01, 0x00, 0x00, 0x08, 0x00, 0x02, 0x05, 0x00, 0x40, 0x01,
   0x29, 0x0f, 0xc2, 0x00, 0x0c, 0x41, 0x10, 0x00, 0x03, 0x06, 0x06, 0x00,
   0x00, 0x60, 0x00, 0x01, 0x00, 0x10, 0x00, 0x00, 0x00, 0x00, 0x00, 0x00,
   0x00, 0x5a, 0x06, 0x00, 0x00, 0x84, 0x00, 0x88, 0x10, 0x00, 0x00, 0x05,
   0x2c, 0xb0, 0x19, 0x08, 0xe0, 0x01, 0x00, 0x04, 0x08, 0x00, 0x00, 0x00,
   0x00, 0x40, 0x00, 0x00, 0x00, 0x00, 0x00, 0x00, 0x00, 0x00, 0x00, 0x00,
   0x00, 0xc8, 0x03, 0x00, 0x00, 0x84, 0x00, 0x30, 0x00, 0x00, 0x00, 0x80,
   0x14, 0x04, 0x01, 0x80, 0x08, 0x00, 0x04, 0x28, 0x90, 0x20, 0x01, 0x08,
   0x00, 0x00, 0x00, 0x80, 0x00, 0x00, 0x80, 0x00, 0x00, 0x00, 0x00, 0x00,
   0x00, 0x14, 0x00, 0x00, 0x00, 0x50, 0x00, 0x04, 0x0c, 0x00, 0x00, 0x30,
   0x98, 0x02, 0x00, 0x40, 0xa0, 0x80, 0x10, 0x00, 0x00, 0x00, 0x20, 0x00,
   0x00, 0x00, 0x00, 0x00, 0x00, 0x00, 0x00, 0x00, 0x00, 0x00, 0x00, 0x00,
   0x00, 0x04, 0x00, 0x00, 0x00, 0x18, 0xc8, 0x18, 0x00, 0x00, 0x00, 0x22,
   0x20, 0x44, 0x80, 0x01, 0x10, 0x80, 0x80, 0x30, 0x00, 0x00, 0x25, 0x01,
   0x40, 0x00, 0x80, 0x00, 0x00, 0x00, 0x40, 0x00, 0x00, 0x00, 0x00, 0x00,
   0x40, 0x00, 0x00, 0x00, 0x00, 0x2c, 0x00, 0x1a, 0x00, 0x00, 0x80, 0x00,
   0x01, 0xa4, 0x00, 0xb0, 0x01, 0x12, 0x00, 0xa0, 0x05, 0x01, 0x0c, 0x00,
   0x00, 0x80, 0x02, 0x00, 0x00, 0x00, 0x00, 0x00, 0x00, 0x00, 0x00, 0x00,
   0x40, 0x00, 0x00, 0x00, 0x80, 0x80, 0x00, 0x18, 0x00, 0x00, 0xc0, 0x00,
   0x00, 0x00, 0x10, 0x90, 0x12, 0x80, 0x00, 0x98, 0x02, 0x00, 0x08, 0x00,
   0x01, 0x08, 0x00, 0x02, 0x00, 0x00, 0x00, 0x00, 0x00, 0x00, 0x00, 0x00,
   0x00, 0x00, 0x00, 0x00, 0x01, 0x04, 0x01, 0x01, 0x00, 0xc0, 0x00, 0x08,
   0x00, 0x40, 0x00, 0x80, 0x40, 0x00, 0x00, 0x02, 0x00, 0x80, 0x80, 0x10,
   0x02, 0x00, 0x00, 0x08, 0x00, 0x00, 0x00, 0x00, 0x00, 0x00, 0x00, 0x00,
   0x80, 0x00, 0x60, 0x02, 0x10, 0x10, 0x80, 0x02, 0x00, 0x01, 0x00, 0x20,
   0x10, 0x00, 0x00, 0x30, 0x22, 0x03, 0x00, 0x00, 0x00, 0x01, 0x20, 0x20,
   0x00, 0x00, 0x20, 0x00, 0x30, 0x30, 0x00, 0x00, 0x00, 0x00, 0x00, 0x00,
   0x40, 0x00, 0x40, 0x40, 0x80, 0x02, 0x04, 0x00, 0x06, 0x00, 0x00, 0x70,
   0x00, 0x00, 0x00, 0x04, 0x48, 0x18, 0x00, 0x00, 0x02, 0x00, 0x10, 0x00,
   0x08, 0x00, 0x00, 0x00, 0x02, 0x00, 0x03, 0x00, 0x00, 0x00, 0x00, 0x00,
   0x00, 0x03, 0x40, 0x00, 0x05, 0x08, 0x02, 0x05, 0x00, 0x00, 0x20, 0x46,
   0x00, 0x00, 0x40, 0x20, 0x04, 0x28, 0x00, 0x00, 0x00, 0x20, 0x00, 0x01,
   0x10, 0x00, 0x00, 0x02, 0x00, 0x00, 0x04, 0x00, 0x00, 0x00, 0x00, 0x00,
   0x50, 0x60, 0x00, 0x02, 0x00, 0x01, 0x80, 0x00, 0x00, 0x00, 0x00, 0x4a,
   0x00, 0x00, 0x00, 0x00, 0x02, 0x23, 0x01, 0x00, 0x00, 0x00, 0x00, 0x00,
   0xa0, 0x00, 0x00, 0x10, 0x00, 0x00, 0x02, 0x00, 0x00, 0x00, 0x00, 0x00,
   0x00, 0x80, 0x04, 0x00, 0x04, 0x20, 0x40, 0x00, 0x80, 0x00, 0x00, 0x44,
   0xc0, 0x33, 0x0a, 0x80, 0x52, 0x08, 0x00, 0x00, 0x00, 0x00, 0x00, 0x40,
   0x00, 0x00, 0x00, 0x00, 0xf8, 0x03, 0x01, 0x00, 0x00, 0x00, 0x00, 0x00,
   0x80, 0x01, 0x00, 0x10, 0x04, 0x00, 0x20, 0x00, 0x03, 0x80, 0x31, 0x08,
   0x00, 0x00, 0x50, 0x00, 0x0a, 0x01, 0x00, 0x00, 0x00, 0x00, 0x00, 0x00,
   0x00, 0x00, 0x00, 0x00, 0x00, 0x00, 0x00, 0x00, 0x00, 0x00, 0x00, 0x00,
   0x04, 0x00, 0x30, 0x00, 0x06, 0x02, 0x10, 0x04, 0x00, 0x01, 0x00, 0x00,
   0x00, 0x00, 0x00, 0x01, 0x0c, 0x80, 0x00, 0x00, 0x00, 0x00, 0x00, 0x00,
   0x08, 0x02, 0x00, 0x00, 0x00, 0x40, 0x06, 0x01, 0x00, 0x00, 0x00, 0x00,
   0x00, 0x20, 0x00, 0xc0, 0x01, 0x01, 0x00, 0x00, 0x03, 0x00, 0x00, 0x00,
   0x00, 0x00, 0x00, 0x08, 0x00, 0x40, 0x50, 0x00, 0x00, 0x00, 0x00, 0x00,
   0x02, 0x01, 0x00, 0x00, 0x00, 0x20, 0x00, 0x10, 0x00, 0x00, 0x00, 0x00,
   0x00, 0x00, 0x24, 0x48, 0x00, 0x40, 0x02, 0x04, 0x00, 0x00, 0x00, 0x00,
   0x00, 0x00, 0x00, 0x30, 0x00, 0x00, 0x23, 0x00, 0x00, 0x00, 0x20, 0x00,
   0x00, 0x04, 0x00, 0x00, 0x00, 0x02, 0x00, 0x26, 0x00, 0x00, 0x00, 0x00,
   0x00, 0x43, 0x08, 0x30, 0x10, 0x88, 0x06, 0x00, 0x00, 0x00, 0x00, 0x00,
   0x00, 0x00, 0x00, 0x00, 0x00, 0xc0, 0x18, 0x00, 0x00, 0x00, 0x00, 0x20,
   0x20, 0x02, 0x00, 0x00, 0x08, 0x00, 0x04, 0x00, 0x00, 0x00, 0x00, 0x00,
   0x38, 0x00, 0x02, 0x01, 0x88, 0x21, 0x00, 0x00, 0x00, 0x00, 0x00, 0x00,
   0x00, 0x00, 0x00, 0x00, 0x02, 0x00, 0x00, 0x00, 0x00, 0x00, 0x00, 0x02,
   0x00, 0x02, 0x00, 0x00, 0x04, 0x10, 0x00, 0x40, 0x00, 0x00, 0x00, 0x00,
   0x02, 0x80, 0x00, 0x08, 0x00, 0x04, 0x00, 0x00, 0x00, 0x00, 0x00, 0x00,
   0x00, 0x00, 0x00, 0x00, 0x08, 0x00, 0x00, 0x00, 0x00, 0x00, 0x00, 0x00,
   0x40, 0x00, 0x00, 0x00, 0x82, 0x00, 0x00, 0x00, 0x00, 0x00, 0x00, 0x00,
   0x00, 0x20, 0x00, 0x00, 0x10, 0x00, 0x00, 0x00, 0x00, 0x00, 0x00, 0x00,
   0x00, 0x00, 0x00, 0x00, 0x00, 0x00, 0x00, 0x01, 0x00, 0x01, 0x00, 0x00,
   0x30, 0x00, 0x00, 0x00, 0x00, 0x00, 0x00, 0x00, 0x00, 0x00, 0x00, 0x00,
   0x00, 0x00, 0x00, 0x00, 0x60, 0x00, 0x00, 0x00, 0x00, 0x00, 0x00, 0x00,
   0x00, 0x00, 0x00, 0x00, 0x80, 0x00, 0x11, 0x00, 0x00, 0x00, 0x00, 0x00,
   0x13, 0x00, 0x00, 0x00, 0x00, 0x00, 0x00, 0x00, 0x00, 0x00, 0x00, 0x00,
   0x04, 0x02, 0x10, 0x00, 0x00, 0x00, 0x00, 0x00, 0x00, 0x00, 0x00, 0x00,
   0x00, 0x00, 0x00, 0x00, 0x00, 0x0c, 0x01, 0x10, 0x08, 0x00, 0x01, 0x08,
   0x00, 0x02, 0x00, 0x00, 0x00, 0x00, 0x00, 0x40, 0x00, 0x00, 0x00, 0x00,
   0x80, 0x00, 0x00, 0x0e, 0x00, 0x00, 0x00, 0x00, 0x00, 0x00, 0x00, 0x00,
   0x00, 0x00, 0x00, 0x00, 0x00, 0xc0, 0x00, 0x00, 0x00, 0x01, 0x08, 0x01,
   0x00, 0x01, 0x00, 0x00, 0x00, 0x00, 0x00, 0x00, 0x00, 0x00, 0x00, 0x00,
   0x10, 0x00, 0x00, 0xf1, 0x00, 0x00, 0x00, 0x00, 0x00, 0x00, 0x00, 0x00,
   0x00, 0x00, 0x00, 0x00, 0x00, 0x00, 0x00, 0x00, 0x20, 0x10, 0x00, 0x00,
   0x04, 0x00, 0x00, 0x00, 0x00, 0x00, 0x00, 0x20, 0x00, 0x00, 0x00, 0x00,
   0x01, 0x20, 0x15, 0x0c, 0x00, 0x00, 0x00, 0x00, 0x00, 0x00, 0x00, 0x00,
   0x00, 0x00, 0x00, 0x00, 0x00, 0x00, 0x00, 0x00, 0x00, 0x04, 0x01, 0x08,
   0x00, 0x00, 0x00, 0x00, 0x00, 0x00, 0x00, 0x02, 0x00, 0x00, 0x00, 0x00,
   0x3d, 0x4c, 0x60, 0x00, 0x00, 0x00, 0x00, 0x00, 0x00, 0x00, 0x00, 0x00,
   0x00, 0x00, 0x00, 0x00, 0x00, 0x00, 0x00, 0x00, 0x00, 0xc0, 0x20, 0x00,
   0x00, 0x00, 0x00, 0x00, 0x00, 0x00, 0x20, 0x00, 0x00, 0x00, 0x00, 0x00,
   0x00, 0x00, 0x00, 0x00, 0x00, 0x00, 0x00, 0x00, 0x00, 0x00, 0x00, 0x00,
   0x00, 0x00, 0x00, 0x00, 0x00, 0x00, 0x00, 0x00, 0x00, 0x00, 0x01, 0x00,
   0x90, 0x00, 0x00, 0x00, 0x00, 0x00, 0x01, 0x00, 0x00, 0x00, 0x00, 0x00,
   0x00, 0x00, 0x00, 0x00, 0x00, 0x00, 0x00, 0x00, 0x00, 0x00, 0x00, 0x00,
   0x00, 0x00, 0x00, 0x00, 0x00, 0x00, 0x00, 0x00, 0x00, 0x00, 0x08, 0x80,
   0x0b, 0x00, 0x00, 0x00, 0x00, 0x10, 0x00, 0x00, 0x00, 0x00, 0x00, 0x00,
   0x00, 0x00, 0x01, 0x00, 0x00, 0x00, 0x00, 0x00, 0x00, 0x00, 0x00, 0x00,
   0x00, 0x00, 0x00, 0x00, 0x00, 0x00, 0x00, 0x00, 0x00, 0x00, 0x08, 0x00,
   0x48, 0x00, 0x00, 0x00, 0x80, 0x01, 0x00, 0x00, 0x00, 0x00, 0x00, 0x00,
   0x01, 0x20, 0x00, 0x00, 0x00, 0x00, 0x00, 0x00, 0x00, 0x00, 0x00, 0x00,
   0x00, 0x00, 0x00, 0x00, 0x00, 0x00, 0x00, 0x00, 0x00, 0x00, 0x08, 0x00,
   0x00, 0x00, 0x00, 0x00, 0x06, 0x00, 0x00, 0x00, 0x00, 0x00, 0x00, 0x00,
   0x00, 0x00, 0x00, 0x00, 0x00, 0x00, 0x00, 0x00, 0x00, 0x00, 0x00, 0x00,
   0x00, 0x00, 0x00, 0x00, 0x00, 0x00, 0x00, 0x00, 0x00, 0x00, 0x08, 0xc0,
   0x00, 0x00, 0x00, 0x00, 0x01, 0x00, 0x00, 0x00, 0x00, 0x00, 0x00, 0x00,
   0x00, 0x00, 0x00, 0x00, 0x00, 0x00, 0x00, 0x00, 0x00, 0x00, 0x00, 0x00,
   0x00, 0x00, 0x00, 0x00, 0x00, 0x00, 0x00, 0x00, 0x00, 0x00, 0x08, 0x10,
   0x00, 0x00, 0x00, 0x04, 0x00, 0x00, 0x00, 0x00, 0x00, 0x00, 0x00, 0x00,
   0x00, 0x00, 0x00, 0x00, 0x00, 0x00, 0x00, 0x00, 0x00, 0x00, 0x00, 0x00,
   0x00, 0x00, 0x00, 0x00, 0x00, 0x00, 0x00, 0x00, 0x00, 0x00, 0x08, 0x00,
   0x00, 0x00, 0x18, 0x00, 0x00, 0x00, 0x00, 0x00, 0x00, 0x00, 0x00, 0x00,
   0x00, 0x00, 0x00, 0x00, 0x00, 0x00, 0x00, 0x00, 0x00, 0x00, 0x00, 0x00,
   0x00, 0x00, 0x00, 0x00, 0x00, 0x00, 0x00, 0x00, 0x00, 0x00, 0x32, 0x00,
   0x20, 0x60, 0x00, 0x00, 0x00, 0x00, 0x00, 0x00, 0x00, 0x00, 0x00, 0x00,
   0x04, 0x00, 0x00, 0x00, 0x00, 0x00, 0x00, 0x00, 0x00, 0x00, 0x00, 0x00,
   0x00, 0x00, 0x00, 0x00, 0x00, 0x00, 0x00, 0x00, 0x00, 0x80, 0x00, 0x30,
   0x00, 0x00, 0x00, 0x00, 0x00, 0x00, 0x00, 0x00, 0x00, 0x00, 0x00, 0x00};
