#define jigsaw_a_e_h_width 88
#define jigsaw_a_e_h_height 78
#define jigsaw_a_e_h_x_hot 20
#define jigsaw_a_e_h_y_hot 6
static unsigned char jigsaw_a_e_h_bits[] = {
   0x00, 0x00, 0x00, 0x00, 0x00, 0x00, 0x00, 0x00, 0x00, 0x00, 0x00, 0x00,
   0x00, 0x00, 0x00, 0xc0, 0x03, 0x00, 0x00, 0x3c, 0x00, 0x00, 0x00, 0x00,
   0x00, 0x00, 0xfc, 0x07, 0x00, 0x00, 0xfe, 0x03, 0x00, 0x00, 0x00, 0x00,
   0xc0, 0x3f, 0x0c, 0x00, 0x00, 0xc3, 0x3f, 0x00, 0x00, 0x00, 0x00, 0xfc,
   0x03, 0x18, 0x00, 0x80, 0x01, 0xfc, 0x03, 0x00, 0x00, 0xc0, 0x3f, 0x00,
   0x30, 0x00, 0xc0, 0x00, 0xc0, 0x3f, 0x00, 0x00, 0xe0, 0x03, 0x00, 0x60,
   0x00, 0x60, 0x00, 0x00, 0x7c, 0x00, 0x00, 0x60, 0x00, 0x00, 0x60, 0x00,
   0x60, 0x00, 0x00, 0x60, 0x00, 0x00, 0x60, 0x00, 0x00, 0x60, 0x00, 0x60,
   0x00, 0x00, 0x60, 0x00, 0x00, 0x60, 0x00, 0x00, 0x60, 0x00, 0x60, 0x00,
   0x00, 0x60, 0x00, 0x00, 0xc0, 0x00, 0x00, 0x60, 0x00, 0x60, 0x00, 0x00,
   0x60, 0x00, 0x00, 0xc0, 0x00, 0x00, 0x30, 0x00, 0xc0, 0x00, 0x00, 0x60,
   0x00, 0x00, 0xc0, 0x00, 0x00, 0x38, 0x00, 0xc0, 0x01, 0x00, 0x60, 0x00,
   0x00, 0xc0, 0x00, 0x00, 0x18, 0x00, 0x80, 0x01, 0x00, 0x60, 0x00, 0x00,
   0x80, 0x01, 0x00, 0x18, 0x00, 0x80, 0x01, 0x00, 0x60, 0x00, 0x00, 0x80,
   0x01, 0x00, 0x18, 0x00, 0x80, 0x01, 0x00, 0x60, 0x00, 0x00, 0x80, 0x01,
   0x00, 0x18, 0x00, 0x80, 0x01, 0x00, 0x60, 0x00, 0x00, 0x80, 0x01, 0x00,
   0x18, 0x00, 0x80, 0x01, 0x00, 0x60, 0x00, 0x00, 0x00, 0x03, 0x00, 0x18,
   0x00, 0x80, 0x01, 0x00, 0x60, 0x00, 0x00, 0x00, 0x03, 0x00, 0x18, 0x00,
   0x80, 0x01, 0x00, 0x60, 0x00, 0x00, 0x00, 0x03, 0x00, 0x38, 0x00, 0xc0,
   0x01, 0x00, 0x60, 0x00, 0x00, 0x00, 0x03, 0x00, 0x30, 0x00, 0xc0, 0x00,
   0x00, 0x60, 0x00, 0x00, 0x00, 0x06, 0x00, 0x60, 0x00, 0x60, 0x00, 0x00,
   0x60, 0x00, 0x00, 0x00, 0x06, 0x00, 0xe0, 0x00, 0x70, 0x00, 0x00, 0x60,
   0x00, 0x00, 0x00, 0x06, 0x00, 0xc0, 0x03, 0x3c, 0x00, 0x00, 0x60, 0x00,
   0x00, 0x00, 0x06, 0x00, 0x80, 0x0f, 0x1f, 0x00, 0x00, 0x60, 0x00, 0x00,
   0x00, 0x06, 0x00, 0x00, 0xfe, 0x07, 0x00, 0x00, 0x60, 0x00, 0x00, 0x00,
   0x07, 0x00, 0x00, 0xf0, 0x00, 0x00, 0x00, 0x60, 0x00, 0x7e, 0x80, 0x03,
   0x00, 0x00, 0x00, 0x00, 0x00, 0x00, 0x60, 0xc0, 0xff, 0xc1, 0x01, 0x00,
   0x00, 0x00, 0x00, 0x00, 0x00, 0x60, 0xe0, 0xc1, 0xff, 0x00, 0x00, 0x00,
   0x00, 0x00, 0x00, 0x00, 0x60, 0x70, 0x00, 0x7e, 0x00, 0x00, 0x00, 0x00,
   0x00, 0x00, 0x00, 0x60, 0x18, 0x00, 0x00, 0x00, 0x00, 0x00, 0x00, 0x00,
   0x00, 0x00, 0x60, 0x1c, 0x00, 0x00, 0x00, 0x00, 0x00, 0x00, 0x00, 0x00,
   0x00, 0x60, 0x0c, 0x00, 0x00, 0x00, 0x00, 0x00, 0x00, 0x00, 0x00, 0x00,
   0x60, 0x06, 0x00, 0x00, 0x00, 0x00, 0x00, 0x00, 0x00, 0x00, 0x00, 0x60,
   0x06, 0x00, 0x00, 0x00, 0x00, 0x00, 0x00, 0x00, 0x00, 0x00, 0x60, 0x06,
   0x00, 0x00, 0x00, 0x00, 0x00, 0x00, 0x00, 0x00, 0x00, 0x60, 0x06, 0x00,
   0x00, 0x00, 0x00, 0x00, 0x00, 0x00, 0x00, 0x00, 0x60, 0x06, 0x00, 0x00,
   0x00, 0x00, 0x00, 0x00, 0x00, 0x00, 0x00, 0x60, 0x06, 0x00, 0x00, 0x00,
   0x00, 0x00, 0x00, 0x00, 0x00, 0x00, 0x60, 0x06, 0x00, 0x00, 0x00, 0x00,
   0x00, 0x00, 0x00, 0x00, 0x00, 0x60, 0x06, 0x00, 0x00, 0x00, 0x00, 0x00,
   0x00, 0x00, 0x00, 0x00, 0x60, 0x0c, 0x00, 0x00, 0x00, 0x00, 0x00, 0x00,
   0x00, 0x00, 0x00, 0x60, 0x0c, 0x00, 0x00, 0x00, 0x00, 0x00, 0x00, 0x00,
   0x00, 0x00, 0x60, 0x18, 0x00, 0x00, 0x00, 0x00, 0x00, 0x00, 0x00, 0x00,
   0x00, 0x60, 0x70, 0x00, 0x3e, 0x00, 0x00, 0x00, 0x00, 0x00, 0x00, 0x00,
   0x60, 0xe0, 0x80, 0x7f, 0x00, 0x00, 0x00, 0x00, 0x00, 0x00, 0x00, 0x60,
   0xc0, 0xff, 0xc1, 0x00, 0x00, 0x00, 0x00, 0x00, 0x00, 0x00, 0x60, 0x00,
   0x7f, 0x80, 0x01, 0x00, 0x00, 0x00, 0x00, 0x00, 0x00, 0x60, 0x00, 0x00,
   0x00, 0x03, 0x00, 0x00, 0xf0, 0x00, 0x00, 0x00, 0x60, 0x00, 0x00, 0x00,
   0x06, 0x00, 0x00, 0xfe, 0x07, 0x00, 0x00, 0x60, 0x00, 0x00, 0x00, 0x06,
   0x00, 0x80, 0x0f, 0x1f, 0x00, 0x00, 0x60, 0x00, 0x00, 0x00, 0x06, 0x00,
   0xc0, 0x03, 0x3c, 0x00, 0x00, 0x60, 0x00, 0x00, 0x00, 0x06, 0x00, 0xe0,
   0x00, 0x70, 0x00, 0x00, 0x60, 0x00, 0x00, 0x00, 0x06, 0x00, 0x60, 0x00,
   0x60, 0x00, 0x00, 0x60, 0x00, 0x00, 0x00, 0x03, 0x00, 0x30, 0x00, 0xc0,
   0x00, 0x00, 0x60, 0x00, 0x00, 0x00, 0x03, 0x00, 0x38, 0x00, 0xc0, 0x01,
   0x00, 0x60, 0x00, 0x00, 0x00, 0x03, 0x00, 0x18, 0x00, 0x80, 0x01, 0x00,
   0x60, 0x00, 0x00, 0x00, 0x03, 0x00, 0x18, 0x00, 0x80, 0x01, 0x00, 0x60,
   0x00, 0x00, 0x80, 0x01, 0x00, 0x18, 0x00, 0x80, 0x01, 0x00, 0x60, 0x00,
   0x00, 0x80, 0x01, 0x00, 0x18, 0x00, 0x80, 0x01, 0x00, 0x60, 0x00, 0x00,
   0x80, 0x01, 0x00, 0x18, 0x00, 0x80, 0x01, 0x00, 0x60, 0x00, 0x00, 0x80,
   0x01, 0x00, 0x18, 0x00, 0x80, 0x01, 0x00, 0x60, 0x00, 0x00, 0xc0, 0x00,
   0x00, 0x18, 0x00, 0x80, 0x01, 0x00, 0x60, 0x00, 0x00, 0xc0, 0x00, 0x00,
   0x38, 0x00, 0xc0, 0x01, 0x00, 0x60, 0x00, 0x00, 0xc0, 0x00, 0x00, 0x30,
   0x00, 0xc0, 0x00, 0x00, 0x60, 0x00, 0x00, 0xc0, 0x00, 0x00, 0x60, 0x00,
   0x60, 0x00, 0x00, 0x60, 0x00, 0x00, 0x60, 0x00, 0x00, 0x60, 0x00, 0x60,
   0x00, 0x00, 0x60, 0x00, 0x00, 0x60, 0x00, 0x00, 0x60, 0x00, 0x60, 0x00,
   0x00, 0x60, 0x00, 0x00, 0x60, 0x00, 0x00, 0x60, 0x00, 0x60, 0x00, 0x00,
   0x60, 0x00, 0x00, 0xe0, 0x03, 0x00, 0x60, 0x00, 0x60, 0x00, 0x00, 0x7c,
   0x00, 0x00, 0xc0, 0x3f, 0x00, 0x30, 0x00, 0xc0, 0x00, 0xc0, 0x3f, 0x00,
   0x00, 0x00, 0xfc, 0x03, 0x18, 0x00, 0x80, 0x01, 0xfc, 0x03, 0x00, 0x00,
   0x00, 0xc0, 0x3f, 0x0c, 0x00, 0x00, 0xc3, 0x3f, 0x00, 0x00, 0x00, 0x00,
   0x00, 0xfc, 0x07, 0x00, 0x00, 0xfe, 0x03, 0x00, 0x00, 0x00, 0x00, 0x00,
   0xc0, 0x03, 0x00, 0x00, 0x3c, 0x00, 0x00, 0x00, 0x00, 0x00, 0x00, 0x00,
   0x00, 0x00, 0x00, 0x00, 0x00, 0x00};
