#define jigsaw_a_sw_h_width 88
#define jigsaw_a_sw_h_height 74
#define jigsaw_a_sw_h_x_hot 1
#define jigsaw_a_sw_h_y_hot 6
static unsigned char jigsaw_a_sw_h_bits[] = {
   0x00, 0x00, 0x00, 0x00, 0x00, 0x00, 0x00, 0x00, 0x00, 0x00, 0x00, 0x00,
   0x00, 0x3c, 0x00, 0x00, 0xc0, 0x03, 0x00, 0x00, 0x00, 0x00, 0x00, 0xc0,
   0x7f, 0x00, 0x00, 0xe0, 0x3f, 0x00, 0x00, 0x00, 0x00, 0x00, 0xfc, 0xc3,
   0x00, 0x00, 0x30, 0xfc, 0x03, 0x00, 0x00, 0x00, 0xc0, 0x3f, 0x80, 0x01,
   0x00, 0x18, 0xc0, 0x3f, 0x00, 0x00, 0x00, 0xfc, 0x03, 0x00, 0x03, 0x00,
   0x0c, 0x00, 0xfc, 0x03, 0x00, 0x00, 0x3e, 0x00, 0x00, 0x06, 0x00, 0x06,
   0x00, 0xc0, 0x07, 0x00, 0x00, 0x06, 0x00, 0x00, 0x06, 0x00, 0x06, 0x00,
   0x00, 0x06, 0x00, 0x00, 0x06, 0x00, 0x00, 0x06, 0x00, 0x06, 0x00, 0x00,
   0x06, 0x00, 0x00, 0x06, 0x00, 0x00, 0x06, 0x00, 0x06, 0x00, 0x00, 0x06,
   0x00, 0x00, 0x06, 0x00, 0x00, 0x06, 0x00, 0x06, 0x00, 0x00, 0x03, 0x00,
   0x00, 0x06, 0x00, 0x00, 0x03, 0x00, 0x0c, 0x00, 0x00, 0x03, 0x00, 0x00,
   0x06, 0x00, 0x80, 0x03, 0x00, 0x1c, 0x00, 0x00, 0x03, 0x00, 0x00, 0x06,
   0x00, 0x80, 0x01, 0x00, 0x18, 0x00, 0x00, 0x03, 0x00, 0x00, 0x06, 0x00,
   0x80, 0x01, 0x00, 0x18, 0x00, 0x80, 0x01, 0x00, 0x00, 0x06, 0x00, 0x80,
   0x01, 0x00, 0x18, 0x00, 0x80, 0x01, 0x00, 0x00, 0x06, 0x00, 0x80, 0x01,
   0x00, 0x18, 0x00, 0x80, 0x01, 0x00, 0x00, 0x06, 0x00, 0x80, 0x01, 0x00,
   0x18, 0x00, 0x80, 0x01, 0x00, 0x00, 0x06, 0x00, 0x80, 0x01, 0x00, 0x18,
   0x00, 0xc0, 0x00, 0x00, 0x00, 0x06, 0x00, 0x80, 0x01, 0x00, 0x18, 0x00,
   0xc0, 0x00, 0x00, 0x00, 0x06, 0x00, 0x80, 0x03, 0x00, 0x1c, 0x00, 0xc0,
   0x00, 0x00, 0x00, 0x06, 0x00, 0x00, 0x03, 0x00, 0x0c, 0x00, 0xc0, 0x00,
   0x00, 0x00, 0x06, 0x00, 0x00, 0x06, 0x00, 0x06, 0x00, 0x60, 0x00, 0x00,
   0x00, 0x06, 0x00, 0x00, 0x0e, 0x00, 0x07, 0x00, 0x60, 0x00, 0x00, 0x00,
   0x06, 0x00, 0x00, 0x3c, 0xc0, 0x03, 0x00, 0x60, 0x00, 0x00, 0x00, 0x06,
   0x00, 0x00, 0xf8, 0xf0, 0x01, 0x00, 0x60, 0x00, 0x00, 0x00, 0x06, 0x00,
   0x00, 0xe0, 0x7f, 0x00, 0x00, 0x60, 0x00, 0x00, 0x00, 0x06, 0x00, 0x00,
   0x00, 0x0f, 0x00, 0x00, 0xc0, 0x00, 0x00, 0x00, 0x06, 0x00, 0x00, 0x00,
   0x00, 0x00, 0x00, 0x80, 0x01, 0xfe, 0x00, 0x06, 0x00, 0x00, 0x00, 0x00,
   0x00, 0x00, 0x00, 0x83, 0xff, 0x03, 0x06, 0x00, 0x00, 0x00, 0x00, 0x00,
   0x00, 0x00, 0xfe, 0x01, 0x07, 0x06, 0x00, 0x00, 0x00, 0x00, 0x00, 0x00,
   0x00, 0x7c, 0x00, 0x0e, 0x06, 0x00, 0x00, 0x00, 0x00, 0x00, 0x00, 0x00,
   0x00, 0x00, 0x18, 0x06, 0x00, 0x00, 0x00, 0x00, 0x00, 0x00, 0x00, 0x00,
   0x00, 0x30, 0x06, 0x00, 0x00, 0x00, 0x00, 0x00, 0x00, 0x00, 0x00, 0x00,
   0x30, 0x06, 0x00, 0x00, 0x00, 0x00, 0x00, 0x00, 0x00, 0x00, 0x00, 0x60,
   0x06, 0x00, 0x00, 0x00, 0x00, 0x00, 0x00, 0x00, 0x00, 0x00, 0x60, 0x06,
   0x00, 0x00, 0x00, 0x00, 0x00, 0x00, 0x00, 0x00, 0x00, 0x60, 0x06, 0x00,
   0x00, 0x00, 0x00, 0x00, 0x00, 0x00, 0x00, 0x00, 0x60, 0x06, 0x00, 0x00,
   0x00, 0x00, 0x00, 0x00, 0x00, 0x00, 0x00, 0x60, 0x06, 0x00, 0x00, 0x00,
   0x00, 0x00, 0x00, 0x00, 0x00, 0x00, 0x60, 0x06, 0x00, 0x00, 0x00, 0x00,
   0x00, 0x00, 0x00, 0x00, 0x00, 0x60, 0x06, 0x00, 0x00, 0x00, 0x00, 0x00,
   0x00, 0x00, 0x00, 0x00, 0x60, 0x06, 0x00, 0x00, 0x00, 0x00, 0x00, 0x00,
   0x00, 0x00, 0x00, 0x30, 0x06, 0x00, 0x00, 0x00, 0x00, 0x00, 0x00, 0x00,
   0x00, 0x00, 0x38, 0x06, 0x00, 0x00, 0x00, 0x00, 0x00, 0x00, 0x00, 0x00,
   0x00, 0x18, 0x06, 0x00, 0x00, 0x00, 0x00, 0x00, 0x00, 0x00, 0x7e, 0x00,
   0x0e, 0x06, 0x00, 0x00, 0x00, 0x00, 0x00, 0x00, 0x00, 0xff, 0x83, 0x07,
   0x06, 0x00, 0x00, 0x00, 0x00, 0x00, 0x00, 0x80, 0x83, 0xff, 0x03, 0x06,
   0x00, 0x00, 0x00, 0x00, 0x00, 0x00, 0xc0, 0x01, 0x7e, 0x00, 0x06, 0x00,
   0x00, 0x00, 0x00, 0x00, 0x00, 0xe0, 0x00, 0x00, 0x00, 0x06, 0x00, 0x00,
   0x00, 0x00, 0x00, 0x00, 0x60, 0x00, 0x00, 0x00, 0x06, 0x00, 0x00, 0x00,
   0x00, 0x00, 0x00, 0x60, 0x00, 0x00, 0x00, 0x06, 0x00, 0x00, 0x00, 0x00,
   0x00, 0x00, 0x60, 0x00, 0x00, 0x00, 0x06, 0x00, 0x00, 0x00, 0x00, 0x00,
   0x00, 0x60, 0x00, 0x00, 0x00, 0x06, 0x00, 0x00, 0x00, 0x00, 0x00, 0x00,
   0x60, 0x00, 0x00, 0x00, 0x06, 0x00, 0x00, 0x00, 0x00, 0x00, 0x00, 0xc0,
   0x00, 0x00, 0x00, 0x06, 0x00, 0x00, 0x00, 0x00, 0x00, 0x00, 0xc0, 0x00,
   0x00, 0x00, 0x06, 0x00, 0x00, 0x00, 0x00, 0x00, 0x00, 0xc0, 0x00, 0x00,
   0x00, 0x06, 0x00, 0x00, 0x00, 0x00, 0x00, 0x00, 0xc0, 0x00, 0x00, 0x00,
   0x06, 0x00, 0x00, 0x00, 0x00, 0x00, 0x00, 0x80, 0x01, 0x00, 0x00, 0x06,
   0x00, 0x00, 0x00, 0x00, 0x00, 0x00, 0x80, 0x01, 0x00, 0x00, 0x06, 0x00,
   0x00, 0x00, 0x00, 0x00, 0x00, 0x80, 0x01, 0x00, 0x00, 0x06, 0x00, 0x00,
   0x00, 0x00, 0x00, 0x00, 0x80, 0x01, 0x00, 0x00, 0x06, 0x00, 0x00, 0x00,
   0x00, 0x00, 0x00, 0x00, 0x03, 0x00, 0x00, 0x06, 0x00, 0x00, 0x00, 0x00,
   0x00, 0x00, 0x00, 0x03, 0x00, 0x00, 0x06, 0x00, 0x00, 0x00, 0x00, 0x00,
   0x00, 0x00, 0x03, 0x00, 0x00, 0x06, 0x00, 0x00, 0x00, 0x00, 0x00, 0x00,
   0x00, 0x03, 0x00, 0x00, 0x06, 0x00, 0x00, 0x00, 0x00, 0x00, 0x00, 0x00,
   0x06, 0x00, 0x00, 0x06, 0x00, 0x00, 0x00, 0x00, 0x00, 0x00, 0x00, 0x06,
   0x00, 0x00, 0x06, 0x00, 0x00, 0x00, 0x00, 0x00, 0x00, 0x00, 0x06, 0x00,
   0x00, 0xfe, 0xff, 0xff, 0xff, 0xff, 0xff, 0xff, 0xff, 0x07, 0x00, 0x00,
   0xfe, 0xff, 0xff, 0xff, 0xff, 0xff, 0xff, 0xff, 0x03, 0x00, 0x00, 0x00,
   0x00, 0x00, 0x00, 0x00, 0x00, 0x00, 0x00, 0x00, 0x00, 0x00};
