#define jigsaw_a_ne_h_width 89
#define jigsaw_a_ne_h_height 74
#define jigsaw_a_ne_h_x_hot 21
#define jigsaw_a_ne_h_y_hot 1
static unsigned char jigsaw_a_ne_h_bits[] = {
   0x00, 0x00, 0x00, 0x00, 0x00, 0x00, 0x00, 0x00, 0x00, 0x00, 0x00, 0x00,
   0x00, 0x00, 0xc0, 0xff, 0xff, 0xff, 0xff, 0xff, 0xff, 0xff, 0xff, 0x00,
   0x00, 0x00, 0xe0, 0xff, 0xff, 0xff, 0xff, 0xff, 0xff, 0xff, 0xff, 0x00,
   0x00, 0x00, 0x60, 0x00, 0x00, 0x00, 0x00, 0x00, 0x00, 0x00, 0xc0, 0x00,
   0x00, 0x00, 0x60, 0x00, 0x00, 0x00, 0x00, 0x00, 0x00, 0x00, 0xc0, 0x00,
   0x00, 0x00, 0x60, 0x00, 0x00, 0x00, 0x00, 0x00, 0x00, 0x00, 0xc0, 0x00,
   0x00, 0x00, 0xc0, 0x00, 0x00, 0x00, 0x00, 0x00, 0x00, 0x00, 0xc0, 0x00,
   0x00, 0x00, 0xc0, 0x00, 0x00, 0x00, 0x00, 0x00, 0x00, 0x00, 0xc0, 0x00,
   0x00, 0x00, 0xc0, 0x00, 0x00, 0x00, 0x00, 0x00, 0x00, 0x00, 0xc0, 0x00,
   0x00, 0x00, 0xc0, 0x00, 0x00, 0x00, 0x00, 0x00, 0x00, 0x00, 0xc0, 0x00,
   0x00, 0x00, 0x80, 0x01, 0x00, 0x00, 0x00, 0x00, 0x00, 0x00, 0xc0, 0x00,
   0x00, 0x00, 0x80, 0x01, 0x00, 0x00, 0x00, 0x00, 0x00, 0x00, 0xc0, 0x00,
   0x00, 0x00, 0x80, 0x01, 0x00, 0x00, 0x00, 0x00, 0x00, 0x00, 0xc0, 0x00,
   0x00, 0x00, 0x80, 0x01, 0x00, 0x00, 0x00, 0x00, 0x00, 0x00, 0xc0, 0x00,
   0x00, 0x00, 0x00, 0x03, 0x00, 0x00, 0x00, 0x00, 0x00, 0x00, 0xc0, 0x00,
   0x00, 0x00, 0x00, 0x03, 0x00, 0x00, 0x00, 0x00, 0x00, 0x00, 0xc0, 0x00,
   0x00, 0x00, 0x00, 0x03, 0x00, 0x00, 0x00, 0x00, 0x00, 0x00, 0xc0, 0x00,
   0x00, 0x00, 0x00, 0x03, 0x00, 0x00, 0x00, 0x00, 0x00, 0x00, 0xc0, 0x00,
   0x00, 0x00, 0x00, 0x06, 0x00, 0x00, 0x00, 0x00, 0x00, 0x00, 0xc0, 0x00,
   0x00, 0x00, 0x00, 0x06, 0x00, 0x00, 0x00, 0x00, 0x00, 0x00, 0xc0, 0x00,
   0x00, 0x00, 0x00, 0x06, 0x00, 0x00, 0x00, 0x00, 0x00, 0x00, 0xc0, 0x00,
   0x00, 0x00, 0x00, 0x06, 0x00, 0x00, 0x00, 0x00, 0x00, 0x00, 0xc0, 0x00,
   0x00, 0x00, 0x00, 0x06, 0x00, 0x00, 0x00, 0x00, 0x00, 0x00, 0xc0, 0x00,
   0x00, 0x00, 0x00, 0x07, 0x00, 0x00, 0x00, 0x00, 0x00, 0x00, 0xc0, 0x00,
   0x00, 0x7e, 0x80, 0x03, 0x00, 0x00, 0x00, 0x00, 0x00, 0x00, 0xc0, 0x00,
   0xc0, 0xff, 0xc1, 0x01, 0x00, 0x00, 0x00, 0x00, 0x00, 0x00, 0xc0, 0x00,
   0xe0, 0xc1, 0xff, 0x00, 0x00, 0x00, 0x00, 0x00, 0x00, 0x00, 0xc0, 0x00,
   0x70, 0x00, 0x7e, 0x00, 0x00, 0x00, 0x00, 0x00, 0x00, 0x00, 0xc0, 0x00,
   0x18, 0x00, 0x00, 0x00, 0x00, 0x00, 0x00, 0x00, 0x00, 0x00, 0xc0, 0x00,
   0x1c, 0x00, 0x00, 0x00, 0x00, 0x00, 0x00, 0x00, 0x00, 0x00, 0xc0, 0x00,
   0x0c, 0x00, 0x00, 0x00, 0x00, 0x00, 0x00, 0x00, 0x00, 0x00, 0xc0, 0x00,
   0x06, 0x00, 0x00, 0x00, 0x00, 0x00, 0x00, 0x00, 0x00, 0x00, 0xc0, 0x00,
   0x06, 0x00, 0x00, 0x00, 0x00, 0x00, 0x00, 0x00, 0x00, 0x00, 0xc0, 0x00,
   0x06, 0x00, 0x00, 0x00, 0x00, 0x00, 0x00, 0x00, 0x00, 0x00, 0xc0, 0x00,
   0x06, 0x00, 0x00, 0x00, 0x00, 0x00, 0x00, 0x00, 0x00, 0x00, 0xc0, 0x00,
   0x06, 0x00, 0x00, 0x00, 0x00, 0x00, 0x00, 0x00, 0x00, 0x00, 0xc0, 0x00,
   0x06, 0x00, 0x00, 0x00, 0x00, 0x00, 0x00, 0x00, 0x00, 0x00, 0xc0, 0x00,
   0x06, 0x00, 0x00, 0x00, 0x00, 0x00, 0x00, 0x00, 0x00, 0x00, 0xc0, 0x00,
   0x06, 0x00, 0x00, 0x00, 0x00, 0x00, 0x00, 0x00, 0x00, 0x00, 0xc0, 0x00,
   0x0c, 0x00, 0x00, 0x00, 0x00, 0x00, 0x00, 0x00, 0x00, 0x00, 0xc0, 0x00,
   0x0c, 0x00, 0x00, 0x00, 0x00, 0x00, 0x00, 0x00, 0x00, 0x00, 0xc0, 0x00,
   0x18, 0x00, 0x00, 0x00, 0x00, 0x00, 0x00, 0x00, 0x00, 0x00, 0xc0, 0x00,
   0x70, 0x00, 0x3e, 0x00, 0x00, 0x00, 0x00, 0x00, 0x00, 0x00, 0xc0, 0x00,
   0xe0, 0x80, 0x7f, 0x00, 0x00, 0x00, 0x00, 0x00, 0x00, 0x00, 0xc0, 0x00,
   0xc0, 0xff, 0xc1, 0x00, 0x00, 0x00, 0x00, 0x00, 0x00, 0x00, 0xc0, 0x00,
   0x00, 0x7f, 0x80, 0x01, 0x00, 0x00, 0x00, 0x00, 0x00, 0x00, 0xc0, 0x00,
   0x00, 0x00, 0x00, 0x03, 0x00, 0x00, 0xf0, 0x01, 0x00, 0x00, 0xc0, 0x00,
   0x00, 0x00, 0x00, 0x06, 0x00, 0x00, 0xfe, 0x0f, 0x00, 0x00, 0xc0, 0x00,
   0x00, 0x00, 0x00, 0x06, 0x00, 0x80, 0x0f, 0x3e, 0x00, 0x00, 0xc0, 0x00,
   0x00, 0x00, 0x00, 0x06, 0x00, 0xc0, 0x03, 0x78, 0x00, 0x00, 0xc0, 0x00,
   0x00, 0x00, 0x00, 0x06, 0x00, 0xe0, 0x00, 0xe0, 0x00, 0x00, 0xc0, 0x00,
   0x00, 0x00, 0x00, 0x06, 0x00, 0x60, 0x00, 0xc0, 0x00, 0x00, 0xc0, 0x00,
   0x00, 0x00, 0x00, 0x03, 0x00, 0x30, 0x00, 0x80, 0x01, 0x00, 0xc0, 0x00,
   0x00, 0x00, 0x00, 0x03, 0x00, 0x38, 0x00, 0x80, 0x03, 0x00, 0xc0, 0x00,
   0x00, 0x00, 0x00, 0x03, 0x00, 0x18, 0x00, 0x00, 0x03, 0x00, 0xc0, 0x00,
   0x00, 0x00, 0x00, 0x03, 0x00, 0x18, 0x00, 0x00, 0x03, 0x00, 0xc0, 0x00,
   0x00, 0x00, 0x80, 0x01, 0x00, 0x18, 0x00, 0x00, 0x03, 0x00, 0xc0, 0x00,
   0x00, 0x00, 0x80, 0x01, 0x00, 0x18, 0x00, 0x00, 0x03, 0x00, 0xc0, 0x00,
   0x00, 0x00, 0x80, 0x01, 0x00, 0x18, 0x00, 0x00, 0x03, 0x00, 0xc0, 0x00,
   0x00, 0x00, 0x80, 0x01, 0x00, 0x18, 0x00, 0x00, 0x03, 0x00, 0xc0, 0x00,
   0x00, 0x00, 0xc0, 0x00, 0x00, 0x18, 0x00, 0x00, 0x03, 0x00, 0xc0, 0x00,
   0x00, 0x00, 0xc0, 0x00, 0x00, 0x38, 0x00, 0x80, 0x03, 0x00, 0xc0, 0x00,
   0x00, 0x00, 0xc0, 0x00, 0x00, 0x30, 0x00, 0x80, 0x01, 0x00, 0xc0, 0x00,
   0x00, 0x00, 0xc0, 0x00, 0x00, 0x60, 0x00, 0xc0, 0x00, 0x00, 0xc0, 0x00,
   0x00, 0x00, 0x60, 0x00, 0x00, 0x60, 0x00, 0xc0, 0x00, 0x00, 0xc0, 0x00,
   0x00, 0x00, 0x60, 0x00, 0x00, 0x60, 0x00, 0xc0, 0x00, 0x00, 0xc0, 0x00,
   0x00, 0x00, 0x60, 0x00, 0x00, 0x60, 0x00, 0xc0, 0x00, 0x00, 0xc0, 0x00,
   0x00, 0x00, 0xe0, 0x03, 0x00, 0x60, 0x00, 0xc0, 0x00, 0x00, 0xf8, 0x00,
   0x00, 0x00, 0xc0, 0x3f, 0x00, 0x30, 0x00, 0x80, 0x01, 0x80, 0x7f, 0x00,
   0x00, 0x00, 0x00, 0xfc, 0x03, 0x18, 0x00, 0x00, 0x03, 0xf8, 0x07, 0x00,
   0x00, 0x00, 0x00, 0xc0, 0x3f, 0x0c, 0x00, 0x00, 0x86, 0x7f, 0x00, 0x00,
   0x00, 0x00, 0x00, 0x00, 0xfc, 0x07, 0x00, 0x00, 0xfc, 0x07, 0x00, 0x00,
   0x00, 0x00, 0x00, 0x00, 0xc0, 0x03, 0x00, 0x00, 0x78, 0x00, 0x00, 0x00,
   0x00, 0x00, 0x00, 0x00, 0x00, 0x00, 0x00, 0x00, 0x00, 0x00, 0x00, 0x00};
