#define jigsaw_a_ne_f_width 89
#define jigsaw_a_ne_f_height 74
#define jigsaw_a_ne_f_x_hot 21
#define jigsaw_a_ne_f_y_hot 1
static unsigned char jigsaw_a_ne_f_bits[] = {
   0x00, 0x00, 0x00, 0x00, 0x00, 0x00, 0x00, 0x00, 0x00, 0x00, 0x00, 0x00,
   0x00, 0x00, 0xc0, 0xff, 0xff, 0xff, 0xff, 0xff, 0xff, 0xff, 0xff, 0x00,
   0x00, 0x00, 0xe0, 0xff, 0xff, 0xff, 0xff, 0xff, 0xff, 0xff, 0xff, 0x00,
   0x00, 0x00, 0xe0, 0xff, 0xff, 0xff, 0xff, 0xff, 0xff, 0xff, 0xff, 0x00,
   0x00, 0x00, 0xe0, 0xff, 0xff, 0xff, 0xff, 0xff, 0xff, 0xff, 0xff, 0x00,
   0x00, 0x00, 0xe0, 0xff, 0xff, 0xff, 0xff, 0xff, 0xff, 0xff, 0xff, 0x00,
   0x00, 0x00, 0xc0, 0xff, 0xff, 0xff, 0xff, 0xff, 0xff, 0xff, 0xff, 0x00,
   0x00, 0x00, 0xc0, 0xff, 0xff, 0xff, 0xff, 0xff, 0xff, 0xff, 0xff, 0x00,
   0x00, 0x00, 0xc0, 0xff, 0xff, 0xff, 0xff, 0xff, 0xff, 0xff, 0xff, 0x00,
   0x00, 0x00, 0xc0, 0xff, 0xff, 0xff, 0xff, 0xff, 0xff, 0xff, 0xff, 0x00,
   0x00, 0x00, 0x80, 0xff, 0xff, 0xff, 0xff, 0xff, 0xff, 0xff, 0xff, 0x00,
   0x00, 0x00, 0x80, 0xff, 0xff, 0xff, 0xff, 0xff, 0xff, 0xff, 0xff, 0x00,
   0x00, 0x00, 0x80, 0xff, 0xff, 0xff, 0xff, 0xff, 0xff, 0xff, 0xff, 0x00,
   0x00, 0x00, 0x80, 0xff, 0xff, 0xff, 0xff, 0xff, 0xff, 0xff, 0xff, 0x00,
   0x00, 0x00, 0x00, 0xff, 0xff, 0xff, 0xff, 0xff, 0xff, 0xff, 0xff, 0x00,
   0x00, 0x00, 0x00, 0xff, 0xff, 0xff, 0xff, 0xff, 0xff, 0xff, 0xff, 0x00,
   0x00, 0x00, 0x00, 0xff, 0xff, 0xff, 0xff, 0xff, 0xff, 0xff, 0xff, 0x00,
   0x00, 0x00, 0x00, 0xff, 0xff, 0xff, 0xff, 0xff, 0xff, 0xff, 0xff, 0x00,
   0x00, 0x00, 0x00, 0xfe, 0xff, 0xff, 0xff, 0xff, 0xff, 0xff, 0xff, 0x00,
   0x00, 0x00, 0x00, 0xfe, 0xff, 0xff, 0xff, 0xff, 0xff, 0xff, 0xff, 0x00,
   0x00, 0x00, 0x00, 0xfe, 0xff, 0xff, 0xff, 0xff, 0xff, 0xff, 0xff, 0x00,
   0x00, 0x00, 0x00, 0xfe, 0xff, 0xff, 0xff, 0xff, 0xff, 0xff, 0xff, 0x00,
   0x00, 0x00, 0x00, 0xfe, 0xff, 0xff, 0xff, 0xff, 0xff, 0xff, 0xff, 0x00,
   0x00, 0x00, 0x00, 0xff, 0xff, 0xff, 0xff, 0xff, 0xff, 0xff, 0xff, 0x00,
   0x00, 0x7e, 0x80, 0xff, 0xff, 0xff, 0xff, 0xff, 0xff, 0xff, 0xff, 0x00,
   0xc0, 0xff, 0xc1, 0xff, 0xff, 0xff, 0xff, 0xff, 0xff, 0xff, 0xff, 0x00,
   0xe0, 0xff, 0xff, 0xff, 0xff, 0xff, 0xff, 0xff, 0xff, 0xff, 0xff, 0x00,
   0xf0, 0xff, 0xff, 0xff, 0xff, 0xff, 0xff, 0xff, 0xff, 0xff, 0xff, 0x00,
   0xf8, 0xff, 0xff, 0xff, 0xff, 0xff, 0xff, 0xff, 0xff, 0xff, 0xff, 0x00,
   0xfc, 0xff, 0xff, 0xff, 0xff, 0xff, 0xff, 0xff, 0xff, 0xff, 0xff, 0x00,
   0xfc, 0xff, 0xff, 0xff, 0xff, 0xff, 0xff, 0xff, 0xff, 0xff, 0xff, 0x00,
   0xfe, 0xff, 0xff, 0xff, 0xff, 0xff, 0xff, 0xff, 0xff, 0xff, 0xff, 0x00,
   0xfe, 0xff, 0xff, 0xff, 0xff, 0xff, 0xff, 0xff, 0xff, 0xff, 0xff, 0x00,
   0xfe, 0xff, 0xff, 0xff, 0xff, 0xff, 0xff, 0xff, 0xff, 0xff, 0xff, 0x00,
   0xfe, 0xff, 0xff, 0xff, 0xff, 0xff, 0xff, 0xff, 0xff, 0xff, 0xff, 0x00,
   0xfe, 0xff, 0xff, 0xff, 0xff, 0xff, 0xff, 0xff, 0xff, 0xff, 0xff, 0x00,
   0xfe, 0xff, 0xff, 0xff, 0xff, 0xff, 0xff, 0xff, 0xff, 0xff, 0xff, 0x00,
   0xfe, 0xff, 0xff, 0xff, 0xff, 0xff, 0xff, 0xff, 0xff, 0xff, 0xff, 0x00,
   0xfe, 0xff, 0xff, 0xff, 0xff, 0xff, 0xff, 0xff, 0xff, 0xff, 0xff, 0x00,
   0xfc, 0xff, 0xff, 0xff, 0xff, 0xff, 0xff, 0xff, 0xff, 0xff, 0xff, 0x00,
   0xfc, 0xff, 0xff, 0xff, 0xff, 0xff, 0xff, 0xff, 0xff, 0xff, 0xff, 0x00,
   0xf8, 0xff, 0xff, 0xff, 0xff, 0xff, 0xff, 0xff, 0xff, 0xff, 0xff, 0x00,
   0xf0, 0xff, 0xff, 0xff, 0xff, 0xff, 0xff, 0xff, 0xff, 0xff, 0xff, 0x00,
   0xe0, 0xff, 0xff, 0xff, 0xff, 0xff, 0xff, 0xff, 0xff, 0xff, 0xff, 0x00,
   0xc0, 0xff, 0xc1, 0xff, 0xff, 0xff, 0xff, 0xff, 0xff, 0xff, 0xff, 0x00,
   0x00, 0x7f, 0x80, 0xff, 0xff, 0xff, 0xff, 0xff, 0xff, 0xff, 0xff, 0x00,
   0x00, 0x00, 0x00, 0xff, 0xff, 0xff, 0xff, 0xff, 0xff, 0xff, 0xff, 0x00,
   0x00, 0x00, 0x00, 0xfe, 0xff, 0xff, 0xff, 0xff, 0xff, 0xff, 0xff, 0x00,
   0x00, 0x00, 0x00, 0xfe, 0xff, 0xff, 0x0f, 0xfe, 0xff, 0xff, 0xff, 0x00,
   0x00, 0x00, 0x00, 0xfe, 0xff, 0xff, 0x03, 0xf8, 0xff, 0xff, 0xff, 0x00,
   0x00, 0x00, 0x00, 0xfe, 0xff, 0xff, 0x00, 0xe0, 0xff, 0xff, 0xff, 0x00,
   0x00, 0x00, 0x00, 0xfe, 0xff, 0x7f, 0x00, 0xc0, 0xff, 0xff, 0xff, 0x00,
   0x00, 0x00, 0x00, 0xff, 0xff, 0x3f, 0x00, 0x80, 0xff, 0xff, 0xff, 0x00,
   0x00, 0x00, 0x00, 0xff, 0xff, 0x3f, 0x00, 0x80, 0xff, 0xff, 0xff, 0x00,
   0x00, 0x00, 0x00, 0xff, 0xff, 0x1f, 0x00, 0x00, 0xff, 0xff, 0xff, 0x00,
   0x00, 0x00, 0x00, 0xff, 0xff, 0x1f, 0x00, 0x00, 0xff, 0xff, 0xff, 0x00,
   0x00, 0x00, 0x80, 0xff, 0xff, 0x1f, 0x00, 0x00, 0xff, 0xff, 0xff, 0x00,
   0x00, 0x00, 0x80, 0xff, 0xff, 0x1f, 0x00, 0x00, 0xff, 0xff, 0xff, 0x00,
   0x00, 0x00, 0x80, 0xff, 0xff, 0x1f, 0x00, 0x00, 0xff, 0xff, 0xff, 0x00,
   0x00, 0x00, 0x80, 0xff, 0xff, 0x1f, 0x00, 0x00, 0xff, 0xff, 0xff, 0x00,
   0x00, 0x00, 0xc0, 0xff, 0xff, 0x1f, 0x00, 0x00, 0xff, 0xff, 0xff, 0x00,
   0x00, 0x00, 0xc0, 0xff, 0xff, 0x3f, 0x00, 0x80, 0xff, 0xff, 0xff, 0x00,
   0x00, 0x00, 0xc0, 0xff, 0xff, 0x3f, 0x00, 0x80, 0xff, 0xff, 0xff, 0x00,
   0x00, 0x00, 0xc0, 0xff, 0xff, 0x7f, 0x00, 0xc0, 0xff, 0xff, 0xff, 0x00,
   0x00, 0x00, 0xe0, 0xff, 0xff, 0x7f, 0x00, 0xc0, 0xff, 0xff, 0xff, 0x00,
   0x00, 0x00, 0xe0, 0xff, 0xff, 0x7f, 0x00, 0xc0, 0xff, 0xff, 0xff, 0x00,
   0x00, 0x00, 0xe0, 0xff, 0xff, 0x7f, 0x00, 0xc0, 0xff, 0xff, 0xff, 0x00,
   0x00, 0x00, 0xe0, 0xff, 0xff, 0x7f, 0x00, 0xc0, 0xff, 0xff, 0xff, 0x00,
   0x00, 0x00, 0xc0, 0xff, 0xff, 0x3f, 0x00, 0x80, 0xff, 0xff, 0x7f, 0x00,
   0x00, 0x00, 0x00, 0xfc, 0xff, 0x1f, 0x00, 0x00, 0xff, 0xff, 0x07, 0x00,
   0x00, 0x00, 0x00, 0xc0, 0xff, 0x0f, 0x00, 0x00, 0xfe, 0x7f, 0x00, 0x00,
   0x00, 0x00, 0x00, 0x00, 0xfc, 0x07, 0x00, 0x00, 0xfc, 0x07, 0x00, 0x00,
   0x00, 0x00, 0x00, 0x00, 0xc0, 0x03, 0x00, 0x00, 0x78, 0x00, 0x00, 0x00,
   0x00, 0x00, 0x00, 0x00, 0x00, 0x00, 0x00, 0x00, 0x00, 0x00, 0x00, 0x00};
