#define puzzle_a_w_f_width 88
#define puzzle_a_w_f_height 78
#define puzzle_a_w_f_x_hot 1
#define puzzle_a_w_f_y_hot 6
static unsigned char puzzle_a_w_f_bits[] = {
   0x00, 0x00, 0x00, 0x00, 0x00, 0x00, 0x00, 0x00, 0x00, 0x00, 0x00, 0x00,
   0x00, 0x3c, 0x00, 0x00, 0xc0, 0x03, 0x00, 0x00, 0x00, 0x00, 0x00, 0xc0,
   0x7f, 0x00, 0x00, 0xe0, 0x3f, 0x00, 0x00, 0x00, 0x00, 0x00, 0xfc, 0xff,
   0x00, 0x00, 0xf0, 0xff, 0x03, 0x00, 0x00, 0x00, 0xc0, 0xff, 0xff, 0x01,
   0x00, 0xf8, 0xff, 0x3f, 0x00, 0x00, 0x00, 0xfc, 0xff, 0xff, 0x03, 0x00,
   0xfc, 0xff, 0xff, 0x03, 0x00, 0x00, 0xfe, 0xff, 0xff, 0x07, 0x00, 0xfe,
   0xff, 0xff, 0x07, 0x00, 0x00, 0xfe, 0xff, 0xff, 0x07, 0x00, 0xfe, 0xff,
   0xff, 0x07, 0x00, 0x00, 0xfe, 0xff, 0xff, 0x07, 0x00, 0xfe, 0xff, 0xff,
   0x07, 0x00, 0x00, 0xfe, 0xff, 0xff, 0x07, 0x00, 0xfe, 0xff, 0xff, 0x07,
   0x00, 0x00, 0xfe, 0xff, 0xff, 0x07, 0x00, 0xfe, 0xff, 0xff, 0x03, 0x00,
   0x00, 0xfe, 0xff, 0xff, 0x03, 0x00, 0xfc, 0xff, 0xff, 0x03, 0x00, 0x00,
   0xfe, 0xff, 0xff, 0x03, 0x00, 0xfc, 0xff, 0xff, 0x03, 0x00, 0x00, 0xfe,
   0xff, 0xff, 0x01, 0x00, 0xf8, 0xff, 0xff, 0x03, 0x00, 0x00, 0xfe, 0xff,
   0xff, 0x01, 0x00, 0xf8, 0xff, 0xff, 0x01, 0x00, 0x00, 0xfe, 0xff, 0xff,
   0x01, 0x00, 0xf8, 0xff, 0xff, 0x01, 0x00, 0x00, 0xfe, 0xff, 0xff, 0x01,
   0x00, 0xf8, 0xff, 0xff, 0x01, 0x00, 0x00, 0xfe, 0xff, 0xff, 0x01, 0x00,
   0xf8, 0xff, 0xff, 0x01, 0x00, 0x00, 0xfe, 0xff, 0xff, 0x01, 0x00, 0xf8,
   0xff, 0xff, 0x00, 0x00, 0x00, 0xfe, 0xff, 0xff, 0x01, 0x00, 0xf8, 0xff,
   0xff, 0x00, 0x00, 0x00, 0xfe, 0xff, 0xff, 0x03, 0x00, 0xfc, 0xff, 0xff,
   0x00, 0x00, 0x00, 0xfe, 0xff, 0xff, 0x03, 0x00, 0xfc, 0xff, 0xff, 0x00,
   0x00, 0x00, 0xfe, 0xff, 0xff, 0x07, 0x00, 0xfe, 0xff, 0x7f, 0x00, 0x00,
   0x00, 0xfe, 0xff, 0xff, 0x0f, 0x00, 0xff, 0xff, 0x7f, 0x00, 0x00, 0x00,
   0xfe, 0xff, 0xff, 0x3f, 0xc0, 0xff, 0xff, 0x7f, 0x00, 0x00, 0x00, 0xfe,
   0xff, 0xff, 0xff, 0xf0, 0xff, 0xff, 0x7f, 0x00, 0x00, 0x00, 0xfe, 0xff,
   0xff, 0xff, 0xff, 0xff, 0xff, 0x7f, 0x00, 0x00, 0x00, 0xfe, 0xff, 0xff,
   0xff, 0xff, 0xff, 0xff, 0xff, 0x00, 0x00, 0x00, 0xfe, 0xff, 0xff, 0xff,
   0xff, 0xff, 0xff, 0xff, 0x01, 0x7e, 0x00, 0xfe, 0xff, 0xff, 0xff, 0xff,
   0xff, 0xff, 0xff, 0x83, 0xff, 0x03, 0xfe, 0xff, 0xff, 0xff, 0xff, 0xff,
   0xff, 0xff, 0xff, 0xff, 0x07, 0xfe, 0xff, 0xff, 0xff, 0xff, 0xff, 0xff,
   0xff, 0xff, 0xff, 0x0f, 0xfe, 0xff, 0xff, 0xff, 0xff, 0xff, 0xff, 0xff,
   0xff, 0xff, 0x1f, 0xfe, 0xff, 0xff, 0xff, 0xff, 0xff, 0xff, 0xff, 0xff,
   0xff, 0x3f, 0xfe, 0xff, 0xff, 0xff, 0xff, 0xff, 0xff, 0xff, 0xff, 0xff,
   0x3f, 0xfe, 0xff, 0xff, 0xff, 0xff, 0xff, 0xff, 0xff, 0xff, 0xff, 0x7f,
   0xfe, 0xff, 0xff, 0xff, 0xff, 0xff, 0xff, 0xff, 0xff, 0xff, 0x7f, 0xfe,
   0xff, 0xff, 0xff, 0xff, 0xff, 0xff, 0xff, 0xff, 0xff, 0x7f, 0xfe, 0xff,
   0xff, 0xff, 0xff, 0xff, 0xff, 0xff, 0xff, 0xff, 0x7f, 0xfe, 0xff, 0xff,
   0xff, 0xff, 0xff, 0xff, 0xff, 0xff, 0xff, 0x7f, 0xfe, 0xff, 0xff, 0xff,
   0xff, 0xff, 0xff, 0xff, 0xff, 0xff, 0x7f, 0xfe, 0xff, 0xff, 0xff, 0xff,
   0xff, 0xff, 0xff, 0xff, 0xff, 0x7f, 0xfe, 0xff, 0xff, 0xff, 0xff, 0xff,
   0xff, 0xff, 0xff, 0xff, 0x7f, 0xfe, 0xff, 0xff, 0xff, 0xff, 0xff, 0xff,
   0xff, 0xff, 0xff, 0x3f, 0xfe, 0xff, 0xff, 0xff, 0xff, 0xff, 0xff, 0xff,
   0xff, 0xff, 0x3f, 0xfe, 0xff, 0xff, 0xff, 0xff, 0xff, 0xff, 0xff, 0xff,
   0xff, 0x1f, 0xfe, 0xff, 0xff, 0xff, 0xff, 0xff, 0xff, 0xff, 0xff, 0xff,
   0x0f, 0xfe, 0xff, 0xff, 0xff, 0xff, 0xff, 0xff, 0xff, 0xff, 0xff, 0x07,
   0xfe, 0xff, 0xff, 0xff, 0xff, 0xff, 0xff, 0xff, 0x83, 0xff, 0x03, 0xfe,
   0xff, 0xff, 0xff, 0xff, 0xff, 0xff, 0xff, 0x01, 0xfe, 0x00, 0xfe, 0xff,
   0xff, 0xff, 0xff, 0xff, 0xff, 0xff, 0x00, 0x00, 0x00, 0xfe, 0xff, 0xff,
   0xff, 0xff, 0xff, 0xff, 0x7f, 0x00, 0x00, 0x00, 0xfe, 0xff, 0xff, 0xff,
   0xf0, 0xff, 0xff, 0x7f, 0x00, 0x00, 0x00, 0xfe, 0xff, 0xff, 0x3f, 0xc0,
   0xff, 0xff, 0x7f, 0x00, 0x00, 0x00, 0xfe, 0xff, 0xff, 0x0f, 0x00, 0xff,
   0xff, 0x7f, 0x00, 0x00, 0x00, 0xfe, 0xff, 0xff, 0x07, 0x00, 0xfe, 0xff,
   0x7f, 0x00, 0x00, 0x00, 0xfe, 0xff, 0xff, 0x03, 0x00, 0xfc, 0xff, 0xff,
   0x00, 0x00, 0x00, 0xfe, 0xff, 0xff, 0x03, 0x00, 0xfc, 0xff, 0xff, 0x00,
   0x00, 0x00, 0xfe, 0xff, 0xff, 0x01, 0x00, 0xf8, 0xff, 0xff, 0x00, 0x00,
   0x00, 0xfe, 0xff, 0xff, 0x01, 0x00, 0xf8, 0xff, 0xff, 0x00, 0x00, 0x00,
   0xfe, 0xff, 0xff, 0x01, 0x00, 0xf8, 0xff, 0xff, 0x01, 0x00, 0x00, 0xfe,
   0xff, 0xff, 0x01, 0x00, 0xf8, 0xff, 0xff, 0x01, 0x00, 0x00, 0xfe, 0xff,
   0xff, 0x01, 0x00, 0xf8, 0xff, 0xff, 0x01, 0x00, 0x00, 0xfe, 0xff, 0xff,
   0x01, 0x00, 0xf8, 0xff, 0xff, 0x01, 0x00, 0x00, 0xfe, 0xff, 0xff, 0x01,
   0x00, 0xf8, 0xff, 0xff, 0x03, 0x00, 0x00, 0xfe, 0xff, 0xff, 0x03, 0x00,
   0xfc, 0xff, 0xff, 0x03, 0x00, 0x00, 0xfe, 0xff, 0xff, 0x03, 0x00, 0xfc,
   0xff, 0xff, 0x03, 0x00, 0x00, 0xfe, 0xff, 0xff, 0x07, 0x00, 0xfe, 0xff,
   0xff, 0x03, 0x00, 0x00, 0xfe, 0xff, 0xff, 0x07, 0x00, 0xfe, 0xff, 0xff,
   0x07, 0x00, 0x00, 0xfe, 0xff, 0xff, 0x07, 0x00, 0xfe, 0xff, 0xff, 0x07,
   0x00, 0x00, 0xfe, 0xff, 0xff, 0x07, 0x00, 0xfe, 0xff, 0xff, 0x07, 0x00,
   0x00, 0xfe, 0xff, 0xff, 0x07, 0x00, 0xfe, 0xff, 0xff, 0x07, 0x00, 0x00,
   0xfc, 0xff, 0xff, 0x03, 0x00, 0xfc, 0xff, 0xff, 0x03, 0x00, 0x00, 0xc0,
   0xff, 0xff, 0x01, 0x00, 0xf8, 0xff, 0x3f, 0x00, 0x00, 0x00, 0x00, 0xfc,
   0xff, 0x00, 0x00, 0xf0, 0xff, 0x03, 0x00, 0x00, 0x00, 0x00, 0xc0, 0x7f,
   0x00, 0x00, 0xe0, 0x3f, 0x00, 0x00, 0x00, 0x00, 0x00, 0x00, 0x3c, 0x00,
   0x00, 0xc0, 0x03, 0x00, 0x00, 0x00, 0x00, 0x00, 0x00, 0x00, 0x00, 0x00,
   0x00, 0x00, 0x00, 0x00, 0x00, 0x00};
