 0
SECTION
 2
ENTITIES
  0
3DFACE
 8
axle
10
180.96357630756773
20
106.95687902348394
30
246.98357215579964
11
180.96357630756773
21
104.99428059828708
31
247.50944881889774
12
180.96357630756773
22
104.99428059828708
32
243.58425196850402
13
180.96357630756773
23
104.99428059828708
33
243.58425196850402
70
0
  0
3DFACE
 8
axle
10
180.96357630756773
20
101.59496041099145
30
245.54685039370088
11
-180.96357619368754
21
101.06908374789336
31
243.58425196850402
12
180.96357630756773
22
101.06908374789336
32
243.58425196850402
13
180.96357630756773
23
101.06908374789336
33
243.58425196850402
70
1
  0
3DFACE
 8
axle
10
-180.96357619368754
20
101.06908374789336
30
243.58425196850402
11
180.96357630756773
21
101.59496041099145
31
245.54685039370088
12
-180.96357619368754
22
101.59496041099145
32
245.54685039370088
13
-180.96357619368754
23
101.59496041099145
33
245.54685039370088
70
1
  0
3DFACE
 8
axle
10
180.96357630756773
20
101.59496041099145
30
245.54685039370088
11
-180.96357619368754
21
103.03168217309022
31
246.98357215579964
12
-180.96357619368754
22
101.59496041099145
32
245.54685039370088
13
-180.96357619368754
23
101.59496041099145
33
245.54685039370088
70
1
  0
3DFACE
 8
axle
10
-180.96357619368754
20
103.03168217309022
30
246.98357215579964
11
180.96357630756773
21
101.59496041099145
31
245.54685039370088
12
180.96357630756773
22
103.03168217309022
32
246.98357215579964
13
180.96357630756773
23
103.03168217309022
33
246.98357215579964
70
1
  0
3DFACE
 8
axle
10
180.96357630756773
20
103.03168217309022
30
246.98357215579964
11
-180.96357619368754
21
104.99428059828708
31
247.50944881889774
12
-180.96357619368754
22
103.03168217309022
32
246.98357215579964
13
-180.96357619368754
23
103.03168217309022
33
246.98357215579964
70
1
  0
3DFACE
 8
axle
10
-180.96357619368754
20
104.99428059828708
30
247.50944881889774
11
180.96357630756773
21
103.03168217309022
31
246.98357215579964
12
180.96357630756773
22
104.99428059828708
32
247.50944881889774
13
180.96357630756773
23
104.99428059828708
33
247.50944881889774
70
1
  0
3DFACE
 8
axle
10
180.96357630756773
20
108.3936007855827
30
241.62165354330716
11
-180.96357619368754
21
106.95687902348394
31
240.1849317812084
12
-180.96357619368754
22
108.3936007855827
32
241.62165354330716
13
-180.96357619368754
23
108.3936007855827
33
241.62165354330716
70
1
  0
3DFACE
 8
axle
10
-180.96357619368754
20
106.95687902348394
30
240.1849317812084
11
180.96357630756773
21
108.3936007855827
31
241.62165354330716
12
180.96357630756773
22
106.95687902348394
32
240.1849317812084
13
180.96357630756773
23
106.95687902348394
33
240.1849317812084
70
1
  0
3DFACE
 8
axle
10
180.96357630756773
20
104.99428059828708
30
247.50944881889774
11
-180.96357619368754
21
106.95687902348394
31
246.98357215579964
12
-180.96357619368754
22
104.99428059828708
32
247.50944881889774
13
-180.96357619368754
23
104.99428059828708
33
247.50944881889774
70
1
  0
3DFACE
 8
axle
10
-180.96357619368754
20
106.95687902348394
30
246.98357215579964
11
180.96357630756773
21
104.99428059828708
31
247.50944881889774
12
180.96357630756773
22
106.95687902348394
32
246.98357215579964
13
180.96357630756773
23
106.95687902348394
33
246.98357215579964
70
1
  0
3DFACE
 8
axle
10
-180.96357619368754
20
108.9194774486808
30
243.58425196850402
11
180.96357630756773
21
108.3936007855827
31
241.62165354330716
12
-180.96357619368754
22
108.3936007855827
32
241.62165354330716
13
-180.96357619368754
23
108.3936007855827
33
241.62165354330716
70
1
  0
3DFACE
 8
axle
10
180.96357630756773
20
108.3936007855827
30
241.62165354330716
11
-180.96357619368754
21
108.9194774486808
31
243.58425196850402
12
180.96357630756773
22
108.9194774486808
32
243.58425196850402
13
180.96357630756773
23
108.9194774486808
33
243.58425196850402
70
1
  0
3DFACE
 8
axle
10
180.96357630756773
20
106.95687902348394
30
246.98357215579964
11
-180.96357619368754
21
108.3936007855827
31
245.54685039370088
12
-180.96357619368754
22
106.95687902348394
32
246.98357215579964
13
-180.96357619368754
23
106.95687902348394
33
246.98357215579964
70
1
  0
3DFACE
 8
axle
10
-180.96357619368754
20
108.3936007855827
30
245.54685039370088
11
180.96357630756773
21
106.95687902348394
31
246.98357215579964
12
180.96357630756773
22
108.3936007855827
32
245.54685039370088
13
180.96357630756773
23
108.3936007855827
33
245.54685039370088
70
1
  0
3DFACE
 8
axle
10
-180.96357619368754
20
108.3936007855827
30
245.54685039370088
11
180.96357630756773
21
108.9194774486808
31
243.58425196850402
12
-180.96357619368754
22
108.9194774486808
32
243.58425196850402
13
-180.96357619368754
23
108.9194774486808
33
243.58425196850402
70
1
  0
3DFACE
 8
axle
10
180.96357630756773
20
108.9194774486808
30
243.58425196850402
11
-180.96357619368754
21
108.3936007855827
31
245.54685039370088
12
180.96357630756773
22
108.3936007855827
32
245.54685039370088
13
180.96357630756773
23
108.3936007855827
33
245.54685039370088
70
1
  0
3DFACE
 8
axle
10
180.96357630756773
20
106.95687902348394
30
240.1849317812084
11
-180.96357619368754
21
104.99428059828708
31
239.6590551181103
12
-180.96357619368754
22
106.95687902348394
32
240.1849317812084
13
-180.96357619368754
23
106.95687902348394
33
240.1849317812084
70
1
  0
3DFACE
 8
axle
10
-180.96357619368754
20
104.99428059828708
30
239.6590551181103
11
180.96357630756773
21
106.95687902348394
31
240.1849317812084
12
180.96357630756773
22
104.99428059828708
32
239.6590551181103
13
180.96357630756773
23
104.99428059828708
33
239.6590551181103
70
1
  0
3DFACE
 8
axle
10
180.96357630756773
20
104.99428059828708
30
239.6590551181103
11
-180.96357619368754
21
103.03168217309022
31
240.1849317812084
12
-180.96357619368754
22
104.99428059828708
32
239.6590551181103
13
-180.96357619368754
23
104.99428059828708
33
239.6590551181103
70
1
  0
3DFACE
 8
axle
10
-180.96357619368754
20
103.03168217309022
30
240.1849317812084
11
180.96357630756773
21
104.99428059828708
31
239.6590551181103
12
180.96357630756773
22
103.03168217309022
32
240.1849317812084
13
180.96357630756773
23
103.03168217309022
33
240.1849317812084
70
1
  0
3DFACE
 8
axle
10
180.96357630756773
20
103.03168217309022
30
240.1849317812084
11
-180.96357619368754
21
101.59496041099145
31
241.62165354330716
12
-180.96357619368754
22
103.03168217309022
32
240.1849317812084
13
-180.96357619368754
23
103.03168217309022
33
240.1849317812084
70
1
  0
3DFACE
 8
axle
10
-180.96357619368754
20
101.59496041099145
30
241.62165354330716
11
180.96357630756773
21
103.03168217309022
31
240.1849317812084
12
180.96357630756773
22
101.59496041099145
32
241.62165354330716
13
180.96357630756773
23
101.59496041099145
33
241.62165354330716
70
1
  0
3DFACE
 8
axle
10
180.96357630756773
20
101.06908374789336
30
243.58425196850402
11
-180.96357619368754
21
101.59496041099145
31
241.62165354330716
12
180.96357630756773
22
101.59496041099145
32
241.62165354330716
13
180.96357630756773
23
101.59496041099145
33
241.62165354330716
70
1
  0
3DFACE
 8
axle
10
-180.96357619368754
20
101.59496041099145
30
241.62165354330716
11
180.96357630756773
21
101.06908374789336
31
243.58425196850402
12
-180.96357619368754
22
101.06908374789336
32
243.58425196850402
13
-180.96357619368754
23
101.06908374789336
33
243.58425196850402
70
1
  0
3DFACE
 8
axle
10
-180.96357619368754
20
104.99428059828708
30
243.58425196850402
11
-180.96357619368754
21
103.03168217309022
31
246.98357215579964
12
-180.96357619368754
22
104.99428059828708
32
247.50944881889774
13
-180.96357619368754
23
104.99428059828708
33
247.50944881889774
70
0
  0
3DFACE
 8
axle
10
180.96357630756773
20
108.9194774486808
30
243.58425196850402
11
180.96357630756773
21
104.99428059828708
31
243.58425196850402
12
180.96357630756773
22
108.3936007855827
32
241.62165354330716
13
180.96357630756773
23
108.3936007855827
33
241.62165354330716
70
0
  0
3DFACE
 8
axle
10
180.96357630756773
20
104.99428059828708
30
243.58425196850402
11
180.96357630756773
21
101.59496041099145
31
241.62165354330716
12
180.96357630756773
22
103.03168217309022
32
240.1849317812084
13
180.96357630756773
23
103.03168217309022
33
240.1849317812084
70
0
  0
3DFACE
 8
axle
10
180.96357630756773
20
104.99428059828708
30
247.50944881889774
11
180.96357630756773
21
103.03168217309022
31
246.98357215579964
12
180.96357630756773
22
104.99428059828708
32
243.58425196850402
13
180.96357630756773
23
104.99428059828708
33
243.58425196850402
70
0
  0
3DFACE
 8
axle
10
180.96357630756773
20
108.9194774486808
30
243.58425196850402
11
180.96357630756773
21
108.3936007855827
31
245.54685039370088
12
180.96357630756773
22
104.99428059828708
32
243.58425196850402
13
180.96357630756773
23
104.99428059828708
33
243.58425196850402
70
0
  0
3DFACE
 8
axle
10
180.96357630756773
20
104.99428059828708
30
243.58425196850402
11
180.96357630756773
21
103.03168217309022
31
240.1849317812084
12
180.96357630756773
22
104.99428059828708
32
239.6590551181103
13
180.96357630756773
23
104.99428059828708
33
239.6590551181103
70
0
  0
3DFACE
 8
axle
10
180.96357630756773
20
108.3936007855827
30
245.54685039370088
11
180.96357630756773
21
106.95687902348394
31
246.98357215579964
12
180.96357630756773
22
104.99428059828708
32
243.58425196850402
13
180.96357630756773
23
104.99428059828708
33
243.58425196850402
70
0
  0
3DFACE
 8
axle
10
180.96357630756773
20
104.99428059828708
30
243.58425196850402
11
180.96357630756773
21
101.06908374789336
31
243.58425196850402
12
180.96357630756773
22
101.59496041099145
32
241.62165354330716
13
180.96357630756773
23
101.59496041099145
33
241.62165354330716
70
0
  0
3DFACE
 8
axle
10
180.96357630756773
20
106.95687902348394
30
240.1849317812084
11
180.96357630756773
21
104.99428059828708
31
243.58425196850402
12
180.96357630756773
22
104.99428059828708
32
239.6590551181103
13
180.96357630756773
23
104.99428059828708
33
239.6590551181103
70
0
  0
3DFACE
 8
axle
10
180.96357630756773
20
104.99428059828708
30
243.58425196850402
11
180.96357630756773
21
103.03168217309022
31
246.98357215579964
12
180.96357630756773
22
101.59496041099145
32
245.54685039370088
13
180.96357630756773
23
101.59496041099145
33
245.54685039370088
70
0
  0
3DFACE
 8
axle
10
180.96357630756773
20
104.99428059828708
30
243.58425196850402
11
180.96357630756773
21
101.59496041099145
31
245.54685039370088
12
180.96357630756773
22
101.06908374789336
32
243.58425196850402
13
180.96357630756773
23
101.06908374789336
33
243.58425196850402
70
0
  0
3DFACE
 8
axle
10
180.96357630756773
20
108.3936007855827
30
241.62165354330716
11
180.96357630756773
21
104.99428059828708
31
243.58425196850402
12
180.96357630756773
22
106.95687902348394
32
240.1849317812084
13
180.96357630756773
23
106.95687902348394
33
240.1849317812084
70
0
  0
3DFACE
 8
axle
10
-180.96357619368754
20
108.3936007855827
30
241.62165354330716
11
-180.96357619368754
21
106.95687902348394
31
240.1849317812084
12
-180.96357619368754
22
104.99428059828708
32
243.58425196850402
13
-180.96357619368754
23
104.99428059828708
33
243.58425196850402
70
0
  0
3DFACE
 8
axle
10
180.96357630756773
20
104.99428059828708
30
243.58425196850402
11
-180.96357619368754
21
104.99428059828708
31
239.6590551181103
12
180.96357630756773
22
104.99428059828708
32
239.6590551181103
13
180.96357630756773
23
104.99428059828708
33
239.6590551181103
70
1
  0
3DFACE
 8
axle
10
-180.96357619368754
20
104.99428059828708
30
239.6590551181103
11
180.96357630756773
21
104.99428059828708
31
243.58425196850402
12
-180.96357619368754
22
104.99428059828708
32
243.58425196850402
13
-180.96357619368754
23
104.99428059828708
33
243.58425196850402
70
3
  0
3DFACE
 8
axle
10
-180.96357619368754
20
104.99428059828708
30
243.58425196850402
11
180.96357630756773
21
104.99428059828708
31
243.58425196850402
12
180.96357630756773
22
104.99428059828708
32
247.50944881889774
13
180.96357630756773
23
104.99428059828708
33
247.50944881889774
70
13
  0
3DFACE
 8
axle
10
-180.96357619368754
20
104.99428059828708
30
243.58425196850402
11
180.96357630756773
21
104.99428059828708
31
247.50944881889774
12
-180.96357619368754
22
104.99428059828708
32
247.50944881889774
13
-180.96357619368754
23
104.99428059828708
33
247.50944881889774
70
1
  0
3DFACE
 8
axle
10
-180.96357619368754
20
104.99428059828708
30
243.58425196850402
11
-180.96357619368754
21
101.06908374789336
31
243.58425196850402
12
-180.96357619368754
22
101.59496041099145
32
245.54685039370088
13
-180.96357619368754
23
101.59496041099145
33
245.54685039370088
70
0
  0
3DFACE
 8
axle
10
-180.96357619368754
20
106.95687902348394
30
240.1849317812084
11
-180.96357619368754
21
104.99428059828708
31
239.6590551181103
12
-180.96357619368754
22
104.99428059828708
32
243.58425196850402
13
-180.96357619368754
23
104.99428059828708
33
243.58425196850402
70
0
  0
3DFACE
 8
axle
10
-180.96357619368754
20
104.99428059828708
30
243.58425196850402
11
180.96357630756773
21
106.95687902348394
31
240.1849317812084
12
-180.96357619368754
22
106.95687902348394
32
240.1849317812084
13
-180.96357619368754
23
106.95687902348394
33
240.1849317812084
70
1
  0
3DFACE
 8
axle
10
180.96357630756773
20
106.95687902348394
30
240.1849317812084
11
-180.96357619368754
21
104.99428059828708
31
243.58425196850402
12
180.96357630756773
22
104.99428059828708
32
243.58425196850402
13
180.96357630756773
23
104.99428059828708
33
243.58425196850402
70
3
  0
3DFACE
 8
axle
10
180.96357630756773
20
104.99428059828708
30
243.58425196850402
11
-180.96357619368754
21
104.99428059828708
31
243.58425196850402
12
-180.96357619368754
22
103.03168217309022
32
246.98357215579964
13
-180.96357619368754
23
103.03168217309022
33
246.98357215579964
70
13
  0
3DFACE
 8
axle
10
180.96357630756773
20
104.99428059828708
30
243.58425196850402
11
-180.96357619368754
21
103.03168217309022
31
246.98357215579964
12
180.96357630756773
22
103.03168217309022
32
246.98357215579964
13
180.96357630756773
23
103.03168217309022
33
246.98357215579964
70
1
  0
3DFACE
 8
axle
10
-180.96357619368754
20
106.95687902348394
30
246.98357215579964
11
-180.96357619368754
21
104.99428059828708
31
243.58425196850402
12
-180.96357619368754
22
104.99428059828708
32
247.50944881889774
13
-180.96357619368754
23
104.99428059828708
33
247.50944881889774
70
0
  0
3DFACE
 8
axle
10
-180.96357619368754
20
104.99428059828708
30
243.58425196850402
11
-180.96357619368754
21
101.59496041099145
31
245.54685039370088
12
-180.96357619368754
22
103.03168217309022
32
246.98357215579964
13
-180.96357619368754
23
103.03168217309022
33
246.98357215579964
70
0
  0
3DFACE
 8
axle
10
180.96357630756773
20
108.3936007855827
30
241.62165354330716
11
-180.96357619368754
21
104.99428059828708
31
243.58425196850402
12
-180.96357619368754
22
108.3936007855827
32
241.62165354330716
13
-180.96357619368754
23
108.3936007855827
33
241.62165354330716
70
1
  0
3DFACE
 8
axle
10
-180.96357619368754
20
104.99428059828708
30
243.58425196850402
11
180.96357630756773
21
108.3936007855827
31
241.62165354330716
12
-180.96357619368754
22
101.59496041099145
32
245.54685039370088
13
-180.96357619368754
23
101.59496041099145
33
245.54685039370088
70
3
  0
3DFACE
 8
axle
10
-180.96357619368754
20
101.59496041099145
30
245.54685039370088
11
180.96357630756773
21
108.3936007855827
31
241.62165354330716
12
180.96357630756773
22
101.59496041099145
32
245.54685039370088
13
180.96357630756773
23
101.59496041099145
33
245.54685039370088
70
3
  0
3DFACE
 8
axle
10
180.96357630756773
20
101.59496041099145
30
245.54685039370088
11
180.96357630756773
21
108.3936007855827
31
241.62165354330716
12
180.96357630756773
22
104.99428059828708
32
243.58425196850402
13
180.96357630756773
23
104.99428059828708
33
243.58425196850402
70
1
  0
3DFACE
 8
axle
10
-180.96357619368754
20
104.99428059828708
30
243.58425196850402
11
-180.96357619368754
21
101.59496041099145
31
241.62165354330716
12
-180.96357619368754
22
101.06908374789336
32
243.58425196850402
13
-180.96357619368754
23
101.06908374789336
33
243.58425196850402
70
0
  0
3DFACE
 8
axle
10
-180.96357619368754
20
108.9194774486808
30
243.58425196850402
11
-180.96357619368754
21
108.3936007855827
31
241.62165354330716
12
-180.96357619368754
22
104.99428059828708
32
243.58425196850402
13
-180.96357619368754
23
104.99428059828708
33
243.58425196850402
70
0
  0
3DFACE
 8
axle
10
180.96357630756773
20
101.06908374789336
30
243.58425196850402
11
-180.96357619368754
21
104.99428059828708
31
243.58425196850402
12
-180.96357619368754
22
101.06908374789336
32
243.58425196850402
13
-180.96357619368754
23
101.06908374789336
33
243.58425196850402
70
1
  0
3DFACE
 8
axle
10
-180.96357619368754
20
104.99428059828708
30
243.58425196850402
11
180.96357630756773
21
101.06908374789336
31
243.58425196850402
12
-180.96357619368754
22
108.9194774486808
32
243.58425196850402
13
-180.96357619368754
23
108.9194774486808
33
243.58425196850402
70
3
  0
3DFACE
 8
axle
10
-180.96357619368754
20
108.9194774486808
30
243.58425196850402
11
180.96357630756773
21
101.06908374789336
31
243.58425196850402
12
180.96357630756773
22
108.9194774486808
32
243.58425196850402
13
180.96357630756773
23
108.9194774486808
33
243.58425196850402
70
3
  0
3DFACE
 8
axle
10
180.96357630756773
20
108.9194774486808
30
243.58425196850402
11
180.96357630756773
21
101.06908374789336
31
243.58425196850402
12
180.96357630756773
22
104.99428059828708
32
243.58425196850402
13
180.96357630756773
23
104.99428059828708
33
243.58425196850402
70
1
  0
3DFACE
 8
axle
10
-180.96357619368754
20
108.3936007855827
30
245.54685039370088
11
-180.96357619368754
21
104.99428059828708
31
243.58425196850402
12
-180.96357619368754
22
106.95687902348394
32
246.98357215579964
13
-180.96357619368754
23
106.95687902348394
33
246.98357215579964
70
0
  0
3DFACE
 8
axle
10
-180.96357619368754
20
104.99428059828708
30
239.6590551181103
11
-180.96357619368754
21
103.03168217309022
31
240.1849317812084
12
-180.96357619368754
22
104.99428059828708
32
243.58425196850402
13
-180.96357619368754
23
104.99428059828708
33
243.58425196850402
70
0
  0
3DFACE
 8
axle
10
180.96357630756773
20
104.99428059828708
30
243.58425196850402
11
-180.96357619368754
21
103.03168217309022
31
240.1849317812084
12
180.96357630756773
22
103.03168217309022
32
240.1849317812084
13
180.96357630756773
23
103.03168217309022
33
240.1849317812084
70
1
  0
3DFACE
 8
axle
10
-180.96357619368754
20
103.03168217309022
30
240.1849317812084
11
180.96357630756773
21
104.99428059828708
31
243.58425196850402
12
-180.96357619368754
22
104.99428059828708
32
243.58425196850402
13
-180.96357619368754
23
104.99428059828708
33
243.58425196850402
70
3
  0
3DFACE
 8
axle
10
-180.96357619368754
20
104.99428059828708
30
243.58425196850402
11
180.96357630756773
21
104.99428059828708
31
243.58425196850402
12
180.96357630756773
22
106.95687902348394
32
246.98357215579964
13
180.96357630756773
23
106.95687902348394
33
246.98357215579964
70
13
  0
3DFACE
 8
axle
10
-180.96357619368754
20
104.99428059828708
30
243.58425196850402
11
180.96357630756773
21
106.95687902348394
31
246.98357215579964
12
-180.96357619368754
22
106.95687902348394
32
246.98357215579964
13
-180.96357619368754
23
106.95687902348394
33
246.98357215579964
70
1
  0
3DFACE
 8
axle
10
-180.96357619368754
20
104.99428059828708
30
243.58425196850402
11
-180.96357619368754
21
103.03168217309022
31
240.1849317812084
12
-180.96357619368754
22
101.59496041099145
32
241.62165354330716
13
-180.96357619368754
23
101.59496041099145
33
241.62165354330716
70
0
  0
3DFACE
 8
axle
10
-180.96357619368754
20
108.9194774486808
30
243.58425196850402
11
-180.96357619368754
21
104.99428059828708
31
243.58425196850402
12
-180.96357619368754
22
108.3936007855827
32
245.54685039370088
13
-180.96357619368754
23
108.3936007855827
33
245.54685039370088
70
0
  0
3DFACE
 8
axle
10
180.96357630756773
20
108.3936007855827
30
245.54685039370088
11
-180.96357619368754
21
104.99428059828708
31
243.58425196850402
12
-180.96357619368754
22
108.3936007855827
32
245.54685039370088
13
-180.96357619368754
23
108.3936007855827
33
245.54685039370088
70
1
  0
3DFACE
 8
axle
10
-180.96357619368754
20
104.99428059828708
30
243.58425196850402
11
180.96357630756773
21
108.3936007855827
31
245.54685039370088
12
-180.96357619368754
22
101.59496041099145
32
241.62165354330716
13
-180.96357619368754
23
101.59496041099145
33
241.62165354330716
70
3
  0
3DFACE
 8
axle
10
-180.96357619368754
20
101.59496041099145
30
241.62165354330716
11
180.96357630756773
21
108.3936007855827
31
245.54685039370088
12
180.96357630756773
22
101.59496041099145
32
241.62165354330716
13
180.96357630756773
23
101.59496041099145
33
241.62165354330716
70
3
  0
3DFACE
 8
axle
10
180.96357630756773
20
101.59496041099145
30
241.62165354330716
11
180.96357630756773
21
108.3936007855827
31
245.54685039370088
12
180.96357630756773
22
104.99428059828708
32
243.58425196850402
13
180.96357630756773
23
104.99428059828708
33
243.58425196850402
70
1
  0
LINE
 8
frame_half
10
192.98247766291428
20
-18.731889129101205
30
151.6787401574804
11
192.9824776628326
21
-18.729150113199566
31
151.6790750703387
  0
LINE
 8
frame_half
10
174.56515482826853
20
-18.73188967799561
30
151.6787401574804
11
174.56515482818696
21
-18.72915066209397
31
151.6790750703387
  0
3DFACE
 8
frame_half
10
171.68680488186044
20
98.36023622047261
30
0.3216681102362128
11
5.115907697472721e-13
21
-98.36024133728131
31
0.32163719118833317
12
5.115907697472721e-13
22
98.36023110366378
32
0.321666641223282
13
5.115907697472721e-13
23
98.36023110366378
33
0.321666641223282
70
1
  0
3DFACE
 8
frame_half
10
5.115907697472721e-13
20
-98.36024133728131
30
0.32163719118833317
11
171.68680488186044
21
98.36023622047261
31
0.3216681102362128
12
171.68681074475182
22
-98.36023622047243
32
0.32163976377951986
13
171.68681074475182
23
-98.36023622047243
33
0.32163976377951986
70
1
  0
3DFACE
 8
frame_half
10
5.115907697472721e-13
20
109.82597913515951
30
227.14655023375423
11
180.96357619368825
21
109.82598452844579
31
227.1425196850395
12
175.47334585487522
22
109.82598436481948
32
227.1425196820503
13
175.47334585487522
23
109.82598436481948
33
227.1425196820503
70
1
  0
3DFACE
 8
frame_half
10
180.96357619368825
20
109.82598452844579
30
227.1425196850395
11
5.115907697472721e-13
21
109.82597913515951
31
227.14655023375423
12
180.96357619368825
22
109.82598452844579
32
236.60039370078752
13
180.96357619368825
23
109.82598452844579
33
236.60039370078752
70
3
  0
3DFACE
 8
frame_half
10
180.96357619368825
20
109.82598452844579
30
236.60039370078752
11
5.115907697472721e-13
21
109.82597913515951
31
227.14655023375423
12
5.115907697472721e-13
22
109.82597913515954
32
236.60039370078752
13
5.115907697472721e-13
23
109.82597913515954
33
236.60039370078752
70
13
  0
3DFACE
 8
frame_half
10
180.96357619368825
20
109.82598452844579
30
236.60039370078752
11
5.115907697472721e-13
21
109.82597913515954
31
236.60039370078752
12
171.68680454014486
22
109.82598425196863
32
236.60039370078752
13
171.68680454014486
23
109.82598425196863
33
236.60039370078752
70
1
  0
3DFACE
 8
frame_half
10
171.68681074475182
20
-98.36023622047243
30
0.32163976377951986
11
164.33029144123975
21
-98.36023643971993
31
7.678158957059996
12
7.356519303512613
22
-98.36024111803383
32
7.678156604932067
13
7.356519303512613
23
-98.36024111803383
33
7.678156604932067
70
13
  0
3DFACE
 8
frame_half
10
164.33029144123975
20
-98.36023643971993
30
7.678158957059996
11
171.68681074475182
21
-98.36023622047243
31
0.32163976377951986
12
171.68681074475182
22
-98.36023622047243
32
176.06259842519694
13
171.68681074475182
23
-98.36023622047243
33
176.06259842519694
70
13
  0
3DFACE
 8
frame_half
10
164.33029144123975
20
-98.36023643971993
30
7.678158957059996
11
171.68681074475182
21
-98.36023622047243
31
176.06259842519694
12
164.33029144123975
22
-98.36023643971994
32
168.7061612498017
13
164.33029144123975
23
-98.36023643971994
33
168.7061612498017
70
3
  0
3DFACE
 8
frame_half
10
164.33029144123975
20
-98.36023643971994
30
168.7061612498017
11
171.68681074475182
21
-98.36023622047243
31
176.06259842519694
12
7.356519303512613
22
-98.36024111803414
32
168.7079137133973
13
7.356519303512613
23
-98.36024111803414
33
168.7079137133973
70
3
  0
3DFACE
 8
frame_half
10
5.115907697472721e-13
20
-98.36024133728131
30
0.32163719118833317
11
7.356519303512613
21
-98.36024111803383
31
7.678156604932067
12
5.115907697472721e-13
22
-98.36024133728166
32
176.06451514594315
13
5.115907697472721e-13
23
-98.36024133728166
33
176.06451514594315
70
3
  0
3DFACE
 8
frame_half
10
7.356519303512613
20
-98.36024111803383
30
7.678156604932067
11
5.115907697472721e-13
21
-98.36024133728131
31
0.32163719118833317
12
171.68681074475182
22
-98.36023622047243
32
0.32163976377951986
13
171.68681074475182
23
-98.36023622047243
33
0.32163976377951986
70
13
  0
3DFACE
 8
frame_half
10
5.115907697472721e-13
20
-98.36024133728166
30
176.06451514594315
11
7.356519303512613
21
-98.36024111803383
31
7.678156604932067
12
7.356519303512613
22
-98.36024111803414
32
168.7079137133973
13
7.356519303512613
23
-98.36024111803414
33
168.7079137133973
70
13
  0
3DFACE
 8
frame_half
10
5.115907697472721e-13
20
-98.36024133728166
30
176.06451514594315
11
7.356519303512613
21
-98.36024111803414
31
168.7079137133973
12
171.68681074475182
22
-98.36023622047243
32
176.06259842519694
13
171.68681074475182
23
-98.36023622047243
33
176.06259842519694
70
3
  0
3DFACE
 8
frame_half
10
5.115907697472721e-13
20
98.36023110366378
30
0.321666641223282
11
7.356519303512613
21
98.36023132291126
31
7.678186007680364
12
171.68680488186044
22
98.36023622047261
32
0.3216681102362128
13
171.68680488186044
23
98.36023622047261
33
0.3216681102362128
70
3
  0
3DFACE
 8
frame_half
10
7.356519303512613
20
98.36023132291126
30
7.678186007680364
11
5.115907697472721e-13
21
98.36023110366378
31
0.321666641223282
12
5.115907697472721e-13
22
98.36023110366338
32
227.1465447984691
13
5.115907697472721e-13
23
98.36023110366338
33
227.1465447984691
70
13
  0
3DFACE
 8
frame_half
10
7.356519303512613
20
98.36023132291126
30
7.678186007680364
11
5.115907697472721e-13
21
98.36023110366338
31
227.1465447984691
12
7.356519303512613
22
98.36023132291092
32
219.78985302292708
13
7.356519303512613
23
98.36023132291092
33
219.78985302292708
70
3
  0
3DFACE
 8
frame_half
10
7.356519303512613
20
98.36023132291092
30
219.78985302292708
11
5.115907697472721e-13
21
98.36023110366338
31
227.1465447984691
12
171.68680488186044
22
98.36023622047261
32
227.1425196850395
13
171.68680488186044
23
98.36023622047261
33
227.1425196850395
70
13
  0
3DFACE
 8
frame_half
10
171.68680488186044
20
98.36023622047261
30
0.3216681102362128
11
164.33028557834837
21
98.3602360012251
31
7.6781873508033405
12
171.68680488186044
22
98.36023622047261
32
227.1425196850395
13
171.68680488186044
23
98.36023622047261
33
227.1425196850395
70
3
  0
3DFACE
 8
frame_half
10
164.33028557834837
20
98.3602360012251
30
7.6781873508033405
11
171.68680488186044
21
98.36023622047261
31
0.3216681102362128
12
7.356519303512613
22
98.36023132291126
32
7.678186007680364
13
7.356519303512613
23
98.36023132291126
33
7.678186007680364
70
3
  0
3DFACE
 8
frame_half
10
171.68680488186044
20
98.36023622047261
30
227.1425196850395
11
164.33028557834837
21
98.3602360012251
31
7.6781873508033405
12
164.33028557834837
22
98.3602360012251
32
219.78617284951383
13
164.33028557834837
23
98.3602360012251
33
219.78617284951383
70
13
  0
3DFACE
 8
frame_half
10
171.68680488186044
20
98.36023622047261
30
227.1425196850395
11
164.33028557834837
21
98.3602360012251
31
219.78617284951383
12
7.356519303512613
22
98.36023132291092
32
219.78985302292708
13
7.356519303512613
23
98.36023132291092
33
219.78985302292708
70
13
  0
3DFACE
 8
frame_half
10
180.96358267716596
20
-107.71732255816846
30
189.86102362204736
11
175.47286961786034
21
-107.717322721809
31
176.06259842899448
12
180.96358267716596
22
-107.71732255816846
32
176.06259842519694
13
180.96358267716596
23
-107.71732255816846
33
176.06259842519694
70
1
  0
3DFACE
 8
frame_half
10
175.47286961786034
20
-107.717322721809
30
176.06259842899448
11
180.96358267716596
21
-107.71732255816846
31
189.86102362204736
12
5.115907697472721e-13
22
-107.71732795145476
32
176.06451773417749
13
5.115907697472721e-13
23
-107.71732795145476
33
176.06451773417749
70
3
  0
3DFACE
 8
frame_half
10
5.115907697472721e-13
20
-107.71732795145476
30
176.06451773417749
11
180.96358267716596
21
-107.71732255816846
31
189.86102362204736
12
5.115907697472721e-13
22
-107.71732795145476
32
189.86102362204736
13
5.115907697472721e-13
23
-107.71732795145476
33
189.86102362204736
70
1
  0
3DFACE
 8
frame_half
10
180.96358267716596
20
-107.71732255816846
30
189.86102362204736
11
5.115907697472721e-13
21
-84.34409960499816
31
189.86102362204736
12
5.115907697472721e-13
22
-107.71732795145476
32
189.86102362204736
13
5.115907697472721e-13
23
-107.71732795145476
33
189.86102362204736
70
1
  0
3DFACE
 8
frame_half
10
5.115907697472721e-13
20
-84.34409960499816
30
189.86102362204736
11
180.96358267716596
21
-107.71732255816846
31
189.86102362204736
12
162.47775520891634
22
-84.34409476264783
32
189.86102362204736
13
162.47775520891634
23
-84.34409476264783
33
189.86102362204736
70
3
  0
3DFACE
 8
frame_half
10
162.47775520891634
20
-84.34409476264783
30
189.86102362204736
11
180.96358267716596
21
-107.71732255816846
31
189.86102362204736
12
180.96358198056998
22
-84.34409421171179
32
189.86102362204736
13
180.96358198056998
23
-84.34409421171179
33
189.86102362204736
70
1
  0
3DFACE
 8
frame_half
10
162.47775005936467
20
88.4413383082184
30
236.60039370078752
11
5.115907697472721e-13
21
109.82597913515954
31
236.60039370078752
12
5.115907697472721e-13
22
88.44133346586824
32
236.60039370078752
13
5.115907697472721e-13
23
88.44133346586824
33
236.60039370078752
70
1
  0
3DFACE
 8
frame_half
10
5.115907697472721e-13
20
109.82597913515954
30
236.60039370078752
11
162.47775005936467
21
88.4413383082184
31
236.60039370078752
12
171.68680454014486
22
109.82598425196863
32
236.60039370078752
13
171.68680454014486
23
109.82598425196863
33
236.60039370078752
70
3
  0
3DFACE
 8
frame_half
10
171.68680454014486
20
109.82598425196863
30
236.60039370078752
11
162.47775005936467
21
88.4413383082184
31
236.60039370078752
12
180.96357683101826
22
88.44133885915446
32
236.60039370078752
13
180.96357683101826
23
88.44133885915446
33
236.60039370078752
70
13
  0
3DFACE
 8
frame_half
10
171.68680454014486
20
109.82598425196863
30
236.60039370078752
11
180.96357683101826
21
88.44133885915446
31
236.60039370078752
12
180.96357619368825
22
109.82598452844579
32
236.60039370078752
13
180.96357619368825
23
109.82598452844579
33
236.60039370078752
70
1
  0
3DFACE
 8
frame_half
10
162.47775520891634
20
-84.34409476264783
30
189.86102362204736
11
180.96357683101826
21
88.44133885915446
31
236.60039370078752
12
162.47775005936467
22
88.4413383082184
32
236.60039370078752
13
162.47775005936467
23
88.4413383082184
33
236.60039370078752
70
1
  0
3DFACE
 8
frame_half
10
180.96357683101826
20
88.44133885915446
30
236.60039370078752
11
162.47775520891634
21
-84.34409476264783
31
189.86102362204736
12
180.96358198056998
22
-84.34409421171179
32
189.86102362204736
13
180.96358198056998
23
-84.34409421171179
33
189.86102362204736
70
1
  0
3DFACE
 8
frame_half
10
171.68681074475182
20
-98.36023622047243
30
176.06259842519694
11
5.115907697472721e-13
21
-107.71732795145476
31
176.06451773417749
12
5.115907697472721e-13
22
-98.36024133728166
32
176.06451514594315
13
5.115907697472721e-13
23
-98.36024133728166
33
176.06451514594315
70
1
  0
3DFACE
 8
frame_half
10
5.115907697472721e-13
20
-107.71732795145476
30
176.06451773417749
11
171.68681074475182
21
-98.36023622047243
31
176.06259842519694
12
175.47286961786034
22
-107.717322721809
32
176.06259842899448
13
175.47286961786034
23
-107.717322721809
33
176.06259842899448
70
3
  0
3DFACE
 8
frame_half
10
175.47286961786034
20
-107.717322721809
30
176.06259842899448
11
171.68681074475182
21
-98.36023622047243
31
176.06259842519694
12
180.96358239829522
22
-98.36023594399529
32
176.06259842519694
13
180.96358239829522
23
-98.36023594399529
33
176.06259842519694
70
13
  0
3DFACE
 8
frame_half
10
175.47286961786034
20
-107.717322721809
30
176.06259842899448
11
180.96358239829522
21
-98.36023594399529
31
176.06259842519694
12
180.96358267716596
22
-107.71732255816846
32
176.06259842519694
13
180.96358267716596
23
-107.71732255816846
33
176.06259842519694
70
1
  0
3DFACE
 8
frame_half
10
175.47334585487522
20
109.82598436481948
30
227.1425196820503
11
5.115907697472721e-13
21
98.36023110366338
31
227.1465447984691
12
5.115907697472721e-13
22
109.82597913515951
32
227.14655023375423
13
5.115907697472721e-13
23
109.82597913515951
33
227.14655023375423
70
1
  0
3DFACE
 8
frame_half
10
5.115907697472721e-13
20
98.36023110366338
30
227.1465447984691
11
175.47334585487522
21
109.82598436481948
31
227.1425196820503
12
171.68680488186044
22
98.36023622047261
32
227.1425196850395
13
171.68680488186044
23
98.36023622047261
33
227.1425196850395
70
3
  0
3DFACE
 8
frame_half
10
171.68680488186044
20
98.36023622047261
30
227.1425196850395
11
175.47334585487522
21
109.82598436481948
31
227.1425196820503
12
180.96357653540383
22
98.36023649694977
32
227.1425196850395
13
180.96357653540383
23
98.36023649694977
33
227.1425196850395
70
3
  0
3DFACE
 8
frame_half
10
180.96357653540383
20
98.36023649694977
30
227.1425196850395
11
175.47334585487522
21
109.82598436481948
31
227.1425196820503
12
180.96357619368825
22
109.82598452844579
32
227.1425196850395
13
180.96357619368825
23
109.82598452844579
33
227.1425196850395
70
1
  0
3DFACE
 8
frame_half
10
180.96357653540383
20
98.36023649694977
30
227.1425196850395
11
171.68681074475182
21
-98.36023622047243
31
176.06259842519694
12
171.68680488186044
22
98.36023622047261
32
227.1425196850395
13
171.68680488186044
23
98.36023622047261
33
227.1425196850395
70
1
  0
3DFACE
 8
frame_half
10
171.68681074475182
20
-98.36023622047243
30
176.06259842519694
11
180.96357653540383
21
98.36023649694977
31
227.1425196850395
12
180.96358239829522
22
-98.36023594399529
32
176.06259842519694
13
180.96358239829522
23
-98.36023594399529
33
176.06259842519694
70
1
  0
3DFACE
 8
frame_half
10
180.96357653540383
20
98.36023649694977
30
227.1425196850395
11
180.96358198056998
21
-84.34409421171179
31
189.86102362204736
12
180.96358239829522
22
-98.36023594399529
32
176.06259842519694
13
180.96358239829522
23
-98.36023594399529
33
176.06259842519694
70
1
  0
3DFACE
 8
frame_half
10
180.96358198056998
20
-84.34409421171179
30
189.86102362204736
11
180.96357653540383
21
98.36023649694977
31
227.1425196850395
12
180.96357683101826
22
88.44133885915446
32
236.60039370078752
13
180.96357683101826
23
88.44133885915446
33
236.60039370078752
70
1
  0
3DFACE
 8
inside_half
10
162.47775520891634
20
-84.34409476264783
30
33.43464566929135
11
5.115907697472721e-13
21
88.44133346586825
31
80.17362204724412
12
5.115907697472721e-13
22
-84.34409960499816
32
33.43464566929135
13
5.115907697472721e-13
23
-84.34409960499816
33
33.43464566929135
70
1
  0
3DFACE
 8
inside_half
10
5.115907697472721e-13
20
88.44133346586825
30
80.17362204724412
11
162.47775520891634
21
-84.34409476264783
31
33.43464566929135
12
162.47775005936467
22
88.44133830821842
32
80.17362204724412
13
162.47775005936467
23
88.44133830821842
33
80.17362204724412
70
1
  0
3DFACE
 8
inside_half
10
162.47775005936467
20
88.44133830821842
30
236.60039370078752
11
5.115907697472721e-13
21
88.44133346586825
31
80.17362204724412
12
162.47775005936467
22
88.44133830821842
32
80.17362204724412
13
162.47775005936467
23
88.44133830821842
33
80.17362204724412
70
1
  0
3DFACE
 8
inside_half
10
5.115907697472721e-13
20
88.44133346586825
30
80.17362204724412
11
162.47775005936467
21
88.44133830821842
31
236.60039370078752
12
5.115907697472721e-13
22
88.44133346586825
32
236.60039370078752
13
5.115907697472721e-13
23
88.44133346586825
33
236.60039370078752
70
1
  0
3DFACE
 8
inside_half
10
5.115907697472721e-13
20
-84.34409960499816
30
189.86102362204736
11
162.47775520891634
21
-84.34409476264783
31
33.43464566929135
12
5.115907697472721e-13
22
-84.34409960499816
32
33.43464566929135
13
5.115907697472721e-13
23
-84.34409960499816
33
33.43464566929135
70
1
  0
3DFACE
 8
inside_half
10
162.47775520891634
20
-84.34409476264783
30
33.43464566929135
11
5.115907697472721e-13
21
-84.34409960499816
31
189.86102362204736
12
162.47775520891634
22
-84.34409476264783
32
189.86102362204736
13
162.47775520891634
23
-84.34409476264783
33
189.86102362204736
70
1
  0
3DFACE
 8
inside_half
10
162.47775005936467
20
88.44133830821842
30
236.60039370078752
11
162.47775520891634
21
-84.34409476264783
31
33.43464566929135
12
162.47775520891634
22
-84.34409476264783
32
189.86102362204736
13
162.47775520891634
23
-84.34409476264783
33
189.86102362204736
70
1
  0
3DFACE
 8
inside_half
10
162.47775520891634
20
-84.34409476264783
30
33.43464566929135
11
162.47775005936467
21
88.44133830821842
31
236.60039370078752
12
162.47775005936467
22
88.44133830821842
32
80.17362204724412
13
162.47775005936467
23
88.44133830821842
33
80.17362204724412
70
1
  0
3DFACE
 8
frame_half
10
7.356519303512613
20
-98.36024111803383
30
7.678156604932067
11
7.356519154496823
21
-93.36024111803414
31
168.7079137133973
12
7.356519303512613
22
-98.36024111803414
32
168.7079137133973
13
7.356519303512613
23
-98.36024111803414
33
168.7079137133973
70
1
  0
3DFACE
 8
frame_half
10
7.356519154496823
20
-93.36024111803414
30
168.7079137133973
11
7.356519303512613
21
-98.36024111803383
31
7.678156604932067
12
7.356519154496823
22
-93.36024111803383
32
7.678156604932072
13
7.356519154496823
23
-93.36024111803383
33
7.678156604932072
70
1
  0
3DFACE
 8
frame_half
10
7.356519303512613
20
-98.36024111803383
30
7.678156604932067
11
164.33029129222393
21
-93.36023643971993
31
7.678158957060002
12
7.356519154496823
22
-93.36024111803383
32
7.678156604932072
13
7.356519154496823
23
-93.36024111803383
33
7.678156604932072
70
1
  0
3DFACE
 8
frame_half
10
164.33029129222393
20
-93.36023643971993
30
7.678158957060002
11
7.356519303512613
21
-98.36024111803383
31
7.678156604932067
12
164.33029144123975
22
-98.36023643971993
32
7.678158957059996
13
164.33029144123975
23
-98.36023643971993
33
7.678158957059996
70
1
  0
3DFACE
 8
frame_half
10
164.33029129222393
20
-93.36023643971994
30
168.7061612498017
11
164.33029144123975
21
-98.36023643971993
31
7.678158957059996
12
164.33029144123975
22
-98.36023643971994
32
168.7061612498017
13
164.33029144123975
23
-98.36023643971994
33
168.7061612498017
70
1
  0
3DFACE
 8
frame_half
10
164.33029144123975
20
-98.36023643971993
30
7.678158957059996
11
164.33029129222393
21
-93.36023643971994
31
168.7061612498017
12
164.33029129222393
22
-93.36023643971993
32
7.678158957060002
13
164.33029129222393
23
-93.36023643971993
33
7.678158957060002
70
1
  0
3DFACE
 8
frame_half
10
164.33029129222393
20
-93.36023643971994
30
168.7061612498017
11
7.356519303512613
21
-98.36024111803414
31
168.7079137133973
12
7.356519154496823
22
-93.36024111803414
32
168.7079137133973
13
7.356519154496823
23
-93.36024111803414
33
168.7079137133973
70
1
  0
3DFACE
 8
frame_half
10
7.356519303512613
20
-98.36024111803414
30
168.7079137133973
11
164.33029129222393
21
-93.36023643971994
31
168.7061612498017
12
164.33029144123975
22
-98.36023643971994
32
168.7061612498017
13
164.33029144123975
23
-98.36023643971994
33
168.7061612498017
70
1
  0
3DFACE
 8
frame_half
10
164.33028557834837
20
98.3602360012251
30
219.78617284951383
11
164.33028572736413
21
93.3602360012251
31
7.678187350803336
12
164.33028572736413
22
93.3602360012251
32
219.78617284951383
13
164.33028572736413
23
93.3602360012251
33
219.78617284951383
70
1
  0
3DFACE
 8
frame_half
10
164.33028572736413
20
93.3602360012251
30
7.678187350803336
11
164.33028557834837
21
98.3602360012251
31
219.78617284951383
12
164.33028557834837
22
98.3602360012251
32
7.6781873508033405
13
164.33028557834837
23
98.3602360012251
33
7.6781873508033405
70
1
  0
3DFACE
 8
frame_half
10
7.356519452528403
20
93.36023132291126
30
7.67818600768036
11
164.33028557834837
21
98.3602360012251
31
7.6781873508033405
12
7.356519303512613
22
98.36023132291126
32
7.678186007680364
13
7.356519303512613
23
98.36023132291126
33
7.678186007680364
70
1
  0
3DFACE
 8
frame_half
10
164.33028557834837
20
98.3602360012251
30
7.6781873508033405
11
7.356519452528403
21
93.36023132291126
31
7.67818600768036
12
164.33028572736413
22
93.3602360012251
32
7.678187350803336
13
164.33028572736413
23
93.3602360012251
33
7.678187350803336
70
1
  0
3DFACE
 8
frame_half
10
7.356519452528403
20
93.36023132291126
30
7.67818600768036
11
7.356519303512613
21
98.36023132291092
31
219.78985302292708
12
7.356519452528403
22
93.36023132291092
32
219.78985302292708
13
7.356519452528403
23
93.36023132291092
33
219.78985302292708
70
1
  0
3DFACE
 8
frame_half
10
7.356519303512613
20
98.36023132291092
30
219.78985302292708
11
7.356519452528403
21
93.36023132291126
31
7.67818600768036
12
7.356519303512613
22
98.36023132291126
32
7.678186007680364
13
7.356519303512613
23
98.36023132291126
33
7.678186007680364
70
1
  0
3DFACE
 8
frame_half
10
164.33028557834837
20
98.3602360012251
30
219.78617284951383
11
7.356519452528403
21
93.36023132291092
31
219.78985302292708
12
7.356519303512613
22
98.36023132291092
32
219.78985302292708
13
7.356519303512613
23
98.36023132291092
33
219.78985302292708
70
1
  0
3DFACE
 8
frame_half
10
7.356519452528403
20
93.36023132291092
30
219.78985302292708
11
164.33028557834837
21
98.3602360012251
31
219.78617284951383
12
164.33028572736413
22
93.3602360012251
32
219.78617284951383
13
164.33028572736413
23
93.3602360012251
33
219.78617284951383
70
1
  0
3DFACE
 8
frame_half
10
171.68681074475182
20
-98.36023622047243
30
0.32163976377951986
11
171.68681053254642
21
-91.24000442486981
31
7.441872585372755
12
171.68681074475182
22
-98.36023622047243
32
176.06259842519694
13
171.68681074475182
23
-98.36023622047243
33
176.06259842519694
70
3
  0
3DFACE
 8
frame_half
10
171.68681053254642
20
-91.24000442486981
30
7.441872585372755
11
171.68681074475182
21
-98.36023622047243
31
0.32163976377951986
12
171.68680488186044
22
98.36023622047261
32
0.3216681102362128
13
171.68680488186044
23
98.36023622047261
33
0.3216681102362128
70
13
  0
3DFACE
 8
frame_half
10
171.68681053254642
20
-91.24000442486981
30
7.441872585372755
11
171.68680488186044
21
98.36023622047261
31
0.3216681102362128
12
171.68680509406585
22
91.24000442487
32
7.441898879848383
13
171.68680509406585
23
91.24000442487
33
7.441898879848383
70
3
  0
3DFACE
 8
frame_half
10
171.68680509406585
20
91.24000442487
30
7.441898879848383
11
171.68680488186044
21
98.36023622047261
31
0.3216681102362128
12
171.68680509406585
22
91.24000442487
32
217.9373521601451
13
171.68680509406585
23
91.24000442487
33
217.9373521601451
70
3
  0
3DFACE
 8
frame_half
10
171.68681074475182
20
-98.36023622047243
30
176.06259842519694
11
171.68681053254642
21
-91.24000442486981
31
170.55507227904
12
171.68680488186044
22
98.36023622047261
32
227.1425196850395
13
171.68680488186044
23
98.36023622047261
33
227.1425196850395
70
3
  0
3DFACE
 8
frame_half
10
171.68681053254642
20
-91.24000442486981
30
170.55507227904
11
171.68681074475182
21
-98.36023622047243
31
176.06259842519694
12
171.68681053254642
22
-91.24000442486981
32
7.441872585372755
13
171.68681053254642
23
-91.24000442486981
33
7.441872585372755
70
3
  0
3DFACE
 8
frame_half
10
171.68680488186044
20
98.36023622047261
30
227.1425196850395
11
171.68681053254642
21
-91.24000442486981
31
170.55507227904
12
171.68680509406585
22
91.24000442487
32
217.9373521601451
13
171.68680509406585
23
91.24000442487
33
217.9373521601451
70
13
  0
3DFACE
 8
frame_half
10
171.68680488186044
20
98.36023622047261
30
227.1425196850395
11
171.68680509406585
21
91.24000442487
31
217.9373521601451
12
171.68680488186044
22
98.36023622047261
32
0.3216681102362128
13
171.68680488186044
23
98.36023622047261
33
0.3216681102362128
70
3
  0
3DFACE
 8
frame_half
10
171.68680509406585
20
91.24000442487
30
217.9373521601451
11
166.68681053254642
21
-91.2400045738856
31
170.55507227904
12
166.68680509406585
22
91.2400042758542
32
217.9373521601451
13
166.68680509406585
23
91.2400042758542
33
217.9373521601451
70
1
  0
3DFACE
 8
frame_half
10
166.68681053254642
20
-91.2400045738856
30
170.55507227904
11
171.68680509406585
21
91.24000442487
31
217.9373521601451
12
171.68681053254642
22
-91.24000442486981
32
170.55507227904
13
171.68681053254642
23
-91.24000442486981
33
170.55507227904
70
1
  0
3DFACE
 8
frame_half
10
166.68681053254642
20
-91.2400045738856
30
170.55507227904
11
171.68681053254642
21
-91.24000442486981
31
7.441872585372755
12
166.68681053254642
22
-91.2400045738856
32
7.441872585372755
13
166.68681053254642
23
-91.2400045738856
33
7.441872585372755
70
1
  0
3DFACE
 8
frame_half
10
171.68681053254642
20
-91.24000442486981
30
7.441872585372755
11
166.68681053254642
21
-91.2400045738856
31
170.55507227904
12
171.68681053254642
22
-91.24000442486981
32
170.55507227904
13
171.68681053254642
23
-91.24000442486981
33
170.55507227904
70
1
  0
3DFACE
 8
frame_half
10
166.68681053254642
20
-91.2400045738856
30
7.441872585372755
11
171.68680509406585
21
91.24000442487
31
7.441898879848383
12
166.68680509406585
22
91.2400042758542
32
7.441898879848383
13
166.68680509406585
23
91.2400042758542
33
7.441898879848383
70
1
  0
3DFACE
 8
frame_half
10
171.68680509406585
20
91.24000442487
30
7.441898879848383
11
166.68681053254642
21
-91.2400045738856
31
7.441872585372755
12
171.68681053254642
22
-91.24000442486981
32
7.441872585372755
13
171.68681053254642
23
-91.24000442486981
33
7.441872585372755
70
1
  0
3DFACE
 8
frame_half
10
171.68680509406585
20
91.24000442487
30
217.9373521601451
11
166.68680509406585
21
91.2400042758542
31
7.441898879848383
12
171.68680509406585
22
91.24000442487
32
7.441898879848383
13
171.68680509406585
23
91.24000442487
33
7.441898879848383
70
1
  0
3DFACE
 8
frame_half
10
166.68680509406585
20
91.2400042758542
30
7.441898879848383
11
171.68680509406585
21
91.24000442487
31
217.9373521601451
12
166.68680509406585
22
91.2400042758542
32
217.9373521601451
13
166.68680509406585
23
91.2400042758542
33
217.9373521601451
70
1
  0
LINE
 8
frame_half
10
192.11939488573717
20
-18.806592430868662
30
98.78595140714901
11
192.11958396451757
21
-18.812044202216626
31
98.7803176609457
  0
3DFACE
 8
frame_half
10
169.1868200523188
20
35.43805451572439
30
98.35513302657242
11
195.93208234481858
21
35.43803453794092
31
155.2043307086615
12
195.93208234769213
22
35.438032218648914
32
98.35511811023626
13
195.93208234769213
23
35.438032218648914
33
98.35511811023626
70
1
  0
3DFACE
 8
frame_half
10
195.93208234481858
20
35.43803453794092
30
155.2043307086615
11
169.1868200523188
21
35.43805451572439
31
98.35513302657242
12
169.1868200523188
22
35.43805451572439
32
155.20434292468212
13
169.1868200523188
23
35.43805451572439
33
155.20434292468212
70
1
  0
3DFACE
 8
frame_half
10
195.93206584814033
20
-18.806575569150453
30
98.3551192167518
11
191.93206584793933
21
-18.806572071228686
31
102.3551214476279
12
169.18680355276706
22
-18.80655327207498
32
98.35513413308796
13
169.18680355276706
23
-18.80655327207498
33
98.35513413308796
70
3
  0
3DFACE
 8
frame_half
10
191.93206584793933
20
-18.806572071228686
30
102.3551214476279
11
195.93206584814033
21
-18.806575569150453
31
98.3551192167518
12
195.93206584526678
22
-18.80657324985846
32
155.20433181517726
13
195.93206584526678
23
-18.80657324985846
33
155.20433181517726
70
13
  0
3DFACE
 8
frame_half
10
191.93206584793933
20
-18.806572071228686
30
102.3551214476279
11
195.93206584526678
21
-18.80657324985846
31
155.20433181517726
12
191.93206584546897
22
-18.806572283087576
32
151.20433364219494
13
191.93206584546897
23
-18.806572283087576
33
151.20433364219494
70
3
  0
3DFACE
 8
frame_half
10
191.93206584546897
20
-18.806572283087576
30
151.20433364219494
11
195.93206584526678
21
-18.80657324985846
31
155.20433181517726
12
173.18680355276365
22
-18.80656595048204
32
151.20434220417928
13
173.18680355276365
23
-18.80656595048204
33
151.20434220417928
70
3
  0
3DFACE
 8
frame_half
10
169.18680355276706
20
-18.80655327207498
30
98.35513413308796
11
173.18680355276558
21
-18.806557480875455
31
102.35513190221339
12
169.18680355276337
22
-18.806565694589835
32
155.20434403119808
13
169.18680355276337
23
-18.806565694589835
33
155.20434403119808
70
3
  0
3DFACE
 8
frame_half
10
173.18680355276558
20
-18.806557480875455
30
102.35513190221339
11
169.18680355276706
21
-18.80655327207498
31
98.35513413308796
12
191.93206584793933
22
-18.806572071228686
32
102.3551214476279
13
191.93206584793933
23
-18.806572071228686
33
102.3551214476279
70
3
  0
3DFACE
 8
frame_half
10
169.18680355276337
20
-18.806565694589835
30
155.20434403119808
11
173.18680355276558
21
-18.806557480875455
31
102.35513190221339
12
173.18680355276365
22
-18.80656595048204
32
151.20434220417928
13
173.18680355276365
23
-18.80656595048204
33
151.20434220417928
70
13
  0
3DFACE
 8
frame_half
10
169.18680355276337
20
-18.806565694589835
30
155.20434403119808
11
173.18680355276365
21
-18.80656595048204
31
151.20434220417928
12
195.93206584526678
22
-18.80657324985846
32
155.20433181517726
13
195.93206584526678
23
-18.80657324985846
33
155.20433181517726
70
3
  0
3DFACE
 8
frame_half
10
195.93208234769213
20
35.438032218648914
30
98.35511811023626
11
195.93206584526678
21
-18.80657324985846
31
155.20433181517726
12
195.93206584814033
22
-18.806575569150453
32
98.3551192167518
13
195.93206584814033
23
-18.806575569150453
33
98.3551192167518
70
1
  0
3DFACE
 8
frame_half
10
195.93206584526678
20
-18.80657324985846
30
155.20433181517726
11
195.93208234769213
21
35.438032218648914
31
98.35511811023626
12
195.93208234481858
22
35.43803453794092
32
155.2043307086615
13
195.93208234481858
23
35.43803453794092
33
155.2043307086615
70
1
  0
3DFACE
 8
frame_half
10
169.1868200523188
20
35.43805451572439
30
98.35513302657242
11
195.93206584814033
21
-18.806575569150453
31
98.3551192167518
12
169.18680355276706
22
-18.80655327207498
32
98.35513413308796
13
169.18680355276706
23
-18.80655327207498
33
98.35513413308796
70
1
  0
3DFACE
 8
frame_half
10
195.93206584814033
20
-18.806575569150453
30
98.3551192167518
11
169.1868200523188
21
35.43805451572439
31
98.35513302657242
12
195.93208234769213
22
35.438032218648914
32
98.35511811023626
13
195.93208234769213
23
35.438032218648914
33
98.35511811023626
70
1
  0
3DFACE
 8
frame_half
10
169.1868200523188
20
35.43805451572439
30
155.20434292468212
11
169.18680355276706
21
-18.80655327207498
31
98.35513413308796
12
169.18680355276337
22
-18.806565694589835
32
155.20434403119808
13
169.18680355276337
23
-18.806565694589835
33
155.20434403119808
70
1
  0
3DFACE
 8
frame_half
10
169.18680355276706
20
-18.80655327207498
30
98.35513413308796
11
169.1868200523188
21
35.43805451572439
31
155.20434292468212
12
169.1868200523188
22
35.43805451572439
32
98.35513302657242
13
169.1868200523188
23
35.43805451572439
33
98.35513302657242
70
1
  0
3DFACE
 8
frame_half
10
195.93206584526678
20
-18.80657324985846
30
155.20433181517726
11
169.1868200523188
21
35.43805451572439
31
155.20434292468212
12
169.18680355276337
22
-18.806565694589835
32
155.20434403119808
13
169.18680355276337
23
-18.806565694589835
33
155.20434403119808
70
1
  0
3DFACE
 8
frame_half
10
169.1868200523188
20
35.43805451572439
30
155.20434292468212
11
195.93206584526678
21
-18.80657324985846
31
155.20433181517726
12
195.93208234481858
22
35.43803453794092
32
155.2043307086615
13
195.93208234481858
23
35.43803453794092
33
155.2043307086615
70
1
  0
3DFACE
 8
frame_half
10
149.6172528342156
20
-76.99953980767417
30
0.07164228285092733
11
164.3302911109016
21
-80.5596534414427
31
-9.928357717148824
12
156.97377191349227
22
-80.55965344144272
32
-9.928357717148824
13
156.97377191349227
23
-80.55965344144272
33
-9.928357717148824
70
1
  0
3DFACE
 8
frame_half
10
164.3302911109016
20
-80.5596534414427
30
-9.928357717148824
11
149.6172528342156
21
-76.99953980767417
31
0.07164228285092733
12
164.33029122903434
22
-76.99953980767414
32
0.07164228285092733
13
164.33029122903434
23
-76.99953980767414
33
0.07164228285092733
70
1
  0
3DFACE
 8
frame_half
10
164.33029144123975
20
-91.24000339887927
30
0.07164074271531895
11
156.97377191349227
21
-87.67988534666897
31
-9.928358597448263
12
164.33029121700434
22
-87.67988523704514
32
-9.92835925728443
13
164.33029121700434
23
-87.67988523704514
33
-9.92835925728443
70
1
  0
3DFACE
 8
frame_half
10
156.97377191349227
20
-87.67988534666897
30
-9.928358597448263
11
164.33029144123975
21
-91.24000339887927
31
0.07164074271531895
12
149.6172528342156
22
-91.2400036181269
32
0.07164140255148688
13
149.6172528342156
23
-91.2400036181269
33
0.07164140255148688
70
1
  0
3DFACE
 8
frame_half
10
164.3302858950658
20
87.67989181709197
30
-9.928332989879554
11
156.97376669765652
21
80.55965991186571
31
-9.928333870178992
12
156.97376669765652
22
87.67989181709194
32
-9.928332989879554
13
156.97376669765652
23
87.67989181709194
33
-9.928332989879554
70
1
  0
3DFACE
 8
frame_half
10
156.97376669765652
20
80.55965991186571
30
-9.928333870178992
11
164.3302858950658
21
87.67989181709197
31
-9.928332989879554
12
164.3302860011686
22
80.55966002148952
32
-9.92833453001516
13
164.3302860011686
23
80.55966002148952
33
-9.92833453001516
70
1
  0
3DFACE
 8
frame_half
10
164.3302860011686
20
80.55966002148952
30
-9.92833453001516
11
164.3302860131986
21
91.24000545086054
31
0.07166701012019949
12
164.330286225404
22
76.99954185965541
32
0.07166546998458934
13
164.330286225404
23
76.99954185965541
33
0.07166546998458934
70
1
  0
3DFACE
 8
frame_half
10
164.3302860131986
20
91.24000545086054
30
0.07166701012019949
11
164.3302860011686
21
80.55966002148952
31
-9.92833453001516
12
164.3302858950658
22
87.67989181709197
32
-9.928332989879554
13
164.3302858950658
23
87.67989181709197
33
-9.928332989879554
70
1
  0
3DFACE
 8
frame_half
10
149.61724761837985
20
91.24000545086051
30
0.07166701012019949
11
156.97376669765652
21
80.55965991186571
31
-9.928333870178992
12
149.6172476183798
22
76.99954164040778
32
0.07166612982075904
13
149.6172476183798
23
76.99954164040778
33
0.07166612982075904
70
1
  0
3DFACE
 8
frame_half
10
156.97376669765652
20
80.55965991186571
30
-9.928333870178992
11
149.61724761837985
21
91.24000545086051
31
0.07166701012019949
12
156.97376669765652
22
87.67989181709194
32
-9.928332989879554
13
156.97376669765652
23
87.67989181709194
33
-9.928332989879554
70
1
  0
3DFACE
 8
frame_half
10
164.330286225404
20
76.99954185965541
30
0.07166546998458934
11
156.97376669765652
21
80.55965991186571
31
-9.928333870178992
12
164.3302860011686
22
80.55966002148952
32
-9.92833453001516
13
164.3302860011686
23
80.55966002148952
33
-9.92833453001516
70
1
  0
3DFACE
 8
frame_half
10
156.97376669765652
20
80.55965991186571
30
-9.928333870178992
11
164.330286225404
21
76.99954185965541
31
0.07166546998458934
12
149.6172476183798
22
76.99954164040778
32
0.07166612982075904
13
149.6172476183798
23
76.99954164040778
33
0.07166612982075904
70
1
  0
3DFACE
 8
frame_half
10
149.61724761837985
20
91.24000545086051
30
0.07166701012019949
11
164.3302858950658
21
87.67989181709197
31
-9.928332989879554
12
156.97376669765652
22
87.67989181709194
32
-9.928332989879554
13
156.97376669765652
23
87.67989181709194
33
-9.928332989879554
70
1
  0
3DFACE
 8
frame_half
10
164.3302858950658
20
87.67989181709197
30
-9.928332989879554
11
149.61724761837985
21
91.24000545086051
31
0.07166701012019949
12
164.3302860131986
22
91.24000545086054
32
0.07166701012019949
13
164.3302860131986
23
91.24000545086054
33
0.07166701012019949
70
1
  0
3DFACE
 8
frame_half
10
164.33029121700434
20
-87.67988523704514
30
-9.92835925728443
11
164.33029122903434
21
-76.99953980767414
31
0.07164228285092733
12
164.33029144123975
22
-91.24000339887927
32
0.07164074271531895
13
164.33029144123975
23
-91.24000339887927
33
0.07164074271531895
70
1
  0
3DFACE
 8
frame_half
10
164.33029122903434
20
-76.99953980767414
30
0.07164228285092733
11
164.33029121700434
21
-87.67988523704514
31
-9.92835925728443
12
164.3302911109016
22
-80.5596534414427
32
-9.928357717148824
13
164.3302911109016
23
-80.5596534414427
33
-9.928357717148824
70
1
  0
3DFACE
 8
frame_half
10
149.6172528342156
20
-76.99953980767417
30
0.07164228285092733
11
156.97377191349227
21
-87.67988534666897
31
-9.928358597448263
12
149.6172528342156
22
-91.2400036181269
32
0.07164140255148688
13
149.6172528342156
23
-91.2400036181269
33
0.07164140255148688
70
1
  0
3DFACE
 8
frame_half
10
156.97377191349227
20
-87.67988534666897
30
-9.928358597448263
11
149.6172528342156
21
-76.99953980767417
31
0.07164228285092733
12
156.97377191349227
22
-80.55965344144272
32
-9.928357717148824
13
156.97377191349227
23
-80.55965344144272
33
-9.928357717148824
70
1
  0
3DFACE
 8
frame_half
10
164.3302911109016
20
-80.5596534414427
30
-9.928357717148824
11
156.97377191349227
21
-87.67988534666897
31
-9.928358597448263
12
156.97377191349227
22
-80.55965344144272
32
-9.928357717148824
13
156.97377191349227
23
-80.55965344144272
33
-9.928357717148824
70
1
  0
3DFACE
 8
frame_half
10
156.97377191349227
20
-87.67988534666897
30
-9.928358597448263
11
164.3302911109016
21
-80.5596534414427
31
-9.928357717148824
12
164.33029121700434
22
-87.67988523704514
32
-9.92835925728443
13
164.33029121700434
23
-87.67988523704514
33
-9.92835925728443
70
1
  0
3DFACE
 8
frame_half
10
180.96358239829522
20
-98.36023594399529
30
176.06259842519694
11
180.96358267716596
21
-107.71732255816846
31
189.86102362204736
12
180.96358267716596
22
-107.71732255816846
32
176.06259842519694
13
180.96358267716596
23
-107.71732255816846
33
176.06259842519694
70
1
  0
3DFACE
 8
frame_half
10
180.96358267716596
20
-107.71732255816846
30
189.86102362204736
11
180.96358239829522
21
-98.36023594399529
31
176.06259842519694
12
180.96358198056998
22
-84.34409421171179
32
189.86102362204736
13
180.96358198056998
23
-84.34409421171179
33
189.86102362204736
70
1
  0
3DFACE
 8
frame_half
10
180.96357653540383
20
98.36023649694977
30
227.1425196850395
11
180.96357619368825
21
109.82598452844579
31
236.60039370078752
12
180.96357683101826
22
88.44133885915446
32
236.60039370078752
13
180.96357683101826
23
88.44133885915446
33
236.60039370078752
70
1
  0
3DFACE
 8
frame_half
10
180.96357619368825
20
109.82598452844579
30
236.60039370078752
11
180.96357653540383
21
98.36023649694977
31
227.1425196850395
12
180.96357619368825
22
109.82598452844579
32
227.1425196850395
13
180.96357619368825
23
109.82598452844579
33
227.1425196850395
70
1
  0
3DFACE
 8
panels_half
10
164.33029129222393
20
-93.36023643971993
30
7.678158957060002
11
7.356519154496823
21
-93.36024111803414
31
168.7079137133973
12
7.356519154496823
22
-93.36024111803383
32
7.678156604932072
13
7.356519154496823
23
-93.36024111803383
33
7.678156604932072
70
1
  0
3DFACE
 8
panels_half
10
7.356519154496823
20
-93.36024111803414
30
168.7079137133973
11
164.33029129222393
21
-93.36023643971993
31
7.678158957060002
12
164.33029129222393
22
-93.36023643971994
32
168.7061612498017
13
164.33029129222393
23
-93.36023643971994
33
168.7061612498017
70
1
  0
3DFACE
 8
panels_half
10
7.356519452528403
20
93.36023132291092
30
219.78985302292708
11
164.33028572736413
21
93.3602360012251
31
7.678187350803336
12
7.356519452528403
22
93.36023132291126
32
7.67818600768036
13
7.356519452528403
23
93.36023132291126
33
7.67818600768036
70
1
  0
3DFACE
 8
panels_half
10
164.33028572736413
20
93.3602360012251
30
7.678187350803336
11
7.356519452528403
21
93.36023132291092
31
219.78985302292708
12
164.33028572736413
22
93.3602360012251
32
219.78617284951383
13
164.33028572736413
23
93.3602360012251
33
219.78617284951383
70
1
  0
3DFACE
 8
panels_half
10
166.68680509406585
20
91.2400042758542
30
217.9373521601451
11
166.68681053254642
21
-91.2400045738856
31
170.55507227904
12
166.68680509406585
22
91.2400042758542
32
7.441898879848383
13
166.68680509406585
23
91.2400042758542
33
7.441898879848383
70
0
  0
3DFACE
 8
panels_half
10
166.68680509406585
20
91.2400042758542
30
7.441898879848383
11
166.68681053254642
21
-91.2400045738856
31
170.55507227904
12
166.68681053254642
22
-91.2400045738856
32
7.441872585372755
13
166.68681053254642
23
-91.2400045738856
33
7.441872585372755
70
0
  0
3DFACE
 8
panels_half
10
191.93208098206628
20
8.315735296259732
30
151.2043360522785
11
173.1868186893629
21
8.315750098471852
31
102.35513431229701
12
191.93208098453664
22
8.315735508118621
32
102.35512385771152
13
191.93208098453664
23
8.315735508118621
33
102.35512385771152
70
1
  0
3DFACE
 8
panels_half
10
173.1868186893629
20
8.315750098471852
30
102.35513431229701
11
191.93208098206628
21
8.315735296259732
31
151.2043360522785
12
173.18681868936096
22
8.315741628865268
32
151.20434461426285
13
173.18681868936096
23
8.315741628865268
33
151.20434461426285
70
1
  0
3DFACE
 8
panels_half
10
173.18681868936096
20
8.315741628865268
30
151.20434461426285
11
191.93206584546897
21
-18.806572283087576
31
151.20433364219494
12
173.18680355276365
22
-18.80656595048204
32
151.20434220417928
13
173.18680355276365
23
-18.80656595048204
33
151.20434220417928
70
1
  0
3DFACE
 8
panels_half
10
191.93206584546897
20
-18.806572283087576
30
151.20433364219494
11
173.18681868936096
21
8.315741628865268
31
151.20434461426285
12
191.93208098206628
22
8.315735296259732
32
151.2043360522785
13
191.93208098206628
23
8.315735296259732
33
151.2043360522785
70
1
  0
3DFACE
 8
panels_half
10
173.18680355276558
20
-18.806557480875455
30
102.35513190221339
11
173.18681868936096
21
8.315741628865268
31
151.20434461426285
12
173.18680355276365
22
-18.80656595048204
32
151.20434220417928
13
173.18680355276365
23
-18.80656595048204
33
151.20434220417928
70
1
  0
3DFACE
 8
panels_half
10
173.18681868936096
20
8.315741628865268
30
151.20434461426285
11
173.18680355276558
21
-18.806557480875455
31
102.35513190221339
12
173.1868186893629
22
8.315750098471852
32
102.35513431229701
13
173.1868186893629
23
8.315750098471852
33
102.35513431229701
70
1
  0
3DFACE
 8
panels_half
10
191.93206584793933
20
-18.806572071228686
30
102.3551214476279
11
173.1868186893629
21
8.315750098471852
31
102.35513431229701
12
173.18680355276558
22
-18.806557480875455
32
102.35513190221339
13
173.18680355276558
23
-18.806557480875455
33
102.35513190221339
70
1
  0
3DFACE
 8
panels_half
10
173.1868186893629
20
8.315750098471852
30
102.35513431229701
11
191.93206584793933
21
-18.806572071228686
31
102.3551214476279
12
191.93208098453664
22
8.315735508118621
32
102.35512385771152
13
191.93208098453664
23
8.315735508118621
33
102.35512385771152
70
1
  0
3DFACE
 8
panels_half
10
191.93208098206628
20
8.315735296259732
30
151.2043360522785
11
191.93206584793933
21
-18.806572071228686
31
102.3551214476279
12
191.93206584546897
22
-18.806572283087576
32
151.20433364219494
13
191.93206584546897
23
-18.806572283087576
33
151.20433364219494
70
1
  0
3DFACE
 8
panels_half
10
191.93206584793933
20
-18.806572071228686
30
102.3551214476279
11
191.93208098206628
21
8.315735296259732
31
151.2043360522785
12
191.93208098453664
22
8.315735508118621
32
102.35512385771152
13
191.93208098453664
23
8.315735508118621
33
102.35512385771152
70
1
  0
3DFACE
 8
hinges_half
10
14.604382809215494
20
108.5456607922482
30
249.43983074886108
11
54.42013089894506
21
111.14544989054545
31
246.84004165056382
12
14.604382809215494
22
111.14544989054545
32
246.84004165056382
13
14.604382809215494
23
111.14544989054545
33
246.84004165056382
70
1
  0
3DFACE
 8
hinges_half
10
54.42013089894506
20
111.14544989054545
30
246.84004165056382
11
14.604382809215494
21
108.5456607922482
31
249.43983074886108
12
54.42013089894506
22
108.5456607922482
32
249.43983074886108
13
54.42013089894506
23
108.5456607922482
33
249.43983074886108
70
1
  0
3DFACE
 8
hinges_half
10
54.42013089894506
20
97.89152693398054
30
243.28866369780795
11
14.604382809215494
21
98.84311578843918
31
239.73728574505208
12
54.42013089894506
22
98.84311578843918
32
239.73728574505208
13
54.42013089894506
23
98.84311578843918
33
239.73728574505208
70
1
  0
3DFACE
 8
hinges_half
10
14.604382809215494
20
98.84311578843918
30
239.73728574505208
11
54.42013089894506
21
97.89152693398054
31
243.28866369780795
12
14.604382809215494
22
97.89152693398054
32
243.28866369780795
13
14.604382809215494
23
97.89152693398054
33
243.28866369780795
70
1
  0
3DFACE
 8
hinges_half
10
54.42013089894506
20
104.99428283949231
30
236.18590779229618
11
14.604382809215494
21
101.44290488673643
31
237.1374966467548
12
14.604382809215494
22
104.99428283949231
32
236.18590779229618
13
14.604382809215494
23
104.99428283949231
33
236.18590779229618
70
1
  0
3DFACE
 8
hinges_half
10
14.604382809215494
20
101.44290488673643
30
237.1374966467548
11
54.42013089894506
21
104.99428283949231
31
236.18590779229618
12
54.42013089894506
22
101.44290488673643
32
237.1374966467548
13
54.42013089894506
23
101.44290488673643
33
237.1374966467548
70
1
  0
3DFACE
 8
hinges_half
10
54.42013089894506
20
111.14544989054545
30
239.73728574505205
11
14.604382809215494
21
108.5456607922482
31
237.1374966467548
12
14.604382809215494
22
111.14544989054545
32
239.73728574505205
13
14.604382809215494
23
111.14544989054545
33
239.73728574505205
70
1
  0
3DFACE
 8
hinges_half
10
14.604382809215494
20
108.5456607922482
30
237.1374966467548
11
54.42013089894506
21
111.14544989054545
31
239.73728574505205
12
54.42013089894506
22
108.5456607922482
32
237.1374966467548
13
54.42013089894506
23
108.5456607922482
33
237.1374966467548
70
1
  0
3DFACE
 8
hinges_half
10
54.42013089894506
20
98.84311578843918
30
246.84004165056385
11
14.604382809215494
21
97.89152693398054
31
243.28866369780795
12
54.42013089894506
22
97.89152693398054
32
243.28866369780795
13
54.42013089894506
23
97.89152693398054
33
243.28866369780795
70
1
  0
3DFACE
 8
hinges_half
10
14.604382809215494
20
97.89152693398054
30
243.28866369780795
11
54.42013089894506
21
98.84311578843918
31
246.84004165056385
12
14.604382809215494
22
98.84311578843918
32
246.84004165056385
13
14.604382809215494
23
98.84311578843918
33
246.84004165056385
70
1
  0
3DFACE
 8
hinges_half
10
14.604382809215494
20
111.14544989054545
30
246.84004165056382
11
54.42013089894506
21
112.09703874500408
31
243.28866369780795
12
14.604382809215494
22
112.09703874500408
32
243.28866369780795
13
14.604382809215494
23
112.09703874500408
33
243.28866369780795
70
1
  0
3DFACE
 8
hinges_half
10
54.42013089894506
20
112.09703874500408
30
243.28866369780795
11
14.604382809215494
21
111.14544989054545
31
246.84004165056382
12
54.42013089894506
22
111.14544989054545
32
246.84004165056382
13
54.42013089894506
23
111.14544989054545
33
246.84004165056382
70
1
  0
3DFACE
 8
hinges_half
10
54.42013089894506
20
98.84311578843918
30
239.73728574505208
11
14.604382809215494
21
101.44290488673643
31
237.1374966467548
12
54.42013089894506
22
101.44290488673643
32
237.1374966467548
13
54.42013089894506
23
101.44290488673643
33
237.1374966467548
70
1
  0
3DFACE
 8
hinges_half
10
14.604382809215494
20
101.44290488673643
30
237.1374966467548
11
54.42013089894506
21
98.84311578843918
31
239.73728574505208
12
14.604382809215494
22
98.84311578843918
32
239.73728574505208
13
14.604382809215494
23
98.84311578843918
33
239.73728574505208
70
1
  0
3DFACE
 8
hinges_half
10
14.604382809215494
20
112.09703874500408
30
243.28866369780795
11
54.42013089894506
21
111.14544989054545
31
239.73728574505205
12
14.604382809215494
22
111.14544989054545
32
239.73728574505205
13
14.604382809215494
23
111.14544989054545
33
239.73728574505205
70
1
  0
3DFACE
 8
hinges_half
10
54.42013089894506
20
111.14544989054545
30
239.73728574505205
11
14.604382809215494
21
112.09703874500408
31
243.28866369780795
12
54.42013089894506
22
112.09703874500408
32
243.28866369780795
13
54.42013089894506
23
112.09703874500408
33
243.28866369780795
70
1
  0
3DFACE
 8
hinges_half
10
54.42013089894506
20
98.84311578843918
30
246.84004165056385
11
14.604382809215494
21
101.44290488673643
31
249.43983074886108
12
14.604382809215494
22
98.84311578843918
32
246.84004165056385
13
14.604382809215494
23
98.84311578843918
33
246.84004165056385
70
1
  0
3DFACE
 8
hinges_half
10
14.604382809215494
20
101.44290488673643
30
249.43983074886108
11
54.42013089894506
21
98.84311578843918
31
246.84004165056385
12
54.42013089894506
22
101.44290488673643
32
249.43983074886108
13
54.42013089894506
23
101.44290488673643
33
249.43983074886108
70
1
  0
3DFACE
 8
hinges_half
10
54.42013089894506
20
101.44290488673643
30
249.43983074886108
11
14.604382809215494
21
104.99428283949231
31
250.39141960331972
12
14.604382809215494
22
101.44290488673643
32
249.43983074886108
13
14.604382809215494
23
101.44290488673643
33
249.43983074886108
70
1
  0
3DFACE
 8
hinges_half
10
14.604382809215494
20
104.99428283949231
30
250.39141960331972
11
54.42013089894506
21
101.44290488673643
31
249.43983074886108
12
54.42013089894506
22
104.99428283949231
32
250.39141960331972
13
54.42013089894506
23
104.99428283949231
33
250.39141960331972
70
1
  0
3DFACE
 8
hinges_half
10
54.42013089894506
20
104.99428283949231
30
250.39141960331972
11
14.604382809215494
21
108.5456607922482
31
249.43983074886108
12
14.604382809215494
22
104.99428283949231
32
250.39141960331972
13
14.604382809215494
23
104.99428283949231
33
250.39141960331972
70
1
  0
3DFACE
 8
hinges_half
10
14.604382809215494
20
108.5456607922482
30
249.43983074886108
11
54.42013089894506
21
104.99428283949231
31
250.39141960331972
12
54.42013089894506
22
108.5456607922482
32
249.43983074886108
13
54.42013089894506
23
108.5456607922482
33
249.43983074886108
70
1
  0
3DFACE
 8
hinges_half
10
54.42013089894506
20
108.5456607922482
30
237.1374966467548
11
14.604382809215494
21
104.99428283949231
31
236.18590779229618
12
14.604382809215494
22
108.5456607922482
32
237.1374966467548
13
14.604382809215494
23
108.5456607922482
33
237.1374966467548
70
1
  0
3DFACE
 8
hinges_half
10
14.604382809215494
20
104.99428283949231
30
236.18590779229618
11
54.42013089894506
21
108.5456607922482
31
237.1374966467548
12
54.42013089894506
22
104.99428283949231
32
236.18590779229618
13
54.42013089894506
23
104.99428283949231
33
236.18590779229618
70
1
  0
3DFACE
 8
hinges_half
10
14.604382809215494
20
104.99428283949231
30
243.28866369780795
11
14.604382809215494
21
98.84311578843918
31
246.84004165056385
12
14.604382809215494
22
101.44290488673643
32
249.43983074886108
13
14.604382809215494
23
101.44290488673643
33
249.43983074886108
70
0
  0
3DFACE
 8
hinges_half
10
158.56160777474872
20
104.99428283949231
30
250.39141960331972
11
118.74585968501914
21
108.5456607922482
31
249.43983074886108
12
118.74585968501914
22
104.99428283949231
32
250.39141960331972
13
118.74585968501914
23
104.99428283949231
33
250.39141960331972
70
1
  0
3DFACE
 8
hinges_half
10
118.74585968501914
20
108.5456607922482
30
249.43983074886108
11
158.56160777474872
21
104.99428283949231
31
250.39141960331972
12
158.56160777474872
22
108.5456607922482
32
249.43983074886108
13
158.56160777474872
23
108.5456607922482
33
249.43983074886108
70
1
  0
3DFACE
 8
hinges_half
10
158.56160777474872
20
98.84311578843918
30
246.84004165056385
11
118.74585968501914
21
97.89152693398054
31
243.28866369780795
12
158.56160777474872
22
97.89152693398054
32
243.28866369780795
13
158.56160777474872
23
97.89152693398054
33
243.28866369780795
70
1
  0
3DFACE
 8
hinges_half
10
118.74585968501914
20
97.89152693398054
30
243.28866369780795
11
158.56160777474872
21
98.84311578843918
31
246.84004165056385
12
118.74585968501914
22
98.84311578843918
32
246.84004165056385
13
118.74585968501914
23
98.84311578843918
33
246.84004165056385
70
1
  0
3DFACE
 8
hinges_half
10
158.56160777474872
20
104.99428283949231
30
236.18590779229618
11
118.74585968501914
21
101.44290488673643
31
237.1374966467548
12
118.74585968501914
22
104.99428283949231
32
236.18590779229618
13
118.74585968501914
23
104.99428283949231
33
236.18590779229618
70
1
  0
3DFACE
 8
hinges_half
10
118.74585968501914
20
101.44290488673643
30
237.1374966467548
11
158.56160777474872
21
104.99428283949231
31
236.18590779229618
12
158.56160777474872
22
101.44290488673643
32
237.1374966467548
13
158.56160777474872
23
101.44290488673643
33
237.1374966467548
70
1
  0
3DFACE
 8
hinges_half
10
158.56160777474872
20
98.84311578843918
30
246.84004165056385
11
118.74585968501914
21
101.44290488673643
31
249.43983074886108
12
118.74585968501914
22
98.84311578843918
32
246.84004165056385
13
118.74585968501914
23
98.84311578843918
33
246.84004165056385
70
1
  0
3DFACE
 8
hinges_half
10
118.74585968501914
20
101.44290488673643
30
249.43983074886108
11
158.56160777474872
21
98.84311578843918
31
246.84004165056385
12
158.56160777474872
22
101.44290488673643
32
249.43983074886108
13
158.56160777474872
23
101.44290488673643
33
249.43983074886108
70
1
  0
3DFACE
 8
hinges_half
10
118.74585968501914
20
108.5456607922482
30
249.43983074886108
11
158.56160777474872
21
111.14544989054545
31
246.84004165056382
12
118.74585968501914
22
111.14544989054545
32
246.84004165056382
13
118.74585968501914
23
111.14544989054545
33
246.84004165056382
70
1
  0
3DFACE
 8
hinges_half
10
158.56160777474872
20
111.14544989054545
30
246.84004165056382
11
118.74585968501914
21
108.5456607922482
31
249.43983074886108
12
158.56160777474872
22
108.5456607922482
32
249.43983074886108
13
158.56160777474872
23
108.5456607922482
33
249.43983074886108
70
1
  0
3DFACE
 8
hinges_half
10
54.42013089894506
20
112.09703874500408
30
243.28866369780795
11
54.42013089894506
21
104.99428283949231
31
243.28866369780795
12
54.42013089894506
22
111.14544989054545
32
239.73728574505205
13
54.42013089894506
23
111.14544989054545
33
239.73728574505205
70
0
  0
3DFACE
 8
hinges_half
10
118.74585968501914
20
104.99428283949231
30
243.28866369780795
11
118.74585968501914
21
101.44290488673643
31
237.1374966467548
12
118.74585968501914
22
98.84311578843918
32
239.73728574505208
13
118.74585968501914
23
98.84311578843918
33
239.73728574505208
70
0
  0
3DFACE
 8
hinges_half
10
118.74585968501914
20
112.09703874500408
30
243.28866369780795
11
158.56160777474872
21
111.14544989054545
31
239.73728574505205
12
118.74585968501914
22
111.14544989054545
32
239.73728574505205
13
118.74585968501914
23
111.14544989054545
33
239.73728574505205
70
1
  0
3DFACE
 8
hinges_half
10
158.56160777474872
20
111.14544989054545
30
239.73728574505205
11
118.74585968501914
21
112.09703874500408
31
243.28866369780795
12
158.56160777474872
22
112.09703874500408
32
243.28866369780795
13
158.56160777474872
23
112.09703874500408
33
243.28866369780795
70
1
  0
3DFACE
 8
hinges_half
10
158.56160777474872
20
111.14544989054545
30
239.73728574505205
11
118.74585968501914
21
108.5456607922482
31
237.1374966467548
12
118.74585968501914
22
111.14544989054545
32
239.73728574505205
13
118.74585968501914
23
111.14544989054545
33
239.73728574505205
70
1
  0
3DFACE
 8
hinges_half
10
118.74585968501914
20
108.5456607922482
30
237.1374966467548
11
158.56160777474872
21
111.14544989054545
31
239.73728574505205
12
158.56160777474872
22
108.5456607922482
32
237.1374966467548
13
158.56160777474872
23
108.5456607922482
33
237.1374966467548
70
1
  0
3DFACE
 8
hinges_half
10
158.56160777474872
20
108.5456607922482
30
237.1374966467548
11
118.74585968501914
21
104.99428283949231
31
236.18590779229618
12
118.74585968501914
22
108.5456607922482
32
237.1374966467548
13
118.74585968501914
23
108.5456607922482
33
237.1374966467548
70
1
  0
3DFACE
 8
hinges_half
10
118.74585968501914
20
104.99428283949231
30
236.18590779229618
11
158.56160777474872
21
108.5456607922482
31
237.1374966467548
12
158.56160777474872
22
104.99428283949231
32
236.18590779229618
13
158.56160777474872
23
104.99428283949231
33
236.18590779229618
70
1
  0
3DFACE
 8
hinges_half
10
118.74585968501914
20
111.14544989054545
30
246.84004165056382
11
158.56160777474872
21
112.09703874500408
31
243.28866369780795
12
118.74585968501914
22
112.09703874500408
32
243.28866369780795
13
118.74585968501914
23
112.09703874500408
33
243.28866369780795
70
1
  0
3DFACE
 8
hinges_half
10
158.56160777474872
20
112.09703874500408
30
243.28866369780795
11
118.74585968501914
21
111.14544989054545
31
246.84004165056382
12
158.56160777474872
22
111.14544989054545
32
246.84004165056382
13
158.56160777474872
23
111.14544989054545
33
246.84004165056382
70
1
  0
3DFACE
 8
hinges_half
10
158.56160777474872
20
98.84311578843918
30
239.73728574505208
11
118.74585968501914
21
101.44290488673643
31
237.1374966467548
12
158.56160777474872
22
101.44290488673643
32
237.1374966467548
13
158.56160777474872
23
101.44290488673643
33
237.1374966467548
70
1
  0
3DFACE
 8
hinges_half
10
118.74585968501914
20
101.44290488673643
30
237.1374966467548
11
158.56160777474872
21
98.84311578843918
31
239.73728574505208
12
118.74585968501914
22
98.84311578843918
32
239.73728574505208
13
118.74585968501914
23
98.84311578843918
33
239.73728574505208
70
1
  0
3DFACE
 8
hinges_half
10
158.56160777474872
20
101.44290488673643
30
249.43983074886108
11
118.74585968501914
21
104.99428283949231
31
250.39141960331972
12
118.74585968501914
22
101.44290488673643
32
249.43983074886108
13
118.74585968501914
23
101.44290488673643
33
249.43983074886108
70
1
  0
3DFACE
 8
hinges_half
10
118.74585968501914
20
104.99428283949231
30
250.39141960331972
11
158.56160777474872
21
101.44290488673643
31
249.43983074886108
12
158.56160777474872
22
104.99428283949231
32
250.39141960331972
13
158.56160777474872
23
104.99428283949231
33
250.39141960331972
70
1
  0
3DFACE
 8
hinges_half
10
158.56160777474872
20
97.89152693398054
30
243.28866369780795
11
118.74585968501914
21
98.84311578843918
31
239.73728574505208
12
158.56160777474872
22
98.84311578843918
32
239.73728574505208
13
158.56160777474872
23
98.84311578843918
33
239.73728574505208
70
1
  0
3DFACE
 8
hinges_half
10
118.74585968501914
20
98.84311578843918
30
239.73728574505208
11
158.56160777474872
21
97.89152693398054
31
243.28866369780795
12
118.74585968501914
22
97.89152693398054
32
243.28866369780795
13
118.74585968501914
23
97.89152693398054
33
243.28866369780795
70
1
  0
3DFACE
 8
hinges_half
10
158.56160777474872
20
111.14544989054545
30
239.73728574505205
11
158.56160777474872
21
104.99428283949231
31
243.28866369780795
12
158.56160777474872
22
108.5456607922482
32
237.1374966467548
13
158.56160777474872
23
108.5456607922482
33
237.1374966467548
70
0
  0
3DFACE
 8
hinges_half
10
14.604382809215494
20
108.5456607922482
30
237.1374966467548
11
14.604382809215494
21
104.99428283949231
31
236.18590779229618
12
14.604382809215494
22
104.99428283949231
32
243.28866369780795
13
14.604382809215494
23
104.99428283949231
33
243.28866369780795
70
0
  0
3DFACE
 8
hinges_half
10
14.604382809215494
20
104.99428283949231
30
243.28866369780795
11
14.604382809215494
21
101.44290488673643
31
249.43983074886108
12
14.604382809215494
22
104.99428283949231
32
250.39141960331972
13
14.604382809215494
23
104.99428283949231
33
250.39141960331972
70
0
  0
3DFACE
 8
hinges_half
10
14.604382809215494
20
108.5456607922482
30
249.43983074886108
11
14.604382809215494
21
104.99428283949231
31
243.28866369780795
12
14.604382809215494
22
104.99428283949231
32
250.39141960331972
13
14.604382809215494
23
104.99428283949231
33
250.39141960331972
70
0
  0
3DFACE
 8
hinges_half
10
14.604382809215494
20
104.99428283949231
30
243.28866369780795
11
14.604382809215494
21
98.84311578843918
31
239.73728574505208
12
14.604382809215494
22
97.89152693398054
32
243.28866369780795
13
14.604382809215494
23
97.89152693398054
33
243.28866369780795
70
0
  0
3DFACE
 8
hinges_half
10
14.604382809215494
20
111.14544989054545
30
239.73728574505205
11
14.604382809215494
21
108.5456607922482
31
237.1374966467548
12
14.604382809215494
22
104.99428283949231
32
243.28866369780795
13
14.604382809215494
23
104.99428283949231
33
243.28866369780795
70
0
  0
3DFACE
 8
hinges_half
10
14.604382809215494
20
111.14544989054545
30
246.84004165056382
11
14.604382809215494
21
104.99428283949231
31
243.28866369780795
12
14.604382809215494
22
108.5456607922482
32
249.43983074886108
13
14.604382809215494
23
108.5456607922482
33
249.43983074886108
70
0
  0
3DFACE
 8
hinges_half
10
14.604382809215494
20
104.99428283949231
30
236.18590779229618
11
14.604382809215494
21
101.44290488673643
31
237.1374966467548
12
14.604382809215494
22
104.99428283949231
32
243.28866369780795
13
14.604382809215494
23
104.99428283949231
33
243.28866369780795
70
0
  0
3DFACE
 8
hinges_half
10
14.604382809215494
20
104.99428283949231
30
243.28866369780795
11
14.604382809215494
21
101.44290488673643
31
237.1374966467548
12
14.604382809215494
22
98.84311578843918
32
239.73728574505208
13
14.604382809215494
23
98.84311578843918
33
239.73728574505208
70
0
  0
3DFACE
 8
hinges_half
10
14.604382809215494
20
112.09703874500408
30
243.28866369780795
11
14.604382809215494
21
111.14544989054545
31
239.73728574505205
12
14.604382809215494
22
104.99428283949231
32
243.28866369780795
13
14.604382809215494
23
104.99428283949231
33
243.28866369780795
70
0
  0
3DFACE
 8
hinges_half
10
14.604382809215494
20
104.99428283949231
30
243.28866369780795
11
14.604382809215494
21
97.89152693398054
31
243.28866369780795
12
14.604382809215494
22
98.84311578843918
32
246.84004165056385
13
14.604382809215494
23
98.84311578843918
33
246.84004165056385
70
0
  0
3DFACE
 8
hinges_half
10
14.604382809215494
20
112.09703874500408
30
243.28866369780795
11
14.604382809215494
21
104.99428283949231
31
243.28866369780795
12
14.604382809215494
22
111.14544989054545
32
246.84004165056382
13
14.604382809215494
23
111.14544989054545
33
246.84004165056382
70
0
  0
3DFACE
 8
hinges_half
10
54.42013089894506
20
112.09703874500408
30
243.28866369780795
11
54.42013089894506
21
111.14544989054545
31
246.84004165056382
12
54.42013089894506
22
104.99428283949231
32
243.28866369780795
13
54.42013089894506
23
104.99428283949231
33
243.28866369780795
70
0
  0
3DFACE
 8
hinges_half
10
54.42013089894506
20
112.09703874500408
30
243.28866369780795
11
14.604382809215494
21
104.99428283949231
31
243.28866369780795
12
14.604382809215494
22
112.09703874500408
32
243.28866369780795
13
14.604382809215494
23
112.09703874500408
33
243.28866369780795
70
1
  0
3DFACE
 8
hinges_half
10
14.604382809215494
20
104.99428283949231
30
243.28866369780795
11
54.42013089894506
21
112.09703874500408
31
243.28866369780795
12
14.604382809215494
22
97.89152693398054
32
243.28866369780795
13
14.604382809215494
23
97.89152693398054
33
243.28866369780795
70
3
  0
3DFACE
 8
hinges_half
10
14.604382809215494
20
97.89152693398054
30
243.28866369780795
11
54.42013089894506
21
112.09703874500408
31
243.28866369780795
12
54.42013089894506
22
97.89152693398054
32
243.28866369780795
13
54.42013089894506
23
97.89152693398054
33
243.28866369780795
70
3
  0
3DFACE
 8
hinges_half
10
54.42013089894506
20
97.89152693398054
30
243.28866369780795
11
54.42013089894506
21
112.09703874500408
31
243.28866369780795
12
54.42013089894506
22
104.99428283949231
32
243.28866369780795
13
54.42013089894506
23
104.99428283949231
33
243.28866369780795
70
1
  0
3DFACE
 8
hinges_half
10
54.42013089894506
20
104.99428283949231
30
250.39141960331972
11
54.42013089894506
21
101.44290488673643
31
249.43983074886108
12
54.42013089894506
22
104.99428283949231
32
243.28866369780795
13
54.42013089894506
23
104.99428283949231
33
243.28866369780795
70
0
  0
3DFACE
 8
hinges_half
10
54.42013089894506
20
104.99428283949231
30
243.28866369780795
11
54.42013089894506
21
101.44290488673643
31
237.1374966467548
12
54.42013089894506
22
104.99428283949231
32
236.18590779229618
13
54.42013089894506
23
104.99428283949231
33
236.18590779229618
70
0
  0
3DFACE
 8
hinges_half
10
14.604382809215494
20
104.99428283949231
30
243.28866369780795
11
54.42013089894506
21
104.99428283949231
31
236.18590779229618
12
14.604382809215494
22
104.99428283949231
32
236.18590779229618
13
14.604382809215494
23
104.99428283949231
33
236.18590779229618
70
1
  0
3DFACE
 8
hinges_half
10
54.42013089894506
20
104.99428283949231
30
236.18590779229618
11
14.604382809215494
21
104.99428283949231
31
243.28866369780795
12
54.42013089894506
22
104.99428283949231
32
243.28866369780795
13
54.42013089894506
23
104.99428283949231
33
243.28866369780795
70
3
  0
3DFACE
 8
hinges_half
10
54.42013089894506
20
104.99428283949231
30
243.28866369780795
11
14.604382809215494
21
104.99428283949231
31
243.28866369780795
12
14.604382809215494
22
104.99428283949231
32
250.39141960331972
13
14.604382809215494
23
104.99428283949231
33
250.39141960331972
70
13
  0
3DFACE
 8
hinges_half
10
54.42013089894506
20
104.99428283949231
30
243.28866369780795
11
14.604382809215494
21
104.99428283949231
31
250.39141960331972
12
54.42013089894506
22
104.99428283949231
32
250.39141960331972
13
54.42013089894506
23
104.99428283949231
33
250.39141960331972
70
1
  0
3DFACE
 8
hinges_half
10
54.42013089894506
20
104.99428283949231
30
243.28866369780795
11
54.42013089894506
21
101.44290488673643
31
249.43983074886108
12
54.42013089894506
22
98.84311578843918
32
246.84004165056385
13
54.42013089894506
23
98.84311578843918
33
246.84004165056385
70
0
  0
3DFACE
 8
hinges_half
10
54.42013089894506
20
108.5456607922482
30
237.1374966467548
11
54.42013089894506
21
104.99428283949231
31
243.28866369780795
12
54.42013089894506
22
104.99428283949231
32
236.18590779229618
13
54.42013089894506
23
104.99428283949231
33
236.18590779229618
70
0
  0
3DFACE
 8
hinges_half
10
54.42013089894506
20
104.99428283949231
30
243.28866369780795
11
14.604382809215494
21
108.5456607922482
31
237.1374966467548
12
54.42013089894506
22
108.5456607922482
32
237.1374966467548
13
54.42013089894506
23
108.5456607922482
33
237.1374966467548
70
1
  0
3DFACE
 8
hinges_half
10
14.604382809215494
20
108.5456607922482
30
237.1374966467548
11
54.42013089894506
21
104.99428283949231
31
243.28866369780795
12
14.604382809215494
22
104.99428283949231
32
243.28866369780795
13
14.604382809215494
23
104.99428283949231
33
243.28866369780795
70
3
  0
3DFACE
 8
hinges_half
10
14.604382809215494
20
104.99428283949231
30
243.28866369780795
11
54.42013089894506
21
104.99428283949231
31
243.28866369780795
12
54.42013089894506
22
101.44290488673643
32
249.43983074886108
13
54.42013089894506
23
101.44290488673643
33
249.43983074886108
70
13
  0
3DFACE
 8
hinges_half
10
14.604382809215494
20
104.99428283949231
30
243.28866369780795
11
54.42013089894506
21
101.44290488673643
31
249.43983074886108
12
14.604382809215494
22
101.44290488673643
32
249.43983074886108
13
14.604382809215494
23
101.44290488673643
33
249.43983074886108
70
1
  0
3DFACE
 8
hinges_half
10
54.42013089894506
20
111.14544989054545
30
239.73728574505205
11
54.42013089894506
21
104.99428283949231
31
243.28866369780795
12
54.42013089894506
22
108.5456607922482
32
237.1374966467548
13
54.42013089894506
23
108.5456607922482
33
237.1374966467548
70
0
  0
3DFACE
 8
hinges_half
10
54.42013089894506
20
104.99428283949231
30
243.28866369780795
11
54.42013089894506
21
98.84311578843918
31
246.84004165056385
12
54.42013089894506
22
97.89152693398054
32
243.28866369780795
13
54.42013089894506
23
97.89152693398054
33
243.28866369780795
70
0
  0
3DFACE
 8
hinges_half
10
54.42013089894506
20
111.14544989054545
30
239.73728574505205
11
14.604382809215494
21
104.99428283949231
31
243.28866369780795
12
14.604382809215494
22
111.14544989054545
32
239.73728574505205
13
14.604382809215494
23
111.14544989054545
33
239.73728574505205
70
1
  0
3DFACE
 8
hinges_half
10
14.604382809215494
20
104.99428283949231
30
243.28866369780795
11
54.42013089894506
21
111.14544989054545
31
239.73728574505205
12
14.604382809215494
22
98.84311578843918
32
246.84004165056385
13
14.604382809215494
23
98.84311578843918
33
246.84004165056385
70
3
  0
3DFACE
 8
hinges_half
10
14.604382809215494
20
98.84311578843918
30
246.84004165056385
11
54.42013089894506
21
111.14544989054545
31
239.73728574505205
12
54.42013089894506
22
98.84311578843918
32
246.84004165056385
13
54.42013089894506
23
98.84311578843918
33
246.84004165056385
70
3
  0
3DFACE
 8
hinges_half
10
54.42013089894506
20
98.84311578843918
30
246.84004165056385
11
54.42013089894506
21
111.14544989054545
31
239.73728574505205
12
54.42013089894506
22
104.99428283949231
32
243.28866369780795
13
54.42013089894506
23
104.99428283949231
33
243.28866369780795
70
1
  0
3DFACE
 8
hinges_half
10
54.42013089894506
20
104.99428283949231
30
243.28866369780795
11
54.42013089894506
21
97.89152693398054
31
243.28866369780795
12
54.42013089894506
22
98.84311578843918
32
239.73728574505208
13
54.42013089894506
23
98.84311578843918
33
239.73728574505208
70
0
  0
3DFACE
 8
hinges_half
10
54.42013089894506
20
111.14544989054545
30
246.84004165056382
11
54.42013089894506
21
108.5456607922482
31
249.43983074886108
12
54.42013089894506
22
104.99428283949231
32
243.28866369780795
13
54.42013089894506
23
104.99428283949231
33
243.28866369780795
70
0
  0
3DFACE
 8
hinges_half
10
54.42013089894506
20
111.14544989054545
30
246.84004165056382
11
14.604382809215494
21
104.99428283949231
31
243.28866369780795
12
14.604382809215494
22
111.14544989054545
32
246.84004165056382
13
14.604382809215494
23
111.14544989054545
33
246.84004165056382
70
1
  0
3DFACE
 8
hinges_half
10
14.604382809215494
20
104.99428283949231
30
243.28866369780795
11
54.42013089894506
21
111.14544989054545
31
246.84004165056382
12
14.604382809215494
22
98.84311578843918
32
239.73728574505208
13
14.604382809215494
23
98.84311578843918
33
239.73728574505208
70
3
  0
3DFACE
 8
hinges_half
10
14.604382809215494
20
98.84311578843918
30
239.73728574505208
11
54.42013089894506
21
111.14544989054545
31
246.84004165056382
12
54.42013089894506
22
98.84311578843918
32
239.73728574505208
13
54.42013089894506
23
98.84311578843918
33
239.73728574505208
70
3
  0
3DFACE
 8
hinges_half
10
54.42013089894506
20
98.84311578843918
30
239.73728574505208
11
54.42013089894506
21
111.14544989054545
31
246.84004165056382
12
54.42013089894506
22
104.99428283949231
32
243.28866369780795
13
54.42013089894506
23
104.99428283949231
33
243.28866369780795
70
1
  0
3DFACE
 8
hinges_half
10
54.42013089894506
20
104.99428283949231
30
243.28866369780795
11
54.42013089894506
21
98.84311578843918
31
239.73728574505208
12
54.42013089894506
22
101.44290488673643
32
237.1374966467548
13
54.42013089894506
23
101.44290488673643
33
237.1374966467548
70
0
  0
3DFACE
 8
hinges_half
10
54.42013089894506
20
108.5456607922482
30
249.43983074886108
11
54.42013089894506
21
104.99428283949231
31
250.39141960331972
12
54.42013089894506
22
104.99428283949231
32
243.28866369780795
13
54.42013089894506
23
104.99428283949231
33
243.28866369780795
70
0
  0
3DFACE
 8
hinges_half
10
14.604382809215494
20
104.99428283949231
30
243.28866369780795
11
54.42013089894506
21
101.44290488673643
31
237.1374966467548
12
14.604382809215494
22
101.44290488673643
32
237.1374966467548
13
14.604382809215494
23
101.44290488673643
33
237.1374966467548
70
1
  0
3DFACE
 8
hinges_half
10
54.42013089894506
20
101.44290488673643
30
237.1374966467548
11
14.604382809215494
21
104.99428283949231
31
243.28866369780795
12
54.42013089894506
22
104.99428283949231
32
243.28866369780795
13
54.42013089894506
23
104.99428283949231
33
243.28866369780795
70
3
  0
3DFACE
 8
hinges_half
10
54.42013089894506
20
104.99428283949231
30
243.28866369780795
11
14.604382809215494
21
104.99428283949231
31
243.28866369780795
12
14.604382809215494
22
108.5456607922482
32
249.43983074886108
13
14.604382809215494
23
108.5456607922482
33
249.43983074886108
70
13
  0
3DFACE
 8
hinges_half
10
54.42013089894506
20
104.99428283949231
30
243.28866369780795
11
14.604382809215494
21
108.5456607922482
31
249.43983074886108
12
54.42013089894506
22
108.5456607922482
32
249.43983074886108
13
54.42013089894506
23
108.5456607922482
33
249.43983074886108
70
1
  0
3DFACE
 8
hinges_half
10
118.74585968501914
20
108.5456607922482
30
237.1374966467548
11
118.74585968501914
21
104.99428283949231
31
236.18590779229618
12
118.74585968501914
22
104.99428283949231
32
243.28866369780795
13
118.74585968501914
23
104.99428283949231
33
243.28866369780795
70
0
  0
3DFACE
 8
hinges_half
10
118.74585968501914
20
104.99428283949231
30
243.28866369780795
11
118.74585968501914
21
101.44290488673643
31
249.43983074886108
12
118.74585968501914
22
104.99428283949231
32
250.39141960331972
13
118.74585968501914
23
104.99428283949231
33
250.39141960331972
70
0
  0
3DFACE
 8
hinges_half
10
118.74585968501914
20
111.14544989054545
30
239.73728574505205
11
118.74585968501914
21
108.5456607922482
31
237.1374966467548
12
118.74585968501914
22
104.99428283949231
32
243.28866369780795
13
118.74585968501914
23
104.99428283949231
33
243.28866369780795
70
0
  0
3DFACE
 8
hinges_half
10
118.74585968501914
20
112.09703874500408
30
243.28866369780795
11
118.74585968501914
21
111.14544989054545
31
239.73728574505205
12
118.74585968501914
22
104.99428283949231
32
243.28866369780795
13
118.74585968501914
23
104.99428283949231
33
243.28866369780795
70
0
  0
3DFACE
 8
hinges_half
10
118.74585968501914
20
104.99428283949231
30
243.28866369780795
11
118.74585968501914
21
98.84311578843918
31
246.84004165056385
12
118.74585968501914
22
101.44290488673643
32
249.43983074886108
13
118.74585968501914
23
101.44290488673643
33
249.43983074886108
70
0
  0
3DFACE
 8
hinges_half
10
118.74585968501914
20
112.09703874500408
30
243.28866369780795
11
118.74585968501914
21
104.99428283949231
31
243.28866369780795
12
118.74585968501914
22
111.14544989054545
32
246.84004165056382
13
118.74585968501914
23
111.14544989054545
33
246.84004165056382
70
0
  0
3DFACE
 8
hinges_half
10
118.74585968501914
20
104.99428283949231
30
243.28866369780795
11
118.74585968501914
21
97.89152693398054
31
243.28866369780795
12
118.74585968501914
22
98.84311578843918
32
246.84004165056385
13
118.74585968501914
23
98.84311578843918
33
246.84004165056385
70
0
  0
3DFACE
 8
hinges_half
10
118.74585968501914
20
108.5456607922482
30
249.43983074886108
11
118.74585968501914
21
104.99428283949231
31
243.28866369780795
12
118.74585968501914
22
104.99428283949231
32
250.39141960331972
13
118.74585968501914
23
104.99428283949231
33
250.39141960331972
70
0
  0
3DFACE
 8
hinges_half
10
118.74585968501914
20
104.99428283949231
30
243.28866369780795
11
118.74585968501914
21
98.84311578843918
31
239.73728574505208
12
118.74585968501914
22
97.89152693398054
32
243.28866369780795
13
118.74585968501914
23
97.89152693398054
33
243.28866369780795
70
0
  0
3DFACE
 8
hinges_half
10
118.74585968501914
20
104.99428283949231
30
236.18590779229618
11
118.74585968501914
21
101.44290488673643
31
237.1374966467548
12
118.74585968501914
22
104.99428283949231
32
243.28866369780795
13
118.74585968501914
23
104.99428283949231
33
243.28866369780795
70
0
  0
3DFACE
 8
hinges_half
10
118.74585968501914
20
111.14544989054545
30
246.84004165056382
11
118.74585968501914
21
104.99428283949231
31
243.28866369780795
12
118.74585968501914
22
108.5456607922482
32
249.43983074886108
13
118.74585968501914
23
108.5456607922482
33
249.43983074886108
70
0
  0
3DFACE
 8
hinges_half
10
158.56160777474872
20
104.99428283949231
30
243.28866369780795
11
158.56160777474872
21
101.44290488673643
31
237.1374966467548
12
158.56160777474872
22
104.99428283949231
32
236.18590779229618
13
158.56160777474872
23
104.99428283949231
33
236.18590779229618
70
0
  0
3DFACE
 8
hinges_half
10
118.74585968501914
20
104.99428283949231
30
243.28866369780795
11
158.56160777474872
21
104.99428283949231
31
236.18590779229618
12
118.74585968501914
22
104.99428283949231
32
236.18590779229618
13
118.74585968501914
23
104.99428283949231
33
236.18590779229618
70
1
  0
3DFACE
 8
hinges_half
10
158.56160777474872
20
104.99428283949231
30
236.18590779229618
11
118.74585968501914
21
104.99428283949231
31
243.28866369780795
12
158.56160777474872
22
104.99428283949231
32
243.28866369780795
13
158.56160777474872
23
104.99428283949231
33
243.28866369780795
70
3
  0
3DFACE
 8
hinges_half
10
158.56160777474872
20
104.99428283949231
30
243.28866369780795
11
118.74585968501914
21
104.99428283949231
31
243.28866369780795
12
118.74585968501914
22
104.99428283949231
32
250.39141960331972
13
118.74585968501914
23
104.99428283949231
33
250.39141960331972
70
13
  0
3DFACE
 8
hinges_half
10
158.56160777474872
20
104.99428283949231
30
243.28866369780795
11
118.74585968501914
21
104.99428283949231
31
250.39141960331972
12
158.56160777474872
22
104.99428283949231
32
250.39141960331972
13
158.56160777474872
23
104.99428283949231
33
250.39141960331972
70
1
  0
3DFACE
 8
hinges_half
10
158.56160777474872
20
108.5456607922482
30
249.43983074886108
11
158.56160777474872
21
104.99428283949231
31
250.39141960331972
12
158.56160777474872
22
104.99428283949231
32
243.28866369780795
13
158.56160777474872
23
104.99428283949231
33
243.28866369780795
70
0
  0
3DFACE
 8
hinges_half
10
158.56160777474872
20
104.99428283949231
30
243.28866369780795
11
158.56160777474872
21
98.84311578843918
31
239.73728574505208
12
158.56160777474872
22
101.44290488673643
32
237.1374966467548
13
158.56160777474872
23
101.44290488673643
33
237.1374966467548
70
0
  0
3DFACE
 8
hinges_half
10
118.74585968501914
20
104.99428283949231
30
243.28866369780795
11
158.56160777474872
21
101.44290488673643
31
237.1374966467548
12
118.74585968501914
22
101.44290488673643
32
237.1374966467548
13
118.74585968501914
23
101.44290488673643
33
237.1374966467548
70
1
  0
3DFACE
 8
hinges_half
10
158.56160777474872
20
101.44290488673643
30
237.1374966467548
11
118.74585968501914
21
104.99428283949231
31
243.28866369780795
12
158.56160777474872
22
104.99428283949231
32
243.28866369780795
13
158.56160777474872
23
104.99428283949231
33
243.28866369780795
70
3
  0
3DFACE
 8
hinges_half
10
158.56160777474872
20
104.99428283949231
30
243.28866369780795
11
118.74585968501914
21
104.99428283949231
31
243.28866369780795
12
118.74585968501914
22
108.5456607922482
32
249.43983074886108
13
118.74585968501914
23
108.5456607922482
33
249.43983074886108
70
13
  0
3DFACE
 8
hinges_half
10
158.56160777474872
20
104.99428283949231
30
243.28866369780795
11
118.74585968501914
21
108.5456607922482
31
249.43983074886108
12
158.56160777474872
22
108.5456607922482
32
249.43983074886108
13
158.56160777474872
23
108.5456607922482
33
249.43983074886108
70
1
  0
3DFACE
 8
hinges_half
10
158.56160777474872
20
104.99428283949231
30
243.28866369780795
11
158.56160777474872
21
97.89152693398054
31
243.28866369780795
12
158.56160777474872
22
98.84311578843918
32
239.73728574505208
13
158.56160777474872
23
98.84311578843918
33
239.73728574505208
70
0
  0
3DFACE
 8
hinges_half
10
158.56160777474872
20
111.14544989054545
30
246.84004165056382
11
158.56160777474872
21
108.5456607922482
31
249.43983074886108
12
158.56160777474872
22
104.99428283949231
32
243.28866369780795
13
158.56160777474872
23
104.99428283949231
33
243.28866369780795
70
0
  0
3DFACE
 8
hinges_half
10
158.56160777474872
20
111.14544989054545
30
246.84004165056382
11
118.74585968501914
21
104.99428283949231
31
243.28866369780795
12
118.74585968501914
22
111.14544989054545
32
246.84004165056382
13
118.74585968501914
23
111.14544989054545
33
246.84004165056382
70
1
  0
3DFACE
 8
hinges_half
10
118.74585968501914
20
104.99428283949231
30
243.28866369780795
11
158.56160777474872
21
111.14544989054545
31
246.84004165056382
12
118.74585968501914
22
98.84311578843918
32
239.73728574505208
13
118.74585968501914
23
98.84311578843918
33
239.73728574505208
70
3
  0
3DFACE
 8
hinges_half
10
118.74585968501914
20
98.84311578843918
30
239.73728574505208
11
158.56160777474872
21
111.14544989054545
31
246.84004165056382
12
158.56160777474872
22
98.84311578843918
32
239.73728574505208
13
158.56160777474872
23
98.84311578843918
33
239.73728574505208
70
3
  0
3DFACE
 8
hinges_half
10
158.56160777474872
20
98.84311578843918
30
239.73728574505208
11
158.56160777474872
21
111.14544989054545
31
246.84004165056382
12
158.56160777474872
22
104.99428283949231
32
243.28866369780795
13
158.56160777474872
23
104.99428283949231
33
243.28866369780795
70
1
  0
3DFACE
 8
hinges_half
10
158.56160777474872
20
104.99428283949231
30
250.39141960331972
11
158.56160777474872
21
101.44290488673643
31
249.43983074886108
12
158.56160777474872
22
104.99428283949231
32
243.28866369780795
13
158.56160777474872
23
104.99428283949231
33
243.28866369780795
70
0
  0
3DFACE
 8
hinges_half
10
158.56160777474872
20
112.09703874500408
30
243.28866369780795
11
158.56160777474872
21
111.14544989054545
31
246.84004165056382
12
158.56160777474872
22
104.99428283949231
32
243.28866369780795
13
158.56160777474872
23
104.99428283949231
33
243.28866369780795
70
0
  0
3DFACE
 8
hinges_half
10
158.56160777474872
20
112.09703874500408
30
243.28866369780795
11
118.74585968501914
21
104.99428283949231
31
243.28866369780795
12
118.74585968501914
22
112.09703874500408
32
243.28866369780795
13
118.74585968501914
23
112.09703874500408
33
243.28866369780795
70
1
  0
3DFACE
 8
hinges_half
10
118.74585968501914
20
104.99428283949231
30
243.28866369780795
11
158.56160777474872
21
112.09703874500408
31
243.28866369780795
12
118.74585968501914
22
97.89152693398054
32
243.28866369780795
13
118.74585968501914
23
97.89152693398054
33
243.28866369780795
70
3
  0
3DFACE
 8
hinges_half
10
118.74585968501914
20
97.89152693398054
30
243.28866369780795
11
158.56160777474872
21
112.09703874500408
31
243.28866369780795
12
158.56160777474872
22
97.89152693398054
32
243.28866369780795
13
158.56160777474872
23
97.89152693398054
33
243.28866369780795
70
3
  0
3DFACE
 8
hinges_half
10
158.56160777474872
20
97.89152693398054
30
243.28866369780795
11
158.56160777474872
21
112.09703874500408
31
243.28866369780795
12
158.56160777474872
22
104.99428283949231
32
243.28866369780795
13
158.56160777474872
23
104.99428283949231
33
243.28866369780795
70
1
  0
3DFACE
 8
hinges_half
10
158.56160777474872
20
108.5456607922482
30
237.1374966467548
11
158.56160777474872
21
104.99428283949231
31
243.28866369780795
12
158.56160777474872
22
104.99428283949231
32
236.18590779229618
13
158.56160777474872
23
104.99428283949231
33
236.18590779229618
70
0
  0
3DFACE
 8
hinges_half
10
158.56160777474872
20
104.99428283949231
30
243.28866369780795
11
158.56160777474872
21
98.84311578843918
31
246.84004165056385
12
158.56160777474872
22
97.89152693398054
32
243.28866369780795
13
158.56160777474872
23
97.89152693398054
33
243.28866369780795
70
0
  0
3DFACE
 8
hinges_half
10
158.56160777474872
20
104.99428283949231
30
243.28866369780795
11
118.74585968501914
21
108.5456607922482
31
237.1374966467548
12
158.56160777474872
22
108.5456607922482
32
237.1374966467548
13
158.56160777474872
23
108.5456607922482
33
237.1374966467548
70
1
  0
3DFACE
 8
hinges_half
10
118.74585968501914
20
108.5456607922482
30
237.1374966467548
11
158.56160777474872
21
104.99428283949231
31
243.28866369780795
12
118.74585968501914
22
104.99428283949231
32
243.28866369780795
13
118.74585968501914
23
104.99428283949231
33
243.28866369780795
70
3
  0
3DFACE
 8
hinges_half
10
118.74585968501914
20
104.99428283949231
30
243.28866369780795
11
158.56160777474872
21
104.99428283949231
31
243.28866369780795
12
158.56160777474872
22
101.44290488673643
32
249.43983074886108
13
158.56160777474872
23
101.44290488673643
33
249.43983074886108
70
13
  0
3DFACE
 8
hinges_half
10
118.74585968501914
20
104.99428283949231
30
243.28866369780795
11
158.56160777474872
21
101.44290488673643
31
249.43983074886108
12
118.74585968501914
22
101.44290488673643
32
249.43983074886108
13
118.74585968501914
23
101.44290488673643
33
249.43983074886108
70
1
  0
3DFACE
 8
hinges_half
10
158.56160777474872
20
104.99428283949231
30
243.28866369780795
11
158.56160777474872
21
101.44290488673643
31
249.43983074886108
12
158.56160777474872
22
98.84311578843918
32
246.84004165056385
13
158.56160777474872
23
98.84311578843918
33
246.84004165056385
70
0
  0
3DFACE
 8
hinges_half
10
158.56160777474872
20
112.09703874500408
30
243.28866369780795
11
158.56160777474872
21
104.99428283949231
31
243.28866369780795
12
158.56160777474872
22
111.14544989054545
32
239.73728574505205
13
158.56160777474872
23
111.14544989054545
33
239.73728574505205
70
0
  0
3DFACE
 8
hinges_half
10
158.56160777474872
20
98.84311578843918
30
246.84004165056385
11
118.74585968501914
21
104.99428283949231
31
243.28866369780795
12
118.74585968501914
22
98.84311578843918
32
246.84004165056385
13
118.74585968501914
23
98.84311578843918
33
246.84004165056385
70
1
  0
3DFACE
 8
hinges_half
10
118.74585968501914
20
104.99428283949231
30
243.28866369780795
11
158.56160777474872
21
98.84311578843918
31
246.84004165056385
12
118.74585968501914
22
111.14544989054545
32
239.73728574505205
13
118.74585968501914
23
111.14544989054545
33
239.73728574505205
70
3
  0
3DFACE
 8
hinges_half
10
118.74585968501914
20
111.14544989054545
30
239.73728574505205
11
158.56160777474872
21
98.84311578843918
31
246.84004165056385
12
158.56160777474872
22
111.14544989054545
32
239.73728574505205
13
158.56160777474872
23
111.14544989054545
33
239.73728574505205
70
3
  0
3DFACE
 8
hinges_half
10
158.56160777474872
20
111.14544989054545
30
239.73728574505205
11
158.56160777474872
21
98.84311578843918
31
246.84004165056385
12
158.56160777474872
22
104.99428283949231
32
243.28866369780795
13
158.56160777474872
23
104.99428283949231
33
243.28866369780795
70
1
  0
LINE
 8
lid
10
173.57615198054154
20
89.62086612360419
30
247.01850393700798
11
173.57615198059867
21
89.61894967981907
31
247.0180258490584
  0
LINE
 8
lid
10
173.5761520091809
20
101.88267226235872
30
231.96338551235425
11
173.62378941037633
21
101.88267714864598
31
231.96338582677174
  0
3DFACE
 8
lid
10
155.25962204721512
20
-94.91475962800925
30
200.98174278680736
11
173.40095962196486
21
-61.09528078179717
31
209.41850264783722
12
155.25962103928768
22
-61.09527615457002
32
209.41889763779537
13
155.25962103928768
23
-61.09527615457002
33
209.41889763779537
70
1
  0
3DFACE
 8
lid
10
173.40095962196486
20
-61.09528078179717
30
209.41850264783722
11
155.25962204721512
21
-94.91475962800925
31
200.98174278680736
12
155.2596220472446
22
-94.91574859551494
32
200.98149606299222
13
155.2596220472446
23
-94.91574859551494
33
200.98149606299222
70
13
  0
3DFACE
 8
lid
10
173.40095962196486
20
-61.09528078179717
30
209.41850264783722
11
155.2596220472446
21
-94.91574859551494
31
200.98149606299222
12
173.40096062992177
22
-94.91575322274208
32
200.98149477382145
13
173.40096062992177
23
-94.91575322274208
33
200.98149477382145
70
1
  0
3DFACE
 8
lid
10
18.758553285672875
20
98.66928670640114
30
244.8444881889765
11
18.758559055118518
21
-94.91575266367778
31
200.98149606299222
12
18.75855926275502
22
-101.88268179753607
32
194.81220472440953
13
18.75855926275502
23
-101.88268179753607
33
194.81220472440953
70
1
  0
3DFACE
 8
lid
10
18.758559055118518
20
-94.91575266367778
30
200.98149606299222
11
18.758553285672875
21
98.66928670640114
31
244.8444881889765
12
18.758558047161614
22
-61.09528022273286
32
209.41889763779537
13
18.758558047161614
23
-61.09528022273286
33
209.41889763779537
70
3
  0
3DFACE
 8
lid
10
18.758558047161614
20
-61.09528022273286
30
209.41889763779537
11
18.758553285672875
21
98.66928670640114
31
244.8444881889765
12
18.758554555475172
22
56.06298749380262
32
238.6468503937009
13
18.758554555475172
23
56.06298749380262
33
238.6468503937009
70
3
  0
3DFACE
 8
lid
10
18.758554555475172
20
56.06298749380262
30
238.6468503937009
11
18.758553285672875
21
98.66928670640114
31
244.8444881889765
12
18.758553555344527
22
89.62086150955072
32
247.01850393700798
13
18.758553555344527
23
89.62086150955072
33
247.01850393700798
70
1
  0
3DFACE
 8
lid
10
54.371033870478705
20
89.61503930110042
30
247.01705118848423
11
68.94111261046264
21
89.62086300514947
31
247.01850393700798
12
54.371033870305155
22
89.62086257091512
32
247.01850393700798
13
54.371033870305155
23
89.62086257091512
33
247.01850393700798
70
1
  0
3DFACE
 8
lid
10
68.94111261046264
20
89.62086300514947
30
247.01850393700798
11
54.371033870478705
21
89.61503930110042
31
247.01705118848423
12
54.371033870788715
22
89.6046374506915
32
247.01445620777636
13
54.371033870788715
23
89.6046374506915
33
247.01445620777636
70
13
  0
3DFACE
 8
lid
10
68.94111261046264
20
89.62086300514947
30
247.01850393700798
11
54.371033870788715
21
89.6046374506915
31
247.01445620777636
12
54.371038362122235
22
-61.09527916136846
32
209.41889763779537
13
54.371038362122235
23
-61.09527916136846
33
209.41889763779537
70
13
  0
3DFACE
 8
lid
10
68.94111261046264
20
89.62086300514947
30
247.01850393700798
11
54.371038362122235
21
-61.09527916136846
31
209.41889763779537
12
54.371039370079146
22
-94.91575160231338
32
200.98149606299222
13
54.371039370079146
23
-94.91575160231338
33
200.98149606299222
70
13
  0
3DFACE
 8
lid
10
68.94111261046264
20
89.62086300514947
30
247.01850393700798
11
54.371039370079146
21
-94.91575160231338
31
200.98149606299222
12
68.94111261059379
22
89.61646217847384
32
247.01740604706768
13
68.94111261059379
23
89.61646217847384
33
247.01740604706768
70
3
  0
3DFACE
 8
lid
10
68.94111261059379
20
89.61646217847384
30
247.01740604706768
11
54.371039370079146
21
-94.91575160231338
31
200.98149606299222
12
68.9411181101801
22
-94.91385437913766
32
200.98196926170036
13
68.9411181101801
23
-94.91385437913766
33
200.98196926170036
70
15
  0
3DFACE
 8
lid
10
68.9411181101801
20
-94.91385437913766
30
200.98196926170036
11
54.371039370079146
21
-94.91575160231338
31
200.98149606299222
12
68.94111811023663
22
-94.91575116807901
32
200.98149606299222
13
68.94111811023663
23
-94.91575116807901
33
200.98149606299222
70
1
  0
3DFACE
 8
lid
10
68.94111261059379
20
89.61646217847384
30
247.01740604706768
11
68.9411181101801
21
-94.91385437913766
31
200.98196926170036
12
68.94111261077951
22
89.61023080877725
32
247.01585148502548
13
68.94111261077951
23
89.61023080877725
33
247.01585148502548
70
1
  0
3DFACE
 8
lid
10
-5.499773591655099e-06
20
89.62086095048643
30
247.01850393700798
11
18.758553285672875
21
98.66928670640114
31
244.8444881889765
12
-5.769445243331006e-06
22
98.66928614733685
32
244.8444881889765
13
-5.769445243331006e-06
23
98.66928614733685
33
244.8444881889765
70
1
  0
3DFACE
 8
lid
10
18.758553285672875
20
98.66928670640114
30
244.8444881889765
11
-5.499773591655099e-06
21
89.62086095048643
31
247.01850393700798
12
18.758553555344527
22
89.62086150955072
32
247.01850393700798
13
18.758553555344527
23
89.62086150955072
33
247.01850393700798
70
1
  0
3DFACE
 8
lid
10
2.0763689256853013e-07
20
-101.88268235660034
30
194.81220472440953
11
18.758559055118518
21
-94.91575266367778
31
200.98149606299222
12
3.9834802123550617e-13
22
-94.91575322274208
32
200.98149606299222
13
3.9834802123550617e-13
23
-94.91575322274208
33
200.98149606299222
70
1
  0
3DFACE
 8
lid
10
18.758559055118518
20
-94.91575266367778
30
200.98149606299222
11
2.0763689256853013e-07
21
-101.88268235660034
31
194.81220472440953
12
18.75855926275502
22
-101.88268179753607
32
194.81220472440953
13
18.75855926275502
23
-101.88268179753607
33
194.81220472440953
70
1
  0
3DFACE
 8
lid
10
155.25962087534685
20
-55.5944887529952
30
216.04960629921268
11
155.25961754760118
21
56.06299156196549
31
238.6468503937009
12
155.25962103928768
22
-61.09527615457002
32
209.41889763779537
13
155.25962103928768
23
-61.09527615457002
33
209.41889763779537
70
1
  0
3DFACE
 8
lid
10
155.25961754760118
20
56.06299156196549
30
238.6468503937009
11
155.25962087534685
21
-55.5944887529952
31
216.04960629921268
12
155.25961785266122
22
45.827164790311954
32
241.3515748031497
13
155.25961785266122
23
45.827164790311954
33
241.3515748031497
70
1
  0
3DFACE
 8
lid
10
155.2596222548811
20
-101.8826777293732
30
194.81220472440953
11
173.40096062992177
21
-94.91575322274208
31
200.98149477382145
12
155.2596220472446
22
-94.91574859551494
32
200.98149606299222
13
155.2596220472446
23
-94.91574859551494
33
200.98149606299222
70
1
  0
3DFACE
 8
lid
10
173.40096062992177
20
-94.91575322274208
30
200.98149477382145
11
155.2596222548811
21
-101.8826777293732
31
194.81220472440953
12
173.40096083755827
22
-101.88268235660034
32
194.81220343523876
13
173.40096083755827
23
-101.88268235660034
33
194.81220343523876
70
1
  0
3DFACE
 8
lid
10
126.31788399433434
20
98.66928991200895
30
244.8444881889765
11
126.31788976377997
21
-94.91574945806998
31
200.98149606299222
12
126.31788997141648
22
-101.88267859192827
32
194.81220472440953
13
126.31788997141648
23
-101.88267859192827
33
194.81220472440953
70
1
  0
3DFACE
 8
lid
10
126.31788976377997
20
-94.91574945806998
30
200.98149606299222
11
126.31788399433434
21
98.66928991200895
31
244.8444881889765
12
126.31788426410866
22
89.61741980576197
32
247.0176445231636
13
126.31788426410866
23
89.61741980576197
33
247.0176445231636
70
3
  0
3DFACE
 8
lid
10
126.31788426410866
20
89.61741980576197
30
247.0176445231636
11
126.31788399433434
21
98.66928991200895
31
244.8444881889765
12
126.31788426406312
22
89.61894827418696
32
247.01802583563773
13
126.31788426406312
23
89.61894827418696
33
247.01802583563773
70
3
  0
3DFACE
 8
lid
10
126.31788426406312
20
89.61894827418696
30
247.01802583563773
11
126.31788399433434
21
98.66928991200895
31
244.8444881889765
12
126.317884264006
22
89.6208647151585
32
247.01850393700798
13
126.317884264006
23
89.6208647151585
33
247.01850393700798
70
1
  0
3DFACE
 8
lid
10
111.7745771773918
20
89.62086428172206
30
247.01850393700798
11
126.31788399433434
21
98.66928991200895
31
244.8444881889765
12
111.77457690772016
22
98.66928947857245
32
244.8444881889765
13
111.77457690772016
23
98.66928947857245
33
244.8444881889765
70
1
  0
3DFACE
 8
lid
10
126.31788399433434
20
98.66928991200895
30
244.8444881889765
11
111.7745771773918
21
89.62086428172206
31
247.01850393700798
12
126.317884264006
22
89.6208647151585
32
247.01850393700798
13
126.317884264006
23
89.6208647151585
33
247.01850393700798
70
1
  0
3DFACE
 8
lid
10
111.7745826771658
20
-94.91574989150647
30
200.98149606299222
11
111.77457690772016
21
98.66928947857245
31
244.8444881889765
12
111.7745828848023
22
-101.88267902536472
32
194.81220472440953
13
111.7745828848023
23
-101.88267902536472
33
194.81220472440953
70
1
  0
3DFACE
 8
lid
10
111.77457690772016
20
98.66928947857245
30
244.8444881889765
11
111.7745826771658
21
-94.91574989150647
31
200.98149606299222
12
111.7745771773918
22
89.62086428172206
32
247.01850393700798
13
111.7745771773918
23
89.62086428172206
33
247.01850393700798
70
1
  0
3DFACE
 8
lid
10
111.7745828848023
20
-101.88267902536472
30
194.81220472440953
11
126.31788976377997
21
-94.91574945806998
31
200.98149606299222
12
111.7745826771658
22
-94.91574989150647
32
200.98149606299222
13
111.7745826771658
23
-94.91574989150647
33
200.98149606299222
70
1
  0
3DFACE
 8
lid
10
126.31788976377997
20
-94.91574945806998
30
200.98149606299222
11
111.7745828848023
21
-101.88267902536472
31
194.81220472440953
12
126.31788997141648
22
-101.88267859192827
32
194.81220472440953
13
126.31788997141648
23
-101.88267859192827
33
194.81220472440953
70
1
  0
3DFACE
 8
lid
10
54.371033870305155
20
89.62086257091512
30
247.01850393700798
11
68.941112340791
21
98.66928820199992
31
244.8444881889765
12
54.37103360063351
22
98.66928776776554
32
244.8444881889765
13
54.37103360063351
23
98.66928776776554
33
244.8444881889765
70
1
  0
3DFACE
 8
lid
10
68.941112340791
20
98.66928820199992
30
244.8444881889765
11
54.371033870305155
21
89.62086257091512
31
247.01850393700798
12
68.94111261046264
22
89.62086300514947
32
247.01850393700798
13
68.94111261046264
23
89.62086300514947
33
247.01850393700798
70
1
  0
3DFACE
 8
lid
10
54.371039577715635
20
-101.88268073617166
30
194.81220472440953
11
68.94111811023663
21
-94.91575116807901
31
200.98149606299222
12
54.371039370079146
22
-94.91575160231338
32
200.98149606299222
13
54.371039370079146
23
-94.91575160231338
33
200.98149606299222
70
1
  0
3DFACE
 8
lid
10
68.94111811023663
20
-94.91575116807901
30
200.98149606299222
11
54.371039577715635
21
-101.88268073617166
31
194.81220472440953
12
68.94111831787316
22
-101.8826803019373
32
194.81220472440953
13
68.94111831787316
23
-101.8826803019373
33
194.81220472440953
70
1
  0
3DFACE
 8
lid
10
-4.499642948463389e-06
20
56.06298693473833
30
238.6468503937009
11
18.758553555344527
21
89.62086150955072
31
247.01850393700798
12
-5.499773591655099e-06
22
89.62086095048643
32
247.01850393700798
13
-5.499773591655099e-06
23
89.62086095048643
33
247.01850393700798
70
1
  0
3DFACE
 8
lid
10
18.758553555344527
20
89.62086150955072
30
247.01850393700798
11
-4.499642948463389e-06
21
56.06298693473833
31
238.6468503937009
12
18.758554555475172
22
56.06298749380262
32
238.6468503937009
13
18.758554555475172
23
56.06298749380262
33
238.6468503937009
70
1
  0
3DFACE
 8
lid
10
-1.1718973480512318e-06
20
-55.594493380222346
30
216.04960629921268
11
18.758554860535142
21
45.82716072214909
31
241.3515748031497
12
-4.194582979177852e-06
22
45.8271601630848
32
241.3515748031497
13
-4.194582979177852e-06
23
45.8271601630848
33
241.3515748031497
70
1
  0
3DFACE
 8
lid
10
18.758554860535142
20
45.82716072214909
30
241.3515748031497
11
-1.1718973480512318e-06
21
-55.594493380222346
31
216.04960629921268
12
18.758557883220774
22
-55.594492821158035
32
216.04960629921268
13
18.758557883220774
23
-55.594492821158035
33
216.04960629921268
70
1
  0
3DFACE
 8
lid
10
155.25961654757327
20
89.61742066705047
30
247.01764453815136
11
173.40095513014776
21
89.62086095048643
31
247.0185026478372
12
155.2596165474706
22
89.62086557771359
32
247.01850393700798
13
155.2596165474706
23
89.62086557771359
33
247.01850393700798
70
1
  0
3DFACE
 8
lid
10
173.40095513014776
20
89.62086095048643
30
247.0185026478372
11
155.25961654757327
21
89.61742066705047
31
247.01764453815136
12
155.25961654768776
22
89.61358009666061
32
247.01668643440806
13
155.25961654768776
23
89.61358009666061
33
247.01668643440806
70
13
  0
3DFACE
 8
lid
10
173.40095513014776
20
89.62086095048643
30
247.0185026478372
11
155.25961654768776
21
89.61358009666061
31
247.01668643440806
12
155.2596165477875
22
89.61023337167238
32
247.01585152984606
13
155.2596165477875
23
89.61023337167238
33
247.01585152984606
70
13
  0
3DFACE
 8
lid
10
173.40095513014776
20
89.62086095048643
30
247.0185026478372
11
155.2596165477875
21
89.61023337167238
31
247.01585152984606
12
155.25961654795418
22
89.60464044290792
32
247.0144562667884
13
155.25961654795418
23
89.60464044290792
33
247.0144562667884
70
13
  0
3DFACE
 8
lid
10
173.40095513014776
20
89.62086095048643
30
247.0185026478372
11
155.25961654795418
21
89.60464044290792
31
247.0144562667884
12
155.25961754760118
22
56.06299156196549
32
238.6468503937009
13
155.25961754760118
23
56.06299156196549
33
238.6468503937009
70
13
  0
3DFACE
 8
lid
10
173.40095513014776
20
89.62086095048643
30
247.0185026478372
11
155.25961754760118
21
56.06299156196549
31
238.6468503937009
12
173.40095613027842
22
56.06298693473833
32
238.64684910453013
13
173.40095613027842
23
56.06298693473833
33
238.64684910453013
70
1
  0
3DFACE
 8
lid
10
18.758558047161614
20
-61.09528022273286
30
209.41889763779537
11
-1.1718973480512318e-06
21
-55.594493380222346
31
216.04960629921268
12
-1.007956508480845e-06
22
-61.09528078179717
32
209.41850393700798
13
-1.007956508480845e-06
23
-61.09528078179717
33
209.41850393700798
70
1
  0
3DFACE
 8
lid
10
-1.1718973480512318e-06
20
-55.594493380222346
30
216.04960629921268
11
18.758558047161614
21
-61.09528022273286
31
209.41889763779537
12
18.758557883220774
22
-55.594492821158035
32
216.04960629921268
13
18.758557883220774
23
-55.594492821158035
33
216.04960629921268
70
1
  0
3DFACE
 8
lid
10
-4.194582979177852e-06
20
45.8271601630848
30
241.3515748031497
11
18.758554555475172
21
56.06298749380262
31
238.6468503937009
12
-4.499642948463389e-06
22
56.06298693473833
32
238.6468503937009
13
-4.499642948463389e-06
23
56.06298693473833
33
238.6468503937009
70
1
  0
3DFACE
 8
lid
10
18.758554555475172
20
56.06298749380262
30
238.6468503937009
11
-4.194582979177852e-06
21
45.8271601630848
31
241.3515748031497
12
18.758554860535142
22
45.82716072214909
32
241.3515748031497
13
18.758554860535142
23
45.82716072214909
33
241.3515748031497
70
1
  0
3DFACE
 8
lid
10
3.9834802123550617e-13
20
-94.91575322274208
30
200.98149606299222
11
18.758558047161614
21
-61.09528022273286
31
209.41889763779537
12
-1.007956508480845e-06
22
-61.09528078179717
32
209.41850393700798
13
-1.007956508480845e-06
23
-61.09528078179717
33
209.41850393700798
70
1
  0
3DFACE
 8
lid
10
18.758558047161614
20
-61.09528022273286
30
209.41889763779537
11
3.9834802123550617e-13
21
-94.91575322274208
31
200.98149606299222
12
18.758559055118518
22
-94.91575266367778
32
200.98149606299222
13
18.758559055118518
23
-94.91575266367778
33
200.98149606299222
70
1
  0
LINE
 8
lid
10
173.57615198059867
20
89.61894967981907
30
247.0180258490584
11
173.57615198063553
21
89.61771272440437
31
247.01771727049086
  0
LINE
 8
lid
10
173.57615198063553
20
89.61771272440437
30
247.01771727049086
11
173.5761519806727
21
89.61646528989151
31
247.01740607774255
  0
LINE
 8
lid
10
173.5761519806727
20
89.61646528989151
30
247.01740607774255
11
173.57615198071508
21
89.61504284452782
31
247.01705122570223
  0
3DFACE
 8
lid
10
155.25961785266122
20
45.827164790311954
30
241.3515748031497
11
173.40095613027842
21
56.06298693473833
31
238.64684910453013
12
155.25961754760118
22
56.06299156196549
32
238.6468503937009
13
155.25961754760118
23
56.06299156196549
33
238.6468503937009
70
1
  0
3DFACE
 8
lid
10
173.40095613027842
20
56.06298693473833
30
238.64684910453013
11
155.25961785266122
21
45.827164790311954
31
241.3515748031497
12
173.4009564353384
22
45.8271601630848
32
241.35157351397893
13
173.4009564353384
23
45.8271601630848
33
241.35157351397893
70
1
  0
3DFACE
 8
lid
10
155.2596165474706
20
89.62086557771359
30
247.01850393700798
11
173.40095486047613
21
98.66928614733685
31
244.84448689980573
12
155.25961627779895
22
98.66929077456398
32
244.8444881889765
13
155.25961627779895
23
98.66929077456398
33
244.8444881889765
70
1
  0
3DFACE
 8
lid
10
173.40095486047613
20
98.66928614733685
30
244.84448689980573
11
155.2596165474706
21
89.62086557771359
31
247.01850393700798
12
173.40095513014776
22
89.62086095048643
32
247.0185026478372
13
173.40095513014776
23
89.62086095048643
33
247.0185026478372
70
1
  0
3DFACE
 8
lid
10
155.25962087534685
20
-55.5944887529952
30
216.04960629921268
11
173.4009564353384
21
45.8271601630848
31
241.35157351397893
12
155.25961785266122
22
45.827164790311954
32
241.3515748031497
13
155.25961785266122
23
45.827164790311954
33
241.3515748031497
70
1
  0
3DFACE
 8
lid
10
173.4009564353384
20
45.8271601630848
30
241.35157351397893
11
155.25962087534685
21
-55.5944887529952
31
216.04960629921268
12
173.40095945802403
22
-55.594493380222346
32
216.04960501004192
13
173.40095945802403
23
-55.594493380222346
33
216.04960501004192
70
1
  0
3DFACE
 8
lid
10
173.40095945802403
20
-55.594493380222346
30
216.04960501004192
11
155.25962103928768
21
-61.09527615457002
31
209.41889763779537
12
173.40095962196486
22
-61.09528078179717
32
209.41850264783722
13
173.40095962196486
23
-61.09528078179717
33
209.41850264783722
70
1
  0
3DFACE
 8
lid
10
155.25962103928768
20
-61.09527615457002
30
209.41889763779537
11
173.40095945802403
21
-55.594493380222346
31
216.04960501004192
12
155.25962087534685
22
-55.5944887529952
32
216.04960629921268
13
155.25962087534685
23
-55.5944887529952
33
216.04960629921268
70
1
  0
3DFACE
 8
lid
10
68.941112340791
20
98.66928820199992
30
244.8444881889765
11
68.94111811023663
21
-94.91575116807901
31
200.98149606299222
12
68.94111831787316
22
-101.8826803019373
32
194.81220472440953
13
68.94111831787316
23
-101.8826803019373
33
194.81220472440953
70
1
  0
3DFACE
 8
lid
10
68.94111811023663
20
-94.91575116807901
30
200.98149606299222
11
68.941112340791
21
98.66928820199992
31
244.8444881889765
12
68.9411181101801
22
-94.91385437913766
32
200.98196926170036
13
68.9411181101801
23
-94.91385437913766
33
200.98196926170036
70
3
  0
3DFACE
 8
lid
10
68.9411181101801
20
-94.91385437913766
30
200.98196926170036
11
68.941112340791
21
98.66928820199992
31
244.8444881889765
12
68.94111261077951
22
89.61023080877725
32
247.01585148502548
13
68.94111261077951
23
89.61023080877725
33
247.01585148502548
70
3
  0
3DFACE
 8
lid
10
68.94111261077951
20
89.61023080877725
30
247.01585148502548
11
68.941112340791
21
98.66928820199992
31
244.8444881889765
12
68.94111261059379
22
89.61646217847384
32
247.01740604706768
13
68.94111261059379
23
89.61646217847384
33
247.01740604706768
70
3
  0
3DFACE
 8
lid
10
68.94111261059379
20
89.61646217847384
30
247.01740604706768
11
68.941112340791
21
98.66928820199992
31
244.8444881889765
12
68.94111261046264
22
89.62086300514947
32
247.01850393700798
13
68.94111261046264
23
89.62086300514947
33
247.01850393700798
70
1
  0
3DFACE
 8
lid
10
54.371039370079146
20
-94.91575160231338
30
200.98149606299222
11
54.37103360063351
21
98.66928776776554
31
244.8444881889765
12
54.371039577715635
22
-101.88268073617166
32
194.81220472440953
13
54.371039577715635
23
-101.88268073617166
33
194.81220472440953
70
1
  0
3DFACE
 8
lid
10
54.37103360063351
20
98.66928776776554
30
244.8444881889765
11
54.371039370079146
21
-94.91575160231338
31
200.98149606299222
12
54.371038362122235
22
-61.09527916136846
32
209.41889763779537
13
54.371038362122235
23
-61.09527916136846
33
209.41889763779537
70
13
  0
3DFACE
 8
lid
10
54.37103360063351
20
98.66928776776554
30
244.8444881889765
11
54.371038362122235
21
-61.09527916136846
31
209.41889763779537
12
54.371033870788715
22
89.6046374506915
32
247.01445620777636
13
54.371033870788715
23
89.6046374506915
33
247.01445620777636
70
13
  0
3DFACE
 8
lid
10
54.37103360063351
20
98.66928776776554
30
244.8444881889765
11
54.371033870788715
21
89.6046374506915
31
247.01445620777636
12
54.371033870478705
22
89.61503930110042
32
247.01705118848423
13
54.371033870478705
23
89.61503930110042
33
247.01705118848423
70
13
  0
3DFACE
 8
lid
10
54.37103360063351
20
98.66928776776554
30
244.8444881889765
11
54.371033870478705
21
89.61503930110042
31
247.01705118848423
12
54.371033870305155
22
89.62086257091512
32
247.01850393700798
13
54.371033870305155
23
89.62086257091512
33
247.01850393700798
70
1
  0
3DFACE
 8
lid
10
173.40096083755827
20
-101.88268235660034
30
194.81220343523876
11
1.7082673453572284e-07
21
-100.64757308805667
31
189.86102362204733
12
173.4009608007481
22
-100.64757308805667
32
189.86102233287656
13
173.4009608007481
23
-100.64757308805667
33
189.86102233287656
70
1
  0
3DFACE
 8
lid
10
1.7082673453572284e-07
20
-100.64757308805667
30
189.86102362204733
11
173.40096083755827
21
-101.88268235660034
31
194.81220343523876
12
2.0763689256853013e-07
22
-101.88268235660034
32
194.81220472440953
13
2.0763689256853013e-07
23
-101.88268235660034
33
194.81220472440953
70
3
  0
3DFACE
 8
lid
10
2.0763689256853013e-07
20
-101.88268235660034
30
194.81220472440953
11
173.40096083755827
21
-101.88268235660034
31
194.81220343523876
12
155.2596222548811
22
-101.8826777293732
32
194.81220472440953
13
155.2596222548811
23
-101.8826777293732
33
194.81220472440953
70
13
  0
3DFACE
 8
lid
10
2.0763689256853013e-07
20
-101.88268235660034
30
194.81220472440953
11
155.2596222548811
21
-101.8826777293732
31
194.81220472440953
12
126.31788997141648
22
-101.88267859192827
32
194.81220472440953
13
126.31788997141648
23
-101.88267859192827
33
194.81220472440953
70
13
  0
3DFACE
 8
lid
10
2.0763689256853013e-07
20
-101.88268235660034
30
194.81220472440953
11
126.31788997141648
21
-101.88267859192827
31
194.81220472440953
12
111.7745828848023
22
-101.88267902536472
32
194.81220472440953
13
111.7745828848023
23
-101.88267902536472
33
194.81220472440953
70
13
  0
3DFACE
 8
lid
10
2.0763689256853013e-07
20
-101.88268235660034
30
194.81220472440953
11
111.7745828848023
21
-101.88267902536472
31
194.81220472440953
12
68.94111831787316
22
-101.8826803019373
32
194.81220472440953
13
68.94111831787316
23
-101.8826803019373
33
194.81220472440953
70
13
  0
3DFACE
 8
lid
10
2.0763689256853013e-07
20
-101.88268235660034
30
194.81220472440953
11
68.94111831787316
21
-101.8826803019373
31
194.81220472440953
12
54.371039577715635
22
-101.88268073617166
32
194.81220472440953
13
54.371039577715635
23
-101.88268073617166
33
194.81220472440953
70
13
  0
3DFACE
 8
lid
10
2.0763689256853013e-07
20
-101.88268235660034
30
194.81220472440953
11
54.371039577715635
21
-101.88268073617166
31
194.81220472440953
12
18.75855926275502
22
-101.88268179753607
32
194.81220472440953
13
18.75855926275502
23
-101.88268179753607
33
194.81220472440953
70
1
  0
3DFACE
 8
lid
10
-5.830738838863425e-06
20
100.72590021948669
30
236.6003937007875
11
173.40095486047613
21
98.66928614733685
31
244.84448689980573
12
173.40095479918253
22
100.72590021948669
32
236.60039241161672
13
173.40095479918253
23
100.72590021948669
33
236.60039241161672
70
1
  0
3DFACE
 8
lid
10
173.40095486047613
20
98.66928614733685
30
244.84448689980573
11
-5.830738838863425e-06
21
100.72590021948669
31
236.6003937007875
12
-5.769445243331006e-06
22
98.66928614733685
32
244.8444881889765
13
-5.769445243331006e-06
23
98.66928614733685
33
244.8444881889765
70
13
  0
3DFACE
 8
lid
10
173.40095486047613
20
98.66928614733685
30
244.84448689980573
11
-5.769445243331006e-06
21
98.66928614733685
31
244.8444881889765
12
155.25961627779895
22
98.66929077456398
32
244.8444881889765
13
155.25961627779895
23
98.66929077456398
33
244.8444881889765
70
3
  0
3DFACE
 8
lid
10
155.25961627779895
20
98.66929077456398
30
244.8444881889765
11
-5.769445243331006e-06
21
98.66928614733685
31
244.8444881889765
12
18.758553285672875
22
98.66928670640114
32
244.8444881889765
13
18.758553285672875
23
98.66928670640114
33
244.8444881889765
70
13
  0
3DFACE
 8
lid
10
155.25961627779895
20
98.66929077456398
30
244.8444881889765
11
18.758553285672875
21
98.66928670640114
31
244.8444881889765
12
54.37103360063351
22
98.66928776776554
32
244.8444881889765
13
54.37103360063351
23
98.66928776776554
33
244.8444881889765
70
13
  0
3DFACE
 8
lid
10
155.25961627779895
20
98.66929077456398
30
244.8444881889765
11
54.37103360063351
21
98.66928776776554
31
244.8444881889765
12
68.941112340791
22
98.66928820199992
32
244.8444881889765
13
68.941112340791
23
98.66928820199992
33
244.8444881889765
70
13
  0
3DFACE
 8
lid
10
155.25961627779895
20
98.66929077456398
30
244.8444881889765
11
68.941112340791
21
98.66928820199992
31
244.8444881889765
12
111.77457690772016
22
98.66928947857245
32
244.8444881889765
13
111.77457690772016
23
98.66928947857245
33
244.8444881889765
70
13
  0
3DFACE
 8
lid
10
155.25961627779895
20
98.66929077456398
30
244.8444881889765
11
111.77457690772016
21
98.66928947857245
31
244.8444881889765
12
126.31788399433434
22
98.66928991200895
32
244.8444881889765
13
126.31788399433434
23
98.66928991200895
33
244.8444881889765
70
1
  0
3DFACE
 8
lid
10
173.40095479918253
20
100.72590021948669
30
236.60039241161672
11
-5.830738838863425e-06
21
88.4413334658682
31
236.6003937007875
12
-5.830738838863425e-06
22
100.72590021948669
32
236.6003937007875
13
-5.830738838863425e-06
23
100.72590021948669
33
236.6003937007875
70
1
  0
3DFACE
 8
lid
10
-5.830738838863425e-06
20
88.4413334658682
30
236.6003937007875
11
173.40095479918253
21
100.72590021948669
31
236.60039241161672
12
43.74033778568689
22
88.4413334658682
32
236.60039337559454
13
43.74033778568689
23
88.4413334658682
33
236.60039337559454
70
3
  0
3DFACE
 8
lid
10
43.74033778568689
20
88.4413334658682
30
236.60039337559454
11
173.40095479918253
21
100.72590021948669
31
236.60039241161672
12
54.371033870305155
22
88.4413334658682
32
236.6003932965593
13
54.371033870305155
23
88.4413334658682
33
236.6003932965593
70
3
  0
3DFACE
 8
lid
10
54.371033870305155
20
88.4413334658682
30
236.6003932965593
11
173.40095479918253
21
100.72590021948669
31
236.60039241161672
12
68.91434614140894
22
88.44133256583937
32
236.6003932965593
13
68.91434614140894
23
88.44133256583937
33
236.6003932965593
70
3
  0
3DFACE
 8
lid
10
68.91434614140894
20
88.44133256583937
30
236.6003932965593
11
173.40095479918253
21
100.72590021948669
31
236.60039241161672
12
68.94111264561634
22
88.4413334350913
32
236.60039318823627
13
68.94111264561634
23
88.4413334350913
33
236.60039318823627
70
3
  0
3DFACE
 8
lid
10
68.94111264561634
20
88.4413334350913
30
236.60039318823627
11
173.40095479918253
21
100.72590021948669
31
236.60039241161672
12
111.7745772127613
22
88.44133346590662
32
236.6003928697856
13
111.7745772127613
23
88.44133346590662
33
236.6003928697856
70
3
  0
3DFACE
 8
lid
10
111.7745772127613
20
88.44133346590662
30
236.6003928697856
11
173.40095479918253
21
100.72590021948669
31
236.60039241161672
12
126.31788429915974
22
88.4413334658682
32
236.6003927616616
13
126.31788429915974
23
88.4413334658682
33
236.6003927616616
70
3
  0
3DFACE
 8
lid
10
126.31788429915974
20
88.4413334658682
30
236.6003927616616
11
173.40095479918253
21
100.72590021948669
31
236.60039241161672
12
173.40095479918253
22
88.4413334658682
32
236.60039241161672
13
173.40095479918253
23
88.4413334658682
33
236.60039241161672
70
1
  0
3DFACE
 8
lid
10
3.9834802123550617e-13
20
-94.91575322274208
30
200.98149606299222
11
1.7082673453572284e-07
21
-100.64757308805667
31
189.86102362204733
12
2.0763689256853013e-07
22
-101.88268235660034
32
194.81220472440953
13
2.0763689256853013e-07
23
-101.88268235660034
33
194.81220472440953
70
1
  0
3DFACE
 8
lid
10
1.7082673453572284e-07
20
-100.64757308805667
30
189.86102362204733
11
3.9834802123550617e-13
21
-94.91575322274208
31
200.98149606299222
12
1.7082673453572284e-07
22
-84.34409960499812
32
189.86102362204733
13
1.7082673453572284e-07
23
-84.34409960499812
33
189.86102362204733
70
1
  0
3DFACE
 8
lid
10
54.37103905501049
20
-84.34409829059867
30
189.86102321781914
11
1.7082673453572284e-07
21
-100.64757308805667
31
189.86102362204733
12
1.7082673453572284e-07
22
-84.34409960499812
32
189.86102362204733
13
1.7082673453572284e-07
23
-84.34409960499812
33
189.86102362204733
70
1
  0
3DFACE
 8
lid
10
1.7082673453572284e-07
20
-100.64757308805667
30
189.86102362204733
11
54.37103905501049
21
-84.34409829059867
31
189.86102321781914
12
173.4009608007481
22
-100.64757308805667
32
189.86102233287656
13
173.4009608007481
23
-100.64757308805667
33
189.86102233287656
70
3
  0
3DFACE
 8
lid
10
173.4009608007481
20
-100.64757308805667
30
189.86102233287656
11
54.37103905501049
21
-84.34409829059867
31
189.86102321781914
12
68.91435129096055
22
-84.34409829059867
32
189.86102321781914
13
68.91435129096055
23
-84.34409829059867
33
189.86102321781914
70
13
  0
3DFACE
 8
lid
10
173.4009608007481
20
-100.64757308805667
30
189.86102233287656
11
68.91435129096055
21
-84.34409829059867
31
189.86102321781914
12
68.94111779516797
22
-84.34409811448558
32
189.8610231094961
13
68.94111779516797
23
-84.34409811448558
33
189.8610231094961
70
13
  0
3DFACE
 8
lid
10
173.4009608007481
20
-100.64757308805667
30
189.86102233287656
11
68.94111779516797
21
-84.34409811448558
31
189.8610231094961
12
111.77458236206266
22
-84.34409690288955
32
189.86102279104543
13
111.77458236206266
23
-84.34409690288955
33
189.86102279104543
70
13
  0
3DFACE
 8
lid
10
173.4009608007481
20
-100.64757308805667
30
189.86102233287656
11
111.77458236206266
21
-84.34409690288955
31
189.86102279104543
12
126.31788944871136
22
-84.34409739056986
32
189.86102268292143
13
126.31788944871136
23
-84.34409739056986
33
189.86102268292143
70
13
  0
3DFACE
 8
lid
10
173.4009608007481
20
-100.64757308805667
30
189.86102233287656
11
126.31788944871136
21
-84.34409739056986
31
189.86102268292143
12
173.4009608007481
22
-84.34409541309498
32
189.86102233287656
13
173.4009608007481
23
-84.34409541309498
33
189.86102233287656
70
1
  0
3DFACE
 8
lid
10
111.7745826771658
20
-94.91574989150647
30
200.98149606299222
11
126.317884264006
21
89.6208647151585
31
247.01850393700798
12
111.7745771773918
22
89.62086428172206
32
247.01850393700798
13
111.7745771773918
23
89.62086428172206
33
247.01850393700798
70
1
  0
3DFACE
 8
lid
10
126.317884264006
20
89.6208647151585
30
247.01850393700798
11
111.7745826771658
21
-94.91574989150647
31
200.98149606299222
12
126.31788426410866
22
89.61741980576197
32
247.0176445231636
13
126.31788426410866
23
89.61741980576197
33
247.0176445231636
70
15
  0
3DFACE
 8
lid
10
126.31788426410866
20
89.61741980576197
30
247.0176445231636
11
111.7745826771658
21
-94.91574989150647
31
200.98149606299222
12
126.31788976377997
22
-94.91574945806998
32
200.98149606299222
13
126.31788976377997
23
-94.91574945806998
33
200.98149606299222
70
1
  0
3DFACE
 8
lid
10
126.317884264006
20
89.6208647151585
30
247.01850393700798
11
126.31788426410866
21
89.61741980576197
31
247.0176445231636
12
126.31788426406312
22
89.61894827418696
32
247.01802583563773
13
126.31788426406312
23
89.61894827418696
33
247.01802583563773
70
1
  0
3DFACE
 8
lid
10
68.94111264561634
20
88.4413334350913
30
236.60039318823627
11
68.91435129096055
21
-84.34409829059867
31
189.86102321781914
12
68.91434614140894
22
88.44133256583937
32
236.6003932965593
13
68.91434614140894
23
88.44133256583937
33
236.6003932965593
70
1
  0
3DFACE
 8
lid
10
68.91435129096055
20
-84.34409829059867
30
189.86102321781914
11
68.94111264561634
21
88.4413334350913
31
236.60039318823627
12
68.94111779516797
22
-84.34409811448558
32
189.8610231094961
13
68.94111779516797
23
-84.34409811448558
33
189.8610231094961
70
1
  0
3DFACE
 8
lid
10
43.74033778568689
20
88.4413334658682
30
236.60039337559454
11
1.7082673453572284e-07
21
-84.34409960499812
31
189.86102362204733
12
-5.830738838863425e-06
22
88.4413334658682
32
236.6003937007875
13
-5.830738838863425e-06
23
88.4413334658682
33
236.6003937007875
70
1
  0
3DFACE
 8
lid
10
1.7082673453572284e-07
20
-84.34409960499812
30
189.86102362204733
11
43.74033778568689
21
88.4413334658682
31
236.60039337559454
12
54.37103905501049
22
-84.34409829059867
32
189.86102321781914
13
54.37103905501049
23
-84.34409829059867
33
189.86102321781914
70
3
  0
3DFACE
 8
lid
10
54.37103905501049
20
-84.34409829059867
30
189.86102321781914
11
43.74033778568689
21
88.4413334658682
31
236.60039337559454
12
54.371033870305155
22
88.4413334658682
32
236.6003932965593
13
54.371033870305155
23
88.4413334658682
33
236.6003932965593
70
1
  0
3DFACE
 8
lid
10
111.7745772127613
20
88.44133346590662
30
236.6003928697856
11
68.94111779516797
21
-84.34409811448558
31
189.8610231094961
12
68.94111264561634
22
88.4413334350913
32
236.60039318823627
13
68.94111264561634
23
88.4413334350913
33
236.60039318823627
70
1
  0
3DFACE
 8
lid
10
68.94111779516797
20
-84.34409811448558
30
189.8610231094961
11
111.7745772127613
21
88.44133346590662
31
236.6003928697856
12
111.77458236206266
22
-84.34409690288955
32
189.86102279104543
13
111.77458236206266
23
-84.34409690288955
33
189.86102279104543
70
1
  0
3DFACE
 8
lid
10
173.40095479918253
20
88.4413334658682
30
236.60039241161672
11
126.31788944871136
21
-84.34409739056986
31
189.86102268292143
12
126.31788429915974
22
88.4413334658682
32
236.6003927616616
13
126.31788429915974
23
88.4413334658682
33
236.6003927616616
70
1
  0
3DFACE
 8
lid
10
126.31788944871136
20
-84.34409739056986
30
189.86102268292143
11
173.40095479918253
21
88.4413334658682
31
236.60039241161672
12
173.4009608007481
22
-84.34409541309498
32
189.86102233287656
13
173.4009608007481
23
-84.34409541309498
33
189.86102233287656
70
1
  0
3DFACE
 8
lid
10
173.40095613027842
20
56.06298693473833
30
238.64684910453013
11
173.40095945802403
21
-55.594493380222346
31
216.04960501004192
12
173.40095962196486
22
-61.09528078179717
32
209.41850264783722
13
173.40095962196486
23
-61.09528078179717
33
209.41850264783722
70
1
  0
3DFACE
 8
lid
10
173.40095945802403
20
-55.594493380222346
30
216.04960501004192
11
173.40095613027842
21
56.06298693473833
31
238.64684910453013
12
173.4009564353384
22
45.8271601630848
32
241.35157351397893
13
173.4009564353384
23
45.8271601630848
33
241.35157351397893
70
1
  0
3DFACE
 8
lid
10
173.4009608007481
20
-100.64757308805667
30
189.86102233287656
11
173.40096062992177
21
-94.91575322274208
31
200.98149477382145
12
173.40096083755827
22
-101.88268235660034
32
194.81220343523876
13
173.40096083755827
23
-101.88268235660034
33
194.81220343523876
70
1
  0
3DFACE
 8
lid
10
173.40096062992177
20
-94.91575322274208
30
200.98149477382145
11
173.4009608007481
21
-100.64757308805667
31
189.86102233287656
12
173.4009608007481
22
-84.34409541309498
32
189.86102233287656
13
173.4009608007481
23
-84.34409541309498
33
189.86102233287656
70
13
  0
3DFACE
 8
lid
10
173.40096062992177
20
-94.91575322274208
30
200.98149477382145
11
173.4009608007481
21
-84.34409541309498
31
189.86102233287656
12
173.40095962196486
22
-61.09528078179717
32
209.41850264783722
13
173.40095962196486
23
-61.09528078179717
33
209.41850264783722
70
3
  0
3DFACE
 8
lid
10
173.40095962196486
20
-61.09528078179717
30
209.41850264783722
11
173.4009608007481
21
-84.34409541309498
31
189.86102233287656
12
173.40095479918253
22
88.4413334658682
32
236.60039241161672
13
173.40095479918253
23
88.4413334658682
33
236.60039241161672
70
13
  0
3DFACE
 8
lid
10
173.40095962196486
20
-61.09528078179717
30
209.41850264783722
11
173.40095479918253
21
88.4413334658682
31
236.60039241161672
12
173.40095613027842
22
56.06298693473833
32
238.64684910453013
13
173.40095613027842
23
56.06298693473833
33
238.64684910453013
70
3
  0
3DFACE
 8
lid
10
173.40095613027842
20
56.06298693473833
30
238.64684910453013
11
173.40095479918253
21
88.4413334658682
31
236.60039241161672
12
173.40095513014776
22
89.62086095048643
32
247.0185026478372
13
173.40095513014776
23
89.62086095048643
33
247.0185026478372
70
3
  0
3DFACE
 8
lid
10
173.40095513014776
20
89.62086095048643
30
247.0185026478372
11
173.40095479918253
21
88.4413334658682
31
236.60039241161672
12
173.40095479918253
22
100.72590021948669
32
236.60039241161672
13
173.40095479918253
23
100.72590021948669
33
236.60039241161672
70
13
  0
3DFACE
 8
lid
10
173.40095513014776
20
89.62086095048643
30
247.0185026478372
11
173.40095479918253
21
100.72590021948669
31
236.60039241161672
12
173.40095486047613
22
98.66928614733685
32
244.84448689980573
13
173.40095486047613
23
98.66928614733685
33
244.84448689980573
70
1
  0
3DFACE
 8
lid
10
173.4567417214692
20
-84.3440954164166
30
189.86102362204733
11
173.4009608007481
21
-84.34409541309498
31
189.86102233287656
12
173.40095479918253
22
88.4413334658682
32
236.60039241161672
13
173.40095479918253
23
88.4413334658682
33
236.60039241161672
70
0
  0
3DFACE
 8
lid
10
-5.499773591655099e-06
20
89.62086095048643
30
247.01850393700798
11
-5.830738838863425e-06
21
100.72590021948669
31
236.6003937007875
12
-5.830738838863425e-06
22
88.4413334658682
32
236.6003937007875
13
-5.830738838863425e-06
23
88.4413334658682
33
236.6003937007875
70
1
  0
3DFACE
 8
lid
10
-5.830738838863425e-06
20
100.72590021948669
30
236.6003937007875
11
-5.499773591655099e-06
21
89.62086095048643
31
247.01850393700798
12
-5.769445243331006e-06
22
98.66928614733685
32
244.8444881889765
13
-5.769445243331006e-06
23
98.66928614733685
33
244.8444881889765
70
1
  0
3DFACE
 8
lid
10
-1.007956508480845e-06
20
-61.09528078179717
30
209.41850393700798
11
1.7082673453572284e-07
21
-84.34409960499812
31
189.86102362204733
12
3.9834802123550617e-13
22
-94.91575322274208
32
200.98149606299222
13
3.9834802123550617e-13
23
-94.91575322274208
33
200.98149606299222
70
1
  0
3DFACE
 8
lid
10
1.7082673453572284e-07
20
-84.34409960499812
30
189.86102362204733
11
-1.007956508480845e-06
21
-61.09528078179717
31
209.41850393700798
12
-5.830738838863425e-06
22
88.4413334658682
32
236.6003937007875
13
-5.830738838863425e-06
23
88.4413334658682
33
236.6003937007875
70
3
  0
3DFACE
 8
lid
10
-5.830738838863425e-06
20
88.4413334658682
30
236.6003937007875
11
-1.007956508480845e-06
21
-61.09528078179717
31
209.41850393700798
12
-4.499642948463389e-06
22
56.06298693473833
32
238.6468503937009
13
-4.499642948463389e-06
23
56.06298693473833
33
238.6468503937009
70
13
  0
3DFACE
 8
lid
10
-5.830738838863425e-06
20
88.4413334658682
30
236.6003937007875
11
-4.499642948463389e-06
21
56.06298693473833
31
238.6468503937009
12
-5.499773591655099e-06
22
89.62086095048643
32
247.01850393700798
13
-5.499773591655099e-06
23
89.62086095048643
33
247.01850393700798
70
1
  0
3DFACE
 8
lid
10
-1.1718973480512318e-06
20
-55.594493380222346
30
216.04960629921268
11
-4.499642948463389e-06
21
56.06298693473833
31
238.6468503937009
12
-1.007956508480845e-06
22
-61.09528078179717
32
209.41850393700798
13
-1.007956508480845e-06
23
-61.09528078179717
33
209.41850393700798
70
1
  0
3DFACE
 8
lid
10
-4.499642948463389e-06
20
56.06298693473833
30
238.6468503937009
11
-1.1718973480512318e-06
21
-55.594493380222346
31
216.04960629921268
12
-4.194582979177852e-06
22
45.8271601630848
32
241.3515748031497
13
-4.194582979177852e-06
23
45.8271601630848
33
241.3515748031497
70
1
  0
LINE
 8
lid
10
173.57615198071508
20
89.61504284452782
30
247.01705122570223
11
173.40095479918253
21
88.4413334658682
31
236.60039241161672
  0
LINE
 8
lid
10
173.40096062992177
20
-94.91575322274208
30
200.98149477382145
11
173.4567417214692
21
-84.3440954164166
31
189.86102362204733
  0
3DFACE
 8
lid
10
155.2596220472446
20
-94.91574859551494
30
200.98149606299222
11
155.25961627779895
21
98.66929077456398
31
244.8444881889765
12
155.2596222548811
22
-101.8826777293732
32
194.81220472440953
13
155.2596222548811
23
-101.8826777293732
33
194.81220472440953
70
1
  0
3DFACE
 8
lid
10
155.25961627779895
20
98.66929077456398
30
244.8444881889765
11
155.2596220472446
21
-94.91574859551494
31
200.98149606299222
12
155.25962204721512
22
-94.91475962800925
32
200.98174278680736
13
155.25962204721512
23
-94.91475962800925
33
200.98174278680736
70
13
  0
3DFACE
 8
lid
10
155.25961627779895
20
98.66929077456398
30
244.8444881889765
11
155.25962204721512
21
-94.91475962800925
31
200.98174278680736
12
155.25962103928768
22
-61.09527615457002
32
209.41889763779537
13
155.25962103928768
23
-61.09527615457002
33
209.41889763779537
70
13
  0
3DFACE
 8
lid
10
155.25961627779895
20
98.66929077456398
30
244.8444881889765
11
155.25962103928768
21
-61.09527615457002
31
209.41889763779537
12
155.25961754760118
22
56.06299156196549
32
238.6468503937009
13
155.25961754760118
23
56.06299156196549
33
238.6468503937009
70
13
  0
3DFACE
 8
lid
10
155.25961627779895
20
98.66929077456398
30
244.8444881889765
11
155.25961754760118
21
56.06299156196549
31
238.6468503937009
12
155.25961654795418
22
89.60464044290792
32
247.0144562667884
13
155.25961654795418
23
89.60464044290792
33
247.0144562667884
70
13
  0
3DFACE
 8
lid
10
155.25961627779895
20
98.66929077456398
30
244.8444881889765
11
155.25961654795418
21
89.60464044290792
31
247.0144562667884
12
155.2596165477875
22
89.61023337167238
32
247.01585152984606
13
155.2596165477875
23
89.61023337167238
33
247.01585152984606
70
13
  0
3DFACE
 8
lid
10
155.25961627779895
20
98.66929077456398
30
244.8444881889765
11
155.2596165477875
21
89.61023337167238
31
247.01585152984606
12
155.25961654768776
22
89.61358009666061
32
247.01668643440806
13
155.25961654768776
23
89.61358009666061
33
247.01668643440806
70
13
  0
3DFACE
 8
lid
10
155.25961627779895
20
98.66929077456398
30
244.8444881889765
11
155.25961654768776
21
89.61358009666061
31
247.01668643440806
12
155.25961654757327
22
89.61742066705047
32
247.01764453815136
13
155.25961654757327
23
89.61742066705047
33
247.01764453815136
70
13
  0
3DFACE
 8
lid
10
155.25961627779895
20
98.66929077456398
30
244.8444881889765
11
155.25961654757327
21
89.61742066705047
31
247.01764453815136
12
155.2596165474706
22
89.62086557771359
32
247.01850393700798
13
155.2596165474706
23
89.62086557771359
33
247.01850393700798
70
1
  0
3DFACE
 8
lid
10
155.25962103928768
20
-61.09527615457002
30
209.41889763779537
11
173.40095613027842
21
56.06298693473833
31
238.64684910453013
12
155.25961754760118
22
56.06299156196549
32
238.6468503937009
13
155.25961754760118
23
56.06299156196549
33
238.6468503937009
70
1
  0
3DFACE
 8
lid
10
173.40095613027842
20
56.06298693473833
30
238.64684910453013
11
155.25962103928768
21
-61.09527615457002
31
209.41889763779537
12
173.40095962196486
22
-61.09528078179717
32
209.41850264783722
13
173.40095962196486
23
-61.09528078179717
33
209.41850264783722
70
1
  0
3DFACE
 8
lid
10
18.758554555475172
20
56.06298749380262
30
238.6468503937009
11
18.758557883220774
21
-55.594492821158035
31
216.04960629921268
12
18.758558047161614
22
-61.09528022273286
32
209.41889763779537
13
18.758558047161614
23
-61.09528022273286
33
209.41889763779537
70
1
  0
3DFACE
 8
lid
10
18.758557883220774
20
-55.594492821158035
30
216.04960629921268
11
18.758554555475172
21
56.06298749380262
31
238.6468503937009
12
18.758554860535142
22
45.82716072214909
32
241.3515748031497
13
18.758554860535142
23
45.82716072214909
33
241.3515748031497
70
1
  0
3DFACE
 8
lid
10
-1.007956508480845e-06
20
-61.09528078179717
30
209.41850393700798
11
18.758554555475172
21
56.06298749380262
31
238.6468503937009
12
-4.499642948463389e-06
22
56.06298693473833
32
238.6468503937009
13
-4.499642948463389e-06
23
56.06298693473833
33
238.6468503937009
70
1
  0
3DFACE
 8
lid
10
18.758554555475172
20
56.06298749380262
30
238.6468503937009
11
-1.007956508480845e-06
21
-61.09528078179717
31
209.41850393700798
12
18.758558047161614
22
-61.09528022273286
32
209.41889763779537
13
18.758558047161614
23
-61.09528022273286
33
209.41889763779537
70
1
  0
3DFACE
 8
lid_panels
10
18.75855926275502
20
-101.88268179753607
30
194.81220472440953
11
54.37103360063351
21
98.66928776776552
31
244.8444881889765
12
18.758553285672875
22
98.66928670640112
32
244.8444881889765
13
18.758553285672875
23
98.66928670640112
33
244.8444881889765
70
1
  0
3DFACE
 8
lid_panels
10
54.37103360063351
20
98.66928776776552
30
244.8444881889765
11
18.75855926275502
21
-101.88268179753607
31
194.81220472440953
12
54.371039577715635
22
-101.88268073617166
32
194.81220472440953
13
54.371039577715635
23
-101.88268073617166
33
194.81220472440953
70
1
  0
3DFACE
 8
lid_panels
10
68.94111831787316
20
-101.8826803019373
30
194.81220472440953
11
111.77457690772016
21
98.66928947857247
31
244.8444881889765
12
68.941112340791
22
98.6692882019999
32
244.8444881889765
13
68.941112340791
23
98.6692882019999
33
244.8444881889765
70
1
  0
3DFACE
 8
lid_panels
10
111.77457690772016
20
98.66928947857247
30
244.8444881889765
11
68.94111831787316
21
-101.8826803019373
31
194.81220472440953
12
111.7745828848023
22
-101.88267902536472
32
194.81220472440953
13
111.7745828848023
23
-101.88267902536472
33
194.81220472440953
70
1
  0
3DFACE
 8
lid_panels
10
126.31788997141648
20
-101.88267859192827
30
194.81220472440953
11
155.25961627779895
21
98.66929077456399
31
244.8444881889765
12
126.31788399433434
22
98.66928991200894
32
244.8444881889765
13
126.31788399433434
23
98.66928991200894
33
244.8444881889765
70
1
  0
3DFACE
 8
lid_panels
10
155.25961627779895
20
98.66929077456399
30
244.8444881889765
11
126.31788997141648
21
-101.88267859192827
31
194.81220472440953
12
155.2596222548811
22
-101.8826777293732
32
194.81220472440953
13
155.2596222548811
23
-101.8826777293732
33
194.81220472440953
70
1
  0
3DFACE
 8
lid_panels
10
126.31788924104035
20
-77.37716733559479
30
196.03031412962812
11
111.77458236206266
21
-84.34409690288955
31
189.86102279104543
12
111.77458215442616
22
-77.37716776903129
32
196.03031412962812
13
111.77458215442616
23
-77.37716776903129
33
196.03031412962812
70
1
  0
3DFACE
 8
lid_panels
10
111.77458236206266
20
-84.34409690288955
30
189.86102279104543
11
126.31788924104035
21
-77.37716733559479
31
196.03031412962812
12
126.31788944871136
22
-84.34409739056986
32
189.86102268292143
13
126.31788944871136
23
-84.34409739056986
33
189.86102268292143
70
1
  0
3DFACE
 8
lid_panels
10
126.31788429915974
20
88.44133346586818
30
236.6003927616616
11
111.7745774822173
21
79.3929078355813
31
238.77440850969307
12
111.7745772127613
22
88.44133346590661
32
236.6003928697856
13
111.7745772127613
23
88.44133346590661
33
236.6003928697856
70
1
  0
3DFACE
 8
lid_panels
10
111.7745774822173
20
79.3929078355813
30
238.77440850969307
11
126.31788429915974
21
88.44133346586818
31
236.6003927616616
12
126.3178845688314
22
79.39290826901777
32
238.77440850969307
13
126.3178845688314
23
79.39290826901777
33
238.77440850969307
70
1
  0
3DFACE
 8
lid_panels
10
126.31788924104035
20
-77.37716733559479
30
196.03031412962812
11
126.31788429915974
21
88.44133346586818
31
236.6003927616616
12
126.31788944871136
22
-84.34409739056986
32
189.86102268292143
13
126.31788944871136
23
-84.34409739056986
33
189.86102268292143
70
1
  0
3DFACE
 8
lid_panels
10
126.31788429915974
20
88.44133346586818
30
236.6003927616616
11
126.31788924104035
21
-77.37716733559479
31
196.03031412962812
12
126.3178845688314
22
79.39290826901777
32
238.77440850969307
13
126.3178845688314
23
79.39290826901777
33
238.77440850969307
70
1
  0
3DFACE
 8
lid_panels
10
111.7745772127613
20
88.44133346590661
30
236.6003928697856
11
111.77458215442616
21
-77.37716776903129
31
196.03031412962812
12
111.77458236206266
22
-84.34409690288955
32
189.86102279104543
13
111.77458236206266
23
-84.34409690288955
33
189.86102279104543
70
1
  0
3DFACE
 8
lid_panels
10
111.77458215442616
20
-77.37716776903129
30
196.03031412962812
11
111.7745772127613
21
88.44133346590661
31
236.6003928697856
12
111.7745774822173
22
79.3929078355813
32
238.77440850969307
13
111.7745774822173
23
79.3929078355813
33
238.77440850969307
70
1
  0
3DFACE
 8
lid_panels
10
126.3178845688314
20
79.39290826901777
30
238.77440850969307
11
111.77458215442616
21
-77.37716776903129
31
196.03031412962812
12
111.7745774822173
22
79.3929078355813
32
238.77440850969307
13
111.7745774822173
23
79.3929078355813
33
238.77440850969307
70
1
  0
3DFACE
 8
lid_panels
10
111.77458215442616
20
-77.37716776903129
30
196.03031412962812
11
126.3178845688314
21
79.39290826901777
31
238.77440850969307
12
126.31788924104035
22
-77.37716733559479
32
196.03031412962812
13
126.31788924104035
23
-77.37716733559479
33
196.03031412962812
70
1
  0
3DFACE
 8
lid_panels
10
68.91434614140894
20
88.44133256583939
30
236.6003932965593
11
54.37103932446649
21
79.3929069355525
31
238.77440904459078
12
54.371033870305155
22
88.44133346586818
32
236.6003932965593
13
54.371033870305155
23
88.44133346586818
33
236.6003932965593
70
1
  0
3DFACE
 8
lid_panels
10
54.37103932446649
20
79.3929069355525
30
238.77440904459078
11
68.91434614140894
21
88.44133256583939
31
236.6003932965593
12
68.9143464110806
22
79.39290736898897
32
238.77440904459078
13
68.9143464110806
23
79.39290736898897
33
238.77440904459078
70
1
  0
3DFACE
 8
lid_panels
10
68.9143464110806
20
79.39290736898897
30
238.77440904459078
11
54.37104399667535
21
-77.3771686690601
31
196.03031466452583
12
54.37103932446649
22
79.3929069355525
32
238.77440904459078
13
54.37103932446649
23
79.3929069355525
33
238.77440904459078
70
1
  0
3DFACE
 8
lid_panels
10
54.37104399667535
20
-77.3771686690601
30
196.03031466452583
11
68.9143464110806
21
79.39290736898897
31
238.77440904459078
12
68.91435108328955
22
-77.3771682356236
32
196.03031466452583
13
68.91435108328955
23
-77.3771682356236
33
196.03031466452583
70
1
  0
3DFACE
 8
lid_panels
10
54.37104399667535
20
-77.3771686690601
30
196.03031466452583
11
68.91435129096055
21
-84.34409829059867
31
189.86102321781914
12
54.37103905501049
22
-84.34409829059867
32
189.86102321781914
13
54.37103905501049
23
-84.34409829059867
33
189.86102321781914
70
1
  0
3DFACE
 8
lid_panels
10
68.91435129096055
20
-84.34409829059867
30
189.86102321781914
11
54.37104399667535
21
-77.3771686690601
31
196.03031466452583
12
68.91435108328955
22
-77.3771682356236
32
196.03031466452583
13
68.91435108328955
23
-77.3771682356236
33
196.03031466452583
70
1
  0
3DFACE
 8
lid_panels
10
54.371033870305155
20
88.44133346586818
30
236.6003932965593
11
54.37104399667535
21
-77.3771686690601
31
196.03031466452583
12
54.37103905501049
22
-84.34409829059867
32
189.86102321781914
13
54.37103905501049
23
-84.34409829059867
33
189.86102321781914
70
1
  0
3DFACE
 8
lid_panels
10
54.37104399667535
20
-77.3771686690601
30
196.03031466452583
11
54.371033870305155
21
88.44133346586818
31
236.6003932965593
12
54.37103932446649
22
79.3929069355525
32
238.77440904459078
13
54.37103932446649
23
79.3929069355525
33
238.77440904459078
70
1
  0
3DFACE
 8
lid_panels
10
68.91435108328955
20
-77.3771682356236
30
196.03031466452583
11
68.91434614140894
21
88.44133256583939
31
236.6003932965593
12
68.91435129096055
22
-84.34409829059867
32
189.86102321781914
13
68.91435129096055
23
-84.34409829059867
33
189.86102321781914
70
1
  0
3DFACE
 8
lid_panels
10
68.91434614140894
20
88.44133256583939
30
236.6003932965593
11
68.91435108328955
21
-77.3771682356236
31
196.03031466452583
12
68.9143464110806
22
79.39290736898897
32
238.77440904459078
13
68.9143464110806
23
79.39290736898897
33
238.77440904459078
70
1
 0
ENDSEC
 0
EOF
