 0
SECTION
 2
ENTITIES
  0
LINE
 8
tower_j_connections
10
1.242061689589717
20
1069.5810407366541
30
28.37472213991913
11
1.2987076643862552
21
1069.393482994771
31
28.227553130366694
  0
LINE
 8
tower_j_connections
10
-0.5990761612270035
20
1069.7289736448508
30
23.21149193741013
11
-0.46023789142077476
21
1069.2383295454633
31
23.051142911914
  0
LINE
 8
tower_j_connections
10
2.0242280995621513
20
1069.671596694296
30
23.353713772313647
11
2.1583471061835553
21
1069.3563528245888
31
23.98418989341291
  0
LINE
 8
tower_j_connections
10
1.8427039817961486
20
1070.335214025733
30
23.8799347437417
11
1.8685166416419179
21
1070.301574310406
31
23.91692587616656
  0
LINE
 8
tower_j_connections
10
2.375424229414193
20
1069.0309244946839
30
25.41666423009925
11
2.480360351210038
21
1068.996057942929
31
26.38212227130991
  0
LINE
 8
tower_j_connections
10
0.5605055644020895
20
1071.3240457146358
30
23.78657251318412
11
0.7832301582022867
21
1071.3186012873505
31
23.72456201349428
  0
LINE
 8
tower_j_connections
10
1.279141742030106
20
1071.3064788965894
30
23.17213996981024
11
1.321956568186579
21
1071.3054323026604
31
23.054546632396963
  0
LINE
 8
tower_j_connections
10
1.854762541321179
20
1069.7230216425378
30
25.011238969984063
11
1.8355400768705294
21
1069.7808931688535
31
24.655202500221584
  0
LINE
 8
tower_j_connections
10
-0.7167907075750009
20
1069.5021559395502
30
22.757973226649995
11
-0.5481873821170211
21
1069.4107925767298
31
22.66754770544187
  0
LINE
 8
tower_j_connections
10
1.3208309866156471
20
1071.3054598171207
30
22.858691164559488
11
1.3005203381078447
21
1071.3059563040467
31
22.748568690836372
  0
LINE
 8
tower_j_connections
10
1.5374023994140773
20
1070.7330908188105
30
23.24721694204468
11
1.5839956468830678
21
1070.6723693127594
31
23.412485012812645
  0
LINE
 8
tower_j_connections
10
0.2080563853671693
20
1071.3326612154851
30
23.77512108657804
11
0.5605055644020895
21
1071.3240457146358
31
23.78657251318412
  0
LINE
 8
tower_j_connections
10
-3.0408129261966224
20
1069.8299143896081
30
25.032440023449368
11
-3.022522494675286
21
1069.9028845469275
31
24.90605200353358
  0
LINE
 8
tower_j_connections
10
-3.0352267884595676
20
1069.4492783998733
30
26.21005194563225
11
-3.022741816635744
21
1069.3932486573533
31
26.298575914250257
  0
LINE
 8
tower_j_connections
10
-0.9918373761336197
20
1071.3619922122252
30
22.913263496809257
11
-1.0389564378763225
21
1071.2834777630549
31
23.058725565392926
  0
LINE
 8
tower_j_connections
10
-2.6275552011304626
20
1069.4373037353444
30
28.047937303213857
11
-2.5903402532437667
21
1069.5335247954242
31
28.159349696238934
  0
LINE
 8
tower_j_connections
10
-3.022741816635744
20
1069.3932486573533
30
26.298575914250257
11
-2.999095008518225
21
1069.3499498489066
31
26.429856909529313
  0
LINE
 8
tower_j_connections
10
-2.897905884918373
20
1069.1558549666752
30
26.99673609399457
11
-2.886171749188634
21
1069.134372326243
31
27.061879081039585
  0
LINE
 8
tower_j_connections
10
-2.5458882697575973
20
1070.4226737179094
30
24.00575075015069
11
-2.234773583520564
21
1070.6307557231878
31
23.645342144860805
  0
LINE
 8
tower_j_connections
10
0.7832301582022867
20
1071.3186012873505
30
23.72456201349428
11
0.9673403091030652
21
1071.3141007770478
31
23.597247908860275
  0
LINE
 8
tower_j_connections
10
1.321956568186579
20
1071.3054323026604
30
23.054546632396963
11
1.3290169933154632
21
1071.3052597129586
31
22.96464706588032
  0
LINE
 8
tower_j_connections
10
0.9673403091030652
20
1071.3141007770478
30
23.597247908860275
11
1.134536365438635
21
1071.3100137260599
31
23.410153464612634
  0
LINE
 8
tower_j_connections
10
1.3005203381078447
20
1071.3059563040467
30
22.748568690836372
11
1.3103636796236062
21
1071.305715686896
31
22.694306739358886
  0
LINE
 8
tower_j_connections
10
-0.46023789142077476
20
1069.2383295454633
30
23.051142911914
11
-0.4151780663212321
21
1069.0790914813747
31
22.929984248913613
  0
LINE
 8
tower_j_connections
10
-1.6787795306563567
20
1068.8773500795858
30
28.077319093941824
11
-1.4863002830554706
21
1069.2736743136438
31
28.320237404320842
  0
LINE
 8
tower_j_connections
10
-1.5678984712169495
20
1069.8844807345856
30
24.834846758855278
11
-1.4663161461132859
21
1069.8573157708759
31
24.597627264833058
  0
LINE
 8
tower_j_connections
10
-0.9918373761336197
20
1071.3619922122252
30
22.913263496809257
11
-0.9181447280793718
21
1071.3601908203943
31
23.126284378502135
  0
LINE
 8
tower_j_connections
10
2.5829523062291173
20
1069.2915507997322
30
28.060805617738502
11
2.5667669520855725
21
1069.4959696346482
31
28.355650952592853
  0
LINE
 8
tower_j_connections
10
2.571326865411038
20
1069.126700450242
30
27.577704349395496
11
2.5829523062291173
21
1069.2915507997322
31
28.060805617738502
  0
LINE
 8
tower_j_connections
10
1.1779266566741158
20
1069.8097621981876
30
28.533829109221813
11
1.1980910080551426
21
1069.7423156472569
31
28.481754146872326
  0
LINE
 8
tower_j_connections
10
-1.1269904782957383
20
1069.660122982038
30
23.743759635231918
11
-0.908781343207238
21
1069.5441100491585
31
23.200898185323588
  0
LINE
 8
tower_j_connections
10
1.3103636796236062
20
1071.305715686896
30
22.694306739358886
11
1.3418725685787651
21
1071.304945462774
31
22.644795490991754
  0
LINE
 8
tower_j_connections
10
1.8623035360067206
20
1069.6890494021322
30
25.175972261998588
11
1.854762541321179
21
1069.7230216425378
31
25.011238969984063
  0
LINE
 8
tower_j_connections
10
-1.6629570018046707
20
1070.9781814401972
30
23.04358315113248
11
-1.4891018093280763
21
1071.3619922270448
31
22.913263496809257
  0
LINE
 8
tower_j_connections
10
1.8355400768705294
20
1069.7808931688535
30
24.655202500221584
11
1.8283656940234323
21
1069.972142583103
31
24.145060692756644
  0
LINE
 8
tower_j_connections
10
-0.7600995136358506
20
1069.4804623055766
30
22.83989840291811
11
-0.7167907075750009
21
1069.5021559395502
31
22.757973226649995
  0
LINE
 8
tower_j_connections
10
-1.691076429233135
20
1070.9265174798418
30
23.133067755389817
11
-1.6629570018046707
21
1070.9781814401972
31
23.04358315113248
  0
LINE
 8
tower_j_connections
10
-1.7175214886792673
20
1070.891703379656
30
23.193367545732535
11
-1.691076429233135
21
1070.9265174798418
31
23.133067755389817
  0
LINE
 8
tower_j_connections
10
-1.8934313527420272
20
1068.5957257505506
30
27.528676060362713
11
-1.8795543391026968
21
1068.579166049341
31
27.624362453280483
  0
LINE
 8
tower_j_connections
10
-0.8024187855864966
20
1070.4475713264394
30
23.33511805935452
11
-0.7069633458152111
21
1070.1102389155305
31
23.30342047534498
  0
LINE
 8
tower_j_connections
10
1.9726461862624092
20
1069.8177388784122
30
23.16674786364247
11
2.0242280995621513
21
1069.671596694296
31
23.353713772313647
  0
LINE
 8
tower_j_connections
10
-1.4863002830554706
20
1069.2736743136438
30
28.320237404320842
11
-1.3499894335475346
21
1069.5757519863184
31
28.455190530551988
  0
LINE
 8
tower_j_connections
10
-3.035967264666624
20
1069.5727495627455
30
26.135214950153745
11
-3.0352267884595676
21
1069.4492783998733
31
26.21005194563225
  0
LINE
 8
tower_j_connections
10
-2.886171749188634
20
1069.134372326243
30
27.061879081039585
11
-2.871841857101572
21
1069.1345480990065
31
27.12613622727074
  0
LINE
 8
tower_j_connections
10
1.7015264839822066
20
1070.7966457661146
30
22.653941103296994
11
1.7568607283558322
21
1070.593589316272
31
22.7513206058047
  0
LINE
 8
tower_j_connections
10
-0.3513240844063148
20
1068.8270972471091
30
22.538263496809243
11
-0.3925579082738295
21
1068.9991535284576
31
22.764076528363397
  0
LINE
 8
tower_j_connections
10
-0.1857308375292659
20
1071.3422872108204
30
23.68905096577437
11
0.2080563853671693
21
1071.3326612154851
31
23.77512108657804
  0
LINE
 8
tower_j_connections
10
1.6062523859404791
20
1071.1880961173388
30
22.579531169581784
11
1.6206697980119316
21
1071.1158384258638
31
22.5617607616227
  0
LINE
 8
tower_j_connections
10
-1.2892945868140941
20
1069.7183705643886
30
28.501228551542674
11
-1.2132495336454667
21
1069.9104700866196
31
28.533829109221813
  0
LINE
 8
tower_j_connections
10
1.5812109635669445
20
1069.17572160802
30
27.16392256129913
11
1.6833433778206186
21
1069.2355810137792
31
26.715726032197267
  0
LINE
 8
tower_j_connections
10
1.3030986805845262
20
1071.0384413889801
30
22.838595382443103
11
1.4795987519662506
21
1070.8084220034552
31
23.117265734180073
  0
LINE
 8
tower_j_connections
10
-1.71254641475457
20
1069.7778153281267
30
25.08871889861539
11
-1.630474120251165
21
1069.8537986373346
31
24.95360053436029
  0
LINE
 8
tower_j_connections
10
-1.630474120251165
20
1069.8537986373346
30
24.95360053436029
11
-1.5953753255330412
21
1069.875515260157
31
24.889593432424633
  0
LINE
 8
tower_j_connections
10
-1.8382495336454667
20
1069.7328592200388
30
25.325544508285837
11
-1.7758778541499396
21
1069.7205984950976
31
25.193801102565068
  0
LINE
 8
tower_j_connections
10
1.634930114594681
20
1071.0501172171093
30
22.557001581038996
11
1.6613737201689673
21
1070.9463028658813
31
22.588431224703733
  0
LINE
 8
tower_j_connections
10
-0.7783883972515495
20
1071.3567745242058
30
23.33072147532721
11
-0.5887197948156908
21
1071.3521381394373
31
23.496863188999797
  0
LINE
 8
tower_j_connections
10
1.7458458583780598
20
1069.3741100172701
30
26.394630011345903
11
1.7581512540723438
21
1069.4239512390886
31
26.32104550657553
  0
LINE
 8
tower_j_connections
10
1.6833433778206186
20
1069.2355810137792
30
26.715726032197267
11
1.7458458583780598
21
1069.3741100172701
31
26.394630011345903
  0
LINE
 8
tower_j_connections
10
1.7568607283558322
20
1070.593589316272
30
22.7513206058047
11
1.827512622351378
21
1070.324801471701
31
22.85442939053445
  0
LINE
 8
tower_j_connections
10
1.827512622351378
20
1070.324801471701
30
22.85442939053445
11
1.9216096173772712
21
1069.9890211162715
31
23.041252546367197
  0
LINE
 8
tower_j_connections
10
1.6613737201689673
20
1070.9463028658813
30
22.588431224703733
11
1.7015264839822066
21
1070.7966457661146
31
22.653941103296994
  0
LINE
 8
tower_j_connections
10
-1.85458321146848
20
1068.5932795393321
30
27.72048844154743
11
-1.7788786741550666
21
1068.704794537761
31
27.89287263988632
  0
LINE
 8
tower_j_connections
10
1.6206697980119316
20
1071.1158384258638
30
22.5617607616227
11
1.634930114594681
21
1071.0501172171093
31
22.557001581038996
  0
LINE
 8
tower_j_connections
10
1.747415181117276
20
1070.4593968161873
30
23.725530719044365
11
1.8427039817961486
21
1070.335214025733
31
23.8799347437417
  0
LINE
 8
tower_j_connections
10
-0.5887197948156908
20
1071.3521381394373
30
23.496863188999797
11
-0.1857308375292659
21
1071.3422872108204
31
23.68905096577437
  0
LINE
 8
tower_j_connections
10
-0.7069633458152111
20
1070.1102389155305
30
23.30342047534498
11
-0.5990761612270035
21
1069.7289736448508
31
23.21149193741013
  0
LINE
 8
tower_j_connections
10
-1.7788786741550666
20
1068.704794537761
30
27.89287263988632
11
-1.6787795306563567
21
1068.8773500795858
31
28.077319093941824
  0
LINE
 8
tower_j_connections
10
-0.4151780663212321
20
1069.0790914813747
30
22.929984248913613
11
-0.3925579082738295
21
1068.9991535284576
31
22.764076528363397
  0
LINE
 8
tower_j_connections
10
2.5667669520855725
20
1069.4959696346482
30
28.355650952592853
11
2.540699940147306
21
1069.692121280188
31
28.533829109221784
  0
LINE
 8
tower_j_connections
10
-0.35022551447559636
20
1069.3254335967135
30
22.538263496809243
11
-0.5481873821170211
21
1069.4107925767298
31
22.66754770544187
  0
LINE
 8
tower_j_connections
10
-1.9106071902501753
20
1068.903411271186
30
26.912816826141594
11
-1.9157619719985632
21
1068.650044806084
31
27.326770928619588
  0
LINE
 8
tower_j_connections
10
1.134536365438635
20
1071.3100137260599
30
23.410153464612634
11
1.279141742030106
21
1071.3064788965894
31
23.17213996981024
  0
LINE
 8
tower_j_connections
10
1.6488282769403213
20
1070.5878777790679
30
23.583533158159625
11
1.747415181117276
21
1070.4593968161873
31
23.725530719044365
  0
LINE
 8
tower_j_connections
10
1.3418725685787651
20
1071.304945462774
30
22.644795490991754
11
1.370208900743137
21
1071.3042527907282
31
22.610907425588515
  0
LINE
 8
tower_j_connections
10
1.3290169933154632
20
1071.3052597129586
30
22.96464706588032
11
1.3208309866156471
21
1071.3054598171207
31
22.858691164559488
  0
LINE
 8
tower_j_connections
10
-1.4663161461132859
20
1069.8573157708759
30
24.597627264833058
11
-1.3610413540891386
21
1069.7787500957336
31
24.322678840431834
  0
LINE
 8
tower_j_connections
10
-0.908781343207238
20
1069.5441100491585
30
23.200898185323588
11
-0.8321261455007516
21
1069.5082264412222
31
23.013007300879096
  0
LINE
 8
tower_j_connections
10
-0.8321261455007516
20
1069.5082264412222
30
23.013007300879096
11
-0.8039758036843523
21
1069.4885460947012
31
22.94025317978852
  0
LINE
 8
tower_j_connections
10
-0.8039758036843523
20
1069.4885460947012
30
22.94025317978852
11
-0.7600995136358506
21
1069.4804623055766
31
22.83989840291811
  0
LINE
 8
tower_j_connections
10
1.6126233293196037
20
1070.6350609883407
30
23.51233419130557
11
1.6488282769403213
21
1070.5878777790679
31
23.583533158159625
  0
LINE
 8
tower_j_connections
10
1.4795987519662506
20
1070.8084220034552
30
23.117265734180073
11
1.5374023994140773
21
1070.7330908188105
31
23.24721694204468
  0
LINE
 8
tower_j_connections
10
1.5839956468830678
20
1070.6723693127594
30
23.412485012812645
11
1.6126233293196037
21
1070.6350609883407
31
23.51233419130557
  0
LINE
 8
tower_j_connections
10
1.1276121957455418
20
1071.3619922270448
30
22.538263496809257
11
1.1602991154843496
21
1071.2245414169315
31
22.601208987159566
  0
LINE
 8
tower_j_connections
10
-1.5953753255330412
20
1069.875515260157
30
24.889593432424633
11
-1.5678984712169495
21
1069.8844807345856
31
24.834846758855278
  0
LINE
 8
tower_j_connections
10
2.1583471061835553
20
1069.3563528245888
30
23.98418989341291
11
2.2667190359629785
21
1069.1497602560794
31
24.600944586452826
  0
LINE
 8
tower_j_connections
10
-2.548171132779089
20
1069.6720848775942
30
28.26849077596338
11
-2.408837628805486
21
1069.8791763090903
31
28.533829109221813
  0
LINE
 8
tower_j_connections
10
-1.9003038728294541
20
1070.7876163805252
30
23.373651516638354
11
-1.7588374400565954
21
1070.8569512891113
31
23.253559932226523
  0
LINE
 8
tower_j_connections
10
1.8871272864751063
20
1070.277320444358
30
23.9342431267701
11
1.9018810470606695
21
1070.2580929680319
31
23.95772150601337
  0
LINE
 8
tower_j_connections
10
-0.9181447280793718
20
1071.3601908203943
30
23.126284378502135
11
-0.7783883972515495
21
1071.3567745242058
31
23.33072147532721
  0
LINE
 8
tower_j_connections
10
-1.9157619719985632
20
1068.650044806084
30
27.326770928619588
11
-1.8934313527420272
21
1068.5957257505506
31
27.528676060362713
  0
LINE
 8
tower_j_connections
10
-0.90175086944123
20
1070.7986035086449
30
23.30709530136722
11
-0.8024187855864966
21
1070.4475713264394
31
23.33511805935452
  0
LINE
 8
tower_j_connections
10
-2.92357622429995
20
1069.2204882977735
30
26.844010529045633
11
-2.897905884918373
21
1069.1558549666752
31
26.99673609399457
  0
LINE
 8
tower_j_connections
10
-2.837163051838843
20
1069.1457639145221
30
27.275391065785392
11
-2.753429285123275
21
1069.2113031023046
31
27.613500680407157
  0
LINE
 8
tower_j_connections
10
-1.3610413540891386
20
1069.7787500957336
30
24.322678840431834
11
-1.1269904782957383
21
1069.660122982038
31
23.743759635231918
  0
LINE
 8
tower_j_connections
10
-1.0252208018737292
20
1071.234937048996
30
23.1452984579308
11
-0.9382039405270461
21
1070.927425945406
31
23.27045808857978
  0
LINE
 8
tower_j_connections
10
-0.9382039405270461
20
1070.927425945406
30
23.27045808857978
11
-0.90175086944123
21
1070.7986035086449
31
23.30709530136722
  0
LINE
 8
tower_j_connections
10
-3.033837628809806
20
1069.7328592200388
30
25.325544508285837
11
-3.0437540355408146
21
1069.7648311207734
31
25.14516755179607
  0
LINE
 8
tower_j_connections
10
-1.7758778541499396
20
1069.7205984950976
30
25.193801102565068
11
-1.71254641475457
21
1069.7778153281267
31
25.08871889861539
  0
LINE
 8
tower_j_connections
10
1.8685166416419179
20
1070.301574310406
30
23.91692587616656
11
1.8871272864751063
21
1070.277320444358
31
23.9342431267701
  0
LINE
 8
tower_j_connections
10
2.2667190359629785
20
1069.1497602560794
30
24.600944586452826
11
2.375424229414193
21
1069.0309244946839
31
25.41666423009925
  0
LINE
 8
tower_j_connections
10
-1.3214752904141278
20
1069.6359016112337
30
28.488686786287367
11
-1.2892945868140941
21
1069.7183705643886
31
28.501228551542674
  0
LINE
 8
tower_j_connections
10
-2.234773583520564
20
1070.6307557231878
30
23.645342144860805
11
-1.9003038728294541
21
1070.7876163805252
31
23.373651516638354
  0
LINE
 8
tower_j_connections
10
1.9216096173772712
20
1069.9890211162715
30
23.041252546367197
11
1.9726461862624092
21
1069.8177388784122
31
23.16674786364247
  0
LINE
 8
tower_j_connections
10
-1.8795543391026968
20
1068.579166049341
30
27.624362453280483
11
-1.85458321146848
21
1068.5932795393321
31
27.72048844154743
  0
LINE
 8
tower_j_connections
10
2.5418285713280966
20
1069.0459916782231
30
27.104517081478356
11
2.571326865411038
21
1069.126700450242
31
27.577704349395496
  0
LINE
 8
tower_j_connections
10
1.1602991154843496
20
1071.2245414169315
30
22.601208987159566
11
1.1923218679608
21
1071.1828085508212
31
22.656066512243434
  0
LINE
 8
tower_j_connections
10
1.8130764697093582
20
1069.7328592200388
30
25.32554450828583
11
1.8623035360067206
21
1069.6890494021322
31
25.175972261998588
  0
LINE
 8
tower_j_connections
10
1.7581512540723438
20
1069.4239512390886
30
26.32104550657553
11
1.7879669596932217
21
1069.5447154334668
31
26.14275185499369
  0
LINE
 8
tower_j_connections
10
-1.0389564378763225
20
1071.2834777630549
30
23.058725565392926
11
-1.0373741975865869
21
1071.2778862437835
31
23.09331058377858
  0
LINE
 8
tower_j_connections
10
-2.9768619914532337
20
1069.976550225914
30
24.77845930475234
11
-2.8296157165384557
21
1070.1493796941334
31
24.479109884745164
  0
LINE
 8
tower_j_connections
10
1.3423084483517855
20
1069.308332137279
30
28.087073621244173
11
1.4530437892994983
21
1069.1891239171002
31
27.685703595180996
  0
LINE
 8
tower_j_connections
10
1.1980910080551426
20
1069.7423156472569
30
28.481754146872326
11
1.242061689589717
21
1069.5810407366541
31
28.37472213991913
  0
LINE
 8
tower_j_connections
10
2.480360351210038
20
1068.996057942929
30
26.38212227130991
11
2.5418285713280966
21
1069.0459916782231
31
27.104517081478356
  0
LINE
 8
tower_j_connections
10
-2.753429285123275
20
1069.2113031023046
30
27.613500680407157
11
-2.6275552011304626
21
1069.4373037353444
31
28.047937303213857
  0
LINE
 8
tower_j_connections
10
-2.9497293980507493
20
1069.2419064679577
30
26.71414555663487
11
-2.92357622429995
21
1069.2204882977735
31
26.844010529045633
  0
LINE
 8
tower_j_connections
10
-2.999095008518225
20
1069.3499498489066
30
26.429856909529313
11
-2.9497293980507493
21
1069.2419064679577
31
26.71414555663487
  0
LINE
 8
tower_j_connections
10
-1.3499894335475346
20
1069.5757519863184
30
28.455190530551988
11
-1.3214752904141278
21
1069.6359016112337
31
28.488686786287367
  0
LINE
 8
tower_j_connections
10
1.6248766289400012
20
1071.3619922122252
30
22.538263496809257
11
1.5998417219441308
21
1071.220225307982
31
22.587432734291568
  0
LINE
 8
tower_j_connections
10
-1.8911753089093963
20
1069.2347066321117
30
26.43282185164913
11
-1.9106071902501753
21
1068.903411271186
31
26.912816826141594
  0
LINE
 8
tower_j_connections
10
1.1923218679608
20
1071.1828085508212
30
22.656066512243434
11
1.3030986805845262
21
1071.0384413889801
31
22.838595382443103
  0
LINE
 8
tower_j_connections
10
-3.0437540355408146
20
1069.7648311207734
30
25.14516755179607
11
-3.0408129261966224
21
1069.8299143896081
31
25.032440023449368
  0
LINE
 8
tower_j_connections
10
1.9018810470606695
20
1070.2580929680319
30
23.95772150601337
11
1.8283656940234323
21
1069.972142583103
31
24.145060692756644
  0
LINE
 8
tower_j_connections
10
-2.5903402532437667
20
1069.5335247954242
30
28.159349696238934
11
-2.548171132779089
21
1069.6720848775942
31
28.26849077596338
  0
LINE
 8
tower_j_connections
10
-1.7588374400565954
20
1070.8569512891113
30
23.253559932226523
11
-1.7175214886792673
21
1070.891703379656
31
23.193367545732535
  0
LINE
 8
tower_j_connections
10
-1.0373741975865869
20
1071.2778862437835
30
23.09331058377858
11
-1.0252208018737292
21
1071.234937048996
31
23.1452984579308
  0
LINE
 8
tower_j_connections
10
-2.871841857101572
20
1069.1345480990065
30
27.12613622727074
11
-2.837163051838843
21
1069.1457639145221
31
27.275391065785392
  0
LINE
 8
tower_j_connections
10
-1.8382495336459215
20
1069.5587405709928
30
26.127126854994493
11
-1.8911753089093963
21
1069.2347066321117
31
26.43282185164913
  0
LINE
 8
tower_j_connections
10
-3.022522494675286
20
1069.9028845469275
30
24.90605200353358
11
-2.9768619914532337
21
1069.976550225914
31
24.77845930475234
  0
LINE
 8
tower_j_connections
10
1.6248766289400012
20
1071.3619922122252
30
22.538263496809257
11
1.370208900743137
21
1071.3042527907282
31
22.610907425588515
  0
LINE
 8
tower_j_connections
10
1.5998417219441308
20
1071.220225307982
30
22.587432734291568
11
1.6062523859404791
21
1071.1880961173388
31
22.579531169581784
  0
LINE
 8
tower_j_connections
10
1.4530437892994983
20
1069.1891239171002
30
27.685703595180996
11
1.5812109635669445
21
1069.17572160802
31
27.16392256129913
  0
LINE
 8
tower_j_connections
10
1.2987076643862552
20
1069.393482994771
30
28.227553130366694
11
1.3423084483517855
21
1069.308332137279
31
28.087073621244173
  0
LINE
 8
tower_j_connections
10
-2.8296157165384557
20
1070.1493796941334
30
24.479109884745164
11
-2.5458882697575973
21
1070.4226737179094
31
24.00575075015069
  0
LINE
 8
tower_j_connections
10
-39.96580969198021
20
1070.1994382791074
30
14.20957885950478
11
-49.992483297852914
21
1070.2858264118224
31
13.87578664474237
  0
LINE
 8
tower_j_connections
10
-70.06828208611387
20
1068.5977730178402
30
13.750478880723001
11
-80.0927717655884
21
1068.417797193069
31
14.146977730990336
  0
LINE
 8
tower_j_connections
10
-0.01766143848954016
20
1069.8552595338772
30
17.868859387768303
11
-9.970129268334631
21
1069.9410052123885
31
16.606284429466463
  0
LINE
 8
tower_j_connections
10
-29.95940190630131
20
1069.3178096762265
30
14.49428316211209
11
-39.9774386391598
21
1069.1379747798007
31
13.958937106960185
  0
LINE
 8
tower_j_connections
10
-100.09335360097248
20
1070.7174987429682
30
15.700421268693937
11
-110.06918751873468
21
1070.803453505681
31
16.76268920798274
  0
LINE
 8
tower_j_connections
10
-39.97162470145895
20
1069.6687617374505
30
14.084586334049625
11
-49.99884432314161
21
1069.6219530774918
31
13.766469106072925
  0
LINE
 8
tower_j_connections
10
-90.10044629334038
20
1069.4347387311532
30
14.82344992855176
11
-100.0969860197506
21
1069.3880664618368
31
15.669344815899514
  0
LINE
 8
tower_j_connections
10
-39.95998006792911
20
1070.7306831592987
30
14.33391479518587
11
-49.98610628572078
21
1070.9503214503482
31
13.984385941391345
  0
LINE
 8
tower_j_connections
10
-110.06918751873468
20
1070.803453505681
30
16.76268920798274
11
-120.0176614384884
21
1070.8891733089322
31
18.056359387768403
  0
LINE
 8
tower_j_connections
10
-0.017661438489994907
20
1069.8552595338772
30
17.681359387768488
11
-9.972126289581638
21
1069.8087959716136
31
16.43436555114912
  0
LINE
 8
tower_j_connections
10
-19.956498040777433
20
1069.4973666396975
30
15.262182584947062
11
-29.95940190630131
21
1069.3178096762265
31
14.49428316211209
  0
LINE
 8
tower_j_connections
10
-60.01764477723168
20
1071.1700359306483
30
13.867855369966868
11
-70.04918419581759
21
1071.389708078876
31
13.984385941391345
  0
LINE
 8
tower_j_connections
10
-19.95286629150246
20
1069.7622083886324
30
15.418894441748797
11
-29.954497500011257
21
1069.715521915831
31
14.63549383857265
  0
LINE
 8
tower_j_connections
10
-90.0955409829412
20
1070.6313553876612
30
14.87012859267859
11
-100.09335360097248
21
1070.7174987429682
31
15.700421268693937
  0
LINE
 8
tower_j_connections
10
-100.08971205302214
20
1072.0472860439102
30
15.731087574431264
11
-110.06718547847527
21
1072.2656050658402
31
16.77797781825823
  0
LINE
 8
tower_j_connections
10
-60.03728920548656
20
1068.7778593214596
30
13.586934630990733
11
-70.06828208611387
21
1068.5977730178402
31
13.750478880723001
  0
LINE
 8
tower_j_connections
10
-70.05556120795382
20
1070.458688850333
30
13.907135203976942
11
-80.08114281840926
21
1070.5450699083603
31
14.27225906751486
  0
LINE
 8
tower_j_connections
10
-70.04918419581759
20
1071.389708078876
30
13.984385941391345
11
-80.07531319435566
21
1071.6092193965437
31
14.333914795185855
  0
LINE
 8
tower_j_connections
10
-110.06718547847527
20
1072.2656050658402
30
16.77797781825823
11
-120.01766143848658
21
1072.4832907691446
31
18.056359387768488
  0
LINE
 8
tower_j_connections
10
-110.07118453998123
20
1069.3414971273412
30
16.747175108181516
11
-120.01766143848613
21
1069.2950558487196
31
18.056359387768403
  0
LINE
 8
tower_j_connections
10
-50.005204176013876
20
1068.9579589593648
30
13.656433203019397
11
-60.03728920548656
21
1068.7778593214596
31
13.586934630990733
  0
LINE
 8
tower_j_connections
10
-60.03074734816164
20
1069.5751211861084
30
13.681313757691491
11
-70.06192223324183
21
1069.5282913259848
31
13.829166224541957
  0
LINE
 8
tower_j_connections
10
-9.972126289581638
20
1069.8087959716136
30
16.43436555114912
11
-19.95286629150246
21
1069.7622083886324
31
15.418894441748797
  0
LINE
 8
tower_j_connections
10
-29.94467455093809
20
1070.511239537724
30
14.916253383822074
11
-39.95998006792911
21
1070.7306831592987
31
14.33391479518587
  0
LINE
 8
tower_j_connections
10
-39.9774386391598
20
1069.1379747798007
30
13.958937106960185
11
-50.005204176013876
21
1068.9579589593648
31
13.656433203019397
  0
LINE
 8
tower_j_connections
10
-80.07531319435566
20
1071.6092193965437
30
14.333914795185855
11
-90.09062334426744
21
1071.8284514719212
31
14.916253383822102
  0
LINE
 8
tower_j_connections
10
-90.10535069963294
20
1068.2380289321115
30
14.776217297080798
11
-100.10061776902626
21
1068.0585652079674
31
15.637858146173222
  0
LINE
 8
tower_j_connections
10
-0.017661438489312786
20
1069.8552595338772
30
17.493859387768318
11
-9.974122942753866
21
1069.6765488111955
31
16.2622211448901
  0
LINE
 8
tower_j_connections
10
-80.0927717655884
20
1068.417797193069
30
14.146977730990336
11
-90.10535069963294
21
1068.2380289321115
31
14.776217297080798
  0
LINE
 8
tower_j_connections
10
-60.024204284871075
20
1070.3722588104042
30
13.774953962061808
11
-70.05556120795382
21
1070.458688850333
31
13.907135203976942
  0
LINE
 8
tower_j_connections
10
-29.94959218960753
20
1070.1131410129012
30
14.776150547688964
11
-39.96580969198021
21
1070.1994382791074
31
14.20957885950478
  0
LINE
 8
tower_j_connections
10
-49.992483297852914
20
1070.2858264118224
30
13.87578664474237
11
-60.024204284871075
21
1070.3722588104042
31
13.774953962061808
  0
LINE
 8
tower_j_connections
10
-80.08114281840926
20
1070.5450699083603
30
14.27225906751486
11
-90.0955409829412
21
1070.6313553876612
31
14.87012859267859
  0
LINE
 8
tower_j_connections
10
-49.98610628572078
20
1070.9503214503482
30
13.984385941391345
11
-60.01764477723168
21
1071.1700359306483
31
13.867855369966868
  0
LINE
 8
tower_j_connections
10
-29.954497500011257
20
1069.715521915831
30
14.63549383857265
11
-39.97162470145895
21
1069.6687617374505
31
14.084586334049625
  0
LINE
 8
tower_j_connections
10
-100.0969860197506
20
1069.3880664618368
30
15.669344815899514
11
-110.07118453998123
21
1069.3414971273412
31
16.747175108181516
  0
LINE
 8
tower_j_connections
10
-90.09062334426744
20
1071.8284514719212
30
14.916253383822102
11
-100.08971205302214
21
1072.0472860439102
31
15.731087574431264
  0
LINE
 8
tower_j_connections
10
-9.968127228078174
20
1070.0734096349825
30
16.777977818258286
11
-19.945592324774452
21
1070.2921089608365
31
15.731087574431264
  0
LINE
 8
tower_j_connections
10
-100.10061776902626
20
1068.0585652079674
30
15.637858146173222
11
-110.0731811931505
21
1067.8795028293584
31
16.73143548043877
  0
LINE
 8
tower_j_connections
10
-9.970129268334631
20
1069.9410052123885
30
16.606284429466463
11
-19.949233872723653
21
1070.026981164829
31
15.57519608161845
  0
LINE
 8
tower_j_connections
10
-80.08695782788868
20
1069.481488758711
30
14.209946750069697
11
-90.10044629334038
21
1069.4347387311532
31
14.82344992855176
  0
LINE
 8
tower_j_connections
10
-70.06192223324183
20
1069.5282913259848
30
13.829166224541957
11
-80.08695782788868
21
1069.481488758711
31
14.209946750069697
  0
LINE
 8
tower_j_connections
10
-19.945592324774452
20
1070.2921089608365
30
15.731087574431264
11
-29.94467455093809
21
1070.511239537724
31
14.916253383822074
  0
LINE
 8
tower_j_connections
10
-0.017661438499089854
20
1069.855259533877
30
18.056359387768516
11
-9.968127228078174
21
1070.0734096349825
31
16.777977818258286
  0
LINE
 8
tower_j_connections
10
-110.0731811931505
20
1067.8795028293584
30
16.73143548043877
11
-120.01766143848727
21
1067.7009383885072
31
18.056359387768318
  0
LINE
 8
tower_j_connections
10
-19.949233872723653
20
1070.026981164829
30
15.57519608161845
11
-29.94959218960753
21
1070.1131410129012
31
14.776150547688964
  0
LINE
 8
tower_j_connections
10
-49.99884432314161
20
1069.6219530774918
30
13.766469106072925
11
-60.03074734816164
21
1069.5751211861084
31
13.681313757691491
  0
LINE
 8
tower_j_connections
10
-9.974122942753866
20
1069.6765488111955
30
16.2622211448901
11
-19.956498040777433
21
1069.4973666396975
31
15.262182584947062
  0
LINE
 8
tower_j_connections
10
-1.3323864785988926
20
1070.3131516291712
30
18.272516408784874
11
-1.3879156011942095
21
1070.404278254879
31
18.406829328335043
  0
LINE
 8
tower_j_connections
10
1.014429363530553
20
1070.7119154215932
30
18.435208317608648
11
1.2665997695476108
21
1070.9054125797013
31
18.625171393987877
  0
LINE
 8
tower_j_connections
10
1.2665997695476108
20
1070.9054125797013
30
18.625171393987877
11
1.340391596797872
21
1070.962035040243
31
18.7373995547535
  0
LINE
 8
tower_j_connections
10
-0.05001381912552505
20
1068.900115027963
30
19.186704586114622
11
-0.05001381912552505
21
1068.8835737503548
31
19.294116690326412
  0
LINE
 8
tower_j_connections
10
-0.050013819125524606
20
1069.0361636101986
30
18.85797315171545
11
-0.05001381912552505
21
1068.900115027963
31
19.186704586114622
  0
LINE
 8
tower_j_connections
10
0.21053379697877928
20
1068.9682274707882
30
18.03199544005198
11
0.12788051775714848
21
1069.2294399810285
31
17.841674109449038
  0
LINE
 8
tower_j_connections
10
-0.05001381912552505
20
1068.8835737503548
30
19.294116690326412
11
-0.05001381912552505
21
1068.8902118707788
31
19.482616390759993
  0
LINE
 8
tower_j_connections
10
-0.05001381912552505
20
1068.8902118707788
30
19.482616390759993
11
-0.05001381912552505
21
1068.9597880959666
31
19.711122438047603
  0
LINE
 8
tower_j_connections
10
0.2940591290114294
20
1068.7083916115866
30
18.21181646747744
11
0.21053379697877928
21
1068.9682274707882
31
18.03199544005198
  0
LINE
 8
tower_j_connections
10
-0.9412005162994328
20
1070.0832285308572
30
17.94516288665435
11
-1.3323864785988926
21
1070.3131516291712
31
18.272516408784874
  0
LINE
 8
tower_j_connections
10
-0.05001381912552505
20
1069.0061007594675
30
19.8100995910714
11
-0.05001381912552505
21
1069.023464876868
31
19.837853467554517
  0
LINE
 8
tower_j_connections
10
-0.05001381912552505
20
1068.9887341366068
30
19.776988826631005
11
-0.05001381912552505
21
1069.0061007594675
31
19.8100995910714
  0
LINE
 8
tower_j_connections
10
-0.35916381880997506
20
1069.9282362593012
30
17.73911544589641
11
-0.9412005162994328
21
1070.0832285308572
31
17.94516288665435
  0
LINE
 8
tower_j_connections
10
-0.05001381912552505
20
1068.9597880959666
30
19.711122438047603
11
-0.05001381912552505
21
1068.9887341366068
31
19.776988826631005
  0
LINE
 8
tower_j_connections
10
0.37338748766410346
20
1068.4400274794136
30
18.447932069562746
11
0.2940591290114294
21
1068.7083916115866
31
18.21181646747744
  0
LINE
 8
tower_j_connections
10
-1.4159917751649127
20
1070.5248718789867
30
18.586660021285475
11
-1.3974577779545152
21
1070.7020972403868
31
18.853687407615503
  0
LINE
 8
tower_j_connections
10
-0.2183000046184138
20
1068.437081866618
30
22.754168666810067
11
-0.1376220583276795
21
1068.2324064148745
31
22.787714584702208
  0
LINE
 8
tower_j_connections
10
0.5864023517281112
20
1070.3834787438507
30
18.249463455917414
11
1.014429363530553
21
1070.7119154215932
31
18.435208317608648
  0
LINE
 8
tower_j_connections
10
0.4874235498505195
20
1067.9763049134858
30
19.023267274322713
11
0.44592806276614283
21
1068.1634307440518
31
18.758263929964848
  0
LINE
 8
tower_j_connections
10
0.014690942150082265
20
1069.859518805591
30
17.493859387768318
11
-0.05146923876372966
21
1069.7359858825155
31
17.61108636239633
  0
LINE
 8
tower_j_connections
10
-0.050013819125524606
20
1069.3379393874109
30
18.28017760124505
11
-0.050013819125524606
21
1069.0361636101986
31
18.85797315171545
  0
LINE
 8
tower_j_connections
10
-0.35152695321312466
20
1068.827070538923
30
22.54138538501254
11
-0.2875254721620881
21
1068.6261064311873
31
22.684816301677195
  0
LINE
 8
tower_j_connections
10
0.4397114153316575
20
1067.2943345645756
30
21.43392602856519
11
0.5032717141348257
21
1067.2572913674635
31
21.08441830411622
  0
LINE
 8
tower_j_connections
10
-0.06082033760731109
20
1068.0549529875484
30
22.767019365532327
11
0.05133560433705586
21
1067.8298753652348
31
22.633697877038962
  0
LINE
 8
tower_j_connections
10
0.5032717141348257
20
1067.2572913674635
30
21.08441830411622
11
0.5600041237814821
21
1067.3169323715724
31
20.49186421827482
  0
LINE
 8
tower_j_connections
10
0.11256468047622503
20
1067.7226021952606
30
22.51368794488534
11
0.2269667244229363
21
1067.5425725361206
31
22.227705798889936
  0
LINE
 8
tower_j_connections
10
0.5607932427562896
20
1067.558742403761
30
19.754241474988227
11
0.4874235498505195
21
1067.9763049134858
31
19.023267274322713
  0
LINE
 8
tower_j_connections
10
-0.1376220583276795
20
1068.2324064148745
30
22.787714584702208
11
-0.06082033760731109
21
1068.0549529875484
31
22.767019365532327
  0
LINE
 8
tower_j_connections
10
-1.3879156011942095
20
1070.404278254879
30
18.406829328335043
11
-1.4159917751649127
21
1070.5248718789867
31
18.586660021285475
  0
LINE
 8
tower_j_connections
10
-0.21301862382915715
20
1069.8989446414273
30
17.701835510246134
11
-0.35916381880997506
21
1069.9282362593012
31
17.73911544589641
  0
LINE
 8
tower_j_connections
10
-1.3974577779545152
20
1070.7020972403868
30
18.853687407615503
11
-1.3430903547214257
21
1070.8215615249626
31
19.035609080120203
  0
LINE
 8
tower_j_connections
10
0.12788051775714848
20
1069.2294399810285
30
17.841674109449038
11
0.0157982292591905
21
1069.553540652434
31
17.67474551974434
  0
LINE
 8
tower_j_connections
10
0.5600041237814821
20
1067.3169323715724
30
20.49186421827482
11
0.5607932427562896
21
1067.558742403761
31
19.754241474988227
  0
LINE
 8
tower_j_connections
10
0.05133560433705586
20
1067.8298753652348
30
22.633697877038962
11
0.11256468047622503
21
1067.7226021952606
31
22.51368794488534
  0
LINE
 8
tower_j_connections
10
0.0157982292591905
20
1069.553540652434
30
17.67474551974434
11
-0.05146923876372966
21
1069.7359858825155
31
17.61108636239633
  0
LINE
 8
tower_j_connections
10
0.2269667244229363
20
1067.5425725361206
30
22.227705798889936
11
0.4397114153316575
21
1067.2943345645756
31
21.43392602856519
  0
LINE
 8
tower_j_connections
10
0.44592806276614283
20
1068.1634307440518
30
18.758263929964848
11
0.37338748766410346
21
1068.4400274794136
31
18.447932069562746
  0
LINE
 8
tower_j_connections
10
-1.3430903547214257
20
1070.8215615249626
30
19.035609080120203
11
-1.272283260023869
21
1070.9012818743147
31
19.158594234698292
  0
LINE
 8
tower_j_connections
10
-1.272283260023869
20
1070.9012818743147
30
19.158594234698292
11
-1.2403395246931268
21
1070.9866412820681
31
19.2882634968091
  0
LINE
 8
tower_j_connections
10
1.340391596797872
20
1070.962035040243
30
18.7373995547535
11
1.3862227857482594
21
1070.9972025484162
31
18.884590866386908
  0
LINE
 8
tower_j_connections
10
1.4211372390118413
20
1071.0239933506762
30
19.344653350823158
11
1.4131915843868228
21
1071.017896435445
31
19.89984260911013
  0
LINE
 8
tower_j_connections
10
0.37537624490983035
20
1070.2215527169194
30
18.18581424110858
11
0.5864023517281112
21
1070.3834787438507
31
18.249463455917414
  0
LINE
 8
tower_j_connections
10
-0.050013819125524606
20
1069.922018805591
30
17.837609387768318
11
-0.050013819125524606
21
1069.3379393874109
31
18.28017760124505
  0
LINE
 8
tower_j_connections
10
1.3862227857482594
20
1070.9972025484162
30
18.884590866386908
11
1.4211372390118413
21
1071.0239933506762
31
19.344653350823158
  0
LINE
 8
tower_j_connections
10
-0.2875254721620881
20
1068.6261064311873
30
22.684816301677195
11
-0.2183000046184138
21
1068.437081866618
31
22.754168666810067
 0
ENDSEC
 0
EOF
