 0
SECTION
 2
ENTITIES
  0
3DFACE
 8
body
10
-4.999999999999995
20
2.25
30
5.0
11
7.750000000000005
21
3.0
31
3.5
12
-4.999999999999995
22
3.0
32
3.5
13
-4.999999999999995
23
3.0
33
3.5
70
1
  0
3DFACE
 8
body
10
7.750000000000005
20
3.0
30
3.5
11
-4.999999999999995
21
2.25
31
5.0
12
7.750000000000005
22
2.25
32
5.0
13
7.750000000000005
23
2.25
33
5.0
70
1
  0
3DFACE
 8
body
10
7.750000000000005
20
2.4509122005603654
30
1.0102984675382511
11
-4.999999999999995
21
2.3687095903662865
31
1.0
12
-4.999999999999995
22
2.4509122005603654
32
1.0102984675382511
13
-4.999999999999995
23
2.4509122005603654
33
1.0102984675382511
70
1
  0
3DFACE
 8
body
10
-4.999999999999995
20
2.3687095903662865
30
1.0
11
7.750000000000005
21
2.4509122005603654
31
1.0102984675382511
12
7.750000000000005
22
2.3687095903662865
32
1.0
13
7.750000000000005
23
2.3687095903662865
33
1.0
70
1
  0
3DFACE
 8
body
10
-4.999999999999995
20
3.0
30
1.6312904096337157
11
7.750000000000005
21
2.9897015324617477
31
1.5490877994396335
12
-4.999999999999995
22
2.9897015324617477
32
1.5490877994396335
13
-4.999999999999995
23
2.9897015324617477
33
1.5490877994396335
70
1
  0
3DFACE
 8
body
10
7.750000000000005
20
2.9897015324617477
30
1.5490877994396335
11
-4.999999999999995
21
3.0
31
1.6312904096337157
12
7.750000000000005
22
3.0
32
1.6312904096337157
13
7.750000000000005
23
3.0
33
1.6312904096337157
70
1
  0
3DFACE
 8
body
10
7.750000000000005
20
2.3687095903662865
30
1.0
11
-4.999999999999995
21
2.25
31
1.0
12
-4.999999999999995
22
2.3687095903662865
32
1.0
13
-4.999999999999995
23
2.3687095903662865
33
1.0
70
1
  0
3DFACE
 8
body
10
-4.999999999999995
20
2.25
30
1.0
11
7.750000000000005
21
2.3687095903662865
31
1.0
12
7.750000000000005
22
2.25
32
1.0
13
7.750000000000005
23
2.25
33
1.0
70
1
  0
3DFACE
 8
body
10
7.750000000000005
20
2.6402416202020973
30
1.078314212963632
11
-4.999999999999995
21
2.5480782113171188
31
1.0373436898884558
12
-4.999999999999995
22
2.6402416202020973
32
1.078314212963632
13
-4.999999999999995
23
2.6402416202020973
33
1.078314212963632
70
1
  0
3DFACE
 8
body
10
-4.999999999999995
20
2.5480782113171188
30
1.0373436898884558
11
7.750000000000005
21
2.6402416202020973
31
1.078314212963632
12
7.750000000000005
22
2.5480782113171188
32
1.0373436898884558
13
7.750000000000005
23
2.5480782113171188
33
1.0373436898884558
70
1
  0
3DFACE
 8
body
10
-4.999999999999995
20
2.921685787036367
30
1.3597583797979014
11
7.750000000000005
21
2.867671745559793
31
1.2745811467968204
12
-4.999999999999995
22
2.867671745559793
32
1.2745811467968204
13
-4.999999999999995
23
2.867671745559793
33
1.2745811467968204
70
1
  0
3DFACE
 8
body
10
7.750000000000005
20
2.867671745559793
30
1.2745811467968204
11
-4.999999999999995
21
2.921685787036367
31
1.3597583797979014
12
7.750000000000005
22
2.921685787036367
32
1.3597583797979014
13
7.750000000000005
23
2.921685787036367
33
1.3597583797979014
70
1
  0
3DFACE
 8
body
10
7.750000000000005
20
2.25
30
1.0
11
-4.999999999999995
21
0.0
31
1.0
12
-4.999999999999995
22
2.25
32
1.0
13
-4.999999999999995
23
2.25
33
1.0
70
1
  0
3DFACE
 8
body
10
-4.999999999999995
20
0.0
30
1.0
11
7.750000000000005
21
2.25
31
1.0
12
7.750000000000005
22
0.0
32
1.0
13
7.750000000000005
23
0.0
33
1.0
70
1
  0
3DFACE
 8
body
10
7.750000000000005
20
0.0
30
5.0
11
-4.999999999999995
21
2.25
31
5.0
12
-4.999999999999995
22
0.0
32
5.0
13
-4.999999999999995
23
0.0
33
5.0
70
1
  0
3DFACE
 8
body
10
-4.999999999999995
20
2.25
30
5.0
11
7.750000000000005
21
0.0
31
5.0
12
7.750000000000005
22
2.25
32
5.0
13
7.750000000000005
23
2.25
33
5.0
70
1
  0
3DFACE
 8
body
10
7.750000000000005
20
2.7254188532031787
30
1.1323282544402056
11
-4.999999999999995
21
2.6402416202020973
31
1.078314212963632
12
-4.999999999999995
22
2.7254188532031787
32
1.1323282544402056
13
-4.999999999999995
23
2.7254188532031787
33
1.1323282544402056
70
1
  0
3DFACE
 8
body
10
-4.999999999999995
20
2.6402416202020973
30
1.078314212963632
11
7.750000000000005
21
2.7254188532031787
31
1.1323282544402056
12
7.750000000000005
22
2.6402416202020973
32
1.078314212963632
13
7.750000000000005
23
2.6402416202020973
33
1.078314212963632
70
1
  0
3DFACE
 8
body
10
-4.999999999999995
20
3.0
30
1.75
11
7.750000000000005
21
3.0
31
1.6312904096337157
12
-4.999999999999995
22
3.0
32
1.6312904096337157
13
-4.999999999999995
23
3.0
33
1.6312904096337157
70
1
  0
3DFACE
 8
body
10
7.750000000000005
20
3.0
30
1.6312904096337157
11
-4.999999999999995
21
3.0
31
1.75
12
7.750000000000005
22
3.0
32
1.75
13
7.750000000000005
23
3.0
33
1.75
70
1
  0
3DFACE
 8
body
10
-4.999999999999995
20
2.9626563101115444
30
1.4519217886828808
11
7.750000000000005
21
2.921685787036367
31
1.3597583797979014
12
-4.999999999999995
22
2.921685787036367
32
1.3597583797979014
13
-4.999999999999995
23
2.921685787036367
33
1.3597583797979014
70
1
  0
3DFACE
 8
body
10
7.750000000000005
20
2.921685787036367
30
1.3597583797979014
11
-4.999999999999995
21
2.9626563101115444
31
1.4519217886828808
12
7.750000000000005
22
2.9626563101115444
32
1.4519217886828808
13
7.750000000000005
23
2.9626563101115444
33
1.4519217886828808
70
1
  0
3DFACE
 8
body
10
-4.999999999999995
20
2.867671745559793
30
1.2745811467968204
11
7.750000000000005
21
2.8017766952966365
31
1.1982233047033635
12
-4.999999999999995
22
2.8017766952966365
32
1.1982233047033635
13
-4.999999999999995
23
2.8017766952966365
33
1.1982233047033635
70
1
  0
3DFACE
 8
body
10
7.750000000000005
20
2.8017766952966365
30
1.1982233047033635
11
-4.999999999999995
21
2.867671745559793
31
1.2745811467968204
12
7.750000000000005
22
2.867671745559793
32
1.2745811467968204
13
7.750000000000005
23
2.867671745559793
33
1.2745811467968204
70
1
  0
3DFACE
 8
body
10
-4.999999999999995
20
3.0
30
3.5
11
7.750000000000005
21
3.0
31
1.75
12
-4.999999999999995
22
3.0
32
1.75
13
-4.999999999999995
23
3.0
33
1.75
70
1
  0
3DFACE
 8
body
10
7.750000000000005
20
3.0
30
1.75
11
-4.999999999999995
21
3.0
31
3.5
12
7.750000000000005
22
3.0
32
3.5
13
7.750000000000005
23
3.0
33
3.5
70
1
  0
3DFACE
 8
body
10
-4.999999999999995
20
2.9897015324617477
30
1.5490877994396335
11
7.750000000000005
21
2.9626563101115444
31
1.4519217886828808
12
-4.999999999999995
22
2.9626563101115444
32
1.4519217886828808
13
-4.999999999999995
23
2.9626563101115444
33
1.4519217886828808
70
1
  0
3DFACE
 8
body
10
7.750000000000005
20
2.9626563101115444
30
1.4519217886828808
11
-4.999999999999995
21
2.9897015324617477
31
1.5490877994396335
12
7.750000000000005
22
2.9897015324617477
32
1.5490877994396335
13
7.750000000000005
23
2.9897015324617477
33
1.5490877994396335
70
1
  0
3DFACE
 8
body
10
7.750000000000005
20
2.8017766952966365
30
1.1982233047033635
11
-4.999999999999995
21
2.7254188532031787
31
1.1323282544402056
12
-4.999999999999995
22
2.8017766952966365
32
1.1982233047033635
13
-4.999999999999995
23
2.8017766952966365
33
1.1982233047033635
70
1
  0
3DFACE
 8
body
10
-4.999999999999995
20
2.7254188532031787
30
1.1323282544402056
11
7.750000000000005
21
2.8017766952966365
31
1.1982233047033635
12
7.750000000000005
22
2.7254188532031787
32
1.1323282544402056
13
7.750000000000005
23
2.7254188532031787
33
1.1323282544402056
70
1
  0
3DFACE
 8
body
10
7.750000000000005
20
2.5480782113171188
30
1.0373436898884558
11
-4.999999999999995
21
2.4509122005603654
31
1.0102984675382511
12
-4.999999999999995
22
2.5480782113171188
32
1.0373436898884558
13
-4.999999999999995
23
2.5480782113171188
33
1.0373436898884558
70
1
  0
3DFACE
 8
body
10
-4.999999999999995
20
2.4509122005603654
30
1.0102984675382511
11
7.750000000000005
21
2.5480782113171188
31
1.0373436898884558
12
7.750000000000005
22
2.4509122005603654
32
1.0102984675382511
13
7.750000000000005
23
2.4509122005603654
33
1.0102984675382511
70
1
  0
3DFACE
 8
body
10
7.750000000000005
20
3.0022393770907527
30
1.649165170260476
11
7.750000000000005
21
3.0
31
1.75
12
7.750000000000005
22
3.0
32
1.6312904096337157
13
7.750000000000005
23
3.0
33
1.6312904096337157
70
0
  0
3DFACE
 8
body
10
7.750000000000005
20
2.3687095903662865
30
1.0
11
7.750000000000005
21
2.25
31
1.0
12
7.750000000000005
22
2.350834829739524
32
0.9977606229092469
13
7.750000000000005
23
2.350834829739524
33
0.9977606229092469
70
0
  0
3DFACE
 8
body
10
7.750000000000005
20
2.25
30
1.0
11
7.750000000000005
21
0.0
31
1.875
12
7.750000000000005
22
0.0
32
1.0
13
7.750000000000005
23
0.0
33
1.0
70
1
  0
3DFACE
 8
body
10
7.750000000000005
20
0.0
30
1.875
11
7.750000000000005
21
2.25
31
1.0
12
7.750000000000005
22
1.1747544018386193
32
1.8759471195380106
13
7.750000000000005
23
1.1747544018386193
33
1.8759471195380106
70
3
  0
3DFACE
 8
body
10
7.750000000000005
20
1.1747544018386193
30
1.8759471195380106
11
7.750000000000005
21
2.25
31
1.0
12
7.750000000000005
22
1.2457732068062848
32
1.8996200545272304
13
7.750000000000005
23
1.2457732068062848
33
1.8996200545272304
70
3
  0
3DFACE
 8
body
10
7.750000000000005
20
1.2457732068062848
30
1.8996200545272304
11
7.750000000000005
21
2.25
31
1.0
12
7.750000000000007
22
1.3062249999999933
32
1.9437749999999956
13
7.750000000000007
23
1.3062249999999933
33
1.9437749999999956
70
3
  0
3DFACE
 8
body
10
7.750000000000007
20
1.3062249999999933
30
1.9437749999999956
11
7.750000000000005
21
2.25
31
1.0
12
7.750000000000007
22
1.350379945472767
32
2.0042267931937126
13
7.750000000000007
23
1.350379945472767
33
2.0042267931937126
70
3
  0
3DFACE
 8
body
10
7.750000000000007
20
1.350379945472767
30
2.0042267931937126
11
7.750000000000005
21
2.25
31
1.0
12
7.750000000000005
22
1.3740528804619876
32
2.075245598161383
13
7.750000000000005
23
1.3740528804619876
33
2.075245598161383
70
3
  0
3DFACE
 8
body
10
7.750000000000005
20
1.3740528804619876
30
2.075245598161383
11
7.750000000000005
21
2.25
31
1.0
12
7.7500000000000036
22
1.3740528804619905
32
3.9247544018386162
13
7.7500000000000036
23
1.3740528804619905
33
3.9247544018386162
70
3
  0
3DFACE
 8
body
10
7.7500000000000036
20
1.1747544018386225
30
4.124052880461991
11
7.750000000000005
21
0.0
31
5.0
12
7.750000000000005
22
0.0
32
4.125
13
7.750000000000005
23
0.0
33
4.125
70
1
  0
3DFACE
 8
body
10
7.750000000000005
20
0.0
30
5.0
11
7.7500000000000036
21
1.1747544018386225
31
4.124052880461991
12
7.750000000000005
22
2.25
32
5.0
13
7.750000000000005
23
2.25
33
5.0
70
3
  0
3DFACE
 8
body
10
7.750000000000005
20
2.25
30
5.0
11
7.7500000000000036
21
1.1747544018386225
31
4.124052880461991
12
7.7500000000000036
22
1.2457732068062874
32
4.100379945472771
13
7.7500000000000036
23
1.2457732068062874
33
4.100379945472771
70
13
  0
3DFACE
 8
body
10
7.750000000000005
20
2.25
30
5.0
11
7.7500000000000036
21
1.2457732068062874
31
4.100379945472771
12
7.7500000000000036
22
1.3062249999999964
32
4.056225000000004
13
7.7500000000000036
23
1.3062249999999964
33
4.056225000000004
70
13
  0
3DFACE
 8
body
10
7.750000000000005
20
2.25
30
5.0
11
7.7500000000000036
21
1.3062249999999964
31
4.056225000000004
12
7.7500000000000036
22
1.3503799454727698
32
3.9957732068062874
13
7.7500000000000036
23
1.3503799454727698
33
3.9957732068062874
70
13
  0
3DFACE
 8
body
10
7.750000000000005
20
2.25
30
5.0
11
7.7500000000000036
21
1.3503799454727698
31
3.9957732068062874
12
7.7500000000000036
22
1.3740528804619905
32
3.9247544018386162
13
7.7500000000000036
23
1.3740528804619905
33
3.9247544018386162
70
13
  0
3DFACE
 8
body
10
7.750000000000005
20
2.25
30
5.0
11
7.7500000000000036
21
1.3740528804619905
31
3.9247544018386162
12
7.750000000000005
22
2.25
32
1.0
13
7.750000000000005
23
2.25
33
1.0
70
15
  0
3DFACE
 8
body
10
7.750000000000005
20
2.25
30
5.0
11
7.750000000000005
21
2.25
31
1.0
12
7.750000000000005
22
2.3687095903662865
32
1.0
13
7.750000000000005
23
2.3687095903662865
33
1.0
70
13
  0
3DFACE
 8
body
10
7.750000000000005
20
2.25
30
5.0
11
7.750000000000005
21
2.3687095903662865
31
1.0
12
7.750000000000005
22
3.0
32
3.5
13
7.750000000000005
23
3.0
33
3.5
70
3
  0
3DFACE
 8
body
10
7.750000000000005
20
3.0
30
3.5
11
7.750000000000005
21
2.3687095903662865
31
1.0
12
7.750000000000005
22
2.4509122005603654
32
1.0102984675382511
13
7.750000000000005
23
2.4509122005603654
33
1.0102984675382511
70
13
  0
3DFACE
 8
body
10
7.750000000000005
20
3.0
30
3.5
11
7.750000000000005
21
2.4509122005603654
31
1.0102984675382511
12
7.750000000000005
22
2.5480782113171188
32
1.0373436898884558
13
7.750000000000005
23
2.5480782113171188
33
1.0373436898884558
70
13
  0
3DFACE
 8
body
10
7.750000000000005
20
3.0
30
3.5
11
7.750000000000005
21
2.5480782113171188
31
1.0373436898884558
12
7.750000000000005
22
2.6402416202020973
32
1.078314212963632
13
7.750000000000005
23
2.6402416202020973
33
1.078314212963632
70
13
  0
3DFACE
 8
body
10
7.750000000000005
20
3.0
30
3.5
11
7.750000000000005
21
2.6402416202020973
31
1.078314212963632
12
7.750000000000005
22
2.7254188532031787
32
1.1323282544402056
13
7.750000000000005
23
2.7254188532031787
33
1.1323282544402056
70
13
  0
3DFACE
 8
body
10
7.750000000000005
20
3.0
30
3.5
11
7.750000000000005
21
2.7254188532031787
31
1.1323282544402056
12
7.750000000000005
22
2.8017766952966365
32
1.1982233047033635
13
7.750000000000005
23
2.8017766952966365
33
1.1982233047033635
70
13
  0
3DFACE
 8
body
10
7.750000000000005
20
3.0
30
3.5
11
7.750000000000005
21
2.8017766952966365
31
1.1982233047033635
12
7.750000000000005
22
2.867671745559793
32
1.2745811467968204
13
7.750000000000005
23
2.867671745559793
33
1.2745811467968204
70
13
  0
3DFACE
 8
body
10
7.750000000000005
20
3.0
30
3.5
11
7.750000000000005
21
2.867671745559793
31
1.2745811467968204
12
7.750000000000005
22
2.921685787036367
32
1.3597583797979014
13
7.750000000000005
23
2.921685787036367
33
1.3597583797979014
70
13
  0
3DFACE
 8
body
10
7.750000000000005
20
3.0
30
3.5
11
7.750000000000005
21
2.921685787036367
31
1.3597583797979014
12
7.750000000000005
22
2.9626563101115444
32
1.4519217886828808
13
7.750000000000005
23
2.9626563101115444
33
1.4519217886828808
70
13
  0
3DFACE
 8
body
10
7.750000000000005
20
3.0
30
3.5
11
7.750000000000005
21
2.9626563101115444
31
1.4519217886828808
12
7.750000000000005
22
2.9897015324617477
32
1.5490877994396335
13
7.750000000000005
23
2.9897015324617477
33
1.5490877994396335
70
13
  0
3DFACE
 8
body
10
7.750000000000005
20
3.0
30
3.5
11
7.750000000000005
21
2.9897015324617477
31
1.5490877994396335
12
7.750000000000005
22
3.0
32
1.6312904096337157
13
7.750000000000005
23
3.0
33
1.6312904096337157
70
13
  0
3DFACE
 8
body
10
7.750000000000005
20
3.0
30
3.5
11
7.750000000000005
21
3.0
31
1.6312904096337157
12
7.750000000000005
22
3.0
32
1.75
13
7.750000000000005
23
3.0
33
1.75
70
1
  0
3DFACE
 8
body
10
7.750000000000005
20
1.3740528804619876
30
2.075245598161383
11
7.550000000000008
21
1.350379945472767
31
2.0042267931937126
12
7.750000000000007
22
1.350379945472767
32
2.0042267931937126
13
7.750000000000007
23
1.350379945472767
33
2.0042267931937126
70
1
  0
3DFACE
 8
body
10
7.550000000000008
20
1.350379945472767
30
2.0042267931937126
11
7.750000000000005
21
1.3740528804619876
31
2.075245598161383
12
7.550000000000006
22
1.3740528804619876
32
2.075245598161383
13
7.550000000000006
23
1.3740528804619876
33
2.075245598161383
70
1
  0
3DFACE
 8
body
10
7.750000000000005
20
0.0
30
1.875
11
7.550000000000006
21
1.1747544018386193
31
1.8759471195380104
12
7.550000000000006
22
-2.222303025906979e-17
32
1.8749999999999998
13
7.550000000000006
23
-2.222303025906979e-17
33
1.8749999999999998
70
1
  0
3DFACE
 8
body
10
7.550000000000006
20
1.1747544018386193
30
1.8759471195380104
11
7.750000000000005
21
0.0
31
1.875
12
7.750000000000005
22
1.1747544018386193
32
1.8759471195380106
13
7.750000000000005
23
1.1747544018386193
33
1.8759471195380106
70
1
  0
3DFACE
 8
body
10
7.7500000000000036
20
1.1747544018386225
30
4.124052880461991
11
7.550000000000006
21
-2.222303025906979e-17
31
4.125
12
7.550000000000004
22
1.1747544018386225
32
4.124052880461991
13
7.550000000000004
23
1.1747544018386225
33
4.124052880461991
70
1
  0
3DFACE
 8
body
10
7.550000000000006
20
-2.222303025906979e-17
30
4.125
11
7.7500000000000036
21
1.1747544018386225
31
4.124052880461991
12
7.750000000000005
22
0.0
32
4.125
13
7.750000000000005
23
0.0
33
4.125
70
1
  0
3DFACE
 8
body
10
7.7500000000000036
20
1.2457732068062874
30
4.100379945472771
11
7.550000000000004
21
1.1747544018386225
31
4.124052880461991
12
7.550000000000004
22
1.2457732068062874
32
4.100379945472771
13
7.550000000000004
23
1.2457732068062874
33
4.100379945472771
70
1
  0
3DFACE
 8
body
10
7.550000000000004
20
1.1747544018386225
30
4.124052880461991
11
7.7500000000000036
21
1.2457732068062874
31
4.100379945472771
12
7.7500000000000036
22
1.1747544018386225
32
4.124052880461991
13
7.7500000000000036
23
1.1747544018386225
33
4.124052880461991
70
1
  0
3DFACE
 8
body
10
7.7500000000000036
20
1.3503799454727698
30
3.9957732068062874
11
7.550000000000004
21
1.3740528804619905
31
3.9247544018386162
12
7.7500000000000036
22
1.3740528804619905
32
3.9247544018386162
13
7.7500000000000036
23
1.3740528804619905
33
3.9247544018386162
70
1
  0
3DFACE
 8
body
10
7.550000000000004
20
1.3740528804619905
30
3.9247544018386162
11
7.7500000000000036
21
1.3503799454727698
31
3.9957732068062874
12
7.550000000000004
22
1.3503799454727698
32
3.9957732068062874
13
7.550000000000004
23
1.3503799454727698
33
3.9957732068062874
70
1
  0
3DFACE
 8
body
10
7.750000000000007
20
1.3062249999999933
30
1.9437749999999956
11
7.550000000000008
21
1.350379945472767
31
2.0042267931937126
12
7.550000000000008
22
1.3062249999999933
32
1.9437749999999956
13
7.550000000000008
23
1.3062249999999933
33
1.9437749999999956
70
1
  0
3DFACE
 8
body
10
7.550000000000008
20
1.350379945472767
30
2.0042267931937126
11
7.750000000000007
21
1.3062249999999933
31
1.9437749999999956
12
7.750000000000007
22
1.350379945472767
32
2.0042267931937126
13
7.750000000000007
23
1.350379945472767
33
2.0042267931937126
70
1
  0
3DFACE
 8
body
10
7.7500000000000036
20
1.3062249999999964
30
4.056225000000004
11
7.550000000000004
21
1.2457732068062874
31
4.100379945472771
12
7.550000000000004
22
1.3062249999999964
32
4.056225000000004
13
7.550000000000004
23
1.3062249999999964
33
4.056225000000004
70
1
  0
3DFACE
 8
body
10
7.550000000000004
20
1.2457732068062874
30
4.100379945472771
11
7.7500000000000036
21
1.3062249999999964
31
4.056225000000004
12
7.7500000000000036
22
1.2457732068062874
32
4.100379945472771
13
7.7500000000000036
23
1.2457732068062874
33
4.100379945472771
70
1
  0
3DFACE
 8
body
10
7.750000000000005
20
1.1747544018386193
30
1.8759471195380106
11
7.550000000000006
21
1.2457732068062848
31
1.8996200545272304
12
7.550000000000006
22
1.1747544018386193
32
1.8759471195380104
13
7.550000000000006
23
1.1747544018386193
33
1.8759471195380104
70
1
  0
3DFACE
 8
body
10
7.550000000000006
20
1.2457732068062848
30
1.8996200545272304
11
7.750000000000005
21
1.1747544018386193
31
1.8759471195380106
12
7.750000000000005
22
1.2457732068062848
32
1.8996200545272304
13
7.750000000000005
23
1.2457732068062848
33
1.8996200545272304
70
1
  0
3DFACE
 8
body
10
7.7500000000000036
20
1.3740528804619905
30
3.9247544018386162
11
7.550000000000006
21
1.3740528804619876
31
2.075245598161383
12
7.750000000000005
22
1.3740528804619876
32
2.075245598161383
13
7.750000000000005
23
1.3740528804619876
33
2.075245598161383
70
1
  0
3DFACE
 8
body
10
7.550000000000006
20
1.3740528804619876
30
2.075245598161383
11
7.7500000000000036
21
1.3740528804619905
31
3.9247544018386162
12
7.550000000000004
22
1.3740528804619905
32
3.9247544018386162
13
7.550000000000004
23
1.3740528804619905
33
3.9247544018386162
70
1
  0
3DFACE
 8
body
10
7.750000000000005
20
1.2457732068062848
30
1.8996200545272304
11
7.550000000000008
21
1.3062249999999933
31
1.9437749999999956
12
7.550000000000006
22
1.2457732068062848
32
1.8996200545272304
13
7.550000000000006
23
1.2457732068062848
33
1.8996200545272304
70
1
  0
3DFACE
 8
body
10
7.550000000000008
20
1.3062249999999933
30
1.9437749999999956
11
7.750000000000005
21
1.2457732068062848
31
1.8996200545272304
12
7.750000000000007
22
1.3062249999999933
32
1.9437749999999956
13
7.750000000000007
23
1.3062249999999933
33
1.9437749999999956
70
1
  0
3DFACE
 8
body
10
7.7500000000000036
20
1.3062249999999964
30
4.056225000000004
11
7.550000000000004
21
1.3503799454727698
31
3.9957732068062874
12
7.7500000000000036
22
1.3503799454727698
32
3.9957732068062874
13
7.7500000000000036
23
1.3503799454727698
33
3.9957732068062874
70
1
  0
3DFACE
 8
body
10
7.550000000000004
20
1.3503799454727698
30
3.9957732068062874
11
7.7500000000000036
21
1.3062249999999964
31
4.056225000000004
12
7.550000000000004
22
1.3062249999999964
32
4.056225000000004
13
7.550000000000004
23
1.3062249999999964
33
4.056225000000004
70
1
  0
3DFACE
 8
body
10
-4.999999999999995
20
2.25
30
5.0
11
-4.999999999999995
21
0.0
31
1.0
12
-4.999999999999995
22
0.0
32
5.0
13
-4.999999999999995
23
0.0
33
5.0
70
1
  0
3DFACE
 8
body
10
-4.999999999999995
20
0.0
30
1.0
11
-4.999999999999995
21
2.25
31
5.0
12
-4.999999999999995
22
2.25
32
1.0
13
-4.999999999999995
23
2.25
33
1.0
70
3
  0
3DFACE
 8
body
10
-4.999999999999995
20
2.25
30
1.0
11
-4.999999999999995
21
2.25
31
5.0
12
-4.999999999999995
22
3.0
32
3.5
13
-4.999999999999995
23
3.0
33
3.5
70
13
  0
3DFACE
 8
body
10
-4.999999999999995
20
2.25
30
1.0
11
-4.999999999999995
21
3.0
31
3.5
12
-4.999999999999995
22
2.3687095903662865
32
1.0
13
-4.999999999999995
23
2.3687095903662865
33
1.0
70
3
  0
3DFACE
 8
body
10
-4.999999999999995
20
2.3687095903662865
30
1.0
11
-4.999999999999995
21
3.0
31
3.5
12
-4.999999999999995
22
2.4509122005603654
32
1.0102984675382511
13
-4.999999999999995
23
2.4509122005603654
33
1.0102984675382511
70
3
  0
3DFACE
 8
body
10
-4.999999999999995
20
2.4509122005603654
30
1.0102984675382511
11
-4.999999999999995
21
3.0
31
3.5
12
-4.999999999999995
22
2.5480782113171188
32
1.0373436898884558
13
-4.999999999999995
23
2.5480782113171188
33
1.0373436898884558
70
3
  0
3DFACE
 8
body
10
-4.999999999999995
20
2.5480782113171188
30
1.0373436898884558
11
-4.999999999999995
21
3.0
31
3.5
12
-4.999999999999995
22
2.6402416202020973
32
1.078314212963632
13
-4.999999999999995
23
2.6402416202020973
33
1.078314212963632
70
3
  0
3DFACE
 8
body
10
-4.999999999999995
20
2.6402416202020973
30
1.078314212963632
11
-4.999999999999995
21
3.0
31
3.5
12
-4.999999999999995
22
2.7254188532031787
32
1.1323282544402056
13
-4.999999999999995
23
2.7254188532031787
33
1.1323282544402056
70
3
  0
3DFACE
 8
body
10
-4.999999999999995
20
2.7254188532031787
30
1.1323282544402056
11
-4.999999999999995
21
3.0
31
3.5
12
-4.999999999999995
22
2.8017766952966365
32
1.1982233047033635
13
-4.999999999999995
23
2.8017766952966365
33
1.1982233047033635
70
3
  0
3DFACE
 8
body
10
-4.999999999999995
20
2.8017766952966365
30
1.1982233047033635
11
-4.999999999999995
21
3.0
31
3.5
12
-4.999999999999995
22
2.867671745559793
32
1.2745811467968204
13
-4.999999999999995
23
2.867671745559793
33
1.2745811467968204
70
3
  0
3DFACE
 8
body
10
-4.999999999999995
20
2.867671745559793
30
1.2745811467968204
11
-4.999999999999995
21
3.0
31
3.5
12
-4.999999999999995
22
2.921685787036367
32
1.3597583797979014
13
-4.999999999999995
23
2.921685787036367
33
1.3597583797979014
70
3
  0
3DFACE
 8
body
10
-4.999999999999995
20
2.921685787036367
30
1.3597583797979014
11
-4.999999999999995
21
3.0
31
3.5
12
-4.999999999999995
22
2.9626563101115444
32
1.4519217886828808
13
-4.999999999999995
23
2.9626563101115444
33
1.4519217886828808
70
3
  0
3DFACE
 8
body
10
-4.999999999999995
20
2.9626563101115444
30
1.4519217886828808
11
-4.999999999999995
21
3.0
31
3.5
12
-4.999999999999995
22
2.9897015324617477
32
1.5490877994396335
13
-4.999999999999995
23
2.9897015324617477
33
1.5490877994396335
70
3
  0
3DFACE
 8
body
10
-4.999999999999995
20
2.9897015324617477
30
1.5490877994396335
11
-4.999999999999995
21
3.0
31
3.5
12
-4.999999999999995
22
3.0
32
1.6312904096337157
13
-4.999999999999995
23
3.0
33
1.6312904096337157
70
3
  0
3DFACE
 8
body
10
-4.999999999999995
20
3.0
30
1.6312904096337157
11
-4.999999999999995
21
3.0
31
3.5
12
-4.999999999999995
22
3.0
32
1.75
13
-4.999999999999995
23
3.0
33
1.75
70
1
  0
LINE
 8
pipe
10
-0.08721736878314612
20
8.494352845371596e-15
30
-2.4776466855968224
11
-0.3956452587067991
21
1.0422940645021578e-14
31
-3.1080810198814763
  0
LINE
 8
pipe
10
-1.5223533144031824
20
1.2493526601693497e-14
30
-3.9127826312168583
11
-2.2187500000000036
21
1.2411535748317739e-14
31
-4.000000000000002
  0
LINE
 8
pipe
10
-2.6645352591003757e-15
20
6.228730001642882e-15
30
-1.7812500000000018
11
-2.6645352591003757e-15
21
4.592425496802568e-17
31
0.4374999999999982
  0
LINE
 8
pipe
10
-8.000000000000002
20
1.2411535748317739e-14
30
-4.000000000000002
11
-2.2187500000000036
21
1.2411535748317739e-14
31
-4.000000000000002
  0
LINE
 8
pipe
10
-2.6645352591003757e-15
20
6.228730001642882e-15
30
-1.7812500000000018
11
-0.08721736878314612
21
8.494352845371596e-15
31
-2.4776466855968224
  0
LINE
 8
pipe
10
-0.8919189801185281
20
1.1805865272252293e-14
30
-3.604354741293205
11
-1.5223533144031824
21
1.2493526601693497e-14
31
-3.9127826312168583
  0
LINE
 8
pipe
10
-0.3956452587067991
20
1.0422940645021578e-14
30
-3.1080810198814763
11
-0.8919189801185281
21
1.1805865272252293e-14
31
-3.604354741293205
  0
3DFACE
 8
pipe
10
-0.2651650429449557
20
0.2651650429449638
30
0.4374999999999982
11
-0.3464548246917367
21
0.14350628713692343
31
-1.7596392507172038
12
-0.3464548246917367
22
0.1435062871369173
32
0.4374999999999982
13
-0.3464548246917367
23
0.1435062871369173
33
0.4374999999999982
70
1
  0
3DFACE
 8
pipe
10
-0.3464548246917367
20
0.14350628713692343
30
-1.7596392507172038
11
-0.2651650429449557
21
0.2651650429449638
31
0.4374999999999982
12
-0.2651650429449557
22
0.26516504294496995
32
-1.764709848576957
13
-0.2651650429449557
23
0.26516504294496995
33
-1.764709848576957
70
1
  0
3DFACE
 8
pipe
10
-0.2651650429449557
20
0.26516504294496995
30
-1.764709848576957
11
-0.1435062871369066
21
0.34645482469173966
31
0.4374999999999982
12
-0.1435062871369066
22
0.3464548246917458
32
-1.7722985345540216
13
-0.1435062871369066
23
0.3464548246917458
33
-1.7722985345540216
70
1
  0
3DFACE
 8
pipe
10
-0.1435062871369066
20
0.34645482469173966
30
0.4374999999999982
11
-0.2651650429449557
21
0.26516504294496995
31
-1.764709848576957
12
-0.2651650429449557
22
0.2651650429449638
32
0.4374999999999982
13
-0.2651650429449557
23
0.2651650429449638
33
0.4374999999999982
70
1
  0
3DFACE
 8
pipe
10
-0.1435062871369066
20
0.3464548246917458
30
-1.7722985345540216
11
5.329070518200751e-15
21
0.37500000000000466
31
0.4374999999999982
12
5.329070518200751e-15
22
0.3750000000000108
32
-1.7812500000000009
13
5.329070518200751e-15
23
0.3750000000000108
33
-1.7812500000000009
70
1
  0
3DFACE
 8
pipe
10
5.329070518200751e-15
20
0.37500000000000466
30
0.4374999999999982
11
-0.1435062871369066
21
0.3464548246917458
31
-1.7722985345540216
12
-0.1435062871369066
22
0.34645482469173966
32
0.4374999999999982
13
-0.1435062871369066
23
0.34645482469173966
33
0.4374999999999982
70
1
  0
3DFACE
 8
pipe
10
5.329070518200751e-15
20
0.3750000000000108
30
-1.7812500000000009
11
0.1435062871369155
21
0.34645482469173394
31
0.4374999999999982
12
0.1435062871369155
22
0.34645482469174016
32
-1.7902014654459806
13
0.1435062871369155
23
0.34645482469174016
33
-1.7902014654459806
70
1
  0
3DFACE
 8
pipe
10
0.1435062871369155
20
0.34645482469173394
30
0.4374999999999982
11
5.329070518200751e-15
21
0.3750000000000108
31
-1.7812500000000009
12
5.329070518200751e-15
22
0.37500000000000466
32
0.4374999999999982
13
5.329070518200751e-15
23
0.37500000000000466
33
0.4374999999999982
70
1
  0
3DFACE
 8
pipe
10
0.1435062871369155
20
0.34645482469174016
30
-1.7902014654459806
11
0.265165042944961
21
0.26516504294495347
31
0.4374999999999982
12
0.265165042944961
22
0.2651650429449597
32
-1.7977901514230457
13
0.265165042944961
23
0.2651650429449597
33
-1.7977901514230457
70
1
  0
3DFACE
 8
pipe
10
0.265165042944961
20
0.26516504294495347
30
0.4374999999999982
11
0.1435062871369155
21
0.34645482469174016
31
-1.7902014654459806
12
0.1435062871369155
22
0.34645482469173394
32
0.4374999999999982
13
0.1435062871369155
23
0.34645482469173394
33
0.4374999999999982
70
1
  0
3DFACE
 8
pipe
10
0.3464548246917367
20
0.14350628713691005
30
-1.8028607492827988
11
0.265165042944961
21
0.26516504294495347
31
0.4374999999999982
12
0.3464548246917367
22
0.1435062871369038
32
0.4374999999999982
13
0.3464548246917367
23
0.1435062871369038
33
0.4374999999999982
70
1
  0
3DFACE
 8
pipe
10
0.265165042944961
20
0.26516504294495347
30
0.4374999999999982
11
0.3464548246917367
21
0.14350628713691005
31
-1.8028607492827988
12
0.265165042944961
22
0.2651650429449597
32
-1.7977901514230457
13
0.265165042944961
23
0.2651650429449597
33
-1.7977901514230457
70
1
  0
3DFACE
 8
pipe
10
0.3750000000000018
20
-1.1024457386968605e-15
30
-1.8046413064661762
11
0.3464548246917367
21
0.1435062871369038
31
0.4374999999999982
12
0.3750000000000018
22
-7.350434090010048e-15
32
0.4374999999999982
13
0.3750000000000018
23
-7.350434090010048e-15
33
0.4374999999999982
70
1
  0
3DFACE
 8
pipe
10
0.3464548246917367
20
0.1435062871369038
30
0.4374999999999982
11
0.3750000000000018
21
-1.1024457386968605e-15
31
-1.8046413064661762
12
0.3464548246917367
22
0.14350628713691005
32
-1.8028607492827988
13
0.3464548246917367
23
0.14350628713691005
33
-1.8028607492827988
70
1
  0
3DFACE
 8
pipe
10
-0.3464548246917367
20
0.1435062871369173
30
0.4374999999999982
11
-0.3750000000000071
21
1.3513981487014599e-14
31
-1.7578586935338274
12
-0.3750000000000071
22
7.396358344978072e-15
32
0.4374999999999982
13
-0.3750000000000071
23
7.396358344978072e-15
33
0.4374999999999982
70
1
  0
3DFACE
 8
pipe
10
-0.3750000000000071
20
1.3513981487014599e-14
30
-1.7578586935338274
11
-0.3464548246917367
21
0.1435062871369173
31
0.4374999999999982
12
-0.3464548246917367
22
0.14350628713692343
32
-1.7596392507172038
13
-0.3464548246917367
23
0.14350628713692343
33
-1.7596392507172038
70
1
  0
3DFACE
 8
pipe
10
-0.2651650429449557
20
0.26516504294496995
30
-1.764709848576957
11
-0.4238086227292559
21
0.14350628713692543
31
-2.3772791694998214
12
-0.3464548246917367
22
0.14350628713692343
32
-1.7596392507172038
13
-0.3464548246917367
23
0.14350628713692343
33
-1.7596392507172038
70
1
  0
3DFACE
 8
pipe
10
-0.4238086227292559
20
0.14350628713692543
30
-2.3772791694998214
11
-0.2651650429449557
21
0.26516504294496995
31
-1.764709848576957
12
-0.3448331615114766
22
0.265165042944972
32
-2.4008287144809053
13
-0.3448331615114766
23
0.265165042944972
33
-2.4008287144809053
70
1
  0
3DFACE
 8
pipe
10
-0.3448331615114766
20
0.265165042944972
30
-2.4008287144809053
11
-0.1435062871369066
21
0.3464548246917458
31
-1.7722985345540216
12
-0.22663803114378656
22
0.34645482469174793
32
-2.4360730992077455
13
-0.22663803114378656
23
0.34645482469174793
33
-2.4360730992077455
70
1
  0
3DFACE
 8
pipe
10
-0.1435062871369066
20
0.3464548246917458
30
-1.7722985345540216
11
-0.3448331615114766
21
0.265165042944972
31
-2.4008287144809053
12
-0.2651650429449557
22
0.26516504294496995
32
-1.764709848576957
13
-0.2651650429449557
23
0.26516504294496995
33
-1.764709848576957
70
1
  0
3DFACE
 8
pipe
10
-0.22663803114378656
20
0.34645482469174793
30
-2.4360730992077455
11
5.329070518200751e-15
21
0.3750000000000108
31
-1.7812500000000009
12
-0.08721736878313813
22
0.3750000000000131
32
-2.4776466855968238
13
-0.08721736878313813
23
0.3750000000000131
33
-2.4776466855968238
70
1
  0
3DFACE
 8
pipe
10
5.329070518200751e-15
20
0.3750000000000108
30
-1.7812500000000009
11
-0.22663803114378656
21
0.34645482469174793
31
-2.4360730992077455
12
-0.1435062871369066
22
0.3464548246917458
32
-1.7722985345540216
13
-0.1435062871369066
23
0.3464548246917458
33
-1.7722985345540216
70
1
  0
3DFACE
 8
pipe
10
-0.08721736878313813
20
0.3750000000000131
30
-2.4776466855968238
11
0.1435062871369155
21
0.34645482469174016
31
-1.7902014654459806
12
0.05220329357750764
22
0.34645482469174255
32
-2.519220271985901
13
0.05220329357750764
23
0.34645482469174255
33
-2.519220271985901
70
1
  0
3DFACE
 8
pipe
10
0.1435062871369155
20
0.34645482469174016
30
-1.7902014654459806
11
-0.08721736878313813
21
0.3750000000000131
31
-2.4776466855968238
12
5.329070518200751e-15
22
0.3750000000000108
32
-1.7812500000000009
13
5.329070518200751e-15
23
0.3750000000000108
33
-1.7812500000000009
70
1
  0
3DFACE
 8
pipe
10
0.05220329357750764
20
0.34645482469174255
30
-2.519220271985901
11
0.265165042944961
21
0.2651650429449597
31
-1.7977901514230457
12
0.1703984239451941
22
0.2651650429449621
32
-2.554464656712741
13
0.1703984239451941
23
0.2651650429449621
33
-2.554464656712741
70
1
  0
3DFACE
 8
pipe
10
0.265165042944961
20
0.2651650429449597
30
-1.7977901514230457
11
0.05220329357750764
21
0.34645482469174255
31
-2.519220271985901
12
0.1435062871369155
22
0.34645482469174016
32
-1.7902014654459806
13
0.1435062871369155
23
0.34645482469174016
33
-1.7902014654459806
70
1
  0
3DFACE
 8
pipe
10
0.249373885162969
20
0.14350628713691257
30
-2.578014201693824
11
0.265165042944961
21
0.2651650429449597
31
-1.7977901514230457
12
0.3464548246917367
22
0.14350628713691005
32
-1.8028607492827988
13
0.3464548246917367
23
0.14350628713691005
33
-1.8028607492827988
70
1
  0
3DFACE
 8
pipe
10
0.265165042944961
20
0.2651650429449597
30
-1.7977901514230457
11
0.249373885162969
21
0.14350628713691257
31
-2.578014201693824
12
0.1703984239451941
22
0.2651650429449621
32
-2.554464656712741
13
0.1703984239451941
23
0.2651650429449621
33
-2.554464656712741
70
1
  0
3DFACE
 8
pipe
10
0.27710637917476255
20
1.4405113201022419e-15
30
-2.586283702182938
11
0.3464548246917367
21
0.14350628713691005
31
-1.8028607492827988
12
0.3750000000000018
22
-1.1024457386968605e-15
32
-1.8046413064661762
13
0.3750000000000018
23
-1.1024457386968605e-15
33
-1.8046413064661762
70
1
  0
3DFACE
 8
pipe
10
0.3464548246917367
20
0.14350628713691005
30
-1.8028607492827988
11
0.27710637917476255
21
1.4405113201022419e-15
31
-2.586283702182938
12
0.249373885162969
22
0.14350628713691257
32
-2.578014201693824
13
0.249373885162969
23
0.14350628713691257
33
-2.578014201693824
70
1
  0
3DFACE
 8
pipe
10
-0.3464548246917367
20
0.14350628713692343
30
-1.7596392507172038
11
-0.4515411167410548
21
1.5502270115672923e-14
31
-2.3690096690107065
12
-0.3750000000000071
22
1.3513981487014599e-14
32
-1.7578586935338274
13
-0.3750000000000071
23
1.3513981487014599e-14
33
-1.7578586935338274
70
1
  0
3DFACE
 8
pipe
10
-0.4515411167410548
20
1.5502270115672923e-14
30
-2.3690096690107065
11
-0.3464548246917367
21
0.14350628713692343
31
-1.7596392507172038
12
-0.4238086227292559
22
0.14350628713692543
32
-2.3772791694998214
13
-0.4238086227292559
23
0.14350628713692543
33
-2.3772791694998214
70
1
  0
3DFACE
 8
pipe
10
-0.3448331615114766
20
0.265165042944972
30
-2.4008287144809053
11
-0.6814692043452624
21
0.14350628713692704
31
-2.9039438536912954
12
-0.4238086227292559
22
0.14350628713692543
32
-2.3772791694998214
13
-0.4238086227292559
23
0.14350628713692543
33
-2.3772791694998214
70
1
  0
3DFACE
 8
pipe
10
-0.6814692043452624
20
0.14350628713692704
30
-2.9039438536912954
11
-0.3448331615114766
21
0.265165042944972
31
-2.4008287144809053
12
-0.6144054358449154
22
0.26516504294497373
32
-2.9518411970195952
13
-0.6144054358449154
23
0.26516504294497373
33
-2.9518411970195952
70
1
  0
3DFACE
 8
pipe
10
-0.6144054358449154
20
0.26516504294497373
30
-2.9518411970195952
11
-0.22663803114378656
21
0.34645482469174793
31
-2.4360730992077455
12
-0.514037413441236
22
0.34645482469174976
32
-3.0235246370610946
13
-0.514037413441236
23
0.34645482469174976
33
-3.0235246370610946
70
1
  0
3DFACE
 8
pipe
10
-0.22663803114378656
20
0.34645482469174793
30
-2.4360730992077455
11
-0.6144054358449154
21
0.26516504294497373
31
-2.9518411970195952
12
-0.3448331615114766
22
0.265165042944972
32
-2.4008287144809053
13
-0.3448331615114766
23
0.265165042944972
33
-2.4008287144809053
70
1
  0
3DFACE
 8
pipe
10
-0.514037413441236
20
0.34645482469174976
30
-3.0235246370610946
11
-0.08721736878313813
21
0.3750000000000131
31
-2.4776466855968238
12
-0.395645258706792
22
0.37500000000001504
32
-3.10808101988148
13
-0.395645258706792
23
0.37500000000001504
33
-3.10808101988148
70
1
  0
3DFACE
 8
pipe
10
-0.08721736878313813
20
0.3750000000000131
30
-2.4776466855968238
11
-0.514037413441236
21
0.34645482469174976
31
-3.0235246370610946
12
-0.22663803114378656
22
0.34645482469174793
32
-2.4360730992077455
13
-0.22663803114378656
23
0.34645482469174793
33
-2.4360730992077455
70
1
  0
3DFACE
 8
pipe
10
-0.395645258706792
20
0.37500000000001504
30
-3.10808101988148
11
0.05220329357750764
21
0.34645482469174255
31
-2.519220271985901
12
-0.2772531039723507
22
0.3464548246917446
32
-3.1926374027018634
13
-0.2772531039723507
23
0.3464548246917446
33
-3.1926374027018634
70
1
  0
3DFACE
 8
pipe
10
0.05220329357750764
20
0.34645482469174255
30
-2.519220271985901
11
-0.395645258706792
21
0.37500000000001504
31
-3.10808101988148
12
-0.08721736878313813
22
0.3750000000000131
32
-2.4776466855968238
13
-0.08721736878313813
23
0.3750000000000131
33
-2.4776466855968238
70
1
  0
3DFACE
 8
pipe
10
-0.2772531039723507
20
0.3464548246917446
30
-3.1926374027018634
11
0.1703984239451941
21
0.2651650429449621
31
-2.554464656712741
12
-0.1768850815686731
22
0.2651650429449643
32
-3.264320842743362
13
-0.1768850815686731
23
0.2651650429449643
33
-3.264320842743362
70
1
  0
3DFACE
 8
pipe
10
0.1703984239451941
20
0.2651650429449621
30
-2.554464656712741
11
-0.2772531039723507
21
0.3464548246917446
31
-3.1926374027018634
12
0.05220329357750764
22
0.34645482469174255
32
-2.519220271985901
13
0.05220329357750764
23
0.34645482469174255
33
-2.519220271985901
70
1
  0
3DFACE
 8
pipe
10
-0.10982131306833232
20
0.14350628713691482
30
-3.3122181860716595
11
0.1703984239451941
21
0.2651650429449621
31
-2.554464656712741
12
0.249373885162969
22
0.14350628713691257
32
-2.578014201693824
13
0.249373885162969
23
0.14350628713691257
33
-2.578014201693824
70
1
  0
3DFACE
 8
pipe
10
0.1703984239451941
20
0.2651650429449621
30
-2.554464656712741
11
-0.10982131306833232
21
0.14350628713691482
31
-3.3122181860716595
12
-0.1768850815686731
22
0.2651650429449643
32
-3.264320842743362
13
-0.1768850815686731
23
0.2651650429449643
33
-3.264320842743362
70
1
  0
3DFACE
 8
pipe
10
-0.08627164929092768
20
3.712700234448697e-15
30
-3.329037496355521
11
0.249373885162969
21
0.14350628713691257
31
-2.578014201693824
12
0.27710637917476255
22
1.4405113201022419e-15
32
-2.586283702182938
13
0.27710637917476255
23
1.4405113201022419e-15
33
-2.586283702182938
70
1
  0
3DFACE
 8
pipe
10
0.249373885162969
20
0.14350628713691257
30
-2.578014201693824
11
-0.08627164929092768
21
3.712700234448697e-15
31
-3.329037496355521
12
-0.10982131306833232
22
0.14350628713691482
32
-3.3122181860716595
13
-0.10982131306833232
23
0.14350628713691482
33
-3.3122181860716595
70
1
  0
3DFACE
 8
pipe
10
-0.4238086227292559
20
0.14350628713692543
30
-2.3772791694998214
11
-0.7050188681226714
21
1.7087256800626433e-14
31
-2.887124543407431
12
-0.4515411167410548
22
1.5502270115672923e-14
32
-2.3690096690107065
13
-0.4515411167410548
23
1.5502270115672923e-14
33
-2.3690096690107065
70
1
  0
3DFACE
 8
pipe
10
-0.7050188681226714
20
1.7087256800626433e-14
30
-2.887124543407431
11
-0.4238086227292559
21
0.14350628713692543
31
-2.3772791694998214
12
-0.6814692043452624
22
0.14350628713692704
32
-2.9039438536912954
13
-0.6814692043452624
23
0.14350628713692704
33
-2.9039438536912954
70
1
  0
3DFACE
 8
pipe
10
-0.6814692043452624
20
0.14350628713692704
30
-2.9039438536912954
11
-1.0481588029804083
21
0.2651650429449749
31
-3.3855945641550873
12
-1.0960561463087082
22
0.1435062871369282
32
-3.318530795654741
13
-1.0960561463087082
23
0.1435062871369282
33
-3.318530795654741
70
1
  0
3DFACE
 8
pipe
10
-1.0481588029804083
20
0.2651650429449749
30
-3.3855945641550873
11
-0.6814692043452624
21
0.14350628713692704
31
-2.9039438536912954
12
-0.6144054358449154
22
0.26516504294497373
32
-2.9518411970195952
13
-0.6144054358449154
23
0.26516504294497373
33
-2.9518411970195952
70
1
  0
3DFACE
 8
pipe
10
-1.0481588029804083
20
0.2651650429449749
30
-3.3855945641550873
11
-0.514037413441236
21
0.34645482469174976
31
-3.0235246370610946
12
-0.976475362938908
22
0.34645482469175104
32
-3.4859625865587667
13
-0.976475362938908
23
0.34645482469175104
33
-3.4859625865587667
70
1
  0
3DFACE
 8
pipe
10
-0.514037413441236
20
0.34645482469174976
30
-3.0235246370610946
11
-1.0481588029804083
21
0.2651650429449749
31
-3.3855945641550873
12
-0.6144054358449154
22
0.26516504294497373
32
-2.9518411970195952
13
-0.6144054358449154
23
0.26516504294497373
33
-2.9518411970195952
70
1
  0
3DFACE
 8
pipe
10
-0.976475362938908
20
0.34645482469175104
30
-3.4859625865587667
11
-0.395645258706792
21
0.37500000000001504
31
-3.10808101988148
12
-0.8919189801185237
22
0.37500000000001643
32
-3.60435474129321
13
-0.8919189801185237
23
0.37500000000001643
33
-3.60435474129321
70
1
  0
3DFACE
 8
pipe
10
-0.395645258706792
20
0.37500000000001504
30
-3.10808101988148
11
-0.976475362938908
21
0.34645482469175104
31
-3.4859625865587667
12
-0.514037413441236
22
0.34645482469174976
32
-3.0235246370610946
13
-0.514037413441236
23
0.34645482469174976
33
-3.0235246370610946
70
1
  0
3DFACE
 8
pipe
10
-0.8919189801185237
20
0.37500000000001643
30
-3.60435474129321
11
-0.2772531039723507
21
0.3464548246917446
31
-3.1926374027018634
12
-0.8073625972981393
22
0.3464548246917461
32
-3.7227468960276524
13
-0.8073625972981393
23
0.3464548246917461
33
-3.7227468960276524
70
1
  0
3DFACE
 8
pipe
10
-0.2772531039723507
20
0.3464548246917446
30
-3.1926374027018634
11
-0.8919189801185237
21
0.37500000000001643
31
-3.60435474129321
12
-0.395645258706792
22
0.37500000000001504
32
-3.10808101988148
13
-0.395645258706792
23
0.37500000000001504
33
-3.10808101988148
70
1
  0
3DFACE
 8
pipe
10
-0.8073625972981393
20
0.3464548246917461
30
-3.7227468960276524
11
-0.1768850815686731
21
0.2651650429449643
31
-3.264320842743362
12
-0.7356791572566417
22
0.26516504294496585
32
-3.8231149184313296
13
-0.7356791572566417
23
0.26516504294496585
33
-3.8231149184313296
70
1
  0
3DFACE
 8
pipe
10
-0.1768850815686731
20
0.2651650429449643
30
-3.264320842743362
11
-0.8073625972981393
21
0.3464548246917461
31
-3.7227468960276524
12
-0.2772531039723507
22
0.3464548246917446
32
-3.1926374027018634
13
-0.2772531039723507
23
0.3464548246917446
33
-3.1926374027018634
70
1
  0
3DFACE
 8
pipe
10
-0.6877818139283445
20
0.14350628713691643
30
-3.8901786869316712
11
-0.1768850815686731
21
0.2651650429449643
31
-3.264320842743362
12
-0.10982131306833232
22
0.14350628713691482
32
-3.3122181860716595
13
-0.10982131306833232
23
0.14350628713691482
33
-3.3122181860716595
70
1
  0
3DFACE
 8
pipe
10
-0.1768850815686731
20
0.2651650429449643
30
-3.264320842743362
11
-0.6877818139283445
21
0.14350628713691643
31
-3.8901786869316712
12
-0.7356791572566417
22
0.26516504294496585
32
-3.8231149184313296
13
-0.7356791572566417
23
0.26516504294496585
33
-3.8231149184313296
70
1
  0
3DFACE
 8
pipe
10
-0.10982131306833232
20
0.14350628713691482
30
-3.3122181860716595
11
-0.6709625036444828
21
5.342009518651689e-15
31
-3.9137283507090763
12
-0.6877818139283445
22
0.14350628713691643
32
-3.8901786869316712
13
-0.6877818139283445
23
0.14350628713691643
33
-3.8901786869316712
70
1
  0
3DFACE
 8
pipe
10
-0.6709625036444828
20
5.342009518651689e-15
30
-3.9137283507090763
11
-0.10982131306833232
21
0.14350628713691482
31
-3.3122181860716595
12
-0.08627164929092768
22
3.712700234448697e-15
32
-3.329037496355521
13
-0.08627164929092768
23
3.712700234448697e-15
33
-3.329037496355521
70
1
  0
3DFACE
 8
pipe
10
-0.7050188681226714
20
1.7087256800626433e-14
30
-2.887124543407431
11
-1.0960561463087082
21
0.1435062871369282
31
-3.318530795654741
12
-1.1128754565925734
22
1.822379677088487e-14
32
-3.294981131877333
13
-1.1128754565925734
23
1.822379677088487e-14
33
-3.294981131877333
70
1
  0
3DFACE
 8
pipe
10
-1.0960561463087082
20
0.1435062871369282
30
-3.318530795654741
11
-0.7050188681226714
21
1.7087256800626433e-14
31
-2.887124543407431
12
-0.6814692043452624
22
0.14350628713692704
32
-2.9039438536912954
13
-0.6814692043452624
23
0.14350628713692704
33
-2.9039438536912954
70
1
  0
3DFACE
 8
pipe
10
-1.0960561463087082
20
0.1435062871369282
30
-3.318530795654741
11
-1.5991712855190992
21
0.2651650429449755
31
-3.655166838488527
12
-1.6227208305001835
22
0.14350628713692878
32
-3.5761913772707477
13
-1.6227208305001835
23
0.14350628713692878
33
-3.5761913772707477
70
1
  0
3DFACE
 8
pipe
10
-1.5991712855190992
20
0.2651650429449755
30
-3.655166838488527
11
-1.0960561463087082
21
0.1435062871369282
31
-3.318530795654741
12
-1.0481588029804083
22
0.2651650429449749
32
-3.3855945641550873
13
-1.0481588029804083
23
0.2651650429449749
33
-3.3855945641550873
70
1
  0
3DFACE
 8
pipe
10
-1.5991712855190992
20
0.2651650429449755
30
-3.655166838488527
11
-0.976475362938908
21
0.34645482469175104
31
-3.4859625865587667
12
-1.563926900792259
22
0.3464548246917517
32
-3.773361968856217
13
-1.563926900792259
23
0.3464548246917517
33
-3.773361968856217
70
1
  0
3DFACE
 8
pipe
10
-0.976475362938908
20
0.34645482469175104
30
-3.4859625865587667
11
-1.5991712855190992
21
0.2651650429449755
31
-3.655166838488527
12
-1.0481588029804083
22
0.2651650429449749
32
-3.3855945641550873
13
-1.0481588029804083
23
0.2651650429449749
33
-3.3855945641550873
70
1
  0
3DFACE
 8
pipe
10
-1.563926900792259
20
0.3464548246917517
30
-3.773361968856217
11
-0.8919189801185237
21
0.37500000000001643
31
-3.60435474129321
12
-1.5223533144031798
22
0.3750000000000171
32
-3.9127826312168645
13
-1.5223533144031798
23
0.3750000000000171
33
-3.9127826312168645
70
1
  0
3DFACE
 8
pipe
10
-0.8919189801185237
20
0.37500000000001643
30
-3.60435474129321
11
-1.563926900792259
21
0.3464548246917517
31
-3.773361968856217
12
-0.976475362938908
22
0.34645482469175104
32
-3.4859625865587667
13
-0.976475362938908
23
0.34645482469175104
33
-3.4859625865587667
70
1
  0
3DFACE
 8
pipe
10
-1.5223533144031798
20
0.3750000000000171
30
-3.9127826312168645
11
-0.8073625972981393
21
0.3464548246917461
31
-3.7227468960276524
12
-1.4807797280141024
22
0.3464548246917468
32
-4.052203293577511
13
-1.4807797280141024
23
0.3464548246917468
33
-4.052203293577511
70
1
  0
3DFACE
 8
pipe
10
-0.8073625972981393
20
0.3464548246917461
30
-3.7227468960276524
11
-1.5223533144031798
21
0.3750000000000171
31
-3.9127826312168645
12
-0.8919189801185237
22
0.37500000000001643
32
-3.60435474129321
13
-0.8919189801185237
23
0.37500000000001643
33
-3.60435474129321
70
1
  0
3DFACE
 8
pipe
10
-1.4807797280141024
20
0.3464548246917468
30
-4.052203293577511
11
-0.7356791572566417
21
0.26516504294496585
31
-3.8231149184313296
12
-1.445535343287263
22
0.2651650429449666
32
-4.1703984239451986
13
-1.445535343287263
23
0.2651650429449666
33
-4.1703984239451986
70
1
  0
3DFACE
 8
pipe
10
-0.7356791572566417
20
0.26516504294496585
30
-3.8231149184313296
11
-1.4807797280141024
21
0.3464548246917468
31
-4.052203293577511
12
-0.8073625972981393
22
0.3464548246917461
32
-3.7227468960276524
13
-0.8073625972981393
23
0.3464548246917461
33
-3.7227468960276524
70
1
  0
3DFACE
 8
pipe
10
-0.7356791572566417
20
0.26516504294496585
30
-3.8231149184313296
11
-1.4219857983061805
21
0.14350628713691724
31
-4.2493738851629725
12
-1.445535343287263
22
0.2651650429449666
32
-4.1703984239451986
13
-1.445535343287263
23
0.2651650429449666
33
-4.1703984239451986
70
1
  0
3DFACE
 8
pipe
10
-1.4219857983061805
20
0.14350628713691724
30
-4.2493738851629725
11
-0.7356791572566417
21
0.26516504294496585
31
-3.8231149184313296
12
-0.6877818139283445
22
0.14350628713691643
32
-3.8901786869316712
13
-0.6877818139283445
23
0.14350628713691643
33
-3.8901786869316712
70
1
  0
3DFACE
 8
pipe
10
-0.6877818139283445
20
0.14350628713691643
30
-3.8901786869316712
11
-1.413716297817066
21
6.15218598552793e-15
31
-4.277106379174766
12
-1.4219857983061805
22
0.14350628713691724
32
-4.2493738851629725
13
-1.4219857983061805
23
0.14350628713691724
33
-4.2493738851629725
70
1
  0
3DFACE
 8
pipe
10
-1.413716297817066
20
6.15218598552793e-15
30
-4.277106379174766
11
-0.6877818139283445
21
0.14350628713691643
31
-3.8901786869316712
12
-0.6709625036444828
22
5.342009518651689e-15
32
-3.9137283507090763
13
-0.6709625036444828
23
5.342009518651689e-15
33
-3.9137283507090763
70
1
  0
3DFACE
 8
pipe
10
-1.1128754565925734
20
1.822379677088487e-14
30
-3.294981131877333
11
-1.6227208305001835
21
0.14350628713692878
31
-3.5761913772707477
12
-1.6309903309892988
22
1.878894296289104e-14
32
-3.5484588832589496
13
-1.6309903309892988
23
1.878894296289104e-14
33
-3.5484588832589496
70
1
  0
3DFACE
 8
pipe
10
-1.6227208305001835
20
0.14350628713692878
30
-3.5761913772707477
11
-1.1128754565925734
21
1.822379677088487e-14
31
-3.294981131877333
12
-1.0960561463087082
22
0.1435062871369282
32
-3.318530795654741
13
-1.0960561463087082
23
0.1435062871369282
33
-3.318530795654741
70
1
  0
3DFACE
 8
pipe
10
-1.6227208305001835
20
0.14350628713692878
30
-3.5761913772707477
11
-2.2352901514230483
21
0.26516504294497545
31
-3.734834957055048
12
-2.240360749282801
22
0.1435062871369287
32
-3.653545175308267
13
-2.240360749282801
23
0.1435062871369287
33
-3.653545175308267
70
1
  0
3DFACE
 8
pipe
10
-2.2352901514230483
20
0.26516504294497545
30
-3.734834957055048
11
-1.6227208305001835
21
0.14350628713692878
31
-3.5761913772707477
12
-1.5991712855190992
22
0.2651650429449755
32
-3.655166838488527
13
-1.5991712855190992
23
0.2651650429449755
33
-3.655166838488527
70
1
  0
3DFACE
 8
pipe
10
-2.2352901514230483
20
0.26516504294497545
30
-3.734834957055048
11
-1.563926900792259
21
0.3464548246917517
31
-3.773361968856217
12
-2.227701465445983
22
0.34645482469175165
32
-3.8564937128630965
13
-2.227701465445983
23
0.34645482469175165
33
-3.8564937128630965
70
1
  0
3DFACE
 8
pipe
10
-1.563926900792259
20
0.3464548246917517
30
-3.773361968856217
11
-2.2352901514230483
21
0.26516504294497545
31
-3.734834957055048
12
-1.5991712855190992
22
0.2651650429449755
32
-3.655166838488527
13
-1.5991712855190992
23
0.2651650429449755
33
-3.655166838488527
70
1
  0
3DFACE
 8
pipe
10
-2.227701465445983
20
0.34645482469175165
30
-3.8564937128630965
11
-1.5223533144031798
21
0.3750000000000171
31
-3.9127826312168645
12
-2.2187500000000036
22
0.37500000000001704
32
-4.000000000000008
13
-2.2187500000000036
23
0.37500000000001704
33
-4.000000000000008
70
1
  0
3DFACE
 8
pipe
10
-1.5223533144031798
20
0.3750000000000171
30
-3.9127826312168645
11
-2.227701465445983
21
0.34645482469175165
31
-3.8564937128630965
12
-1.563926900792259
22
0.3464548246917517
32
-3.773361968856217
13
-1.563926900792259
23
0.3464548246917517
33
-3.773361968856217
70
1
  0
3DFACE
 8
pipe
10
-2.2187500000000036
20
0.37500000000001704
30
-4.000000000000008
11
-1.4807797280141024
21
0.3464548246917468
31
-4.052203293577511
12
-2.2097985345540234
22
0.34645482469174677
32
-4.143506287136919
13
-2.2097985345540234
23
0.34645482469174677
33
-4.143506287136919
70
1
  0
3DFACE
 8
pipe
10
-1.4807797280141024
20
0.3464548246917468
30
-4.052203293577511
11
-2.2187500000000036
21
0.37500000000001704
31
-4.000000000000008
12
-1.5223533144031798
22
0.3750000000000171
32
-3.9127826312168645
13
-1.5223533144031798
23
0.3750000000000171
33
-3.9127826312168645
70
1
  0
3DFACE
 8
pipe
10
-2.2097985345540234
20
0.34645482469174677
30
-4.143506287136919
11
-1.445535343287263
21
0.2651650429449666
31
-4.1703984239451986
12
-2.202209848576959
22
0.2651650429449665
32
-4.265165042944965
13
-2.202209848576959
23
0.2651650429449665
33
-4.265165042944965
70
1
  0
3DFACE
 8
pipe
10
-1.445535343287263
20
0.2651650429449666
30
-4.1703984239451986
11
-2.2097985345540234
21
0.34645482469174677
31
-4.143506287136919
12
-1.4807797280141024
22
0.3464548246917468
32
-4.052203293577511
13
-1.4807797280141024
23
0.3464548246917468
33
-4.052203293577511
70
1
  0
3DFACE
 8
pipe
10
-1.445535343287263
20
0.2651650429449666
30
-4.1703984239451986
11
-2.197139250717206
21
0.14350628713691715
31
-4.34645482469174
12
-2.202209848576959
22
0.2651650429449665
32
-4.265165042944965
13
-2.202209848576959
23
0.2651650429449665
33
-4.265165042944965
70
1
  0
3DFACE
 8
pipe
10
-2.197139250717206
20
0.14350628713691715
30
-4.34645482469174
11
-1.445535343287263
21
0.2651650429449666
31
-4.1703984239451986
12
-1.4219857983061805
22
0.14350628713691724
32
-4.2493738851629725
13
-1.4219857983061805
23
0.14350628713691724
33
-4.2493738851629725
70
1
  0
3DFACE
 8
pipe
10
-1.4219857983061805
20
0.14350628713691724
30
-4.2493738851629725
11
-2.195358693533829
21
6.060158656298807e-15
31
-4.375000000000006
12
-2.197139250717206
22
0.14350628713691715
32
-4.34645482469174
13
-2.197139250717206
23
0.14350628713691715
33
-4.34645482469174
70
1
  0
3DFACE
 8
pipe
10
-2.195358693533829
20
6.060158656298807e-15
30
-4.375000000000006
11
-1.4219857983061805
21
0.14350628713691724
31
-4.2493738851629725
12
-1.413716297817066
22
6.15218598552793e-15
32
-4.277106379174766
13
-1.413716297817066
23
6.15218598552793e-15
33
-4.277106379174766
70
1
  0
3DFACE
 8
pipe
10
-1.6309903309892988
20
1.878894296289104e-14
30
-3.5484588832589496
11
-2.240360749282801
21
0.1435062871369287
31
-3.653545175308267
12
-2.242141306466179
22
1.8716988585368647e-14
32
-3.6249999999999973
13
-2.242141306466179
23
1.8716988585368647e-14
33
-3.6249999999999973
70
1
  0
3DFACE
 8
pipe
10
-2.240360749282801
20
0.1435062871369287
30
-3.653545175308267
11
-1.6309903309892988
21
1.878894296289104e-14
31
-3.5484588832589496
12
-1.6227208305001835
22
0.14350628713692878
32
-3.5761913772707477
13
-1.6227208305001835
23
0.14350628713692878
33
-3.5761913772707477
70
1
  0
3DFACE
 8
pipe
10
-2.240360749282801
20
0.1435062871369287
30
-3.653545175308267
11
-7.983021822074795
21
0.26516504294497545
31
-3.734834957055048
12
-7.983021822074795
22
0.1435062871369287
32
-3.653545175308267
13
-7.983021822074795
23
0.1435062871369287
33
-3.653545175308267
70
1
  0
3DFACE
 8
pipe
10
-7.983021822074795
20
0.26516504294497545
30
-3.734834957055048
11
-2.240360749282801
21
0.1435062871369287
31
-3.653545175308267
12
-2.2352901514230483
22
0.26516504294497545
32
-3.734834957055048
13
-2.2352901514230483
23
0.26516504294497545
33
-3.734834957055048
70
1
  0
3DFACE
 8
pipe
10
-7.983021822074795
20
0.26516504294497545
30
-3.734834957055048
11
-2.227701465445983
21
0.34645482469175165
31
-3.8564937128630965
12
-7.983021822074795
22
0.34645482469175165
32
-3.8564937128630965
13
-7.983021822074795
23
0.34645482469175165
33
-3.8564937128630965
70
1
  0
3DFACE
 8
pipe
10
-2.227701465445983
20
0.34645482469175165
30
-3.8564937128630965
11
-7.983021822074795
21
0.26516504294497545
31
-3.734834957055048
12
-2.2352901514230483
22
0.26516504294497545
32
-3.734834957055048
13
-2.2352901514230483
23
0.26516504294497545
33
-3.734834957055048
70
1
  0
3DFACE
 8
pipe
10
-7.983021822074795
20
0.34645482469175165
30
-3.8564937128630965
11
-2.2187500000000036
21
0.37500000000001704
31
-4.000000000000008
12
-7.983021822074795
22
0.37500000000001704
32
-4.000000000000008
13
-7.983021822074795
23
0.37500000000001704
33
-4.000000000000008
70
1
  0
3DFACE
 8
pipe
10
-2.2187500000000036
20
0.37500000000001704
30
-4.000000000000008
11
-7.983021822074795
21
0.34645482469175165
31
-3.8564937128630965
12
-2.227701465445983
22
0.34645482469175165
32
-3.8564937128630965
13
-2.227701465445983
23
0.34645482469175165
33
-3.8564937128630965
70
1
  0
3DFACE
 8
pipe
10
-7.983021822074795
20
0.37500000000001704
30
-4.000000000000008
11
-2.2097985345540234
21
0.34645482469174677
31
-4.143506287136919
12
-7.983021822074795
22
0.34645482469174677
32
-4.143506287136919
13
-7.983021822074795
23
0.34645482469174677
33
-4.143506287136919
70
1
  0
3DFACE
 8
pipe
10
-2.2097985345540234
20
0.34645482469174677
30
-4.143506287136919
11
-7.983021822074795
21
0.37500000000001704
31
-4.000000000000008
12
-2.2187500000000036
22
0.37500000000001704
32
-4.000000000000008
13
-2.2187500000000036
23
0.37500000000001704
33
-4.000000000000008
70
1
  0
3DFACE
 8
pipe
10
-7.983021822074795
20
0.34645482469174677
30
-4.143506287136919
11
-2.202209848576959
21
0.2651650429449665
31
-4.265165042944965
12
-7.983021822074795
22
0.2651650429449665
32
-4.265165042944965
13
-7.983021822074795
23
0.2651650429449665
33
-4.265165042944965
70
1
  0
3DFACE
 8
pipe
10
-2.202209848576959
20
0.2651650429449665
30
-4.265165042944965
11
-7.983021822074795
21
0.34645482469174677
31
-4.143506287136919
12
-2.2097985345540234
22
0.34645482469174677
32
-4.143506287136919
13
-2.2097985345540234
23
0.34645482469174677
33
-4.143506287136919
70
1
  0
3DFACE
 8
pipe
10
-2.202209848576959
20
0.2651650429449665
30
-4.265165042944965
11
-7.983021822074795
21
0.14350628713691715
31
-4.34645482469174
12
-7.983021822074795
22
0.2651650429449665
32
-4.265165042944965
13
-7.983021822074795
23
0.2651650429449665
33
-4.265165042944965
70
1
  0
3DFACE
 8
pipe
10
-7.983021822074795
20
0.14350628713691715
30
-4.34645482469174
11
-2.202209848576959
21
0.2651650429449665
31
-4.265165042944965
12
-2.197139250717206
22
0.14350628713691715
32
-4.34645482469174
13
-2.197139250717206
23
0.14350628713691715
33
-4.34645482469174
70
1
  0
3DFACE
 8
pipe
10
-2.197139250717206
20
0.14350628713691715
30
-4.34645482469174
11
-7.983021822074795
21
6.060158656298807e-15
31
-4.375000000000006
12
-7.983021822074795
22
0.14350628713691715
32
-4.34645482469174
13
-7.983021822074795
23
0.14350628713691715
33
-4.34645482469174
70
1
  0
3DFACE
 8
pipe
10
-7.983021822074795
20
6.060158656298807e-15
30
-4.375000000000006
11
-2.197139250717206
21
0.14350628713691715
31
-4.34645482469174
12
-2.195358693533829
22
6.060158656298807e-15
32
-4.375000000000006
13
-2.195358693533829
23
6.060158656298807e-15
33
-4.375000000000006
70
1
  0
3DFACE
 8
pipe
10
-2.242141306466179
20
1.8716988585368647e-14
30
-3.6249999999999973
11
-7.983021822074795
21
0.1435062871369287
31
-3.653545175308267
12
-7.983021822074795
22
1.8716988585368647e-14
32
-3.6249999999999973
13
-7.983021822074795
23
1.8716988585368647e-14
33
-3.6249999999999973
70
1
  0
3DFACE
 8
pipe
10
-7.983021822074795
20
0.1435062871369287
30
-3.653545175308267
11
-2.242141306466179
21
1.8716988585368647e-14
31
-3.6249999999999973
12
-2.240360749282801
22
0.1435062871369287
32
-3.653545175308267
13
-2.240360749282801
23
0.1435062871369287
33
-3.653545175308267
70
1
  0
3DFACE
 8
cap
10
9.500000000000005
20
2.2922750396074334
30
5.079185156719955
11
-5.499999999999995
21
2.2471825367939746
31
5.101599911452267
12
-5.499999999999995
22
2.2922750396074334
32
5.079185156719955
13
-5.499999999999995
23
2.2922750396074334
33
5.079185156719955
70
1
  0
3DFACE
 8
cap
10
-5.499999999999995
20
2.2471825367939746
30
5.101599911452267
11
9.500000000000005
21
2.2922750396074334
31
5.079185156719955
12
9.500000000000005
22
2.2471825367939746
32
5.101599911452267
13
9.500000000000005
23
2.2471825367939746
33
5.101599911452267
70
1
  0
3DFACE
 8
cap
10
9.500000000000005
20
2.3324893860329072
30
5.0488773791494435
11
-5.499999999999995
21
2.2922750396074334
31
5.079185156719955
12
-5.499999999999995
22
2.3324893860329072
32
5.0488773791494435
13
-5.499999999999995
23
2.3324893860329072
33
5.0488773791494435
70
1
  0
3DFACE
 8
cap
10
-5.499999999999995
20
2.2922750396074334
30
5.079185156719955
11
9.500000000000005
21
2.3324893860329072
31
5.0488773791494435
12
9.500000000000005
22
2.2922750396074334
32
5.079185156719955
13
9.500000000000005
23
2.2922750396074334
33
5.079185156719955
70
1
  0
3DFACE
 8
cap
10
9.500000000000005
20
2.2471825367939746
30
5.101599911452267
11
-5.499999999999995
21
2.198742898510912
31
5.115360597579695
12
-5.499999999999995
22
2.2471825367939746
32
5.101599911452267
13
-5.499999999999995
23
2.2471825367939746
33
5.101599911452267
70
1
  0
3DFACE
 8
cap
10
-5.499999999999995
20
2.198742898510912
30
5.115360597579695
11
9.500000000000005
21
2.2471825367939746
31
5.101599911452267
12
9.500000000000005
22
2.198742898510912
32
5.115360597579695
13
9.500000000000005
23
2.198742898510912
33
5.115360597579695
70
1
  0
3DFACE
 8
cap
10
9.500000000000005
20
2.198742898510912
30
5.115360597579695
11
-5.499999999999995
21
2.14860079060873
31
5.119999999999996
12
-5.499999999999995
22
2.198742898510912
32
5.115360597579695
13
-5.499999999999995
23
2.198742898510912
33
5.115360597579695
70
1
  0
3DFACE
 8
cap
10
-5.499999999999995
20
2.14860079060873
30
5.119999999999996
11
9.500000000000005
21
2.198742898510912
31
5.115360597579695
12
9.500000000000005
22
2.14860079060873
32
5.119999999999996
13
9.500000000000005
23
2.14860079060873
33
5.119999999999996
70
1
  0
3DFACE
 8
cap
10
9.500000000000005
20
2.36646018267338
30
5.011705615466466
11
-5.499999999999995
21
2.3930340227089686
31
4.968931954582056
12
9.500000000000005
22
2.3930340227089686
32
4.968931954582056
13
9.500000000000005
23
2.3930340227089686
33
4.968931954582056
70
1
  0
3DFACE
 8
cap
10
-5.499999999999995
20
2.3930340227089686
30
4.968931954582056
11
9.500000000000005
21
2.36646018267338
31
5.011705615466466
12
-5.499999999999995
22
2.36646018267338
32
5.011705615466466
13
-5.499999999999995
23
2.36646018267338
33
5.011705615466466
70
1
  0
3DFACE
 8
cap
10
9.500000000000005
20
2.14860079060873
30
5.119999999999996
11
-5.499999999999995
21
0.0
31
5.119999999999996
12
-5.499999999999995
22
2.14860079060873
32
5.119999999999996
13
-5.499999999999995
23
2.14860079060873
33
5.119999999999996
70
1
  0
3DFACE
 8
cap
10
-5.499999999999995
20
0.0
30
5.119999999999996
11
9.500000000000005
21
2.14860079060873
31
5.119999999999996
12
9.500000000000005
22
0.0
32
5.119999999999996
13
9.500000000000005
23
0.0
33
5.119999999999996
70
1
  0
3DFACE
 8
cap
10
9.500000000000005
20
2.3324893860329072
30
5.0488773791494435
11
-5.499999999999995
21
2.36646018267338
31
5.011705615466466
12
9.500000000000005
22
2.36646018267338
32
5.011705615466466
13
9.500000000000005
23
2.36646018267338
33
5.011705615466466
70
1
  0
3DFACE
 8
cap
10
-5.499999999999995
20
2.36646018267338
30
5.011705615466466
11
9.500000000000005
21
2.3324893860329072
31
5.0488773791494435
12
-5.499999999999995
22
2.3324893860329072
32
5.0488773791494435
13
-5.499999999999995
23
2.3324893860329072
33
5.0488773791494435
70
1
  0
3DFACE
 8
cap
10
9.500000000000005
20
2.2429376307709816
30
5.153304187744393
11
-5.499999999999995
21
2.2923509057835325
31
5.139266911825803
12
-5.499999999999995
22
2.2429376307709816
32
5.153304187744393
13
-5.499999999999995
23
2.2429376307709816
33
5.153304187744393
70
1
  0
3DFACE
 8
cap
10
-5.499999999999995
20
2.2923509057835325
30
5.139266911825803
11
9.500000000000005
21
2.2429376307709816
31
5.153304187744393
12
9.500000000000005
22
2.2923509057835325
32
5.139266911825803
13
9.500000000000005
23
2.2923509057835325
33
5.139266911825803
70
1
  0
3DFACE
 8
cap
10
9.500000000000005
20
2.2923509057835325
30
5.139266911825803
11
-5.499999999999995
21
2.3383497679035443
31
5.116401620523369
12
-5.499999999999995
22
2.2923509057835325
32
5.139266911825803
13
-5.499999999999995
23
2.2923509057835325
33
5.139266911825803
70
1
  0
3DFACE
 8
cap
10
-5.499999999999995
20
2.3383497679035443
30
5.116401620523369
11
9.500000000000005
21
2.2923509057835325
31
5.139266911825803
12
9.500000000000005
22
2.3383497679035443
32
5.116401620523369
13
9.500000000000005
23
2.3383497679035443
33
5.116401620523369
70
1
  0
3DFACE
 8
cap
10
-5.499999999999995
20
2.3793724226921675
30
5.085484656623693
11
9.500000000000005
21
2.4140260323451184
31
5.047565740490686
12
-5.499999999999995
22
2.4140260323451184
32
5.047565740490686
13
-5.499999999999995
23
2.4140260323451184
33
5.047565740490686
70
1
  0
3DFACE
 8
cap
10
9.500000000000005
20
2.4140260323451184
30
5.047565740490686
11
-5.499999999999995
21
2.3793724226921675
31
5.085484656623693
12
9.500000000000005
22
2.3793724226921675
32
5.085484656623693
13
9.500000000000005
23
2.3793724226921675
33
5.085484656623693
70
1
  0
3DFACE
 8
cap
10
-5.499999999999995
20
2.4140260323451184
30
5.047565740490686
11
9.500000000000005
21
2.4411340065654183
31
5.003932329022501
12
-5.499999999999995
22
2.4411340065654183
32
5.003932329022501
13
-5.499999999999995
23
2.4411340065654183
33
5.003932329022501
70
1
  0
3DFACE
 8
cap
10
9.500000000000005
20
2.4411340065654183
30
5.003932329022501
11
-5.499999999999995
21
2.4140260323451184
31
5.047565740490686
12
9.500000000000005
22
2.4140260323451184
32
5.047565740490686
13
9.500000000000005
23
2.4140260323451184
33
5.047565740490686
70
1
  0
3DFACE
 8
cap
10
9.500000000000005
20
0.0
30
5.15803684215334
11
-5.499999999999995
21
2.1917876664999696
31
5.15803684215334
12
-5.499999999999995
22
0.0
32
5.15803684215334
13
-5.499999999999995
23
0.0
33
5.15803684215334
70
1
  0
3DFACE
 8
cap
10
-5.499999999999995
20
2.1917876664999696
30
5.15803684215334
11
9.500000000000005
21
0.0
31
5.15803684215334
12
9.500000000000005
22
2.1917876664999696
32
5.15803684215334
13
9.500000000000005
23
2.1917876664999696
33
5.15803684215334
70
1
  0
3DFACE
 8
cap
10
9.500000000000005
20
2.1917876664999696
30
5.15803684215334
11
-5.499999999999995
21
2.2429376307709816
31
5.153304187744393
12
-5.499999999999995
22
2.1917876664999696
32
5.15803684215334
13
-5.499999999999995
23
2.1917876664999696
33
5.15803684215334
70
1
  0
3DFACE
 8
cap
10
-5.499999999999995
20
2.2429376307709816
30
5.153304187744393
11
9.500000000000005
21
2.1917876664999696
31
5.15803684215334
12
9.500000000000005
22
2.2429376307709816
32
5.153304187744393
13
9.500000000000005
23
2.2429376307709816
33
5.153304187744393
70
1
  0
3DFACE
 8
cap
10
9.500000000000005
20
2.3383497679035443
30
5.116401620523369
11
-5.499999999999995
21
2.3793724226921675
31
5.085484656623693
12
-5.499999999999995
22
2.3383497679035443
32
5.116401620523369
13
-5.499999999999995
23
2.3383497679035443
33
5.116401620523369
70
1
  0
3DFACE
 8
cap
10
-5.499999999999995
20
2.3793724226921675
30
5.085484656623693
11
9.500000000000005
21
2.3383497679035443
31
5.116401620523369
12
9.500000000000005
22
2.3793724226921675
32
5.085484656623693
13
9.500000000000005
23
2.3793724226921675
33
5.085484656623693
70
1
  0
3DFACE
 8
cap
10
-4.999999999999995
20
3.152109
30
3.227619793365834
11
-5.06663474057502
21
3.089999999999999
31
3.227619793365834
12
-5.06663474057502
22
3.1521089999999985
32
3.227619793365834
13
-5.06663474057502
23
3.1521089999999985
33
3.227619793365834
70
1
  0
3DFACE
 8
cap
10
-5.06663474057502
20
3.089999999999999
30
3.227619793365834
11
-4.999999999999995
21
3.152109
31
3.227619793365834
12
-4.999999999999995
22
3.09
32
3.227619793365834
13
-4.999999999999995
23
3.09
33
3.227619793365834
70
1
  0
3DFACE
 8
cap
10
-5.499999999999995
20
2.1917876664999696
30
5.15803684215334
11
-5.499999999999995
21
0.0
31
5.119999999999996
12
-5.499999999999995
22
0.0
32
5.15803684215334
13
-5.499999999999995
23
0.0
33
5.15803684215334
70
1
  0
3DFACE
 8
cap
10
-5.499999999999995
20
0.0
30
5.119999999999996
11
-5.499999999999995
21
2.1917876664999696
31
5.15803684215334
12
-5.499999999999995
22
2.14860079060873
32
5.119999999999996
13
-5.499999999999995
23
2.14860079060873
33
5.119999999999996
70
3
  0
3DFACE
 8
cap
10
-5.499999999999995
20
2.14860079060873
30
5.119999999999996
11
-5.499999999999995
21
2.1917876664999696
31
5.15803684215334
12
-5.499999999999995
22
2.198742898510912
32
5.115360597579695
13
-5.499999999999995
23
2.198742898510912
33
5.115360597579695
70
3
  0
3DFACE
 8
cap
10
-5.499999999999995
20
2.198742898510912
30
5.115360597579695
11
-5.499999999999995
21
2.1917876664999696
31
5.15803684215334
12
-5.499999999999995
22
2.2429376307709816
32
5.153304187744393
13
-5.499999999999995
23
2.2429376307709816
33
5.153304187744393
70
13
  0
3DFACE
 8
cap
10
-5.499999999999995
20
2.198742898510912
30
5.115360597579695
11
-5.499999999999995
21
2.2429376307709816
31
5.153304187744393
12
-5.499999999999995
22
2.2471825367939746
32
5.101599911452267
13
-5.499999999999995
23
2.2471825367939746
33
5.101599911452267
70
3
  0
3DFACE
 8
cap
10
-5.499999999999995
20
2.2471825367939746
30
5.101599911452267
11
-5.499999999999995
21
2.2429376307709816
31
5.153304187744393
12
-5.499999999999995
22
2.2923509057835325
32
5.139266911825803
13
-5.499999999999995
23
2.2923509057835325
33
5.139266911825803
70
13
  0
3DFACE
 8
cap
10
-5.499999999999995
20
2.2471825367939746
30
5.101599911452267
11
-5.499999999999995
21
2.2923509057835325
31
5.139266911825803
12
-5.499999999999995
22
2.2922750396074334
32
5.079185156719955
13
-5.499999999999995
23
2.2922750396074334
33
5.079185156719955
70
3
  0
3DFACE
 8
cap
10
-5.499999999999995
20
2.2922750396074334
30
5.079185156719955
11
-5.499999999999995
21
2.2923509057835325
31
5.139266911825803
12
-5.499999999999995
22
2.3324893860329072
32
5.0488773791494435
13
-5.499999999999995
23
2.3324893860329072
33
5.0488773791494435
70
3
  0
3DFACE
 8
cap
10
-5.499999999999995
20
2.3324893860329072
30
5.0488773791494435
11
-5.499999999999995
21
2.2923509057835325
31
5.139266911825803
12
-5.499999999999995
22
2.3383497679035443
32
5.116401620523369
13
-5.499999999999995
23
2.3383497679035443
33
5.116401620523369
70
13
  0
3DFACE
 8
cap
10
-5.499999999999995
20
2.3324893860329072
30
5.0488773791494435
11
-5.499999999999995
21
2.3383497679035443
31
5.116401620523369
12
-5.499999999999995
22
2.36646018267338
32
5.011705615466466
13
-5.499999999999995
23
2.36646018267338
33
5.011705615466466
70
3
  0
3DFACE
 8
cap
10
-5.499999999999995
20
2.36646018267338
30
5.011705615466466
11
-5.499999999999995
21
2.3383497679035443
31
5.116401620523369
12
-5.499999999999995
22
2.3793724226921675
32
5.085484656623693
13
-5.499999999999995
23
2.3793724226921675
33
5.085484656623693
70
13
  0
3DFACE
 8
cap
10
-5.499999999999995
20
2.36646018267338
30
5.011705615466466
11
-5.499999999999995
21
2.3793724226921675
31
5.085484656623693
12
-5.499999999999995
22
2.3930340227089686
32
4.968931954582056
13
-5.499999999999995
23
2.3930340227089686
33
4.968931954582056
70
3
  0
3DFACE
 8
cap
10
-5.499999999999995
20
2.3930340227089686
30
4.968931954582056
11
-5.499999999999995
21
2.3793724226921675
31
5.085484656623693
12
-5.499999999999995
22
2.4140260323451184
32
5.047565740490686
13
-5.499999999999995
23
2.4140260323451184
33
5.047565740490686
70
13
  0
3DFACE
 8
cap
10
-5.499999999999995
20
2.3930340227089686
30
4.968931954582056
11
-5.499999999999995
21
2.4140260323451184
31
5.047565740490686
12
-5.499999999999995
22
3.0123234243928083
32
3.7303531512143784
13
-5.499999999999995
23
3.0123234243928083
33
3.7303531512143784
70
3
  0
3DFACE
 8
cap
10
-5.499999999999995
20
3.0123234243928083
30
3.7303531512143784
11
-5.499999999999995
21
2.4140260323451184
31
5.047565740490686
12
-5.499999999999995
22
2.4411340065654183
32
5.003932329022501
13
-5.499999999999995
23
2.4411340065654183
33
5.003932329022501
70
13
  0
3DFACE
 8
cap
10
-5.499999999999995
20
3.0123234243928083
30
3.7303531512143784
11
-5.499999999999995
21
2.4411340065654183
31
5.003932329022501
12
-5.499999999999995
22
3.072871125223104
32
3.7404580917071333
13
-5.499999999999995
23
3.072871125223104
33
3.7404580917071333
70
13
  0
3DFACE
 8
cap
10
-5.499999999999995
20
3.0123234243928083
30
3.7303531512143784
11
-5.499999999999995
21
3.072871125223104
31
3.7404580917071333
12
-5.499999999999995
22
3.0139421213514037
32
3.7267766757513905
13
-5.499999999999995
23
3.0139421213514037
33
3.7267766757513905
70
3
  0
3DFACE
 8
cap
10
-5.499999999999995
20
3.0139421213514037
30
3.7267766757513905
11
-5.499999999999995
21
3.072871125223104
31
3.7404580917071333
12
-5.499999999999995
22
3.0790632735059664
32
3.72677667575139
13
-5.499999999999995
23
3.0790632735059664
33
3.72677667575139
70
1
  0
3DFACE
 8
cap
10
-5.06663474057502
20
3.1521089999999985
30
3.227619793365834
11
-5.136049439910264
21
3.09
31
3.2284980853079333
12
-5.136049439910264
22
3.152109
32
3.2284980853079333
13
-5.136049439910264
23
3.152109
33
3.2284980853079333
70
1
  0
3DFACE
 8
cap
10
-5.136049439910264
20
3.09
30
3.2284980853079333
11
-5.06663474057502
21
3.1521089999999985
31
3.227619793365834
12
-5.06663474057502
22
3.089999999999999
32
3.227619793365834
13
-5.06663474057502
23
3.089999999999999
33
3.227619793365834
70
1
  0
3DFACE
 8
cap
10
-5.136049439910264
20
3.152109
30
3.2284980853079333
11
-5.265127602337854
21
3.0900000000000003
31
3.2715241394504626
12
-5.265127602337854
22
3.152109
32
3.2715241394504626
13
-5.265127602337854
23
3.152109
33
3.2715241394504626
70
1
  0
3DFACE
 8
cap
10
-5.265127602337854
20
3.0900000000000003
30
3.2715241394504626
11
-5.136049439910264
21
3.152109
31
3.2284980853079333
12
-5.136049439910264
22
3.09
32
3.2284980853079333
13
-5.136049439910264
23
3.09
33
3.2284980853079333
70
1
  0
3DFACE
 8
cap
10
-5.265127602337854
20
3.152109
30
3.2715241394504626
11
-5.374999999999995
21
3.0900000000000003
31
3.3517766757513896
12
-5.374999999999995
22
3.152109
32
3.3517766757513896
13
-5.374999999999995
23
3.152109
33
3.3517766757513896
70
1
  0
3DFACE
 8
cap
10
-5.374999999999995
20
3.0900000000000003
30
3.3517766757513896
11
-5.265127602337854
21
3.152109
31
3.2715241394504626
12
-5.265127602337854
22
3.0900000000000003
32
3.2715241394504626
13
-5.265127602337854
23
3.0900000000000003
33
3.2715241394504626
70
1
  0
3DFACE
 8
cap
10
-5.455252536300922
20
3.1499114528701706
30
3.4616490734135317
11
-5.452666904421266
21
3.0878043383057854
31
3.4581091282954834
12
-5.455252536300922
22
3.087392168967912
32
3.461649073413532
13
-5.455252536300922
23
3.087392168967912
33
3.461649073413532
70
1
  0
3DFACE
 8
cap
10
-5.452666904421266
20
3.0878043383057854
30
3.4581091282954834
11
-5.455252536300922
21
3.1499114528701706
31
3.4616490734135317
12
-5.4111798476732265
22
3.089999999999999
32
3.401309896682915
13
-5.4111798476732265
23
3.089999999999999
33
3.401309896682915
70
3
  0
3DFACE
 8
cap
10
-5.4111798476732265
20
3.089999999999999
30
3.401309896682915
11
-5.455252536300922
21
3.1499114528701706
31
3.4616490734135317
12
-5.374999999999995
22
3.0900000000000003
32
3.3517766757513896
13
-5.374999999999995
23
3.0900000000000003
33
3.3517766757513896
70
3
  0
3DFACE
 8
cap
10
-5.374999999999995
20
3.0900000000000003
30
3.3517766757513896
11
-5.455252536300922
21
3.1499114528701706
31
3.4616490734135317
12
-5.374999999999995
22
3.152109
32
3.3517766757513896
13
-5.374999999999995
23
3.152109
33
3.3517766757513896
70
3
  0
3DFACE
 8
cap
10
-5.374999999999995
20
3.152109
30
3.3517766757513896
11
-5.455252536300922
21
3.1499114528701706
31
3.4616490734135317
12
-5.41372985422196
22
3.152109
32
3.4048010677595886
13
-5.41372985422196
23
3.152109
33
3.4048010677595886
70
1
  0
3DFACE
 8
cap
10
-5.4982785904434515
20
3.128292290009669
30
3.590727235841121
11
-5.491487383235348
21
3.0703175939727343
31
3.5703536142168106
12
-5.4982785904434515
22
3.0646689131920426
32
3.590727235841121
13
-5.4982785904434515
23
3.0646689131920426
33
3.590727235841121
70
1
  0
3DFACE
 8
cap
10
-5.491487383235348
20
3.0703175939727343
30
3.5703536142168106
11
-5.4982785904434515
21
3.128292290009669
31
3.590727235841121
12
-5.47289263174993
22
3.081230457795461
32
3.5145693597605545
13
-5.47289263174993
23
3.081230457795461
33
3.5145693597605545
70
3
  0
3DFACE
 8
cap
10
-5.47289263174993
20
3.081230457795461
30
3.5145693597605545
11
-5.4982785904434515
21
3.128292290009669
31
3.590727235841121
12
-5.455252536300922
22
3.087392168967912
32
3.461649073413532
13
-5.455252536300922
23
3.087392168967912
33
3.461649073413532
70
3
  0
3DFACE
 8
cap
10
-5.455252536300922
20
3.087392168967912
30
3.461649073413532
11
-5.4982785904434515
21
3.128292290009669
31
3.590727235841121
12
-5.455252536300922
22
3.1499114528701706
32
3.4616490734135317
13
-5.455252536300922
23
3.1499114528701706
33
3.4616490734135317
70
3
  0
3DFACE
 8
cap
10
-5.455252536300922
20
3.1499114528701706
30
3.4616490734135317
11
-5.4982785904434515
21
3.128292290009669
31
3.590727235841121
12
-5.493783699835049
22
3.132030977611587
32
3.5772425640159144
13
-5.493783699835049
23
3.132030977611587
33
3.5772425640159144
70
13
  0
3DFACE
 8
cap
10
-5.455252536300922
20
3.1499114528701706
30
3.4616490734135317
11
-5.493783699835049
21
3.132030977611587
31
3.5772425640159144
12
-5.4748151938447736
22
3.143163189997152
32
3.5203370460450882
13
-5.4748151938447736
23
3.143163189997152
33
3.5203370460450882
70
13
  0
3DFACE
 8
cap
10
-5.455252536300922
20
3.1499114528701706
30
3.4616490734135317
11
-5.4748151938447736
21
3.143163189997152
31
3.5203370460450882
12
-5.455616833138935
22
3.149869205505734
32
3.4627419639275696
13
-5.455616833138935
23
3.149869205505734
33
3.4627419639275696
70
1
  0
3DFACE
 8
cap
10
-4.999999999999995
20
3.0357609534623577
30
3.6785684442714244
11
-5.499356934626736
21
3.034536500225599
31
3.675952812525448
12
-5.498713869253477
22
3.055130879099794
32
3.6251289492995054
13
-5.498713869253477
23
3.055130879099794
33
3.6251289492995054
70
1
  0
3DFACE
 8
cap
10
-5.499356934626736
20
3.034536500225599
30
3.675952812525448
11
-4.999999999999995
21
3.0357609534623577
31
3.6785684442714244
12
-5.499999999999995
22
3.0139421213514037
32
3.7267766757513905
13
-5.499999999999995
23
3.0139421213514037
33
3.7267766757513905
70
1
  0
3DFACE
 8
cap
10
-5.499999999999995
20
3.096779748626952
30
3.6876325121546265
11
-5.498713869253477
21
3.055130879099794
31
3.6251289492995054
12
-5.499356934626736
22
3.034536500225599
32
3.675952812525448
13
-5.499356934626736
23
3.034536500225599
33
3.675952812525448
70
1
  0
3DFACE
 8
cap
10
-5.498713869253477
20
3.055130879099794
30
3.6251289492995054
11
-5.499999999999995
21
3.096779748626952
31
3.6876325121546265
12
-5.4982785904434515
22
3.0646689131920426
32
3.590727235841121
13
-5.4982785904434515
23
3.0646689131920426
33
3.590727235841121
70
3
  0
3DFACE
 8
cap
10
-5.4982785904434515
20
3.0646689131920426
30
3.590727235841121
11
-5.499999999999995
21
3.096779748626952
31
3.6876325121546265
12
-5.4982785904434515
22
3.128292290009669
32
3.590727235841121
13
-5.4982785904434515
23
3.128292290009669
33
3.590727235841121
70
3
  0
3DFACE
 8
cap
10
-5.4982785904434515
20
3.128292290009669
30
3.590727235841121
11
-5.499999999999995
21
3.096779748626952
31
3.6876325121546265
12
-5.498814964478946
22
3.116539009769701
32
3.6331188833337724
13
-5.498814964478946
23
3.116539009769701
33
3.6331188833337724
70
1
  0
3DFACE
 8
cap
10
-5.499999999999995
20
3.0790632735059664
30
3.72677667575139
11
-5.499356934626736
21
3.034536500225599
31
3.675952812525448
12
-5.499999999999995
22
3.0139421213514037
32
3.7267766757513905
13
-5.499999999999995
23
3.0139421213514037
33
3.7267766757513905
70
1
  0
3DFACE
 8
cap
10
-5.499356934626736
20
3.034536500225599
30
3.675952812525448
11
-5.499999999999995
21
3.0790632735059664
31
3.72677667575139
12
-5.499999999999995
22
3.096779748626952
32
3.6876325121546265
13
-5.499999999999995
23
3.096779748626952
33
3.6876325121546265
70
1
  0
3DFACE
 8
cap
10
-5.4982785904434515
20
3.128292290009669
30
3.590727235841121
11
8.7276000111177
21
3.132030977611586
31
3.577242564015919
12
-5.493783699835049
22
3.132030977611587
32
3.5772425640159144
13
-5.493783699835049
23
3.132030977611587
33
3.5772425640159144
70
1
  0
3DFACE
 8
cap
10
8.7276000111177
20
3.132030977611586
30
3.577242564015919
11
-5.4982785904434515
21
3.128292290009669
31
3.590727235841121
12
8.783476330435551
22
3.1165390097697028
32
3.6331188833337706
13
8.783476330435551
23
3.1165390097697028
33
3.6331188833337706
70
3
  0
3DFACE
 8
cap
10
8.783476330435551
20
3.1165390097697028
30
3.6331188833337706
11
-5.4982785904434515
21
3.128292290009669
31
3.590727235841121
12
-5.498814964478946
22
3.116539009769701
32
3.6331188833337724
13
-5.498814964478946
23
3.116539009769701
33
3.6331188833337724
70
1
  0
3DFACE
 8
cap
10
8.377977240467615
20
3.1521089999999994
30
3.227619793365838
11
-4.999999999999995
21
3.09
31
3.227619793365834
12
-4.999999999999995
22
3.152109
32
3.227619793365834
13
-4.999999999999995
23
3.152109
33
3.227619793365834
70
1
  0
3DFACE
 8
cap
10
-4.999999999999995
20
3.09
30
3.227619793365834
11
8.377977240467615
21
3.1521089999999994
31
3.227619793365838
12
8.377977240467612
22
3.09
32
3.227619793365834
13
8.377977240467612
23
3.09
33
3.227619793365834
70
1
  0
3DFACE
 8
cap
10
8.608466575397262
20
3.087804338305786
30
3.4581091282954852
11
-5.4111798476732265
21
3.089999999999999
31
3.401309896682915
12
8.55166734378469
22
3.09
32
3.401309896682911
13
8.55166734378469
23
3.09
33
3.401309896682911
70
1
  0
3DFACE
 8
cap
10
-5.4111798476732265
20
3.089999999999999
30
3.401309896682915
11
8.608466575397262
21
3.087804338305786
31
3.4581091282954852
12
-5.452666904421266
22
3.0878043383057854
32
3.4581091282954834
13
-5.452666904421266
23
3.0878043383057854
33
3.4581091282954834
70
1
  0
3DFACE
 8
cap
10
-5.499999999999995
20
2.4411340065654183
30
5.003932329022501
11
8.890815538808916
21
3.072871125223103
31
3.740458091707135
12
-5.499999999999995
22
3.072871125223104
32
3.7404580917071333
13
-5.499999999999995
23
3.072871125223104
33
3.7404580917071333
70
1
  0
3DFACE
 8
cap
10
8.890815538808916
20
3.072871125223103
30
3.740458091707135
11
-5.499999999999995
21
2.4411340065654183
31
5.003932329022501
12
9.500000000000005
22
2.768278894627561
32
4.349642552898219
13
9.500000000000005
23
2.768278894627561
33
4.349642552898219
70
3
  0
3DFACE
 8
cap
10
9.500000000000005
20
2.768278894627561
30
4.349642552898219
11
-5.499999999999995
21
2.4411340065654183
31
5.003932329022501
12
9.500000000000005
22
2.4411340065654183
32
5.003932329022501
13
9.500000000000005
23
2.4411340065654183
33
5.003932329022501
70
1
  0
3DFACE
 8
cap
10
-5.493783699835049
20
3.132030977611587
30
3.5772425640159144
11
8.670694493146872
21
3.1431631899971517
31
3.5203370460450913
12
-5.4748151938447736
22
3.143163189997152
32
3.5203370460450882
13
-5.4748151938447736
23
3.143163189997152
33
3.5203370460450882
70
1
  0
3DFACE
 8
cap
10
8.670694493146872
20
3.1431631899971517
30
3.5203370460450913
11
-5.493783699835049
21
3.132030977611587
31
3.5772425640159144
12
8.7276000111177
22
3.132030977611586
32
3.577242564015919
13
8.7276000111177
23
3.132030977611586
33
3.577242564015919
70
1
  0
3DFACE
 8
cap
10
8.775486396401288
20
3.055130879099793
30
3.6251289492995054
11
-5.491487383235348
21
3.0703175939727343
31
3.5703536142168106
12
8.720711061318589
22
3.070317593972734
32
3.57035361421681
13
8.720711061318589
23
3.070317593972734
33
3.57035361421681
70
1
  0
3DFACE
 8
cap
10
-5.491487383235348
20
3.0703175939727343
30
3.5703536142168106
11
8.775486396401288
21
3.055130879099793
31
3.6251289492995054
12
-5.4982785904434515
22
3.0646689131920426
32
3.590727235841121
13
-5.4982785904434515
23
3.0646689131920426
33
3.590727235841121
70
3
  0
3DFACE
 8
cap
10
-5.4982785904434515
20
3.0646689131920426
30
3.590727235841121
11
8.775486396401288
21
3.055130879099793
31
3.6251289492995054
12
-5.498713869253477
22
3.055130879099794
32
3.6251289492995054
13
-5.498713869253477
23
3.055130879099794
33
3.6251289492995054
70
1
  0
3DFACE
 8
cap
10
8.880710598316162
20
3.0123234243928074
30
3.7303531512143793
11
-5.499999999999995
21
2.3930340227089686
31
4.968931954582056
12
-5.499999999999995
22
3.0123234243928083
32
3.7303531512143784
13
-5.499999999999995
23
3.0123234243928083
33
3.7303531512143784
70
1
  0
3DFACE
 8
cap
10
-5.499999999999995
20
2.3930340227089686
30
4.968931954582056
11
8.880710598316162
21
3.0123234243928074
31
3.7303531512143793
12
9.500000000000002
22
2.70267872355089
32
4.349642552898214
13
9.500000000000002
23
2.70267872355089
33
4.349642552898214
70
13
  0
3DFACE
 8
cap
10
-5.499999999999995
20
2.3930340227089686
30
4.968931954582056
11
9.500000000000002
21
2.70267872355089
31
4.349642552898214
12
9.500000000000005
22
2.3930340227089686
32
4.968931954582056
13
9.500000000000005
23
2.3930340227089686
33
4.968931954582056
70
1
  0
3DFACE
 8
cap
10
-5.136049439910264
20
3.152109
30
3.2284980853079333
11
-4.999999999999995
21
3.152109
31
3.227619793365834
12
-5.06663474057502
22
3.1521089999999985
32
3.227619793365834
13
-5.06663474057502
23
3.1521089999999985
33
3.227619793365834
70
1
  0
3DFACE
 8
cap
10
-4.999999999999995
20
3.152109
30
3.227619793365834
11
-5.136049439910264
21
3.152109
31
3.2284980853079333
12
8.377977240467615
22
3.1521089999999994
32
3.227619793365838
13
8.377977240467615
23
3.1521089999999994
33
3.227619793365838
70
3
  0
3DFACE
 8
cap
10
8.377977240467615
20
3.1521089999999994
30
3.227619793365838
11
-5.136049439910264
21
3.152109
31
3.2284980853079333
12
8.55515851486137
22
3.152109
32
3.4048010677595912
13
8.55515851486137
23
3.152109
33
3.4048010677595912
70
3
  0
3DFACE
 8
cap
10
8.55515851486137
20
3.152109
30
3.4048010677595912
11
-5.136049439910264
21
3.152109
31
3.2284980853079333
12
-5.265127602337854
22
3.152109
32
3.2715241394504626
13
-5.265127602337854
23
3.152109
33
3.2715241394504626
70
13
  0
3DFACE
 8
cap
10
8.55515851486137
20
3.152109
30
3.4048010677595912
11
-5.265127602337854
21
3.152109
31
3.2715241394504626
12
-5.374999999999995
22
3.152109
32
3.3517766757513896
13
-5.374999999999995
23
3.152109
33
3.3517766757513896
70
13
  0
3DFACE
 8
cap
10
8.55515851486137
20
3.152109
30
3.4048010677595912
11
-5.374999999999995
21
3.152109
31
3.3517766757513896
12
-5.41372985422196
22
3.152109
32
3.4048010677595886
13
-5.41372985422196
23
3.152109
33
3.4048010677595886
70
1
  0
3DFACE
 8
cap
10
8.828925891373206
20
3.035760953462357
30
3.6785684442714257
11
-5.499999999999995
21
3.0139421213514037
31
3.7267766757513905
12
-4.999999999999995
22
3.0357609534623577
32
3.6785684442714244
13
-4.999999999999995
23
3.0357609534623577
33
3.6785684442714244
70
1
  0
3DFACE
 8
cap
10
-5.499999999999995
20
3.0139421213514037
30
3.7267766757513905
11
8.828925891373206
21
3.035760953462357
31
3.6785684442714257
12
8.880710598316162
22
3.0123234243928074
32
3.7303531512143793
13
8.880710598316162
23
3.0123234243928074
33
3.7303531512143793
70
13
  0
3DFACE
 8
cap
10
-5.499999999999995
20
3.0139421213514037
30
3.7267766757513905
11
8.880710598316162
21
3.0123234243928074
31
3.7303531512143793
12
-5.499999999999995
22
3.0123234243928083
32
3.7303531512143784
13
-5.499999999999995
23
3.0123234243928083
33
3.7303531512143784
70
1
  0
3DFACE
 8
cap
10
8.664926806862336
20
3.081230457795461
30
3.5145693597605576
11
-5.491487383235348
21
3.0703175939727343
31
3.5703536142168106
12
-5.47289263174993
22
3.081230457795461
32
3.5145693597605545
13
-5.47289263174993
23
3.081230457795461
33
3.5145693597605545
70
1
  0
3DFACE
 8
cap
10
-5.491487383235348
20
3.0703175939727343
30
3.5703536142168106
11
8.664926806862336
21
3.081230457795461
31
3.5145693597605576
12
8.720711061318589
22
3.070317593972734
32
3.57035361421681
13
8.720711061318589
23
3.070317593972734
33
3.57035361421681
70
1
  0
3DFACE
 8
cap
10
-5.455252536300922
20
3.1499114528701706
30
3.4616490734135317
11
8.55515851486137
21
3.152109
31
3.4048010677595912
12
-5.41372985422196
22
3.152109
32
3.4048010677595886
13
-5.41372985422196
23
3.152109
33
3.4048010677595886
70
1
  0
3DFACE
 8
cap
10
8.55515851486137
20
3.152109
30
3.4048010677595912
11
-5.455252536300922
21
3.1499114528701706
31
3.4616490734135317
12
8.613099411029346
22
3.149869205505735
32
3.4627419639275705
13
8.613099411029346
23
3.149869205505735
33
3.4627419639275705
70
3
  0
3DFACE
 8
cap
10
8.613099411029346
20
3.149869205505735
30
3.4627419639275705
11
-5.455252536300922
21
3.1499114528701706
31
3.4616490734135317
12
-5.455616833138935
22
3.149869205505734
32
3.4627419639275696
13
-5.455616833138935
23
3.149869205505734
33
3.4627419639275696
70
1
  0
3DFACE
 8
cap
10
-5.499999999999995
20
3.096779748626952
30
3.6876325121546265
11
8.890815538808916
21
3.072871125223103
31
3.740458091707135
12
8.837989959256406
22
3.096779748626954
32
3.687632512154624
13
8.837989959256406
23
3.096779748626954
33
3.687632512154624
70
1
  0
3DFACE
 8
cap
10
8.890815538808916
20
3.072871125223103
30
3.740458091707135
11
-5.499999999999995
21
3.096779748626952
31
3.6876325121546265
12
-5.499999999999995
22
3.0790632735059664
32
3.72677667575139
13
-5.499999999999995
23
3.0790632735059664
33
3.72677667575139
70
13
  0
3DFACE
 8
cap
10
8.890815538808916
20
3.072871125223103
30
3.740458091707135
11
-5.499999999999995
21
3.0790632735059664
31
3.72677667575139
12
-5.499999999999995
22
3.072871125223104
32
3.7404580917071333
13
-5.499999999999995
23
3.072871125223104
33
3.7404580917071333
70
1
  0
3DFACE
 8
cap
10
8.608466575397262
20
3.087804338305786
30
3.4581091282954852
11
-5.455252536300922
21
3.087392168967912
31
3.461649073413532
12
-5.452666904421266
22
3.0878043383057854
32
3.4581091282954834
13
-5.452666904421266
23
3.0878043383057854
33
3.4581091282954834
70
1
  0
3DFACE
 8
cap
10
-5.455252536300922
20
3.087392168967912
30
3.461649073413532
11
8.608466575397262
21
3.087804338305786
31
3.4581091282954852
12
8.664926806862336
22
3.081230457795461
32
3.5145693597605576
13
8.664926806862336
23
3.081230457795461
33
3.5145693597605576
70
13
  0
3DFACE
 8
cap
10
-5.455252536300922
20
3.087392168967912
30
3.461649073413532
11
8.664926806862336
21
3.081230457795461
31
3.5145693597605576
12
-5.47289263174993
22
3.081230457795461
32
3.5145693597605545
13
-5.47289263174993
23
3.081230457795461
33
3.5145693597605545
70
1
  0
3DFACE
 8
cap
10
-5.498814964478946
20
3.116539009769701
30
3.6331188833337724
11
8.837989959256406
21
3.096779748626954
31
3.687632512154624
12
8.783476330435551
22
3.1165390097697028
32
3.6331188833337706
13
8.783476330435551
23
3.1165390097697028
33
3.6331188833337706
70
1
  0
3DFACE
 8
cap
10
8.837989959256406
20
3.096779748626954
30
3.687632512154624
11
-5.498814964478946
21
3.116539009769701
31
3.6331188833337724
12
-5.499999999999995
22
3.096779748626952
32
3.6876325121546265
13
-5.499999999999995
23
3.096779748626952
33
3.6876325121546265
70
1
  0
3DFACE
 8
cap
10
8.828925891373206
20
3.035760953462357
30
3.6785684442714257
11
-5.498713869253477
21
3.055130879099794
31
3.6251289492995054
12
8.775486396401288
22
3.055130879099793
32
3.6251289492995054
13
8.775486396401288
23
3.055130879099793
33
3.6251289492995054
70
1
  0
3DFACE
 8
cap
10
-5.498713869253477
20
3.055130879099794
30
3.6251289492995054
11
8.828925891373206
21
3.035760953462357
31
3.6785684442714257
12
-4.999999999999995
22
3.0357609534623577
32
3.6785684442714244
13
-4.999999999999995
23
3.0357609534623577
33
3.6785684442714244
70
1
  0
3DFACE
 8
cap
10
8.55166734378469
20
3.09
30
3.401309896682911
11
-4.999999999999995
21
3.09
31
3.227619793365834
12
8.377977240467612
22
3.09
32
3.227619793365834
13
8.377977240467612
23
3.09
33
3.227619793365834
70
1
  0
3DFACE
 8
cap
10
-4.999999999999995
20
3.09
30
3.227619793365834
11
8.55166734378469
21
3.09
31
3.401309896682911
12
-5.06663474057502
22
3.089999999999999
32
3.227619793365834
13
-5.06663474057502
23
3.089999999999999
33
3.227619793365834
70
3
  0
3DFACE
 8
cap
10
-5.06663474057502
20
3.089999999999999
30
3.227619793365834
11
8.55166734378469
21
3.09
31
3.401309896682911
12
-5.136049439910264
22
3.09
32
3.2284980853079333
13
-5.136049439910264
23
3.09
33
3.2284980853079333
70
3
  0
3DFACE
 8
cap
10
-5.136049439910264
20
3.09
30
3.2284980853079333
11
8.55166734378469
21
3.09
31
3.401309896682911
12
-5.265127602337854
22
3.0900000000000003
32
3.2715241394504626
13
-5.265127602337854
23
3.0900000000000003
33
3.2715241394504626
70
3
  0
3DFACE
 8
cap
10
-5.265127602337854
20
3.0900000000000003
30
3.2715241394504626
11
8.55166734378469
21
3.09
31
3.401309896682911
12
-5.374999999999995
22
3.0900000000000003
32
3.3517766757513896
13
-5.374999999999995
23
3.0900000000000003
33
3.3517766757513896
70
3
  0
3DFACE
 8
cap
10
-5.374999999999995
20
3.0900000000000003
30
3.3517766757513896
11
8.55166734378469
21
3.09
31
3.401309896682911
12
-5.4111798476732265
22
3.089999999999999
32
3.401309896682915
13
-5.4111798476732265
23
3.089999999999999
33
3.401309896682915
70
1
  0
3DFACE
 8
cap
10
-5.4748151938447736
20
3.143163189997152
30
3.5203370460450882
11
8.613099411029346
21
3.149869205505735
31
3.4627419639275705
12
-5.455616833138935
22
3.149869205505734
32
3.4627419639275696
13
-5.455616833138935
23
3.149869205505734
33
3.4627419639275696
70
1
  0
3DFACE
 8
cap
10
8.613099411029346
20
3.149869205505735
30
3.4627419639275705
11
-5.4748151938447736
21
3.143163189997152
31
3.5203370460450882
12
8.670694493146872
22
3.1431631899971517
32
3.5203370460450913
13
8.670694493146872
23
3.1431631899971517
33
3.5203370460450913
70
1
  0
3DFACE
 8
cap
10
9.500000000000005
20
2.14860079060873
30
5.119999999999996
11
9.500000000000005
21
0.0
31
5.15803684215334
12
9.500000000000005
22
0.0
32
5.119999999999996
13
9.500000000000005
23
0.0
33
5.119999999999996
70
1
  0
3DFACE
 8
cap
10
9.500000000000005
20
0.0
30
5.15803684215334
11
9.500000000000005
21
2.14860079060873
31
5.119999999999996
12
9.500000000000005
22
2.1917876664999696
32
5.15803684215334
13
9.500000000000005
23
2.1917876664999696
33
5.15803684215334
70
3
  0
3DFACE
 8
cap
10
9.500000000000005
20
2.1917876664999696
30
5.15803684215334
11
9.500000000000005
21
2.14860079060873
31
5.119999999999996
12
9.500000000000005
22
2.198742898510912
32
5.115360597579695
13
9.500000000000005
23
2.198742898510912
33
5.115360597579695
70
13
  0
3DFACE
 8
cap
10
9.500000000000005
20
2.1917876664999696
30
5.15803684215334
11
9.500000000000005
21
2.198742898510912
31
5.115360597579695
12
9.500000000000005
22
2.2429376307709816
32
5.153304187744393
13
9.500000000000005
23
2.2429376307709816
33
5.153304187744393
70
3
  0
3DFACE
 8
cap
10
9.500000000000005
20
2.2429376307709816
30
5.153304187744393
11
9.500000000000005
21
2.198742898510912
31
5.115360597579695
12
9.500000000000005
22
2.2471825367939746
32
5.101599911452267
13
9.500000000000005
23
2.2471825367939746
33
5.101599911452267
70
13
  0
3DFACE
 8
cap
10
9.500000000000005
20
2.2429376307709816
30
5.153304187744393
11
9.500000000000005
21
2.2471825367939746
31
5.101599911452267
12
9.500000000000005
22
2.2923509057835325
32
5.139266911825803
13
9.500000000000005
23
2.2923509057835325
33
5.139266911825803
70
3
  0
3DFACE
 8
cap
10
9.500000000000005
20
2.2923509057835325
30
5.139266911825803
11
9.500000000000005
21
2.2471825367939746
31
5.101599911452267
12
9.500000000000005
22
2.2922750396074334
32
5.079185156719955
13
9.500000000000005
23
2.2922750396074334
33
5.079185156719955
70
13
  0
3DFACE
 8
cap
10
9.500000000000005
20
2.2923509057835325
30
5.139266911825803
11
9.500000000000005
21
2.2922750396074334
31
5.079185156719955
12
9.500000000000005
22
2.3324893860329072
32
5.0488773791494435
13
9.500000000000005
23
2.3324893860329072
33
5.0488773791494435
70
13
  0
3DFACE
 8
cap
10
9.500000000000005
20
2.2923509057835325
30
5.139266911825803
11
9.500000000000005
21
2.3324893860329072
31
5.0488773791494435
12
9.500000000000005
22
2.3383497679035443
32
5.116401620523369
13
9.500000000000005
23
2.3383497679035443
33
5.116401620523369
70
3
  0
3DFACE
 8
cap
10
9.500000000000005
20
2.3383497679035443
30
5.116401620523369
11
9.500000000000005
21
2.3324893860329072
31
5.0488773791494435
12
9.500000000000005
22
2.36646018267338
32
5.011705615466466
13
9.500000000000005
23
2.36646018267338
33
5.011705615466466
70
13
  0
3DFACE
 8
cap
10
9.500000000000005
20
2.3383497679035443
30
5.116401620523369
11
9.500000000000005
21
2.36646018267338
31
5.011705615466466
12
9.500000000000005
22
2.3793724226921675
32
5.085484656623693
13
9.500000000000005
23
2.3793724226921675
33
5.085484656623693
70
3
  0
3DFACE
 8
cap
10
9.500000000000005
20
2.3793724226921675
30
5.085484656623693
11
9.500000000000005
21
2.36646018267338
31
5.011705615466466
12
9.500000000000005
22
2.3930340227089686
32
4.968931954582056
13
9.500000000000005
23
2.3930340227089686
33
4.968931954582056
70
13
  0
3DFACE
 8
cap
10
9.500000000000005
20
2.3793724226921675
30
5.085484656623693
11
9.500000000000005
21
2.3930340227089686
31
4.968931954582056
12
9.500000000000005
22
2.4140260323451184
32
5.047565740490686
13
9.500000000000005
23
2.4140260323451184
33
5.047565740490686
70
3
  0
3DFACE
 8
cap
10
9.500000000000005
20
2.4140260323451184
30
5.047565740490686
11
9.500000000000005
21
2.3930340227089686
31
4.968931954582056
12
9.500000000000002
22
2.70267872355089
32
4.349642552898214
13
9.500000000000002
23
2.70267872355089
33
4.349642552898214
70
13
  0
3DFACE
 8
cap
10
9.500000000000005
20
2.4140260323451184
30
5.047565740490686
11
9.500000000000002
21
2.70267872355089
31
4.349642552898214
12
9.500000000000005
22
2.4411340065654183
32
5.003932329022501
13
9.500000000000005
23
2.4411340065654183
33
5.003932329022501
70
3
  0
3DFACE
 8
cap
10
9.500000000000005
20
2.4411340065654183
30
5.003932329022501
11
9.500000000000002
21
2.70267872355089
31
4.349642552898214
12
9.500000000000005
22
2.768278894627561
32
4.349642552898219
13
9.500000000000005
23
2.768278894627561
33
4.349642552898219
70
1
  0
3DFACE
 8
cap
10
8.377977240467615
20
3.1521089999999994
30
3.227619793365838
11
8.55166734378469
21
3.09
31
3.401309896682911
12
8.377977240467612
22
3.09
32
3.227619793365834
13
8.377977240467612
23
3.09
33
3.227619793365834
70
1
  0
3DFACE
 8
cap
10
8.55166734378469
20
3.09
30
3.401309896682911
11
8.377977240467615
21
3.1521089999999994
31
3.227619793365838
12
8.55515851486137
22
3.152109
32
3.4048010677595912
13
8.55515851486137
23
3.152109
33
3.4048010677595912
70
13
  0
3DFACE
 8
cap
10
8.55166734378469
20
3.09
30
3.401309896682911
11
8.55515851486137
21
3.152109
31
3.4048010677595912
12
8.608466575397262
22
3.087804338305786
32
3.4581091282954852
13
8.608466575397262
23
3.087804338305786
33
3.4581091282954852
70
3
  0
3DFACE
 8
cap
10
8.608466575397262
20
3.087804338305786
30
3.4581091282954852
11
8.55515851486137
21
3.152109
31
3.4048010677595912
12
8.613099411029346
22
3.149869205505735
32
3.4627419639275705
13
8.613099411029346
23
3.149869205505735
33
3.4627419639275705
70
13
  0
3DFACE
 8
cap
10
8.608466575397262
20
3.087804338305786
30
3.4581091282954852
11
8.613099411029346
21
3.149869205505735
31
3.4627419639275705
12
8.664926806862336
22
3.081230457795461
32
3.5145693597605576
13
8.664926806862336
23
3.081230457795461
33
3.5145693597605576
70
3
  0
3DFACE
 8
cap
10
8.664926806862336
20
3.081230457795461
30
3.5145693597605576
11
8.613099411029346
21
3.149869205505735
31
3.4627419639275705
12
8.670694493146872
22
3.1431631899971517
32
3.5203370460450913
13
8.670694493146872
23
3.1431631899971517
33
3.5203370460450913
70
13
  0
3DFACE
 8
cap
10
8.664926806862336
20
3.081230457795461
30
3.5145693597605576
11
8.670694493146872
21
3.1431631899971517
31
3.5203370460450913
12
8.720711061318589
22
3.070317593972734
32
3.57035361421681
13
8.720711061318589
23
3.070317593972734
33
3.57035361421681
70
3
  0
3DFACE
 8
cap
10
8.720711061318589
20
3.070317593972734
30
3.57035361421681
11
8.670694493146872
21
3.1431631899971517
31
3.5203370460450913
12
8.7276000111177
22
3.132030977611586
32
3.577242564015919
13
8.7276000111177
23
3.132030977611586
33
3.577242564015919
70
13
  0
3DFACE
 8
cap
10
8.720711061318589
20
3.070317593972734
30
3.57035361421681
11
8.7276000111177
21
3.132030977611586
31
3.577242564015919
12
8.775486396401288
22
3.055130879099793
32
3.6251289492995054
13
8.775486396401288
23
3.055130879099793
33
3.6251289492995054
70
3
  0
3DFACE
 8
cap
10
8.775486396401288
20
3.055130879099793
30
3.6251289492995054
11
8.7276000111177
21
3.132030977611586
31
3.577242564015919
12
8.783476330435551
22
3.1165390097697028
32
3.6331188833337706
13
8.783476330435551
23
3.1165390097697028
33
3.6331188833337706
70
13
  0
3DFACE
 8
cap
10
8.775486396401288
20
3.055130879099793
30
3.6251289492995054
11
8.783476330435551
21
3.1165390097697028
31
3.6331188833337706
12
8.828925891373206
22
3.035760953462357
32
3.6785684442714257
13
8.828925891373206
23
3.035760953462357
33
3.6785684442714257
70
3
  0
3DFACE
 8
cap
10
8.828925891373206
20
3.035760953462357
30
3.6785684442714257
11
8.783476330435551
21
3.1165390097697028
31
3.6331188833337706
12
8.837989959256406
22
3.096779748626954
32
3.687632512154624
13
8.837989959256406
23
3.096779748626954
33
3.687632512154624
70
13
  0
3DFACE
 8
cap
10
8.828925891373206
20
3.035760953462357
30
3.6785684442714257
11
8.837989959256406
21
3.096779748626954
31
3.687632512154624
12
8.880710598316162
22
3.0123234243928074
32
3.7303531512143793
13
8.880710598316162
23
3.0123234243928074
33
3.7303531512143793
70
3
  0
3DFACE
 8
cap
10
8.880710598316162
20
3.0123234243928074
30
3.7303531512143793
11
8.837989959256406
21
3.096779748626954
31
3.687632512154624
12
8.890815538808916
22
3.072871125223103
32
3.740458091707135
13
8.890815538808916
23
3.072871125223103
33
3.740458091707135
70
13
  0
3DFACE
 8
cap
10
8.880710598316162
20
3.0123234243928074
30
3.7303531512143793
11
8.890815538808916
21
3.072871125223103
31
3.740458091707135
12
9.500000000000002
22
2.70267872355089
32
4.349642552898214
13
9.500000000000002
23
2.70267872355089
33
4.349642552898214
70
3
  0
3DFACE
 8
cap
10
9.500000000000002
20
2.70267872355089
30
4.349642552898214
11
8.890815538808916
21
3.072871125223103
31
3.740458091707135
12
9.500000000000005
22
2.768278894627561
32
4.349642552898219
13
9.500000000000005
23
2.768278894627561
33
4.349642552898219
70
1
  0
3DFACE
 8
lens
10
7.549999999999994
20
-1.9234723584537645
30
1.312690181611032
11
7.549999999999996
21
2.033557928245138
31
4.6873245059755515
12
7.549999999999996
22
-1.9237143674853878
32
4.6873245059755515
13
7.549999999999996
23
-1.9237143674853878
33
4.6873245059755515
70
1
  0
3DFACE
 8
lens
10
7.549999999999996
20
2.033557928245138
30
4.6873245059755515
11
7.549999999999994
21
-1.9234723584537645
31
1.312690181611032
12
7.549999999999995
22
2.033799937276761
32
1.312690181611032
13
7.549999999999995
23
2.033799937276761
33
1.312690181611032
70
1
  0
3DFACE
 8
hinge
10
0.6495190528383337
20
0.374999999999997
30
-0.37499999999999933
11
0.5303300858899189
21
0.625000000000002
31
-0.5303300858899107
12
0.6495190528383366
22
0.6250000000000006
32
-0.37499999999999933
13
0.6495190528383366
23
0.6250000000000006
33
-0.37499999999999933
70
1
  0
3DFACE
 8
hinge
10
0.5303300858899189
20
0.625000000000002
30
-0.5303300858899107
11
0.6495190528383337
21
0.374999999999997
31
-0.37499999999999933
12
0.530330085889916
22
0.37499999999999845
32
-0.5303300858899107
13
0.530330085889916
23
0.37499999999999845
33
-0.5303300858899107
70
1
  0
3DFACE
 8
hinge
10
0.7500000000000047
20
0.3749999999999958
30
-2.220446049250313e-16
11
0.7244443697168106
21
0.6249999999999997
31
-0.19411428382689278
12
0.7500000000000075
22
0.6249999999999993
32
-2.220446049250313e-16
13
0.7500000000000075
23
0.6249999999999993
33
-2.220446049250313e-16
70
1
  0
3DFACE
 8
hinge
10
0.7244443697168106
20
0.6249999999999997
30
-0.19411428382689278
11
0.7500000000000047
21
0.3749999999999958
31
-2.220446049250313e-16
12
0.7244443697168077
22
0.3749999999999961
32
-0.19411428382689278
13
0.7244443697168077
23
0.3749999999999961
33
-0.19411428382689278
70
1
  0
3DFACE
 8
hinge
10
0.37500000000000466
20
0.3750000000000002
30
-0.6495190528383283
11
0.5303300858899189
21
0.625000000000002
31
-0.5303300858899107
12
0.530330085889916
22
0.37499999999999845
32
-0.5303300858899107
13
0.530330085889916
23
0.37499999999999845
33
-0.5303300858899107
70
1
  0
3DFACE
 8
hinge
10
0.5303300858899189
20
0.625000000000002
30
-0.5303300858899107
11
0.37500000000000466
21
0.3750000000000002
31
-0.6495190528383283
12
0.37500000000000755
22
0.6250000000000038
32
-0.6495190528383283
13
0.37500000000000755
23
0.6250000000000038
33
-0.6495190528383283
70
1
  0
3DFACE
 8
hinge
10
-0.7244443697167984
20
0.3750000000000132
30
-0.194114283826891
11
-0.7499999999999925
21
0.6250000000000171
31
-2.220446049250313e-16
12
-0.7244443697167955
22
0.6250000000000168
32
-0.194114283826891
13
-0.7244443697167955
23
0.6250000000000168
33
-0.194114283826891
70
1
  0
3DFACE
 8
hinge
10
-0.7499999999999925
20
0.6250000000000171
30
-2.220446049250313e-16
11
-0.7244443697167984
21
0.3750000000000132
31
-0.194114283826891
12
-0.7499999999999953
22
0.37500000000001354
32
-2.220446049250313e-16
13
-0.7499999999999953
23
0.37500000000001354
33
-2.220446049250313e-16
70
1
  0
3DFACE
 8
hinge
10
0.19411428382689633
20
0.37500000000000233
30
-0.7244443697168006
11
0.37500000000000755
21
0.6250000000000038
31
-0.6495190528383283
12
0.37500000000000466
22
0.3750000000000002
32
-0.6495190528383283
13
0.37500000000000466
23
0.3750000000000002
33
-0.6495190528383283
70
1
  0
3DFACE
 8
hinge
10
0.37500000000000755
20
0.6250000000000038
30
-0.6495190528383283
11
0.19411428382689633
21
0.37500000000000233
31
-0.7244443697168006
12
0.19411428382689921
22
0.625000000000006
32
-0.7244443697168006
13
0.19411428382689921
23
0.625000000000006
33
-0.7244443697168006
70
1
  0
3DFACE
 8
hinge
10
-0.19411428382688056
20
0.6250000000000104
30
-0.7244443697168006
11
0.19411428382689921
21
0.625000000000006
31
-0.7244443697168006
12
7.549516567451064e-15
22
0.6250000000000082
32
-0.7499999999999993
13
7.549516567451064e-15
23
0.6250000000000082
33
-0.7499999999999993
70
1
  0
3DFACE
 8
hinge
10
0.19411428382689921
20
0.625000000000006
30
-0.7244443697168006
11
-0.19411428382688056
21
0.6250000000000104
31
-0.7244443697168006
12
-0.37499999999999245
22
0.6250000000000127
32
-0.6495190528383283
13
-0.37499999999999245
23
0.6250000000000127
33
-0.6495190528383283
70
13
  0
3DFACE
 8
hinge
10
0.19411428382689921
20
0.625000000000006
30
-0.7244443697168006
11
-0.37499999999999245
21
0.6250000000000127
31
-0.6495190528383283
12
0.37500000000000755
22
0.6250000000000038
32
-0.6495190528383283
13
0.37500000000000755
23
0.6250000000000038
33
-0.6495190528383283
70
3
  0
3DFACE
 8
hinge
10
0.37500000000000755
20
0.6250000000000038
30
-0.6495190528383283
11
-0.37499999999999245
21
0.6250000000000127
31
-0.6495190528383283
12
-0.5303300858899038
22
0.6250000000000144
32
-0.5303300858899107
13
-0.5303300858899038
23
0.6250000000000144
33
-0.5303300858899107
70
13
  0
3DFACE
 8
hinge
10
0.37500000000000755
20
0.6250000000000038
30
-0.6495190528383283
11
-0.5303300858899038
21
0.6250000000000144
31
-0.5303300858899107
12
0.5303300858899189
22
0.625000000000002
32
-0.5303300858899107
13
0.5303300858899189
23
0.625000000000002
33
-0.5303300858899107
70
3
  0
3DFACE
 8
hinge
10
0.5303300858899189
20
0.625000000000002
30
-0.5303300858899107
11
-0.5303300858899038
21
0.6250000000000144
31
-0.5303300858899107
12
-0.6495190528383215
22
0.6250000000000159
32
-0.37499999999999933
13
-0.6495190528383215
23
0.6250000000000159
33
-0.37499999999999933
70
13
  0
3DFACE
 8
hinge
10
0.5303300858899189
20
0.625000000000002
30
-0.5303300858899107
11
-0.6495190528383215
21
0.6250000000000159
31
-0.37499999999999933
12
0.6495190528383366
22
0.6250000000000006
32
-0.37499999999999933
13
0.6495190528383366
23
0.6250000000000006
33
-0.37499999999999933
70
3
  0
3DFACE
 8
hinge
10
0.6495190528383366
20
0.6250000000000006
30
-0.37499999999999933
11
-0.6495190528383215
21
0.6250000000000159
31
-0.37499999999999933
12
-0.7244443697167955
22
0.6250000000000168
32
-0.194114283826891
13
-0.7244443697167955
23
0.6250000000000168
33
-0.194114283826891
70
13
  0
3DFACE
 8
hinge
10
0.6495190528383366
20
0.6250000000000006
30
-0.37499999999999933
11
-0.7244443697167955
21
0.6250000000000168
31
-0.194114283826891
12
0.7244443697168106
22
0.6249999999999997
32
-0.19411428382689278
13
0.7244443697168106
23
0.6249999999999997
33
-0.19411428382689278
70
3
  0
3DFACE
 8
hinge
10
0.7244443697168106
20
0.6249999999999997
30
-0.19411428382689278
11
-0.7244443697167955
21
0.6250000000000168
31
-0.194114283826891
12
0.7500000000000075
22
0.6249999999999993
32
-2.220446049250313e-16
13
0.7500000000000075
23
0.6249999999999993
33
-2.220446049250313e-16
70
3
  0
3DFACE
 8
hinge
10
0.7500000000000075
20
0.6249999999999993
30
-2.220446049250313e-16
11
-0.7244443697167955
21
0.6250000000000168
31
-0.194114283826891
12
-0.7499999999999925
22
0.6250000000000171
32
-2.220446049250313e-16
13
-0.7499999999999925
23
0.6250000000000171
33
-2.220446049250313e-16
70
1
  0
3DFACE
 8
hinge
10
-0.5303300858899067
20
0.3750000000000109
30
-0.5303300858899107
11
-0.37499999999999245
21
0.6250000000000127
31
-0.6495190528383283
12
-0.37499999999999534
22
0.3750000000000091
32
-0.6495190528383283
13
-0.37499999999999534
23
0.3750000000000091
33
-0.6495190528383283
70
1
  0
3DFACE
 8
hinge
10
-0.37499999999999245
20
0.6250000000000127
30
-0.6495190528383283
11
-0.5303300858899067
21
0.3750000000000109
31
-0.5303300858899107
12
-0.5303300858899038
22
0.6250000000000144
32
-0.5303300858899107
13
-0.5303300858899038
23
0.6250000000000144
33
-0.5303300858899107
70
1
  0
3DFACE
 8
hinge
10
-0.5303300858899067
20
0.3750000000000109
30
-0.5303300858899107
11
-0.6495190528383215
21
0.6250000000000159
31
-0.37499999999999933
12
-0.5303300858899038
22
0.6250000000000144
32
-0.5303300858899107
13
-0.5303300858899038
23
0.6250000000000144
33
-0.5303300858899107
70
1
  0
3DFACE
 8
hinge
10
-0.6495190528383215
20
0.6250000000000159
30
-0.37499999999999933
11
-0.5303300858899067
21
0.3750000000000109
31
-0.5303300858899107
12
-0.6495190528383243
22
0.3750000000000123
32
-0.37499999999999933
13
-0.6495190528383243
23
0.3750000000000123
33
-0.37499999999999933
70
1
  0
3DFACE
 8
hinge
10
-0.37499999999999534
20
0.3750000000000091
30
-0.6495190528383283
11
-0.19411428382688056
21
0.6250000000000104
31
-0.7244443697168006
12
-0.19411428382688345
22
0.375000000000007
32
-0.7244443697168006
13
-0.19411428382688345
23
0.375000000000007
33
-0.7244443697168006
70
1
  0
3DFACE
 8
hinge
10
-0.19411428382688056
20
0.6250000000000104
30
-0.7244443697168006
11
-0.37499999999999534
21
0.3750000000000091
31
-0.6495190528383283
12
-0.37499999999999245
22
0.6250000000000127
32
-0.6495190528383283
13
-0.37499999999999245
23
0.6250000000000127
33
-0.6495190528383283
70
1
  0
3DFACE
 8
hinge
10
-0.19411428382688345
20
0.375000000000007
30
-0.7244443697168006
11
7.549516567451064e-15
21
0.6250000000000082
31
-0.7499999999999993
12
4.6629367034256575e-15
22
0.37500000000000466
32
-0.7499999999999993
13
4.6629367034256575e-15
23
0.37500000000000466
33
-0.7499999999999993
70
1
  0
3DFACE
 8
hinge
10
7.549516567451064e-15
20
0.6250000000000082
30
-0.7499999999999993
11
-0.19411428382688345
21
0.375000000000007
31
-0.7244443697168006
12
-0.19411428382688056
22
0.6250000000000104
32
-0.7244443697168006
13
-0.19411428382688056
23
0.6250000000000104
33
-0.7244443697168006
70
1
  0
3DFACE
 8
hinge
10
0.7244443697168077
20
0.3749999999999961
30
-0.19411428382689278
11
0.6495190528383366
21
0.6250000000000006
31
-0.37499999999999933
12
0.7244443697168106
22
0.6249999999999997
32
-0.19411428382689278
13
0.7244443697168106
23
0.6249999999999997
33
-0.19411428382689278
70
1
  0
3DFACE
 8
hinge
10
0.6495190528383366
20
0.6250000000000006
30
-0.37499999999999933
11
0.7244443697168077
21
0.3749999999999961
31
-0.19411428382689278
12
0.6495190528383337
22
0.374999999999997
32
-0.37499999999999933
13
0.6495190528383337
23
0.374999999999997
33
-0.37499999999999933
70
1
  0
LINE
 8
hinge
10
-0.9999999999999996
20
1.6431300764452317e-14
30
0.9999999999999996
11
1.0000000000000002
21
-7.105427357601002e-15
31
0.9999999999999996
  0
3DFACE
 8
hinge
10
4.6629367034256575e-15
20
0.37500000000000466
30
-0.7499999999999993
11
0.19411428382689921
21
0.625000000000006
31
-0.7244443697168006
12
0.19411428382689633
22
0.37500000000000233
32
-0.7244443697168006
13
0.19411428382689633
23
0.37500000000000233
33
-0.7244443697168006
70
1
  0
3DFACE
 8
hinge
10
0.19411428382689921
20
0.625000000000006
30
-0.7244443697168006
11
4.6629367034256575e-15
21
0.37500000000000466
31
-0.7499999999999993
12
7.549516567451064e-15
22
0.6250000000000082
32
-0.7499999999999993
13
7.549516567451064e-15
23
0.6250000000000082
33
-0.7499999999999993
70
1
  0
3DFACE
 8
hinge
10
-0.6495190528383243
20
0.3750000000000123
30
-0.37499999999999933
11
-0.7244443697167955
21
0.6250000000000168
31
-0.194114283826891
12
-0.6495190528383215
22
0.6250000000000159
32
-0.37499999999999933
13
-0.6495190528383215
23
0.6250000000000159
33
-0.37499999999999933
70
1
  0
3DFACE
 8
hinge
10
-0.7244443697167955
20
0.6250000000000168
30
-0.194114283826891
11
-0.6495190528383243
21
0.3750000000000123
31
-0.37499999999999933
12
-0.7244443697167984
22
0.3750000000000132
32
-0.194114283826891
13
-0.7244443697167984
23
0.3750000000000132
33
-0.194114283826891
70
1
  0
3DFACE
 8
hinge
10
0.19411428382689633
20
0.37500000000000233
30
-0.7244443697168006
11
-0.19411428382688345
21
0.375000000000007
31
-0.7244443697168006
12
4.6629367034256575e-15
22
0.37500000000000466
32
-0.7499999999999993
13
4.6629367034256575e-15
23
0.37500000000000466
33
-0.7499999999999993
70
1
  0
3DFACE
 8
hinge
10
-0.19411428382688345
20
0.375000000000007
30
-0.7244443697168006
11
0.19411428382689633
21
0.37500000000000233
31
-0.7244443697168006
12
0.37500000000000466
22
0.3750000000000002
32
-0.6495190528383283
13
0.37500000000000466
23
0.3750000000000002
33
-0.6495190528383283
70
13
  0
3DFACE
 8
hinge
10
-0.19411428382688345
20
0.375000000000007
30
-0.7244443697168006
11
0.37500000000000466
21
0.3750000000000002
31
-0.6495190528383283
12
-0.37499999999999534
22
0.3750000000000091
32
-0.6495190528383283
13
-0.37499999999999534
23
0.3750000000000091
33
-0.6495190528383283
70
3
  0
3DFACE
 8
hinge
10
-0.37499999999999534
20
0.3750000000000091
30
-0.6495190528383283
11
0.37500000000000466
21
0.3750000000000002
31
-0.6495190528383283
12
0.530330085889916
22
0.37499999999999845
32
-0.5303300858899107
13
0.530330085889916
23
0.37499999999999845
33
-0.5303300858899107
70
13
  0
3DFACE
 8
hinge
10
-0.37499999999999534
20
0.3750000000000091
30
-0.6495190528383283
11
0.530330085889916
21
0.37499999999999845
31
-0.5303300858899107
12
-0.5303300858899067
22
0.3750000000000109
32
-0.5303300858899107
13
-0.5303300858899067
23
0.3750000000000109
33
-0.5303300858899107
70
3
  0
3DFACE
 8
hinge
10
-0.5303300858899067
20
0.3750000000000109
30
-0.5303300858899107
11
0.530330085889916
21
0.37499999999999845
31
-0.5303300858899107
12
0.6495190528383337
22
0.374999999999997
32
-0.37499999999999933
13
0.6495190528383337
23
0.374999999999997
33
-0.37499999999999933
70
13
  0
3DFACE
 8
hinge
10
-0.5303300858899067
20
0.3750000000000109
30
-0.5303300858899107
11
0.6495190528383337
21
0.374999999999997
31
-0.37499999999999933
12
-0.6495190528383243
22
0.3750000000000123
32
-0.37499999999999933
13
-0.6495190528383243
23
0.3750000000000123
33
-0.37499999999999933
70
3
  0
3DFACE
 8
hinge
10
-0.6495190528383243
20
0.3750000000000123
30
-0.37499999999999933
11
0.6495190528383337
21
0.374999999999997
31
-0.37499999999999933
12
0.7244443697168077
22
0.3749999999999961
32
-0.19411428382689278
13
0.7244443697168077
23
0.3749999999999961
33
-0.19411428382689278
70
13
  0
3DFACE
 8
hinge
10
-0.6495190528383243
20
0.3750000000000123
30
-0.37499999999999933
11
0.7244443697168077
21
0.3749999999999961
31
-0.19411428382689278
12
-0.7244443697167984
22
0.3750000000000132
32
-0.194114283826891
13
-0.7244443697167984
23
0.3750000000000132
33
-0.194114283826891
70
3
  0
3DFACE
 8
hinge
10
-0.7244443697167984
20
0.3750000000000132
30
-0.194114283826891
11
0.7244443697168077
21
0.3749999999999961
31
-0.19411428382689278
12
0.7500000000000047
22
0.3749999999999958
32
-2.220446049250313e-16
13
0.7500000000000047
23
0.3749999999999958
33
-2.220446049250313e-16
70
13
  0
3DFACE
 8
hinge
10
-0.7244443697167984
20
0.3750000000000132
30
-0.194114283826891
11
0.7500000000000047
21
0.3749999999999958
31
-2.220446049250313e-16
12
-0.7499999999999953
22
0.37500000000001354
32
-2.220446049250313e-16
13
-0.7499999999999953
23
0.37500000000001354
33
-2.220446049250313e-16
70
1
  0
3DFACE
 8
hinge
10
-0.9999999999999996
20
1.6431300764452317e-14
30
-2.220446049250313e-16
11
0.9659258262890719
21
0.2588190451025134
31
-2.220446049250313e-16
12
1.0000000000000002
22
-7.105427357601002e-15
32
-2.220446049250313e-16
13
1.0000000000000002
23
-7.105427357601002e-15
33
-2.220446049250313e-16
70
1
  0
3DFACE
 8
hinge
10
0.9659258262890719
20
0.2588190451025134
30
-2.220446049250313e-16
11
-0.9999999999999996
21
1.6431300764452317e-14
31
-2.220446049250313e-16
12
0.8660254037844454
22
0.4999999999999938
32
-2.220446049250313e-16
13
0.8660254037844454
23
0.4999999999999938
33
-2.220446049250313e-16
70
3
  0
3DFACE
 8
hinge
10
0.8660254037844454
20
0.4999999999999938
30
-2.220446049250313e-16
11
-0.9999999999999996
21
1.6431300764452317e-14
31
-2.220446049250313e-16
12
0.7071067811865565
22
0.7071067811865436
32
-2.220446049250313e-16
13
0.7071067811865565
23
0.7071067811865436
33
-2.220446049250313e-16
70
3
  0
3DFACE
 8
hinge
10
0.7071067811865565
20
0.7071067811865436
30
-2.220446049250313e-16
11
-0.9999999999999996
21
1.6431300764452317e-14
31
-2.220446049250313e-16
12
0.5000000000000104
22
0.8660254037844374
32
-2.220446049250313e-16
13
0.5000000000000104
23
0.8660254037844374
33
-2.220446049250313e-16
70
3
  0
3DFACE
 8
hinge
10
0.5000000000000104
20
0.8660254037844374
30
-2.220446049250313e-16
11
-0.9999999999999996
21
1.6431300764452317e-14
31
-2.220446049250313e-16
12
0.2588190451025332
22
0.9659258262890692
32
-2.220446049250313e-16
13
0.2588190451025332
23
0.9659258262890692
33
-2.220446049250313e-16
70
3
  0
3DFACE
 8
hinge
10
0.2588190451025332
20
0.9659258262890692
30
-2.220446049250313e-16
11
-0.9999999999999996
21
1.6431300764452317e-14
31
-2.220446049250313e-16
12
1.199040866595169e-14
22
1.0000000000000047
32
-2.220446049250313e-16
13
1.199040866595169e-14
23
1.0000000000000047
33
-2.220446049250313e-16
70
3
  0
3DFACE
 8
hinge
10
1.199040866595169e-14
20
1.0000000000000047
30
-2.220446049250313e-16
11
-0.9999999999999996
21
1.6431300764452317e-14
31
-2.220446049250313e-16
12
-0.2588190451025092
22
0.965925826289077
32
-2.220446049250313e-16
13
-0.2588190451025092
23
0.965925826289077
33
-2.220446049250313e-16
70
3
  0
3DFACE
 8
hinge
10
-0.2588190451025092
20
0.965925826289077
30
-2.220446049250313e-16
11
-0.9999999999999996
21
1.6431300764452317e-14
31
-2.220446049250313e-16
12
-0.49999999999998956
22
0.8660254037844491
32
-2.220446049250313e-16
13
-0.49999999999998956
23
0.8660254037844491
33
-2.220446049250313e-16
70
3
  0
3DFACE
 8
hinge
10
-0.49999999999998956
20
0.8660254037844491
30
-2.220446049250313e-16
11
-0.9999999999999996
21
1.6431300764452317e-14
31
-2.220446049250313e-16
12
-0.7071067811865395
22
0.7071067811865602
32
-2.220446049250313e-16
13
-0.7071067811865395
23
0.7071067811865602
33
-2.220446049250313e-16
70
3
  0
3DFACE
 8
hinge
10
-0.7071067811865395
20
0.7071067811865602
30
-2.220446049250313e-16
11
-0.9999999999999996
21
1.6431300764452317e-14
31
-2.220446049250313e-16
12
-0.8660254037844322
22
0.5000000000000151
32
-2.220446049250313e-16
13
-0.8660254037844322
23
0.5000000000000151
33
-2.220446049250313e-16
70
3
  0
3DFACE
 8
hinge
10
-0.8660254037844322
20
0.5000000000000151
30
-2.220446049250313e-16
11
-0.9999999999999996
21
1.6431300764452317e-14
31
-2.220446049250313e-16
12
-0.9659258262890644
22
0.25881904510253695
32
-2.220446049250313e-16
13
-0.9659258262890644
23
0.25881904510253695
33
-2.220446049250313e-16
70
1
  0
3DFACE
 8
hinge
10
1.199040866595169e-14
20
1.0000000000000047
30
0.9999999999999996
11
0.2588190451025332
21
0.9659258262890692
31
-2.220446049250313e-16
12
1.199040866595169e-14
22
1.0000000000000047
32
-2.220446049250313e-16
13
1.199040866595169e-14
23
1.0000000000000047
33
-2.220446049250313e-16
70
1
  0
3DFACE
 8
hinge
10
0.2588190451025332
20
0.9659258262890692
30
-2.220446049250313e-16
11
1.199040866595169e-14
21
1.0000000000000047
31
0.9999999999999996
12
0.2588190451025332
22
0.9659258262890692
32
0.9999999999999996
13
0.2588190451025332
23
0.9659258262890692
33
0.9999999999999996
70
1
  0
3DFACE
 8
hinge
10
-0.7071067811865395
20
0.7071067811865602
30
0.9999999999999996
11
-0.49999999999998956
21
0.8660254037844491
31
-2.220446049250313e-16
12
-0.7071067811865395
22
0.7071067811865602
32
-2.220446049250313e-16
13
-0.7071067811865395
23
0.7071067811865602
33
-2.220446049250313e-16
70
1
  0
3DFACE
 8
hinge
10
-0.49999999999998956
20
0.8660254037844491
30
-2.220446049250313e-16
11
-0.7071067811865395
21
0.7071067811865602
31
0.9999999999999996
12
-0.49999999999998956
22
0.8660254037844491
32
0.9999999999999996
13
-0.49999999999998956
23
0.8660254037844491
33
0.9999999999999996
70
1
  0
3DFACE
 8
hinge
10
-0.49999999999998956
20
0.8660254037844491
30
0.9999999999999996
11
-0.2588190451025092
21
0.965925826289077
31
-2.220446049250313e-16
12
-0.49999999999998956
22
0.8660254037844491
32
-2.220446049250313e-16
13
-0.49999999999998956
23
0.8660254037844491
33
-2.220446049250313e-16
70
1
  0
3DFACE
 8
hinge
10
-0.2588190451025092
20
0.965925826289077
30
-2.220446049250313e-16
11
-0.49999999999998956
21
0.8660254037844491
31
0.9999999999999996
12
-0.2588190451025092
22
0.965925826289077
32
0.9999999999999996
13
-0.2588190451025092
23
0.965925826289077
33
0.9999999999999996
70
1
  0
3DFACE
 8
hinge
10
0.2588190451025332
20
0.9659258262890692
30
0.9999999999999996
11
0.5000000000000104
21
0.8660254037844374
31
-2.220446049250313e-16
12
0.2588190451025332
22
0.9659258262890692
32
-2.220446049250313e-16
13
0.2588190451025332
23
0.9659258262890692
33
-2.220446049250313e-16
70
1
  0
3DFACE
 8
hinge
10
0.5000000000000104
20
0.8660254037844374
30
-2.220446049250313e-16
11
0.2588190451025332
21
0.9659258262890692
31
0.9999999999999996
12
0.5000000000000104
22
0.8660254037844374
32
0.9999999999999996
13
0.5000000000000104
23
0.8660254037844374
33
0.9999999999999996
70
1
  0
3DFACE
 8
hinge
10
1.0000000000000002
20
-7.105427357601002e-15
30
0.9999999999999996
11
0.9659258262890719
21
0.2588190451025134
31
-2.220446049250313e-16
12
0.9659258262890719
22
0.2588190451025134
32
0.9999999999999996
13
0.9659258262890719
23
0.2588190451025134
33
0.9999999999999996
70
1
  0
3DFACE
 8
hinge
10
0.9659258262890719
20
0.2588190451025134
30
-2.220446049250313e-16
11
1.0000000000000002
21
-7.105427357601002e-15
31
0.9999999999999996
12
1.0000000000000002
22
-7.105427357601002e-15
32
-2.220446049250313e-16
13
1.0000000000000002
23
-7.105427357601002e-15
33
-2.220446049250313e-16
70
1
  0
3DFACE
 8
hinge
10
0.8660254037844454
20
0.4999999999999938
30
0.9999999999999996
11
0.7071067811865565
21
0.7071067811865436
31
-2.220446049250313e-16
12
0.7071067811865565
22
0.7071067811865436
32
0.9999999999999996
13
0.7071067811865565
23
0.7071067811865436
33
0.9999999999999996
70
1
  0
3DFACE
 8
hinge
10
0.7071067811865565
20
0.7071067811865436
30
-2.220446049250313e-16
11
0.8660254037844454
21
0.4999999999999938
31
0.9999999999999996
12
0.8660254037844454
22
0.4999999999999938
32
-2.220446049250313e-16
13
0.8660254037844454
23
0.4999999999999938
33
-2.220446049250313e-16
70
1
  0
3DFACE
 8
hinge
10
-0.2588190451025092
20
0.965925826289077
30
0.9999999999999996
11
1.199040866595169e-14
21
1.0000000000000047
31
-2.220446049250313e-16
12
-0.2588190451025092
22
0.965925826289077
32
-2.220446049250313e-16
13
-0.2588190451025092
23
0.965925826289077
33
-2.220446049250313e-16
70
1
  0
3DFACE
 8
hinge
10
1.199040866595169e-14
20
1.0000000000000047
30
-2.220446049250313e-16
11
-0.2588190451025092
21
0.965925826289077
31
0.9999999999999996
12
1.199040866595169e-14
22
1.0000000000000047
32
0.9999999999999996
13
1.199040866595169e-14
23
1.0000000000000047
33
0.9999999999999996
70
1
  0
3DFACE
 8
hinge
10
-0.9659258262890644
20
0.25881904510253695
30
-2.220446049250313e-16
11
-0.8660254037844322
21
0.5000000000000151
31
0.9999999999999996
12
-0.8660254037844322
22
0.5000000000000151
32
-2.220446049250313e-16
13
-0.8660254037844322
23
0.5000000000000151
33
-2.220446049250313e-16
70
1
  0
3DFACE
 8
hinge
10
-0.8660254037844322
20
0.5000000000000151
30
0.9999999999999996
11
-0.9659258262890644
21
0.25881904510253695
31
-2.220446049250313e-16
12
-0.9659258262890644
22
0.25881904510253695
32
0.9999999999999996
13
-0.9659258262890644
23
0.25881904510253695
33
0.9999999999999996
70
1
  0
3DFACE
 8
hinge
10
-0.8660254037844322
20
0.5000000000000151
30
-2.220446049250313e-16
11
-0.7071067811865395
21
0.7071067811865602
31
0.9999999999999996
12
-0.7071067811865395
22
0.7071067811865602
32
-2.220446049250313e-16
13
-0.7071067811865395
23
0.7071067811865602
33
-2.220446049250313e-16
70
1
  0
3DFACE
 8
hinge
10
-0.7071067811865395
20
0.7071067811865602
30
0.9999999999999996
11
-0.8660254037844322
21
0.5000000000000151
31
-2.220446049250313e-16
12
-0.8660254037844322
22
0.5000000000000151
32
0.9999999999999996
13
-0.8660254037844322
23
0.5000000000000151
33
0.9999999999999996
70
1
  0
3DFACE
 8
hinge
10
0.5000000000000104
20
0.8660254037844374
30
0.9999999999999996
11
0.7071067811865565
21
0.7071067811865436
31
-2.220446049250313e-16
12
0.5000000000000104
22
0.8660254037844374
32
-2.220446049250313e-16
13
0.5000000000000104
23
0.8660254037844374
33
-2.220446049250313e-16
70
1
  0
3DFACE
 8
hinge
10
0.7071067811865565
20
0.7071067811865436
30
-2.220446049250313e-16
11
0.5000000000000104
21
0.8660254037844374
31
0.9999999999999996
12
0.7071067811865565
22
0.7071067811865436
32
0.9999999999999996
13
0.7071067811865565
23
0.7071067811865436
33
0.9999999999999996
70
1
  0
3DFACE
 8
hinge
10
0.9659258262890719
20
0.2588190451025134
30
0.9999999999999996
11
0.8660254037844454
21
0.4999999999999938
31
-2.220446049250313e-16
12
0.8660254037844454
22
0.4999999999999938
32
0.9999999999999996
13
0.8660254037844454
23
0.4999999999999938
33
0.9999999999999996
70
1
  0
3DFACE
 8
hinge
10
0.8660254037844454
20
0.4999999999999938
30
-2.220446049250313e-16
11
0.9659258262890719
21
0.2588190451025134
31
0.9999999999999996
12
0.9659258262890719
22
0.2588190451025134
32
-2.220446049250313e-16
13
0.9659258262890719
23
0.2588190451025134
33
-2.220446049250313e-16
70
1
  0
3DFACE
 8
hinge
10
-0.9999999999999996
20
1.6431300764452317e-14
30
-2.220446049250313e-16
11
-0.9659258262890644
21
0.25881904510253695
31
0.9999999999999996
12
-0.9659258262890644
22
0.25881904510253695
32
-2.220446049250313e-16
13
-0.9659258262890644
23
0.25881904510253695
33
-2.220446049250313e-16
70
1
  0
3DFACE
 8
hinge
10
-0.9659258262890644
20
0.25881904510253695
30
0.9999999999999996
11
-0.9999999999999996
21
1.6431300764452317e-14
31
-2.220446049250313e-16
12
-0.9999999999999996
22
1.6431300764452317e-14
32
0.9999999999999996
13
-0.9999999999999996
23
1.6431300764452317e-14
33
0.9999999999999996
70
1
 0
ENDSEC
 0
EOF
