 0
SECTION
 2
ENTITIES
  0
3DFACE
 8
fin_face_half
10
-33.50000000000001
20
-1.2499999999999996
30
34.82654508887018
11
-33.500000000000014
21
-1.2499999999999996
31
30.826545088870194
12
-5.639932965095795e-15
22
-1.2499999999999996
32
30.826545088870194
13
-5.639932965095795e-15
23
-1.2499999999999996
33
30.826545088870194
70
0
  0
3DFACE
 8
fin_face_half
10
-33.500000000000014
20
-1.2499999999999996
30
30.826545088870194
11
-37.50000000000001
21
-1.2499999999999996
31
30.826545088870187
12
-33.50000000000001
22
-1.2499999999999996
32
17.66327254443509
13
-33.50000000000001
23
-1.2499999999999996
33
17.66327254443509
70
0
  0
3DFACE
 8
fin_face_half
10
-33.500000000000014
20
-1.2499999999999996
30
30.826545088870194
11
-33.50000000000001
21
-1.2499999999999996
31
17.66327254443509
12
-5.639932965095795e-15
22
-1.2499999999999996
32
30.826545088870194
13
-5.639932965095795e-15
23
-1.2499999999999996
33
30.826545088870194
70
0
  0
3DFACE
 8
fin_face_half
10
-5.639932965095795e-15
20
-1.2499999999999996
30
30.826545088870194
11
-33.50000000000001
21
-1.2499999999999996
31
17.66327254443509
12
-5.639932965095795e-15
22
-1.2499999999999996
32
17.66327254443509
13
-5.639932965095795e-15
23
-1.2499999999999996
33
17.66327254443509
70
0
  0
3DFACE
 8
fin_face_half
10
-33.50000000000001
20
-1.2499999999999996
30
34.82654508887018
11
-5.639932965095795e-15
21
-1.2499999999999996
31
30.826545088870194
12
-5.639932965095795e-15
22
-1.2499999999999996
32
34.82654508887018
13
-5.639932965095795e-15
23
-1.2499999999999996
33
34.82654508887018
70
0
  0
3DFACE
 8
fin_face_half
10
-37.50000000000001
20
-1.2499999999999996
30
30.826545088870187
11
-37.50000000000001
21
-1.2499999999999996
31
17.66327254443509
12
-33.50000000000001
22
-1.2499999999999996
32
17.66327254443509
13
-33.50000000000001
23
-1.2499999999999996
33
17.66327254443509
70
0
  0
3DFACE
 8
fin_face_half
10
-33.50000000000001
20
-1.2499999999999996
30
17.66327254443509
11
-5.639932965095795e-15
21
-1.2499999999999996
31
0.49999999999999906
12
-5.639932965095795e-15
22
-1.2499999999999996
32
17.66327254443509
13
-5.639932965095795e-15
23
-1.2499999999999996
33
17.66327254443509
70
0
  0
3DFACE
 8
fin_face_half
10
-33.50000000000001
20
-1.2499999999999996
30
17.66327254443509
11
-33.50000000000001
21
-1.2499999999999996
31
0.49999999999999906
12
-5.639932965095795e-15
22
-1.2499999999999996
32
0.49999999999999906
13
-5.639932965095795e-15
23
-1.2499999999999996
33
0.49999999999999906
70
0
  0
3DFACE
 8
fin_face_half
10
-36.96410161513776
20
-1.2499999999999996
30
32.82654508887019
11
-37.50000000000001
21
-1.2499999999999996
31
30.826545088870187
12
-33.500000000000014
22
-1.2499999999999996
32
30.826545088870194
13
-33.500000000000014
23
-1.2499999999999996
33
30.826545088870194
70
0
  0
3DFACE
 8
fin_face_half
10
-35.50000000000001
20
-1.2499999999999996
30
34.29064670400795
11
-36.96410161513776
21
-1.2499999999999996
31
32.82654508887019
12
-33.500000000000014
22
-1.2499999999999996
32
30.826545088870194
13
-33.500000000000014
23
-1.2499999999999996
33
30.826545088870194
70
0
  0
3DFACE
 8
fin_face_half
10
-33.50000000000001
20
-1.2499999999999996
30
34.82654508887018
11
-35.50000000000001
21
-1.2499999999999996
31
34.29064670400795
12
-33.500000000000014
22
-1.2499999999999996
32
30.826545088870194
13
-33.500000000000014
23
-1.2499999999999996
33
30.826545088870194
70
0
  0
3DFACE
 8
disc_quarter
10
-34.0
20
-3.27117099240816
30
-1.6097177653715823e-14
11
-38.5
21
-3.2711709924081642
31
3.105896849114554
12
-38.50000000000001
22
-3.2711709924081416
32
-1.6919798895287383e-14
13
-38.50000000000001
23
-3.2711709924081416
33
-1.6919798895287383e-14
70
1
  0
3DFACE
 8
disc_quarter
10
-38.5
20
-3.2711709924081642
30
3.105896849114554
11
-34.0
21
-3.27117099240816
31
-1.6097177653715823e-14
12
-33.999999999999986
22
-3.2711709924081824
32
3.105896849114554
13
-33.999999999999986
23
-3.2711709924081824
33
3.105896849114554
70
1
  0
3DFACE
 8
disc_quarter
10
-33.999999999999986
20
-1.6634404790586517
30
9.106028809813777
11
-38.5
21
-3.2711709924081642
31
3.105896849114554
12
-33.999999999999986
22
-3.2711709924081824
32
3.105896849114554
13
-33.999999999999986
23
-3.2711709924081824
33
3.105896849114554
70
1
  0
3DFACE
 8
disc_quarter
10
-38.5
20
-3.2711709924081642
30
3.105896849114554
11
-33.999999999999986
21
-1.6634404790586517
31
9.106028809813777
12
-38.5
22
-1.6634404790586328
32
9.106028809813777
13
-38.5
23
-1.6634404790586328
33
9.106028809813777
70
1
  0
3DFACE
 8
disc_quarter
10
-33.999999999999986
20
1.4999999999999922
30
14.585268446263385
11
-38.5
21
-1.6634404790586328
31
9.106028809813777
12
-33.999999999999986
22
-1.6634404790586517
32
9.106028809813777
13
-33.999999999999986
23
-1.6634404790586517
33
9.106028809813777
70
1
  0
3DFACE
 8
disc_quarter
10
-38.5
20
-1.6634404790586328
30
9.106028809813777
11
-33.999999999999986
21
1.4999999999999922
31
14.585268446263385
12
-38.5
22
1.4999999999999922
32
14.585268446263385
13
-38.5
23
1.4999999999999922
33
14.585268446263385
70
1
  0
3DFACE
 8
disc_quarter
10
-38.5
20
1.4999999999999922
30
-1.6919798895287383e-14
11
-38.50000000000001
21
-3.2711709924081416
31
-1.6919798895287383e-14
12
-38.5
22
-3.2711709924081642
32
3.105896849114554
13
-38.5
23
-3.2711709924081642
33
3.105896849114554
70
0
  0
3DFACE
 8
disc_quarter
10
-38.5
20
1.4999999999999922
30
-1.6919798895287383e-14
11
-38.5
21
-3.2711709924081642
31
3.105896849114554
12
-38.5
22
-1.6634404790586328
32
9.106028809813777
13
-38.5
23
-1.6634404790586328
33
9.106028809813777
70
0
  0
3DFACE
 8
disc_quarter
10
-33.999999999999986
20
1.4999999999999922
30
14.585268446263385
11
-33.999999999999986
21
-1.6634404790586517
31
9.106028809813777
12
-33.999999999999986
22
1.4999999999999922
32
-1.4804824033376462e-14
13
-33.999999999999986
23
1.4999999999999922
33
-1.4804824033376462e-14
70
0
  0
3DFACE
 8
disc_quarter
10
-33.999999999999986
20
1.4999999999999922
30
-1.4804824033376462e-14
11
-33.999999999999986
21
-3.2711709924081824
31
3.105896849114554
12
-34.0
22
-3.27117099240816
32
-1.6097177653715823e-14
13
-34.0
23
-3.27117099240816
33
-1.6097177653715823e-14
70
0
  0
3DFACE
 8
disc_quarter
10
-33.999999999999986
20
1.4999999999999922
30
-1.4804824033376462e-14
11
-33.999999999999986
21
-1.6634404790586517
31
9.106028809813777
12
-33.999999999999986
22
-3.2711709924081824
32
3.105896849114554
13
-33.999999999999986
23
-3.2711709924081824
33
3.105896849114554
70
0
  0
3DFACE
 8
box_quarter_frame
10
5.639932965095795e-15
20
1.5000000000000084
30
35.826545088870176
11
-38.49999999999998
21
-1.9999999999999913
31
35.826545088870176
12
-38.499999999999986
22
1.5000000000000084
32
35.826545088870176
13
-38.499999999999986
23
1.5000000000000084
33
35.826545088870176
70
1
  0
3DFACE
 8
box_quarter_frame
10
-38.49999999999998
20
-1.9999999999999913
30
35.826545088870176
11
5.639932965095795e-15
21
1.5000000000000084
31
35.826545088870176
12
5.639932965095795e-15
22
-1.9999999999999913
32
35.826545088870176
13
5.639932965095795e-15
23
-1.9999999999999913
33
35.826545088870176
70
1
  0
3DFACE
 8
box_quarter_frame
10
-40.49999999999998
20
-1.9999999999999913
30
39.82654508887017
11
5.639932965095795e-15
21
2.500000000000008
31
39.82654508887017
12
-40.49999999999999
22
2.500000000000008
32
39.82654508887017
13
-40.49999999999999
23
2.500000000000008
33
39.82654508887017
70
1
  0
3DFACE
 8
box_quarter_frame
10
5.639932965095795e-15
20
2.500000000000008
30
39.82654508887017
11
-40.49999999999998
21
-1.9999999999999913
31
39.82654508887017
12
5.639932965095795e-15
22
-1.9999999999999913
32
39.82654508887017
13
5.639932965095795e-15
23
-1.9999999999999913
33
39.82654508887017
70
1
  0
3DFACE
 8
box_quarter_frame
10
5.639932965095795e-15
20
-1.9999999999999913
30
39.82654508887017
11
-38.49999999999998
21
-1.9999999999999913
31
35.826545088870176
12
5.639932965095795e-15
22
-1.9999999999999913
32
35.826545088870176
13
5.639932965095795e-15
23
-1.9999999999999913
33
35.826545088870176
70
1
  0
3DFACE
 8
box_quarter_frame
10
-38.49999999999998
20
-1.9999999999999913
30
35.826545088870176
11
5.639932965095795e-15
21
-1.9999999999999913
31
39.82654508887017
12
-40.49999999999998
22
-1.9999999999999913
32
35.826545088870176
13
-40.49999999999998
23
-1.9999999999999913
33
35.826545088870176
70
3
  0
3DFACE
 8
box_quarter_frame
10
-40.49999999999998
20
-1.9999999999999913
30
35.826545088870176
11
5.639932965095795e-15
21
-1.9999999999999913
31
39.82654508887017
12
-40.49999999999998
22
-1.9999999999999913
32
39.82654508887017
13
-40.49999999999998
23
-1.9999999999999913
33
39.82654508887017
70
1
  0
3DFACE
 8
box_quarter_frame
10
-40.49999999999999
20
2.500000000000008
30
39.82654508887017
11
-40.49999999999998
21
-1.9999999999999913
31
35.826545088870176
12
-40.49999999999998
22
-1.9999999999999913
32
39.82654508887017
13
-40.49999999999998
23
-1.9999999999999913
33
39.82654508887017
70
1
  0
3DFACE
 8
box_quarter_frame
10
-40.49999999999998
20
-1.9999999999999913
30
35.826545088870176
11
-40.49999999999999
21
2.500000000000008
31
39.82654508887017
12
-40.49999999999999
22
2.500000000000008
32
35.826545088870176
13
-40.49999999999999
23
2.500000000000008
33
35.826545088870176
70
1
  0
3DFACE
 8
box_quarter_frame
10
-40.49999999999999
20
2.500000000000008
30
35.826545088870176
11
-40.49999999999998
21
-1.9999999999999913
31
-0.0017362311270455954
12
-40.49999999999998
22
-1.9999999999999913
32
35.826545088870176
13
-40.49999999999998
23
-1.9999999999999913
33
35.826545088870176
70
1
  0
3DFACE
 8
box_quarter_frame
10
-40.49999999999998
20
-1.9999999999999913
30
-0.0017362311270455954
11
-40.49999999999999
21
2.500000000000008
31
35.826545088870176
12
-40.49999999999999
22
2.500000000000008
32
-0.0017362311270455954
13
-40.49999999999999
23
2.500000000000008
33
-0.0017362311270455954
70
1
  0
3DFACE
 8
box_quarter_frame
10
-38.5
20
-2.023352891115778
30
-1.6919798895287383e-14
11
-40.49999999999998
21
-1.9999999999999913
31
35.826545088870176
12
-40.49999999999998
22
-1.9999999999999913
32
-0.0017362311270455954
13
-40.49999999999998
23
-1.9999999999999913
33
-0.0017362311270455954
70
1
  0
3DFACE
 8
box_quarter_frame
10
-40.49999999999998
20
-1.9999999999999913
30
35.826545088870176
11
-38.5
21
-2.023352891115778
31
-1.6919798895287383e-14
12
-38.49999999999998
22
-1.9999999999999913
32
35.826545088870176
13
-38.49999999999998
23
-1.9999999999999913
33
35.826545088870176
70
1
  0
3DFACE
 8
box_quarter_frame
10
-38.499999999999986
20
1.500000000000011
30
-1.6919798895287383e-14
11
-38.49999999999998
21
-1.9999999999999913
31
35.826545088870176
12
-38.5
22
-2.023352891115778
32
-1.6919798895287383e-14
13
-38.5
23
-2.023352891115778
33
-1.6919798895287383e-14
70
1
  0
3DFACE
 8
box_quarter_frame
10
-38.49999999999998
20
-1.9999999999999913
30
35.826545088870176
11
-38.499999999999986
21
1.500000000000011
31
-1.6919798895287383e-14
12
-38.499999999999986
22
1.5000000000000084
32
35.826545088870176
13
-38.499999999999986
23
1.5000000000000084
33
35.826545088870176
70
1
  0
3DFACE
 8
box_quarter_frame
10
5.639932965095795e-15
20
1.5000000000000084
30
35.826545088870176
11
-38.499999999999986
21
1.500000000000011
31
-1.6919798895287383e-14
12
5.639932965095795e-15
22
1.5000000000000084
32
-2.255973186038318e-14
13
5.639932965095795e-15
23
1.5000000000000084
33
-2.255973186038318e-14
70
1
  0
3DFACE
 8
box_quarter_frame
10
-38.499999999999986
20
1.500000000000011
30
-1.6919798895287383e-14
11
5.639932965095795e-15
21
1.5000000000000084
31
35.826545088870176
12
-38.499999999999986
22
1.5000000000000084
32
35.826545088870176
13
-38.499999999999986
23
1.5000000000000084
33
35.826545088870176
70
1
  0
3DFACE
 8
fin_edge_half
10
-33.49999999999999
20
0.25000000000000006
30
17.66327254443509
11
-37.49999999999999
21
-1.2499999999999996
31
17.66327254443509
12
-37.49999999999999
22
0.25000000000000006
32
17.66327254443509
13
-37.49999999999999
23
0.25000000000000006
33
17.66327254443509
70
1
  0
3DFACE
 8
fin_edge_half
10
-37.49999999999999
20
-1.2499999999999996
30
17.66327254443509
11
-33.49999999999999
21
0.25000000000000006
31
17.66327254443509
12
-33.49999999999999
22
-1.2499999999999996
32
17.66327254443509
13
-33.49999999999999
23
-1.2499999999999996
33
17.66327254443509
70
1
  0
3DFACE
 8
fin_edge_half
10
-37.49999999999999
20
0.25000000000000006
30
30.826545088870187
11
-37.49999999999999
21
-1.2499999999999996
31
17.66327254443509
12
-37.49999999999999
22
-1.2499999999999996
32
30.826545088870187
13
-37.49999999999999
23
-1.2499999999999996
33
30.826545088870187
70
1
  0
3DFACE
 8
fin_edge_half
10
-37.49999999999999
20
-1.2499999999999996
30
17.66327254443509
11
-37.49999999999999
21
0.25000000000000006
31
30.826545088870187
12
-37.49999999999999
22
0.25000000000000006
32
17.66327254443509
13
-37.49999999999999
23
0.25000000000000006
33
17.66327254443509
70
1
  0
3DFACE
 8
fin_edge_half
10
5.639932965095795e-15
20
-1.2499999999999996
30
34.82654508887018
11
-33.49999999999999
21
0.25000000000000006
31
34.82654508887018
12
-33.49999999999999
22
-1.2499999999999996
32
34.82654508887018
13
-33.49999999999999
23
-1.2499999999999996
33
34.82654508887018
70
1
  0
3DFACE
 8
fin_edge_half
10
-33.49999999999999
20
0.25000000000000006
30
34.82654508887018
11
5.639932965095795e-15
21
-1.2499999999999996
31
34.82654508887018
12
5.639932965095795e-15
22
0.25000000000000006
32
34.82654508887018
13
5.639932965095795e-15
23
0.25000000000000006
33
34.82654508887018
70
1
  0
3DFACE
 8
fin_edge_half
10
5.639932965095795e-15
20
0.25000000000000006
30
0.49999999999999906
11
-33.49999999999999
21
-1.2499999999999996
31
0.49999999999999906
12
-33.49999999999999
22
0.25000000000000006
32
0.49999999999999906
13
-33.49999999999999
23
0.25000000000000006
33
0.49999999999999906
70
1
  0
3DFACE
 8
fin_edge_half
10
-33.49999999999999
20
-1.2499999999999996
30
0.49999999999999906
11
5.639932965095795e-15
21
0.25000000000000006
31
0.49999999999999906
12
5.639932965095795e-15
22
-1.2499999999999996
32
0.49999999999999906
13
5.639932965095795e-15
23
-1.2499999999999996
33
0.49999999999999906
70
1
  0
3DFACE
 8
fin_edge_half
10
-33.49999999999999
20
0.25000000000000006
30
17.66327254443509
11
-33.49999999999999
21
-1.2499999999999996
31
0.49999999999999906
12
-33.49999999999999
22
-1.2499999999999996
32
17.66327254443509
13
-33.49999999999999
23
-1.2499999999999996
33
17.66327254443509
70
1
  0
3DFACE
 8
fin_edge_half
10
-33.49999999999999
20
-1.2499999999999996
30
0.49999999999999906
11
-33.49999999999999
21
0.25000000000000006
31
17.66327254443509
12
-33.49999999999999
22
0.25000000000000006
32
0.49999999999999906
13
-33.49999999999999
23
0.25000000000000006
33
0.49999999999999906
70
1
  0
3DFACE
 8
fin_edge_half
10
-36.96410161513774
20
0.25000000000000006
30
32.82654508887019
11
-37.49999999999999
21
-1.2499999999999996
31
30.826545088870187
12
-36.96410161513774
22
-1.2499999999999996
32
32.82654508887019
13
-36.96410161513774
23
-1.2499999999999996
33
32.82654508887019
70
1
  0
3DFACE
 8
fin_edge_half
10
-37.49999999999999
20
-1.2499999999999996
30
30.826545088870187
11
-36.96410161513774
21
0.25000000000000006
31
32.82654508887019
12
-37.49999999999999
22
0.25000000000000006
32
30.826545088870187
13
-37.49999999999999
23
0.25000000000000006
33
30.826545088870187
70
1
  0
3DFACE
 8
fin_edge_half
10
-35.5
20
0.25000000000000006
30
34.29064670400795
11
-36.96410161513774
21
-1.2499999999999996
31
32.82654508887019
12
-35.5
22
-1.2499999999999996
32
34.29064670400795
13
-35.5
23
-1.2499999999999996
33
34.29064670400795
70
1
  0
3DFACE
 8
fin_edge_half
10
-36.96410161513774
20
-1.2499999999999996
30
32.82654508887019
11
-35.5
21
0.25000000000000006
31
34.29064670400795
12
-36.96410161513774
22
0.25000000000000006
32
32.82654508887019
13
-36.96410161513774
23
0.25000000000000006
33
32.82654508887019
70
1
  0
3DFACE
 8
fin_edge_half
10
-33.49999999999999
20
-1.2499999999999996
30
34.82654508887018
11
-35.5
21
0.25000000000000006
31
34.29064670400795
12
-35.5
22
-1.2499999999999996
32
34.29064670400795
13
-35.5
23
-1.2499999999999996
33
34.29064670400795
70
1
  0
3DFACE
 8
fin_edge_half
10
-35.5
20
0.25000000000000006
30
34.29064670400795
11
-33.49999999999999
21
-1.2499999999999996
31
34.82654508887018
12
-33.49999999999999
22
0.25000000000000006
32
34.82654508887018
13
-33.49999999999999
23
0.25000000000000006
33
34.82654508887018
70
1
 0
ENDSEC
 0
EOF
