 0
SECTION
 2
ENTITIES
  0
LINE
 8
BLOCK_2
10
888.01171875
20
7122.0
30
0.0
11
888.01171875
21
6391.998046875
31
0.0
  0
LINE
 8
BLOCK_2
10
888.01171875
20
6391.998046875
30
0.0
11
682.013671875
21
6349.998046875
31
0.0
  0
LINE
 8
BLOCK_2
10
682.013671875
20
6349.998046875
30
0.0
11
428.015625
21
6249.99609375
31
0.0
  0
LINE
 8
BLOCK_2
10
888.01171875
20
6391.998046875
30
0.0
11
1488.01171875
21
6349.998046875
31
0.0
  0
LINE
 8
BLOCK_2
10
1488.01171875
20
6349.998046875
30
0.0
11
1488.01171875
21
7122.0
31
0.0
  0
LINE
 8
BLOCK_2
10
2078.015625
20
7122.0
30
0.0
11
2078.015625
21
6349.998046875
31
0.0
  0
LINE
 8
BLOCK_2
10
2078.015625
20
6349.998046875
30
0.0
11
2188.013671875
21
6477.99609375
31
0.0
  0
LINE
 8
BLOCK_2
10
2188.013671875
20
6477.99609375
30
0.0
11
2176.013671875
21
6499.998046875
31
0.0
  0
LINE
 8
BLOCK_2
10
2176.013671875
20
6499.998046875
30
0.0
11
2264.015625
21
6589.998046875
31
0.0
  0
LINE
 8
BLOCK_2
10
2264.015625
20
6589.998046875
30
0.0
11
2448.01171875
21
6633.99609375
31
0.0
  0
LINE
 8
BLOCK_2
10
2448.01171875
20
6633.99609375
30
0.0
11
2508.01171875
21
6633.99609375
31
0.0
  0
LINE
 8
BLOCK_2
10
2508.01171875
20
6633.99609375
30
0.0
11
2624.015625
21
6673.998046875
31
0.0
  0
LINE
 8
BLOCK_2
10
2624.015625
20
6673.998046875
30
0.0
11
2676.01171875
21
6673.998046875
31
0.0
  0
LINE
 8
BLOCK_2
10
2676.01171875
20
6673.998046875
30
0.0
11
2676.01171875
21
7122.0
31
0.0
  0
LINE
 8
BLOCK_2
10
3266.015625
20
7122.0
30
0.0
11
3266.015625
21
6753.99609375
31
0.0
  0
LINE
 8
BLOCK_2
10
3266.015625
20
6753.99609375
30
0.0
11
3092.015625
21
6753.99609375
31
0.0
  0
LINE
 8
BLOCK_2
10
3092.015625
20
6753.99609375
30
0.0
11
3092.015625
21
6465.99609375
31
0.0
  0
LINE
 8
BLOCK_2
10
3092.015625
20
6465.99609375
30
0.0
11
3370.013671875
21
6432.0
31
0.0
  0
LINE
 8
BLOCK_2
10
3370.013671875
20
6432.0
30
0.0
11
3424.013671875
21
6414.0
31
0.0
  0
LINE
 8
BLOCK_2
10
3424.013671875
20
6414.0
30
0.0
11
3550.013671875
21
6318.0
31
0.0
  0
LINE
 8
BLOCK_2
10
3550.013671875
20
6318.0
30
0.0
11
3592.013671875
21
6318.0
31
0.0
  0
LINE
 8
BLOCK_2
10
3592.013671875
20
6318.0
30
0.0
11
3612.01171875
21
6297.99609375
31
0.0
  0
LINE
 8
BLOCK_2
10
3612.01171875
20
6297.99609375
30
0.0
11
3612.01171875
21
6210.0
31
0.0
  0
LINE
 8
BLOCK_2
10
3612.01171875
20
6210.0
30
0.0
11
3092.015625
21
6210.0
31
0.0
  0
LINE
 8
BLOCK_2
10
3092.015625
20
6210.0
30
0.0
11
3092.015625
21
5934.0
31
0.0
  0
LINE
 8
BLOCK_2
10
3092.015625
20
5934.0
30
0.0
11
2772.01171875
21
5934.0
31
0.0
  0
LINE
 8
BLOCK_2
10
2772.01171875
20
5934.0
30
0.0
11
2772.01171875
21
5502.0
31
0.0
  0
LINE
 8
BLOCK_2
10
2772.01171875
20
5502.0
30
0.0
11
3010.013671875
21
5502.0
31
0.0
  0
LINE
 8
BLOCK_2
10
3866.009765625
20
6849.99609375
30
0.0
11
3866.009765625
21
7122.0
31
0.0
  0
LINE
 8
BLOCK_2
10
3866.009765625
20
6849.99609375
30
0.0
11
3764.009765625
21
6849.99609375
31
0.0
  0
LINE
 8
BLOCK_2
10
3764.009765625
20
6849.99609375
30
0.0
11
3764.009765625
21
6183.99609375
31
0.0
  0
LINE
 8
BLOCK_2
10
3764.009765625
20
6183.99609375
30
0.0
11
3718.013671875
21
6168.0
31
0.0
  0
LINE
 8
BLOCK_2
10
3718.013671875
20
6168.0
30
0.0
11
3702.01171875
21
6126.0
31
0.0
  0
LINE
 8
BLOCK_2
10
3702.01171875
20
6126.0
30
0.0
11
3666.01171875
21
6081.99609375
31
0.0
  0
LINE
 8
BLOCK_2
10
3666.01171875
20
6081.99609375
30
0.0
11
3666.01171875
21
6060.0
31
0.0
  0
LINE
 8
BLOCK_2
10
3666.01171875
20
6060.0
30
0.0
11
3710.015625
21
6027.99609375
31
0.0
  0
LINE
 8
BLOCK_2
10
3710.015625
20
6027.99609375
30
0.0
11
3764.009765625
21
6006.0
31
0.0
  0
LINE
 8
BLOCK_2
10
3764.009765625
20
6006.0
30
0.0
11
3764.009765625
21
5751.99609375
31
0.0
  0
LINE
 8
BLOCK_2
10
3764.009765625
20
5751.99609375
30
0.0
11
3666.01171875
21
5773.998046875
31
0.0
  0
LINE
 8
BLOCK_2
10
3666.01171875
20
5773.998046875
30
0.0
11
3612.01171875
21
5809.998046875
31
0.0
  0
LINE
 8
BLOCK_2
10
3612.01171875
20
5809.998046875
30
0.0
11
3580.013671875
21
5791.998046875
31
0.0
  0
LINE
 8
BLOCK_2
10
4456.0078125
20
7122.0
30
0.0
11
4456.0078125
21
6849.99609375
31
0.0
  0
LINE
 8
BLOCK_2
10
4456.0078125
20
6849.99609375
30
0.0
11
4618.0078125
21
6849.99609375
31
0.0
  0
LINE
 8
BLOCK_2
10
4618.0078125
20
6849.99609375
30
0.0
11
4766.015625
21
6816.0
31
0.0
  0
LINE
 8
BLOCK_2
10
1542.01171875
20
6321.99609375
30
0.0
11
1542.01171875
21
5941.998046875
31
0.0
  0
LINE
 8
BLOCK_2
10
1558.013671875
20
5941.998046875
30
0.0
11
1630.013671875
21
5952.0
31
0.0
  0
LINE
 8
BLOCK_2
10
1630.013671875
20
5952.0
30
0.0
11
1686.01171875
21
5895.99609375
31
0.0
  0
LINE
 8
BLOCK_2
10
1686.01171875
20
5895.99609375
30
0.0
11
1714.013671875
21
5895.99609375
31
0.0
  0
LINE
 8
BLOCK_2
10
1714.013671875
20
5895.99609375
30
0.0
11
1756.013671875
21
5923.998046875
31
0.0
  0
LINE
 8
BLOCK_2
10
1756.013671875
20
5923.998046875
30
0.0
11
1776.01171875
21
5923.998046875
31
0.0
  0
LINE
 8
BLOCK_2
10
1776.01171875
20
5923.998046875
30
0.0
11
1872.01171875
21
5853.99609375
31
0.0
  0
LINE
 8
BLOCK_2
10
1872.01171875
20
5853.99609375
30
0.0
11
1924.013671875
21
5796.0
31
0.0
  0
LINE
 8
BLOCK_2
10
1924.013671875
20
5796.0
30
0.0
11
1992.01171875
21
5773.998046875
31
0.0
  0
LINE
 8
BLOCK_2
10
1992.01171875
20
5773.998046875
30
0.0
11
1992.01171875
21
5736.0
31
0.0
  0
LINE
 8
BLOCK_2
10
1992.01171875
20
5736.0
30
0.0
11
1940.015625
21
5715.99609375
31
0.0
  0
LINE
 8
BLOCK_2
10
1940.015625
20
5715.99609375
30
0.0
11
1872.01171875
21
5715.99609375
31
0.0
  0
LINE
 8
BLOCK_2
10
1872.01171875
20
5715.99609375
30
0.0
11
1850.015625
21
5688.0
31
0.0
  0
LINE
 8
BLOCK_2
10
1850.015625
20
5688.0
30
0.0
11
1898.015625
21
5637.99609375
31
0.0
  0
LINE
 8
BLOCK_2
10
1898.015625
20
5637.99609375
30
0.0
11
2078.015625
21
5539.998046875
31
0.0
  0
LINE
 8
BLOCK_2
10
1542.01171875
20
6321.99609375
30
0.0
11
1630.013671875
21
6321.99609375
31
0.0
  0
LINE
 8
BLOCK_2
10
1630.013671875
20
6321.99609375
30
0.0
11
1686.01171875
21
6291.99609375
31
0.0
  0
LINE
 8
BLOCK_2
10
1686.01171875
20
6291.99609375
30
0.0
11
1735.013671875
21
6291.99609375
31
0.0
  0
LINE
 8
BLOCK_2
10
1735.013671875
20
6291.99609375
30
0.0
11
1735.013671875
21
6211.998046875
31
0.0
  0
LINE
 8
BLOCK_2
10
1735.013671875
20
6211.998046875
30
0.0
11
1824.01171875
21
6211.998046875
31
0.0
  0
LINE
 8
BLOCK_2
10
1824.01171875
20
6211.998046875
30
0.0
11
1850.015625
21
6171.99609375
31
0.0
  0
LINE
 8
BLOCK_2
10
1850.015625
20
6171.99609375
30
0.0
11
1890.01171875
21
6171.99609375
31
0.0
  0
LINE
 8
BLOCK_2
10
1890.01171875
20
6171.99609375
30
0.0
11
1890.01171875
21
6132.0
31
0.0
  0
LINE
 8
BLOCK_2
10
1890.01171875
20
6132.0
30
0.0
11
1924.013671875
21
6109.998046875
31
0.0
  0
LINE
 8
BLOCK_2
10
1924.013671875
20
6109.998046875
30
0.0
11
1958.015625
21
6109.998046875
31
0.0
  0
LINE
 8
BLOCK_2
10
1958.015625
20
6109.998046875
30
0.0
11
2026.013671875
21
6021.99609375
31
0.0
  0
LINE
 8
BLOCK_2
10
2026.013671875
20
6021.99609375
30
0.0
11
2078.015625
21
5991.99609375
31
0.0
  0
LINE
 8
BLOCK_2
10
2078.015625
20
5991.99609375
30
0.0
11
2108.015625
21
5991.99609375
31
0.0
  0
LINE
 8
BLOCK_2
10
2108.015625
20
5991.99609375
30
0.0
11
2108.015625
21
5967.99609375
31
0.0
  0
LINE
 8
BLOCK_2
10
2108.015625
20
5967.99609375
30
0.0
11
2202.01171875
21
5967.99609375
31
0.0
  0
LINE
 8
BLOCK_2
10
2202.01171875
20
5967.99609375
30
0.0
11
2232.01171875
21
5923.998046875
31
0.0
  0
LINE
 8
BLOCK_2
10
2232.01171875
20
5923.998046875
30
0.0
11
2382.01171875
21
5923.998046875
31
0.0
  0
LINE
 8
BLOCK_2
10
2382.01171875
20
5923.998046875
30
0.0
11
2382.01171875
21
5835.99609375
31
0.0
  0
LINE
 8
BLOCK_2
10
2382.01171875
20
5835.99609375
30
0.0
11
2294.015625
21
5811.99609375
31
0.0
  0
LINE
 8
BLOCK_2
10
2294.015625
20
5811.99609375
30
0.0
11
2232.01171875
21
5824.998046875
31
0.0
  0
LINE
 8
BLOCK_2
10
2232.01171875
20
5824.998046875
30
0.0
11
2217.01171875
21
5818.5
31
0.0
  0
LINE
 8
BLOCK_2
10
2217.01171875
20
5818.5
30
0.0
11
2232.01171875
21
5773.998046875
31
0.0
  0
LINE
 8
BLOCK_2
10
2232.01171875
20
5773.998046875
30
0.0
11
2307.01171875
21
5715.99609375
31
0.0
  0
LINE
 8
BLOCK_2
10
2307.01171875
20
5715.99609375
30
0.0
11
2396.015625
21
5701.998046875
31
0.0
  0
LINE
 8
BLOCK_2
10
2396.015625
20
5701.998046875
30
0.0
11
2450.015625
21
5649.99609375
31
0.0
  0
LINE
 8
BLOCK_2
10
2450.015625
20
5649.99609375
30
0.0
11
2440.013671875
21
5613.99609375
31
0.0
  0
LINE
 8
BLOCK_2
10
2440.013671875
20
5613.99609375
30
0.0
11
2520.01171875
21
5568.0
31
0.0
  0
LINE
 8
BLOCK_2
10
2520.01171875
20
5568.0
30
0.0
11
2520.01171875
21
5539.998046875
31
0.0
  0
LINE
 8
BLOCK_2
10
2520.01171875
20
5539.998046875
30
0.0
11
2508.01171875
21
5521.998046875
31
0.0
  0
LINE
 8
BLOCK_2
10
2508.01171875
20
5521.998046875
30
0.0
11
2520.01171875
21
5497.998046875
31
0.0
  0
LINE
 8
BLOCK_2
10
2520.01171875
20
5497.998046875
30
0.0
11
2542.013671875
21
5497.998046875
31
0.0
  0
LINE
 8
BLOCK_2
10
2542.013671875
20
5497.998046875
30
0.0
11
2542.013671875
21
5449.998046875
31
0.0
  0
LINE
 8
BLOCK_2
10
428.015625
20
5539.998046875
30
0.0
11
886.013671875
21
5539.998046875
31
0.0
  0
LINE
 8
BLOCK_2
10
886.013671875
20
5539.998046875
30
0.0
11
886.013671875
21
4609.998046875
31
0.0
  0
LINE
 8
BLOCK_2
10
886.013671875
20
4609.998046875
30
0.0
11
428.015625
21
4609.998046875
31
0.0
  0
LINE
 8
BLOCK_2
10
428.015625
20
4132.001953125
30
0.0
11
494.009765625
21
4132.001953125
31
0.0
  0
LINE
 8
BLOCK_2
10
494.009765625
20
4132.001953125
30
0.0
11
494.009765625
21
3462.0
31
0.0
  0
LINE
 8
BLOCK_2
10
428.015625
20
3462.0
30
0.0
11
494.009765625
21
3462.0
31
0.0
  0
LINE
 8
BLOCK_2
10
844.013671875
20
3462.0
30
0.0
11
844.013671875
21
3606.0
31
0.0
  0
LINE
 8
BLOCK_2
10
844.013671875
20
3606.0
30
0.0
11
756.01171875
21
3606.0
31
0.0
  0
LINE
 8
BLOCK_2
10
756.01171875
20
3606.0
30
0.0
11
756.01171875
21
3676.001953125
31
0.0
  0
LINE
 8
BLOCK_2
10
756.01171875
20
3676.001953125
30
0.0
11
1006.013671875
21
3676.001953125
31
0.0
  0
LINE
 8
BLOCK_2
10
1006.013671875
20
3676.001953125
30
0.0
11
1212.01171875
21
3211.998046875
31
0.0
  0
LINE
 8
BLOCK_2
10
1212.01171875
20
3211.998046875
30
0.0
11
1212.01171875
21
3145.998046875
31
0.0
  0
LINE
 8
BLOCK_2
10
1212.01171875
20
3145.998046875
30
0.0
11
1006.013671875
21
3145.998046875
31
0.0
  0
LINE
 8
BLOCK_2
10
1006.013671875
20
3145.998046875
30
0.0
11
1006.013671875
21
3232.001953125
31
0.0
  0
LINE
 8
BLOCK_2
10
1006.013671875
20
3232.001953125
30
0.0
11
546.01171875
21
3232.001953125
31
0.0
  0
LINE
 8
BLOCK_2
10
546.01171875
20
3232.001953125
30
0.0
11
546.01171875
21
3108.0
31
0.0
  0
LINE
 8
BLOCK_2
10
546.01171875
20
3108.0
30
0.0
11
487.013671875
21
3108.0
31
0.0
  0
LINE
 8
BLOCK_2
10
487.013671875
20
3108.0
30
0.0
11
487.013671875
21
2659.998046875
31
0.0
  0
LINE
 8
BLOCK_2
10
487.013671875
20
2659.998046875
30
0.0
11
890.015625
21
2659.998046875
31
0.0
  0
LINE
 8
BLOCK_2
10
890.015625
20
2659.998046875
30
0.0
11
890.015625
21
0.0
31
0.0
  0
LINE
 8
BLOCK_2
10
1476.01171875
20
0.0
30
0.0
11
1476.01171875
21
2619.99609375
31
0.0
  0
LINE
 8
BLOCK_2
10
2076.01171875
20
0.0
30
0.0
11
2076.01171875
21
2532.0
31
0.0
  0
LINE
 8
BLOCK_2
10
2668.013671875
20
0.0
30
0.0
11
2668.013671875
21
4512.0
31
0.0
  0
LINE
 8
BLOCK_2
10
3260.009765625
20
0.0
30
0.0
11
3260.009765625
21
2232.0
31
0.0
  0
LINE
 8
BLOCK_2
10
3260.009765625
20
2232.0
30
0.0
11
2736.01171875
21
2232.0
31
0.0
  0
LINE
 8
BLOCK_2
10
2736.01171875
20
2232.0
30
0.0
11
2736.01171875
21
2688.0
31
0.0
  0
LINE
 8
BLOCK_2
10
2736.01171875
20
2688.0
30
0.0
11
3260.009765625
21
2688.0
31
0.0
  0
LINE
 8
BLOCK_2
10
1916.009765625
20
2659.998046875
30
0.0
11
2336.009765625
21
2659.998046875
31
0.0
  0
LINE
 8
BLOCK_2
10
2336.009765625
20
2659.998046875
30
0.0
11
2336.009765625
21
2532.0
31
0.0
  0
LINE
 8
BLOCK_2
10
2336.009765625
20
2532.0
30
0.0
11
2076.01171875
21
2532.0
31
0.0
  0
LINE
 8
BLOCK_2
10
1916.009765625
20
2532.0
30
0.0
11
1916.009765625
21
2659.998046875
31
0.0
  0
LINE
 8
BLOCK_2
10
3856.013671875
20
0.0
30
0.0
11
3856.013671875
21
4281.99609375
31
0.0
  0
LINE
 8
BLOCK_2
10
4448.015625
20
0.0
30
0.0
11
4448.015625
21
1329.99609375
31
0.0
  0
LINE
 8
BLOCK_2
10
5048.015625
20
0.0
30
0.0
11
5048.015625
21
2251.998046875
31
0.0
  0
LINE
 8
BLOCK_2
10
5644.0078125
20
0.0
30
0.0
11
5644.0078125
21
1387.998046875
31
0.0
  0
LINE
 8
BLOCK_2
10
5644.0078125
20
1387.998046875
30
0.0
11
5348.015625
21
1387.998046875
31
0.0
  0
LINE
 8
BLOCK_2
10
5348.015625
20
1387.998046875
30
0.0
11
5348.015625
21
1491.99609375
31
0.0
  0
LINE
 8
BLOCK_2
10
5348.015625
20
1491.99609375
30
0.0
11
5644.0078125
21
1491.99609375
31
0.0
  0
LINE
 8
BLOCK_2
10
5644.0078125
20
1491.99609375
30
0.0
11
5644.0078125
21
3075.99609375
31
0.0
  0
LINE
 8
BLOCK_2
10
6236.015625
20
0.0
30
0.0
11
6236.015625
21
4086.0
31
0.0
  0
LINE
 8
BLOCK_2
10
6832.01953125
20
0.0
30
0.0
11
6832.01953125
21
1911.99609375
31
0.0
  0
LINE
 8
BLOCK_2
10
6832.01953125
20
1911.99609375
30
0.0
11
6556.01953125
21
1911.99609375
31
0.0
  0
LINE
 8
BLOCK_2
10
6556.01953125
20
1911.99609375
30
0.0
11
6556.01953125
21
2151.99609375
31
0.0
  0
LINE
 8
BLOCK_2
10
6556.01953125
20
2151.99609375
30
0.0
11
6832.01953125
21
2151.99609375
31
0.0
  0
LINE
 8
BLOCK_2
10
6832.01953125
20
2151.99609375
30
0.0
11
6832.01953125
21
3183.99609375
31
0.0
  0
LINE
 8
BLOCK_2
10
6832.01953125
20
3183.99609375
30
0.0
11
6496.01953125
21
3183.99609375
31
0.0
  0
LINE
 8
BLOCK_2
10
6496.01953125
20
3183.99609375
30
0.0
11
6496.01953125
21
3316.5234375
31
0.0
  0
LINE
 8
BLOCK_2
10
6496.01953125
20
3316.5234375
30
0.0
11
6832.01953125
21
3316.5234375
31
0.0
  0
LINE
 8
BLOCK_2
10
6832.01953125
20
3316.5234375
30
0.0
11
6832.01953125
21
3728.00390625
31
0.0
  0
LINE
 8
BLOCK_2
10
7424.015625
20
0.0
30
0.0
11
7424.015625
21
3403.998046875
31
0.0
  0
LINE
 8
BLOCK_2
10
8020.0078125
20
0.0
30
0.0
11
8020.0078125
21
2215.998046875
31
0.0
  0
LINE
 8
BLOCK_2
10
8616.01171875
20
0.0
30
0.0
11
8616.01171875
21
2860.001953125
31
0.0
  0
LINE
 8
BLOCK_2
10
9212.015625
20
0.0
30
0.0
11
9212.015625
21
3973.998046875
31
0.0
  0
LINE
 8
BLOCK_2
10
9808.0078125
20
0.0
30
0.0
11
9808.0078125
21
3862.998046875
31
0.0
  0
LINE
 8
BLOCK_2
10
9920.015625
20
3283.998046875
30
0.0
11
10044.01171875
21
3283.998046875
31
0.0
  0
LINE
 8
BLOCK_2
10
10044.01171875
20
3283.998046875
30
0.0
11
10044.01171875
21
3183.99609375
31
0.0
  0
LINE
 8
BLOCK_2
10
10044.01171875
20
3183.99609375
30
0.0
11
9920.015625
21
3183.99609375
31
0.0
  0
LINE
 8
BLOCK_2
10
9920.015625
20
3183.99609375
30
0.0
11
9920.015625
21
3283.998046875
31
0.0
  0
LINE
 8
BLOCK_2
10
10404.01171875
20
0.0
30
0.0
11
10404.01171875
21
4210.001953125
31
0.0
  0
LINE
 8
BLOCK_2
10
10996.0078125
20
0.0
30
0.0
11
10996.0078125
21
3004.001953125
31
0.0
  0
LINE
 8
BLOCK_2
10
10996.0078125
20
3108.0
30
0.0
11
10848.01171875
21
3108.0
31
0.0
  0
LINE
 8
BLOCK_2
10
10848.01171875
20
3108.0
30
0.0
11
10848.01171875
21
3004.001953125
31
0.0
  0
LINE
 8
BLOCK_2
10
10848.01171875
20
3004.001953125
30
0.0
11
10996.0078125
21
3004.001953125
31
0.0
  0
LINE
 8
BLOCK_2
10
11588.015625
20
0.0
30
0.0
11
11588.015625
21
3183.99609375
31
0.0
  0
LINE
 8
BLOCK_2
10
11588.015625
20
3183.99609375
30
0.0
11
11732.015625
21
3183.99609375
31
0.0
  0
LINE
 8
BLOCK_2
10
11732.015625
20
3183.99609375
30
0.0
11
11732.015625
21
3264.0
31
0.0
  0
LINE
 8
BLOCK_2
10
12188.015625
20
0.0
30
0.0
11
12188.015625
21
2284.001953125
31
0.0
  0
LINE
 8
BLOCK_2
10
12780.01171875
20
0.0
30
0.0
11
12780.01171875
21
2044.001953125
31
0.0
  0
LINE
 8
BLOCK_2
10
13372.0078125
20
0.0
30
0.0
11
13372.0078125
21
3204.0
31
0.0
  0
LINE
 8
BLOCK_2
10
13972.0078125
20
0.0
30
0.0
11
13972.0078125
21
1408.001953125
31
0.0
  0
LINE
 8
BLOCK_2
10
13972.0078125
20
1408.001953125
30
0.0
11
13684.0078125
21
1408.001953125
31
0.0
  0
LINE
 8
BLOCK_2
10
13684.0078125
20
1408.001953125
30
0.0
11
13684.0078125
21
1828.001953125
31
0.0
  0
LINE
 8
BLOCK_2
10
13684.0078125
20
1828.001953125
30
0.0
11
13972.0078125
21
2284.001953125
31
0.0
  0
LINE
 8
BLOCK_2
10
13972.0078125
20
2284.001953125
30
0.0
11
13972.0078125
21
2335.998046875
31
0.0
  0
LINE
 8
BLOCK_2
10
13405.9921875
20
2356.001953125
30
0.0
11
13684.0078125
21
2356.001953125
31
0.0
  0
LINE
 8
BLOCK_2
10
13684.0078125
20
2356.001953125
30
0.0
11
13684.0078125
21
2227.998046875
31
0.0
  0
LINE
 8
BLOCK_2
10
13684.0078125
20
2227.998046875
30
0.0
11
13405.9921875
21
2227.998046875
31
0.0
  0
LINE
 8
BLOCK_2
10
13405.9921875
20
2227.998046875
30
0.0
11
13405.9921875
21
2356.001953125
31
0.0
  0
LINE
 8
BLOCK_2
10
13972.0078125
20
2455.998046875
30
0.0
11
13728.01171875
21
2455.998046875
31
0.0
  0
LINE
 8
BLOCK_2
10
13728.01171875
20
2455.998046875
30
0.0
11
13728.01171875
21
2335.998046875
31
0.0
  0
LINE
 8
BLOCK_2
10
13728.01171875
20
2335.998046875
30
0.0
11
13972.0078125
21
2335.998046875
31
0.0
  0
LINE
 8
BLOCK_2
10
14290.18359375
20
1852.001953125
30
0.0
11
14188.0078125
21
1852.001953125
31
0.0
  0
LINE
 8
BLOCK_2
10
14188.0078125
20
1852.001953125
30
0.0
11
14120.015625
21
1776.0
31
0.0
  0
LINE
 8
BLOCK_2
10
14120.015625
20
1776.0
30
0.0
11
14120.015625
21
1711.998046875
31
0.0
  0
LINE
 8
BLOCK_2
10
14120.015625
20
1711.998046875
30
0.0
11
14290.18359375
21
1711.998046875
31
0.0
  0
LINE
 8
BLOCK_2
10
1476.01171875
20
2619.99609375
30
0.0
11
1708.0078125
21
2619.99609375
31
0.0
  0
LINE
 8
BLOCK_2
10
1708.0078125
20
2619.99609375
30
0.0
11
1816.0078125
21
2712.0
31
0.0
  0
LINE
 8
BLOCK_2
10
1816.0078125
20
2712.0
30
0.0
11
1816.0078125
21
3028.001953125
31
0.0
  0
LINE
 8
BLOCK_2
10
1816.0078125
20
3028.001953125
30
0.0
11
1476.01171875
21
3028.001953125
31
0.0
  0
LINE
 8
BLOCK_2
10
1476.01171875
20
3028.001953125
30
0.0
11
1476.01171875
21
5539.998046875
31
0.0
  0
LINE
 8
BLOCK_2
10
1524.005859375
20
3271.998046875
30
0.0
11
1762.0078125
21
3271.998046875
31
0.0
  0
LINE
 8
BLOCK_2
10
1762.0078125
20
3271.998046875
30
0.0
11
1762.0078125
21
3108.0
31
0.0
  0
LINE
 8
BLOCK_2
10
1762.0078125
20
3108.0
30
0.0
11
1524.005859375
21
3108.0
31
0.0
  0
LINE
 8
BLOCK_2
10
1524.005859375
20
3108.0
30
0.0
11
1524.005859375
21
3271.998046875
31
0.0
  0
LINE
 8
BLOCK_2
10
2076.01171875
20
2665.998046875
30
0.0
11
2076.01171875
21
5539.998046875
31
0.0
  0
LINE
 8
BLOCK_2
10
2542.013671875
20
5449.998046875
30
0.0
11
2596.0078125
21
5407.998046875
31
0.0
  0
LINE
 8
BLOCK_2
10
2596.0078125
20
5407.998046875
30
0.0
11
2596.0078125
21
5356.001953125
31
0.0
  0
LINE
 8
BLOCK_2
10
2596.0078125
20
5356.001953125
30
0.0
11
2514.01171875
21
5356.001953125
31
0.0
  0
LINE
 8
BLOCK_2
10
2514.01171875
20
5356.001953125
30
0.0
11
2480.015625
21
5311.998046875
31
0.0
  0
LINE
 8
BLOCK_2
10
2480.015625
20
5311.998046875
30
0.0
11
2450.015625
21
5311.998046875
31
0.0
  0
LINE
 8
BLOCK_2
10
2450.015625
20
5311.998046875
30
0.0
11
2450.015625
21
5239.998046875
31
0.0
  0
LINE
 8
BLOCK_2
10
2450.015625
20
5239.998046875
30
0.0
11
2508.01171875
21
5239.998046875
31
0.0
  0
LINE
 8
BLOCK_2
10
2508.01171875
20
5239.998046875
30
0.0
11
2620.0078125
21
5220.0
31
0.0
  0
LINE
 8
BLOCK_2
10
2620.0078125
20
5220.0
30
0.0
11
2620.0078125
21
4980.0
31
0.0
  0
LINE
 8
BLOCK_2
10
2620.0078125
20
4980.0
30
0.0
11
2596.0078125
21
4980.0
31
0.0
  0
LINE
 8
BLOCK_2
10
2596.0078125
20
4980.0
30
0.0
11
2608.0078125
21
4908.0
31
0.0
  0
LINE
 8
BLOCK_2
10
2608.0078125
20
4908.0
30
0.0
11
2596.0078125
21
4831.998046875
31
0.0
  0
LINE
 8
BLOCK_2
10
2596.0078125
20
4831.998046875
30
0.0
11
2696.009765625
21
4660.001953125
31
0.0
  0
LINE
 8
BLOCK_2
10
2696.009765625
20
4660.001953125
30
0.0
11
2497.013671875
21
4660.001953125
31
0.0
  0
LINE
 8
BLOCK_2
10
2497.013671875
20
4660.001953125
30
0.0
11
2497.013671875
21
4512.0
31
0.0
  0
LINE
 8
BLOCK_2
10
2497.013671875
20
4512.0
30
0.0
11
2668.013671875
21
4512.0
31
0.0
  0
LINE
 8
BLOCK_2
10
2078.015625
20
6349.998046875
30
0.0
11
1898.015625
21
6321.99609375
31
0.0
  0
LINE
 8
BLOCK_2
10
1898.015625
20
6321.99609375
30
0.0
11
1800.005859375
21
6307.998046875
31
0.0
  0
LINE
 8
BLOCK_2
10
1800.005859375
20
6307.998046875
30
0.0
11
1735.013671875
21
6291.99609375
31
0.0
  0
LINE
 8
BLOCK_2
10
3010.013671875
20
5502.0
30
0.0
11
3010.013671875
21
5461.998046875
31
0.0
  0
LINE
 8
BLOCK_2
10
3010.013671875
20
5461.998046875
30
0.0
11
3026.015625
21
5449.998046875
31
0.0
  0
LINE
 8
BLOCK_2
10
3026.015625
20
5449.998046875
30
0.0
11
3120.01171875
21
5449.998046875
31
0.0
  0
LINE
 8
BLOCK_2
10
3120.01171875
20
5449.998046875
30
0.0
11
3154.013671875
21
5407.998046875
31
0.0
  0
LINE
 8
BLOCK_2
10
3154.013671875
20
5407.998046875
30
0.0
11
3166.013671875
21
5334.0
31
0.0
  0
LINE
 8
BLOCK_2
10
3166.013671875
20
5334.0
30
0.0
11
3154.013671875
21
5287.998046875
31
0.0
  0
LINE
 8
BLOCK_2
10
3154.013671875
20
5287.998046875
30
0.0
11
3166.013671875
21
5257.998046875
31
0.0
  0
LINE
 8
BLOCK_2
10
3166.013671875
20
5257.998046875
30
0.0
11
3120.01171875
21
5203.998046875
31
0.0
  0
LINE
 8
BLOCK_2
10
3120.01171875
20
5203.998046875
30
0.0
11
3120.01171875
21
5143.998046875
31
0.0
  0
LINE
 8
BLOCK_2
10
3120.01171875
20
5143.998046875
30
0.0
11
3084.01171875
21
5143.998046875
31
0.0
  0
LINE
 8
BLOCK_2
10
3084.01171875
20
5143.998046875
30
0.0
11
3084.01171875
21
5124.0
31
0.0
  0
LINE
 8
BLOCK_2
10
3084.01171875
20
5124.0
30
0.0
11
3120.01171875
21
5124.0
31
0.0
  0
LINE
 8
BLOCK_2
10
3120.01171875
20
5124.0
30
0.0
11
3120.01171875
21
5052.0
31
0.0
  0
LINE
 8
BLOCK_2
10
3120.01171875
20
5052.0
30
0.0
11
3084.01171875
21
5052.0
31
0.0
  0
LINE
 8
BLOCK_2
10
3084.01171875
20
5052.0
30
0.0
11
3084.01171875
21
5023.998046875
31
0.0
  0
LINE
 8
BLOCK_2
10
3084.01171875
20
5023.998046875
30
0.0
11
3056.015625
21
5023.998046875
31
0.0
  0
LINE
 8
BLOCK_2
10
3056.015625
20
5023.998046875
30
0.0
11
3056.015625
21
4831.998046875
31
0.0
  0
LINE
 8
BLOCK_2
10
3056.015625
20
4831.998046875
30
0.0
11
2974.013671875
21
4831.998046875
31
0.0
  0
LINE
 8
BLOCK_2
10
2974.013671875
20
4831.998046875
30
0.0
11
2974.013671875
21
4767.99609375
31
0.0
  0
LINE
 8
BLOCK_2
10
2974.013671875
20
4767.99609375
30
0.0
11
2916.01171875
21
4812.0
31
0.0
  0
LINE
 8
BLOCK_2
10
2916.01171875
20
4812.0
30
0.0
11
2848.013671875
21
4812.0
31
0.0
  0
LINE
 8
BLOCK_2
10
2848.013671875
20
4812.0
30
0.0
11
2848.013671875
21
4800.0
31
0.0
  0
LINE
 8
BLOCK_2
10
2848.013671875
20
4800.0
30
0.0
11
2822.015625
21
4800.0
31
0.0
  0
LINE
 8
BLOCK_2
10
2822.015625
20
4800.0
30
0.0
11
2835.01171875
21
4746.0
31
0.0
  0
LINE
 8
BLOCK_2
10
2835.01171875
20
4746.0
30
0.0
11
2835.01171875
21
4680.0
31
0.0
  0
LINE
 8
BLOCK_2
10
2835.01171875
20
4680.0
30
0.0
11
2810.015625
21
4680.0
31
0.0
  0
LINE
 8
BLOCK_2
10
2810.015625
20
4680.0
30
0.0
11
2835.01171875
21
4626.0
31
0.0
  0
LINE
 8
BLOCK_2
10
2835.01171875
20
4626.0
30
0.0
11
2872.013671875
21
4626.0
31
0.0
  0
LINE
 8
BLOCK_2
10
2872.013671875
20
4626.0
30
0.0
11
2900.015625
21
4537.998046875
31
0.0
  0
LINE
 8
BLOCK_2
10
2900.015625
20
4537.998046875
30
0.0
11
2945.015625
21
4512.0
31
0.0
  0
LINE
 8
BLOCK_2
10
2945.015625
20
4512.0
30
0.0
11
2945.015625
21
4482.0
31
0.0
  0
LINE
 8
BLOCK_2
10
2945.015625
20
4482.0
30
0.0
11
3010.013671875
21
4443.99609375
31
0.0
  0
LINE
 8
BLOCK_2
10
3010.013671875
20
4443.99609375
30
0.0
11
3015.01171875
21
4395.99609375
31
0.0
  0
LINE
 8
BLOCK_2
10
3015.01171875
20
4395.99609375
30
0.0
11
2996.015625
21
4375.998046875
31
0.0
  0
LINE
 8
BLOCK_2
10
2996.015625
20
4375.998046875
30
0.0
11
2974.013671875
21
4395.99609375
31
0.0
  0
LINE
 8
BLOCK_2
10
2974.013671875
20
4395.99609375
30
0.0
11
2945.015625
21
4356.0
31
0.0
  0
LINE
 8
BLOCK_2
10
2945.015625
20
4356.0
30
0.0
11
2985.01171875
21
4311.99609375
31
0.0
  0
LINE
 8
BLOCK_2
10
2974.013671875
20
4311.99609375
30
0.0
11
3026.015625
21
4299.99609375
31
0.0
  0
LINE
 8
BLOCK_2
10
3026.015625
20
4299.99609375
30
0.0
11
3092.015625
21
4263.99609375
31
0.0
  0
LINE
 8
BLOCK_2
10
3092.015625
20
4263.99609375
30
0.0
11
3176.015625
21
4231.998046875
31
0.0
  0
LINE
 8
BLOCK_2
10
3176.015625
20
4231.998046875
30
0.0
11
3218.015625
21
4207.998046875
31
0.0
  0
LINE
 8
BLOCK_2
10
3218.015625
20
4207.998046875
30
0.0
11
3260.009765625
21
4188.0
31
0.0
  0
LINE
 8
BLOCK_2
10
3260.009765625
20
4188.0
30
0.0
11
3260.009765625
21
2688.0
31
0.0
  0
LINE
 8
BLOCK_2
10
3580.013671875
20
5791.998046875
30
0.0
11
3580.013671875
21
5449.998046875
31
0.0
  0
LINE
 8
BLOCK_2
10
3580.013671875
20
5449.998046875
30
0.0
11
3552.01171875
21
5407.998046875
31
0.0
  0
LINE
 8
BLOCK_2
10
3552.01171875
20
5407.998046875
30
0.0
11
3566.015625
21
5382.0
31
0.0
  0
LINE
 8
BLOCK_2
10
3566.015625
20
5382.0
30
0.0
11
3622.013671875
21
5382.0
31
0.0
  0
LINE
 8
BLOCK_2
10
3622.013671875
20
5382.0
30
0.0
11
3650.009765625
21
5370.99609375
31
0.0
  0
LINE
 8
BLOCK_2
10
3650.009765625
20
5370.99609375
30
0.0
11
3666.01171875
21
5334.0
31
0.0
  0
LINE
 8
BLOCK_2
10
3666.01171875
20
5334.0
30
0.0
11
3715.0078125
21
5356.001953125
31
0.0
  0
LINE
 8
BLOCK_2
10
3715.0078125
20
5356.001953125
30
0.0
11
3715.0078125
21
5345.00390625
31
0.0
  0
LINE
 8
BLOCK_2
10
3715.0078125
20
5345.00390625
30
0.0
11
3690.509765625
21
5310.99609375
31
0.0
  0
LINE
 8
BLOCK_2
10
3690.509765625
20
5310.99609375
30
0.0
11
3690.509765625
21
5220.0
31
0.0
  0
LINE
 8
BLOCK_2
10
3690.509765625
20
5220.0
30
0.0
11
3715.0078125
21
5203.998046875
31
0.0
  0
LINE
 8
BLOCK_2
10
3715.0078125
20
5203.998046875
30
0.0
11
3690.509765625
21
5161.998046875
31
0.0
  0
LINE
 8
BLOCK_2
10
3690.509765625
20
5161.998046875
30
0.0
11
3666.01171875
21
5161.998046875
31
0.0
  0
LINE
 8
BLOCK_2
10
3666.01171875
20
5161.998046875
30
0.0
11
3666.01171875
21
5077.998046875
31
0.0
  0
LINE
 8
BLOCK_2
10
3666.01171875
20
5077.998046875
30
0.0
11
3728.009765625
21
5037.99609375
31
0.0
  0
LINE
 8
BLOCK_2
10
3728.009765625
20
5037.99609375
30
0.0
11
3780.01171875
21
5023.998046875
31
0.0
  0
LINE
 8
BLOCK_2
10
3780.01171875
20
5023.998046875
30
0.0
11
3780.01171875
21
4980.0
31
0.0
  0
LINE
 8
BLOCK_2
10
3780.01171875
20
4980.0
30
0.0
11
3746.009765625
21
4927.998046875
31
0.0
  0
LINE
 8
BLOCK_2
10
3746.009765625
20
4927.998046875
30
0.0
11
3780.01171875
21
4831.998046875
31
0.0
  0
LINE
 8
BLOCK_2
10
3780.01171875
20
4831.998046875
30
0.0
11
3780.01171875
21
4734.0
31
0.0
  0
LINE
 8
BLOCK_2
10
3780.01171875
20
4734.0
30
0.0
11
3822.01171875
21
4746.0
31
0.0
  0
LINE
 8
BLOCK_2
10
3822.01171875
20
4746.0
30
0.0
11
3856.013671875
21
4698.0
31
0.0
  0
LINE
 8
BLOCK_2
10
3856.013671875
20
4698.0
30
0.0
11
3856.013671875
21
4512.0
31
0.0
  0
LINE
 8
BLOCK_2
10
3856.013671875
20
4512.0
30
0.0
11
3728.009765625
21
4512.0
31
0.0
  0
LINE
 8
BLOCK_2
10
3728.009765625
20
4512.0
30
0.0
11
3728.009765625
21
4281.99609375
31
0.0
  0
LINE
 8
BLOCK_2
10
3728.009765625
20
4281.99609375
30
0.0
11
3856.013671875
21
4281.99609375
31
0.0
  0
LINE
 8
BLOCK_2
10
4766.015625
20
6816.0
30
0.0
11
4700.015625
21
6798.0
31
0.0
  0
LINE
 8
BLOCK_2
10
4700.015625
20
6798.0
30
0.0
11
4700.015625
21
6771.99609375
31
0.0
  0
LINE
 8
BLOCK_2
10
4700.015625
20
6771.99609375
30
0.0
11
4680.01171875
21
6771.99609375
31
0.0
  0
LINE
 8
BLOCK_2
10
4680.01171875
20
6771.99609375
30
0.0
11
4606.01953125
21
6771.99609375
31
0.0
  0
LINE
 8
BLOCK_2
10
4606.01953125
20
6771.99609375
30
0.0
11
4456.0078125
21
6753.99609375
31
0.0
  0
LINE
 8
BLOCK_2
10
4456.0078125
20
6753.99609375
30
0.0
11
4456.0078125
21
6729.99609375
31
0.0
  0
LINE
 8
BLOCK_2
10
4456.0078125
20
6729.99609375
30
0.0
11
4556.015625
21
6729.99609375
31
0.0
  0
LINE
 8
BLOCK_2
10
4556.015625
20
6729.99609375
30
0.0
11
4556.015625
21
6705.99609375
31
0.0
  0
LINE
 8
BLOCK_2
10
4556.015625
20
6705.99609375
30
0.0
11
4456.0078125
21
6693.99609375
31
0.0
  0
LINE
 8
BLOCK_2
10
4456.0078125
20
6693.99609375
30
0.0
11
4262.015625
21
6673.998046875
31
0.0
  0
LINE
 8
BLOCK_2
10
4262.015625
20
6673.998046875
30
0.0
11
4262.015625
21
6621.99609375
31
0.0
  0
LINE
 8
BLOCK_2
10
4262.015625
20
6621.99609375
30
0.0
11
4436.015625
21
6567.99609375
31
0.0
  0
LINE
 8
BLOCK_2
10
4436.015625
20
6567.99609375
30
0.0
11
4436.015625
21
6351.99609375
31
0.0
  0
LINE
 8
BLOCK_2
10
4436.015625
20
6351.99609375
30
0.0
11
4506.01171875
21
6297.99609375
31
0.0
  0
LINE
 8
BLOCK_2
10
4506.01171875
20
6297.99609375
30
0.0
11
4506.01171875
21
6273.99609375
31
0.0
  0
LINE
 8
BLOCK_2
10
4506.01171875
20
6273.99609375
30
0.0
11
4618.0078125
21
6253.998046875
31
0.0
  0
LINE
 8
BLOCK_2
10
4618.0078125
20
6253.998046875
30
0.0
11
4680.01171875
21
6223.998046875
31
0.0
  0
LINE
 8
BLOCK_2
10
4680.01171875
20
6223.998046875
30
0.0
11
4718.015625
21
6210.0
31
0.0
  0
LINE
 8
BLOCK_2
10
4718.015625
20
6210.0
30
0.0
11
4718.015625
21
6183.99609375
31
0.0
  0
LINE
 8
BLOCK_2
10
4718.015625
20
6183.99609375
30
0.0
11
4658.015625
21
6147.0
31
0.0
  0
LINE
 8
BLOCK_2
10
4658.015625
20
6147.0
30
0.0
11
4618.0078125
21
6117.99609375
31
0.0
  0
LINE
 8
BLOCK_2
10
4618.0078125
20
6117.99609375
30
0.0
11
4606.01953125
21
6043.998046875
31
0.0
  0
LINE
 8
BLOCK_2
10
4606.01953125
20
6043.998046875
30
0.0
11
4574.015625
21
5989.998046875
31
0.0
  0
LINE
 8
BLOCK_2
10
4574.015625
20
5989.998046875
30
0.0
11
4590.01171875
21
5934.0
31
0.0
  0
LINE
 8
BLOCK_2
10
4590.01171875
20
5934.0
30
0.0
11
4562.00390625
21
5934.0
31
0.0
  0
LINE
 8
BLOCK_2
10
4574.015625
20
5943.99609375
30
0.0
11
4582.01953125
21
5892.0
31
0.0
  0
LINE
 8
BLOCK_2
10
4582.01953125
20
5892.0
30
0.0
11
4606.01953125
21
5878.998046875
31
0.0
  0
LINE
 8
BLOCK_2
10
4606.01953125
20
5878.998046875
30
0.0
11
4590.01171875
21
5857.998046875
31
0.0
  0
LINE
 8
BLOCK_2
10
4590.01171875
20
5857.998046875
30
0.0
11
4612.01953125
21
5838.0
31
0.0
  0
LINE
 8
BLOCK_2
10
4612.01953125
20
5838.0
30
0.0
11
4582.01953125
21
5791.998046875
31
0.0
  0
LINE
 8
BLOCK_2
10
4582.01953125
20
5791.998046875
30
0.0
11
4597.01953125
21
5773.998046875
31
0.0
  0
LINE
 8
BLOCK_2
10
4597.01953125
20
5773.998046875
30
0.0
11
4638.01171875
21
5751.99609375
31
0.0
  0
LINE
 8
BLOCK_2
10
4638.01171875
20
5751.99609375
30
0.0
11
4612.01953125
21
5718.0
31
0.0
  0
LINE
 8
BLOCK_2
10
4612.01953125
20
5718.0
30
0.0
11
4537.0078125
21
5734.998046875
31
0.0
  0
LINE
 8
BLOCK_2
10
4537.0078125
20
5734.998046875
30
0.0
11
4492.01953125
21
5751.99609375
31
0.0
  0
LINE
 8
BLOCK_2
10
4492.01953125
20
5751.99609375
30
0.0
11
4456.0078125
21
5697.99609375
31
0.0
  0
LINE
 8
BLOCK_2
10
4456.0078125
20
5697.99609375
30
0.0
11
4492.01953125
21
5667.99609375
31
0.0
  0
LINE
 8
BLOCK_2
10
4492.01953125
20
5667.99609375
30
0.0
11
4492.01953125
21
5641.998046875
31
0.0
  0
LINE
 8
BLOCK_2
10
4492.01953125
20
5641.998046875
30
0.0
11
4514.51953125
21
5655.0
31
0.0
  0
LINE
 8
BLOCK_2
10
4514.51953125
20
5655.0
30
0.0
11
4514.51953125
21
5620.998046875
31
0.0
  0
LINE
 8
BLOCK_2
10
4514.51953125
20
5620.998046875
30
0.0
11
4574.015625
21
5620.998046875
31
0.0
  0
LINE
 8
BLOCK_2
10
4574.015625
20
5620.998046875
30
0.0
11
4589.51953125
21
5601.99609375
31
0.0
  0
LINE
 8
BLOCK_2
10
4589.51953125
20
5601.99609375
30
0.0
11
4606.01953125
21
5655.0
31
0.0
  0
LINE
 8
BLOCK_2
10
4606.01953125
20
5655.0
30
0.0
11
4612.01953125
21
5620.998046875
31
0.0
  0
LINE
 8
BLOCK_2
10
4612.01953125
20
5620.998046875
30
0.0
11
4638.01171875
21
5620.998046875
31
0.0
  0
LINE
 8
BLOCK_2
10
4638.01171875
20
5620.998046875
30
0.0
11
4638.01171875
21
5473.998046875
31
0.0
  0
LINE
 8
BLOCK_2
10
4638.01171875
20
5473.998046875
30
0.0
11
4582.01953125
21
5473.998046875
31
0.0
  0
LINE
 8
BLOCK_2
10
4788.01171875
20
5428.998046875
30
0.0
11
4782.01171875
21
5490.0
31
0.0
  0
LINE
 8
BLOCK_2
10
4782.01171875
20
5490.0
30
0.0
11
4812.01171875
21
5502.0
31
0.0
  0
LINE
 8
BLOCK_2
10
4812.01171875
20
5502.0
30
0.0
11
4880.015625
21
5586.0
31
0.0
  0
LINE
 8
BLOCK_2
10
4880.015625
20
5586.0
30
0.0
11
4880.015625
21
5667.99609375
31
0.0
  0
LINE
 8
BLOCK_2
10
4880.015625
20
5667.99609375
30
0.0
11
4926.01171875
21
5667.99609375
31
0.0
  0
LINE
 8
BLOCK_2
10
4926.01171875
20
5667.99609375
30
0.0
11
4946.015625
21
5611.5
31
0.0
  0
LINE
 8
BLOCK_2
10
4946.015625
20
5611.5
30
0.0
11
4946.015625
21
5521.998046875
31
0.0
  0
LINE
 8
BLOCK_2
10
4946.015625
20
5521.998046875
30
0.0
11
5008.01953125
21
5521.998046875
31
0.0
  0
LINE
 8
BLOCK_2
10
5008.01953125
20
5521.998046875
30
0.0
11
5058.01171875
21
5449.998046875
31
0.0
  0
LINE
 8
BLOCK_2
10
5058.01171875
20
5449.998046875
30
0.0
11
5042.015625
21
5394.99609375
31
0.0
  0
LINE
 8
BLOCK_2
10
5042.015625
20
5394.99609375
30
0.0
11
4977.01171875
21
5407.998046875
31
0.0
  0
LINE
 8
BLOCK_2
10
4977.01171875
20
5407.998046875
30
0.0
11
4977.01171875
21
5428.998046875
31
0.0
  0
LINE
 8
BLOCK_2
10
4977.01171875
20
5428.998046875
30
0.0
11
4954.01953125
21
5428.998046875
31
0.0
  0
LINE
 8
BLOCK_2
10
4954.01953125
20
5428.998046875
30
0.0
11
4916.015625
21
5394.99609375
31
0.0
  0
LINE
 8
BLOCK_2
10
4916.015625
20
5394.99609375
30
0.0
11
4890.01171875
21
5394.99609375
31
0.0
  0
LINE
 8
BLOCK_2
10
4890.01171875
20
5394.99609375
30
0.0
11
4880.015625
21
5449.998046875
31
0.0
  0
LINE
 8
BLOCK_2
10
4880.015625
20
5449.998046875
30
0.0
11
4836.01171875
21
5449.998046875
31
0.0
  0
LINE
 8
BLOCK_2
10
4836.01171875
20
5449.998046875
30
0.0
11
4788.01171875
21
5428.998046875
31
0.0
  0
LINE
 8
BLOCK_2
10
4582.01953125
20
5473.998046875
30
0.0
11
4444.01953125
21
5459.49609375
31
0.0
  0
LINE
 8
BLOCK_2
10
4444.01953125
20
5459.49609375
30
0.0
11
4406.015625
21
5428.998046875
31
0.0
  0
LINE
 8
BLOCK_2
10
4406.015625
20
5428.998046875
30
0.0
11
4456.0078125
21
5418.498046875
31
0.0
  0
LINE
 8
BLOCK_2
10
4456.0078125
20
5418.498046875
30
0.0
11
4456.0078125
21
5370.99609375
31
0.0
  0
LINE
 8
BLOCK_2
10
4456.0078125
20
5370.99609375
30
0.0
11
4506.01171875
21
5334.0
31
0.0
  0
LINE
 8
BLOCK_2
10
4506.01171875
20
5334.0
30
0.0
11
4456.0078125
21
5310.99609375
31
0.0
  0
LINE
 8
BLOCK_2
10
4456.0078125
20
5310.99609375
30
0.0
11
4456.0078125
21
4356.0
31
0.0
  0
LINE
 8
BLOCK_2
10
4456.0078125
20
4356.0
30
0.0
11
4290.01171875
21
4356.0
31
0.0
  0
LINE
 8
BLOCK_2
10
4290.01171875
20
4356.0
30
0.0
11
4290.01171875
21
4053.99609375
31
0.0
  0
LINE
 8
BLOCK_2
10
4290.01171875
20
4053.99609375
30
0.0
11
4318.01953125
21
4053.99609375
31
0.0
  0
LINE
 8
BLOCK_2
10
4318.01953125
20
4053.99609375
30
0.0
11
4318.01953125
21
4026.0
31
0.0
  0
LINE
 8
BLOCK_2
10
4318.01953125
20
4026.0
30
0.0
11
4278.01171875
21
4026.0
31
0.0
  0
LINE
 8
BLOCK_2
10
4278.01171875
20
4026.0
30
0.0
11
4246.01953125
21
3973.998046875
31
0.0
  0
LINE
 8
BLOCK_2
10
4246.01953125
20
3973.998046875
30
0.0
11
4220.015625
21
3907.998046875
31
0.0
  0
LINE
 8
BLOCK_2
10
4220.015625
20
3907.998046875
30
0.0
11
4262.015625
21
3907.998046875
31
0.0
  0
LINE
 8
BLOCK_2
10
4262.015625
20
3907.998046875
30
0.0
11
4278.01171875
21
3873.99609375
31
0.0
  0
LINE
 8
BLOCK_2
10
4278.01171875
20
3873.99609375
30
0.0
11
4262.015625
21
3852.0
31
0.0
  0
LINE
 8
BLOCK_2
10
4262.015625
20
3852.0
30
0.0
11
4290.01171875
21
3829.998046875
31
0.0
  0
LINE
 8
BLOCK_2
10
4290.01171875
20
3829.998046875
30
0.0
11
4356.01171875
21
3840.99609375
31
0.0
  0
LINE
 8
BLOCK_2
10
4356.01171875
20
3840.99609375
30
0.0
11
4384.01953125
21
3801.99609375
31
0.0
  0
LINE
 8
BLOCK_2
10
4384.01953125
20
3801.99609375
30
0.0
11
4470.01171875
21
3801.99609375
31
0.0
  0
LINE
 8
BLOCK_2
10
4470.01171875
20
3801.99609375
30
0.0
11
4446.01171875
21
3745.998046875
31
0.0
  0
LINE
 8
BLOCK_2
10
4446.01171875
20
3745.998046875
30
0.0
11
4470.01171875
21
3691.998046875
31
0.0
  0
LINE
 8
BLOCK_2
10
4470.01171875
20
3691.998046875
30
0.0
11
4446.01171875
21
3670.001953125
31
0.0
  0
LINE
 8
BLOCK_2
10
4446.01171875
20
3670.001953125
30
0.0
11
4470.01171875
21
3649.998046875
31
0.0
  0
LINE
 8
BLOCK_2
10
4470.01171875
20
3649.998046875
30
0.0
11
4470.01171875
21
3631.998046875
31
0.0
  0
LINE
 8
BLOCK_2
10
4470.01171875
20
3631.998046875
30
0.0
11
4446.01171875
21
3619.998046875
31
0.0
  0
LINE
 8
BLOCK_2
10
4446.01171875
20
3619.998046875
30
0.0
11
4370.015625
21
3631.998046875
31
0.0
  0
LINE
 8
BLOCK_2
10
4370.015625
20
3631.998046875
30
0.0
11
4370.015625
21
3604.001953125
31
0.0
  0
LINE
 8
BLOCK_2
10
4370.015625
20
3604.001953125
30
0.0
11
4398.01171875
21
3595.998046875
31
0.0
  0
LINE
 8
BLOCK_2
10
4398.01171875
20
3595.998046875
30
0.0
11
4398.01171875
21
3580.001953125
31
0.0
  0
LINE
 8
BLOCK_2
10
4398.01171875
20
3580.001953125
30
0.0
11
4356.01171875
21
3580.001953125
31
0.0
  0
LINE
 8
BLOCK_2
10
4356.01171875
20
3580.001953125
30
0.0
11
4356.01171875
21
3544.001953125
31
0.0
  0
LINE
 8
BLOCK_2
10
4356.01171875
20
3544.001953125
30
0.0
11
4398.01171875
21
3508.001953125
31
0.0
  0
LINE
 8
BLOCK_2
10
4398.01171875
20
3508.001953125
30
0.0
11
4356.01171875
21
3385.998046875
31
0.0
  0
LINE
 8
BLOCK_2
10
4356.01171875
20
3385.998046875
30
0.0
11
4276.01953125
21
3373.998046875
31
0.0
  0
LINE
 8
BLOCK_2
10
4276.01953125
20
3373.998046875
30
0.0
11
4246.01953125
21
3348.0
31
0.0
  0
LINE
 8
BLOCK_2
10
4246.01953125
20
3348.0
30
0.0
11
4233.01171875
21
3298.001953125
31
0.0
  0
LINE
 8
BLOCK_2
10
4233.01171875
20
3298.001953125
30
0.0
11
4212.01171875
21
3277.998046875
31
0.0
  0
LINE
 8
BLOCK_2
10
4212.01171875
20
3277.998046875
30
0.0
11
4212.01171875
21
3268.001953125
31
0.0
  0
LINE
 8
BLOCK_2
10
4212.01171875
20
3268.001953125
30
0.0
11
4270.01953125
21
3246.0
31
0.0
  0
LINE
 8
BLOCK_2
10
4270.01953125
20
3246.0
30
0.0
11
4356.01171875
21
3234.0
31
0.0
  0
LINE
 8
BLOCK_2
10
4356.01171875
20
3234.0
30
0.0
11
4500.01171875
21
3162.0
31
0.0
  0
LINE
 8
BLOCK_2
10
4500.01171875
20
3162.0
30
0.0
11
4428.01171875
21
3124.001953125
31
0.0
  0
LINE
 8
BLOCK_2
10
4428.01171875
20
3124.001953125
30
0.0
11
4377.01171875
21
3115.998046875
31
0.0
  0
LINE
 8
BLOCK_2
10
4377.01171875
20
3115.998046875
30
0.0
11
4408.01953125
21
3055.998046875
31
0.0
  0
LINE
 8
BLOCK_2
10
4408.01953125
20
3055.998046875
30
0.0
11
4408.01953125
21
2989.998046875
31
0.0
  0
LINE
 8
BLOCK_2
10
4408.01953125
20
2989.998046875
30
0.0
11
4392.515625
21
2974.001953125
31
0.0
  0
LINE
 8
BLOCK_2
10
4392.515625
20
2974.001953125
30
0.0
11
4384.01953125
21
2929.998046875
31
0.0
  0
LINE
 8
BLOCK_2
10
4384.01953125
20
2929.998046875
30
0.0
11
4408.01953125
21
2910.0
31
0.0
  0
LINE
 8
BLOCK_2
10
4408.01953125
20
2910.0
30
0.0
11
4370.015625
21
2866.001953125
31
0.0
  0
LINE
 8
BLOCK_2
10
4370.015625
20
2866.001953125
30
0.0
11
4370.015625
21
2838.0
31
0.0
  0
LINE
 8
BLOCK_2
10
4370.015625
20
2838.0
30
0.0
11
4356.01171875
21
2827.998046875
31
0.0
  0
LINE
 8
BLOCK_2
10
4356.01171875
20
2827.998046875
30
0.0
11
4363.01953125
21
2754.0
31
0.0
  0
LINE
 8
BLOCK_2
10
4363.01953125
20
2754.0
30
0.0
11
4359.515625
21
2662.001953125
31
0.0
  0
LINE
 8
BLOCK_2
10
4359.515625
20
2662.001953125
30
0.0
11
4336.0078125
21
2574.0
31
0.0
  0
LINE
 8
BLOCK_2
10
4336.0078125
20
2574.0
30
0.0
11
3880.013671875
21
2574.0
31
0.0
  0
LINE
 8
BLOCK_2
10
3880.013671875
20
2574.0
30
0.0
11
3880.013671875
21
2076.0
31
0.0
  0
LINE
 8
BLOCK_2
10
3880.013671875
20
2076.0
30
0.0
11
4222.013671875
21
2076.0
31
0.0
  0
LINE
 8
BLOCK_2
10
4222.013671875
20
2076.0
30
0.0
11
4232.015625
21
2010.0
31
0.0
  0
LINE
 8
BLOCK_2
10
4232.015625
20
2010.0
30
0.0
11
4232.015625
21
1969.998046875
31
0.0
  0
LINE
 8
BLOCK_2
10
4232.015625
20
1969.998046875
30
0.0
11
4202.015625
21
1927.998046875
31
0.0
  0
LINE
 8
BLOCK_2
10
4202.015625
20
1927.998046875
30
0.0
11
4202.015625
21
1899.99609375
31
0.0
  0
LINE
 8
BLOCK_2
10
4202.015625
20
1899.99609375
30
0.0
11
4184.015625
21
1839.99609375
31
0.0
  0
LINE
 8
BLOCK_2
10
4184.015625
20
1839.99609375
30
0.0
11
4162.013671875
21
1839.99609375
31
0.0
  0
LINE
 8
BLOCK_2
10
4162.013671875
20
1839.99609375
30
0.0
11
4162.013671875
21
1731.99609375
31
0.0
  0
LINE
 8
BLOCK_2
10
4162.013671875
20
1731.99609375
30
0.0
11
4142.015625
21
1711.998046875
31
0.0
  0
LINE
 8
BLOCK_2
10
4142.015625
20
1711.998046875
30
0.0
11
4134.01171875
21
1539.99609375
31
0.0
  0
LINE
 8
BLOCK_2
10
4134.01171875
20
1539.99609375
30
0.0
11
4162.013671875
21
1491.99609375
31
0.0
  0
LINE
 8
BLOCK_2
10
4162.013671875
20
1491.99609375
30
0.0
11
4240.01953125
21
1387.998046875
31
0.0
  0
LINE
 8
BLOCK_2
10
4240.01953125
20
1387.998046875
30
0.0
11
4308.01171875
21
1387.998046875
31
0.0
  0
LINE
 8
BLOCK_2
10
4308.01171875
20
1387.998046875
30
0.0
11
4356.01171875
21
1357.998046875
31
0.0
  0
LINE
 8
BLOCK_2
10
4356.01171875
20
1357.998046875
30
0.0
11
4430.015625
21
1345.998046875
31
0.0
  0
LINE
 8
BLOCK_2
10
4430.015625
20
1345.998046875
30
0.0
11
4448.015625
21
1329.99609375
31
0.0
  0
LINE
 8
BLOCK_2
10
4408.01953125
20
1381.998046875
30
0.0
11
4566.01171875
21
1372.998046875
31
0.0
  0
LINE
 8
BLOCK_2
10
4566.01171875
20
1372.998046875
30
0.0
11
4616.015625
21
1396.001953125
31
0.0
  0
LINE
 8
BLOCK_2
10
4616.015625
20
1396.001953125
30
0.0
11
4510.0078125
21
1396.001953125
31
0.0
  0
LINE
 8
BLOCK_2
10
4510.0078125
20
1396.001953125
30
0.0
11
4462.0078125
21
1422.0
31
0.0
  0
LINE
 8
BLOCK_2
10
4462.0078125
20
1422.0
30
0.0
11
4462.0078125
21
1626.0
31
0.0
  0
LINE
 8
BLOCK_2
10
4462.0078125
20
1626.0
30
0.0
11
4542.01171875
21
1660.001953125
31
0.0
  0
LINE
 8
BLOCK_2
10
4542.01171875
20
1660.001953125
30
0.0
11
4542.01171875
21
1690.001953125
31
0.0
  0
LINE
 8
BLOCK_2
10
4542.01171875
20
1690.001953125
30
0.0
11
4486.0078125
21
1690.001953125
31
0.0
  0
LINE
 8
BLOCK_2
10
4486.0078125
20
1690.001953125
30
0.0
11
4462.0078125
21
1711.998046875
31
0.0
  0
LINE
 8
BLOCK_2
10
4462.0078125
20
1711.998046875
30
0.0
11
4462.0078125
21
1747.998046875
31
0.0
  0
LINE
 8
BLOCK_2
10
4462.0078125
20
1747.998046875
30
0.0
11
4542.01171875
21
1785.99609375
31
0.0
  0
LINE
 8
BLOCK_2
10
4542.01171875
20
1785.99609375
30
0.0
11
4554.01171875
21
1839.99609375
31
0.0
  0
LINE
 8
BLOCK_2
10
4554.01171875
20
1839.99609375
30
0.0
11
4616.015625
21
1858.001953125
31
0.0
  0
LINE
 8
BLOCK_2
10
4616.015625
20
1858.001953125
30
0.0
11
4608.01171875
21
1890.0
31
0.0
  0
LINE
 8
BLOCK_2
10
4608.01171875
20
1890.0
30
0.0
11
4563.01171875
21
1890.0
31
0.0
  0
LINE
 8
BLOCK_2
10
4563.01171875
20
1890.0
30
0.0
11
4563.01171875
21
1927.998046875
31
0.0
  0
LINE
 8
BLOCK_2
10
4563.01171875
20
1927.998046875
30
0.0
11
4566.01171875
21
1938.0
31
0.0
  0
LINE
 8
BLOCK_2
10
4566.01171875
20
1938.0
30
0.0
11
4630.0078125
21
1927.998046875
31
0.0
  0
LINE
 8
BLOCK_2
10
4630.0078125
20
1927.998046875
30
0.0
11
4682.015625
21
1938.0
31
0.0
  0
LINE
 8
BLOCK_2
10
4682.015625
20
1938.0
30
0.0
11
4682.015625
21
1969.998046875
31
0.0
  0
LINE
 8
BLOCK_2
10
4682.015625
20
1969.998046875
30
0.0
11
4692.01171875
21
2010.0
31
0.0
  0
LINE
 8
BLOCK_2
10
4692.01171875
20
2010.0
30
0.0
11
4790.015625
21
2026.001953125
31
0.0
  0
LINE
 8
BLOCK_2
10
4790.015625
20
2026.001953125
30
0.0
11
4842.01171875
21
2043.0
31
0.0
  0
LINE
 8
BLOCK_2
10
4842.01171875
20
2043.0
30
0.0
11
4900.0078125
21
2101.998046875
31
0.0
  0
LINE
 8
BLOCK_2
10
4900.0078125
20
2101.998046875
30
0.0
11
4900.0078125
21
2118.0
31
0.0
  0
LINE
 8
BLOCK_2
10
4900.0078125
20
2118.0
30
0.0
11
4871.00390625
21
2118.0
31
0.0
  0
LINE
 8
BLOCK_2
10
4871.00390625
20
2118.0
30
0.0
11
4871.00390625
21
2131.998046875
31
0.0
  0
LINE
 8
BLOCK_2
10
4871.00390625
20
2131.998046875
30
0.0
11
4885.51171875
21
2154.0
31
0.0
  0
LINE
 8
BLOCK_2
10
4885.51171875
20
2154.0
30
0.0
11
4816.01953125
21
2182.001953125
31
0.0
  0
LINE
 8
BLOCK_2
10
4816.01953125
20
2182.001953125
30
0.0
11
4832.015625
21
2202.0
31
0.0
  0
LINE
 8
BLOCK_2
10
4832.015625
20
2202.0
30
0.0
11
4908.01171875
21
2168.00390625
31
0.0
  0
LINE
 8
BLOCK_2
10
4908.01171875
20
2168.00390625
30
0.0
11
4990.0078125
21
2168.00390625
31
0.0
  0
LINE
 8
BLOCK_2
10
4990.0078125
20
2168.00390625
30
0.0
11
5026.0078125
21
2218.001953125
31
0.0
  0
LINE
 8
BLOCK_2
10
5026.0078125
20
2218.001953125
30
0.0
11
5048.015625
21
2251.998046875
31
0.0
  0
LINE
 8
BLOCK_2
10
4408.01953125
20
1381.998046875
30
0.0
11
4408.01953125
21
1491.99609375
31
0.0
  0
LINE
 8
BLOCK_2
10
4408.01953125
20
1491.99609375
30
0.0
11
4370.015625
21
1500.0
31
0.0
  0
LINE
 8
BLOCK_2
10
4370.015625
20
1500.0
30
0.0
11
4274.015625
21
1500.0
31
0.0
  0
LINE
 8
BLOCK_2
10
4274.015625
20
1500.0
30
0.0
11
4274.015625
21
1539.99609375
31
0.0
  0
LINE
 8
BLOCK_2
10
4274.015625
20
1539.99609375
30
0.0
11
4240.01953125
21
1539.99609375
31
0.0
  0
LINE
 8
BLOCK_2
10
4240.01953125
20
1539.99609375
30
0.0
11
4222.013671875
21
1572.0
31
0.0
  0
LINE
 8
BLOCK_2
10
4222.013671875
20
1572.0
30
0.0
11
4222.013671875
21
1602.0
31
0.0
  0
LINE
 8
BLOCK_2
10
4222.013671875
20
1602.0
30
0.0
11
4257.01171875
21
1626.0
31
0.0
  0
LINE
 8
BLOCK_2
10
4257.01171875
20
1626.0
30
0.0
11
4274.015625
21
1643.00390625
31
0.0
  0
LINE
 8
BLOCK_2
10
4274.015625
20
1643.00390625
30
0.0
11
4265.51953125
21
1660.001953125
31
0.0
  0
LINE
 8
BLOCK_2
10
4265.51953125
20
1660.001953125
30
0.0
11
4308.01171875
21
1711.998046875
31
0.0
  0
LINE
 8
BLOCK_2
10
4308.01171875
20
1711.998046875
30
0.0
11
4286.765625
21
1747.998046875
31
0.0
  0
LINE
 8
BLOCK_2
10
4286.765625
20
1747.998046875
30
0.0
11
4308.01171875
21
1767.0
31
0.0
  0
LINE
 8
BLOCK_2
10
4308.01171875
20
1767.0
30
0.0
11
4286.765625
21
1785.99609375
31
0.0
  0
LINE
 8
BLOCK_2
10
4286.765625
20
1776.498046875
30
0.0
11
4308.01171875
21
1801.998046875
31
0.0
  0
LINE
 8
BLOCK_2
10
4308.01171875
20
1801.998046875
30
0.0
11
4286.765625
21
1825.998046875
31
0.0
  0
LINE
 8
BLOCK_2
10
4286.765625
20
1825.998046875
30
0.0
11
4274.015625
21
1874.00390625
31
0.0
  0
LINE
 8
BLOCK_2
10
4274.015625
20
1874.00390625
30
0.0
11
4286.765625
21
1899.99609375
31
0.0
  0
LINE
 8
BLOCK_2
10
4286.765625
20
1899.99609375
30
0.0
11
4286.765625
21
1953.99609375
31
0.0
  0
LINE
 8
BLOCK_2
10
4286.765625
20
1953.99609375
30
0.0
11
4308.01171875
21
2026.001953125
31
0.0
  0
LINE
 8
BLOCK_2
10
4308.01171875
20
2026.001953125
30
0.0
11
4322.015625
21
2026.001953125
31
0.0
  0
LINE
 8
BLOCK_2
10
4322.015625
20
2026.001953125
30
0.0
11
4322.015625
21
2109.99609375
31
0.0
  0
LINE
 8
BLOCK_2
10
4322.015625
20
2109.99609375
30
0.0
11
4347.76171875
21
2131.998046875
31
0.0
  0
LINE
 8
BLOCK_2
10
4347.76171875
20
2131.998046875
30
0.0
11
4336.0078125
21
2168.00390625
31
0.0
  0
LINE
 8
BLOCK_2
10
4336.0078125
20
2168.00390625
30
0.0
11
4370.015625
21
2202.0
31
0.0
  0
LINE
 8
BLOCK_2
10
4370.015625
20
2202.0
30
0.0
11
4370.015625
21
2235.0
31
0.0
  0
LINE
 8
BLOCK_2
10
4370.015625
20
2235.0
30
0.0
11
4334.89453125
21
2325.0
31
0.0
  0
LINE
 8
BLOCK_2
10
4334.89453125
20
2325.0
30
0.0
11
4363.01953125
21
2356.001953125
31
0.0
  0
LINE
 8
BLOCK_2
10
4363.01953125
20
2356.001953125
30
0.0
11
4359.515625
21
2394.0
31
0.0
  0
LINE
 8
BLOCK_2
10
4359.515625
20
2394.0
30
0.0
11
4408.01953125
21
2478.0
31
0.0
  0
LINE
 8
BLOCK_2
10
4408.01953125
20
2478.0
30
0.0
11
4430.015625
21
2478.0
31
0.0
  0
LINE
 8
BLOCK_2
10
4430.015625
20
2478.0
30
0.0
11
4419.01171875
21
2515.998046875
31
0.0
  0
LINE
 8
BLOCK_2
10
4419.01171875
20
2515.998046875
30
0.0
11
4424.51953125
21
2587.998046875
31
0.0
  0
LINE
 8
BLOCK_2
10
4424.51953125
20
2587.998046875
30
0.0
11
4474.0078125
21
2608.001953125
31
0.0
  0
LINE
 8
BLOCK_2
10
4474.0078125
20
2608.001953125
30
0.0
11
4474.0078125
21
2662.001953125
31
0.0
  0
LINE
 8
BLOCK_2
10
4474.0078125
20
2662.001953125
30
0.0
11
4514.00390625
21
2698.001953125
31
0.0
  0
LINE
 8
BLOCK_2
10
4514.00390625
20
2698.001953125
30
0.0
11
4542.01171875
21
2688.0
31
0.0
  0
LINE
 8
BLOCK_2
10
4542.01171875
20
2688.0
30
0.0
11
4585.01953125
21
2680.001953125
31
0.0
  0
LINE
 8
BLOCK_2
10
4585.01953125
20
2680.001953125
30
0.0
11
4591.01953125
21
2662.001953125
31
0.0
  0
LINE
 8
BLOCK_2
10
4591.01953125
20
2662.001953125
30
0.0
11
4612.01953125
21
2688.0
31
0.0
  0
LINE
 8
BLOCK_2
10
4612.01953125
20
2688.0
30
0.0
11
4656.01171875
21
2684.00390625
31
0.0
  0
LINE
 8
BLOCK_2
10
4656.01171875
20
2684.00390625
30
0.0
11
4670.015625
21
2662.001953125
31
0.0
  0
LINE
 8
BLOCK_2
10
4670.015625
20
2662.001953125
30
0.0
11
4704.01171875
21
2635.001953125
31
0.0
  0
LINE
 8
BLOCK_2
10
4704.01171875
20
2635.001953125
30
0.0
11
4720.0078125
21
2618.00390625
31
0.0
  0
LINE
 8
BLOCK_2
10
4720.0078125
20
2618.00390625
30
0.0
11
4764.01171875
21
2608.001953125
31
0.0
  0
LINE
 8
BLOCK_2
10
4764.01171875
20
2608.001953125
30
0.0
11
4816.01953125
21
2574.0
31
0.0
  0
LINE
 8
BLOCK_2
10
4808.015625
20
2574.0
30
0.0
11
4850.765625
21
2551.998046875
31
0.0
  0
LINE
 8
BLOCK_2
10
4850.765625
20
2551.998046875
30
0.0
11
4850.765625
21
2536.001953125
31
0.0
  0
LINE
 8
BLOCK_2
10
4850.765625
20
2536.001953125
30
0.0
11
4808.015625
21
2478.0
31
0.0
  0
LINE
 8
BLOCK_2
10
4808.015625
20
2478.0
30
0.0
11
4908.01171875
21
2467.998046875
31
0.0
  0
LINE
 8
BLOCK_2
10
4908.01171875
20
2467.998046875
30
0.0
11
4949.00390625
21
2478.0
31
0.0
  0
LINE
 8
BLOCK_2
10
4949.00390625
20
2478.0
30
0.0
11
4970.015625
21
2507.00390625
31
0.0
  0
LINE
 8
BLOCK_2
10
4970.015625
20
2507.00390625
30
0.0
11
4990.0078125
21
2608.001953125
31
0.0
  0
LINE
 8
BLOCK_2
10
4990.0078125
20
2608.001953125
30
0.0
11
5008.0078125
21
2648.501953125
31
0.0
  0
LINE
 8
BLOCK_2
10
5008.0078125
20
2648.501953125
30
0.0
11
5076.01171875
21
2698.001953125
31
0.0
  0
LINE
 8
BLOCK_2
10
5076.01171875
20
2698.001953125
30
0.0
11
5084.015625
21
2737.998046875
31
0.0
  0
LINE
 8
BLOCK_2
10
5084.015625
20
2737.998046875
30
0.0
11
5116.0078125
21
2754.0
31
0.0
  0
LINE
 8
BLOCK_2
10
5116.0078125
20
2754.0
30
0.0
11
5116.0078125
21
2790.99609375
31
0.0
  0
LINE
 8
BLOCK_2
10
5116.0078125
20
2790.99609375
30
0.0
11
5037.01171875
21
2827.998046875
31
0.0
  0
LINE
 8
BLOCK_2
10
5037.01171875
20
2827.998046875
30
0.0
11
5022.01171875
21
2888.00390625
31
0.0
  0
LINE
 8
BLOCK_2
10
5022.01171875
20
2888.00390625
30
0.0
11
5084.015625
21
2929.998046875
31
0.0
  0
LINE
 8
BLOCK_2
10
5084.015625
20
2929.998046875
30
0.0
11
5116.0078125
21
2974.001953125
31
0.0
  0
LINE
 8
BLOCK_2
10
5116.0078125
20
2974.001953125
30
0.0
11
5136.01171875
21
3055.998046875
31
0.0
  0
LINE
 8
BLOCK_2
10
5136.01171875
20
3055.998046875
30
0.0
11
5126.00390625
21
3124.001953125
31
0.0
  0
LINE
 8
BLOCK_2
10
5126.00390625
20
3124.001953125
30
0.0
11
5150.015625
21
3162.0
31
0.0
  0
LINE
 8
BLOCK_2
10
5150.015625
20
3162.0
30
0.0
11
5116.0078125
21
3162.0
31
0.0
  0
LINE
 8
BLOCK_2
10
5116.0078125
20
3162.0
30
0.0
11
5116.0078125
21
3198.0
31
0.0
  0
LINE
 8
BLOCK_2
10
5116.0078125
20
3198.0
30
0.0
11
5084.015625
21
3222.0
31
0.0
  0
LINE
 8
BLOCK_2
10
5084.015625
20
3222.0
30
0.0
11
5116.0078125
21
3246.0
31
0.0
  0
LINE
 8
BLOCK_2
10
5116.0078125
20
3246.0
30
0.0
11
5100.01171875
21
3288.0
31
0.0
  0
LINE
 8
BLOCK_2
10
5100.01171875
20
3288.0
30
0.0
11
5053.01953125
21
3298.001953125
31
0.0
  0
LINE
 8
BLOCK_2
10
5053.01953125
20
3298.001953125
30
0.0
11
5037.01171875
21
3373.998046875
31
0.0
  0
LINE
 8
BLOCK_2
10
5037.01171875
20
3360.99609375
30
0.0
11
5066.015625
21
3429.99609375
31
0.0
  0
LINE
 8
BLOCK_2
10
5066.015625
20
3429.99609375
30
0.0
11
5084.015625
21
3420.0
31
0.0
  0
LINE
 8
BLOCK_2
10
5084.015625
20
3420.0
30
0.0
11
5084.015625
21
3447.0
31
0.0
  0
LINE
 8
BLOCK_2
10
5084.015625
20
3447.0
30
0.0
11
5066.015625
21
3462.0
31
0.0
  0
LINE
 8
BLOCK_2
10
5066.015625
20
3462.0
30
0.0
11
5066.015625
21
3526.001953125
31
0.0
  0
LINE
 8
BLOCK_2
10
5066.015625
20
3526.001953125
30
0.0
11
5029.51171875
21
3588.0
31
0.0
  0
LINE
 8
BLOCK_2
10
5029.51171875
20
3588.0
30
0.0
11
4970.015625
21
3631.998046875
31
0.0
  0
LINE
 8
BLOCK_2
10
4970.015625
20
3631.998046875
30
0.0
11
4970.015625
21
3660.0
31
0.0
  0
LINE
 8
BLOCK_2
10
4970.015625
20
3660.0
30
0.0
11
4918.0078125
21
3660.0
31
0.0
  0
LINE
 8
BLOCK_2
10
4918.0078125
20
3660.0
30
0.0
11
4918.0078125
21
3625.998046875
31
0.0
  0
LINE
 8
BLOCK_2
10
4918.0078125
20
3625.998046875
30
0.0
11
4892.015625
21
3631.998046875
31
0.0
  0
LINE
 8
BLOCK_2
10
4892.015625
20
3631.998046875
30
0.0
11
4850.765625
21
3718.998046875
31
0.0
  0
LINE
 8
BLOCK_2
10
4850.765625
20
3718.998046875
30
0.0
11
4850.765625
21
3757.998046875
31
0.0
  0
LINE
 8
BLOCK_2
10
4850.765625
20
3757.998046875
30
0.0
11
4871.390625
21
3757.998046875
31
0.0
  0
LINE
 8
BLOCK_2
10
4871.390625
20
3757.998046875
30
0.0
11
4871.390625
21
3792.0
31
0.0
  0
LINE
 8
BLOCK_2
10
4871.390625
20
3792.0
30
0.0
11
4999.0078125
21
3792.0
31
0.0
  0
LINE
 8
BLOCK_2
10
4999.0078125
20
3792.0
30
0.0
11
5053.01953125
21
3757.998046875
31
0.0
  0
LINE
 8
BLOCK_2
10
5053.01953125
20
3757.998046875
30
0.0
11
5053.01953125
21
6126.0
31
0.0
  0
LINE
 8
BLOCK_2
10
5644.0078125
20
3075.99609375
30
0.0
11
5658.01171875
21
3120.0
31
0.0
  0
LINE
 8
BLOCK_2
10
5658.01171875
20
3120.0
30
0.0
11
5716.01953125
21
3162.0
31
0.0
  0
LINE
 8
BLOCK_2
10
5716.01953125
20
3162.0
30
0.0
11
5756.015625
21
3222.0
31
0.0
  0
LINE
 8
BLOCK_2
10
5756.015625
20
3222.0
30
0.0
11
5756.015625
21
3298.001953125
31
0.0
  0
LINE
 8
BLOCK_2
10
5756.015625
20
3298.001953125
30
0.0
11
5726.015625
21
3348.0
31
0.0
  0
LINE
 8
BLOCK_2
10
5726.015625
20
3348.0
30
0.0
11
5687.015625
21
3348.0
31
0.0
  0
LINE
 8
BLOCK_2
10
5687.015625
20
3348.0
30
0.0
11
5644.0078125
21
3373.998046875
31
0.0
  0
LINE
 8
BLOCK_2
10
5644.0078125
20
3373.998046875
30
0.0
11
5644.0078125
21
6147.0
31
0.0
  0
LINE
 8
BLOCK_2
10
5053.01953125
20
6126.0
30
0.0
11
4998.01171875
21
6183.99609375
31
0.0
  0
LINE
 8
BLOCK_2
10
4998.01171875
20
6183.99609375
30
0.0
11
4990.0078125
21
6216.99609375
31
0.0
  0
LINE
 8
BLOCK_2
10
4990.0078125
20
6216.99609375
30
0.0
11
5008.01953125
21
6238.998046875
31
0.0
  0
LINE
 8
BLOCK_2
10
5008.01953125
20
6238.998046875
30
0.0
11
4956.01171875
21
6318.0
31
0.0
  0
LINE
 8
BLOCK_2
10
4956.01171875
20
6318.0
30
0.0
11
4956.01171875
21
6384.0
31
0.0
  0
LINE
 8
BLOCK_2
10
4956.01171875
20
6384.0
30
0.0
11
4903.01953125
21
6396.0
31
0.0
  0
LINE
 8
BLOCK_2
10
4903.01953125
20
6396.0
30
0.0
11
4903.01953125
21
6432.0
31
0.0
  0
LINE
 8
BLOCK_2
10
4903.01953125
20
6432.0
30
0.0
11
4846.01953125
21
6516.99609375
31
0.0
  0
LINE
 8
BLOCK_2
10
4846.01953125
20
6516.99609375
30
0.0
11
4782.01171875
21
6567.99609375
31
0.0
  0
LINE
 8
BLOCK_2
10
4782.01171875
20
6567.99609375
30
0.0
11
4658.015625
21
6567.99609375
31
0.0
  0
LINE
 8
BLOCK_2
10
4658.015625
20
6567.99609375
30
0.0
11
4617.515625
21
6580.001953125
31
0.0
  0
LINE
 8
BLOCK_2
10
4617.515625
20
6580.001953125
30
0.0
11
4456.0078125
21
6693.99609375
31
0.0
  0
LINE
 8
BLOCK_2
10
4766.015625
20
6816.0
30
0.0
11
5053.01953125
21
6832.998046875
31
0.0
  0
LINE
 8
BLOCK_2
10
5053.01953125
20
6832.998046875
30
0.0
11
5053.01953125
21
7122.0
31
0.0
  0
LINE
 8
BLOCK_2
10
5648.015625
20
7122.0
30
0.0
11
5648.015625
21
6877.998046875
31
0.0
  0
LINE
 8
BLOCK_2
10
6240.01171875
20
7122.0
30
0.0
11
6240.01171875
21
6849.99609375
31
0.0
  0
LINE
 8
BLOCK_2
10
6240.01171875
20
6849.99609375
30
0.0
11
6044.00390625
21
6877.998046875
31
0.0
  0
LINE
 8
BLOCK_2
10
6044.00390625
20
6877.998046875
30
0.0
11
5648.015625
21
6877.998046875
31
0.0
  0
LINE
 8
BLOCK_2
10
6240.01171875
20
6849.99609375
30
0.0
11
6418.0078125
21
6807.0
31
0.0
  0
LINE
 8
BLOCK_2
10
6418.0078125
20
6807.0
30
0.0
11
6618.01171875
21
6807.0
31
0.0
  0
LINE
 8
BLOCK_2
10
6618.01171875
20
6807.0
30
0.0
11
6666.01171875
21
6798.0
31
0.0
  0
LINE
 8
BLOCK_2
10
6666.01171875
20
6798.0
30
0.0
11
6642.01171875
21
6771.99609375
31
0.0
  0
LINE
 8
BLOCK_2
10
6654.01171875
20
6771.99609375
30
0.0
11
6456.01171875
21
6729.99609375
31
0.0
  0
LINE
 8
BLOCK_2
10
6456.01171875
20
6729.99609375
30
0.0
11
6446.00390625
21
6636.99609375
31
0.0
  0
LINE
 8
BLOCK_2
10
6446.00390625
20
6636.99609375
30
0.0
11
6418.0078125
21
6580.001953125
31
0.0
  0
LINE
 8
BLOCK_2
10
6418.0078125
20
6580.001953125
30
0.0
11
6432.01171875
21
6542.49609375
31
0.0
  0
LINE
 8
BLOCK_2
10
6432.01171875
20
6542.49609375
30
0.0
11
6456.01171875
21
6542.49609375
31
0.0
  0
LINE
 8
BLOCK_2
10
6456.01171875
20
6542.49609375
30
0.0
11
6451.0078125
21
6516.99609375
31
0.0
  0
LINE
 8
BLOCK_2
10
6451.0078125
20
6516.99609375
30
0.0
11
6376.0078125
21
6504.0
31
0.0
  0
LINE
 8
BLOCK_2
10
6376.0078125
20
6504.0
30
0.0
11
6288.01171875
21
6442.001953125
31
0.0
  0
LINE
 8
BLOCK_2
10
6288.01171875
20
6442.001953125
30
0.0
11
6276.01171875
21
6414.0
31
0.0
  0
LINE
 8
BLOCK_2
10
6276.01171875
20
6414.0
30
0.0
11
6300.01171875
21
6373.998046875
31
0.0
  0
LINE
 8
BLOCK_2
10
6300.01171875
20
6373.998046875
30
0.0
11
6300.01171875
21
6351.0
31
0.0
  0
LINE
 8
BLOCK_2
10
6300.01171875
20
6351.0
30
0.0
11
6240.01171875
21
6318.0
31
0.0
  0
LINE
 8
BLOCK_2
10
6240.01171875
20
6318.0
30
0.0
11
6084.01171875
21
6273.99609375
31
0.0
  0
LINE
 8
BLOCK_2
10
6084.01171875
20
6273.99609375
30
0.0
11
5864.00390625
21
6253.998046875
31
0.0
  0
LINE
 8
BLOCK_2
10
5864.00390625
20
6253.998046875
30
0.0
11
5784.01171875
21
6183.99609375
31
0.0
  0
LINE
 8
BLOCK_2
10
5784.01171875
20
6183.99609375
30
0.0
11
5648.015625
21
6147.0
31
0.0
  0
LINE
 8
BLOCK_2
10
6836.00390625
20
7122.0
30
0.0
11
6836.00390625
21
6238.998046875
31
0.0
  0
LINE
 8
BLOCK_2
10
6836.00390625
20
6238.998046875
30
0.0
11
6134.00390625
21
6238.998046875
31
0.0
  0
LINE
 8
BLOCK_2
10
6134.00390625
20
6238.998046875
30
0.0
11
6134.00390625
21
6043.998046875
31
0.0
  0
LINE
 8
BLOCK_2
10
6134.00390625
20
6043.998046875
30
0.0
11
6240.01171875
21
6043.998046875
31
0.0
  0
LINE
 8
BLOCK_2
10
6836.00390625
20
6043.998046875
30
0.0
11
6836.00390625
21
5751.99609375
31
0.0
  0
LINE
 8
BLOCK_2
10
6826.0078125
20
5751.99609375
30
0.0
11
6810.01171875
21
5751.99609375
31
0.0
  0
LINE
 8
BLOCK_2
10
6810.01171875
20
5751.99609375
30
0.0
11
6786.01171875
21
5718.0
31
0.0
  0
LINE
 8
BLOCK_2
10
6786.01171875
20
5718.0
30
0.0
11
6744.01171875
21
5718.0
31
0.0
  0
LINE
 8
BLOCK_2
10
6744.01171875
20
5718.0
30
0.0
11
6720.01171875
21
5697.99609375
31
0.0
  0
LINE
 8
BLOCK_2
10
6720.01171875
20
5697.99609375
30
0.0
11
6732.01171875
21
5667.99609375
31
0.0
  0
LINE
 8
BLOCK_2
10
6732.01171875
20
5667.99609375
30
0.0
11
6765.01171875
21
5655.0
31
0.0
  0
LINE
 8
BLOCK_2
10
6765.01171875
20
5655.0
30
0.0
11
6720.01171875
21
5620.998046875
31
0.0
  0
LINE
 8
BLOCK_2
10
6720.01171875
20
5620.998046875
30
0.0
11
6732.01171875
21
5586.0
31
0.0
  0
LINE
 8
BLOCK_2
10
6732.01171875
20
5586.0
30
0.0
11
6798.01171875
21
5586.0
31
0.0
  0
LINE
 8
BLOCK_2
10
6798.01171875
20
5586.0
30
0.0
11
6826.0078125
21
5603.49609375
31
0.0
  0
LINE
 8
BLOCK_2
10
6826.0078125
20
5603.49609375
30
0.0
11
6826.0078125
21
5293.998046875
31
0.0
  0
LINE
 8
BLOCK_2
10
6240.01171875
20
6043.998046875
30
0.0
11
6240.01171875
21
5151.99609375
31
0.0
  0
LINE
 8
BLOCK_2
10
6240.01171875
20
5151.99609375
30
0.0
11
5876.00390625
21
5151.99609375
31
0.0
  0
LINE
 8
BLOCK_2
10
5876.00390625
20
5151.99609375
30
0.0
11
5876.00390625
21
5004.0
31
0.0
  0
LINE
 8
BLOCK_2
10
5876.00390625
20
5004.0
30
0.0
11
6240.01171875
21
5004.0
31
0.0
  0
LINE
 8
BLOCK_2
10
6240.01171875
20
5004.0
30
0.0
11
6240.01171875
21
4290.0
31
0.0
  0
LINE
 8
BLOCK_2
10
6240.01171875
20
4290.0
30
0.0
11
6040.0078125
21
4290.0
31
0.0
  0
LINE
 8
BLOCK_2
10
6040.0078125
20
4290.0
30
0.0
11
6040.0078125
21
4086.0
31
0.0
  0
LINE
 8
BLOCK_2
10
6040.0078125
20
4086.0
30
0.0
11
6236.015625
21
4086.0
31
0.0
  0
LINE
 8
BLOCK_2
10
6832.01953125
20
3728.00390625
30
0.0
11
6780.01171875
21
3757.998046875
31
0.0
  0
LINE
 8
BLOCK_2
10
6780.01171875
20
3757.998046875
30
0.0
11
6616.0078125
21
3861.99609375
31
0.0
  0
LINE
 8
BLOCK_2
10
6616.0078125
20
3861.99609375
30
0.0
11
6604.0078125
21
3925.998046875
31
0.0
  0
LINE
 8
BLOCK_2
10
6604.0078125
20
3925.998046875
30
0.0
11
6546.01171875
21
3990.0
31
0.0
  0
LINE
 8
BLOCK_2
10
6546.01171875
20
3990.0
30
0.0
11
6496.01953125
21
3990.0
31
0.0
  0
LINE
 8
BLOCK_2
10
6496.01953125
20
3990.0
30
0.0
11
6486.01171875
21
4015.998046875
31
0.0
  0
LINE
 8
BLOCK_2
10
6486.01171875
20
4015.998046875
30
0.0
11
6472.0078125
21
4047.99609375
31
0.0
  0
LINE
 8
BLOCK_2
10
6472.0078125
20
4047.99609375
30
0.0
11
6479.00390625
21
4105.998046875
31
0.0
  0
LINE
 8
BLOCK_2
10
6479.00390625
20
4105.998046875
30
0.0
11
6442.0078125
21
4146.0
31
0.0
  0
LINE
 8
BLOCK_2
10
6442.0078125
20
4146.0
30
0.0
11
6479.00390625
21
4167.99609375
31
0.0
  0
LINE
 8
BLOCK_2
10
6479.00390625
20
4167.99609375
30
0.0
11
6486.01171875
21
4225.998046875
31
0.0
  0
LINE
 8
BLOCK_2
10
6486.01171875
20
4225.998046875
30
0.0
11
6496.01953125
21
4248.0
31
0.0
  0
LINE
 8
BLOCK_2
10
6496.01953125
20
4248.0
30
0.0
11
6496.01953125
21
4299.99609375
31
0.0
  0
LINE
 8
BLOCK_2
10
6496.01953125
20
4299.99609375
30
0.0
11
6460.51171875
21
4371.99609375
31
0.0
  0
LINE
 8
BLOCK_2
10
6460.51171875
20
4371.99609375
30
0.0
11
6472.0078125
21
4423.998046875
31
0.0
  0
LINE
 8
BLOCK_2
10
6472.0078125
20
4423.998046875
30
0.0
11
6491.015625
21
4449.99609375
31
0.0
  0
LINE
 8
BLOCK_2
10
6491.015625
20
4449.99609375
30
0.0
11
6508.0078125
21
4494.0
31
0.0
  0
LINE
 8
BLOCK_2
10
6508.0078125
20
4494.0
30
0.0
11
6546.01171875
21
4537.998046875
31
0.0
  0
LINE
 8
BLOCK_2
10
6546.01171875
20
4537.998046875
30
0.0
11
6546.01171875
21
4555.998046875
31
0.0
  0
LINE
 8
BLOCK_2
10
6546.01171875
20
4555.998046875
30
0.0
11
6562.0078125
21
4555.998046875
31
0.0
  0
LINE
 8
BLOCK_2
10
6562.0078125
20
4555.998046875
30
0.0
11
6562.0078125
21
4578.0
31
0.0
  0
LINE
 8
BLOCK_2
10
6562.0078125
20
4578.0
30
0.0
11
6314.00390625
21
4578.0
31
0.0
  0
LINE
 8
BLOCK_2
10
6314.00390625
20
4578.0
30
0.0
11
6314.00390625
21
4752.0
31
0.0
  0
LINE
 8
BLOCK_2
10
6314.00390625
20
4752.0
30
0.0
11
6546.01171875
21
5217.99609375
31
0.0
  0
LINE
 8
BLOCK_2
10
6546.01171875
20
5217.99609375
30
0.0
11
6786.01171875
21
5217.99609375
31
0.0
  0
LINE
 8
BLOCK_2
10
6786.01171875
20
5217.99609375
30
0.0
11
6765.01171875
21
5265.99609375
31
0.0
  0
LINE
 8
BLOCK_2
10
6765.01171875
20
5265.99609375
30
0.0
11
6798.01171875
21
5277.99609375
31
0.0
  0
LINE
 8
BLOCK_2
10
6798.01171875
20
5277.99609375
30
0.0
11
6826.0078125
21
5293.998046875
31
0.0
  0
LINE
 8
BLOCK_2
10
6786.01171875
20
5217.99609375
30
0.0
11
6812.00390625
21
5229.99609375
31
0.0
  0
LINE
 8
BLOCK_2
10
6812.00390625
20
5229.99609375
30
0.0
11
6818.00390625
21
5217.99609375
31
0.0
  0
LINE
 8
BLOCK_2
10
6818.00390625
20
5217.99609375
30
0.0
11
6878.015625
21
5217.99609375
31
0.0
  0
LINE
 8
BLOCK_2
10
6878.015625
20
5217.99609375
30
0.0
11
6890.015625
21
5205.99609375
31
0.0
  0
LINE
 8
BLOCK_2
10
6890.015625
20
5205.99609375
30
0.0
11
6868.0078125
21
5179.998046875
31
0.0
  0
LINE
 8
BLOCK_2
10
6868.0078125
20
5179.998046875
30
0.0
11
6868.0078125
21
5133.99609375
31
0.0
  0
LINE
 8
BLOCK_2
10
6868.0078125
20
5133.99609375
30
0.0
11
6848.00390625
21
5124.0
31
0.0
  0
LINE
 8
BLOCK_2
10
6848.00390625
20
5124.0
30
0.0
11
6858.01171875
21
5103.99609375
31
0.0
  0
LINE
 8
BLOCK_2
10
6858.01171875
20
5103.99609375
30
0.0
11
6848.00390625
21
5077.998046875
31
0.0
  0
LINE
 8
BLOCK_2
10
6848.00390625
20
5077.998046875
30
0.0
11
6858.01171875
21
5064.0
31
0.0
  0
LINE
 8
BLOCK_2
10
6858.01171875
20
5064.0
30
0.0
11
6848.00390625
21
5041.998046875
31
0.0
  0
LINE
 8
BLOCK_2
10
6848.00390625
20
5041.998046875
30
0.0
11
6848.00390625
21
5025.99609375
31
0.0
  0
LINE
 8
BLOCK_2
10
6848.00390625
20
5025.99609375
30
0.0
11
6890.015625
21
5025.99609375
31
0.0
  0
LINE
 8
BLOCK_2
10
6890.015625
20
5025.99609375
30
0.0
11
6890.015625
21
4993.998046875
31
0.0
  0
LINE
 8
BLOCK_2
10
6890.015625
20
4993.998046875
30
0.0
11
6922.0078125
21
4984.998046875
31
0.0
  0
LINE
 8
BLOCK_2
10
6922.0078125
20
4984.998046875
30
0.0
11
6948.01171875
21
4947.99609375
31
0.0
  0
LINE
 8
BLOCK_2
10
6948.01171875
20
4947.99609375
30
0.0
11
7022.015625
21
4947.99609375
31
0.0
  0
LINE
 8
BLOCK_2
10
7022.015625
20
4947.99609375
30
0.0
11
7060.0078125
21
4947.99609375
31
0.0
  0
LINE
 8
BLOCK_2
10
7060.0078125
20
4947.99609375
30
0.0
11
7072.0078125
21
4929.99609375
31
0.0
  0
LINE
 8
BLOCK_2
10
7072.0078125
20
4929.99609375
30
0.0
11
7066.0078125
21
4870.001953125
31
0.0
  0
LINE
 8
BLOCK_2
10
7066.0078125
20
4870.001953125
30
0.0
11
7094.015625
21
4849.998046875
31
0.0
  0
LINE
 8
BLOCK_2
10
7094.015625
20
4849.998046875
30
0.0
11
7080.01171875
21
4830.0
31
0.0
  0
LINE
 8
BLOCK_2
10
7080.01171875
20
4830.0
30
0.0
11
7022.015625
21
4830.0
31
0.0
  0
LINE
 8
BLOCK_2
10
7022.015625
20
4830.0
30
0.0
11
6985.01953125
21
4813.998046875
31
0.0
  0
LINE
 8
BLOCK_2
10
6985.01953125
20
4813.998046875
30
0.0
11
6985.01953125
21
4788.0
31
0.0
  0
LINE
 8
BLOCK_2
10
6985.01953125
20
4788.0
30
0.0
11
6922.0078125
21
4740.0
31
0.0
  0
LINE
 8
BLOCK_2
10
6922.0078125
20
4740.0
30
0.0
11
6832.01953125
21
4723.998046875
31
0.0
  0
LINE
 8
BLOCK_2
10
6832.01953125
20
4723.998046875
30
0.0
11
6792.01171875
21
4698.0
31
0.0
  0
LINE
 8
BLOCK_2
10
6792.01171875
20
4698.0
30
0.0
11
6792.01171875
21
4638.0
31
0.0
  0
LINE
 8
BLOCK_2
10
6792.01171875
20
4638.0
30
0.0
11
7178.015625
21
4398.0
31
0.0
  0
LINE
 8
BLOCK_2
10
7178.015625
20
4398.0
30
0.0
11
7178.015625
21
4380.0
31
0.0
  0
LINE
 8
BLOCK_2
10
7178.015625
20
4380.0
30
0.0
11
7230.01171875
21
4354.001953125
31
0.0
  0
LINE
 8
BLOCK_2
10
7230.01171875
20
4354.001953125
30
0.0
11
7264.0078125
21
4354.001953125
31
0.0
  0
LINE
 8
BLOCK_2
10
7264.0078125
20
4354.001953125
30
0.0
11
7264.0078125
21
4312.001953125
31
0.0
  0
LINE
 8
BLOCK_2
10
7264.0078125
20
4312.001953125
30
0.0
11
7306.0078125
21
4312.001953125
31
0.0
  0
LINE
 8
BLOCK_2
10
7306.0078125
20
4312.001953125
30
0.0
11
7306.0078125
21
4206.0
31
0.0
  0
LINE
 8
BLOCK_2
10
7306.0078125
20
4206.0
30
0.0
11
7274.015625
21
4156.998046875
31
0.0
  0
LINE
 8
BLOCK_2
10
7274.015625
20
4156.998046875
30
0.0
11
7145.09765625
21
4146.0
31
0.0
  0
LINE
 8
BLOCK_2
10
7145.09765625
20
4146.0
30
0.0
11
7145.09765625
21
4105.998046875
31
0.0
  0
LINE
 8
BLOCK_2
10
7145.09765625
20
4105.998046875
30
0.0
11
7178.015625
21
4105.998046875
31
0.0
  0
LINE
 8
BLOCK_2
10
7178.015625
20
4105.998046875
30
0.0
11
7178.015625
21
4077.0
31
0.0
  0
LINE
 8
BLOCK_2
10
7178.015625
20
4077.0
30
0.0
11
7230.01171875
21
4056.0
31
0.0
  0
LINE
 8
BLOCK_2
10
7230.01171875
20
4056.0
30
0.0
11
7230.01171875
21
4015.998046875
31
0.0
  0
LINE
 8
BLOCK_2
10
7230.01171875
20
4015.998046875
30
0.0
11
7194.01171875
21
4002.99609375
31
0.0
  0
LINE
 8
BLOCK_2
10
7194.01171875
20
4002.99609375
30
0.0
11
7161.55078125
21
3990.0
31
0.0
  0
LINE
 8
BLOCK_2
10
7161.55078125
20
3990.0
30
0.0
11
7177.78125
21
3957.99609375
31
0.0
  0
LINE
 8
BLOCK_2
10
7177.78125
20
3957.99609375
30
0.0
11
7194.01171875
21
3957.99609375
31
0.0
  0
LINE
 8
BLOCK_2
10
7194.01171875
20
3957.99609375
30
0.0
11
7194.01171875
21
3925.998046875
31
0.0
  0
LINE
 8
BLOCK_2
10
7194.01171875
20
3925.998046875
30
0.0
11
7204.01953125
21
3912.0
31
0.0
  0
LINE
 8
BLOCK_2
10
7204.01953125
20
3912.0
30
0.0
11
7204.01953125
21
3810.0
31
0.0
  0
LINE
 8
BLOCK_2
10
7204.01953125
20
3810.0
30
0.0
11
7264.0078125
21
3810.0
31
0.0
  0
LINE
 8
BLOCK_2
10
7264.0078125
20
3810.0
30
0.0
11
7306.0078125
21
3810.0
31
0.0
  0
LINE
 8
BLOCK_2
10
7306.0078125
20
3810.0
30
0.0
11
7338.01171875
21
3787.998046875
31
0.0
  0
LINE
 8
BLOCK_2
10
7338.01171875
20
3787.998046875
30
0.0
11
7362.01171875
21
3743.00390625
31
0.0
  0
LINE
 8
BLOCK_2
10
7362.01171875
20
3743.00390625
30
0.0
11
7372.0078125
21
3728.00390625
31
0.0
  0
LINE
 8
BLOCK_2
10
7372.0078125
20
3728.00390625
30
0.0
11
7434.01171875
21
3735.50390625
31
0.0
  0
LINE
 8
BLOCK_2
10
7434.01171875
20
3735.50390625
30
0.0
11
7434.01171875
21
3522.263671875
31
0.0
  0
LINE
 8
BLOCK_2
10
7434.01171875
20
3522.263671875
30
0.0
11
7234.01953125
21
3522.263671875
31
0.0
  0
LINE
 8
BLOCK_2
10
7234.01953125
20
3522.263671875
30
0.0
11
7234.01953125
21
3403.998046875
31
0.0
  0
LINE
 8
BLOCK_2
10
7247.00390625
20
3403.998046875
30
0.0
11
7424.015625
21
3403.998046875
31
0.0
  0
LINE
 8
BLOCK_2
10
7432.0078125
20
7122.0
30
0.0
11
7432.0078125
21
6069.99609375
31
0.0
  0
LINE
 8
BLOCK_2
10
7432.0078125
20
6069.99609375
30
0.0
11
7378.0078125
21
6043.998046875
31
0.0
  0
LINE
 8
BLOCK_2
10
7378.0078125
20
6043.998046875
30
0.0
11
7328.00390625
21
6021.99609375
31
0.0
  0
LINE
 8
BLOCK_2
10
7328.00390625
20
6021.99609375
30
0.0
11
7318.0078125
21
5961.99609375
31
0.0
  0
LINE
 8
BLOCK_2
10
7318.0078125
20
5961.99609375
30
0.0
11
7338.01171875
21
5946.0
31
0.0
  0
LINE
 8
BLOCK_2
10
7338.01171875
20
5946.0
30
0.0
11
7353.01171875
21
5889.99609375
31
0.0
  0
LINE
 8
BLOCK_2
10
7353.01171875
20
5889.99609375
30
0.0
11
7378.0078125
21
5865.99609375
31
0.0
  0
LINE
 8
BLOCK_2
10
7378.0078125
20
5865.99609375
30
0.0
11
7405.0078125
21
5856.0
31
0.0
  0
LINE
 8
BLOCK_2
10
7405.0078125
20
5856.0
30
0.0
11
7432.0078125
21
5856.0
31
0.0
  0
LINE
 8
BLOCK_2
10
7432.0078125
20
5856.0
30
0.0
11
7432.0078125
21
5682.99609375
31
0.0
  0
LINE
 8
BLOCK_2
10
7432.0078125
20
5682.99609375
30
0.0
11
7328.00390625
21
5667.99609375
31
0.0
  0
LINE
 8
BLOCK_2
10
7328.00390625
20
5667.99609375
30
0.0
11
7318.0078125
21
5637.99609375
31
0.0
  0
LINE
 8
BLOCK_2
10
7318.0078125
20
5637.99609375
30
0.0
11
7256.00390625
21
5594.748046875
31
0.0
  0
LINE
 8
BLOCK_2
10
7256.00390625
20
5594.748046875
30
0.0
11
7194.01171875
21
5586.0
31
0.0
  0
LINE
 8
BLOCK_2
10
7194.01171875
20
5586.0
30
0.0
11
7194.01171875
21
5548.001953125
31
0.0
  0
LINE
 8
BLOCK_2
10
7194.01171875
20
5548.001953125
30
0.0
11
7145.09765625
21
5536.001953125
31
0.0
  0
LINE
 8
BLOCK_2
10
7145.09765625
20
5536.001953125
30
0.0
11
7136.00390625
21
5512.001953125
31
0.0
  0
LINE
 8
BLOCK_2
10
7136.00390625
20
5512.001953125
30
0.0
11
7094.015625
21
5524.001953125
31
0.0
  0
LINE
 8
BLOCK_2
10
7094.015625
20
5524.001953125
30
0.0
11
7087.01953125
21
5536.001953125
31
0.0
  0
LINE
 8
BLOCK_2
10
7087.01953125
20
5536.001953125
30
0.0
11
7060.0078125
21
5530.001953125
31
0.0
  0
LINE
 8
BLOCK_2
10
7060.0078125
20
5530.001953125
30
0.0
11
7069.0078125
21
5485.998046875
31
0.0
  0
LINE
 8
BLOCK_2
10
7069.0078125
20
5485.998046875
30
0.0
11
7032.01171875
21
5485.998046875
31
0.0
  0
LINE
 8
BLOCK_2
10
7032.01171875
20
5485.998046875
30
0.0
11
7022.015625
21
5496.0
31
0.0
  0
LINE
 8
BLOCK_2
10
7014.01171875
20
5496.0
30
0.0
11
6964.0078125
21
5496.0
31
0.0
  0
LINE
 8
BLOCK_2
10
6964.0078125
20
5496.0
30
0.0
11
6935.00390625
21
5476.001953125
31
0.0
  0
LINE
 8
BLOCK_2
10
6935.00390625
20
5476.001953125
30
0.0
11
6964.0078125
21
5448.75
31
0.0
  0
LINE
 8
BLOCK_2
10
6964.0078125
20
5448.75
30
0.0
11
7003.51171875
21
5436.0
31
0.0
  0
LINE
 8
BLOCK_2
10
7003.51171875
20
5436.0
30
0.0
11
7014.01171875
21
5436.0
31
0.0
  0
LINE
 8
BLOCK_2
10
7014.01171875
20
5436.0
30
0.0
11
7041.01171875
21
5436.0
31
0.0
  0
LINE
 8
BLOCK_2
10
7041.01171875
20
5436.0
30
0.0
11
7050.50390625
21
5400.0
31
0.0
  0
LINE
 8
BLOCK_2
10
7050.50390625
20
5400.0
30
0.0
11
7094.015625
21
5370.0
31
0.0
  0
LINE
 8
BLOCK_2
10
7094.015625
20
5370.0
30
0.0
11
7073.51953125
21
5271.99609375
31
0.0
  0
LINE
 8
BLOCK_2
10
7073.51953125
20
5271.99609375
30
0.0
11
6826.0078125
21
5293.998046875
31
0.0
  0
LINE
 8
BLOCK_2
10
8028.01171875
20
7122.0
30
0.0
11
8028.01171875
21
6784.998046875
31
0.0
  0
LINE
 8
BLOCK_2
10
8028.01171875
20
6784.998046875
30
0.0
11
8480.015625
21
6784.998046875
31
0.0
  0
LINE
 8
BLOCK_2
10
8480.015625
20
6784.998046875
30
0.0
11
8480.015625
21
6561.24609375
31
0.0
  0
LINE
 8
BLOCK_2
10
8480.015625
20
6561.24609375
30
0.0
11
8028.01171875
21
6561.24609375
31
0.0
  0
LINE
 8
BLOCK_2
10
8028.01171875
20
6561.24609375
30
0.0
11
8028.01171875
21
6363.99609375
31
0.0
  0
LINE
 8
BLOCK_2
10
8028.01171875
20
6363.99609375
30
0.0
11
8070.01171875
21
6378.0
31
0.0
  0
LINE
 8
BLOCK_2
10
8070.01171875
20
6378.0
30
0.0
11
8254.01953125
21
6378.0
31
0.0
  0
LINE
 8
BLOCK_2
10
8254.01953125
20
6378.0
30
0.0
11
8334.01171875
21
6363.99609375
31
0.0
  0
LINE
 8
BLOCK_2
10
8334.01171875
20
6363.99609375
30
0.0
11
8430.01171875
21
6324.0
31
0.0
  0
LINE
 8
BLOCK_2
10
8430.01171875
20
6324.0
30
0.0
11
8480.015625
21
6306.0
31
0.0
  0
LINE
 8
BLOCK_2
10
8480.015625
20
6306.0
30
0.0
11
8560.0078125
21
6306.0
31
0.0
  0
LINE
 8
BLOCK_2
10
8560.0078125
20
6306.0
30
0.0
11
8626.0078125
21
6285.99609375
31
0.0
  0
LINE
 8
BLOCK_2
10
8626.0078125
20
6285.99609375
30
0.0
11
8626.0078125
21
6680.49609375
31
0.0
  0
LINE
 8
BLOCK_2
10
8626.0078125
20
6680.49609375
30
0.0
11
8560.0078125
21
6680.49609375
31
0.0
  0
LINE
 8
BLOCK_2
10
8560.0078125
20
6680.49609375
30
0.0
11
8560.0078125
21
6784.998046875
31
0.0
  0
LINE
 8
BLOCK_2
10
8560.0078125
20
6784.998046875
30
0.0
11
8626.0078125
21
6784.998046875
31
0.0
  0
LINE
 8
BLOCK_2
10
8626.0078125
20
6784.998046875
30
0.0
11
8626.0078125
21
7122.0
31
0.0
  0
LINE
 8
BLOCK_2
10
8364.5390625
20
6351.275390625
30
0.0
11
8364.5390625
21
6315.0
31
0.0
  0
LINE
 8
BLOCK_2
10
8364.5390625
20
6315.0
30
0.0
11
8334.01171875
21
6315.0
31
0.0
  0
LINE
 8
BLOCK_2
10
8334.01171875
20
6315.0
30
0.0
11
8294.015625
21
6306.0
31
0.0
  0
LINE
 8
BLOCK_2
10
8294.015625
20
6306.0
30
0.0
11
8264.00390625
21
6285.99609375
31
0.0
  0
LINE
 8
BLOCK_2
10
8264.00390625
20
6285.99609375
30
0.0
11
8264.00390625
21
6259.998046875
31
0.0
  0
LINE
 8
BLOCK_2
10
8264.00390625
20
6259.998046875
30
0.0
11
8324.00390625
21
6238.998046875
31
0.0
  0
LINE
 8
BLOCK_2
10
8324.00390625
20
6238.998046875
30
0.0
11
8334.01171875
21
6219.99609375
31
0.0
  0
LINE
 8
BLOCK_2
10
8334.01171875
20
6219.99609375
30
0.0
11
8279.00390625
21
6210.0
31
0.0
  0
LINE
 8
BLOCK_2
10
8279.00390625
20
6210.0
30
0.0
11
8334.01171875
21
6165.99609375
31
0.0
  0
LINE
 8
BLOCK_2
10
8334.01171875
20
6165.99609375
30
0.0
11
8324.00390625
21
6144.0
31
0.0
  0
LINE
 8
BLOCK_2
10
8324.00390625
20
6144.0
30
0.0
11
8324.00390625
21
6132.0
31
0.0
  0
LINE
 8
BLOCK_2
10
8324.00390625
20
6132.0
30
0.0
11
8349.26953125
21
6099.99609375
31
0.0
  0
LINE
 8
BLOCK_2
10
8349.26953125
20
6099.99609375
30
0.0
11
8342.953125
21
6084.99609375
31
0.0
  0
LINE
 8
BLOCK_2
10
8342.953125
20
6084.99609375
30
0.0
11
8364.5390625
21
6057.0
31
0.0
  0
LINE
 8
BLOCK_2
10
8364.5390625
20
6057.0
30
0.0
11
8382.01171875
21
6057.0
31
0.0
  0
LINE
 8
BLOCK_2
10
8382.01171875
20
6057.0
30
0.0
11
8382.01171875
21
6033.0
31
0.0
  0
LINE
 8
BLOCK_2
10
8382.01171875
20
6033.0
30
0.0
11
8306.5078125
21
5982.0
31
0.0
  0
LINE
 8
BLOCK_2
10
8306.5078125
20
5982.0
30
0.0
11
8240.00390625
21
5953.998046875
31
0.0
  0
LINE
 8
BLOCK_2
10
8240.00390625
20
5953.998046875
30
0.0
11
8264.00390625
21
5905.998046875
31
0.0
  0
LINE
 8
BLOCK_2
10
8264.00390625
20
5905.998046875
30
0.0
11
8230.0078125
21
5889.99609375
31
0.0
  0
LINE
 8
BLOCK_2
10
8230.0078125
20
5889.99609375
30
0.0
11
8247.01171875
21
5856.0
31
0.0
  0
LINE
 8
BLOCK_2
10
8247.01171875
20
5856.0
30
0.0
11
8230.0078125
21
5844.0
31
0.0
  0
LINE
 8
BLOCK_2
10
8230.0078125
20
5844.0
30
0.0
11
8240.00390625
21
5817.99609375
31
0.0
  0
LINE
 8
BLOCK_2
10
8240.00390625
20
5817.99609375
30
0.0
11
8252.00390625
21
5785.998046875
31
0.0
  0
LINE
 8
BLOCK_2
10
8252.00390625
20
5785.998046875
30
0.0
11
8294.00390625
21
5785.998046875
31
0.0
  0
LINE
 8
BLOCK_2
10
8294.00390625
20
5785.998046875
30
0.0
11
8306.5078125
21
5769.498046875
31
0.0
  0
LINE
 8
BLOCK_2
10
8306.5078125
20
5769.498046875
30
0.0
11
8364.5390625
21
5769.498046875
31
0.0
  0
LINE
 8
BLOCK_2
10
8364.5390625
20
5769.498046875
30
0.0
11
8364.5390625
21
5718.0
31
0.0
  0
LINE
 8
BLOCK_2
10
8364.5390625
20
5718.0
30
0.0
11
8424.01171875
21
5682.99609375
31
0.0
  0
LINE
 8
BLOCK_2
10
8424.01171875
20
5682.99609375
30
0.0
11
8424.01171875
21
5667.99609375
31
0.0
  0
LINE
 8
BLOCK_2
10
8424.01171875
20
5667.99609375
30
0.0
11
8382.01171875
21
5661.498046875
31
0.0
  0
LINE
 8
BLOCK_2
10
8382.01171875
20
5661.498046875
30
0.0
11
8394.26953125
21
5620.998046875
31
0.0
  0
LINE
 8
BLOCK_2
10
8394.26953125
20
5620.998046875
30
0.0
11
8424.01171875
21
5616.375
31
0.0
  0
LINE
 8
BLOCK_2
10
8424.01171875
20
5616.375
30
0.0
11
8424.01171875
21
5637.99609375
31
0.0
  0
LINE
 8
BLOCK_2
10
8424.01171875
20
5637.99609375
30
0.0
11
8488.0078125
21
5641.248046875
31
0.0
  0
LINE
 8
BLOCK_2
10
8488.0078125
20
5641.248046875
30
0.0
11
8508.01171875
21
5616.375
31
0.0
  0
LINE
 8
BLOCK_2
10
8508.01171875
20
5616.375
30
0.0
11
8488.0078125
21
5590.37109375
31
0.0
  0
LINE
 8
BLOCK_2
10
8488.0078125
20
5590.37109375
30
0.0
11
8544.01171875
21
5586.0
31
0.0
  0
LINE
 8
BLOCK_2
10
8544.01171875
20
5586.0
30
0.0
11
8554.0078125
21
5548.001953125
31
0.0
  0
LINE
 8
BLOCK_2
10
8554.0078125
20
5548.001953125
30
0.0
11
8626.0078125
21
5548.001953125
31
0.0
  0
LINE
 8
BLOCK_2
10
8626.0078125
20
5548.001953125
30
0.0
11
8626.0078125
21
5533.001953125
31
0.0
  0
LINE
 8
BLOCK_2
10
8626.0078125
20
5533.001953125
30
0.0
11
8696.00390625
21
5533.001953125
31
0.0
  0
LINE
 8
BLOCK_2
10
8696.00390625
20
5533.001953125
30
0.0
11
8724.01171875
21
5518.001953125
31
0.0
  0
LINE
 8
BLOCK_2
10
8724.01171875
20
5518.001953125
30
0.0
11
8710.0078125
21
5486.00390625
31
0.0
  0
LINE
 8
BLOCK_2
10
8710.0078125
20
5486.00390625
30
0.0
11
8724.01171875
21
5462.37890625
31
0.0
  0
LINE
 8
BLOCK_2
10
8724.01171875
20
5462.37890625
30
0.0
11
8661.01171875
21
5448.75
31
0.0
  0
LINE
 8
BLOCK_2
10
8661.01171875
20
5448.75
30
0.0
11
8590.0078125
21
5341.998046875
31
0.0
  0
LINE
 8
BLOCK_2
10
8590.0078125
20
5341.998046875
30
0.0
11
8590.0078125
21
5193.0
31
0.0
  0
LINE
 8
BLOCK_2
10
8590.0078125
20
5193.0
30
0.0
11
8724.01171875
21
5179.998046875
31
0.0
  0
LINE
 8
BLOCK_2
10
8724.01171875
20
5179.998046875
30
0.0
11
8788.0078125
21
5205.99609375
31
0.0
  0
LINE
 8
BLOCK_2
10
8294.015625
20
6306.0
30
0.0
11
8294.00390625
21
6324.0
31
0.0
  0
LINE
 8
BLOCK_2
10
8294.00390625
20
6324.0
30
0.0
11
8240.00390625
21
6343.998046875
31
0.0
  0
LINE
 8
BLOCK_2
10
8240.00390625
20
6343.998046875
30
0.0
11
8162.015625
21
6324.0
31
0.0
  0
LINE
 8
BLOCK_2
10
8162.015625
20
6324.0
30
0.0
11
8162.015625
21
6295.998046875
31
0.0
  0
LINE
 8
BLOCK_2
10
8162.015625
20
6295.998046875
30
0.0
11
8114.015625
21
6259.998046875
31
0.0
  0
LINE
 8
BLOCK_2
10
8114.015625
20
6259.998046875
30
0.0
11
8086.0078125
21
6285.99609375
31
0.0
  0
LINE
 8
BLOCK_2
10
8086.0078125
20
6285.99609375
30
0.0
11
8049.01171875
21
6285.99609375
31
0.0
  0
LINE
 8
BLOCK_2
10
8049.01171875
20
6285.99609375
30
0.0
11
7984.0078125
21
6310.5
31
0.0
  0
LINE
 8
BLOCK_2
10
7984.0078125
20
6310.5
30
0.0
11
7968.01171875
21
6295.998046875
31
0.0
  0
LINE
 8
BLOCK_2
10
7968.01171875
20
6295.998046875
30
0.0
11
8016.50390625
21
6259.998046875
31
0.0
  0
LINE
 8
BLOCK_2
10
8016.50390625
20
6259.998046875
30
0.0
11
8067.50390625
21
6259.998046875
31
0.0
  0
LINE
 8
BLOCK_2
10
8067.50390625
20
6259.998046875
30
0.0
11
8086.0078125
21
6210.0
31
0.0
  0
LINE
 8
BLOCK_2
10
8086.0078125
20
6210.0
30
0.0
11
8076.76171875
21
6187.998046875
31
0.0
  0
LINE
 8
BLOCK_2
10
8076.76171875
20
6187.998046875
30
0.0
11
8100.01171875
21
6165.99609375
31
0.0
  0
LINE
 8
BLOCK_2
10
8100.01171875
20
6165.99609375
30
0.0
11
7958.015625
21
6069.99609375
31
0.0
  0
LINE
 8
BLOCK_2
10
7958.015625
20
6069.99609375
30
0.0
11
7904.015625
21
5953.998046875
31
0.0
  0
LINE
 8
BLOCK_2
10
7904.015625
20
5953.998046875
30
0.0
11
7904.015625
21
5917.998046875
31
0.0
  0
LINE
 8
BLOCK_2
10
7904.015625
20
5917.998046875
30
0.0
11
7984.0078125
21
5917.998046875
31
0.0
  0
LINE
 8
BLOCK_2
10
7984.0078125
20
5917.998046875
30
0.0
11
7968.01171875
21
5751.99609375
31
0.0
  0
LINE
 8
BLOCK_2
10
7968.01171875
20
5751.99609375
30
0.0
11
8042.00390625
21
5734.998046875
31
0.0
  0
LINE
 8
BLOCK_2
10
8042.00390625
20
5734.998046875
30
0.0
11
8042.00390625
21
5718.0
31
0.0
  0
LINE
 8
BLOCK_2
10
8042.00390625
20
5718.0
30
0.0
11
8076.76171875
21
5707.998046875
31
0.0
  0
LINE
 8
BLOCK_2
10
8076.76171875
20
5707.998046875
30
0.0
11
8088.38671875
21
5652.99609375
31
0.0
  0
LINE
 8
BLOCK_2
10
8088.38671875
20
5652.99609375
30
0.0
11
8059.3828125
21
5628.80859375
31
0.0
  0
LINE
 8
BLOCK_2
10
8059.3828125
20
5628.80859375
30
0.0
11
8082.57421875
21
5603.373046875
31
0.0
  0
LINE
 8
BLOCK_2
10
8082.57421875
20
5603.373046875
30
0.0
11
8100.01171875
21
5567.00390625
31
0.0
  0
LINE
 8
BLOCK_2
10
8100.01171875
20
5567.00390625
30
0.0
11
8042.00390625
21
5525.501953125
31
0.0
  0
LINE
 8
BLOCK_2
10
8042.00390625
20
5525.501953125
30
0.0
11
8042.00390625
21
5502.0
31
0.0
  0
LINE
 8
BLOCK_2
10
8042.00390625
20
5502.0
30
0.0
11
8005.0078125
21
5490.99609375
31
0.0
  0
LINE
 8
BLOCK_2
10
8005.0078125
20
5490.99609375
30
0.0
11
8023.51171875
21
5474.19140625
31
0.0
  0
LINE
 8
BLOCK_2
10
8023.51171875
20
5474.19140625
30
0.0
11
8042.00390625
21
5462.37890625
31
0.0
  0
LINE
 8
BLOCK_2
10
8042.00390625
20
5462.37890625
30
0.0
11
8023.51171875
21
5442.375
31
0.0
  0
LINE
 8
BLOCK_2
10
8023.51171875
20
5442.375
30
0.0
11
7984.0078125
21
5395.37109375
31
0.0
  0
LINE
 8
BLOCK_2
10
7984.0078125
20
5395.37109375
30
0.0
11
7944.01171875
21
5385.0
31
0.0
  0
LINE
 8
BLOCK_2
10
7944.01171875
20
5385.0
30
0.0
11
8003.75390625
21
5320.998046875
31
0.0
  0
LINE
 8
BLOCK_2
10
8003.75390625
20
5320.998046875
30
0.0
11
8042.00390625
21
5320.998046875
31
0.0
  0
LINE
 8
BLOCK_2
10
8042.00390625
20
5320.998046875
30
0.0
11
8042.00390625
21
5304.0
31
0.0
  0
LINE
 8
BLOCK_2
10
8042.00390625
20
5304.0
30
0.0
11
8023.51171875
21
5277.99609375
31
0.0
  0
LINE
 8
BLOCK_2
10
8023.51171875
20
5277.99609375
30
0.0
11
8059.3828125
21
5265.99609375
31
0.0
  0
LINE
 8
BLOCK_2
10
8059.3828125
20
5265.99609375
30
0.0
11
8032.7578125
21
5241.99609375
31
0.0
  0
LINE
 8
BLOCK_2
10
8032.7578125
20
5241.99609375
30
0.0
11
8032.7578125
21
5229.99609375
31
0.0
  0
LINE
 8
BLOCK_2
10
8032.7578125
20
5229.99609375
30
0.0
11
8059.3828125
21
5217.99609375
31
0.0
  0
LINE
 8
BLOCK_2
10
8059.3828125
20
5217.99609375
30
0.0
11
8059.3828125
21
5193.0
31
0.0
  0
LINE
 8
BLOCK_2
10
8059.3828125
20
5193.0
30
0.0
11
8014.25390625
21
5179.998046875
31
0.0
  0
LINE
 8
BLOCK_2
10
8014.25390625
20
5179.998046875
30
0.0
11
7984.0078125
21
5179.998046875
31
0.0
  0
LINE
 8
BLOCK_2
10
7984.0078125
20
5179.998046875
30
0.0
11
7954.0078125
21
5142.0
31
0.0
  0
LINE
 8
BLOCK_2
10
7954.0078125
20
5142.0
30
0.0
11
7904.015625
21
5142.0
31
0.0
  0
LINE
 8
BLOCK_2
10
7904.015625
20
5142.0
30
0.0
11
7944.01171875
21
5113.998046875
31
0.0
  0
LINE
 8
BLOCK_2
10
7944.01171875
20
5113.998046875
30
0.0
11
7954.0078125
21
5103.99609375
31
0.0
  0
LINE
 8
BLOCK_2
10
7954.0078125
20
5103.99609375
30
0.0
11
7954.0078125
21
5077.998046875
31
0.0
  0
LINE
 8
BLOCK_2
10
7954.0078125
20
5077.998046875
30
0.0
11
7954.0078125
21
5052.99609375
31
0.0
  0
LINE
 8
BLOCK_2
10
7954.0078125
20
5052.99609375
30
0.0
11
7984.0078125
21
5041.998046875
31
0.0
  0
LINE
 8
BLOCK_2
10
7984.0078125
20
5041.998046875
30
0.0
11
7984.0078125
21
5010.0
31
0.0
  0
LINE
 8
BLOCK_2
10
7984.0078125
20
5010.0
30
0.0
11
8022.87890625
21
5010.0
31
0.0
  0
LINE
 8
BLOCK_2
10
8022.87890625
20
5010.0
30
0.0
11
8032.7578125
21
5010.0
31
0.0
  0
LINE
 8
BLOCK_2
10
8032.7578125
20
5010.0
30
0.0
11
8032.7578125
21
4870.001953125
31
0.0
  0
LINE
 8
BLOCK_2
10
8032.7578125
20
4870.001953125
30
0.0
11
8059.3828125
21
4849.998046875
31
0.0
  0
LINE
 8
BLOCK_2
10
8059.3828125
20
4849.998046875
30
0.0
11
8100.01171875
21
4830.0
31
0.0
  0
LINE
 8
BLOCK_2
10
8100.01171875
20
4830.0
30
0.0
11
8138.00390625
21
4830.0
31
0.0
  0
LINE
 8
BLOCK_2
10
8138.00390625
20
4830.0
30
0.0
11
8138.00390625
21
4813.998046875
31
0.0
  0
LINE
 8
BLOCK_2
10
8138.00390625
20
4813.998046875
30
0.0
11
8119.0078125
21
4800.99609375
31
0.0
  0
LINE
 8
BLOCK_2
10
8119.0078125
20
4800.99609375
30
0.0
11
8138.00390625
21
4776.0
31
0.0
  0
LINE
 8
BLOCK_2
10
8138.00390625
20
4776.0
30
0.0
11
8119.0078125
21
4752.0
31
0.0
  0
LINE
 8
BLOCK_2
10
8119.0078125
20
4752.0
30
0.0
11
8138.00390625
21
4723.998046875
31
0.0
  0
LINE
 8
BLOCK_2
10
8138.00390625
20
4723.998046875
30
0.0
11
8138.00390625
21
4354.001953125
31
0.0
  0
LINE
 8
BLOCK_2
10
8138.00390625
20
4354.001953125
30
0.0
11
8086.0078125
21
4333.001953125
31
0.0
  0
LINE
 8
BLOCK_2
10
8086.0078125
20
4333.001953125
30
0.0
11
8086.0078125
21
4181.49609375
31
0.0
  0
LINE
 8
BLOCK_2
10
8086.0078125
20
4181.49609375
30
0.0
11
8052.01171875
21
4181.49609375
31
0.0
  0
LINE
 8
BLOCK_2
10
8052.01171875
20
4181.49609375
30
0.0
11
8028.01171875
21
4105.998046875
31
0.0
  0
LINE
 8
BLOCK_2
10
8028.01171875
20
4105.998046875
30
0.0
11
8008.0078125
21
4066.5
31
0.0
  0
LINE
 8
BLOCK_2
10
8008.0078125
20
4066.5
30
0.0
11
8028.01171875
21
4056.0
31
0.0
  0
LINE
 8
BLOCK_2
10
8028.01171875
20
4056.0
30
0.0
11
8028.01171875
21
4015.998046875
31
0.0
  0
LINE
 8
BLOCK_2
10
8028.01171875
20
4015.998046875
30
0.0
11
8040.01171875
21
3973.998046875
31
0.0
  0
LINE
 8
BLOCK_2
10
8040.01171875
20
3973.998046875
30
0.0
11
8086.0078125
21
3942.0
31
0.0
  0
LINE
 8
BLOCK_2
10
8086.0078125
20
3942.0
30
0.0
11
8069.00390625
21
3894.0
31
0.0
  0
LINE
 8
BLOCK_2
10
8069.00390625
20
3894.0
30
0.0
11
8096.015625
21
3894.0
31
0.0
  0
LINE
 8
BLOCK_2
10
8096.015625
20
3894.0
30
0.0
11
8096.015625
21
3882.0
31
0.0
  0
LINE
 8
BLOCK_2
10
8096.015625
20
3882.0
30
0.0
11
8122.0078125
21
3882.0
31
0.0
  0
LINE
 8
BLOCK_2
10
8122.0078125
20
3882.0
30
0.0
11
8138.00390625
21
3843.99609375
31
0.0
  0
LINE
 8
BLOCK_2
10
8138.00390625
20
3843.99609375
30
0.0
11
8194.0078125
21
3823.998046875
31
0.0
  0
LINE
 8
BLOCK_2
10
8194.0078125
20
3823.998046875
30
0.0
11
8194.0078125
21
3810.0
31
0.0
  0
LINE
 8
BLOCK_2
10
8194.0078125
20
3810.0
30
0.0
11
8222.015625
21
3787.998046875
31
0.0
  0
LINE
 8
BLOCK_2
10
8222.015625
20
3787.998046875
30
0.0
11
8222.015625
21
3757.998046875
31
0.0
  0
LINE
 8
BLOCK_2
10
8222.015625
20
3757.998046875
30
0.0
11
8182.0078125
21
3743.00390625
31
0.0
  0
LINE
 8
BLOCK_2
10
8182.0078125
20
3743.00390625
30
0.0
11
8122.0078125
21
3757.998046875
31
0.0
  0
LINE
 8
BLOCK_2
10
8122.0078125
20
3757.998046875
30
0.0
11
8034.01171875
21
3735.50390625
31
0.0
  0
LINE
 8
BLOCK_2
10
8034.01171875
20
3735.50390625
30
0.0
11
8028.01171875
21
3717.99609375
31
0.0
  0
LINE
 8
BLOCK_2
10
8028.01171875
20
3717.99609375
30
0.0
11
8069.00390625
21
3708.0
31
0.0
  0
LINE
 8
BLOCK_2
10
8069.00390625
20
3708.0
30
0.0
11
8048.5078125
21
3690.0
31
0.0
  0
LINE
 8
BLOCK_2
10
8048.5078125
20
3690.0
30
0.0
11
8048.5078125
21
3661.998046875
31
0.0
  0
LINE
 8
BLOCK_2
10
8058.76171875
20
3661.998046875
30
0.0
11
8082.50390625
21
3645.99609375
31
0.0
  0
LINE
 8
BLOCK_2
10
8082.50390625
20
3645.99609375
30
0.0
11
8034.01171875
21
3645.99609375
31
0.0
  0
LINE
 8
BLOCK_2
10
8034.01171875
20
3645.99609375
30
0.0
11
8018.00390625
21
3613.998046875
31
0.0
  0
LINE
 8
BLOCK_2
10
8018.00390625
20
3613.998046875
30
0.0
11
8070.6328125
21
3522.263671875
31
0.0
  0
LINE
 8
BLOCK_2
10
8070.6328125
20
3522.263671875
30
0.0
11
8109.01171875
21
3492.0
31
0.0
  0
LINE
 8
BLOCK_2
10
8109.01171875
20
3492.0
30
0.0
11
8109.01171875
21
3474.0
31
0.0
  0
LINE
 8
BLOCK_2
10
8109.01171875
20
3474.0
30
0.0
11
8018.00390625
21
3474.0
31
0.0
  0
LINE
 8
BLOCK_2
10
8018.00390625
20
3474.0
30
0.0
11
7962.01171875
21
3453.99609375
31
0.0
  0
LINE
 8
BLOCK_2
10
7962.01171875
20
3453.99609375
30
0.0
11
7954.0078125
21
3414.0
31
0.0
  0
LINE
 8
BLOCK_2
10
7954.0078125
20
3414.0
30
0.0
11
7942.0078125
21
3333.99609375
31
0.0
  0
LINE
 8
BLOCK_2
10
7942.0078125
20
3333.99609375
30
0.0
11
7914.01171875
21
3316.5234375
31
0.0
  0
LINE
 8
BLOCK_2
10
7914.01171875
20
3316.5234375
30
0.0
11
7914.01171875
21
3279.99609375
31
0.0
  0
LINE
 8
BLOCK_2
10
7914.01171875
20
3279.99609375
30
0.0
11
7948.0078125
21
3279.99609375
31
0.0
  0
LINE
 8
BLOCK_2
10
7948.0078125
20
3279.99609375
30
0.0
11
7958.00390625
21
3265.998046875
31
0.0
  0
LINE
 8
BLOCK_2
10
7958.00390625
20
3265.998046875
30
0.0
11
8006.00390625
21
3265.998046875
31
0.0
  0
LINE
 8
BLOCK_2
10
8006.00390625
20
3265.998046875
30
0.0
11
8006.00390625
21
3183.99609375
31
0.0
  0
LINE
 8
BLOCK_2
10
8006.00390625
20
3183.99609375
30
0.0
11
8020.0078125
21
3150.0
31
0.0
  0
LINE
 8
BLOCK_2
10
8020.0078125
20
3150.0
30
0.0
11
8018.00390625
21
3109.998046875
31
0.0
  0
LINE
 8
BLOCK_2
10
8018.00390625
20
3109.998046875
30
0.0
11
8089.81640625
21
3109.998046875
31
0.0
  0
LINE
 8
BLOCK_2
10
8089.81640625
20
3109.998046875
30
0.0
11
8089.81640625
21
3037.998046875
31
0.0
  0
LINE
 8
BLOCK_2
10
8089.81640625
20
3037.998046875
30
0.0
11
8006.00390625
21
3037.998046875
31
0.0
  0
LINE
 8
BLOCK_2
10
8006.00390625
20
3037.998046875
30
0.0
11
8006.00390625
21
2905.998046875
31
0.0
  0
LINE
 8
BLOCK_2
10
8006.00390625
20
2905.998046875
30
0.0
11
8063.5078125
21
2860.001953125
31
0.0
  0
LINE
 8
BLOCK_2
10
8063.5078125
20
2860.001953125
30
0.0
11
8020.0078125
21
2844.0
31
0.0
  0
LINE
 8
BLOCK_2
10
8020.0078125
20
2844.0
30
0.0
11
7902.01171875
21
2844.0
31
0.0
  0
LINE
 8
BLOCK_2
10
7902.01171875
20
2844.0
30
0.0
11
7866.01171875
21
2869.998046875
31
0.0
  0
LINE
 8
BLOCK_2
10
7866.01171875
20
2869.998046875
30
0.0
11
7688.00390625
21
2869.998046875
31
0.0
  0
LINE
 8
BLOCK_2
10
7676.00390625
20
2869.998046875
30
0.0
11
7658.00390625
21
2883.0
31
0.0
  0
LINE
 8
BLOCK_2
10
7658.00390625
20
2883.0
30
0.0
11
7632.01171875
21
2869.998046875
31
0.0
  0
LINE
 8
BLOCK_2
10
7632.01171875
20
2869.998046875
30
0.0
11
7602.01171875
21
2876.49609375
31
0.0
  0
LINE
 8
BLOCK_2
10
7602.01171875
20
2876.49609375
30
0.0
11
7592.00390625
21
2856.99609375
31
0.0
  0
LINE
 8
BLOCK_2
10
7592.00390625
20
2856.99609375
30
0.0
11
7617.01171875
21
2815.998046875
31
0.0
  0
LINE
 8
BLOCK_2
10
7617.01171875
20
2815.998046875
30
0.0
11
7688.00390625
21
2697.99609375
31
0.0
  0
LINE
 8
BLOCK_2
10
7688.00390625
20
2697.99609375
30
0.0
11
7718.00390625
21
2667.99609375
31
0.0
  0
LINE
 8
BLOCK_2
10
7718.00390625
20
2667.99609375
30
0.0
11
7703.00390625
21
2593.998046875
31
0.0
  0
LINE
 8
BLOCK_2
10
7703.00390625
20
2593.998046875
30
0.0
11
7730.00390625
21
2581.998046875
31
0.0
  0
LINE
 8
BLOCK_2
10
7730.00390625
20
2581.998046875
30
0.0
11
7730.00390625
21
2520.0
31
0.0
  0
LINE
 8
BLOCK_2
10
7730.00390625
20
2520.0
30
0.0
11
7754.00390625
21
2451.99609375
31
0.0
  0
LINE
 8
BLOCK_2
10
7754.00390625
20
2451.99609375
30
0.0
11
7792.0078125
21
2427.99609375
31
0.0
  0
LINE
 8
BLOCK_2
10
7792.0078125
20
2427.99609375
30
0.0
11
7814.00390625
21
2391.99609375
31
0.0
  0
LINE
 8
BLOCK_2
10
7814.00390625
20
2391.99609375
30
0.0
11
7814.00390625
21
2370.0
31
0.0
  0
LINE
 8
BLOCK_2
10
7814.00390625
20
2370.0
30
0.0
11
7866.01171875
21
2293.998046875
31
0.0
  0
LINE
 8
BLOCK_2
10
7866.01171875
20
2293.998046875
30
0.0
11
7866.01171875
21
2277.99609375
31
0.0
  0
LINE
 8
BLOCK_2
10
7866.01171875
20
2277.99609375
30
0.0
11
7848.01171875
21
2251.998046875
31
0.0
  0
LINE
 8
BLOCK_2
10
7848.01171875
20
2251.998046875
30
0.0
11
7866.01171875
21
2227.998046875
31
0.0
  0
LINE
 8
BLOCK_2
10
7866.01171875
20
2227.998046875
30
0.0
11
7866.01171875
21
2202.0
31
0.0
  0
LINE
 8
BLOCK_2
10
7866.01171875
20
2202.0
30
0.0
11
7928.00390625
21
2175.99609375
31
0.0
  0
LINE
 8
BLOCK_2
10
7928.00390625
20
2175.99609375
30
0.0
11
7948.0078125
21
2188.998046875
31
0.0
  0
LINE
 8
BLOCK_2
10
7948.0078125
20
2188.998046875
30
0.0
11
7982.00390625
21
2202.0
31
0.0
  0
LINE
 8
BLOCK_2
10
7982.00390625
20
2202.0
30
0.0
11
8006.00390625
21
2195.49609375
31
0.0
  0
LINE
 8
BLOCK_2
10
8006.00390625
20
2195.49609375
30
0.0
11
8020.0078125
21
2215.998046875
31
0.0
  0
LINE
 8
BLOCK_2
10
8616.01171875
20
2860.001953125
30
0.0
11
8714.015625
21
2905.998046875
31
0.0
  0
LINE
 8
BLOCK_2
10
8714.015625
20
2905.998046875
30
0.0
11
8756.015625
21
2959.998046875
31
0.0
  0
LINE
 8
BLOCK_2
10
8756.015625
20
2959.998046875
30
0.0
11
8756.015625
21
2980.001953125
31
0.0
  0
LINE
 8
BLOCK_2
10
8756.015625
20
2980.001953125
30
0.0
11
8735.015625
21
3006.0
31
0.0
  0
LINE
 8
BLOCK_2
10
8735.015625
20
3006.0
30
0.0
11
8745.515625
21
3109.998046875
31
0.0
  0
LINE
 8
BLOCK_2
10
8745.515625
20
3109.998046875
30
0.0
11
8756.015625
21
3129.99609375
31
0.0
  0
LINE
 8
BLOCK_2
10
8756.015625
20
3129.99609375
30
0.0
11
8740.265625
21
3150.0
31
0.0
  0
LINE
 8
BLOCK_2
10
8740.265625
20
3150.0
30
0.0
11
8714.015625
21
3123.99609375
31
0.0
  0
LINE
 8
BLOCK_2
10
8727.140625
20
3123.99609375
30
0.0
11
8636.015625
21
3109.998046875
31
0.0
  0
LINE
 8
BLOCK_2
10
8636.015625
20
3109.998046875
30
0.0
11
8636.015625
21
3094.001953125
31
0.0
  0
LINE
 8
BLOCK_2
10
8636.015625
20
3094.001953125
30
0.0
11
8562.01171875
21
3094.001953125
31
0.0
  0
LINE
 8
BLOCK_2
10
8562.01171875
20
3094.001953125
30
0.0
11
8554.0078125
21
3109.998046875
31
0.0
  0
LINE
 8
BLOCK_2
10
8554.0078125
20
3109.998046875
30
0.0
11
8518.0078125
21
3109.998046875
31
0.0
  0
LINE
 8
BLOCK_2
10
8518.0078125
20
3109.998046875
30
0.0
11
8496.01171875
21
3183.99609375
31
0.0
  0
LINE
 8
BLOCK_2
10
8496.01171875
20
3183.99609375
30
0.0
11
8444.015625
21
3183.99609375
31
0.0
  0
LINE
 8
BLOCK_2
10
8444.015625
20
3183.99609375
30
0.0
11
8360.015625
21
3210.0
31
0.0
  0
LINE
 8
BLOCK_2
10
8360.015625
20
3210.0
30
0.0
11
8336.015625
21
3279.99609375
31
0.0
  0
LINE
 8
BLOCK_2
10
8336.015625
20
3279.99609375
30
0.0
11
8312.015625
21
3289.998046875
31
0.0
  0
LINE
 8
BLOCK_2
10
8312.015625
20
3289.998046875
30
0.0
11
8290.0078125
21
3373.998046875
31
0.0
  0
LINE
 8
BLOCK_2
10
8290.0078125
20
3373.998046875
30
0.0
11
8336.015625
21
3403.998046875
31
0.0
  0
LINE
 8
BLOCK_2
10
8336.015625
20
3403.998046875
30
0.0
11
8376.01171875
21
3414.0
31
0.0
  0
LINE
 8
BLOCK_2
10
8376.01171875
20
3414.0
30
0.0
11
8376.01171875
21
3433.998046875
31
0.0
  0
LINE
 8
BLOCK_2
10
8376.01171875
20
3433.998046875
30
0.0
11
8348.015625
21
3453.99609375
31
0.0
  0
LINE
 8
BLOCK_2
10
8348.015625
20
3453.99609375
30
0.0
11
8376.01171875
21
3474.0
31
0.0
  0
LINE
 8
BLOCK_2
10
8376.01171875
20
3474.0
30
0.0
11
8362.01953125
21
3507.12890625
31
0.0
  0
LINE
 8
BLOCK_2
10
8362.01953125
20
3507.12890625
30
0.0
11
8313.01171875
21
3507.12890625
31
0.0
  0
LINE
 8
BLOCK_2
10
8313.01171875
20
3507.12890625
30
0.0
11
8313.01171875
21
3558.0
31
0.0
  0
LINE
 8
BLOCK_2
10
8313.01171875
20
3558.0
30
0.0
11
8336.015625
21
3604.001953125
31
0.0
  0
LINE
 8
BLOCK_2
10
8336.015625
20
3604.001953125
30
0.0
11
8384.015625
21
3645.99609375
31
0.0
  0
LINE
 8
BLOCK_2
10
8384.015625
20
3645.99609375
30
0.0
11
8360.015625
21
3661.998046875
31
0.0
  0
LINE
 8
BLOCK_2
10
8360.015625
20
3661.998046875
30
0.0
11
8369.015625
21
3708.0
31
0.0
  0
LINE
 8
BLOCK_2
10
8369.015625
20
3708.0
30
0.0
11
8402.015625
21
3712.998046875
31
0.0
  0
LINE
 8
BLOCK_2
10
8402.015625
20
3712.998046875
30
0.0
11
8470.01953125
21
3712.998046875
31
0.0
  0
LINE
 8
BLOCK_2
10
8470.01953125
20
3712.998046875
30
0.0
11
8496.01171875
21
3735.50390625
31
0.0
  0
LINE
 8
BLOCK_2
10
8496.01171875
20
3735.50390625
30
0.0
11
8554.0078125
21
3735.50390625
31
0.0
  0
LINE
 8
BLOCK_2
10
8554.0078125
20
3735.50390625
30
0.0
11
8558.00390625
21
3772.998046875
31
0.0
  0
LINE
 8
BLOCK_2
10
8558.00390625
20
3772.998046875
30
0.0
11
8536.0078125
21
3772.998046875
31
0.0
  0
LINE
 8
BLOCK_2
10
8536.0078125
20
3772.998046875
30
0.0
11
8518.0078125
21
3823.998046875
31
0.0
  0
LINE
 8
BLOCK_2
10
8518.0078125
20
3823.998046875
30
0.0
11
8470.01953125
21
3862.998046875
31
0.0
  0
LINE
 8
BLOCK_2
10
8470.01953125
20
3862.998046875
30
0.0
11
8444.015625
21
3862.998046875
31
0.0
  0
LINE
 8
BLOCK_2
10
8444.015625
20
3862.998046875
30
0.0
11
8457.01171875
21
3894.0
31
0.0
  0
LINE
 8
BLOCK_2
10
8457.01171875
20
3894.0
30
0.0
11
8494.01953125
21
3894.0
31
0.0
  0
LINE
 8
BLOCK_2
10
8494.01953125
20
3894.0
30
0.0
11
8483.015625
21
3957.99609375
31
0.0
  0
LINE
 8
BLOCK_2
10
8475.515625
20
3942.0
30
0.0
11
8496.01171875
21
3984.0
31
0.0
  0
LINE
 8
BLOCK_2
10
8496.01171875
20
3984.0
30
0.0
11
8527.0078125
21
3984.0
31
0.0
  0
LINE
 8
BLOCK_2
10
8527.0078125
20
3984.0
30
0.0
11
8536.0078125
21
4035.99609375
31
0.0
  0
LINE
 8
BLOCK_2
10
8536.0078125
20
4035.99609375
30
0.0
11
8547.01171875
21
4061.25
31
0.0
  0
LINE
 8
BLOCK_2
10
8547.01171875
20
4061.25
30
0.0
11
8570.015625
21
4061.25
31
0.0
  0
LINE
 8
BLOCK_2
10
8570.015625
20
4061.25
30
0.0
11
8590.0078125
21
4105.998046875
31
0.0
  0
LINE
 8
BLOCK_2
10
8590.0078125
20
4105.998046875
30
0.0
11
8580.01171875
21
4156.998046875
31
0.0
  0
LINE
 8
BLOCK_2
10
8580.01171875
20
4156.998046875
30
0.0
11
8602.0078125
21
4192.001953125
31
0.0
  0
LINE
 8
BLOCK_2
10
8602.0078125
20
4192.001953125
30
0.0
11
8602.0078125
21
4228.001953125
31
0.0
  0
LINE
 8
BLOCK_2
10
8602.0078125
20
4228.001953125
30
0.0
11
8657.00390625
21
4257.24609375
31
0.0
  0
LINE
 8
BLOCK_2
10
8657.00390625
20
4257.24609375
30
0.0
11
8676.01171875
21
4282.001953125
31
0.0
  0
LINE
 8
BLOCK_2
10
8676.01171875
20
4282.001953125
30
0.0
11
8657.00390625
21
4296.0
31
0.0
  0
LINE
 8
BLOCK_2
10
8657.00390625
20
4296.0
30
0.0
11
8657.00390625
21
4324.001953125
31
0.0
  0
LINE
 8
BLOCK_2
10
8657.00390625
20
4324.001953125
30
0.0
11
8629.51171875
21
4324.001953125
31
0.0
  0
LINE
 8
BLOCK_2
10
8629.51171875
20
4324.001953125
30
0.0
11
8629.51171875
21
4518.0
31
0.0
  0
LINE
 8
BLOCK_2
10
8629.51171875
20
4518.0
30
0.0
11
8531.5078125
21
4666.001953125
31
0.0
  0
LINE
 8
BLOCK_2
10
8531.5078125
20
4666.001953125
30
0.0
11
8511.50390625
21
4666.001953125
31
0.0
  0
LINE
 8
BLOCK_2
10
8511.50390625
20
4666.001953125
30
0.0
11
8518.0078125
21
4723.998046875
31
0.0
  0
LINE
 8
BLOCK_2
10
8518.0078125
20
4723.998046875
30
0.0
11
8570.015625
21
4723.998046875
31
0.0
  0
LINE
 8
BLOCK_2
10
8570.015625
20
4723.998046875
30
0.0
11
8590.0078125
21
4737.99609375
31
0.0
  0
LINE
 8
BLOCK_2
10
8590.0078125
20
4737.99609375
30
0.0
11
8629.51171875
21
4737.99609375
31
0.0
  0
LINE
 8
BLOCK_2
10
8629.51171875
20
4737.99609375
30
0.0
11
8629.51171875
21
4764.0
31
0.0
  0
LINE
 8
BLOCK_2
10
8629.51171875
20
4764.0
30
0.0
11
8657.00390625
21
4764.0
31
0.0
  0
LINE
 8
BLOCK_2
10
8657.00390625
20
4764.0
30
0.0
11
8609.75390625
21
4813.998046875
31
0.0
  0
LINE
 8
BLOCK_2
10
8609.75390625
20
4813.998046875
30
0.0
11
8690.015625
21
4830.0
31
0.0
  0
LINE
 8
BLOCK_2
10
8690.015625
20
4830.0
30
0.0
11
8676.01171875
21
4879.998046875
31
0.0
  0
LINE
 8
BLOCK_2
10
8676.01171875
20
4879.998046875
30
0.0
11
8774.015625
21
4918.001953125
31
0.0
  0
LINE
 8
BLOCK_2
10
8774.015625
20
4918.001953125
30
0.0
11
8774.015625
21
4993.998046875
31
0.0
  0
LINE
 8
BLOCK_2
10
8774.015625
20
4993.998046875
30
0.0
11
8788.0078125
21
5010.0
31
0.0
  0
LINE
 8
BLOCK_2
10
8788.0078125
20
5010.0
30
0.0
11
8806.0078125
21
5010.0
31
0.0
  0
LINE
 8
BLOCK_2
10
8806.0078125
20
5010.0
30
0.0
11
8838.01171875
21
5041.998046875
31
0.0
  0
LINE
 8
BLOCK_2
10
8838.01171875
20
5041.998046875
30
0.0
11
8896.0078125
21
5025.99609375
31
0.0
  0
LINE
 8
BLOCK_2
10
8896.0078125
20
5025.99609375
30
0.0
11
8912.015625
21
5034.0
31
0.0
  0
LINE
 8
BLOCK_2
10
8912.015625
20
5034.0
30
0.0
11
8886.01171875
21
5113.998046875
31
0.0
  0
LINE
 8
BLOCK_2
10
8886.01171875
20
5113.998046875
30
0.0
11
8904.01171875
21
5127.99609375
31
0.0
  0
LINE
 8
BLOCK_2
10
8904.01171875
20
5127.99609375
30
0.0
11
8867.00390625
21
5179.998046875
31
0.0
  0
LINE
 8
BLOCK_2
10
8867.00390625
20
5179.998046875
30
0.0
11
8838.01171875
21
5205.99609375
31
0.0
  0
LINE
 8
BLOCK_2
10
8838.01171875
20
5205.99609375
30
0.0
11
8788.0078125
21
5205.99609375
31
0.0
  0
LINE
 8
BLOCK_2
10
9214.0078125
20
7122.0
30
0.0
11
9214.0078125
21
6843.99609375
31
0.0
  0
LINE
 8
BLOCK_2
10
9812.00390625
20
7122.0
30
0.0
11
9812.00390625
21
6843.99609375
31
0.0
  0
LINE
 8
BLOCK_2
10
9812.00390625
20
6615.99609375
30
0.0
11
9874.0078125
21
6615.99609375
31
0.0
  0
LINE
 8
BLOCK_2
10
9874.0078125
20
6615.99609375
30
0.0
11
9874.0078125
21
6588.0
31
0.0
  0
LINE
 8
BLOCK_2
10
9874.0078125
20
6588.0
30
0.0
11
9812.00390625
21
6571.998046875
31
0.0
  0
LINE
 8
BLOCK_2
10
9812.00390625
20
6571.998046875
30
0.0
11
9812.00390625
21
6480.99609375
31
0.0
  0
LINE
 8
BLOCK_2
10
9214.0078125
20
6843.99609375
30
0.0
11
9812.00390625
21
6843.99609375
31
0.0
  0
LINE
 8
BLOCK_2
10
10406.00390625
20
7122.0
30
0.0
11
10406.00390625
21
7035.99609375
31
0.0
  0
LINE
 8
BLOCK_2
10
10406.00390625
20
7035.99609375
30
0.0
11
9812.00390625
21
6793.998046875
31
0.0
  0
LINE
 8
BLOCK_2
10
9812.00390625
20
6390.0
30
0.0
11
9788.00390625
21
6378.0
31
0.0
  0
LINE
 8
BLOCK_2
10
9788.00390625
20
6378.0
30
0.0
11
9776.00390625
21
6363.99609375
31
0.0
  0
LINE
 8
BLOCK_2
10
9776.00390625
20
6363.99609375
30
0.0
11
9812.00390625
21
6351.275390625
31
0.0
  0
LINE
 8
BLOCK_2
10
9812.00390625
20
6351.275390625
30
0.0
11
9800.00390625
21
6343.998046875
31
0.0
  0
LINE
 8
BLOCK_2
10
9800.00390625
20
6343.998046875
30
0.0
11
9788.00390625
21
6324.0
31
0.0
  0
LINE
 8
BLOCK_2
10
9788.00390625
20
6324.0
30
0.0
11
9794.00390625
21
6303.24609375
31
0.0
  0
LINE
 8
BLOCK_2
10
9794.00390625
20
6303.24609375
30
0.0
11
9830.00390625
21
6309.99609375
31
0.0
  0
LINE
 8
BLOCK_2
10
9830.00390625
20
6309.99609375
30
0.0
11
9858.01171875
21
6295.998046875
31
0.0
  0
LINE
 8
BLOCK_2
10
9858.01171875
20
6295.998046875
30
0.0
11
9882.01171875
21
6285.99609375
31
0.0
  0
LINE
 8
BLOCK_2
10
9882.01171875
20
6285.99609375
30
0.0
11
9858.01171875
21
6259.998046875
31
0.0
  0
LINE
 8
BLOCK_2
10
9858.01171875
20
6259.998046875
30
0.0
11
9764.00390625
21
6298.248046875
31
0.0
  0
LINE
 8
BLOCK_2
10
9764.00390625
20
6298.248046875
30
0.0
11
9708.01171875
21
6306.62109375
31
0.0
  0
LINE
 8
BLOCK_2
10
9708.01171875
20
6306.62109375
30
0.0
11
9694.0078125
21
6285.99609375
31
0.0
  0
LINE
 8
BLOCK_2
10
9694.0078125
20
6285.99609375
30
0.0
11
9736.0078125
21
6279.123046875
31
0.0
  0
LINE
 8
BLOCK_2
10
9736.0078125
20
6279.123046875
30
0.0
11
9728.00390625
21
6259.998046875
31
0.0
  0
LINE
 8
BLOCK_2
10
9728.00390625
20
6259.998046875
30
0.0
11
9764.00390625
21
6249.498046875
31
0.0
  0
LINE
 8
BLOCK_2
10
9764.00390625
20
6249.498046875
30
0.0
11
9764.00390625
21
6234.99609375
31
0.0
  0
LINE
 8
BLOCK_2
10
9764.00390625
20
6234.99609375
30
0.0
11
9715.0078125
21
6198.99609375
31
0.0
  0
LINE
 8
BLOCK_2
10
9715.0078125
20
6198.99609375
30
0.0
11
9630.01171875
21
6187.998046875
31
0.0
  0
LINE
 8
BLOCK_2
10
9630.01171875
20
6187.998046875
30
0.0
11
9630.01171875
21
6177.0
31
0.0
  0
LINE
 8
BLOCK_2
10
9630.01171875
20
6177.0
30
0.0
11
9576.01171875
21
6154.998046875
31
0.0
  0
LINE
 8
BLOCK_2
10
9576.01171875
20
6154.998046875
30
0.0
11
9544.0078125
21
6132.0
31
0.0
  0
LINE
 8
BLOCK_2
10
9544.0078125
20
6132.0
30
0.0
11
9522.01171875
21
6138.0
31
0.0
  0
LINE
 8
BLOCK_2
10
9522.01171875
20
6138.0
30
0.0
11
9496.0078125
21
6117.99609375
31
0.0
  0
LINE
 8
BLOCK_2
10
9496.0078125
20
6117.99609375
30
0.0
11
9509.00390625
21
6084.99609375
31
0.0
  0
LINE
 8
BLOCK_2
10
9509.00390625
20
6084.99609375
30
0.0
11
9474.01171875
21
6057.0
31
0.0
  0
LINE
 8
BLOCK_2
10
9474.01171875
20
6057.0
30
0.0
11
9496.0078125
21
6033.0
31
0.0
  0
LINE
 8
BLOCK_2
10
9496.0078125
20
6033.0
30
0.0
11
9474.01171875
21
5982.0
31
0.0
  0
LINE
 8
BLOCK_2
10
9474.01171875
20
5982.0
30
0.0
11
9390.01171875
21
5997.99609375
31
0.0
  0
LINE
 8
BLOCK_2
10
9390.01171875
20
5997.99609375
30
0.0
11
9306.01171875
21
5967.99609375
31
0.0
  0
LINE
 8
BLOCK_2
10
9306.01171875
20
5967.99609375
30
0.0
11
9230.00390625
21
5982.0
31
0.0
  0
LINE
 8
BLOCK_2
10
9230.00390625
20
5982.0
30
0.0
11
9190.0078125
21
5967.99609375
31
0.0
  0
LINE
 8
BLOCK_2
10
9190.0078125
20
5967.99609375
30
0.0
11
9210.01171875
21
5935.998046875
31
0.0
  0
LINE
 8
BLOCK_2
10
9210.01171875
20
5935.998046875
30
0.0
11
9268.0078125
21
5935.998046875
31
0.0
  0
LINE
 8
BLOCK_2
10
9268.0078125
20
5935.998046875
30
0.0
11
9239.00390625
21
5905.998046875
31
0.0
  0
LINE
 8
BLOCK_2
10
9239.00390625
20
5905.998046875
30
0.0
11
9268.0078125
21
5898.0
31
0.0
  0
LINE
 8
BLOCK_2
10
9268.0078125
20
5898.0
30
0.0
11
9306.01171875
21
5830.998046875
31
0.0
  0
LINE
 8
BLOCK_2
10
9306.01171875
20
5830.998046875
30
0.0
11
9287.00390625
21
5802.0
31
0.0
  0
LINE
 8
BLOCK_2
10
9287.00390625
20
5802.0
30
0.0
11
9296.5078125
21
5777.748046875
31
0.0
  0
LINE
 8
BLOCK_2
10
9296.5078125
20
5777.748046875
30
0.0
11
9253.51171875
21
5777.748046875
31
0.0
  0
LINE
 8
BLOCK_2
10
9253.51171875
20
5777.748046875
30
0.0
11
9230.00390625
21
5789.87109375
31
0.0
  0
LINE
 8
BLOCK_2
10
9230.00390625
20
5789.87109375
30
0.0
11
9200.00390625
21
5769.498046875
31
0.0
  0
LINE
 8
BLOCK_2
10
9200.00390625
20
5769.498046875
30
0.0
11
9176.00390625
21
5777.748046875
31
0.0
  0
LINE
 8
BLOCK_2
10
9176.00390625
20
5777.748046875
30
0.0
11
9078.01171875
21
5830.998046875
31
0.0
  0
LINE
 8
BLOCK_2
10
9078.01171875
20
5830.998046875
30
0.0
11
8990.00390625
21
5804.373046875
31
0.0
  0
LINE
 8
BLOCK_2
10
8990.00390625
20
5804.373046875
30
0.0
11
8980.0078125
21
5835.0
31
0.0
  0
LINE
 8
BLOCK_2
10
8980.0078125
20
5835.0
30
0.0
11
9022.0078125
21
5844.0
31
0.0
  0
LINE
 8
BLOCK_2
10
9022.0078125
20
5844.0
30
0.0
11
9022.0078125
21
5864.49609375
31
0.0
  0
LINE
 8
BLOCK_2
10
9022.0078125
20
5864.49609375
30
0.0
11
8980.0078125
21
5856.0
31
0.0
  0
LINE
 8
BLOCK_2
10
8980.0078125
20
5856.0
30
0.0
11
8980.0078125
21
5872.998046875
31
0.0
  0
LINE
 8
BLOCK_2
10
8980.0078125
20
5872.998046875
30
0.0
11
9022.0078125
21
5898.0
31
0.0
  0
LINE
 8
BLOCK_2
10
9022.0078125
20
5898.0
30
0.0
11
8968.0078125
21
5952.0
31
0.0
  0
LINE
 8
BLOCK_2
10
8968.0078125
20
5952.0
30
0.0
11
9022.0078125
21
5989.998046875
31
0.0
  0
LINE
 8
BLOCK_2
10
9022.0078125
20
5989.998046875
30
0.0
11
9058.0078125
21
5974.998046875
31
0.0
  0
LINE
 8
BLOCK_2
10
9058.0078125
20
5974.998046875
30
0.0
11
9058.0078125
21
5929.998046875
31
0.0
  0
LINE
 8
BLOCK_2
10
9058.0078125
20
5929.998046875
30
0.0
11
9114.01171875
21
5901.99609375
31
0.0
  0
LINE
 8
BLOCK_2
10
9114.01171875
20
5901.99609375
30
0.0
11
9114.01171875
21
5925.0
31
0.0
  0
LINE
 8
BLOCK_2
10
9114.01171875
20
5925.0
30
0.0
11
9188.00390625
21
5925.0
31
0.0
  0
LINE
 8
BLOCK_2
10
9188.00390625
20
5925.0
30
0.0
11
9200.00390625
21
5952.0
31
0.0
  0
LINE
 8
BLOCK_2
10
9296.5078125
20
5777.748046875
30
0.0
11
9241.7578125
21
5734.998046875
31
0.0
  0
LINE
 8
BLOCK_2
10
9241.7578125
20
5734.998046875
30
0.0
11
9253.51171875
21
5726.49609375
31
0.0
  0
LINE
 8
BLOCK_2
10
9253.51171875
20
5726.49609375
30
0.0
11
9253.51171875
21
5700.498046875
31
0.0
  0
LINE
 8
BLOCK_2
10
9253.51171875
20
5700.498046875
30
0.0
11
9215.00390625
21
5707.998046875
31
0.0
  0
LINE
 8
BLOCK_2
10
9215.00390625
20
5707.998046875
30
0.0
11
9200.00390625
21
5661.498046875
31
0.0
  0
LINE
 8
BLOCK_2
10
9200.00390625
20
5661.498046875
30
0.0
11
9166.0078125
21
5616.09375
31
0.0
  0
LINE
 8
BLOCK_2
10
9166.0078125
20
5616.09375
30
0.0
11
9070.0078125
21
5548.001953125
31
0.0
  0
LINE
 8
BLOCK_2
10
9070.0078125
20
5548.001953125
30
0.0
11
9070.0078125
21
5533.001953125
31
0.0
  0
LINE
 8
BLOCK_2
10
9070.0078125
20
5533.001953125
30
0.0
11
9058.0078125
21
5525.501953125
31
0.0
  0
LINE
 8
BLOCK_2
10
9058.0078125
20
5525.501953125
30
0.0
11
9022.0078125
21
5548.001953125
31
0.0
  0
LINE
 8
BLOCK_2
10
9022.0078125
20
5548.001953125
30
0.0
11
8990.00390625
21
5529.251953125
31
0.0
  0
LINE
 8
BLOCK_2
10
8990.00390625
20
5529.251953125
30
0.0
11
9001.0078125
21
5496.498046875
31
0.0
  0
LINE
 8
BLOCK_2
10
9001.0078125
20
5496.498046875
30
0.0
11
8980.0078125
21
5482.59375
31
0.0
  0
LINE
 8
BLOCK_2
10
8980.0078125
20
5482.59375
30
0.0
11
8990.00390625
21
5468.28515625
31
0.0
  0
LINE
 8
BLOCK_2
10
8990.00390625
20
5468.28515625
30
0.0
11
9006.01171875
21
5468.28515625
31
0.0
  0
LINE
 8
BLOCK_2
10
9006.01171875
20
5468.28515625
30
0.0
11
9022.0078125
21
5448.75
31
0.0
  0
LINE
 8
BLOCK_2
10
9022.0078125
20
5448.75
30
0.0
11
9058.0078125
21
5448.75
31
0.0
  0
LINE
 8
BLOCK_2
10
9058.0078125
20
5448.75
30
0.0
11
9078.01171875
21
5418.873046875
31
0.0
  0
LINE
 8
BLOCK_2
10
9078.01171875
20
5418.873046875
30
0.0
11
9096.01171875
21
5390.185546875
31
0.0
  0
LINE
 8
BLOCK_2
10
9096.01171875
20
5390.185546875
30
0.0
11
9070.0078125
21
5365.998046875
31
0.0
  0
LINE
 8
BLOCK_2
10
9070.0078125
20
5365.998046875
30
0.0
11
9022.0078125
21
5365.998046875
31
0.0
  0
LINE
 8
BLOCK_2
10
9022.0078125
20
5365.998046875
30
0.0
11
8995.51171875
21
5378.091796875
31
0.0
  0
LINE
 8
BLOCK_2
10
8995.51171875
20
5378.091796875
30
0.0
11
8980.0078125
21
5404.529296875
31
0.0
  0
LINE
 8
BLOCK_2
10
8980.0078125
20
5404.529296875
30
0.0
11
9006.01171875
21
5418.873046875
31
0.0
  0
LINE
 8
BLOCK_2
10
9006.01171875
20
5418.873046875
30
0.0
11
8980.0078125
21
5442.375
31
0.0
  0
LINE
 8
BLOCK_2
10
8980.0078125
20
5442.375
30
0.0
11
8944.0078125
21
5458.517578125
31
0.0
  0
LINE
 8
BLOCK_2
10
8944.0078125
20
5458.517578125
30
0.0
11
8899.01953125
21
5462.37890625
31
0.0
  0
LINE
 8
BLOCK_2
10
8899.01953125
20
5462.37890625
30
0.0
11
8867.00390625
21
5433.80859375
31
0.0
  0
LINE
 8
BLOCK_2
10
8867.00390625
20
5433.80859375
30
0.0
11
8838.01171875
21
5433.80859375
31
0.0
  0
LINE
 8
BLOCK_2
10
8838.01171875
20
5433.80859375
30
0.0
11
8822.00390625
21
5460.4453125
31
0.0
  0
LINE
 8
BLOCK_2
10
8822.00390625
20
5460.4453125
30
0.0
11
8806.0078125
21
5455.564453125
31
0.0
  0
LINE
 8
BLOCK_2
10
8806.0078125
20
5455.564453125
30
0.0
11
8806.0078125
21
5475.439453125
31
0.0
  0
LINE
 8
BLOCK_2
10
8806.0078125
20
5475.439453125
30
0.0
11
8830.0078125
21
5489.54296875
31
0.0
  0
LINE
 8
BLOCK_2
10
8830.0078125
20
5489.54296875
30
0.0
11
8830.0078125
21
5502.0
31
0.0
  0
LINE
 8
BLOCK_2
10
8830.0078125
20
5502.0
30
0.0
11
8806.0078125
21
5502.0
31
0.0
  0
LINE
 8
BLOCK_2
10
8806.0078125
20
5502.0
30
0.0
11
8806.0078125
21
5529.251953125
31
0.0
  0
LINE
 8
BLOCK_2
10
8806.0078125
20
5529.251953125
30
0.0
11
8788.0078125
21
5538.626953125
31
0.0
  0
LINE
 8
BLOCK_2
10
8788.0078125
20
5538.626953125
30
0.0
11
8781.01171875
21
5582.05078125
31
0.0
  0
LINE
 8
BLOCK_2
10
8781.01171875
20
5582.05078125
30
0.0
11
8806.0078125
21
5590.37109375
31
0.0
  0
LINE
 8
BLOCK_2
10
8806.0078125
20
5590.37109375
30
0.0
11
8830.0078125
21
5590.37109375
31
0.0
  0
LINE
 8
BLOCK_2
10
8830.0078125
20
5590.37109375
30
0.0
11
8830.0078125
21
5616.09375
31
0.0
  0
LINE
 8
BLOCK_2
10
8830.0078125
20
5616.09375
30
0.0
11
8852.5078125
21
5641.248046875
31
0.0
  0
LINE
 8
BLOCK_2
10
8852.5078125
20
5641.248046875
30
0.0
11
8980.0078125
21
5641.248046875
31
0.0
  0
LINE
 8
BLOCK_2
10
8980.0078125
20
5641.248046875
30
0.0
11
8993.00390625
21
5652.99609375
31
0.0
  0
LINE
 8
BLOCK_2
10
8993.00390625
20
5652.99609375
30
0.0
11
9040.0078125
21
5647.125
31
0.0
  0
LINE
 8
BLOCK_2
10
9040.0078125
20
5647.125
30
0.0
11
9058.0078125
21
5652.99609375
31
0.0
  0
LINE
 8
BLOCK_2
10
9058.0078125
20
5652.99609375
30
0.0
11
9046.0078125
21
5675.49609375
31
0.0
  0
LINE
 8
BLOCK_2
10
9046.0078125
20
5675.49609375
30
0.0
11
9068.00390625
21
5700.498046875
31
0.0
  0
LINE
 8
BLOCK_2
10
9068.00390625
20
5700.498046875
30
0.0
11
9127.0078125
21
5688.0
31
0.0
  0
LINE
 8
BLOCK_2
10
9127.0078125
20
5688.0
30
0.0
11
9127.0078125
21
5718.0
31
0.0
  0
LINE
 8
BLOCK_2
10
9118.0078125
20
5718.0
30
0.0
11
9166.0078125
21
5712.99609375
31
0.0
  0
LINE
 8
BLOCK_2
10
9166.0078125
20
5712.99609375
30
0.0
11
9188.00390625
21
5726.49609375
31
0.0
  0
LINE
 8
BLOCK_2
10
9188.00390625
20
5726.49609375
30
0.0
11
9215.00390625
21
5707.998046875
31
0.0
  0
LINE
 8
BLOCK_2
10
8788.0078125
20
5205.99609375
30
0.0
11
8788.0078125
21
5241.99609375
31
0.0
  0
LINE
 8
BLOCK_2
10
8788.0078125
20
5241.99609375
30
0.0
11
8724.01171875
21
5277.99609375
31
0.0
  0
LINE
 8
BLOCK_2
10
8724.01171875
20
5277.99609375
30
0.0
11
8774.015625
21
5290.998046875
31
0.0
  0
LINE
 8
BLOCK_2
10
8774.015625
20
5290.998046875
30
0.0
11
8793.50390625
21
5271.99609375
31
0.0
  0
LINE
 8
BLOCK_2
10
8793.50390625
20
5271.99609375
30
0.0
11
8838.01171875
21
5271.99609375
31
0.0
  0
LINE
 8
BLOCK_2
10
8838.01171875
20
5271.99609375
30
0.0
11
8886.01171875
21
5241.99609375
31
0.0
  0
LINE
 8
BLOCK_2
10
8886.01171875
20
5241.99609375
30
0.0
11
8944.0078125
21
5241.99609375
31
0.0
  0
LINE
 8
BLOCK_2
10
8944.0078125
20
5241.99609375
30
0.0
11
8993.00390625
21
5217.99609375
31
0.0
  0
LINE
 8
BLOCK_2
10
8993.00390625
20
5217.99609375
30
0.0
11
9022.0078125
21
5193.0
31
0.0
  0
LINE
 8
BLOCK_2
10
9022.0078125
20
5193.0
30
0.0
11
9058.0078125
21
5193.0
31
0.0
  0
LINE
 8
BLOCK_2
10
9058.0078125
20
5193.0
30
0.0
11
9068.00390625
21
5217.99609375
31
0.0
  0
LINE
 8
BLOCK_2
10
9068.00390625
20
5217.99609375
30
0.0
11
9014.00390625
21
5265.99609375
31
0.0
  0
LINE
 8
BLOCK_2
10
9014.00390625
20
5265.99609375
30
0.0
11
9030.01171875
21
5304.0
31
0.0
  0
LINE
 8
BLOCK_2
10
9030.01171875
20
5304.0
30
0.0
11
9022.0078125
21
5320.998046875
31
0.0
  0
LINE
 8
BLOCK_2
10
9022.0078125
20
5320.998046875
30
0.0
11
9006.01171875
21
5304.0
31
0.0
  0
LINE
 8
BLOCK_2
10
9006.01171875
20
5304.0
30
0.0
11
8980.0078125
21
5320.998046875
31
0.0
  0
LINE
 8
BLOCK_2
10
8980.0078125
20
5320.998046875
30
0.0
11
9022.0078125
21
5365.998046875
31
0.0
  0
LINE
 8
BLOCK_2
10
9068.00390625
20
5217.99609375
30
0.0
11
9118.0078125
21
5160.99609375
31
0.0
  0
LINE
 8
BLOCK_2
10
9118.0078125
20
5160.99609375
30
0.0
11
9096.01171875
21
5103.99609375
31
0.0
  0
LINE
 8
BLOCK_2
10
9096.01171875
20
5103.99609375
30
0.0
11
9078.01171875
21
5077.998046875
31
0.0
  0
LINE
 8
BLOCK_2
10
9078.01171875
20
5077.998046875
30
0.0
11
9040.0078125
21
5091.0
31
0.0
  0
LINE
 8
BLOCK_2
10
9040.0078125
20
5091.0
30
0.0
11
9041.00390625
21
5132.49609375
31
0.0
  0
LINE
 8
BLOCK_2
10
9041.00390625
20
5132.49609375
30
0.0
11
9014.00390625
21
5127.99609375
31
0.0
  0
LINE
 8
BLOCK_2
10
9014.00390625
20
5127.99609375
30
0.0
11
8986.51171875
21
5091.0
31
0.0
  0
LINE
 8
BLOCK_2
10
8986.51171875
20
5091.0
30
0.0
11
8944.0078125
21
5091.0
31
0.0
  0
LINE
 8
BLOCK_2
10
8944.0078125
20
5091.0
30
0.0
11
8904.01171875
21
5127.99609375
31
0.0
  0
LINE
 8
BLOCK_2
10
8912.015625
20
5034.0
30
0.0
11
8944.0078125
21
4980.0
31
0.0
  0
LINE
 8
BLOCK_2
10
8944.0078125
20
4980.0
30
0.0
11
8980.0078125
21
4980.0
31
0.0
  0
LINE
 8
BLOCK_2
10
8980.0078125
20
4980.0
30
0.0
11
8968.51171875
21
4940.00390625
31
0.0
  0
LINE
 8
BLOCK_2
10
8968.51171875
20
4940.00390625
30
0.0
11
8944.0078125
21
4929.99609375
31
0.0
  0
LINE
 8
BLOCK_2
10
8944.0078125
20
4929.99609375
30
0.0
11
8944.0078125
21
4899.0
31
0.0
  0
LINE
 8
BLOCK_2
10
8944.0078125
20
4899.0
30
0.0
11
8974.25390625
21
4860.0
31
0.0
  0
LINE
 8
BLOCK_2
10
8974.25390625
20
4860.0
30
0.0
11
9040.0078125
21
4813.998046875
31
0.0
  0
LINE
 8
BLOCK_2
10
9040.0078125
20
4813.998046875
30
0.0
11
9040.0078125
21
4776.0
31
0.0
  0
LINE
 8
BLOCK_2
10
9040.0078125
20
4776.0
30
0.0
11
9063.01171875
21
4750.998046875
31
0.0
  0
LINE
 8
BLOCK_2
10
9063.01171875
20
4750.998046875
30
0.0
11
9118.0078125
21
4737.99609375
31
0.0
  0
LINE
 8
BLOCK_2
10
9118.0078125
20
4737.99609375
30
0.0
11
9183.01171875
21
4651.998046875
31
0.0
  0
LINE
 8
BLOCK_2
10
9192.01171875
20
4651.998046875
30
0.0
11
9222.01171875
21
4651.998046875
31
0.0
  0
LINE
 8
BLOCK_2
10
9222.01171875
20
4651.998046875
30
0.0
11
9240.01171875
21
4617.99609375
31
0.0
  0
LINE
 8
BLOCK_2
10
9240.01171875
20
4617.99609375
30
0.0
11
9284.00390625
21
4617.99609375
31
0.0
  0
LINE
 8
BLOCK_2
10
9284.00390625
20
4617.99609375
30
0.0
11
9306.01171875
21
4579.998046875
31
0.0
  0
LINE
 8
BLOCK_2
10
9306.01171875
20
4579.998046875
30
0.0
11
9348.01171875
21
4617.99609375
31
0.0
  0
LINE
 8
BLOCK_2
10
9348.01171875
20
4617.99609375
30
0.0
11
9396.01171875
21
4635.0
31
0.0
  0
LINE
 8
BLOCK_2
10
9396.01171875
20
4635.0
30
0.0
11
9416.00390625
21
4579.998046875
31
0.0
  0
LINE
 8
BLOCK_2
10
9416.00390625
20
4579.998046875
30
0.0
11
9584.00390625
21
4551.99609375
31
0.0
  0
LINE
 8
BLOCK_2
10
9584.00390625
20
4551.99609375
30
0.0
11
9584.00390625
21
4599.0
31
0.0
  0
LINE
 8
BLOCK_2
10
9584.00390625
20
4599.0
30
0.0
11
9648.01171875
21
4617.99609375
31
0.0
  0
LINE
 8
BLOCK_2
10
9648.01171875
20
4617.99609375
30
0.0
11
9648.01171875
21
4635.0
31
0.0
  0
LINE
 8
BLOCK_2
10
9648.01171875
20
4635.0
30
0.0
11
9630.01171875
21
4635.0
31
0.0
  0
LINE
 8
BLOCK_2
10
9630.01171875
20
4635.0
30
0.0
11
9630.01171875
21
4666.001953125
31
0.0
  0
LINE
 8
BLOCK_2
10
9630.01171875
20
4666.001953125
30
0.0
11
9584.00390625
21
4695.0
31
0.0
  0
LINE
 8
BLOCK_2
10
9584.00390625
20
4695.0
30
0.0
11
9550.0078125
21
4744.5
31
0.0
  0
LINE
 8
BLOCK_2
10
9550.0078125
20
4744.5
30
0.0
11
9594.01171875
21
4776.0
31
0.0
  0
LINE
 8
BLOCK_2
10
9594.01171875
20
4776.0
30
0.0
11
9594.01171875
21
4800.99609375
31
0.0
  0
LINE
 8
BLOCK_2
10
9594.01171875
20
4800.99609375
30
0.0
11
9550.0078125
21
4807.5
31
0.0
  0
LINE
 8
BLOCK_2
10
9550.0078125
20
4807.5
30
0.0
11
9540.01171875
21
4914.498046875
31
0.0
  0
LINE
 8
BLOCK_2
10
9540.01171875
20
4914.498046875
30
0.0
11
9572.00390625
21
4980.0
31
0.0
  0
LINE
 8
BLOCK_2
10
9572.00390625
20
4980.0
30
0.0
11
9567.01171875
21
5010.0
31
0.0
  0
LINE
 8
BLOCK_2
10
9567.01171875
20
5010.0
30
0.0
11
9530.00390625
21
5010.0
31
0.0
  0
LINE
 8
BLOCK_2
10
9530.00390625
20
5010.0
30
0.0
11
9486.01171875
21
5047.5
31
0.0
  0
LINE
 8
BLOCK_2
10
9486.01171875
20
5047.5
30
0.0
11
9444.01171875
21
5052.99609375
31
0.0
  0
LINE
 8
BLOCK_2
10
9444.01171875
20
5052.99609375
30
0.0
11
9406.0078125
21
5077.998046875
31
0.0
  0
LINE
 8
BLOCK_2
10
9406.0078125
20
5077.998046875
30
0.0
11
9327.01171875
21
5065.5
31
0.0
  0
LINE
 8
BLOCK_2
10
9327.01171875
20
5065.5
30
0.0
11
9306.01171875
21
5041.998046875
31
0.0
  0
LINE
 8
BLOCK_2
10
9306.01171875
20
5041.998046875
30
0.0
11
9284.00390625
21
5034.0
31
0.0
  0
LINE
 8
BLOCK_2
10
9284.00390625
20
5034.0
30
0.0
11
9284.00390625
21
5010.0
31
0.0
  0
LINE
 8
BLOCK_2
10
9284.00390625
20
5010.0
30
0.0
11
9200.00390625
21
5001.99609375
31
0.0
  0
LINE
 8
BLOCK_2
10
9200.00390625
20
5001.99609375
30
0.0
11
9118.0078125
21
5037.99609375
31
0.0
  0
LINE
 8
BLOCK_2
10
9118.0078125
20
5037.99609375
30
0.0
11
9087.01171875
21
5037.99609375
31
0.0
  0
LINE
 8
BLOCK_2
10
9087.01171875
20
5037.99609375
30
0.0
11
9078.01171875
21
5077.998046875
31
0.0
  0
LINE
 8
BLOCK_2
10
9222.01171875
20
4635.0
30
0.0
11
9222.01171875
21
4518.0
31
0.0
  0
LINE
 8
BLOCK_2
10
9222.01171875
20
4518.0
30
0.0
11
9183.01171875
21
4509.99609375
31
0.0
  0
LINE
 8
BLOCK_2
10
9183.01171875
20
4509.99609375
30
0.0
11
9231.01171875
21
4471.998046875
31
0.0
  0
LINE
 8
BLOCK_2
10
9231.01171875
20
4471.998046875
30
0.0
11
9284.00390625
21
4455.99609375
31
0.0
  0
LINE
 8
BLOCK_2
10
9284.00390625
20
4455.99609375
30
0.0
11
9327.01171875
21
4455.99609375
31
0.0
  0
LINE
 8
BLOCK_2
10
9327.01171875
20
4455.99609375
30
0.0
11
9348.01171875
21
4429.998046875
31
0.0
  0
LINE
 8
BLOCK_2
10
9348.01171875
20
4429.998046875
30
0.0
11
9348.01171875
21
4404.0
31
0.0
  0
LINE
 8
BLOCK_2
10
9348.01171875
20
4404.0
30
0.0
11
9318.01171875
21
4333.001953125
31
0.0
  0
LINE
 8
BLOCK_2
10
9318.01171875
20
4333.001953125
30
0.0
11
9192.01171875
21
4310.00390625
31
0.0
  0
LINE
 8
BLOCK_2
10
9192.01171875
20
4310.00390625
30
0.0
11
9255.01171875
21
4228.001953125
31
0.0
  0
LINE
 8
BLOCK_2
10
9255.01171875
20
4228.001953125
30
0.0
11
9222.01171875
21
4210.001953125
31
0.0
  0
LINE
 8
BLOCK_2
10
9222.01171875
20
4210.001953125
30
0.0
11
9222.01171875
21
4105.998046875
31
0.0
  0
LINE
 8
BLOCK_2
10
9222.01171875
20
4105.998046875
30
0.0
11
9348.01171875
21
4105.998046875
31
0.0
  0
LINE
 8
BLOCK_2
10
9348.01171875
20
4105.998046875
30
0.0
11
9348.01171875
21
3973.998046875
31
0.0
  0
LINE
 8
BLOCK_2
10
9212.015625
20
3973.998046875
30
0.0
11
9348.01171875
21
3973.998046875
31
0.0
  0
LINE
 8
BLOCK_2
10
9808.0078125
20
4039.998046875
30
0.0
11
10078.0078125
21
4039.998046875
31
0.0
  0
LINE
 8
BLOCK_2
10
10078.0078125
20
4039.998046875
30
0.0
11
10078.0078125
21
3862.998046875
31
0.0
  0
LINE
 8
BLOCK_2
10
10078.0078125
20
3862.998046875
30
0.0
11
9808.0078125
21
3862.998046875
31
0.0
  0
LINE
 8
BLOCK_2
10
9808.0078125
20
4509.99609375
30
0.0
11
9794.00390625
21
4551.99609375
31
0.0
  0
LINE
 8
BLOCK_2
10
9794.00390625
20
4551.99609375
30
0.0
11
9780.01171875
21
4542.0
31
0.0
  0
LINE
 8
BLOCK_2
10
9780.01171875
20
4542.0
30
0.0
11
9780.01171875
21
4566.0
31
0.0
  0
LINE
 8
BLOCK_2
10
9780.01171875
20
4566.0
30
0.0
11
9584.00390625
21
4551.99609375
31
0.0
  0
LINE
 8
BLOCK_2
10
9556.0078125
20
4960.001953125
30
0.0
11
9594.01171875
21
4960.001953125
31
0.0
  0
LINE
 8
BLOCK_2
10
9594.01171875
20
4960.001953125
30
0.0
11
9607.0078125
21
4956.0
31
0.0
  0
LINE
 8
BLOCK_2
10
9607.0078125
20
4956.0
30
0.0
11
9639.01171875
21
4956.0
31
0.0
  0
LINE
 8
BLOCK_2
10
9639.01171875
20
4956.0
30
0.0
11
9648.01171875
21
4980.0
31
0.0
  0
LINE
 8
BLOCK_2
10
9648.01171875
20
4980.0
30
0.0
11
9702.01171875
21
4995.0
31
0.0
  0
LINE
 8
BLOCK_2
10
9702.01171875
20
4995.0
30
0.0
11
9702.01171875
21
5028.75
31
0.0
  0
LINE
 8
BLOCK_2
10
9702.01171875
20
5028.75
30
0.0
11
9756.01171875
21
5047.5
31
0.0
  0
LINE
 8
BLOCK_2
10
9756.01171875
20
5047.5
30
0.0
11
9824.00390625
21
5034.0
31
0.0
  0
LINE
 8
BLOCK_2
10
9824.00390625
20
5034.0
30
0.0
11
9844.0078125
21
5022.0
31
0.0
  0
LINE
 8
BLOCK_2
10
9844.0078125
20
5022.0
30
0.0
11
9886.0078125
21
5034.0
31
0.0
  0
LINE
 8
BLOCK_2
10
9886.0078125
20
5034.0
30
0.0
11
9924.01171875
21
5047.5
31
0.0
  0
LINE
 8
BLOCK_2
10
9924.01171875
20
5047.5
30
0.0
11
9943.0078125
21
5073.99609375
31
0.0
  0
LINE
 8
BLOCK_2
10
9943.0078125
20
5073.99609375
30
0.0
11
9960.01171875
21
5084.49609375
31
0.0
  0
LINE
 8
BLOCK_2
10
9960.01171875
20
5084.49609375
30
0.0
11
9982.0078125
21
5053.74609375
31
0.0
  0
LINE
 8
BLOCK_2
10
9982.0078125
20
5053.74609375
30
0.0
11
9971.00390625
21
5005.998046875
31
0.0
  0
LINE
 8
BLOCK_2
10
9971.00390625
20
5005.998046875
30
0.0
11
9960.01171875
21
4987.5
31
0.0
  0
LINE
 8
BLOCK_2
10
9960.01171875
20
4987.5
30
0.0
11
9976.51171875
21
4968.0
31
0.0
  0
LINE
 8
BLOCK_2
10
9976.51171875
20
4968.0
30
0.0
11
9982.0078125
21
4940.00390625
31
0.0
  0
LINE
 8
BLOCK_2
10
9982.0078125
20
4940.00390625
30
0.0
11
9951.50390625
21
4914.498046875
31
0.0
  0
LINE
 8
BLOCK_2
10
9951.50390625
20
4914.498046875
30
0.0
11
9905.00390625
21
4899.0
31
0.0
  0
LINE
 8
BLOCK_2
10
9905.00390625
20
4899.0
30
0.0
11
9924.01171875
21
4879.5
31
0.0
  0
LINE
 8
BLOCK_2
10
9924.01171875
20
4879.5
30
0.0
11
9896.00390625
21
4870.001953125
31
0.0
  0
LINE
 8
BLOCK_2
10
9896.00390625
20
4870.001953125
30
0.0
11
9886.0078125
21
4813.998046875
31
0.0
  0
LINE
 8
BLOCK_2
10
9886.0078125
20
4813.998046875
30
0.0
11
9844.0078125
21
4807.5
31
0.0
  0
LINE
 8
BLOCK_2
10
9844.0078125
20
4807.5
30
0.0
11
9808.0078125
21
4794.99609375
31
0.0
  0
LINE
 8
BLOCK_2
10
9808.0078125
20
4794.99609375
30
0.0
11
9787.0078125
21
4794.99609375
31
0.0
  0
LINE
 8
BLOCK_2
10
9787.0078125
20
4794.99609375
30
0.0
11
9756.01171875
21
4776.0
31
0.0
  0
LINE
 8
BLOCK_2
10
9756.01171875
20
4776.0
30
0.0
11
9771.50390625
21
4750.998046875
31
0.0
  0
LINE
 8
BLOCK_2
10
9771.50390625
20
4750.998046875
30
0.0
11
9729.01171875
21
4723.998046875
31
0.0
  0
LINE
 8
BLOCK_2
10
9729.01171875
20
4723.998046875
30
0.0
11
9607.0078125
21
4723.998046875
31
0.0
  0
LINE
 8
BLOCK_2
10
9607.0078125
20
4723.998046875
30
0.0
11
9550.0078125
21
4744.5
31
0.0
  0
LINE
 8
BLOCK_2
10
9824.00390625
20
5034.0
30
0.0
11
9844.0078125
21
5071.74609375
31
0.0
  0
LINE
 8
BLOCK_2
10
9844.0078125
20
5071.74609375
30
0.0
11
9834.01171875
21
5103.99609375
31
0.0
  0
LINE
 8
BLOCK_2
10
9834.01171875
20
5103.99609375
30
0.0
11
9800.00390625
21
5113.998046875
31
0.0
  0
LINE
 8
BLOCK_2
10
9800.00390625
20
5113.998046875
30
0.0
11
9788.00390625
21
5154.0
31
0.0
  0
LINE
 8
BLOCK_2
10
9788.00390625
20
5154.0
30
0.0
11
9776.00390625
21
5217.99609375
31
0.0
  0
LINE
 8
BLOCK_2
10
9776.00390625
20
5217.99609375
30
0.0
11
9763.7578125
21
5223.99609375
31
0.0
  0
LINE
 8
BLOCK_2
10
9763.7578125
20
5223.99609375
30
0.0
11
9750.2578125
21
5241.99609375
31
0.0
  0
LINE
 8
BLOCK_2
10
9750.2578125
20
5241.99609375
30
0.0
11
9830.00390625
21
5265.99609375
31
0.0
  0
LINE
 8
BLOCK_2
10
9830.00390625
20
5265.99609375
30
0.0
11
9839.00390625
21
5290.998046875
31
0.0
  0
LINE
 8
BLOCK_2
10
9839.00390625
20
5290.998046875
30
0.0
11
9812.00390625
21
5320.998046875
31
0.0
  0
LINE
 8
BLOCK_2
10
9812.00390625
20
5320.998046875
30
0.0
11
9800.00390625
21
5390.185546875
31
0.0
  0
LINE
 8
BLOCK_2
10
9800.00390625
20
5390.185546875
30
0.0
11
9739.51171875
21
5390.185546875
31
0.0
  0
LINE
 8
BLOCK_2
10
9739.51171875
20
5390.185546875
30
0.0
11
9623.00390625
21
5418.873046875
31
0.0
  0
LINE
 8
BLOCK_2
10
9623.00390625
20
5418.873046875
30
0.0
11
9681.2578125
21
5455.564453125
31
0.0
  0
LINE
 8
BLOCK_2
10
9681.2578125
20
5455.564453125
30
0.0
11
9672.50390625
21
5475.439453125
31
0.0
  0
LINE
 8
BLOCK_2
10
9672.50390625
20
5475.439453125
30
0.0
11
9623.00390625
21
5502.0
31
0.0
  0
LINE
 8
BLOCK_2
10
9623.00390625
20
5502.0
30
0.0
11
9607.0078125
21
5525.501953125
31
0.0
  0
LINE
 8
BLOCK_2
10
9607.0078125
20
5525.501953125
30
0.0
11
9623.00390625
21
5540.501953125
31
0.0
  0
LINE
 8
BLOCK_2
10
9623.00390625
20
5540.501953125
30
0.0
11
9607.0078125
21
5567.00390625
31
0.0
  0
LINE
 8
BLOCK_2
10
9607.0078125
20
5567.00390625
30
0.0
11
9681.2578125
21
5582.05078125
31
0.0
  0
LINE
 8
BLOCK_2
10
9681.2578125
20
5582.05078125
30
0.0
11
9694.0078125
21
5560.3359375
31
0.0
  0
LINE
 8
BLOCK_2
10
9694.0078125
20
5560.3359375
30
0.0
11
9715.0078125
21
5582.05078125
31
0.0
  0
LINE
 8
BLOCK_2
10
9715.0078125
20
5582.05078125
30
0.0
11
9708.01171875
21
5618.68359375
31
0.0
  0
LINE
 8
BLOCK_2
10
9708.01171875
20
5618.68359375
30
0.0
11
9757.0078125
21
5637.99609375
31
0.0
  0
LINE
 8
BLOCK_2
10
9757.0078125
20
5637.99609375
30
0.0
11
9771.50390625
21
5661.498046875
31
0.0
  0
LINE
 8
BLOCK_2
10
9771.50390625
20
5661.498046875
30
0.0
11
9756.01171875
21
5694.24609375
31
0.0
  0
LINE
 8
BLOCK_2
10
9756.01171875
20
5694.24609375
30
0.0
11
9764.26171875
21
5726.49609375
31
0.0
  0
LINE
 8
BLOCK_2
10
9764.26171875
20
5726.49609375
30
0.0
11
9858.01171875
21
5743.74609375
31
0.0
  0
LINE
 8
BLOCK_2
10
9858.01171875
20
5743.74609375
30
0.0
11
9928.25390625
21
5743.74609375
31
0.0
  0
LINE
 8
BLOCK_2
10
9928.25390625
20
5743.74609375
30
0.0
11
9951.50390625
21
5789.87109375
31
0.0
  0
LINE
 8
BLOCK_2
10
9951.50390625
20
5789.87109375
30
0.0
11
9976.51171875
21
5804.373046875
31
0.0
  0
LINE
 8
BLOCK_2
10
9976.51171875
20
5804.373046875
30
0.0
11
9971.00390625
21
5819.68359375
31
0.0
  0
LINE
 8
BLOCK_2
10
9971.00390625
20
5819.68359375
30
0.0
11
9939.87890625
21
5830.998046875
31
0.0
  0
LINE
 8
BLOCK_2
10
9939.87890625
20
5830.998046875
30
0.0
11
9928.25390625
21
5856.0
31
0.0
  0
LINE
 8
BLOCK_2
10
9928.25390625
20
5856.0
30
0.0
11
9943.0078125
21
5872.998046875
31
0.0
  0
LINE
 8
BLOCK_2
10
9943.0078125
20
5872.998046875
30
0.0
11
9964.0078125
21
5872.998046875
31
0.0
  0
LINE
 8
BLOCK_2
10
9964.0078125
20
5872.998046875
30
0.0
11
9971.00390625
21
5856.0
31
0.0
  0
LINE
 8
BLOCK_2
10
9971.00390625
20
5856.0
30
0.0
11
10086.01171875
21
5860.248046875
31
0.0
  0
LINE
 8
BLOCK_2
10
10086.01171875
20
5860.248046875
30
0.0
11
10124.015625
21
5885.49609375
31
0.0
  0
LINE
 8
BLOCK_2
10
10124.015625
20
5885.49609375
30
0.0
11
10152.01171875
21
5920.998046875
31
0.0
  0
LINE
 8
BLOCK_2
10
10152.01171875
20
5920.998046875
30
0.0
11
10180.0078125
21
5916.0
31
0.0
  0
LINE
 8
BLOCK_2
10
10180.0078125
20
5916.0
30
0.0
11
10196.015625
21
5967.99609375
31
0.0
  0
LINE
 8
BLOCK_2
10
10196.015625
20
5967.99609375
30
0.0
11
10286.00390625
21
5967.99609375
31
0.0
  0
LINE
 8
BLOCK_2
10
10286.00390625
20
5967.99609375
30
0.0
11
10298.00390625
21
5952.498046875
31
0.0
  0
LINE
 8
BLOCK_2
10
10298.00390625
20
5952.498046875
30
0.0
11
10374.01171875
21
5967.99609375
31
0.0
  0
LINE
 8
BLOCK_2
10
10374.01171875
20
5967.99609375
30
0.0
11
10406.00390625
21
5960.25
31
0.0
  0
LINE
 8
BLOCK_2
10
10406.00390625
20
5960.25
30
0.0
11
10442.00390625
21
5974.998046875
31
0.0
  0
LINE
 8
BLOCK_2
10
10442.00390625
20
5974.998046875
30
0.0
11
10488.01171875
21
5960.25
31
0.0
  0
LINE
 8
BLOCK_2
10
10488.01171875
20
5960.25
30
0.0
11
10554.01171875
21
5997.99609375
31
0.0
  0
LINE
 8
BLOCK_2
10
10554.01171875
20
5997.99609375
30
0.0
11
10480.0078125
21
6019.998046875
31
0.0
  0
LINE
 8
BLOCK_2
10
10480.0078125
20
6019.998046875
30
0.0
11
10521.01171875
21
6045.0
31
0.0
  0
LINE
 8
BLOCK_2
10
10521.01171875
20
6045.0
30
0.0
11
10521.01171875
21
6070.998046875
31
0.0
  0
LINE
 8
BLOCK_2
10
10521.01171875
20
6070.998046875
30
0.0
11
10500.50390625
21
6084.99609375
31
0.0
  0
LINE
 8
BLOCK_2
10
10500.50390625
20
6084.99609375
30
0.0
11
10554.01171875
21
6101.49609375
31
0.0
  0
LINE
 8
BLOCK_2
10
10554.01171875
20
6101.49609375
30
0.0
11
10542.01171875
21
6127.998046875
31
0.0
  0
LINE
 8
BLOCK_2
10
10542.01171875
20
6127.998046875
30
0.0
11
10480.0078125
21
6135.0
31
0.0
  0
LINE
 8
BLOCK_2
10
10480.0078125
20
6135.0
30
0.0
11
10480.0078125
21
6165.99609375
31
0.0
  0
LINE
 8
BLOCK_2
10
10480.0078125
20
6165.99609375
30
0.0
11
10442.00390625
21
6165.99609375
31
0.0
  0
LINE
 8
BLOCK_2
10
10442.00390625
20
6165.99609375
30
0.0
11
10424.00390625
21
6216.99609375
31
0.0
  0
LINE
 8
BLOCK_2
10
10424.00390625
20
6216.99609375
30
0.0
11
10406.00390625
21
6216.99609375
31
0.0
  0
LINE
 8
BLOCK_2
10
10406.00390625
20
6216.99609375
30
0.0
11
10374.01171875
21
6242.25
31
0.0
  0
LINE
 8
BLOCK_2
10
10374.01171875
20
6242.25
30
0.0
11
10415.00390625
21
6254.748046875
31
0.0
  0
LINE
 8
BLOCK_2
10
10415.00390625
20
6254.748046875
30
0.0
11
10424.00390625
21
6279.123046875
31
0.0
  0
LINE
 8
BLOCK_2
10
10424.00390625
20
6279.123046875
30
0.0
11
10374.01171875
21
6306.62109375
31
0.0
  0
LINE
 8
BLOCK_2
10
10374.01171875
20
6306.62109375
30
0.0
11
10298.00390625
21
6306.62109375
31
0.0
  0
LINE
 8
BLOCK_2
10
10298.00390625
20
6306.62109375
30
0.0
11
10276.0078125
21
6313.623046875
31
0.0
  0
LINE
 8
BLOCK_2
10
10276.0078125
20
6313.623046875
30
0.0
11
10276.0078125
21
6333.99609375
31
0.0
  0
LINE
 8
BLOCK_2
10
10276.0078125
20
6333.99609375
30
0.0
11
10336.0078125
21
6351.275390625
31
0.0
  0
LINE
 8
BLOCK_2
10
10336.0078125
20
6351.275390625
30
0.0
11
10336.0078125
21
6370.998046875
31
0.0
  0
LINE
 8
BLOCK_2
10
10336.0078125
20
6370.998046875
30
0.0
11
10286.00390625
21
6384.0
31
0.0
  0
LINE
 8
BLOCK_2
10
10286.00390625
20
6384.0
30
0.0
11
10320.01171875
21
6408.0
31
0.0
  0
LINE
 8
BLOCK_2
10
10320.01171875
20
6408.0
30
0.0
11
10252.0078125
21
6426.0
31
0.0
  0
LINE
 8
BLOCK_2
10
10252.0078125
20
6426.0
30
0.0
11
10241.00390625
21
6447.99609375
31
0.0
  0
LINE
 8
BLOCK_2
10
10241.00390625
20
6447.99609375
30
0.0
11
10241.00390625
21
6468.0
31
0.0
  0
LINE
 8
BLOCK_2
10
10241.00390625
20
6468.0
30
0.0
11
10394.5078125
21
6480.99609375
31
0.0
  0
LINE
 8
BLOCK_2
10
10394.5078125
20
6480.99609375
30
0.0
11
9812.00390625
21
6480.99609375
31
0.0
  0
LINE
 8
BLOCK_2
10
10394.5078125
20
6480.99609375
30
0.0
11
10394.5078125
21
6529.998046875
31
0.0
  0
LINE
 8
BLOCK_2
10
10394.5078125
20
6529.998046875
30
0.0
11
10424.00390625
21
6529.998046875
31
0.0
  0
LINE
 8
BLOCK_2
10
10424.00390625
20
6529.998046875
30
0.0
11
10442.00390625
21
6552.0
31
0.0
  0
LINE
 8
BLOCK_2
10
10442.00390625
20
6552.0
30
0.0
11
10442.00390625
21
6571.998046875
31
0.0
  0
LINE
 8
BLOCK_2
10
10442.00390625
20
6571.998046875
30
0.0
11
10433.00390625
21
6579.99609375
31
0.0
  0
LINE
 8
BLOCK_2
10
10433.00390625
20
6579.99609375
30
0.0
11
10394.5078125
21
6579.99609375
31
0.0
  0
LINE
 8
BLOCK_2
10
10394.5078125
20
6579.99609375
30
0.0
11
10394.5078125
21
6868.998046875
31
0.0
  0
LINE
 8
BLOCK_2
10
10394.5078125
20
6868.998046875
30
0.0
11
11008.0078125
21
6868.998046875
31
0.0
  0
LINE
 8
BLOCK_2
10
11008.0078125
20
6868.998046875
30
0.0
11
11008.0078125
21
7122.0
31
0.0
  0
LINE
 8
BLOCK_2
10
10105.20703125
20
5872.998046875
30
0.0
11
10152.01171875
21
5830.998046875
31
0.0
  0
LINE
 8
BLOCK_2
10
10152.01171875
20
5830.998046875
30
0.0
11
10152.01171875
21
5779.6875
31
0.0
  0
LINE
 8
BLOCK_2
10
10152.01171875
20
5779.6875
30
0.0
11
10114.0078125
21
5756.373046875
31
0.0
  0
LINE
 8
BLOCK_2
10
10114.0078125
20
5756.373046875
30
0.0
11
10124.015625
21
5734.998046875
31
0.0
  0
LINE
 8
BLOCK_2
10
10124.015625
20
5734.998046875
30
0.0
11
10138.01953125
21
5718.0
31
0.0
  0
LINE
 8
BLOCK_2
10
10138.01953125
20
5718.0
30
0.0
11
10152.01171875
21
5688.0
31
0.0
  0
LINE
 8
BLOCK_2
10
10152.01171875
20
5688.0
30
0.0
11
10188.01171875
21
5704.248046875
31
0.0
  0
LINE
 8
BLOCK_2
10
10188.01171875
20
5704.248046875
30
0.0
11
10241.00390625
21
5652.99609375
31
0.0
  0
LINE
 8
BLOCK_2
10
10241.00390625
20
5652.99609375
30
0.0
11
10322.00390625
21
5560.3359375
31
0.0
  0
LINE
 8
BLOCK_2
10
10322.00390625
20
5560.3359375
30
0.0
11
10362.01171875
21
5600.3671875
31
0.0
  0
LINE
 8
BLOCK_2
10
10362.01171875
20
5600.3671875
30
0.0
11
10374.01171875
21
5574.52734375
31
0.0
  0
LINE
 8
BLOCK_2
10
10374.01171875
20
5574.52734375
30
0.0
11
10442.00390625
21
5571.193359375
31
0.0
  0
LINE
 8
BLOCK_2
10
10442.00390625
20
5571.193359375
30
0.0
11
10465.0078125
21
5574.52734375
31
0.0
  0
LINE
 8
BLOCK_2
10
10465.0078125
20
5574.52734375
30
0.0
11
10488.01171875
21
5548.001953125
31
0.0
  0
LINE
 8
BLOCK_2
10
10500.50390625
20
5540.501953125
30
0.0
11
10510.7578125
21
5538.626953125
31
0.0
  0
LINE
 8
BLOCK_2
10
10510.7578125
20
5538.626953125
30
0.0
11
10517.00390625
21
5529.251953125
31
0.0
  0
LINE
 8
BLOCK_2
10
10517.00390625
20
5529.251953125
30
0.0
11
10578.01171875
21
5525.501953125
31
0.0
  0
LINE
 8
BLOCK_2
10
10578.01171875
20
5525.501953125
30
0.0
11
10596.01171875
21
5502.0
31
0.0
  0
LINE
 8
BLOCK_2
10
10596.01171875
20
5502.0
30
0.0
11
10578.01171875
21
5475.439453125
31
0.0
  0
LINE
 8
BLOCK_2
10
10578.01171875
20
5475.439453125
30
0.0
11
10527.2578125
21
5475.439453125
31
0.0
  0
LINE
 8
BLOCK_2
10
10527.2578125
20
5475.439453125
30
0.0
11
10527.2578125
21
5430.62109375
31
0.0
  0
LINE
 8
BLOCK_2
10
10527.2578125
20
5430.62109375
30
0.0
11
10517.00390625
21
5411.701171875
31
0.0
  0
LINE
 8
BLOCK_2
10
10517.00390625
20
5411.701171875
30
0.0
11
10424.00390625
21
5421.1640625
31
0.0
  0
LINE
 8
BLOCK_2
10
10424.00390625
20
5421.1640625
30
0.0
11
10406.00390625
21
5372.044921875
31
0.0
  0
LINE
 8
BLOCK_2
10
10406.00390625
20
5372.044921875
30
0.0
11
10415.00390625
21
5343.498046875
31
0.0
  0
LINE
 8
BLOCK_2
10
10415.00390625
20
5343.498046875
30
0.0
11
10362.01171875
21
5343.498046875
31
0.0
  0
LINE
 8
BLOCK_2
10
10362.01171875
20
5343.498046875
30
0.0
11
10298.00390625
21
5343.498046875
31
0.0
  0
LINE
 8
BLOCK_2
10
10298.00390625
20
5343.498046875
30
0.0
11
10298.00390625
21
5332.248046875
31
0.0
  0
LINE
 8
BLOCK_2
10
10298.00390625
20
5332.248046875
30
0.0
11
10322.00390625
21
5320.998046875
31
0.0
  0
LINE
 8
BLOCK_2
10
10322.00390625
20
5320.998046875
30
0.0
11
10342.0078125
21
5271.99609375
31
0.0
  0
LINE
 8
BLOCK_2
10
10342.0078125
20
5271.99609375
30
0.0
11
10322.00390625
21
5253.99609375
31
0.0
  0
LINE
 8
BLOCK_2
10
10322.00390625
20
5253.99609375
30
0.0
11
10322.00390625
21
5223.99609375
31
0.0
  0
LINE
 8
BLOCK_2
10
10322.00390625
20
5223.99609375
30
0.0
11
10252.0078125
21
5193.0
31
0.0
  0
LINE
 8
BLOCK_2
10
10252.0078125
20
5193.0
30
0.0
11
10241.00390625
21
5179.998046875
31
0.0
  0
LINE
 8
BLOCK_2
10
10241.00390625
20
5179.998046875
30
0.0
11
10196.015625
21
5179.998046875
31
0.0
  0
LINE
 8
BLOCK_2
10
10196.015625
20
5179.998046875
30
0.0
11
10170.01171875
21
5160.99609375
31
0.0
  0
LINE
 8
BLOCK_2
10
10170.01171875
20
5160.99609375
30
0.0
11
10138.01953125
21
5154.0
31
0.0
  0
LINE
 8
BLOCK_2
10
10138.01953125
20
5154.0
30
0.0
11
10124.015625
21
5160.99609375
31
0.0
  0
LINE
 8
BLOCK_2
10
10124.015625
20
5160.99609375
30
0.0
11
10068.01171875
21
5145.99609375
31
0.0
  0
LINE
 8
BLOCK_2
10
10068.01171875
20
5145.99609375
30
0.0
11
10054.0078125
21
5111.748046875
31
0.0
  0
LINE
 8
BLOCK_2
10
10054.0078125
20
5111.748046875
30
0.0
11
10068.01171875
21
5091.0
31
0.0
  0
LINE
 8
BLOCK_2
10
10068.01171875
20
5091.0
30
0.0
11
10105.20703125
21
5073.99609375
31
0.0
  0
LINE
 8
BLOCK_2
10
10105.20703125
20
5073.99609375
30
0.0
11
10114.0078125
21
5029.998046875
31
0.0
  0
LINE
 8
BLOCK_2
10
10114.0078125
20
5029.998046875
30
0.0
11
10152.01171875
21
5005.998046875
31
0.0
  0
LINE
 8
BLOCK_2
10
10152.01171875
20
5005.998046875
30
0.0
11
10154.015625
21
4977.75
31
0.0
  0
LINE
 8
BLOCK_2
10
10154.015625
20
4977.75
30
0.0
11
10188.01171875
21
4968.0
31
0.0
  0
LINE
 8
BLOCK_2
10
10188.01171875
20
4968.0
30
0.0
11
10218.50390625
21
4958.00390625
31
0.0
  0
LINE
 8
BLOCK_2
10
10218.50390625
20
4958.00390625
30
0.0
11
10188.01171875
21
4927.25390625
31
0.0
  0
LINE
 8
BLOCK_2
10
10188.01171875
20
4927.25390625
30
0.0
11
10124.015625
21
4927.25390625
31
0.0
  0
LINE
 8
BLOCK_2
10
10124.015625
20
4927.25390625
30
0.0
11
10068.01171875
21
4929.99609375
31
0.0
  0
LINE
 8
BLOCK_2
10
10068.01171875
20
4929.99609375
30
0.0
11
10078.0078125
21
4870.001953125
31
0.0
  0
LINE
 8
BLOCK_2
10
10078.0078125
20
4870.001953125
30
0.0
11
10105.01953125
21
4842.0
31
0.0
  0
LINE
 8
BLOCK_2
10
10105.01953125
20
4842.0
30
0.0
11
10133.00390625
21
4836.99609375
31
0.0
  0
LINE
 8
BLOCK_2
10
10133.00390625
20
4836.99609375
30
0.0
11
10131.01171875
21
4810.74609375
31
0.0
  0
LINE
 8
BLOCK_2
10
10131.01171875
20
4810.74609375
30
0.0
11
10096.01953125
21
4823.87109375
31
0.0
  0
LINE
 8
BLOCK_2
10
10096.01953125
20
4823.87109375
30
0.0
11
10096.01953125
21
4794.99609375
31
0.0
  0
LINE
 8
BLOCK_2
10
10096.01953125
20
4794.99609375
30
0.0
11
10061.00390625
21
4723.998046875
31
0.0
  0
LINE
 8
BLOCK_2
10
10061.00390625
20
4723.998046875
30
0.0
11
9982.0078125
21
4666.001953125
31
0.0
  0
LINE
 8
BLOCK_2
10
9982.0078125
20
4666.001953125
30
0.0
11
9951.50390625
21
4651.998046875
31
0.0
  0
LINE
 8
BLOCK_2
10
9951.50390625
20
4651.998046875
30
0.0
11
9928.25390625
21
4659.0
31
0.0
  0
LINE
 8
BLOCK_2
10
9928.25390625
20
4659.0
30
0.0
11
9893.1328125
21
4635.0
31
0.0
  0
LINE
 8
BLOCK_2
10
9893.1328125
20
4635.0
30
0.0
11
9893.1328125
21
4608.498046875
31
0.0
  0
LINE
 8
BLOCK_2
10
9893.1328125
20
4608.498046875
30
0.0
11
9924.01171875
21
4607.49609375
31
0.0
  0
LINE
 8
BLOCK_2
10
9924.01171875
20
4607.49609375
30
0.0
11
9924.01171875
21
4575.498046875
31
0.0
  0
LINE
 8
BLOCK_2
10
9924.01171875
20
4575.498046875
30
0.0
11
9943.0078125
21
4575.498046875
31
0.0
  0
LINE
 8
BLOCK_2
10
9943.0078125
20
4575.498046875
30
0.0
11
9960.01171875
21
4530.99609375
31
0.0
  0
LINE
 8
BLOCK_2
10
9960.01171875
20
4530.99609375
30
0.0
11
9924.01171875
21
4518.0
31
0.0
  0
LINE
 8
BLOCK_2
10
9924.01171875
20
4518.0
30
0.0
11
9910.0078125
21
4509.99609375
31
0.0
  0
LINE
 8
BLOCK_2
10
9910.0078125
20
4509.99609375
30
0.0
11
9865.0078125
21
4518.0
31
0.0
  0
LINE
 8
BLOCK_2
10
9865.0078125
20
4518.0
30
0.0
11
9854.00390625
21
4491.0
31
0.0
  0
LINE
 8
BLOCK_2
10
9854.00390625
20
4491.0
30
0.0
11
9886.0078125
21
4464.0
31
0.0
  0
LINE
 8
BLOCK_2
10
9886.0078125
20
4464.0
30
0.0
11
9859.51171875
21
4429.998046875
31
0.0
  0
LINE
 8
BLOCK_2
10
9859.51171875
20
4429.998046875
30
0.0
11
9924.01171875
21
4368.50390625
31
0.0
  0
LINE
 8
BLOCK_2
10
9924.01171875
20
4368.50390625
30
0.0
11
9979.25390625
21
4368.50390625
31
0.0
  0
LINE
 8
BLOCK_2
10
9979.25390625
20
4368.50390625
30
0.0
11
10000.0078125
21
4404.0
31
0.0
  0
LINE
 8
BLOCK_2
10
10000.0078125
20
4404.0
30
0.0
11
10021.51171875
21
4416.99609375
31
0.0
  0
LINE
 8
BLOCK_2
10
10021.51171875
20
4416.99609375
30
0.0
11
10021.51171875
21
4368.50390625
31
0.0
  0
LINE
 8
BLOCK_2
10
10021.51171875
20
4368.50390625
30
0.0
11
10021.51171875
21
4345.998046875
31
0.0
  0
LINE
 8
BLOCK_2
10
10021.51171875
20
4345.998046875
30
0.0
11
10044.01171875
21
4194.0
31
0.0
  0
LINE
 8
BLOCK_2
10
10044.01171875
20
4194.0
30
0.0
11
10096.01953125
21
4093.998046875
31
0.0
  0
LINE
 8
BLOCK_2
10
10096.01953125
20
4093.998046875
30
0.0
11
10109.61328125
21
4050.0
31
0.0
  0
LINE
 8
BLOCK_2
10
10109.61328125
20
4050.0
30
0.0
11
10156.01953125
21
3973.998046875
31
0.0
  0
LINE
 8
BLOCK_2
10
10156.01953125
20
3973.998046875
30
0.0
11
10171.01953125
21
3909.99609375
31
0.0
  0
LINE
 8
BLOCK_2
10
10171.01953125
20
3909.99609375
30
0.0
11
10203.2578125
21
3877.998046875
31
0.0
  0
LINE
 8
BLOCK_2
10
10203.2578125
20
3877.998046875
30
0.0
11
10241.00390625
21
3877.998046875
31
0.0
  0
LINE
 8
BLOCK_2
10
10241.00390625
20
3877.998046875
30
0.0
11
10246.51171875
21
3909.99609375
31
0.0
  0
LINE
 8
BLOCK_2
10
10246.51171875
20
3909.99609375
30
0.0
11
10272.01171875
21
3925.998046875
31
0.0
  0
LINE
 8
BLOCK_2
10
10272.01171875
20
3925.998046875
30
0.0
11
10310.00390625
21
3909.99609375
31
0.0
  0
LINE
 8
BLOCK_2
10
10310.00390625
20
3909.99609375
30
0.0
11
10291.0078125
21
3877.998046875
31
0.0
  0
LINE
 8
BLOCK_2
10
10291.0078125
20
3877.998046875
30
0.0
11
10300.51171875
21
3819.99609375
31
0.0
  0
LINE
 8
BLOCK_2
10
10300.51171875
20
3819.99609375
30
0.0
11
10310.00390625
21
3799.998046875
31
0.0
  0
LINE
 8
BLOCK_2
10
10310.00390625
20
3799.998046875
30
0.0
11
10356.01171875
21
3799.998046875
31
0.0
  0
LINE
 8
BLOCK_2
10
10356.01171875
20
3799.998046875
30
0.0
11
10384.0078125
21
3828.0
31
0.0
  0
LINE
 8
BLOCK_2
10
10384.0078125
20
3828.0
30
0.0
11
10384.0078125
21
3849.0
31
0.0
  0
LINE
 8
BLOCK_2
10
10384.0078125
20
3849.0
30
0.0
11
10356.01171875
21
3918.0
31
0.0
  0
LINE
 8
BLOCK_2
10
10356.01171875
20
3918.0
30
0.0
11
10300.51171875
21
3973.998046875
31
0.0
  0
LINE
 8
BLOCK_2
10
10300.51171875
20
3973.998046875
30
0.0
11
10300.51171875
21
4023.99609375
31
0.0
  0
LINE
 8
BLOCK_2
10
10300.51171875
20
4023.99609375
30
0.0
11
10328.26171875
21
4071.99609375
31
0.0
  0
LINE
 8
BLOCK_2
10
10328.26171875
20
4071.99609375
30
0.0
11
10314.38671875
21
4123.998046875
31
0.0
  0
LINE
 8
BLOCK_2
10
10314.38671875
20
4123.998046875
30
0.0
11
10310.00390625
21
4158.0
31
0.0
  0
LINE
 8
BLOCK_2
10
10310.00390625
20
4158.0
30
0.0
11
10321.32421875
21
4183.998046875
31
0.0
  0
LINE
 8
BLOCK_2
10
10321.32421875
20
4183.998046875
30
0.0
11
10370.00390625
21
4183.998046875
31
0.0
  0
LINE
 8
BLOCK_2
10
10370.00390625
20
4183.998046875
30
0.0
11
10370.00390625
21
4194.0
31
0.0
  0
LINE
 8
BLOCK_2
10
10370.00390625
20
4194.0
30
0.0
11
10406.00390625
21
4210.001953125
31
0.0
  0
LINE
 8
BLOCK_2
10
10406.00390625
20
4210.001953125
30
0.0
11
10490.00390625
21
4285.998046875
31
0.0
  0
LINE
 8
BLOCK_2
10
10490.00390625
20
4285.998046875
30
0.0
11
10514.00390625
21
4333.001953125
31
0.0
  0
LINE
 8
BLOCK_2
10
10514.00390625
20
4333.001953125
30
0.0
11
10592.00390625
21
4368.50390625
31
0.0
  0
LINE
 8
BLOCK_2
10
10592.00390625
20
4368.50390625
30
0.0
11
10592.00390625
21
4399.25390625
31
0.0
  0
LINE
 8
BLOCK_2
10
10592.00390625
20
4399.25390625
30
0.0
11
10626.01171875
21
4416.99609375
31
0.0
  0
LINE
 8
BLOCK_2
10
10626.01171875
20
4416.99609375
30
0.0
11
10668.01171875
21
4410.498046875
31
0.0
  0
LINE
 8
BLOCK_2
10
10668.01171875
20
4410.498046875
30
0.0
11
10660.0078125
21
4471.998046875
31
0.0
  0
LINE
 8
BLOCK_2
10
10660.0078125
20
4471.998046875
30
0.0
11
10647.01171875
21
4518.0
31
0.0
  0
LINE
 8
BLOCK_2
10
10647.01171875
20
4518.0
30
0.0
11
10636.0078125
21
4542.0
31
0.0
  0
LINE
 8
BLOCK_2
10
10636.0078125
20
4542.0
30
0.0
11
10653.50390625
21
4558.998046875
31
0.0
  0
LINE
 8
BLOCK_2
10
10653.50390625
20
4558.998046875
30
0.0
11
10636.0078125
21
4575.498046875
31
0.0
  0
LINE
 8
BLOCK_2
10
10636.0078125
20
4575.498046875
30
0.0
11
10636.0078125
21
4599.0
31
0.0
  0
LINE
 8
BLOCK_2
10
10636.0078125
20
4599.0
30
0.0
11
10580.00390625
21
4608.498046875
31
0.0
  0
LINE
 8
BLOCK_2
10
10580.00390625
20
4608.498046875
30
0.0
11
10490.00390625
21
4626.498046875
31
0.0
  0
LINE
 8
BLOCK_2
10
10490.00390625
20
4626.498046875
30
0.0
11
10490.00390625
21
4635.0
31
0.0
  0
LINE
 8
BLOCK_2
10
10490.00390625
20
4635.0
30
0.0
11
10438.0078125
21
4647.0
31
0.0
  0
LINE
 8
BLOCK_2
10
10438.0078125
20
4647.0
30
0.0
11
10315.6640625
21
4695.0
31
0.0
  0
LINE
 8
BLOCK_2
10
10315.6640625
20
4695.0
30
0.0
11
10315.6640625
21
4723.998046875
31
0.0
  0
LINE
 8
BLOCK_2
10
10315.6640625
20
4723.998046875
30
0.0
11
10322.00390625
21
4737.99609375
31
0.0
  0
LINE
 8
BLOCK_2
10
10322.00390625
20
4737.99609375
30
0.0
11
10356.01171875
21
4744.5
31
0.0
  0
LINE
 8
BLOCK_2
10
10356.01171875
20
4744.5
30
0.0
11
10272.01171875
21
4794.99609375
31
0.0
  0
LINE
 8
BLOCK_2
10
10272.01171875
20
4794.99609375
30
0.0
11
10246.51171875
21
4842.0
31
0.0
  0
LINE
 8
BLOCK_2
10
10246.51171875
20
4842.0
30
0.0
11
10287.01171875
21
4842.0
31
0.0
  0
LINE
 8
BLOCK_2
10
10287.01171875
20
4842.0
30
0.0
11
10291.0078125
21
4860.99609375
31
0.0
  0
LINE
 8
BLOCK_2
10
10291.0078125
20
4860.99609375
30
0.0
11
10272.01171875
21
4879.5
31
0.0
  0
LINE
 8
BLOCK_2
10
10272.01171875
20
4879.5
30
0.0
11
10272.01171875
21
4914.498046875
31
0.0
  0
LINE
 8
BLOCK_2
10
10272.01171875
20
4914.498046875
30
0.0
11
10287.01171875
21
4906.74609375
31
0.0
  0
LINE
 8
BLOCK_2
10
10287.01171875
20
4906.74609375
30
0.0
11
10295.75390625
21
4927.25390625
31
0.0
  0
LINE
 8
BLOCK_2
10
10295.75390625
20
4927.25390625
30
0.0
11
10315.6640625
21
4929.99609375
31
0.0
  0
LINE
 8
BLOCK_2
10
10315.6640625
20
4929.99609375
30
0.0
11
10318.83984375
21
4960.001953125
31
0.0
  0
LINE
 8
BLOCK_2
10
10318.83984375
20
4960.001953125
30
0.0
11
10281.50390625
21
4987.5
31
0.0
  0
LINE
 8
BLOCK_2
10
10281.50390625
20
4987.5
30
0.0
11
10252.0078125
21
4977.75
31
0.0
  0
LINE
 8
BLOCK_2
10
10252.0078125
20
4977.75
30
0.0
11
10218.50390625
21
4958.00390625
31
0.0
  0
LINE
 8
BLOCK_2
10
10356.01171875
20
4744.5
30
0.0
11
10388.00390625
21
4763.49609375
31
0.0
  0
LINE
 8
BLOCK_2
10
10388.00390625
20
4763.49609375
30
0.0
11
10438.0078125
21
4731.0
31
0.0
  0
LINE
 8
BLOCK_2
10
10438.0078125
20
4731.0
30
0.0
11
10464.01171875
21
4709.49609375
31
0.0
  0
LINE
 8
BLOCK_2
10
10464.01171875
20
4709.49609375
30
0.0
11
10535.00390625
21
4680.50390625
31
0.0
  0
LINE
 8
BLOCK_2
10
10535.00390625
20
4680.50390625
30
0.0
11
10608.01171875
21
4659.0
31
0.0
  0
LINE
 8
BLOCK_2
10
10608.01171875
20
4659.0
30
0.0
11
10626.01171875
21
4666.001953125
31
0.0
  0
LINE
 8
BLOCK_2
10
10626.01171875
20
4666.001953125
30
0.0
11
10636.0078125
21
4599.0
31
0.0
  0
LINE
 8
BLOCK_2
10
10626.01171875
20
4666.001953125
30
0.0
11
10690.0078125
21
4666.001953125
31
0.0
  0
LINE
 8
BLOCK_2
10
10690.0078125
20
4666.001953125
30
0.0
11
10714.0078125
21
4680.50390625
31
0.0
  0
LINE
 8
BLOCK_2
10
10714.0078125
20
4680.50390625
30
0.0
11
10774.0078125
21
4669.751953125
31
0.0
  0
LINE
 8
BLOCK_2
10
10774.0078125
20
4669.751953125
30
0.0
11
10804.0078125
21
4659.0
31
0.0
  0
LINE
 8
BLOCK_2
10
10804.0078125
20
4659.0
30
0.0
11
10864.0078125
21
4695.0
31
0.0
  0
LINE
 8
BLOCK_2
10
10864.0078125
20
4695.0
30
0.0
11
10886.00390625
21
4719.75
31
0.0
  0
LINE
 8
BLOCK_2
10
10886.00390625
20
4719.75
30
0.0
11
10924.0078125
21
4709.49609375
31
0.0
  0
LINE
 8
BLOCK_2
10
10924.0078125
20
4709.49609375
30
0.0
11
10944.01171875
21
4723.998046875
31
0.0
  0
LINE
 8
BLOCK_2
10
10944.01171875
20
4723.998046875
30
0.0
11
10964.00390625
21
4695.0
31
0.0
  0
LINE
 8
BLOCK_2
10
10964.00390625
20
4695.0
30
0.0
11
10954.0078125
21
4680.50390625
31
0.0
  0
LINE
 8
BLOCK_2
10
10954.0078125
20
4680.50390625
30
0.0
11
11020.0078125
21
4680.50390625
31
0.0
  0
LINE
 8
BLOCK_2
10
11020.0078125
20
4680.50390625
30
0.0
11
10987.0078125
21
4659.0
31
0.0
  0
LINE
 8
BLOCK_2
10
10987.0078125
20
4659.0
30
0.0
11
10987.0078125
21
4635.0
31
0.0
  0
LINE
 8
BLOCK_2
10
10987.0078125
20
4635.0
30
0.0
11
10934.00390625
21
4635.0
31
0.0
  0
LINE
 8
BLOCK_2
10
10934.00390625
20
4635.0
30
0.0
11
10905.01171875
21
4603.74609375
31
0.0
  0
LINE
 8
BLOCK_2
10
10905.01171875
20
4603.74609375
30
0.0
11
10905.01171875
21
4575.498046875
31
0.0
  0
LINE
 8
BLOCK_2
10
10905.01171875
20
4575.498046875
30
0.0
11
10886.00390625
21
4550.49609375
31
0.0
  0
LINE
 8
BLOCK_2
10
10886.00390625
20
4550.49609375
30
0.0
11
10886.00390625
21
4518.0
31
0.0
  0
LINE
 8
BLOCK_2
10
10886.00390625
20
4518.0
30
0.0
11
10875.01171875
21
4504.5
31
0.0
  0
LINE
 8
BLOCK_2
10
10875.01171875
20
4504.5
30
0.0
11
10846.0078125
21
4509.99609375
31
0.0
  0
LINE
 8
BLOCK_2
10
10846.0078125
20
4509.99609375
30
0.0
11
10846.0078125
21
4471.998046875
31
0.0
  0
LINE
 8
BLOCK_2
10
10846.0078125
20
4471.998046875
30
0.0
11
10834.0078125
21
4429.998046875
31
0.0
  0
LINE
 8
BLOCK_2
10
10834.0078125
20
4429.998046875
30
0.0
11
10804.0078125
21
4429.998046875
31
0.0
  0
LINE
 8
BLOCK_2
10
10804.0078125
20
4429.998046875
30
0.0
11
10804.0078125
21
4491.0
31
0.0
  0
LINE
 8
BLOCK_2
10
10804.0078125
20
4491.0
30
0.0
11
10789.0078125
21
4491.0
31
0.0
  0
LINE
 8
BLOCK_2
10
10789.0078125
20
4491.0
30
0.0
11
10774.0078125
21
4464.0
31
0.0
  0
LINE
 8
BLOCK_2
10
10774.0078125
20
4464.0
30
0.0
11
10744.0078125
21
4491.0
31
0.0
  0
LINE
 8
BLOCK_2
10
10744.0078125
20
4491.0
30
0.0
11
10759.0078125
21
4524.498046875
31
0.0
  0
LINE
 8
BLOCK_2
10
10759.0078125
20
4524.498046875
30
0.0
11
10834.0078125
21
4530.0
31
0.0
  0
LINE
 8
BLOCK_2
10
10834.0078125
20
4530.0
30
0.0
11
10804.0078125
21
4563.0
31
0.0
  0
LINE
 8
BLOCK_2
10
10804.0078125
20
4563.0
30
0.0
11
10702.0078125
21
4563.0
31
0.0
  0
LINE
 8
BLOCK_2
10
10702.0078125
20
4563.0
30
0.0
11
10702.0078125
21
4591.5
31
0.0
  0
LINE
 8
BLOCK_2
10
10702.0078125
20
4591.5
30
0.0
11
10636.0078125
21
4599.0
31
0.0
  0
LINE
 8
BLOCK_2
10
10804.0078125
20
4429.998046875
30
0.0
11
10804.0078125
21
4383.87890625
31
0.0
  0
LINE
 8
BLOCK_2
10
10804.0078125
20
4383.87890625
30
0.0
11
10796.5078125
21
4368.50390625
31
0.0
  0
LINE
 8
BLOCK_2
10
10796.5078125
20
4368.50390625
30
0.0
11
10716.01171875
21
4285.998046875
31
0.0
  0
LINE
 8
BLOCK_2
10
10716.01171875
20
4285.998046875
30
0.0
11
10716.01171875
21
4158.0
31
0.0
  0
LINE
 8
BLOCK_2
10
10716.01171875
20
3799.998046875
30
0.0
11
10819.0078125
21
3799.998046875
31
0.0
  0
LINE
 8
BLOCK_2
10
10895.5078125
20
3799.998046875
30
0.0
11
10895.5078125
21
4158.0
31
0.0
  0
LINE
 8
BLOCK_2
10
10895.5078125
20
4158.0
30
0.0
11
10716.01171875
21
4158.0
31
0.0
  0
LINE
 8
BLOCK_2
10
10996.0078125
20
3537.99609375
30
0.0
11
10819.0078125
21
3799.998046875
31
0.0
  0
LINE
 8
BLOCK_2
10
11596.0078125
20
6615.99609375
30
0.0
11
11596.0078125
21
7122.0
31
0.0
  0
LINE
 8
BLOCK_2
10
11596.0078125
20
6615.99609375
30
0.0
11
11664.01171875
21
6579.99609375
31
0.0
  0
LINE
 8
BLOCK_2
10
11664.01171875
20
6579.99609375
30
0.0
11
11664.01171875
21
6529.998046875
31
0.0
  0
LINE
 8
BLOCK_2
10
11664.01171875
20
6529.998046875
30
0.0
11
11556.01171875
21
6505.5
31
0.0
  0
LINE
 8
BLOCK_2
10
11556.01171875
20
6505.5
30
0.0
11
11556.01171875
21
6480.99609375
31
0.0
  0
LINE
 8
BLOCK_2
10
11556.01171875
20
6480.99609375
30
0.0
11
11524.0078125
21
6468.0
31
0.0
  0
LINE
 8
BLOCK_2
10
11524.0078125
20
6468.0
30
0.0
11
11524.0078125
21
6436.998046875
31
0.0
  0
LINE
 8
BLOCK_2
10
11524.0078125
20
6436.998046875
30
0.0
11
11572.0078125
21
6417.0
31
0.0
  0
LINE
 8
BLOCK_2
10
11572.0078125
20
6417.0
30
0.0
11
11580.01171875
21
6390.0
31
0.0
  0
LINE
 8
BLOCK_2
10
11580.01171875
20
6390.0
30
0.0
11
11610.01171875
21
6378.0
31
0.0
  0
LINE
 8
BLOCK_2
10
11610.01171875
20
6378.0
30
0.0
11
11556.01171875
21
6361.13671875
31
0.0
  0
LINE
 8
BLOCK_2
10
11556.01171875
20
6361.13671875
30
0.0
11
11502.01171875
21
6357.6328125
31
0.0
  0
LINE
 8
BLOCK_2
10
11502.01171875
20
6357.6328125
30
0.0
11
11474.00390625
21
6333.99609375
31
0.0
  0
LINE
 8
BLOCK_2
10
11474.00390625
20
6333.99609375
30
0.0
11
11474.00390625
21
6324.0
31
0.0
  0
LINE
 8
BLOCK_2
10
11474.00390625
20
6324.0
30
0.0
11
11404.0078125
21
6313.623046875
31
0.0
  0
LINE
 8
BLOCK_2
10
11404.0078125
20
6313.623046875
30
0.0
11
11342.00390625
21
6306.62109375
31
0.0
  0
LINE
 8
BLOCK_2
10
11342.00390625
20
6306.62109375
30
0.0
11
11342.00390625
21
6292.875
31
0.0
  0
LINE
 8
BLOCK_2
10
11342.00390625
20
6292.875
30
0.0
11
11373.01171875
21
6291.0
31
0.0
  0
LINE
 8
BLOCK_2
10
11373.01171875
20
6291.0
30
0.0
11
11373.01171875
21
6229.623046875
31
0.0
  0
LINE
 8
BLOCK_2
10
11373.01171875
20
6229.623046875
30
0.0
11
11330.00390625
21
6216.99609375
31
0.0
  0
LINE
 8
BLOCK_2
10
11330.00390625
20
6216.99609375
30
0.0
11
11373.01171875
21
6150.498046875
31
0.0
  0
LINE
 8
BLOCK_2
10
11373.01171875
20
6150.498046875
30
0.0
11
11330.00390625
21
6114.75
31
0.0
  0
LINE
 8
BLOCK_2
10
11330.00390625
20
6114.75
30
0.0
11
11439.01171875
21
6101.49609375
31
0.0
  0
LINE
 8
BLOCK_2
10
11439.01171875
20
6101.49609375
30
0.0
11
11373.01171875
21
6084.99609375
31
0.0
  0
LINE
 8
BLOCK_2
10
11373.01171875
20
6084.99609375
30
0.0
11
11351.5078125
21
6057.99609375
31
0.0
  0
LINE
 8
BLOCK_2
10
11351.5078125
20
6057.99609375
30
0.0
11
11362.25390625
21
6033.0
31
0.0
  0
LINE
 8
BLOCK_2
10
11362.25390625
20
6033.0
30
0.0
11
11342.00390625
21
5997.99609375
31
0.0
  0
LINE
 8
BLOCK_2
10
11342.00390625
20
5997.99609375
30
0.0
11
11284.0078125
21
5982.0
31
0.0
  0
LINE
 8
BLOCK_2
10
11284.0078125
20
5982.0
30
0.0
11
11284.0078125
21
5952.498046875
31
0.0
  0
LINE
 8
BLOCK_2
10
11284.0078125
20
5952.498046875
30
0.0
11
11330.00390625
21
5941.998046875
31
0.0
  0
LINE
 8
BLOCK_2
10
11330.00390625
20
5941.998046875
30
0.0
11
11330.00390625
21
5931.99609375
31
0.0
  0
LINE
 8
BLOCK_2
10
11330.00390625
20
5931.99609375
30
0.0
11
11294.00390625
21
5920.998046875
31
0.0
  0
LINE
 8
BLOCK_2
10
11294.00390625
20
5920.998046875
30
0.0
11
11313.01171875
21
5903.25
31
0.0
  0
LINE
 8
BLOCK_2
10
11313.01171875
20
5903.25
30
0.0
11
11284.0078125
21
5872.998046875
31
0.0
  0
LINE
 8
BLOCK_2
10
11284.0078125
20
5872.998046875
30
0.0
11
11214.01171875
21
5916.0
31
0.0
  0
LINE
 8
BLOCK_2
10
11214.01171875
20
5916.0
30
0.0
11
11190.01171875
21
5903.25
31
0.0
  0
LINE
 8
BLOCK_2
10
11190.01171875
20
5903.25
30
0.0
11
11190.01171875
21
5885.49609375
31
0.0
  0
LINE
 8
BLOCK_2
10
11190.01171875
20
5885.49609375
30
0.0
11
11150.00390625
21
5864.49609375
31
0.0
  0
LINE
 8
BLOCK_2
10
11150.00390625
20
5864.49609375
30
0.0
11
11134.0078125
21
5830.998046875
31
0.0
  0
LINE
 8
BLOCK_2
10
11134.0078125
20
5830.998046875
30
0.0
11
11098.0078125
21
5864.49609375
31
0.0
  0
LINE
 8
BLOCK_2
10
11098.0078125
20
5864.49609375
30
0.0
11
11070.01171875
21
5851.998046875
31
0.0
  0
LINE
 8
BLOCK_2
10
11070.01171875
20
5851.998046875
30
0.0
11
11020.0078125
21
5851.998046875
31
0.0
  0
LINE
 8
BLOCK_2
10
11020.0078125
20
5851.998046875
30
0.0
11
11003.5078125
21
5819.68359375
31
0.0
  0
LINE
 8
BLOCK_2
10
11003.5078125
20
5819.68359375
30
0.0
11
11011.7578125
21
5797.125
31
0.0
  0
LINE
 8
BLOCK_2
10
11011.7578125
20
5797.125
30
0.0
11
10974.01171875
21
5779.6875
31
0.0
  0
LINE
 8
BLOCK_2
10
10974.01171875
20
5779.6875
30
0.0
11
10974.01171875
21
5718.0
31
0.0
  0
LINE
 8
BLOCK_2
10
10974.01171875
20
5718.0
30
0.0
11
10934.00390625
21
5710.37109375
31
0.0
  0
LINE
 8
BLOCK_2
10
10934.00390625
20
5710.37109375
30
0.0
11
10974.01171875
21
5688.0
31
0.0
  0
LINE
 8
BLOCK_2
10
10974.01171875
20
5688.0
30
0.0
11
11003.5078125
21
5688.0
31
0.0
  0
LINE
 8
BLOCK_2
10
11003.5078125
20
5688.0
30
0.0
11
11045.00390625
21
5661.498046875
31
0.0
  0
LINE
 8
BLOCK_2
10
11045.00390625
20
5661.498046875
30
0.0
11
11084.00390625
21
5661.498046875
31
0.0
  0
LINE
 8
BLOCK_2
10
11084.00390625
20
5661.498046875
30
0.0
11
11045.00390625
21
5628.33984375
31
0.0
  0
LINE
 8
BLOCK_2
10
11045.00390625
20
5628.33984375
30
0.0
11
11056.0078125
21
5618.68359375
31
0.0
  0
LINE
 8
BLOCK_2
10
11056.0078125
20
5618.68359375
30
0.0
11
11020.0078125
21
5587.447265625
31
0.0
  0
LINE
 8
BLOCK_2
10
11020.0078125
20
5587.447265625
30
0.0
11
11020.0078125
21
5571.193359375
31
0.0
  0
LINE
 8
BLOCK_2
10
11020.0078125
20
5571.193359375
30
0.0
11
11024.26171875
21
5560.3359375
31
0.0
  0
LINE
 8
BLOCK_2
10
11024.26171875
20
5560.3359375
30
0.0
11
11038.0078125
21
5539.564453125
31
0.0
  0
LINE
 8
BLOCK_2
10
11038.0078125
20
5539.564453125
30
0.0
11
10992.87890625
21
5525.501953125
31
0.0
  0
LINE
 8
BLOCK_2
10
10992.87890625
20
5525.501953125
30
0.0
11
10886.00390625
21
5540.501953125
31
0.0
  0
LINE
 8
BLOCK_2
10
10886.00390625
20
5540.501953125
30
0.0
11
10875.01171875
21
5561.26171875
31
0.0
  0
LINE
 8
BLOCK_2
10
10875.01171875
20
5561.26171875
30
0.0
11
10789.0078125
21
5574.52734375
31
0.0
  0
LINE
 8
BLOCK_2
10
10789.0078125
20
5574.52734375
30
0.0
11
10690.0078125
21
5533.939453125
31
0.0
  0
LINE
 8
BLOCK_2
10
10690.0078125
20
5533.939453125
30
0.0
11
10680.01171875
21
5525.501953125
31
0.0
  0
LINE
 8
BLOCK_2
10
10680.01171875
20
5525.501953125
30
0.0
11
10644.01171875
21
5525.501953125
31
0.0
  0
LINE
 8
BLOCK_2
10
10644.01171875
20
5525.501953125
30
0.0
11
10631.00390625
21
5502.0
31
0.0
  0
LINE
 8
BLOCK_2
10
10631.00390625
20
5502.0
30
0.0
11
10596.01171875
21
5502.0
31
0.0
  0
LINE
 8
BLOCK_2
10
11439.01171875
20
6101.49609375
30
0.0
11
11439.01171875
21
6078.0
31
0.0
  0
LINE
 8
BLOCK_2
10
11439.01171875
20
6078.0
30
0.0
11
11476.0078125
21
6070.998046875
31
0.0
  0
LINE
 8
BLOCK_2
10
11476.0078125
20
6070.998046875
30
0.0
11
11476.0078125
21
6033.0
31
0.0
  0
LINE
 8
BLOCK_2
10
11476.0078125
20
6033.0
30
0.0
11
11496.01171875
21
6032.49609375
31
0.0
  0
LINE
 8
BLOCK_2
10
11496.01171875
20
6032.49609375
30
0.0
11
11496.01171875
21
6015.498046875
31
0.0
  0
LINE
 8
BLOCK_2
10
11496.01171875
20
6015.498046875
30
0.0
11
11486.00390625
21
6009.0
31
0.0
  0
LINE
 8
BLOCK_2
10
11486.00390625
20
6009.0
30
0.0
11
11524.0078125
21
5979.123046875
31
0.0
  0
LINE
 8
BLOCK_2
10
11524.0078125
20
5979.123046875
30
0.0
11
11476.0078125
21
5909.625
31
0.0
  0
LINE
 8
BLOCK_2
10
11476.0078125
20
5909.625
30
0.0
11
11505.01171875
21
5894.373046875
31
0.0
  0
LINE
 8
BLOCK_2
10
11505.01171875
20
5894.373046875
30
0.0
11
11590.0078125
21
5920.998046875
31
0.0
  0
LINE
 8
BLOCK_2
10
11590.0078125
20
5920.998046875
30
0.0
11
11604.01171875
21
5901.99609375
31
0.0
  0
LINE
 8
BLOCK_2
10
11604.01171875
20
5901.99609375
30
0.0
11
11642.00390625
21
5907.685546875
31
0.0
  0
LINE
 8
BLOCK_2
10
11642.00390625
20
5907.685546875
30
0.0
11
11656.0078125
21
5931.99609375
31
0.0
  0
LINE
 8
BLOCK_2
10
11656.0078125
20
5931.99609375
30
0.0
11
11734.0078125
21
5960.25
31
0.0
  0
LINE
 8
BLOCK_2
10
11734.0078125
20
5960.25
30
0.0
11
11784.01171875
21
5944.37109375
31
0.0
  0
LINE
 8
BLOCK_2
10
11784.01171875
20
5944.37109375
30
0.0
11
11784.01171875
21
5926.5
31
0.0
  0
LINE
 8
BLOCK_2
10
11784.01171875
20
5926.5
30
0.0
11
11848.0078125
21
5919.84375
31
0.0
  0
LINE
 8
BLOCK_2
10
11848.0078125
20
5919.84375
30
0.0
11
11862.01171875
21
5858.25
31
0.0
  0
LINE
 8
BLOCK_2
10
11862.01171875
20
5858.25
30
0.0
11
11816.00390625
21
5872.998046875
31
0.0
  0
LINE
 8
BLOCK_2
10
11816.00390625
20
5872.998046875
30
0.0
11
11794.0078125
21
5865.62109375
31
0.0
  0
LINE
 8
BLOCK_2
10
11794.0078125
20
5865.62109375
30
0.0
11
11776.0078125
21
5835.84375
31
0.0
  0
LINE
 8
BLOCK_2
10
11776.0078125
20
5835.84375
30
0.0
11
11805.01171875
21
5819.68359375
31
0.0
  0
LINE
 8
BLOCK_2
10
11805.01171875
20
5819.68359375
30
0.0
11
11794.0078125
21
5808.404296875
31
0.0
  0
LINE
 8
BLOCK_2
10
11794.0078125
20
5808.404296875
30
0.0
11
11714.00390625
21
5814.046875
31
0.0
  0
LINE
 8
BLOCK_2
10
11714.00390625
20
5814.046875
30
0.0
11
11734.0078125
21
5748.84375
31
0.0
  0
LINE
 8
BLOCK_2
10
11734.0078125
20
5748.84375
30
0.0
11
11759.00390625
21
5737.998046875
31
0.0
  0
LINE
 8
BLOCK_2
10
11759.00390625
20
5737.998046875
30
0.0
11
11776.0078125
21
5714.185546875
31
0.0
  0
LINE
 8
BLOCK_2
10
11776.0078125
20
5714.185546875
30
0.0
11
11714.00390625
21
5710.37109375
31
0.0
  0
LINE
 8
BLOCK_2
10
11714.00390625
20
5710.37109375
30
0.0
11
11649.01171875
21
5688.0
31
0.0
  0
LINE
 8
BLOCK_2
10
11649.01171875
20
5688.0
30
0.0
11
11656.0078125
21
5661.498046875
31
0.0
  0
LINE
 8
BLOCK_2
10
11656.0078125
20
5661.498046875
30
0.0
11
11656.0078125
21
5644.921875
31
0.0
  0
LINE
 8
BLOCK_2
10
11656.0078125
20
5644.921875
30
0.0
11
11580.01171875
21
5628.33984375
31
0.0
  0
LINE
 8
BLOCK_2
10
11580.01171875
20
5628.33984375
30
0.0
11
11524.0078125
21
5603.0625
31
0.0
  0
LINE
 8
BLOCK_2
10
11524.0078125
20
5603.0625
30
0.0
11
11439.01171875
21
5603.0625
31
0.0
  0
LINE
 8
BLOCK_2
10
11439.01171875
20
5603.0625
30
0.0
11
11424.01171875
21
5565.76171875
31
0.0
  0
LINE
 8
BLOCK_2
10
11424.01171875
20
5565.76171875
30
0.0
11
11439.01171875
21
5554.23046875
31
0.0
  0
LINE
 8
BLOCK_2
10
11439.01171875
20
5554.23046875
30
0.0
11
11394.01171875
21
5539.564453125
31
0.0
  0
LINE
 8
BLOCK_2
10
11394.01171875
20
5539.564453125
30
0.0
11
11457.50390625
21
5502.0
31
0.0
  0
LINE
 8
BLOCK_2
10
11457.50390625
20
5502.0
30
0.0
11
11547.50390625
21
5513.75390625
31
0.0
  0
LINE
 8
BLOCK_2
10
11547.50390625
20
5513.75390625
30
0.0
11
11618.00390625
21
5520.78515625
31
0.0
  0
LINE
 8
BLOCK_2
10
11618.00390625
20
5520.78515625
30
0.0
11
11656.0078125
21
5548.001953125
31
0.0
  0
LINE
 8
BLOCK_2
10
11656.0078125
20
5548.001953125
30
0.0
11
11695.0078125
21
5549.953125
31
0.0
  0
LINE
 8
BLOCK_2
10
11695.0078125
20
5549.953125
30
0.0
11
11745.01171875
21
5527.376953125
31
0.0
  0
LINE
 8
BLOCK_2
10
11745.01171875
20
5527.376953125
30
0.0
11
11776.0078125
21
5534.390625
31
0.0
  0
LINE
 8
BLOCK_2
10
11776.0078125
20
5534.390625
30
0.0
11
11799.50390625
21
5527.376953125
31
0.0
  0
LINE
 8
BLOCK_2
10
11799.50390625
20
5527.376953125
30
0.0
11
11862.01171875
21
5540.501953125
31
0.0
  0
LINE
 8
BLOCK_2
10
11862.01171875
20
5540.501953125
30
0.0
11
11862.01171875
21
5561.26171875
31
0.0
  0
LINE
 8
BLOCK_2
10
11862.01171875
20
5561.26171875
30
0.0
11
11916.01171875
21
5615.701171875
31
0.0
  0
LINE
 8
BLOCK_2
10
11916.01171875
20
5615.701171875
30
0.0
11
11916.01171875
21
5644.921875
31
0.0
  0
LINE
 8
BLOCK_2
10
11916.01171875
20
5644.921875
30
0.0
11
11898.01171875
21
5653.20703125
31
0.0
  0
LINE
 8
BLOCK_2
10
11898.01171875
20
5653.20703125
30
0.0
11
11956.0078125
21
5674.74609375
31
0.0
  0
LINE
 8
BLOCK_2
10
11956.0078125
20
5674.74609375
30
0.0
11
12052.0078125
21
5688.0
31
0.0
  0
LINE
 8
BLOCK_2
10
12052.0078125
20
5688.0
30
0.0
11
12148.0078125
21
5649.064453125
31
0.0
  0
LINE
 8
BLOCK_2
10
12148.0078125
20
5649.064453125
30
0.0
11
12202.0078125
21
5525.501953125
31
0.0
  0
LINE
 8
BLOCK_2
10
12202.0078125
20
5525.501953125
30
0.0
11
12260.00390625
21
5513.75390625
31
0.0
  0
LINE
 8
BLOCK_2
10
12260.00390625
20
5513.75390625
30
0.0
11
12316.0078125
21
5488.72265625
31
0.0
  0
LINE
 8
BLOCK_2
10
12316.0078125
20
5488.72265625
30
0.0
11
12328.0078125
21
5453.02734375
31
0.0
  0
LINE
 8
BLOCK_2
10
12328.0078125
20
5453.02734375
30
0.0
11
12390.01171875
21
5453.02734375
31
0.0
  0
LINE
 8
BLOCK_2
10
12390.01171875
20
5453.02734375
30
0.0
11
12404.00390625
21
5453.02734375
31
0.0
  0
LINE
 8
BLOCK_2
10
12404.00390625
20
5453.02734375
30
0.0
11
12454.0078125
21
5475.439453125
31
0.0
  0
LINE
 8
BLOCK_2
10
12454.0078125
20
5475.439453125
30
0.0
11
12474.01171875
21
5475.439453125
31
0.0
  0
LINE
 8
BLOCK_2
10
12474.01171875
20
5475.439453125
30
0.0
11
12474.01171875
21
5440.001953125
31
0.0
  0
LINE
 8
BLOCK_2
10
12474.01171875
20
5440.001953125
30
0.0
11
12464.00390625
21
5440.001953125
31
0.0
  0
LINE
 8
BLOCK_2
10
12464.00390625
20
5440.001953125
30
0.0
11
12429.01171875
21
5357.771484375
31
0.0
  0
LINE
 8
BLOCK_2
10
12429.01171875
20
5357.771484375
30
0.0
11
12420.01171875
21
5343.498046875
31
0.0
  0
LINE
 8
BLOCK_2
10
12420.01171875
20
5343.498046875
30
0.0
11
12359.00390625
21
5350.634765625
31
0.0
  0
LINE
 8
BLOCK_2
10
12359.00390625
20
5350.634765625
30
0.0
11
12328.0078125
21
5332.248046875
31
0.0
  0
LINE
 8
BLOCK_2
10
12328.0078125
20
5332.248046875
30
0.0
11
12343.51171875
21
5271.99609375
31
0.0
  0
LINE
 8
BLOCK_2
10
12343.51171875
20
5271.99609375
30
0.0
11
12322.0078125
21
5238.99609375
31
0.0
  0
LINE
 8
BLOCK_2
10
12322.0078125
20
5238.99609375
30
0.0
11
12288.01171875
21
5255.49609375
31
0.0
  0
LINE
 8
BLOCK_2
10
12288.01171875
20
5255.49609375
30
0.0
11
12260.00390625
21
5223.99609375
31
0.0
  0
LINE
 8
BLOCK_2
10
12260.00390625
20
5223.99609375
30
0.0
11
12212.00390625
21
5208.498046875
31
0.0
  0
LINE
 8
BLOCK_2
10
12212.00390625
20
5208.498046875
30
0.0
11
12212.00390625
21
5193.0
31
0.0
  0
LINE
 8
BLOCK_2
10
12212.00390625
20
5193.0
30
0.0
11
12188.00390625
21
5193.0
31
0.0
  0
LINE
 8
BLOCK_2
10
12188.00390625
20
5193.0
30
0.0
11
12164.00390625
21
5208.498046875
31
0.0
  0
LINE
 8
BLOCK_2
10
12164.00390625
20
5208.498046875
30
0.0
11
12148.0078125
21
5184.0
31
0.0
  0
LINE
 8
BLOCK_2
10
12148.0078125
20
5184.0
30
0.0
11
12076.0078125
21
5152.001953125
31
0.0
  0
LINE
 8
BLOCK_2
10
12076.0078125
20
5152.001953125
30
0.0
11
12060.01171875
21
5130.0
31
0.0
  0
LINE
 8
BLOCK_2
10
12060.01171875
20
5130.0
30
0.0
11
12060.01171875
21
4860.99609375
31
0.0
  0
LINE
 8
BLOCK_2
10
12060.01171875
20
4860.99609375
30
0.0
11
12200.00390625
21
4860.99609375
31
0.0
  0
LINE
 8
BLOCK_2
10
12188.00390625
20
7122.0
30
0.0
11
12188.00390625
21
6774.0
31
0.0
  0
LINE
 8
BLOCK_2
10
12188.00390625
20
6774.0
30
0.0
11
11597.00390625
21
6640.001953125
31
0.0
  0
LINE
 8
BLOCK_2
10
12786.01171875
20
7122.0
30
0.0
11
12786.01171875
21
6640.001953125
31
0.0
  0
LINE
 8
BLOCK_2
10
12786.01171875
20
6640.001953125
30
0.0
11
12636.01171875
21
6640.001953125
31
0.0
  0
LINE
 8
BLOCK_2
10
12636.01171875
20
6640.001953125
30
0.0
11
12372.01171875
21
6540.0
31
0.0
  0
LINE
 8
BLOCK_2
10
12372.01171875
20
6540.0
30
0.0
11
12372.01171875
21
6369.568359375
31
0.0
  0
LINE
 8
BLOCK_2
10
12372.01171875
20
6369.568359375
30
0.0
11
12414.01171875
21
5885.49609375
31
0.0
  0
LINE
 8
BLOCK_2
10
12414.01171875
20
5885.49609375
30
0.0
11
12359.00390625
21
5858.25
31
0.0
  0
LINE
 8
BLOCK_2
10
12359.00390625
20
5858.25
30
0.0
11
12372.01171875
21
5847.75
31
0.0
  0
LINE
 8
BLOCK_2
10
12372.01171875
20
5847.75
30
0.0
11
12343.51171875
21
5830.998046875
31
0.0
  0
LINE
 8
BLOCK_2
10
12343.51171875
20
5830.998046875
30
0.0
11
12365.5078125
21
5808.404296875
31
0.0
  0
LINE
 8
BLOCK_2
10
12365.5078125
20
5808.404296875
30
0.0
11
12335.75390625
21
5788.40625
31
0.0
  0
LINE
 8
BLOCK_2
10
12335.75390625
20
5788.40625
30
0.0
11
12328.0078125
21
5761.998046875
31
0.0
  0
LINE
 8
BLOCK_2
10
12328.0078125
20
5761.998046875
30
0.0
11
12397.0078125
21
5761.998046875
31
0.0
  0
LINE
 8
BLOCK_2
10
12397.0078125
20
5761.998046875
30
0.0
11
12404.00390625
21
5748.84375
31
0.0
  0
LINE
 8
BLOCK_2
10
12404.00390625
20
5748.84375
30
0.0
11
12305.00390625
21
5710.37109375
31
0.0
  0
LINE
 8
BLOCK_2
10
12305.00390625
20
5710.37109375
30
0.0
11
12305.00390625
21
5699.185546875
31
0.0
  0
LINE
 8
BLOCK_2
10
12305.00390625
20
5699.185546875
30
0.0
11
12354.50390625
21
5688.0
31
0.0
  0
LINE
 8
BLOCK_2
10
12354.50390625
20
5688.0
30
0.0
11
12354.50390625
21
5674.74609375
31
0.0
  0
LINE
 8
BLOCK_2
10
12354.50390625
20
5674.74609375
30
0.0
11
12420.01171875
21
5674.74609375
31
0.0
  0
LINE
 8
BLOCK_2
10
12420.01171875
20
5674.74609375
30
0.0
11
12488.015625
21
5681.373046875
31
0.0
  0
LINE
 8
BLOCK_2
10
12488.015625
20
5681.373046875
30
0.0
11
12488.015625
21
5628.33984375
31
0.0
  0
LINE
 8
BLOCK_2
10
12488.015625
20
5628.33984375
30
0.0
11
12420.01171875
21
5644.921875
31
0.0
  0
LINE
 8
BLOCK_2
10
12420.01171875
20
5644.921875
30
0.0
11
12420.01171875
21
5623.51171875
31
0.0
  0
LINE
 8
BLOCK_2
10
12420.01171875
20
5623.51171875
30
0.0
11
12372.01171875
21
5615.701171875
31
0.0
  0
LINE
 8
BLOCK_2
10
12372.01171875
20
5615.701171875
30
0.0
11
12316.0078125
21
5579.3203125
31
0.0
  0
LINE
 8
BLOCK_2
10
12316.0078125
20
5579.3203125
30
0.0
11
12322.0078125
21
5559.99609375
31
0.0
  0
LINE
 8
BLOCK_2
10
12322.0078125
20
5559.99609375
30
0.0
11
12350.63671875
21
5548.001953125
31
0.0
  0
LINE
 8
BLOCK_2
10
12350.63671875
20
5548.001953125
30
0.0
11
12354.50390625
21
5507.876953125
31
0.0
  0
LINE
 8
BLOCK_2
10
12354.50390625
20
5507.876953125
30
0.0
11
12316.0078125
21
5488.72265625
31
0.0
  0
LINE
 8
BLOCK_2
10
12200.00390625
20
4860.99609375
30
0.0
11
12200.00390625
21
4647.0
31
0.0
  0
LINE
 8
BLOCK_2
10
12200.00390625
20
4647.0
30
0.0
11
12008.015625
21
4647.0
31
0.0
  0
LINE
 8
BLOCK_2
10
12008.015625
20
4647.0
30
0.0
11
12008.015625
21
4491.0
31
0.0
  0
LINE
 8
BLOCK_2
10
12008.015625
20
4491.0
30
0.0
11
12200.00390625
21
4491.0
31
0.0
  0
LINE
 8
BLOCK_2
10
12200.00390625
20
4491.0
30
0.0
11
12200.00390625
21
3685.998046875
31
0.0
  0
LINE
 8
BLOCK_2
10
11020.0078125
20
4680.50390625
30
0.0
11
11042.00390625
21
4641.0
31
0.0
  0
LINE
 8
BLOCK_2
10
11042.00390625
20
4641.0
30
0.0
11
11058.01171875
21
4635.0
31
0.0
  0
LINE
 8
BLOCK_2
10
11058.01171875
20
4635.0
30
0.0
11
11058.01171875
21
4587.24609375
31
0.0
  0
LINE
 8
BLOCK_2
10
11058.01171875
20
4587.24609375
30
0.0
11
11003.5078125
21
4534.248046875
31
0.0
  0
LINE
 8
BLOCK_2
10
11003.5078125
20
4534.248046875
30
0.0
11
11020.0078125
21
4513.998046875
31
0.0
  0
LINE
 8
BLOCK_2
10
11020.0078125
20
4513.998046875
30
0.0
11
11058.01171875
21
4513.998046875
31
0.0
  0
LINE
 8
BLOCK_2
10
11058.01171875
20
4513.998046875
30
0.0
11
11068.0078125
21
4477.5
31
0.0
  0
LINE
 8
BLOCK_2
10
11068.0078125
20
4477.5
30
0.0
11
11090.00390625
21
4471.998046875
31
0.0
  0
LINE
 8
BLOCK_2
10
11090.00390625
20
4471.998046875
30
0.0
11
11068.0078125
21
4441.248046875
31
0.0
  0
LINE
 8
BLOCK_2
10
11068.0078125
20
4441.248046875
30
0.0
11
11090.00390625
21
4429.998046875
31
0.0
  0
LINE
 8
BLOCK_2
10
11090.00390625
20
4429.998046875
30
0.0
11
11110.0078125
21
4410.498046875
31
0.0
  0
LINE
 8
BLOCK_2
10
11110.0078125
20
4410.498046875
30
0.0
11
11148.01171875
21
4410.498046875
31
0.0
  0
LINE
 8
BLOCK_2
10
11148.01171875
20
4410.498046875
30
0.0
11
11129.00390625
21
4383.87890625
31
0.0
  0
LINE
 8
BLOCK_2
10
11129.00390625
20
4383.87890625
30
0.0
11
11063.00390625
21
4345.998046875
31
0.0
  0
LINE
 8
BLOCK_2
10
11063.00390625
20
4345.998046875
30
0.0
11
11020.0078125
21
4333.001953125
31
0.0
  0
LINE
 8
BLOCK_2
10
11020.0078125
20
4333.001953125
30
0.0
11
11011.7578125
21
4285.998046875
31
0.0
  0
LINE
 8
BLOCK_2
10
11011.7578125
20
4285.998046875
30
0.0
11
11063.00390625
21
4194.0
31
0.0
  0
LINE
 8
BLOCK_2
10
11063.00390625
20
4194.0
30
0.0
11
11031.01171875
21
4143.99609375
31
0.0
  0
LINE
 8
BLOCK_2
10
11031.01171875
20
4143.99609375
30
0.0
11
11063.00390625
21
4113.99609375
31
0.0
  0
LINE
 8
BLOCK_2
10
11063.00390625
20
4113.99609375
30
0.0
11
11090.00390625
21
4011.99609375
31
0.0
  0
LINE
 8
BLOCK_2
10
11090.00390625
20
4011.99609375
30
0.0
11
11058.01171875
21
3990.0
31
0.0
  0
LINE
 8
BLOCK_2
10
11058.01171875
20
3990.0
30
0.0
11
11058.01171875
21
3960.0
31
0.0
  0
LINE
 8
BLOCK_2
10
11058.01171875
20
3960.0
30
0.0
11
11030.75390625
21
3942.0
31
0.0
  0
LINE
 8
BLOCK_2
10
11030.75390625
20
3942.0
30
0.0
11
11015.8828125
21
3978.99609375
31
0.0
  0
LINE
 8
BLOCK_2
10
11015.8828125
20
3978.99609375
30
0.0
11
11023.32421875
21
4000.998046875
31
0.0
  0
LINE
 8
BLOCK_2
10
11023.32421875
20
4000.998046875
30
0.0
11
11023.32421875
21
4023.99609375
31
0.0
  0
LINE
 8
BLOCK_2
10
11023.32421875
20
4023.99609375
30
0.0
11
10996.0078125
21
4023.99609375
31
0.0
  0
LINE
 8
BLOCK_2
10
10996.0078125
20
4023.99609375
30
0.0
11
11020.0078125
21
4071.99609375
31
0.0
  0
LINE
 8
BLOCK_2
10
11020.0078125
20
4071.99609375
30
0.0
11
11030.75390625
21
4088.49609375
31
0.0
  0
LINE
 8
BLOCK_2
10
11030.75390625
20
4088.49609375
30
0.0
11
11008.0078125
21
4123.998046875
31
0.0
  0
LINE
 8
BLOCK_2
10
11008.0078125
20
4123.998046875
30
0.0
11
11008.0078125
21
4210.001953125
31
0.0
  0
LINE
 8
BLOCK_2
10
11008.0078125
20
4210.001953125
30
0.0
11
10996.0078125
21
4224.0
31
0.0
  0
LINE
 8
BLOCK_2
10
10996.0078125
20
4224.0
30
0.0
11
10924.0078125
21
4170.99609375
31
0.0
  0
LINE
 8
BLOCK_2
10
10924.0078125
20
4170.99609375
30
0.0
11
10860.50390625
21
4188.99609375
31
0.0
  0
LINE
 8
BLOCK_2
10
10860.50390625
20
4188.99609375
30
0.0
11
10886.00390625
21
4239.99609375
31
0.0
  0
LINE
 8
BLOCK_2
10
10886.00390625
20
4239.99609375
30
0.0
11
10873.25390625
21
4309.5
31
0.0
  0
LINE
 8
BLOCK_2
10
10873.25390625
20
4309.5
30
0.0
11
10848.01171875
21
4333.001953125
31
0.0
  0
LINE
 8
BLOCK_2
10
10848.01171875
20
4333.001953125
30
0.0
11
10804.0078125
21
4383.87890625
31
0.0
  0
LINE
 8
BLOCK_2
10
11148.01171875
20
4410.498046875
30
0.0
11
11176.0078125
21
4408.125
31
0.0
  0
LINE
 8
BLOCK_2
10
11176.0078125
20
4408.125
30
0.0
11
11176.0078125
21
4429.998046875
31
0.0
  0
LINE
 8
BLOCK_2
10
11176.0078125
20
4429.998046875
30
0.0
11
11162.00390625
21
4441.248046875
31
0.0
  0
LINE
 8
BLOCK_2
10
11162.00390625
20
4441.248046875
30
0.0
11
11210.00390625
21
4471.998046875
31
0.0
  0
LINE
 8
BLOCK_2
10
11210.00390625
20
4471.998046875
30
0.0
11
11234.00390625
21
4456.623046875
31
0.0
  0
LINE
 8
BLOCK_2
10
11234.00390625
20
4456.623046875
30
0.0
11
11298.01171875
21
4460.49609375
31
0.0
  0
LINE
 8
BLOCK_2
10
11298.01171875
20
4460.49609375
30
0.0
11
11314.0078125
21
4477.5
31
0.0
  0
LINE
 8
BLOCK_2
10
11314.0078125
20
4477.5
30
0.0
11
11360.00390625
21
4464.310546875
31
0.0
  0
LINE
 8
BLOCK_2
10
11360.00390625
20
4464.310546875
30
0.0
11
11374.0078125
21
4429.998046875
31
0.0
  0
LINE
 8
BLOCK_2
10
11374.0078125
20
4429.998046875
30
0.0
11
11396.00390625
21
4408.125
31
0.0
  0
LINE
 8
BLOCK_2
10
11396.00390625
20
4408.125
30
0.0
11
11420.00390625
21
4408.125
31
0.0
  0
LINE
 8
BLOCK_2
10
11420.00390625
20
4408.125
30
0.0
11
11420.00390625
21
4274.748046875
31
0.0
  0
LINE
 8
BLOCK_2
10
11420.00390625
20
4274.748046875
30
0.0
11
11508.01171875
21
4140.99609375
31
0.0
  0
LINE
 8
BLOCK_2
10
11508.01171875
20
4140.99609375
30
0.0
11
11604.01171875
21
4140.99609375
31
0.0
  0
LINE
 8
BLOCK_2
10
11604.01171875
20
4140.99609375
30
0.0
11
11604.01171875
21
3799.998046875
31
0.0
  0
LINE
 8
BLOCK_2
10
11604.01171875
20
3799.998046875
30
0.0
11
11186.00390625
21
3799.998046875
31
0.0
  0
LINE
 8
BLOCK_2
10
11186.00390625
20
3799.998046875
30
0.0
11
11186.00390625
21
3789.99609375
31
0.0
  0
LINE
 8
BLOCK_2
10
11186.00390625
20
3789.99609375
30
0.0
11
11148.01171875
21
3789.99609375
31
0.0
  0
LINE
 8
BLOCK_2
10
11148.01171875
20
3789.99609375
30
0.0
11
11138.5078125
21
3810.0
31
0.0
  0
LINE
 8
BLOCK_2
10
11138.5078125
20
3810.0
30
0.0
11
11100.01171875
21
3819.99609375
31
0.0
  0
LINE
 8
BLOCK_2
10
11100.01171875
20
3819.99609375
30
0.0
11
11090.00390625
21
3799.998046875
31
0.0
  0
LINE
 8
BLOCK_2
10
11090.00390625
20
3799.998046875
30
0.0
11
11129.00390625
21
3745.998046875
31
0.0
  0
LINE
 8
BLOCK_2
10
11129.00390625
20
3745.998046875
30
0.0
11
11138.5078125
21
3696.0
31
0.0
  0
LINE
 8
BLOCK_2
10
11138.5078125
20
3696.0
30
0.0
11
11176.0078125
21
3649.998046875
31
0.0
  0
LINE
 8
BLOCK_2
10
11176.0078125
20
3649.998046875
30
0.0
11
11244.01171875
21
3613.998046875
31
0.0
  0
LINE
 8
BLOCK_2
10
11244.01171875
20
3613.998046875
30
0.0
11
11266.0078125
21
3591.99609375
31
0.0
  0
LINE
 8
BLOCK_2
10
11276.00390625
20
3603.0
30
0.0
11
11306.00390625
21
3631.998046875
31
0.0
  0
LINE
 8
BLOCK_2
10
11306.00390625
20
3631.998046875
30
0.0
11
11306.00390625
21
3757.998046875
31
0.0
  0
LINE
 8
BLOCK_2
10
11306.00390625
20
3757.998046875
30
0.0
11
11474.00390625
21
3757.998046875
31
0.0
  0
LINE
 8
BLOCK_2
10
11474.00390625
20
3757.998046875
30
0.0
11
11474.00390625
21
3631.998046875
31
0.0
  0
LINE
 8
BLOCK_2
10
11474.00390625
20
3631.998046875
30
0.0
11
11454.01171875
21
3603.0
31
0.0
  0
LINE
 8
BLOCK_2
10
11454.01171875
20
3603.0
30
0.0
11
11438.00390625
21
3573.99609375
31
0.0
  0
LINE
 8
BLOCK_2
10
11438.00390625
20
3573.99609375
30
0.0
11
11474.00390625
21
3513.99609375
31
0.0
  0
LINE
 8
BLOCK_2
10
11474.00390625
20
3513.99609375
30
0.0
11
11498.00390625
21
3513.99609375
31
0.0
  0
LINE
 8
BLOCK_2
10
11498.00390625
20
3513.99609375
30
0.0
11
11498.00390625
21
3439.998046875
31
0.0
  0
LINE
 8
BLOCK_2
10
11498.00390625
20
3439.998046875
30
0.0
11
11566.0078125
21
3439.998046875
31
0.0
  0
LINE
 8
BLOCK_2
10
11566.0078125
20
3439.998046875
30
0.0
11
11566.0078125
21
3417.99609375
31
0.0
  0
LINE
 8
BLOCK_2
10
11566.0078125
20
3417.99609375
30
0.0
11
11588.015625
21
3417.99609375
31
0.0
  0
LINE
 8
BLOCK_2
10
11588.015625
20
3417.99609375
30
0.0
11
11588.015625
21
3354.0
31
0.0
  0
LINE
 8
BLOCK_2
10
11604.01171875
20
3354.0
30
0.0
11
11754.01171875
21
3354.0
31
0.0
  0
LINE
 8
BLOCK_2
10
11754.01171875
20
3354.0
30
0.0
11
11754.01171875
21
3264.0
31
0.0
  0
LINE
 8
BLOCK_2
10
11754.01171875
20
3264.0
30
0.0
11
11732.015625
21
3264.0
31
0.0
  0
LINE
 8
BLOCK_2
10
12200.00390625
20
3685.998046875
30
0.0
11
12062.00390625
21
3513.99609375
31
0.0
  0
LINE
 8
BLOCK_2
10
12062.00390625
20
3513.99609375
30
0.0
11
12062.00390625
21
3439.998046875
31
0.0
  0
LINE
 8
BLOCK_2
10
12062.00390625
20
3439.998046875
30
0.0
11
12112.0078125
21
3439.998046875
31
0.0
  0
LINE
 8
BLOCK_2
10
12112.0078125
20
3439.998046875
30
0.0
11
12112.0078125
21
3264.0
31
0.0
  0
LINE
 8
BLOCK_2
10
12112.0078125
20
3264.0
30
0.0
11
12188.015625
21
3264.0
31
0.0
  0
LINE
 8
BLOCK_2
10
12188.015625
20
3264.0
30
0.0
11
12188.015625
21
3004.001953125
31
0.0
  0
LINE
 8
BLOCK_2
10
12188.015625
20
3004.001953125
30
0.0
11
12222.01171875
21
2967.99609375
31
0.0
  0
LINE
 8
BLOCK_2
10
12222.01171875
20
2967.99609375
30
0.0
11
12254.00390625
21
2967.99609375
31
0.0
  0
LINE
 8
BLOCK_2
10
12254.00390625
20
2967.99609375
30
0.0
11
12254.00390625
21
2301.99609375
31
0.0
  0
LINE
 8
BLOCK_2
10
12254.00390625
20
2301.99609375
30
0.0
11
12188.015625
21
2284.001953125
31
0.0
  0
LINE
 8
BLOCK_2
10
13380.01171875
20
6640.001953125
30
0.0
11
13380.01171875
21
7122.0
31
0.0
  0
LINE
 8
BLOCK_2
10
13394.00390625
20
6640.001953125
30
0.0
11
13424.00390625
21
6590.00390625
31
0.0
  0
LINE
 8
BLOCK_2
10
13424.00390625
20
6590.00390625
30
0.0
11
13424.00390625
21
6555.0
31
0.0
  0
LINE
 8
BLOCK_2
10
13424.00390625
20
6555.0
30
0.0
11
13100.00390625
21
6493.248046875
31
0.0
  0
LINE
 8
BLOCK_2
10
13100.00390625
20
6493.248046875
30
0.0
11
12914.00390625
21
6524.12109375
31
0.0
  0
LINE
 8
BLOCK_2
10
12914.00390625
20
6524.12109375
30
0.0
11
12786.01171875
21
6517.74609375
31
0.0
  0
LINE
 8
BLOCK_2
10
12786.01171875
20
6517.74609375
30
0.0
11
12786.01171875
21
6493.248046875
31
0.0
  0
LINE
 8
BLOCK_2
10
12786.01171875
20
6493.248046875
30
0.0
11
12850.0078125
21
6468.0
31
0.0
  0
LINE
 8
BLOCK_2
10
12850.0078125
20
6468.0
30
0.0
11
12742.0078125
21
6015.498046875
31
0.0
  0
LINE
 8
BLOCK_2
10
12742.0078125
20
6015.498046875
30
0.0
11
12774.01171875
21
6009.0
31
0.0
  0
LINE
 8
BLOCK_2
10
12774.01171875
20
6009.0
30
0.0
11
12818.00390625
21
6015.498046875
31
0.0
  0
LINE
 8
BLOCK_2
10
12818.00390625
20
6015.498046875
30
0.0
11
12850.0078125
21
6009.0
31
0.0
  0
LINE
 8
BLOCK_2
10
12850.0078125
20
6009.0
30
0.0
11
12874.0078125
21
6015.498046875
31
0.0
  0
LINE
 8
BLOCK_2
10
12874.0078125
20
6015.498046875
30
0.0
11
12924.01171875
21
6015.498046875
31
0.0
  0
LINE
 8
BLOCK_2
10
12924.01171875
20
6015.498046875
30
0.0
11
12952.0078125
21
6009.0
31
0.0
  0
LINE
 8
BLOCK_2
10
12952.0078125
20
6009.0
30
0.0
11
12952.0078125
21
5979.123046875
31
0.0
  0
LINE
 8
BLOCK_2
10
12952.0078125
20
5979.123046875
30
0.0
11
12899.00390625
21
5960.25
31
0.0
  0
LINE
 8
BLOCK_2
10
12899.00390625
20
5960.25
30
0.0
11
12899.00390625
21
5946.123046875
31
0.0
  0
LINE
 8
BLOCK_2
10
12899.00390625
20
5946.123046875
30
0.0
11
12952.0078125
21
5944.37109375
31
0.0
  0
LINE
 8
BLOCK_2
10
12952.0078125
20
5944.37109375
30
0.0
11
12964.0078125
21
5931.99609375
31
0.0
  0
LINE
 8
BLOCK_2
10
12964.0078125
20
5931.99609375
30
0.0
11
12964.0078125
21
5911.5
31
0.0
  0
LINE
 8
BLOCK_2
10
12964.0078125
20
5911.5
30
0.0
11
12774.01171875
21
5894.373046875
31
0.0
  0
LINE
 8
BLOCK_2
10
12774.01171875
20
5894.373046875
30
0.0
11
12730.0078125
21
5385.99609375
31
0.0
  0
LINE
 8
BLOCK_2
10
12730.0078125
20
5385.99609375
30
0.0
11
12600.01171875
21
5385.99609375
31
0.0
  0
LINE
 8
BLOCK_2
10
12600.01171875
20
5385.99609375
30
0.0
11
12488.015625
21
5281.998046875
31
0.0
  0
LINE
 8
BLOCK_2
10
12488.015625
20
5281.998046875
30
0.0
11
12414.01171875
21
5247.24609375
31
0.0
  0
LINE
 8
BLOCK_2
10
12414.01171875
20
5247.24609375
30
0.0
11
12372.01171875
21
5264.625
31
0.0
  0
LINE
 8
BLOCK_2
10
12372.01171875
20
5264.625
30
0.0
11
12344.00390625
21
5247.24609375
31
0.0
  0
LINE
 8
BLOCK_2
10
12344.00390625
20
5247.24609375
30
0.0
11
12322.0078125
21
5238.99609375
31
0.0
  0
LINE
 8
BLOCK_2
10
12730.0078125
20
5385.99609375
30
0.0
11
12910.0078125
21
5323.998046875
31
0.0
  0
LINE
 8
BLOCK_2
10
12910.0078125
20
5323.998046875
30
0.0
11
12925.51171875
21
5271.99609375
31
0.0
  0
LINE
 8
BLOCK_2
10
12925.51171875
20
5271.99609375
30
0.0
11
12886.0078125
21
5255.935546875
31
0.0
  0
LINE
 8
BLOCK_2
10
12886.0078125
20
5255.935546875
30
0.0
11
12850.0078125
21
5255.49609375
31
0.0
  0
LINE
 8
BLOCK_2
10
12850.0078125
20
5255.49609375
30
0.0
11
12820.0078125
21
5216.25
31
0.0
  0
LINE
 8
BLOCK_2
10
12820.0078125
20
5216.25
30
0.0
11
12788.00390625
21
5223.99609375
31
0.0
  0
LINE
 8
BLOCK_2
10
12788.00390625
20
5223.99609375
30
0.0
11
12788.00390625
21
4693.998046875
31
0.0
  0
LINE
 8
BLOCK_2
10
12788.00390625
20
4693.998046875
30
0.0
11
12512.00390625
21
4693.998046875
31
0.0
  0
LINE
 8
BLOCK_2
10
12512.00390625
20
4693.998046875
30
0.0
11
12512.00390625
21
4320.0
31
0.0
  0
LINE
 8
BLOCK_2
10
12512.00390625
20
4320.0
30
0.0
11
12788.00390625
21
4320.0
31
0.0
  0
LINE
 8
BLOCK_2
10
13972.0078125
20
6384.0
30
0.0
11
13972.0078125
21
7122.0
31
0.0
  0
LINE
 8
BLOCK_2
10
13972.0078125
20
6384.0
30
0.0
11
13478.00390625
21
6384.0
31
0.0
  0
LINE
 8
BLOCK_2
10
13478.00390625
20
6384.0
30
0.0
11
13478.00390625
21
6352.001953125
31
0.0
  0
LINE
 8
BLOCK_2
10
13478.00390625
20
6352.001953125
30
0.0
11
13508.00390625
21
6331.998046875
31
0.0
  0
LINE
 8
BLOCK_2
10
13508.00390625
20
6331.998046875
30
0.0
11
13564.0078125
21
6331.998046875
31
0.0
  0
LINE
 8
BLOCK_2
10
13564.0078125
20
6331.998046875
30
0.0
11
13592.00390625
21
6301.998046875
31
0.0
  0
LINE
 8
BLOCK_2
10
13592.00390625
20
6301.998046875
30
0.0
11
13578.01171875
21
6270.0
31
0.0
  0
LINE
 8
BLOCK_2
10
13578.01171875
20
6270.0
30
0.0
11
13536.01171875
21
6270.0
31
0.0
  0
LINE
 8
BLOCK_2
10
13536.01171875
20
6270.0
30
0.0
11
13405.9921875
21
6259.998046875
31
0.0
  0
LINE
 8
BLOCK_2
10
13405.9921875
20
6259.998046875
30
0.0
11
13394.00390625
21
6241.74609375
31
0.0
  0
LINE
 8
BLOCK_2
10
13394.00390625
20
6241.74609375
30
0.0
11
13405.9921875
21
6220.001953125
31
0.0
  0
LINE
 8
BLOCK_2
10
13405.9921875
20
6220.001953125
30
0.0
11
13436.00390625
21
6208.001953125
31
0.0
  0
LINE
 8
BLOCK_2
10
13436.00390625
20
6208.001953125
30
0.0
11
13424.00390625
21
6184.001953125
31
0.0
  0
LINE
 8
BLOCK_2
10
13424.00390625
20
6184.001953125
30
0.0
11
13436.00390625
21
6184.001953125
31
0.0
  0
LINE
 8
BLOCK_2
10
13436.00390625
20
6184.001953125
30
0.0
11
13446.01171875
21
6157.998046875
31
0.0
  0
LINE
 8
BLOCK_2
10
13446.01171875
20
6157.998046875
30
0.0
11
13493.00390625
21
6148.001953125
31
0.0
  0
LINE
 8
BLOCK_2
10
13493.00390625
20
6148.001953125
30
0.0
11
13564.0078125
21
6127.53515625
31
0.0
  0
LINE
 8
BLOCK_2
10
13564.0078125
20
6127.53515625
30
0.0
11
13621.9921875
21
6118.001953125
31
0.0
  0
LINE
 8
BLOCK_2
10
13621.9921875
20
6118.001953125
30
0.0
11
13621.9921875
21
6096.0
31
0.0
  0
LINE
 8
BLOCK_2
10
13621.9921875
20
6096.0
30
0.0
11
13593.0
21
6084.0
31
0.0
  0
LINE
 8
BLOCK_2
10
13593.0
20
6084.0
30
0.0
11
13578.01171875
21
6049.998046875
31
0.0
  0
LINE
 8
BLOCK_2
10
13578.01171875
20
6049.998046875
30
0.0
11
13585.51171875
21
6031.998046875
31
0.0
  0
LINE
 8
BLOCK_2
10
13585.51171875
20
6031.998046875
30
0.0
11
13581.76171875
21
6009.0
31
0.0
  0
LINE
 8
BLOCK_2
10
13581.76171875
20
6009.0
30
0.0
11
13508.00390625
21
5960.25
31
0.0
  0
LINE
 8
BLOCK_2
10
13508.00390625
20
5960.25
30
0.0
11
13469.5078125
21
5979.123046875
31
0.0
  0
LINE
 8
BLOCK_2
10
13469.5078125
20
5979.123046875
30
0.0
11
13493.00390625
21
6009.0
31
0.0
  0
LINE
 8
BLOCK_2
10
13493.00390625
20
6009.0
30
0.0
11
13380.01171875
21
6009.0
31
0.0
  0
LINE
 8
BLOCK_2
10
13380.01171875
20
6009.0
30
0.0
11
13380.01171875
21
5847.75
31
0.0
  0
LINE
 8
BLOCK_2
10
13380.01171875
20
5847.75
30
0.0
11
13332.01171875
21
5808.404296875
31
0.0
  0
LINE
 8
BLOCK_2
10
13332.01171875
20
5808.404296875
30
0.0
11
13312.0078125
21
5788.40625
31
0.0
  0
LINE
 8
BLOCK_2
10
13312.0078125
20
5788.40625
30
0.0
11
13312.0078125
21
5729.607421875
31
0.0
  0
LINE
 8
BLOCK_2
10
13312.0078125
20
5729.607421875
30
0.0
11
13342.0078125
21
5630.30859375
31
0.0
  0
LINE
 8
BLOCK_2
10
13342.0078125
20
5630.30859375
30
0.0
11
13356.01171875
21
5569.658203125
31
0.0
  0
LINE
 8
BLOCK_2
10
13356.01171875
20
5569.658203125
30
0.0
11
13262.00390625
21
5513.75390625
31
0.0
  0
LINE
 8
BLOCK_2
10
13262.00390625
20
5513.75390625
30
0.0
11
13262.00390625
21
5488.72265625
31
0.0
  0
LINE
 8
BLOCK_2
10
13262.00390625
20
5488.72265625
30
0.0
11
13168.0078125
21
5398.88671875
31
0.0
  0
LINE
 8
BLOCK_2
10
13168.0078125
20
5398.88671875
30
0.0
11
13080.01171875
21
5357.771484375
31
0.0
  0
LINE
 8
BLOCK_2
10
13080.01171875
20
5357.771484375
30
0.0
11
12976.0078125
21
5332.248046875
31
0.0
  0
LINE
 8
BLOCK_2
10
12976.0078125
20
5332.248046875
30
0.0
11
12964.0078125
21
5281.998046875
31
0.0
  0
LINE
 8
BLOCK_2
10
12964.0078125
20
5281.998046875
30
0.0
11
12925.51171875
21
5271.99609375
31
0.0
  0
LINE
 8
BLOCK_2
10
13356.01171875
20
5569.658203125
30
0.0
11
13380.01171875
21
5588.484375
31
0.0
  0
LINE
 8
BLOCK_2
10
13380.01171875
20
5588.484375
30
0.0
11
13380.01171875
21
5569.658203125
31
0.0
  0
LINE
 8
BLOCK_2
10
13380.01171875
20
4033.998046875
30
0.0
11
12788.00390625
21
4033.998046875
31
0.0
  0
LINE
 8
BLOCK_2
10
12788.00390625
20
4320.0
30
0.0
11
12788.00390625
21
4033.998046875
31
0.0
  0
LINE
 8
BLOCK_2
10
13380.01171875
20
5569.658203125
30
0.0
11
13978.0078125
21
5569.658203125
31
0.0
  0
LINE
 8
BLOCK_2
10
13978.0078125
20
5569.658203125
30
0.0
11
13978.0078125
21
4383.99609375
31
0.0
  0
LINE
 8
BLOCK_2
10
13978.0078125
20
4383.99609375
30
0.0
11
13502.00390625
21
4383.99609375
31
0.0
  0
LINE
 8
BLOCK_2
10
12608.00390625
20
4033.998046875
30
0.0
11
12566.00390625
21
3997.998046875
31
0.0
  0
LINE
 8
BLOCK_2
10
12566.00390625
20
3997.998046875
30
0.0
11
12566.00390625
21
3603.0
31
0.0
  0
LINE
 8
BLOCK_2
10
12566.00390625
20
3603.0
30
0.0
11
12730.0078125
21
3553.998046875
31
0.0
  0
LINE
 8
BLOCK_2
10
12730.0078125
20
3553.998046875
30
0.0
11
12730.0078125
21
3204.0
31
0.0
  0
LINE
 8
BLOCK_2
10
12780.01171875
20
2044.001953125
30
0.0
11
12730.0078125
21
2044.001953125
31
0.0
  0
LINE
 8
BLOCK_2
10
12730.0078125
20
2044.001953125
30
0.0
11
12730.0078125
21
2533.998046875
31
0.0
  0
LINE
 8
BLOCK_2
10
12730.0078125
20
2533.998046875
30
0.0
11
12608.015625
21
2533.998046875
31
0.0
  0
LINE
 8
BLOCK_2
10
12608.015625
20
2533.998046875
30
0.0
11
12608.015625
21
2898.0
31
0.0
  0
LINE
 8
BLOCK_2
10
12608.015625
20
2898.0
30
0.0
11
12566.015625
21
2943.99609375
31
0.0
  0
LINE
 8
BLOCK_2
10
12566.015625
20
2943.99609375
30
0.0
11
12540.01171875
21
2943.99609375
31
0.0
  0
LINE
 8
BLOCK_2
10
12540.01171875
20
2943.99609375
30
0.0
11
12520.0078125
21
2967.99609375
31
0.0
  0
LINE
 8
BLOCK_2
10
12520.0078125
20
2967.99609375
30
0.0
11
12566.015625
21
2985.99609375
31
0.0
  0
LINE
 8
BLOCK_2
10
12566.015625
20
2985.99609375
30
0.0
11
12566.015625
21
3004.001953125
31
0.0
  0
LINE
 8
BLOCK_2
10
12566.015625
20
3004.001953125
30
0.0
11
12553.01953125
21
3042.0
31
0.0
  0
LINE
 8
BLOCK_2
10
12553.01953125
20
3042.0
30
0.0
11
12566.015625
21
3066.0
31
0.0
  0
LINE
 8
BLOCK_2
10
12566.015625
20
3066.0
30
0.0
11
12559.51171875
21
3115.998046875
31
0.0
  0
LINE
 8
BLOCK_2
10
12559.51171875
20
3115.998046875
30
0.0
11
12530.00390625
21
3090.99609375
31
0.0
  0
LINE
 8
BLOCK_2
10
12530.00390625
20
3090.99609375
30
0.0
11
12472.0078125
21
3090.99609375
31
0.0
  0
LINE
 8
BLOCK_2
10
12472.0078125
20
3090.99609375
30
0.0
11
12398.015625
21
3115.998046875
31
0.0
  0
LINE
 8
BLOCK_2
10
12398.015625
20
3115.998046875
30
0.0
11
12314.015625
21
3115.998046875
31
0.0
  0
LINE
 8
BLOCK_2
10
12314.015625
20
3115.998046875
30
0.0
11
12296.015625
21
3103.5
31
0.0
  0
LINE
 8
BLOCK_2
10
12296.015625
20
3103.5
30
0.0
11
12314.015625
21
3090.99609375
31
0.0
  0
LINE
 8
BLOCK_2
10
12314.015625
20
3090.99609375
30
0.0
11
12314.015625
21
3054.0
31
0.0
  0
LINE
 8
BLOCK_2
10
12314.015625
20
3054.0
30
0.0
11
12296.015625
21
3013.998046875
31
0.0
  0
LINE
 8
BLOCK_2
10
12296.015625
20
3013.998046875
30
0.0
11
12254.00390625
21
2967.99609375
31
0.0
  0
LINE
 8
BLOCK_2
10
12608.015625
20
2898.0
30
0.0
11
12640.0078125
21
2898.0
31
0.0
  0
LINE
 8
BLOCK_2
10
12640.0078125
20
2898.0
30
0.0
11
12669.01171875
21
2910.0
31
0.0
  0
LINE
 8
BLOCK_2
10
12669.01171875
20
2910.0
30
0.0
11
12682.0078125
21
2904.0
31
0.0
  0
LINE
 8
BLOCK_2
10
12682.0078125
20
2904.0
30
0.0
11
12675.50390625
21
2869.998046875
31
0.0
  0
LINE
 8
BLOCK_2
10
12675.50390625
20
2869.998046875
30
0.0
11
12704.015625
21
2856.0
31
0.0
  0
LINE
 8
BLOCK_2
10
12704.015625
20
2856.0
30
0.0
11
12742.0078125
21
2907.0
31
0.0
  0
LINE
 8
BLOCK_2
10
12742.0078125
20
2907.0
30
0.0
11
12755.00390625
21
3042.0
31
0.0
  0
LINE
 8
BLOCK_2
10
12755.00390625
20
3042.0
30
0.0
11
12772.0078125
21
3134.00390625
31
0.0
  0
LINE
 8
BLOCK_2
10
12772.0078125
20
3134.00390625
30
0.0
11
12730.0078125
21
3204.0
31
0.0
  0
LINE
 8
BLOCK_2
10
13372.0078125
20
3204.0
30
0.0
11
13276.0078125
21
3276.0
31
0.0
  0
LINE
 8
BLOCK_2
10
13276.0078125
20
3276.0
30
0.0
11
13372.0078125
21
3325.998046875
31
0.0
  0
LINE
 8
BLOCK_2
10
13372.0078125
20
3325.998046875
30
0.0
11
13372.0078125
21
3553.998046875
31
0.0
  0
LINE
 8
BLOCK_2
10
13372.0078125
20
3553.998046875
30
0.0
11
12730.0078125
21
3553.998046875
31
0.0
  0
LINE
 8
BLOCK_2
10
13502.00390625
20
4383.99609375
30
0.0
11
13502.00390625
21
3463.998046875
31
0.0
  0
LINE
 8
BLOCK_2
10
13502.00390625
20
3463.998046875
30
0.0
11
13972.0078125
21
3463.998046875
31
0.0
  0
LINE
 8
BLOCK_2
10
14290.18359375
20
5900.4140625
30
0.0
11
13882.0078125
21
5655.99609375
31
0.0
  0
LINE
 8
BLOCK_2
10
13882.0078125
20
5655.99609375
30
0.0
11
14290.18359375
21
5443.8046875
31
0.0
  0
LINE
 8
BLOCK_2
10
14290.18359375
20
5739.99609375
30
0.0
11
14019.12890625
21
5739.99609375
31
0.0
  0
LINE
 8
BLOCK_2
10
14290.18359375
20
5541.703125
30
0.0
11
14105.9765625
21
5541.703125
31
0.0
  0
LINE
 8
BLOCK_2
10
14290.18359375
20
5443.8046875
30
0.0
11
14290.18359375
21
3463.998046875
31
0.0
  0
LINE
 8
BLOCK_2
10
0.0
20
0.0
30
0.0
11
0.0
21
1528.001953125
31
0.0
  0
LINE
 8
BLOCK_2
10
0.0
20
1528.001953125
30
0.0
11
287.7890625
21
1776.0
31
0.0
  0
LINE
 8
BLOCK_2
10
287.7890625
20
1776.0
30
0.0
11
287.7890625
21
0.0
31
0.0
  0
LINE
 8
BLOCK_2
10
287.7890625
20
1776.0
30
0.0
11
287.7890625
21
2628.0
31
0.0
  0
LINE
 8
BLOCK_2
10
287.7890625
20
2628.0
30
0.0
11
0.0
21
2628.0
31
0.0
  0
LINE
 8
BLOCK_2
10
0.0
20
2628.0
30
0.0
11
0.0
21
2695.998046875
31
0.0
  0
LINE
 8
BLOCK_2
10
0.0
20
2695.998046875
30
0.0
11
115.79296875
21
2728.001953125
31
0.0
  0
LINE
 8
BLOCK_2
10
115.79296875
20
2728.001953125
30
0.0
11
115.79296875
21
2968.001953125
31
0.0
  0
LINE
 8
BLOCK_2
10
115.79296875
20
2968.001953125
30
0.0
11
287.7890625
21
2968.001953125
31
0.0
  0
LINE
 8
BLOCK_2
10
335.7890625
20
2968.001953125
30
0.0
11
335.7890625
21
3056.00390625
31
0.0
  0
LINE
 8
BLOCK_2
10
335.7890625
20
3056.00390625
30
0.0
11
285.78515625
21
3106.001953125
31
0.0
  0
LINE
 8
BLOCK_2
10
285.78515625
20
3106.001953125
30
0.0
11
427.79296875
21
3106.001953125
31
0.0
  0
LINE
 8
BLOCK_2
10
175.79296875
20
1852.001953125
30
0.0
11
0.0
21
1852.001953125
31
0.0
  0
LINE
 8
BLOCK_2
10
0.0
20
1711.998046875
30
0.0
11
175.79296875
21
1711.998046875
31
0.0
  0
LINE
 8
BLOCK_2
10
175.79296875
20
1711.998046875
30
0.0
11
175.79296875
21
1852.001953125
31
0.0
  0
LINE
 8
BLOCK_2
10
0.0
20
6524.12109375
30
0.0
11
0.0
21
7122.0
31
0.0
  0
LINE
 8
BLOCK_2
10
0.0
20
6524.12109375
30
0.0
11
427.79296875
21
6250.875
31
0.0
  0
LINE
 8
BLOCK_2
10
427.79296875
20
6153.0
30
0.0
11
0.0
21
5892.375
31
0.0
  0
LINE
 8
BLOCK_2
10
427.79296875
20
5739.99609375
30
0.0
11
0.0
21
5739.99609375
31
0.0
  0
LINE
 8
BLOCK_2
10
427.79296875
20
5739.99609375
30
0.0
11
427.79296875
21
5541.703125
31
0.0
  0
LINE
 8
BLOCK_2
10
427.79296875
20
5541.703125
30
0.0
11
0.0
21
5541.703125
31
0.0
  0
LINE
 8
BLOCK_2
10
0.0
20
5457.99609375
30
0.0
11
0.0
21
3463.998046875
31
0.0
  0
LINE
 8
BLOCK_2
10
427.79296875
20
4611.99609375
30
0.0
11
287.7890625
21
4611.99609375
31
0.0
  0
LINE
 8
BLOCK_2
10
287.7890625
20
4611.99609375
30
0.0
11
287.7890625
21
4449.99609375
31
0.0
  0
LINE
 8
BLOCK_2
10
287.7890625
20
4449.99609375
30
0.0
11
199.79296875
21
4449.99609375
31
0.0
  0
LINE
 8
BLOCK_2
10
199.79296875
20
4449.99609375
30
0.0
11
199.79296875
21
4129.998046875
31
0.0
  0
LINE
 8
BLOCK_2
10
199.79296875
20
4129.998046875
30
0.0
11
427.79296875
21
4129.998046875
31
0.0
  0
LINE
 8
BLOCK_2
10
0.0
20
3463.998046875
30
0.0
11
427.79296875
21
3463.998046875
31
0.0
  0
LINE
 8
BLOCK_2
10
283.79296875
20
7122.0
30
0.0
11
283.79296875
21
6342.0
31
0.0
  0
LINE
 8
BLOCK_2
10
427.79296875
20
6153.0
30
0.0
11
427.79296875
21
6250.875
31
0.0
  0
LINE
 8
BLOCK_2
10
886.013671875
20
5539.998046875
30
0.0
11
1476.01171875
21
5539.998046875
31
0.0
  0
LINE
 8
BLOCK_2
10
494.009765625
20
3462.0
30
0.0
11
844.013671875
21
3462.0
31
0.0
  0
LINE
 8
BLOCK_2
10
487.013671875
20
3108.0
30
0.0
11
428.015625
21
3108.0
31
0.0
  0
LINE
 8
BLOCK_2
10
2076.01171875
20
2532.0
30
0.0
11
1916.009765625
21
2532.0
31
0.0
  0
LINE
 8
BLOCK_2
10
9808.0078125
20
3862.998046875
30
0.0
11
9808.0078125
21
4039.998046875
31
0.0
  0
LINE
 8
BLOCK_2
10
10996.0078125
20
3004.001953125
30
0.0
11
10996.0078125
21
3108.0
31
0.0
  0
LINE
 8
BLOCK_2
10
13972.0078125
20
2455.998046875
30
0.0
11
13972.0078125
21
3463.998046875
31
0.0
  0
LINE
 8
BLOCK_2
10
13972.0078125
20
2335.998046875
30
0.0
11
13972.0078125
21
2455.998046875
31
0.0
  0
LINE
 8
BLOCK_2
10
6240.01171875
20
6043.998046875
30
0.0
11
6836.00390625
21
6043.998046875
31
0.0
  0
LINE
 8
BLOCK_2
10
8342.953125
20
6084.99609375
30
0.0
11
8336.63671875
21
6069.99609375
31
0.0
  0
LINE
 8
BLOCK_2
10
9812.00390625
20
6793.998046875
30
0.0
11
9812.00390625
21
6615.99609375
31
0.0
  0
LINE
 8
BLOCK_2
10
9812.00390625
20
6843.99609375
30
0.0
11
9812.00390625
21
6793.998046875
31
0.0
  0
LINE
 8
BLOCK_2
10
9812.00390625
20
6480.99609375
30
0.0
11
9812.00390625
21
6390.0
31
0.0
  0
LINE
 8
BLOCK_2
10
10298.00390625
20
5332.248046875
30
0.0
11
10298.00390625
21
5320.998046875
31
0.0
  0
LINE
 8
BLOCK_2
10
10716.01171875
20
4158.0
30
0.0
11
10716.01171875
21
3799.998046875
31
0.0
  0
LINE
 8
BLOCK_2
10
10819.0078125
20
3799.998046875
30
0.0
11
10895.5078125
21
3799.998046875
31
0.0
  0
LINE
 8
BLOCK_2
10
13380.01171875
20
5569.658203125
30
0.0
11
13380.01171875
21
4033.998046875
31
0.0
  0
LINE
 8
BLOCK_2
10
12788.00390625
20
4033.998046875
30
0.0
11
12620.00390625
21
4033.998046875
31
0.0
  0
LINE
 8
BLOCK_2
10
287.7890625
20
2628.0
30
0.0
11
287.7890625
21
2968.001953125
31
0.0
  0
LINE
 8
BLOCK_2
10
287.7890625
20
2968.001953125
30
0.0
11
335.7890625
21
2968.001953125
31
0.0
  0
LINE
 8
BLOCK_2
10
9808.0078125
20
4039.998046875
30
0.0
11
9808.0078125
21
4509.99609375
31
0.0
  0
LINE
 8
BLOCK_2
10
10996.0078125
20
3108.0
30
0.0
11
10996.0078125
21
3537.99609375
31
0.0
 0
ENDSEC
 0
EOF
