0
SECTION
2
HEADER
0
ENDSEC
0
SECTION
2
ENTITIES
0
3DFACE
8
0
  62
55
10
-59.550893
20
-98.304297
30
46.749999
11
-49.257401
21
-101.736418
31
-80.124995
12
-49.257401
22
-101.736418
32
46.749999
13
-49.257401
23
-101.736418
33
46.749999
0
3DFACE
8
0
  62
55
10
-0.257406
20
105.175312
30
46.749999
11
-49.257401
21
101.736418
31
-80.124995
12
-49.257401
22
101.736418
32
46.749999
13
-49.257401
23
101.736418
33
46.749999
0
3DFACE
8
0
  62
55
10
-37.633746
20
-95.756860
30
58.749998
11
-49.257401
21
-101.736418
31
46.749999
12
-0.257406
22
-105.175312
32
46.749999
13
-0.257406
23
-105.175312
33
46.749999
0
3DFACE
8
0
  62
55
10
-72.765693
20
0.000000
30
-80.124995
11
-62.982058
21
-88.007949
31
-80.124995
12
-69.692379
22
-43.950311
32
46.749999
13
-69.692379
23
-43.950311
33
46.749999
0
3DFACE
8
0
  62
55
10
69.692395
20
43.950311
30
46.749999
11
69.692395
21
-43.950311
31
46.749999
12
72.765693
22
0.000000
32
-80.124995
13
72.765693
23
0.000000
33
-80.124995
0
3DFACE
8
0
  62
55
10
-0.257406
20
105.175312
30
46.749999
11
49.257405
21
101.736418
31
-80.124995
12
-49.257401
22
101.736418
32
-80.124995
13
-49.257401
23
101.736418
33
-80.124995
0
3DFACE
8
0
  62
55
10
-49.257401
20
-101.736418
30
46.749999
11
-49.257401
21
-101.736418
31
-80.124995
12
-0.257406
22
-105.175312
32
46.749999
13
-0.257406
23
-105.175312
33
46.749999
0
3DFACE
8
0
  62
55
10
61.618173
20
92.100747
30
-29.692172
11
62.982058
21
88.007949
31
46.749999
12
62.982058
22
88.007949
32
-80.124995
13
62.982058
23
88.007949
33
-80.124995
0
3DFACE
8
0
  62
55
10
62.982058
20
88.007949
30
46.749999
11
61.618173
21
92.100747
31
-29.692172
12
59.550897
22
98.304297
32
46.749999
13
59.550897
23
98.304297
33
46.749999
0
3DFACE
8
0
  62
55
10
59.550897
20
98.304297
30
46.749999
11
61.618173
21
92.100747
31
-29.692172
12
60.584535
22
95.202526
32
8.528915
13
60.584535
23
95.202526
33
8.528915
0
3DFACE
8
0
  62
55
10
59.550897
20
98.304297
30
46.749999
11
59.550897
21
98.304297
31
-80.124995
12
49.257405
22
101.736418
32
46.749999
13
49.257405
23
101.736418
33
46.749999
0
3DFACE
8
0
  62
55
10
59.550897
20
98.304297
30
-80.124995
11
61.618173
21
92.100747
31
-29.692172
12
62.982058
22
88.007949
32
-80.124995
13
62.982058
23
88.007949
33
-80.124995
0
3DFACE
8
0
  62
55
10
61.618173
20
92.100747
30
-29.692172
11
59.550897
21
98.304297
31
-80.124995
12
60.584535
22
95.202526
32
8.528915
13
60.584535
23
95.202526
33
8.528915
0
3DFACE
8
0
  62
55
10
60.584535
20
95.202526
30
8.528915
11
59.550897
21
98.304297
31
-80.124995
12
59.550897
22
98.304297
32
46.749999
13
59.550897
23
98.304297
33
46.749999
0
3DFACE
8
0
  62
55
10
11.379375
20
53.004574
30
75.124998
11
-11.379373
21
53.004574
31
75.124998
12
11.230625
22
0.000000
32
80.124995
13
11.230625
23
0.000000
33
80.124995
0
3DFACE
8
0
  62
55
10
-54.132399
20
53.004574
30
67.374997
11
-65.644221
21
70.529158
31
46.749999
12
-69.692379
22
43.950311
32
46.749999
13
-69.692379
23
43.950311
33
46.749999
0
3DFACE
8
0
  62
55
10
-65.644221
20
70.529158
30
46.749999
11
-54.132399
21
53.004574
31
67.374997
12
-62.982058
22
88.007949
32
46.749999
13
-62.982058
23
88.007949
33
46.749999
0
3DFACE
8
0
  62
55
10
-65.644221
20
70.529158
30
46.749999
11
-62.982058
21
88.007949
31
46.749999
12
-64.289076
22
79.426547
32
46.749999
13
-64.289076
23
79.426547
33
46.749999
0
3DFACE
8
0
  62
55
10
54.132404
20
-53.004570
30
67.374997
11
35.106469
21
0.000000
31
80.124995
12
35.106469
22
-53.004570
32
75.124998
13
35.106469
23
-53.004570
33
75.124998
0
3DFACE
8
0
  62
55
10
54.132404
20
53.004574
30
67.374997
11
35.106469
21
53.004574
31
75.124998
12
35.106469
22
0.000000
32
80.124995
13
35.106469
23
0.000000
33
80.124995
0
3DFACE
8
0
  62
55
10
69.692395
20
-43.950311
30
46.749999
11
54.132404
21
53.004574
31
67.374997
12
54.132404
22
-53.004570
32
67.374997
13
54.132404
23
-53.004570
33
67.374997
0
3DFACE
8
0
  62
55
10
54.132404
20
53.004574
30
67.374997
11
69.692395
21
-43.950311
31
46.749999
12
69.692395
22
43.950311
32
46.749999
13
69.692395
23
43.950311
33
46.749999
0
3DFACE
8
0
  62
55
10
11.230625
20
0.000000
30
80.124995
11
-11.379373
21
53.004574
31
75.124998
12
-11.230623
22
0.000000
32
80.124995
13
-11.230623
23
0.000000
33
80.124995
0
3DFACE
8
0
  62
55
10
-65.644221
20
70.529158
30
46.749999
11
-62.982058
21
88.007949
31
-80.124995
12
-69.692379
22
43.950311
32
46.749999
13
-69.692379
23
43.950311
33
46.749999
0
3DFACE
8
0
  62
55
10
-62.982058
20
88.007949
30
-80.124995
11
-65.644221
21
70.529158
31
46.749999
12
-64.289076
22
79.426547
32
46.749999
13
-64.289076
23
79.426547
33
46.749999
0
3DFACE
8
0
  62
55
10
-62.982058
20
88.007949
30
-80.124995
11
-64.289076
21
79.426547
31
46.749999
12
-62.982058
22
88.007949
32
46.749999
13
-62.982058
23
88.007949
33
46.749999
0
3DFACE
8
0
  62
55
10
-54.132399
20
-53.004570
30
67.374997
11
-62.982058
21
-88.007949
31
46.749999
12
-59.550893
22
-98.304297
32
46.749999
13
-59.550893
23
-98.304297
33
46.749999
0
3DFACE
8
0
  62
55
10
-37.633746
20
-95.756860
30
58.749998
11
-59.550893
21
-98.304297
31
46.749999
12
-49.257401
22
-101.736418
32
46.749999
13
-49.257401
23
-101.736418
33
46.749999
0
3DFACE
8
0
  62
55
10
-37.633746
20
-95.756860
30
58.749998
11
-54.132399
21
-53.004570
31
67.374997
12
-59.550893
22
-98.304297
32
46.749999
13
-59.550893
23
-98.304297
33
46.749999
0
3DFACE
8
0
  62
55
10
-62.982058
20
88.007949
30
46.749999
11
-60.187034
21
96.395348
31
23.227255
12
-62.982058
22
88.007949
32
-80.124995
13
-62.982058
23
88.007949
33
-80.124995
0
3DFACE
8
0
  62
55
10
-60.187034
20
96.395348
30
23.227255
11
-62.982058
21
88.007949
31
46.749999
12
-59.550893
22
98.304297
32
46.749999
13
-59.550893
23
98.304297
33
46.749999
0
3DFACE
8
0
  62
55
10
-60.187034
20
96.395348
30
23.227255
11
-59.550893
21
98.304297
31
46.749999
12
-60.038836
22
96.840066
32
28.707243
13
-60.038836
23
96.840066
33
28.707243
0
3DFACE
8
0
  62
55
10
-60.187034
20
96.395348
30
23.227255
11
-59.550893
21
98.304297
31
-80.124995
12
-62.982058
22
88.007949
32
-80.124995
13
-62.982058
23
88.007949
33
-80.124995
0
3DFACE
8
0
  62
55
10
-59.550893
20
98.304297
30
-80.124995
11
-60.187034
21
96.395348
31
23.227255
12
-60.038836
22
96.840066
32
28.707243
13
-60.038836
23
96.840066
33
28.707243
0
3DFACE
8
0
  62
55
10
-59.550893
20
98.304297
30
-80.124995
11
-60.038836
21
96.840066
31
28.707243
12
-59.550893
22
98.304297
32
46.749999
13
-59.550893
23
98.304297
33
46.749999
0
3DFACE
8
0
  62
55
10
-48.757403
20
88.007949
30
57.999999
11
-49.257401
21
101.736418
31
46.749999
12
-59.550893
22
98.304297
32
46.749999
13
-59.550893
23
98.304297
33
46.749999
0
3DFACE
8
0
  62
55
10
11.379375
20
95.756860
30
58.749998
11
-0.257406
21
105.175312
31
46.749999
12
-11.379373
22
95.756860
32
58.749998
13
-11.379373
23
95.756860
33
58.749998
0
3DFACE
8
0
  62
55
10
11.379375
20
-95.756860
30
58.749998
11
-11.379373
21
-95.756860
31
58.749998
12
-0.257406
22
-105.175312
32
46.749999
13
-0.257406
23
-105.175312
33
46.749999
0
3DFACE
8
0
  62
55
10
-11.379373
20
-95.756860
30
58.749998
11
11.379375
21
-95.756860
31
58.749998
12
0.000001
22
-95.756860
32
58.749998
13
0.000001
23
-95.756860
33
58.749998
0
3DFACE
8
0
  62
55
10
0.000001
20
-95.756860
30
58.749998
11
-11.379373
21
-53.004570
31
75.124998
12
-11.379373
22
-95.756860
32
58.749998
13
-11.379373
23
-95.756860
33
58.749998
0
3DFACE
8
0
  62
55
10
-11.379373
20
-53.004570
30
75.124998
11
0.000001
21
-95.756860
31
58.749998
12
11.379375
22
-95.756860
32
58.749998
13
11.379375
23
-95.756860
33
58.749998
0
3DFACE
8
0
  62
55
10
-35.106469
20
-53.004570
30
75.124998
11
-54.132399
21
-53.004570
31
67.374997
12
-37.633746
22
-95.756860
32
58.749998
13
-37.633746
23
-95.756860
33
58.749998
0
3DFACE
8
0
  62
55
10
-11.379373
20
95.756860
30
58.749998
11
-0.257406
21
105.175312
31
46.749999
12
-37.633746
22
95.756860
32
58.749998
13
-37.633746
23
95.756860
33
58.749998
0
3DFACE
8
0
  62
55
10
-48.757403
20
88.007949
30
57.999999
11
-62.982058
21
88.007949
31
46.749999
12
-54.132399
22
53.004574
32
67.374997
13
-54.132399
23
53.004574
33
67.374997
0
3DFACE
8
0
  62
55
10
59.550897
20
-98.304297
30
46.749999
11
54.132404
21
-53.004570
31
67.374997
12
37.633750
22
-95.756860
32
58.749998
13
37.633750
23
-95.756860
33
58.749998
0
3DFACE
8
0
  62
55
10
62.982058
20
88.007949
30
-80.124995
11
67.045331
21
61.329929
31
46.749999
12
69.692395
22
43.950311
32
46.749999
13
69.692395
23
43.950311
33
46.749999
0
3DFACE
8
0
  62
55
10
67.045331
20
61.329929
30
46.749999
11
62.982058
21
88.007949
31
-80.124995
12
65.266704
22
73.007757
32
46.749999
13
65.266704
23
73.007757
33
46.749999
0
3DFACE
8
0
  62
55
10
65.266704
20
73.007757
30
46.749999
11
62.982058
21
88.007949
31
-80.124995
12
62.982058
22
88.007949
32
46.749999
13
62.982058
23
88.007949
33
46.749999
0
3DFACE
8
0
  62
55
10
-37.633746
20
95.756860
30
58.749998
11
-49.257401
21
101.736418
31
46.749999
12
-48.757403
22
88.007949
32
57.999999
13
-48.757403
23
88.007949
33
57.999999
0
3DFACE
8
0
  62
55
10
11.379375
20
-53.004570
30
75.124998
11
11.230625
21
0.000000
31
80.124995
12
-11.379373
22
-53.004570
32
75.124998
13
-11.379373
23
-53.004570
33
75.124998
0
3DFACE
8
0
  62
55
10
62.982058
20
88.007949
30
-80.124995
11
69.692395
21
43.950311
31
46.749999
12
72.765693
22
0.000000
32
-80.124995
13
72.765693
23
0.000000
33
-80.124995
0
3DFACE
8
0
  62
55
10
49.257405
20
-101.736418
30
-80.124995
11
1.704490
21
-102.603365
31
-48.139738
12
-49.257401
22
-101.736418
32
-80.124995
13
-49.257401
23
-101.736418
33
-80.124995
0
3DFACE
8
0
  62
55
10
1.704490
20
-102.603365
30
-48.139738
11
49.257405
21
-101.736418
31
-80.124995
12
11.372780
22
-104.367574
32
16.949225
13
11.372780
23
-104.367574
33
16.949225
0
3DFACE
8
0
  62
55
10
1.704490
20
-102.603365
30
-48.139738
11
11.372780
21
-104.367574
31
16.949225
12
1.704490
22
-104.464430
32
20.522543
13
1.704490
23
-104.464430
33
20.522543
0
3DFACE
8
0
  62
55
10
1.704490
20
-104.464430
30
20.522543
11
11.372780
21
-104.367574
31
16.949225
12
-0.257406
22
-105.175312
32
46.749999
13
-0.257406
23
-105.175312
33
46.749999
0
3DFACE
8
0
  62
55
10
1.704490
20
-104.464430
30
20.522543
11
-0.257406
21
-105.175312
31
46.749999
12
-3.733010
22
-104.464430
32
20.522543
13
-3.733010
23
-104.464430
33
20.522543
0
3DFACE
8
0
  62
55
10
-49.257401
20
-101.736418
30
-80.124995
11
-3.733010
21
-104.464430
31
20.522543
12
-0.257406
22
-105.175312
32
46.749999
13
-0.257406
23
-105.175312
33
46.749999
0
3DFACE
8
0
  62
55
10
-3.733010
20
-104.464430
30
20.522543
11
-49.257401
21
-101.736418
31
-80.124995
12
-3.733010
22
-102.603365
32
-48.139738
13
-3.733010
23
-102.603365
33
-48.139738
0
3DFACE
8
0
  62
55
10
-3.733010
20
-102.603365
30
-48.139738
11
-49.257401
21
-101.736418
31
-80.124995
12
1.704490
22
-102.603365
32
-48.139738
13
1.704490
23
-102.603365
33
-48.139738
0
3DFACE
8
0
  62
55
10
-69.692379
20
-43.950311
30
46.749999
11
-62.982058
21
-88.007949
31
46.749999
12
-54.132399
22
-53.004570
32
67.374997
13
-54.132399
23
-53.004570
33
67.374997
0
3DFACE
8
0
  62
55
10
-37.633746
20
-95.756860
30
58.749998
11
-0.257406
21
-105.175312
31
46.749999
12
-11.379373
22
-95.756860
32
58.749998
13
-11.379373
23
-95.756860
33
58.749998
0
3DFACE
8
0
  62
55
10
11.379375
20
95.756860
30
58.749998
11
-11.379373
21
95.756860
31
58.749998
12
-11.379373
22
53.004574
32
75.124998
13
-11.379373
23
53.004574
33
75.124998
0
3DFACE
8
0
  62
55
10
-35.106469
20
53.004574
30
75.124998
11
-48.757403
21
88.007949
31
57.999999
12
-54.132399
22
53.004574
32
67.374997
13
-54.132399
23
53.004574
33
67.374997
0
3DFACE
8
0
  62
55
10
-35.106469
20
53.004574
30
75.124998
11
-37.633746
21
95.756860
31
58.749998
12
-48.757403
22
88.007949
32
57.999999
13
-48.757403
23
88.007949
33
57.999999
0
3DFACE
8
0
  62
55
10
49.257405
20
-101.736418
30
46.749999
11
11.372780
21
-104.367574
31
16.949225
12
49.257405
22
-101.736418
32
-80.124995
13
49.257405
23
-101.736418
33
-80.124995
0
3DFACE
8
0
  62
55
10
11.372780
20
-104.367574
30
16.949225
11
49.257405
21
-101.736418
31
46.749999
12
-0.257406
22
-105.175312
32
46.749999
13
-0.257406
23
-105.175312
33
46.749999
0
3DFACE
8
0
  62
55
10
-62.982058
20
88.007949
30
-80.124995
11
-62.982058
21
-88.007949
31
-80.124995
12
-72.765693
22
0.000000
32
-80.124995
13
-72.765693
23
0.000000
33
-80.124995
0
3DFACE
8
0
  62
55
10
-62.982058
20
-88.007949
30
-80.124995
11
-62.982058
21
88.007949
31
-80.124995
12
-59.550893
22
98.304297
32
-80.124995
13
-59.550893
23
98.304297
33
-80.124995
0
3DFACE
8
0
  62
55
10
-62.982058
20
-88.007949
30
-80.124995
11
-59.550893
21
98.304297
31
-80.124995
12
-59.550893
22
-98.304297
32
-80.124995
13
-59.550893
23
-98.304297
33
-80.124995
0
3DFACE
8
0
  62
55
10
-59.550893
20
-98.304297
30
-80.124995
11
-59.550893
21
98.304297
31
-80.124995
12
-49.257401
22
101.736418
32
-80.124995
13
-49.257401
23
101.736418
33
-80.124995
0
3DFACE
8
0
  62
55
10
-59.550893
20
-98.304297
30
-80.124995
11
-49.257401
21
101.736418
31
-80.124995
12
-49.257401
22
-101.736418
32
-80.124995
13
-49.257401
23
-101.736418
33
-80.124995
0
3DFACE
8
0
  62
55
10
-49.257401
20
-101.736418
30
-80.124995
11
-49.257401
21
101.736418
31
-80.124995
12
49.257405
22
101.736418
32
-80.124995
13
49.257405
23
101.736418
33
-80.124995
0
3DFACE
8
0
  62
55
10
-49.257401
20
-101.736418
30
-80.124995
11
49.257405
21
101.736418
31
-80.124995
12
49.257405
22
-101.736418
32
-80.124995
13
49.257405
23
-101.736418
33
-80.124995
0
3DFACE
8
0
  62
55
10
49.257405
20
-101.736418
30
-80.124995
11
49.257405
21
101.736418
31
-80.124995
12
59.550897
22
-98.304297
32
-80.124995
13
59.550897
23
-98.304297
33
-80.124995
0
3DFACE
8
0
  62
55
10
59.550897
20
-98.304297
30
-80.124995
11
49.257405
21
101.736418
31
-80.124995
12
59.550897
22
98.304297
32
-80.124995
13
59.550897
23
98.304297
33
-80.124995
0
3DFACE
8
0
  62
55
10
59.550897
20
-98.304297
30
-80.124995
11
59.550897
21
98.304297
31
-80.124995
12
62.982058
22
-88.007949
32
-80.124995
13
62.982058
23
-88.007949
33
-80.124995
0
3DFACE
8
0
  62
55
10
62.982058
20
-88.007949
30
-80.124995
11
59.550897
21
98.304297
31
-80.124995
12
62.982058
22
88.007949
32
-80.124995
13
62.982058
23
88.007949
33
-80.124995
0
3DFACE
8
0
  62
55
10
62.982058
20
-88.007949
30
-80.124995
11
62.982058
21
88.007949
31
-80.124995
12
72.765693
22
0.000000
32
-80.124995
13
72.765693
23
0.000000
33
-80.124995
0
3DFACE
8
0
  62
55
10
-48.757403
20
88.007949
30
57.999999
11
-59.550893
21
98.304297
31
46.749999
12
-62.982058
22
88.007949
32
46.749999
13
-62.982058
23
88.007949
33
46.749999
0
3DFACE
8
0
  62
55
10
54.132404
20
-53.004570
30
67.374997
11
35.106469
21
-53.004570
31
75.124998
12
37.633750
22
-95.756860
32
58.749998
13
37.633750
23
-95.756860
33
58.749998
0
3DFACE
8
0
  62
55
10
37.633750
20
-95.756860
30
58.749998
11
49.257405
21
-101.736418
31
46.749999
12
59.550897
22
-98.304297
32
46.749999
13
59.550897
23
-98.304297
33
46.749999
0
3DFACE
8
0
  62
55
10
54.132404
20
-53.004570
30
67.374997
11
59.550897
21
-98.304297
31
46.749999
12
62.982058
22
-88.007949
32
46.749999
13
62.982058
23
-88.007949
33
46.749999
0
3DFACE
8
0
  62
55
10
11.379375
20
95.756860
30
58.749998
11
-11.379373
21
53.004574
31
75.124998
12
11.379375
22
53.004574
32
75.124998
13
11.379375
23
53.004574
33
75.124998
0
3DFACE
8
0
  62
55
10
-62.982058
20
-88.007949
30
-80.124995
11
-59.550893
21
-98.304297
31
46.749999
12
-62.982058
22
-88.007949
32
46.749999
13
-62.982058
23
-88.007949
33
46.749999
0
3DFACE
8
0
  62
55
10
-69.692379
20
-43.950311
30
46.749999
11
-62.982058
21
-88.007949
31
-80.124995
12
-62.982058
22
-88.007949
32
46.749999
13
-62.982058
23
-88.007949
33
46.749999
0
3DFACE
8
0
  62
55
10
11.230625
20
0.000000
30
80.124995
11
-11.230623
21
0.000000
31
80.124995
12
-11.379373
22
-53.004570
32
75.124998
13
-11.379373
23
-53.004570
33
75.124998
0
3DFACE
8
0
  62
55
10
11.379375
20
-53.004570
30
75.124998
11
-11.379373
21
-53.004570
31
75.124998
12
11.379375
22
-95.756860
32
58.749998
13
11.379375
23
-95.756860
33
58.749998
0
3DFACE
8
0
  62
55
10
-49.257401
20
101.736418
30
46.749999
11
-59.550893
21
98.304297
31
-80.124995
12
-59.550893
22
98.304297
32
46.749999
13
-59.550893
23
98.304297
33
46.749999
0
3DFACE
8
0
  62
55
10
62.982058
20
-88.007949
30
-80.124995
11
59.550897
21
-98.304297
31
46.749999
12
59.550897
22
-98.304297
32
-80.124995
13
59.550897
23
-98.304297
33
-80.124995
0
3DFACE
8
0
  62
55
10
49.257405
20
101.736418
30
46.749999
11
49.257405
21
101.736418
31
-80.124995
12
-0.257406
22
105.175312
32
46.749999
13
-0.257406
23
105.175312
33
46.749999
0
3DFACE
8
0
  62
55
10
-37.633746
20
95.756860
30
58.749998
11
-0.257406
21
105.175312
31
46.749999
12
-49.257401
22
101.736418
32
46.749999
13
-49.257401
23
101.736418
33
46.749999
0
3DFACE
8
0
  62
55
10
-49.257401
20
101.736418
30
46.749999
11
-49.257401
21
101.736418
31
-80.124995
12
-59.550893
22
98.304297
32
-80.124995
13
-59.550893
23
98.304297
33
-80.124995
0
3DFACE
8
0
  62
55
10
49.257405
20
101.736418
30
46.749999
11
37.633750
21
95.756860
31
58.749998
12
48.757407
22
88.007949
32
57.999999
13
48.757407
23
88.007949
33
57.999999
0
3DFACE
8
0
  62
55
10
-62.982058
20
-88.007949
30
-80.124995
11
-59.550893
21
-98.304297
31
-80.124995
12
-59.550893
22
-98.304297
32
46.749999
13
-59.550893
23
-98.304297
33
46.749999
0
3DFACE
8
0
  62
55
10
-59.550893
20
-98.304297
30
46.749999
11
-59.550893
21
-98.304297
31
-80.124995
12
-49.257401
22
-101.736418
32
-80.124995
13
-49.257401
23
-101.736418
33
-80.124995
0
3DFACE
8
0
  62
55
10
11.379375
20
-95.756860
30
58.749998
11
-0.257406
21
-105.175312
31
46.749999
12
37.633750
22
-95.756860
32
58.749998
13
37.633750
23
-95.756860
33
58.749998
0
3DFACE
8
0
  62
55
10
62.982058
20
88.007949
30
46.749999
11
48.757407
21
88.007949
31
57.999999
12
54.132404
22
53.004574
32
67.374997
13
54.132404
23
53.004574
33
67.374997
0
3DFACE
8
0
  62
55
10
62.982058
20
88.007949
30
46.749999
11
59.550897
21
98.304297
31
46.749999
12
48.757407
22
88.007949
32
57.999999
13
48.757407
23
88.007949
33
57.999999
0
3DFACE
8
0
  62
55
10
54.132404
20
53.004574
30
67.374997
11
48.757407
21
88.007949
31
57.999999
12
35.106469
22
53.004574
32
75.124998
13
35.106469
23
53.004574
33
75.124998
0
3DFACE
8
0
  62
55
10
54.132404
20
53.004574
30
67.374997
11
35.106469
21
0.000000
31
80.124995
12
54.132404
22
-53.004570
32
67.374997
13
54.132404
23
-53.004570
33
67.374997
0
3DFACE
8
0
  62
55
10
72.765693
20
0.000000
30
-80.124995
11
69.692395
21
-43.950311
31
46.749999
12
62.982058
22
-88.007949
32
-80.124995
13
62.982058
23
-88.007949
33
-80.124995
0
3DFACE
8
0
  62
55
10
48.757407
20
88.007949
30
57.999999
11
37.633750
21
95.756860
31
58.749998
12
35.106469
22
53.004574
32
75.124998
13
35.106469
23
53.004574
33
75.124998
0
3DFACE
8
0
  62
55
10
62.982058
20
-88.007949
30
46.749999
11
59.550897
21
-98.304297
31
46.749999
12
62.982058
22
-88.007949
32
-80.124995
13
62.982058
23
-88.007949
33
-80.124995
0
3DFACE
8
0
  62
55
10
37.633750
20
-95.756860
30
58.749998
11
-0.257406
21
-105.175312
31
46.749999
12
49.257405
22
-101.736418
32
46.749999
13
49.257405
23
-101.736418
33
46.749999
0
3DFACE
8
0
  62
55
10
69.692395
20
-43.950311
30
46.749999
11
54.132404
21
-53.004570
31
67.374997
12
62.982058
22
-88.007949
32
46.749999
13
62.982058
23
-88.007949
33
46.749999
0
3DFACE
8
0
  62
55
10
37.633750
20
95.756860
30
58.749998
11
-0.257406
21
105.175312
31
46.749999
12
11.379375
22
95.756860
32
58.749998
13
11.379375
23
95.756860
33
58.749998
0
3DFACE
8
0
  62
55
10
49.257405
20
101.736418
30
46.749999
11
59.550897
21
98.304297
31
-80.124995
12
49.257405
22
101.736418
32
-80.124995
13
49.257405
23
101.736418
33
-80.124995
0
3DFACE
8
0
  62
55
10
67.045331
20
61.329929
30
46.749999
11
54.132404
21
53.004574
31
67.374997
12
69.692395
22
43.950311
32
46.749999
13
69.692395
23
43.950311
33
46.749999
0
3DFACE
8
0
  62
55
10
54.132404
20
53.004574
30
67.374997
11
67.045331
21
61.329929
31
46.749999
12
62.982058
22
88.007949
32
46.749999
13
62.982058
23
88.007949
33
46.749999
0
3DFACE
8
0
  62
55
10
62.982058
20
88.007949
30
46.749999
11
67.045331
21
61.329929
31
46.749999
12
65.266704
22
73.007757
32
46.749999
13
65.266704
23
73.007757
33
46.749999
0
3DFACE
8
0
  62
55
10
49.257405
20
-101.736418
30
46.749999
11
49.257405
21
-101.736418
31
-80.124995
12
59.550897
22
-98.304297
32
46.749999
13
59.550897
23
-98.304297
33
46.749999
0
3DFACE
8
0
  62
55
10
59.550897
20
-98.304297
30
46.749999
11
49.257405
21
-101.736418
31
-80.124995
12
59.550897
22
-98.304297
32
-80.124995
13
59.550897
23
-98.304297
33
-80.124995
0
3DFACE
8
0
  62
55
10
69.692395
20
-43.950311
30
46.749999
11
62.982058
21
-88.007949
31
46.749999
12
62.982058
22
-88.007949
32
-80.124995
13
62.982058
23
-88.007949
33
-80.124995
0
3DFACE
8
0
  62
55
10
59.550897
20
98.304297
30
46.749999
11
49.257405
21
101.736418
31
46.749999
12
48.757407
22
88.007949
32
57.999999
13
48.757407
23
88.007949
33
57.999999
0
3DFACE
8
0
  62
55
10
-35.106469
20
0.000000
30
80.124995
11
-54.132399
21
-53.004570
31
67.374997
12
-35.106469
22
-53.004570
32
75.124998
13
-35.106469
23
-53.004570
33
75.124998
0
3DFACE
8
0
  62
55
10
-35.106469
20
0.000000
30
80.124995
11
-35.106469
21
53.004574
31
75.124998
12
-54.132399
22
53.004574
32
67.374997
13
-54.132399
23
53.004574
33
67.374997
0
3DFACE
8
0
  62
55
10
37.633750
20
95.756860
30
58.749998
11
49.257405
21
101.736418
31
46.749999
12
-0.257406
22
105.175312
32
46.749999
13
-0.257406
23
105.175312
33
46.749999
0
3DFACE
8
0
  62
55
10
-62.982058
20
88.007949
30
-80.124995
11
-72.765693
21
0.000000
31
-80.124995
12
-69.692379
22
43.950311
32
46.749999
13
-69.692379
23
43.950311
33
46.749999
0
3DFACE
8
0
  62
55
10
-35.106469
20
0.000000
30
80.124995
11
-54.132399
21
53.004574
31
67.374997
12
-54.132399
22
-53.004570
32
67.374997
13
-54.132399
23
-53.004570
33
67.374997
0
3DFACE
8
0
  62
55
10
-69.692379
20
43.950311
30
46.749999
11
-72.765693
21
0.000000
31
-80.124995
12
-69.692379
22
-43.950311
32
46.749999
13
-69.692379
23
-43.950311
33
46.749999
0
3DFACE
8
0
  62
55
10
-54.132399
20
53.004574
30
67.374997
11
-69.692379
21
-43.950311
31
46.749999
12
-54.132399
22
-53.004570
32
67.374997
13
-54.132399
23
-53.004570
33
67.374997
0
3DFACE
8
0
  62
55
10
-69.692379
20
-43.950311
30
46.749999
11
-54.132399
21
53.004574
31
67.374997
12
-69.692379
22
43.950311
32
46.749999
13
-69.692379
23
43.950311
33
46.749999
0
ENDSEC
0
EOF
