0
SECTION
2
HEADER
0
ENDSEC
0
SECTION
2
ENTITIES
0
3DFACE
8
0
  62
55
10
-213.358000
20
440.670401
30
46.428166
11
213.358015
21
440.670401
31
-46.428166
12
-213.358000
22
440.670401
32
-46.428166
13
-213.358000
23
440.670401
33
-46.428166
0
3DFACE
8
0
  62
55
10
213.358015
20
440.670401
30
-46.428166
11
-213.358000
21
440.670401
31
46.428166
12
213.358015
22
440.670401
32
46.428166
13
213.358015
23
440.670401
33
46.428166
0
3DFACE
8
0
  62
55
10
272.806257
20
381.205648
30
-46.428166
11
315.183967
21
0.000001
31
46.428166
12
315.183967
22
0.000001
32
-46.428166
13
315.183967
23
0.000001
33
-46.428166
0
3DFACE
8
0
  62
55
10
315.183967
20
0.000001
30
46.428166
11
272.806257
21
381.205648
31
-46.428166
12
272.806257
22
381.205648
32
46.428166
13
272.806257
23
381.205648
33
46.428166
0
3DFACE
8
0
  62
55
10
213.358015
20
-440.670401
30
46.428166
11
-213.358000
21
-440.670401
31
-46.428166
12
213.358015
22
-440.670401
32
-46.428166
13
213.358015
23
-440.670401
33
-46.428166
0
3DFACE
8
0
  62
55
10
-213.358000
20
-440.670401
30
-46.428166
11
213.358015
21
-440.670401
31
46.428166
12
-213.358000
22
-440.670401
32
46.428166
13
-213.358000
23
-440.670401
33
46.428166
0
3DFACE
8
0
  62
55
10
-272.806227
20
381.205648
30
46.428166
11
-315.183967
21
0.000001
31
-46.428166
12
-315.183967
22
0.000001
32
46.428166
13
-315.183967
23
0.000001
33
46.428166
0
3DFACE
8
0
  62
55
10
-315.183967
20
0.000001
30
-46.428166
11
-272.806227
21
381.205648
31
46.428166
12
-272.806227
22
381.205648
32
-46.428166
13
-272.806227
23
381.205648
33
-46.428166
0
3DFACE
8
0
  62
55
10
-272.806227
20
381.205648
30
-46.428166
11
-272.806227
21
-381.205648
31
-46.428166
12
-315.183967
22
0.000001
32
-46.428166
13
-315.183967
23
0.000001
33
-46.428166
0
3DFACE
8
0
  62
55
10
-272.806227
20
-381.205648
30
-46.428166
11
-272.806227
21
381.205648
31
-46.428166
12
-257.944137
22
425.804198
32
-46.428166
13
-257.944137
23
425.804198
33
-46.428166
0
3DFACE
8
0
  62
55
10
-272.806227
20
-381.205648
30
-46.428166
11
-257.944137
21
425.804198
31
-46.428166
12
-257.944137
22
-425.804198
32
-46.428166
13
-257.944137
23
-425.804198
33
-46.428166
0
3DFACE
8
0
  62
55
10
-257.944137
20
-425.804198
30
-46.428166
11
-257.944137
21
425.804198
31
-46.428166
12
-213.358000
22
440.670401
32
-46.428166
13
-213.358000
23
440.670401
33
-46.428166
0
3DFACE
8
0
  62
55
10
-257.944137
20
-425.804198
30
-46.428166
11
-213.358000
21
440.670401
31
-46.428166
12
-213.358000
22
-440.670401
32
-46.428166
13
-213.358000
23
-440.670401
33
-46.428166
0
3DFACE
8
0
  62
55
10
-213.358000
20
-440.670401
30
-46.428166
11
-213.358000
21
440.670401
31
-46.428166
12
213.358015
22
440.670401
32
-46.428166
13
213.358015
23
440.670401
33
-46.428166
0
3DFACE
8
0
  62
55
10
-213.358000
20
-440.670401
30
-46.428166
11
213.358015
21
440.670401
31
-46.428166
12
213.358015
22
-440.670401
32
-46.428166
13
213.358015
23
-440.670401
33
-46.428166
0
3DFACE
8
0
  62
55
10
213.358015
20
-440.670401
30
-46.428166
11
213.358015
21
440.670401
31
-46.428166
12
257.944167
22
-425.804198
32
-46.428166
13
257.944167
23
-425.804198
33
-46.428166
0
3DFACE
8
0
  62
55
10
257.944167
20
-425.804198
30
-46.428166
11
213.358015
21
440.670401
31
-46.428166
12
257.944167
22
425.804198
32
-46.428166
13
257.944167
23
425.804198
33
-46.428166
0
3DFACE
8
0
  62
55
10
257.944167
20
-425.804198
30
-46.428166
11
257.944167
21
425.804198
31
-46.428166
12
272.806257
22
-381.205648
32
-46.428166
13
272.806257
23
-381.205648
33
-46.428166
0
3DFACE
8
0
  62
55
10
272.806257
20
-381.205648
30
-46.428166
11
257.944167
21
425.804198
31
-46.428166
12
272.806257
22
381.205648
32
-46.428166
13
272.806257
23
381.205648
33
-46.428166
0
3DFACE
8
0
  62
55
10
272.806257
20
-381.205648
30
-46.428166
11
272.806257
21
381.205648
31
-46.428166
12
315.183967
22
0.000001
32
-46.428166
13
315.183967
23
0.000001
33
-46.428166
0
3DFACE
8
0
  62
55
10
315.183967
20
0.000001
30
-46.428166
11
272.806257
21
-381.205648
31
46.428166
12
272.806257
22
-381.205648
32
-46.428166
13
272.806257
23
-381.205648
33
-46.428166
0
3DFACE
8
0
  62
55
10
272.806257
20
-381.205648
30
46.428166
11
315.183967
21
0.000001
31
-46.428166
12
315.183967
22
0.000001
32
46.428166
13
315.183967
23
0.000001
33
46.428166
0
3DFACE
8
0
  62
55
10
-315.183967
20
0.000001
30
46.428166
11
-272.806227
21
-381.205648
31
-46.428166
12
-272.806227
22
-381.205648
32
46.428166
13
-272.806227
23
-381.205648
33
46.428166
0
3DFACE
8
0
  62
55
10
-272.806227
20
-381.205648
30
-46.428166
11
-315.183967
21
0.000001
31
46.428166
12
-315.183967
22
0.000001
32
-46.428166
13
-315.183967
23
0.000001
33
-46.428166
0
3DFACE
8
0
  62
55
10
-272.806227
20
-381.205648
30
46.428166
11
-257.944137
21
-425.804198
31
-46.428166
12
-257.944137
22
-425.804198
32
46.428166
13
-257.944137
23
-425.804198
33
46.428166
0
3DFACE
8
0
  62
55
10
-257.944137
20
-425.804198
30
-46.428166
11
-272.806227
21
-381.205648
31
46.428166
12
-272.806227
22
-381.205648
32
-46.428166
13
-272.806227
23
-381.205648
33
-46.428166
0
3DFACE
8
0
  62
55
10
-213.358000
20
-440.670401
30
46.428166
11
-257.944137
21
-425.804198
31
-46.428166
12
-213.358000
22
-440.670401
32
-46.428166
13
-213.358000
23
-440.670401
33
-46.428166
0
3DFACE
8
0
  62
55
10
-257.944137
20
-425.804198
30
-46.428166
11
-213.358000
21
-440.670401
31
46.428166
12
-257.944137
22
-425.804198
32
46.428166
13
-257.944137
23
-425.804198
33
46.428166
0
3DFACE
8
0
  62
55
10
257.944167
20
-425.804198
30
46.428166
11
213.358015
21
-440.670401
31
-46.428166
12
257.944167
22
-425.804198
32
-46.428166
13
257.944167
23
-425.804198
33
-46.428166
0
3DFACE
8
0
  62
55
10
213.358015
20
-440.670401
30
-46.428166
11
257.944167
21
-425.804198
31
46.428166
12
213.358015
22
-440.670401
32
46.428166
13
213.358015
23
-440.670401
33
46.428166
0
3DFACE
8
0
  62
55
10
272.806257
20
-381.205648
30
-46.428166
11
257.944167
21
-425.804198
31
46.428166
12
257.944167
22
-425.804198
32
-46.428166
13
257.944167
23
-425.804198
33
-46.428166
0
3DFACE
8
0
  62
55
10
257.944167
20
-425.804198
30
46.428166
11
272.806257
21
-381.205648
31
-46.428166
12
272.806257
22
-381.205648
32
46.428166
13
272.806257
23
-381.205648
33
46.428166
0
3DFACE
8
0
  62
55
10
213.358015
20
440.670401
30
46.428166
11
257.944167
21
425.804198
31
-46.428166
12
213.358015
22
440.670401
32
-46.428166
13
213.358015
23
440.670401
33
-46.428166
0
3DFACE
8
0
  62
55
10
257.944167
20
425.804198
30
-46.428166
11
213.358015
21
440.670401
31
46.428166
12
257.944167
22
425.804198
32
46.428166
13
257.944167
23
425.804198
33
46.428166
0
3DFACE
8
0
  62
55
10
257.944167
20
425.804198
30
-46.428166
11
272.806257
21
381.205648
31
46.428166
12
272.806257
22
381.205648
32
-46.428166
13
272.806257
23
381.205648
33
-46.428166
0
3DFACE
8
0
  62
55
10
272.806257
20
381.205648
30
46.428166
11
257.944167
21
425.804198
31
-46.428166
12
257.944167
22
425.804198
32
46.428166
13
257.944167
23
425.804198
33
46.428166
0
3DFACE
8
0
  62
55
10
-257.944137
20
425.804198
30
46.428166
11
-272.806227
21
381.205648
31
-46.428166
12
-272.806227
22
381.205648
32
46.428166
13
-272.806227
23
381.205648
33
46.428166
0
3DFACE
8
0
  62
55
10
-272.806227
20
381.205648
30
-46.428166
11
-257.944137
21
425.804198
31
46.428166
12
-257.944137
22
425.804198
32
-46.428166
13
-257.944137
23
425.804198
33
-46.428166
0
3DFACE
8
0
  62
55
10
-257.944137
20
425.804198
30
46.428166
11
-213.358000
21
440.670401
31
-46.428166
12
-257.944137
22
425.804198
32
-46.428166
13
-257.944137
23
425.804198
33
-46.428166
0
3DFACE
8
0
  62
55
10
-213.358000
20
440.670401
30
-46.428166
11
-257.944137
21
425.804198
31
46.428166
12
-213.358000
22
440.670401
32
46.428166
13
-213.358000
23
440.670401
33
46.428166
0
ENDSEC
0
EOF
