0
SECTION
2
HEADER
0
ENDSEC
0
SECTION
2
ENTITIES
0
3DFACE
8
0
  62
55
10
-156.295180
20
-235.978112
30
178.203195
11
-167.546690
21
-426.312745
31
105.301157
12
-167.546690
22
-426.312745
32
-200.463355
13
-167.546690
23
-426.312745
33
-200.463355
0
3DFACE
8
0
  62
55
10
-156.295180
20
0.000001
30
200.463355
11
-156.295180
21
-235.978112
31
178.203195
12
-167.546690
22
-426.312745
32
-200.463355
13
-167.546690
23
-426.312745
33
-200.463355
0
3DFACE
8
0
  62
55
10
-50.661352
20
-426.312745
30
105.301157
11
-49.999118
21
-426.312745
31
-200.463355
12
-167.546690
22
-426.312745
32
-200.463355
13
-167.546690
23
-426.312745
33
-200.463355
0
3DFACE
8
0
  62
55
10
-50.661352
20
-426.312745
30
105.301157
11
-167.546690
21
-426.312745
31
-200.463355
12
-167.546690
22
-426.312745
32
105.301157
13
-167.546690
23
-426.312745
33
105.301157
0
3DFACE
8
0
  62
55
10
-167.546690
20
426.312745
30
105.301157
11
-156.295180
21
235.978127
31
178.203195
12
-167.546690
22
426.312745
32
-200.463355
13
-167.546690
23
426.312745
33
-200.463355
0
3DFACE
8
0
  62
55
10
-167.546690
20
426.312745
30
-200.463355
11
-156.295180
21
235.978127
31
178.203195
12
-156.295180
22
0.000001
32
200.463355
13
-156.295180
23
0.000001
33
200.463355
0
3DFACE
8
0
  62
55
10
-167.546690
20
426.312745
30
105.301157
11
-167.546690
21
426.312745
31
-200.463355
12
-50.661352
22
426.312745
32
105.301157
13
-50.661352
23
426.312745
33
105.301157
0
3DFACE
8
0
  62
55
10
-167.546690
20
426.312745
30
-200.463355
11
-156.295180
21
0.000001
31
200.463355
12
-167.546690
22
-426.312745
32
-200.463355
13
-167.546690
23
-426.312745
33
-200.463355
0
3DFACE
8
0
  62
55
10
-49.999118
20
426.312745
30
-200.463355
11
-49.999118
21
0.000001
31
200.463355
12
-50.661352
22
235.978127
32
178.203195
13
-50.661352
23
235.978127
33
178.203195
0
3DFACE
8
0
  62
55
10
-50.661352
20
-235.978112
30
178.203195
11
-49.999118
21
-426.312745
31
-200.463355
12
-50.661352
22
-426.312745
32
105.301157
13
-50.661352
23
-426.312745
33
105.301157
0
3DFACE
8
0
  62
55
10
-49.999118
20
0.000001
30
200.463355
11
-49.999118
21
-426.312745
31
-200.463355
12
-50.661352
22
-235.978112
32
178.203195
13
-50.661352
23
-235.978112
33
178.203195
0
3DFACE
8
0
  62
55
10
-49.999118
20
426.312745
30
-200.463355
11
-49.999118
21
-426.312745
31
-200.463355
12
-49.999118
22
0.000001
32
200.463355
13
-49.999118
23
0.000001
33
200.463355
0
3DFACE
8
0
  62
55
10
-49.999118
20
-426.312745
30
-200.463355
11
-49.999118
21
426.312745
31
-200.463355
12
-167.546690
22
426.312745
32
-200.463355
13
-167.546690
23
426.312745
33
-200.463355
0
3DFACE
8
0
  62
55
10
-49.999118
20
-426.312745
30
-200.463355
11
-167.546690
21
426.312745
31
-200.463355
12
-167.546690
22
-426.312745
32
-200.463355
13
-167.546690
23
-426.312745
33
-200.463355
0
3DFACE
8
0
  62
55
10
-50.661352
20
426.312745
30
105.301157
11
-167.546690
21
426.312745
31
-200.463355
12
-49.999118
22
426.312745
32
-200.463355
13
-49.999118
23
426.312745
33
-200.463355
0
3DFACE
8
0
  62
55
10
-49.999118
20
426.312745
30
-200.463355
11
-50.661352
21
235.978127
31
178.203195
12
-50.661352
22
426.312745
32
105.301157
13
-50.661352
23
426.312745
33
105.301157
0
3DFACE
8
0
  62
55
10
49.999110
20
426.312745
30
-200.463355
11
49.999110
21
0.000001
31
200.463355
12
49.999110
22
-426.312745
32
-200.463355
13
49.999110
23
-426.312745
33
-200.463355
0
3DFACE
8
0
  62
55
10
50.661348
20
-235.978112
30
178.203195
11
50.661348
21
-426.312745
31
105.301157
12
49.999110
22
-426.312745
32
-200.463355
13
49.999110
23
-426.312745
33
-200.463355
0
3DFACE
8
0
  62
55
10
49.999110
20
426.312745
30
-200.463355
11
50.661348
21
235.978127
31
178.203195
12
49.999110
22
0.000001
32
200.463355
13
49.999110
23
0.000001
33
200.463355
0
3DFACE
8
0
  62
55
10
49.999110
20
0.000001
30
200.463355
11
50.661348
21
-235.978112
31
178.203195
12
49.999110
22
-426.312745
32
-200.463355
13
49.999110
23
-426.312745
33
-200.463355
0
3DFACE
8
0
  62
55
10
167.546690
20
426.312745
30
-200.463355
11
156.295151
21
235.978127
31
178.203195
12
167.546690
22
426.312745
32
105.301157
13
167.546690
23
426.312745
33
105.301157
0
3DFACE
8
0
  62
55
10
156.295151
20
0.000001
30
200.463355
11
167.546690
21
-426.312745
31
-200.463355
12
156.295151
22
-235.978112
32
178.203195
13
156.295151
23
-235.978112
33
178.203195
0
3DFACE
8
0
  62
55
10
50.661348
20
-426.312745
30
105.301157
11
167.546690
21
-426.312745
31
-200.463355
12
49.999110
22
-426.312745
32
-200.463355
13
49.999110
23
-426.312745
33
-200.463355
0
3DFACE
8
0
  62
55
10
156.295151
20
-235.978112
30
178.203195
11
167.546690
21
-426.312745
31
-200.463355
12
167.546690
22
-426.312745
32
105.301157
13
167.546690
23
-426.312745
33
105.301157
0
3DFACE
8
0
  62
55
10
50.661348
20
426.312745
30
105.301157
11
167.546690
21
426.312745
31
-200.463355
12
167.546690
22
426.312745
32
105.301157
13
167.546690
23
426.312745
33
105.301157
0
3DFACE
8
0
  62
55
10
167.546690
20
-426.312745
30
105.301157
11
167.546690
21
-426.312745
31
-200.463355
12
50.661348
22
-426.312745
32
105.301157
13
50.661348
23
-426.312745
33
105.301157
0
3DFACE
8
0
  62
55
10
167.546690
20
426.312745
30
-200.463355
11
156.295151
21
0.000001
31
200.463355
12
156.295151
22
235.978127
32
178.203195
13
156.295151
23
235.978127
33
178.203195
0
3DFACE
8
0
  62
55
10
167.546690
20
426.312745
30
-200.463355
11
167.546690
21
-426.312745
31
-200.463355
12
156.295151
22
0.000001
32
200.463355
13
156.295151
23
0.000001
33
200.463355
0
3DFACE
8
0
  62
55
10
167.546690
20
426.312745
30
-200.463355
11
49.999110
21
-426.312745
31
-200.463355
12
167.546690
22
-426.312745
32
-200.463355
13
167.546690
23
-426.312745
33
-200.463355
0
3DFACE
8
0
  62
55
10
167.546690
20
426.312745
30
-200.463355
11
49.999110
21
426.312745
31
-200.463355
12
49.999110
22
-426.312745
32
-200.463355
13
49.999110
23
-426.312745
33
-200.463355
0
3DFACE
8
0
  62
55
10
50.661348
20
426.312745
30
105.301157
11
50.661348
21
235.978127
31
178.203195
12
49.999110
22
426.312745
32
-200.463355
13
49.999110
23
426.312745
33
-200.463355
0
3DFACE
8
0
  62
55
10
50.661348
20
426.312745
30
105.301157
11
49.999110
21
426.312745
31
-200.463355
12
167.546690
22
426.312745
32
-200.463355
13
167.546690
23
426.312745
33
-200.463355
0
ENDSEC
0
EOF
