0
SECTION
2
HEADER
0
ENDSEC
0
SECTION
2
ENTITIES
0
3DFACE
8
0
  62
55
10
-2.099907
20
-238.135010
30
0.392425
11
-61.006751
21
-495.968699
31
-10.273786
12
-31.296514
22
-495.968699
32
-54.839045
13
-31.296514
23
-495.968699
33
-54.839045
0
3DFACE
8
0
  62
55
10
12.841670
20
391.784638
30
119.185813
11
-87.276451
21
-238.135010
31
81.088670
12
12.841670
22
-238.135010
32
119.185813
13
12.841670
23
-238.135010
33
119.185813
0
3DFACE
8
0
  62
55
10
-2.099907
20
-238.135010
30
0.392425
11
22.069970
21
-495.968699
31
-59.396684
12
58.906760
22
-495.968699
32
-20.514699
13
58.906760
23
-495.968699
33
-20.514699
0
3DFACE
8
0
  62
55
10
-119.913481
20
391.784638
30
-20.939998
11
-119.913481
21
-238.135010
31
-20.939998
12
-87.276451
22
391.784638
32
81.088670
13
-87.276451
23
391.784638
33
81.088670
0
3DFACE
8
0
  62
55
10
22.069970
20
-495.968699
30
-59.396684
11
-31.296514
21
-495.968699
31
-54.839045
12
-60.493119
22
-238.135010
32
-110.070519
13
-60.493119
23
-238.135010
33
-110.070519
0
3DFACE
8
0
  62
55
10
46.239849
20
-238.135010
30
-119.185783
11
-60.493119
21
391.784638
31
-110.070519
12
46.239849
22
391.784638
32
-119.185783
13
46.239849
23
391.784638
33
-119.185783
0
3DFACE
8
0
  62
55
10
46.239849
20
391.784638
30
-119.185783
11
-31.296514
21
495.968699
31
-54.839045
12
22.069970
22
495.968699
32
-59.396684
13
22.069970
23
495.968699
33
-59.396684
0
3DFACE
8
0
  62
55
10
105.049863
20
-238.135010
30
64.663500
11
51.474977
21
-495.968699
31
32.527965
12
119.913429
22
-238.135010
32
-41.421823
13
119.913429
23
-238.135010
33
-41.421823
0
3DFACE
8
0
  62
55
10
46.239849
20
-238.135010
30
-119.185783
11
-60.493119
21
-238.135010
31
-110.070519
12
-60.493119
22
391.784638
32
-110.070519
13
-60.493119
23
391.784638
33
-110.070519
0
3DFACE
8
0
  62
55
10
58.906760
20
495.968699
30
-20.514699
11
119.913429
21
391.784638
31
-41.421823
12
22.069970
22
495.968699
32
-59.396684
13
22.069970
23
495.968699
33
-59.396684
0
3DFACE
8
0
  62
55
10
-2.099907
20
-238.135010
30
0.392425
11
-44.688124
21
-495.968699
31
40.740550
12
-61.006751
22
-495.968699
32
-10.273786
13
-61.006751
23
-495.968699
33
-10.273786
0
3DFACE
8
0
  62
55
10
46.239849
20
-238.135010
30
-119.185783
11
22.069970
21
-495.968699
31
-59.396684
12
-60.493119
22
-238.135010
32
-110.070519
13
-60.493119
23
-238.135010
33
-110.070519
0
3DFACE
8
0
  62
55
10
105.049863
20
391.784638
30
64.663500
11
51.474977
21
495.968699
31
32.527965
12
12.841670
22
391.784638
32
119.185813
13
12.841670
23
391.784638
33
119.185813
0
3DFACE
8
0
  62
55
10
105.049863
20
391.784638
30
64.663500
11
105.049863
21
-238.135010
31
64.663500
12
119.913429
22
391.784638
32
-41.421823
13
119.913429
23
391.784638
33
-41.421823
0
3DFACE
8
0
  62
55
10
22.069970
20
-495.968699
30
-59.396684
11
-2.099907
21
-238.135010
31
0.392425
12
-31.296514
22
-495.968699
32
-54.839045
13
-31.296514
23
-495.968699
33
-54.839045
0
3DFACE
8
0
  62
55
10
-119.913481
20
-238.135010
30
-20.939998
11
-61.006751
21
-495.968699
31
-10.273786
12
-87.276451
22
-238.135010
32
81.088670
13
-87.276451
23
-238.135010
33
81.088670
0
3DFACE
8
0
  62
55
10
-60.493119
20
391.784638
30
-110.070519
11
-60.493119
21
-238.135010
31
-110.070519
12
-119.913481
22
391.784638
32
-20.939998
13
-119.913481
23
391.784638
33
-20.939998
0
3DFACE
8
0
  62
55
10
105.049863
20
-238.135010
30
64.663500
11
12.841670
21
-238.135010
31
119.185813
12
5.370881
22
-495.968699
32
59.789117
13
5.370881
23
-495.968699
33
59.789117
0
3DFACE
8
0
  62
55
10
22.069970
20
495.968699
30
-59.396684
11
-31.296514
21
495.968699
31
-54.839045
12
-2.099907
22
391.784638
32
0.392425
13
-2.099907
23
391.784638
33
0.392425
0
3DFACE
8
0
  62
55
10
51.474977
20
-495.968699
30
32.527965
11
5.370881
21
-495.968699
31
59.789117
12
-2.099907
22
-238.135010
32
0.392425
13
-2.099907
23
-238.135010
33
0.392425
0
3DFACE
8
0
  62
55
10
-87.276451
20
-238.135010
30
81.088670
11
-61.006751
21
-495.968699
31
-10.273786
12
-44.688124
22
-495.968699
32
40.740550
13
-44.688124
23
-495.968699
33
40.740550
0
3DFACE
8
0
  62
55
10
-2.099907
20
-238.135010
30
0.392425
11
58.906760
21
-495.968699
31
-20.514699
12
51.474977
22
-495.968699
32
32.527965
13
51.474977
23
-495.968699
33
32.527965
0
3DFACE
8
0
  62
55
10
-31.296514
20
495.968699
30
-54.839045
11
-61.006751
21
495.968699
31
-10.273786
12
-2.099907
22
391.784638
32
0.392425
13
-2.099907
23
391.784638
33
0.392425
0
3DFACE
8
0
  62
55
10
119.913429
20
-238.135010
30
-41.421823
11
51.474977
21
-495.968699
31
32.527965
12
58.906760
22
-495.968699
32
-20.514699
13
58.906760
23
-495.968699
33
-20.514699
0
3DFACE
8
0
  62
55
10
22.069970
20
495.968699
30
-59.396684
11
119.913429
21
391.784638
31
-41.421823
12
46.239849
22
391.784638
32
-119.185783
13
46.239849
23
391.784638
33
-119.185783
0
3DFACE
8
0
  62
55
10
-61.006751
20
495.968699
30
-10.273786
11
-60.493119
21
391.784638
31
-110.070519
12
-119.913481
22
391.784638
32
-20.939998
13
-119.913481
23
391.784638
33
-20.939998
0
3DFACE
8
0
  62
55
10
-60.493119
20
391.784638
30
-110.070519
11
-61.006751
21
495.968699
31
-10.273786
12
-31.296514
22
495.968699
32
-54.839045
13
-31.296514
23
495.968699
33
-54.839045
0
3DFACE
8
0
  62
55
10
-44.688124
20
495.968699
30
40.740550
11
-61.006751
21
495.968699
31
-10.273786
12
-119.913481
22
391.784638
32
-20.939998
13
-119.913481
23
391.784638
33
-20.939998
0
3DFACE
8
0
  62
55
10
51.474977
20
495.968699
30
32.527965
11
-2.099907
21
391.784638
31
0.392425
12
5.370881
22
495.968699
32
59.789117
13
5.370881
23
495.968699
33
59.789117
0
3DFACE
8
0
  62
55
10
119.913429
20
-238.135010
30
-41.421823
11
58.906760
21
-495.968699
31
-20.514699
12
46.239849
22
-238.135010
32
-119.185783
13
46.239849
23
-238.135010
33
-119.185783
0
3DFACE
8
0
  62
55
10
22.069970
20
495.968699
30
-59.396684
11
-2.099907
21
391.784638
31
0.392425
12
58.906760
22
495.968699
32
-20.514699
13
58.906760
23
495.968699
33
-20.514699
0
3DFACE
8
0
  62
55
10
12.841670
20
391.784638
30
119.185813
11
-87.276451
21
391.784638
31
81.088670
12
-87.276451
22
-238.135010
32
81.088670
13
-87.276451
23
-238.135010
33
81.088670
0
3DFACE
8
0
  62
55
10
-44.688124
20
495.968699
30
40.740550
11
-2.099907
21
391.784638
31
0.392425
12
-61.006751
22
495.968699
32
-10.273786
13
-61.006751
23
495.968699
33
-10.273786
0
3DFACE
8
0
  62
55
10
105.049863
20
391.784638
30
64.663500
11
12.841670
21
-238.135010
31
119.185813
12
105.049863
22
-238.135010
32
64.663500
13
105.049863
23
-238.135010
33
64.663500
0
3DFACE
8
0
  62
55
10
5.370881
20
495.968699
30
59.789117
11
-44.688124
21
495.968699
31
40.740550
12
-87.276451
22
391.784638
32
81.088670
13
-87.276451
23
391.784638
33
81.088670
0
3DFACE
8
0
  62
55
10
46.239849
20
391.784638
30
-119.185783
11
-60.493119
21
391.784638
31
-110.070519
12
-31.296514
22
495.968699
32
-54.839045
13
-31.296514
23
495.968699
33
-54.839045
0
3DFACE
8
0
  62
55
10
46.239849
20
391.784638
30
-119.185783
11
119.913429
21
-238.135010
31
-41.421823
12
46.239849
22
-238.135010
32
-119.185783
13
46.239849
23
-238.135010
33
-119.185783
0
3DFACE
8
0
  62
55
10
58.906760
20
495.968699
30
-20.514699
11
105.049863
21
391.784638
31
64.663500
12
119.913429
22
391.784638
32
-41.421823
13
119.913429
23
391.784638
33
-41.421823
0
3DFACE
8
0
  62
55
10
58.906760
20
495.968699
30
-20.514699
11
-2.099907
21
391.784638
31
0.392425
12
51.474977
22
495.968699
32
32.527965
13
51.474977
23
495.968699
33
32.527965
0
3DFACE
8
0
  62
55
10
12.841670
20
-238.135010
30
119.185813
11
-44.688124
21
-495.968699
31
40.740550
12
5.370881
22
-495.968699
32
59.789117
13
5.370881
23
-495.968699
33
59.789117
0
3DFACE
8
0
  62
55
10
-119.913481
20
391.784638
30
-20.939998
11
-60.493119
21
-238.135010
31
-110.070519
12
-119.913481
22
-238.135010
32
-20.939998
13
-119.913481
23
-238.135010
33
-20.939998
0
3DFACE
8
0
  62
55
10
-87.276451
20
391.784638
30
81.088670
11
-119.913481
21
-238.135010
31
-20.939998
12
-87.276451
22
-238.135010
32
81.088670
13
-87.276451
23
-238.135010
33
81.088670
0
3DFACE
8
0
  62
55
10
-44.688124
20
495.968699
30
40.740550
11
-119.913481
21
391.784638
31
-20.939998
12
-87.276451
22
391.784638
32
81.088670
13
-87.276451
23
391.784638
33
81.088670
0
3DFACE
8
0
  62
55
10
5.370881
20
495.968699
30
59.789117
11
-2.099907
21
391.784638
31
0.392425
12
-44.688124
22
495.968699
32
40.740550
13
-44.688124
23
495.968699
33
40.740550
0
3DFACE
8
0
  62
55
10
-119.913481
20
-238.135010
30
-20.939998
11
-31.296514
21
-495.968699
31
-54.839045
12
-61.006751
22
-495.968699
32
-10.273786
13
-61.006751
23
-495.968699
33
-10.273786
0
3DFACE
8
0
  62
55
10
-31.296514
20
-495.968699
30
-54.839045
11
-119.913481
21
-238.135010
31
-20.939998
12
-60.493119
22
-238.135010
32
-110.070519
13
-60.493119
23
-238.135010
33
-110.070519
0
3DFACE
8
0
  62
55
10
5.370881
20
-495.968699
30
59.789117
11
-44.688124
21
-495.968699
31
40.740550
12
-2.099907
22
-238.135010
32
0.392425
13
-2.099907
23
-238.135010
33
0.392425
0
3DFACE
8
0
  62
55
10
12.841670
20
-238.135010
30
119.185813
11
-87.276451
21
-238.135010
31
81.088670
12
-44.688124
22
-495.968699
32
40.740550
13
-44.688124
23
-495.968699
33
40.740550
0
3DFACE
8
0
  62
55
10
12.841670
20
391.784638
30
119.185813
11
5.370881
21
495.968699
31
59.789117
12
-87.276451
22
391.784638
32
81.088670
13
-87.276451
23
391.784638
33
81.088670
0
3DFACE
8
0
  62
55
10
105.049863
20
-238.135010
30
64.663500
11
5.370881
21
-495.968699
31
59.789117
12
51.474977
22
-495.968699
32
32.527965
13
51.474977
23
-495.968699
33
32.527965
0
3DFACE
8
0
  62
55
10
119.913429
20
391.784638
30
-41.421823
11
119.913429
21
-238.135010
31
-41.421823
12
46.239849
22
391.784638
32
-119.185783
13
46.239849
23
391.784638
33
-119.185783
0
3DFACE
8
0
  62
55
10
119.913429
20
391.784638
30
-41.421823
11
105.049863
21
-238.135010
31
64.663500
12
119.913429
22
-238.135010
32
-41.421823
13
119.913429
23
-238.135010
33
-41.421823
0
3DFACE
8
0
  62
55
10
105.049863
20
391.784638
30
64.663500
11
12.841670
21
391.784638
31
119.185813
12
12.841670
22
-238.135010
32
119.185813
13
12.841670
23
-238.135010
33
119.185813
0
3DFACE
8
0
  62
55
10
51.474977
20
495.968699
30
32.527965
11
105.049863
21
391.784638
31
64.663500
12
58.906760
22
495.968699
32
-20.514699
13
58.906760
23
495.968699
33
-20.514699
0
3DFACE
8
0
  62
55
10
51.474977
20
495.968699
30
32.527965
11
5.370881
21
495.968699
31
59.789117
12
12.841670
22
391.784638
32
119.185813
13
12.841670
23
391.784638
33
119.185813
0
3DFACE
8
0
  62
55
10
46.239849
20
-238.135010
30
-119.185783
11
58.906760
21
-495.968699
31
-20.514699
12
22.069970
22
-495.968699
32
-59.396684
13
22.069970
23
-495.968699
33
-59.396684
0
ENDSEC
0
EOF
