0
SECTION
2
HEADER
0
ENDSEC
0
SECTION
2
ENTITIES
0
3DFACE
8
0
  62
55
10
307.550490
20
-392.424732
30
37.623432
11
-303.422838
21
-392.424732
31
-37.623432
12
307.550490
22
-392.424732
32
-37.623432
13
307.550490
23
-392.424732
33
-37.623432
0
3DFACE
8
0
  62
55
10
-303.422838
20
-392.424732
30
-37.623432
11
307.550490
21
-392.424732
31
37.623432
12
-303.422838
22
-392.424732
32
37.623432
13
-303.422838
23
-392.424732
33
37.623432
0
3DFACE
8
0
  62
55
10
351.717412
20
-334.679514
30
-37.623432
11
307.550490
21
-392.424732
31
37.623432
12
307.550490
22
-392.424732
32
-37.623432
13
307.550490
23
-392.424732
33
-37.623432
0
3DFACE
8
0
  62
55
10
307.550490
20
-392.424732
30
37.623432
11
351.717412
21
-334.679514
31
-37.623432
12
351.717412
22
-334.679514
32
37.623432
13
351.717412
23
-334.679514
33
37.623432
0
3DFACE
8
0
  62
55
10
351.717412
20
48.334405
30
-37.623432
11
351.717412
21
-334.679514
31
37.623432
12
351.717412
22
-334.679514
32
-37.623432
13
351.717412
23
-334.679514
33
-37.623432
0
3DFACE
8
0
  62
55
10
351.717412
20
-334.679514
30
37.623432
11
351.717412
21
48.334405
31
-37.623432
12
351.717412
22
48.334405
32
37.623432
13
351.717412
23
48.334405
33
37.623432
0
3DFACE
8
0
  62
55
10
-303.422838
20
344.130963
30
37.623432
11
-351.717412
21
194.126040
31
-37.623432
12
-351.717412
22
194.126040
32
37.623432
13
-351.717412
23
194.126040
33
37.623432
0
3DFACE
8
0
  62
55
10
-351.717412
20
194.126040
30
-37.623432
11
-303.422838
21
344.130963
31
37.623432
12
-303.422838
22
344.130963
32
-37.623432
13
-303.422838
23
344.130963
33
-37.623432
0
3DFACE
8
0
  62
55
10
-351.717412
20
194.126040
30
37.623432
11
-351.717412
21
144.965619
31
-37.623432
12
-351.717412
22
144.965619
32
37.623432
13
-351.717412
23
144.965619
33
37.623432
0
3DFACE
8
0
  62
55
10
-351.717412
20
144.965619
30
-37.623432
11
-351.717412
21
194.126040
31
37.623432
12
-351.717412
22
194.126040
32
-37.623432
13
-351.717412
23
194.126040
33
-37.623432
0
3DFACE
8
0
  62
55
10
-303.422838
20
344.130963
30
37.623432
11
-153.447717
21
392.424732
31
-37.623432
12
-303.422838
22
344.130963
32
-37.623432
13
-303.422838
23
344.130963
33
-37.623432
0
3DFACE
8
0
  62
55
10
-153.447717
20
392.424732
30
-37.623432
11
-303.422838
21
344.130963
31
37.623432
12
-153.447717
22
392.424732
32
37.623432
13
-153.447717
23
392.424732
33
37.623432
0
3DFACE
8
0
  62
55
10
351.717412
20
194.126040
30
-37.623432
11
351.717412
21
144.965619
31
37.623432
12
351.717412
22
144.965619
32
-37.623432
13
351.717412
23
144.965619
33
-37.623432
0
3DFACE
8
0
  62
55
10
351.717412
20
144.965619
30
37.623432
11
351.717412
21
194.126040
31
-37.623432
12
351.717412
22
194.126040
32
37.623432
13
351.717412
23
194.126040
33
37.623432
0
3DFACE
8
0
  62
55
10
302.092403
20
344.130963
30
-37.623432
11
351.717412
21
194.126040
31
37.623432
12
351.717412
22
194.126040
32
-37.623432
13
351.717412
23
194.126040
33
-37.623432
0
3DFACE
8
0
  62
55
10
351.717412
20
194.126040
30
37.623432
11
302.092403
21
344.130963
31
-37.623432
12
302.092403
22
344.130963
32
37.623432
13
302.092403
23
344.130963
33
37.623432
0
3DFACE
8
0
  62
55
10
-303.422838
20
344.130963
30
-37.623432
11
-351.717412
21
144.965619
31
-37.623432
12
-351.717412
22
194.126040
32
-37.623432
13
-351.717412
23
194.126040
33
-37.623432
0
3DFACE
8
0
  62
55
10
-351.717412
20
144.965619
30
-37.623432
11
-303.422838
21
344.130963
31
-37.623432
12
-309.341788
22
95.805228
32
-37.623432
13
-309.341788
23
95.805228
33
-37.623432
0
3DFACE
8
0
  62
55
10
351.717412
20
194.126040
30
-37.623432
11
302.092403
21
95.805228
31
-37.623432
12
302.092403
22
344.130963
32
-37.623432
13
302.092403
23
344.130963
33
-37.623432
0
3DFACE
8
0
  62
55
10
302.092403
20
95.805228
30
-37.623432
11
351.717412
21
194.126040
31
-37.623432
12
351.717412
22
144.965619
32
-37.623432
13
351.717412
23
144.965619
33
-37.623432
0
3DFACE
8
0
  62
55
10
-309.341788
20
95.805228
30
-37.623432
11
-351.717412
21
-334.679514
31
-37.623432
12
-351.717412
22
48.334405
32
-37.623432
13
-351.717412
23
48.334405
33
-37.623432
0
3DFACE
8
0
  62
55
10
-351.717412
20
-334.679514
30
-37.623432
11
-309.341788
21
95.805228
31
-37.623432
12
-303.422838
22
-392.424732
32
-37.623432
13
-303.422838
23
-392.424732
33
-37.623432
0
3DFACE
8
0
  62
55
10
-303.422838
20
-392.424732
30
-37.623432
11
-309.341788
21
95.805228
31
-37.623432
12
-303.422838
22
344.130963
32
-37.623432
13
-303.422838
23
344.130963
33
-37.623432
0
3DFACE
8
0
  62
55
10
-303.422838
20
-392.424732
30
-37.623432
11
-303.422838
21
344.130963
31
-37.623432
12
-153.447717
22
392.424732
32
-37.623432
13
-153.447717
23
392.424732
33
-37.623432
0
3DFACE
8
0
  62
55
10
-303.422838
20
-392.424732
30
-37.623432
11
-153.447717
21
392.424732
31
-37.623432
12
307.550490
22
-392.424732
32
-37.623432
13
307.550490
23
-392.424732
33
-37.623432
0
3DFACE
8
0
  62
55
10
307.550490
20
-392.424732
30
-37.623432
11
-153.447717
21
392.424732
31
-37.623432
12
151.653573
22
392.424732
32
-37.623432
13
151.653573
23
392.424732
33
-37.623432
0
3DFACE
8
0
  62
55
10
307.550490
20
-392.424732
30
-37.623432
11
151.653573
21
392.424732
31
-37.623432
12
302.092403
22
95.805228
32
-37.623432
13
302.092403
23
95.805228
33
-37.623432
0
3DFACE
8
0
  62
55
10
302.092403
20
95.805228
30
-37.623432
11
151.653573
21
392.424732
31
-37.623432
12
302.092403
22
344.130963
32
-37.623432
13
302.092403
23
344.130963
33
-37.623432
0
3DFACE
8
0
  62
55
10
307.550490
20
-392.424732
30
-37.623432
11
302.092403
21
95.805228
31
-37.623432
12
351.717412
22
48.334405
32
-37.623432
13
351.717412
23
48.334405
33
-37.623432
0
3DFACE
8
0
  62
55
10
307.550490
20
-392.424732
30
-37.623432
11
351.717412
21
48.334405
31
-37.623432
12
351.717412
22
-334.679514
32
-37.623432
13
351.717412
23
-334.679514
33
-37.623432
0
3DFACE
8
0
  62
55
10
151.653573
20
392.424732
30
37.623432
11
302.092403
21
344.130963
31
-37.623432
12
151.653573
22
392.424732
32
-37.623432
13
151.653573
23
392.424732
33
-37.623432
0
3DFACE
8
0
  62
55
10
302.092403
20
344.130963
30
-37.623432
11
151.653573
21
392.424732
31
37.623432
12
302.092403
22
344.130963
32
37.623432
13
302.092403
23
344.130963
33
37.623432
0
3DFACE
8
0
  62
55
10
-153.447717
20
392.424732
30
37.623432
11
151.653573
21
392.424732
31
-37.623432
12
-153.447717
22
392.424732
32
-37.623432
13
-153.447717
23
392.424732
33
-37.623432
0
3DFACE
8
0
  62
55
10
151.653573
20
392.424732
30
-37.623432
11
-153.447717
21
392.424732
31
37.623432
12
151.653573
22
392.424732
32
37.623432
13
151.653573
23
392.424732
33
37.623432
0
3DFACE
8
0
  62
55
10
302.092403
20
95.805228
30
37.623432
11
351.717412
21
48.334405
31
-37.623432
12
302.092403
22
95.805228
32
-37.623432
13
302.092403
23
95.805228
33
-37.623432
0
3DFACE
8
0
  62
55
10
351.717412
20
48.334405
30
-37.623432
11
302.092403
21
95.805228
31
37.623432
12
351.717412
22
48.334405
32
37.623432
13
351.717412
23
48.334405
33
37.623432
0
3DFACE
8
0
  62
55
10
-351.717412
20
48.334405
30
37.623432
11
-351.717412
21
-334.679514
31
-37.623432
12
-351.717412
22
-334.679514
32
37.623432
13
-351.717412
23
-334.679514
33
37.623432
0
3DFACE
8
0
  62
55
10
-351.717412
20
-334.679514
30
-37.623432
11
-351.717412
21
48.334405
31
37.623432
12
-351.717412
22
48.334405
32
-37.623432
13
-351.717412
23
48.334405
33
-37.623432
0
3DFACE
8
0
  62
55
10
-351.717412
20
-334.679514
30
37.623432
11
-303.422838
21
-392.424732
31
-37.623432
12
-303.422838
22
-392.424732
32
37.623432
13
-303.422838
23
-392.424732
33
37.623432
0
3DFACE
8
0
  62
55
10
-303.422838
20
-392.424732
30
-37.623432
11
-351.717412
21
-334.679514
31
37.623432
12
-351.717412
22
-334.679514
32
-37.623432
13
-351.717412
23
-334.679514
33
-37.623432
0
3DFACE
8
0
  62
55
10
351.717412
20
144.965619
30
37.623432
11
302.092403
21
95.805228
31
-37.623432
12
351.717412
22
144.965619
32
-37.623432
13
351.717412
23
144.965619
33
-37.623432
0
3DFACE
8
0
  62
55
10
302.092403
20
95.805228
30
-37.623432
11
351.717412
21
144.965619
31
37.623432
12
302.092403
22
95.805228
32
37.623432
13
302.092403
23
95.805228
33
37.623432
0
3DFACE
8
0
  62
55
10
-309.341788
20
95.805228
30
37.623432
11
-351.717412
21
48.334405
31
-37.623432
12
-351.717412
22
48.334405
32
37.623432
13
-351.717412
23
48.334405
33
37.623432
0
3DFACE
8
0
  62
55
10
-351.717412
20
48.334405
30
-37.623432
11
-309.341788
21
95.805228
31
37.623432
12
-309.341788
22
95.805228
32
-37.623432
13
-309.341788
23
95.805228
33
-37.623432
0
3DFACE
8
0
  62
55
10
-351.717412
20
144.965619
30
37.623432
11
-309.341788
21
95.805228
31
-37.623432
12
-309.341788
22
95.805228
32
37.623432
13
-309.341788
23
95.805228
33
37.623432
0
3DFACE
8
0
  62
55
10
-309.341788
20
95.805228
30
-37.623432
11
-351.717412
21
144.965619
31
37.623432
12
-351.717412
22
144.965619
32
-37.623432
13
-351.717412
23
144.965619
33
-37.623432
0
3DFACE
8
0
  62
55
10
-303.422838
20
-392.424732
30
37.623432
11
-351.717412
21
48.334405
31
37.623432
12
-351.717412
22
-334.679514
32
37.623432
13
-351.717412
23
-334.679514
33
37.623432
0
3DFACE
8
0
  62
55
10
-351.717412
20
48.334405
30
37.623432
11
-303.422838
21
-392.424732
31
37.623432
12
-309.341788
22
95.805228
32
37.623432
13
-309.341788
23
95.805228
33
37.623432
0
3DFACE
8
0
  62
55
10
-309.341788
20
95.805228
30
37.623432
11
-351.717412
21
194.126040
31
37.623432
12
-351.717412
22
144.965619
32
37.623432
13
-351.717412
23
144.965619
33
37.623432
0
3DFACE
8
0
  62
55
10
-351.717412
20
194.126040
30
37.623432
11
-309.341788
21
95.805228
31
37.623432
12
-303.422838
22
344.130963
32
37.623432
13
-303.422838
23
344.130963
33
37.623432
0
3DFACE
8
0
  62
55
10
-303.422838
20
344.130963
30
37.623432
11
-309.341788
21
95.805228
31
37.623432
12
-303.422838
22
-392.424732
32
37.623432
13
-303.422838
23
-392.424732
33
37.623432
0
3DFACE
8
0
  62
55
10
-303.422838
20
344.130963
30
37.623432
11
-303.422838
21
-392.424732
31
37.623432
12
307.550490
22
-392.424732
32
37.623432
13
307.550490
23
-392.424732
33
37.623432
0
3DFACE
8
0
  62
55
10
-303.422838
20
344.130963
30
37.623432
11
307.550490
21
-392.424732
31
37.623432
12
-153.447717
22
392.424732
32
37.623432
13
-153.447717
23
392.424732
33
37.623432
0
3DFACE
8
0
  62
55
10
-153.447717
20
392.424732
30
37.623432
11
307.550490
21
-392.424732
31
37.623432
12
151.653573
22
392.424732
32
37.623432
13
151.653573
23
392.424732
33
37.623432
0
3DFACE
8
0
  62
55
10
151.653573
20
392.424732
30
37.623432
11
307.550490
21
-392.424732
31
37.623432
12
302.092403
22
95.805228
32
37.623432
13
302.092403
23
95.805228
33
37.623432
0
3DFACE
8
0
  62
55
10
151.653573
20
392.424732
30
37.623432
11
302.092403
21
95.805228
31
37.623432
12
302.092403
22
344.130963
32
37.623432
13
302.092403
23
344.130963
33
37.623432
0
3DFACE
8
0
  62
55
10
302.092403
20
95.805228
30
37.623432
11
307.550490
21
-392.424732
31
37.623432
12
351.717412
22
48.334405
32
37.623432
13
351.717412
23
48.334405
33
37.623432
0
3DFACE
8
0
  62
55
10
351.717412
20
48.334405
30
37.623432
11
307.550490
21
-392.424732
31
37.623432
12
351.717412
22
-334.679514
32
37.623432
13
351.717412
23
-334.679514
33
37.623432
0
3DFACE
8
0
  62
55
10
302.092403
20
95.805228
30
37.623432
11
351.717412
21
194.126040
31
37.623432
12
302.092403
22
344.130963
32
37.623432
13
302.092403
23
344.130963
33
37.623432
0
3DFACE
8
0
  62
55
10
351.717412
20
194.126040
30
37.623432
11
302.092403
21
95.805228
31
37.623432
12
351.717412
22
144.965619
32
37.623432
13
351.717412
23
144.965619
33
37.623432
0
ENDSEC
0
EOF
