#define font6x10_width 1792
#define font6x10_height 10
static unsigned char font6x10_bits[] = {
   0x00, 0x80, 0x0a, 0x00, 0x00, 0x00, 0x00, 0x00, 0x00, 0x00, 0x01, 0x00,
   0x20, 0x10, 0x7e, 0x00, 0x00, 0x00, 0x40, 0x20, 0x10, 0x00, 0x04, 0x00,
   0x00, 0x00, 0x00, 0x00, 0x00, 0x00, 0x00, 0x00, 0x00, 0x00, 0x00, 0x00,
   0x00, 0x00, 0x00, 0x00, 0x00, 0x00, 0x00, 0x00, 0x00, 0x00, 0x00, 0x00,
   0x00, 0x00, 0x00, 0x00, 0x00, 0x00, 0x00, 0x00, 0x00, 0x00, 0x00, 0x00,
   0x00, 0x00, 0x00, 0x00, 0x00, 0x00, 0x00, 0x00, 0x00, 0x00, 0x00, 0x00,
   0x00, 0x00, 0x00, 0x00, 0x00, 0x00, 0x00, 0x00, 0x00, 0x00, 0x00, 0x00,
   0x08, 0x00, 0x00, 0x00, 0x00, 0x00, 0x00, 0x00, 0x00, 0x00, 0x00, 0x00,
   0x00, 0x00, 0x00, 0x00, 0x00, 0x00, 0x00, 0x00, 0x00, 0x00, 0x00, 0x00,
   0x00, 0x00, 0x00, 0x00, 0x00, 0x00, 0x00, 0x00, 0x00, 0x00, 0x00, 0x00,
   0x00, 0x00, 0x00, 0x00, 0x00, 0x00, 0x00, 0x00, 0x00, 0x00, 0x00, 0x00,
   0x00, 0x00, 0x00, 0x00, 0x00, 0x00, 0x00, 0x00, 0x00, 0x00, 0x00, 0x00,
   0x00, 0x00, 0x00, 0x14, 0x00, 0x00, 0x00, 0x00, 0x00, 0x7c, 0x00, 0x00,
   0x86, 0x03, 0x01, 0x00, 0x00, 0x00, 0x04, 0x00, 0x40, 0x20, 0x18, 0x00,
   0x04, 0x08, 0x82, 0x44, 0x41, 0x00, 0x00, 0x04, 0x08, 0x82, 0x42, 0x80,
   0x20, 0x28, 0x00, 0x14, 0x01, 0x82, 0x40, 0x51, 0x00, 0x00, 0x02, 0x04,
   0x41, 0x81, 0x00, 0x00, 0x04, 0x08, 0x02, 0x05, 0x40, 0x00, 0x00, 0x04,
   0x08, 0x02, 0x40, 0x40, 0x20, 0x00, 0x00, 0x14, 0x01, 0x82, 0x40, 0x01,
   0x00, 0x00, 0x02, 0x04, 0x01, 0x00, 0x00, 0x00, 0x2a, 0x00, 0x55, 0xe2,
   0xe0, 0x08, 0x10, 0x00, 0x89, 0x04, 0x01, 0x00, 0x20, 0x10, 0x00, 0x00,
   0x00, 0x00, 0x40, 0x20, 0x10, 0x00, 0x04, 0xcc, 0x00, 0x00, 0x61, 0x00,
   0x00, 0x04, 0x85, 0x82, 0x20, 0x11, 0x10, 0x10, 0x02, 0x00, 0x00, 0x00,
   0x00, 0x40, 0x08, 0x04, 0xc7, 0x07, 0xf1, 0x61, 0x7c, 0x1c, 0x0e, 0x00,
   0x00, 0x02, 0x10, 0x38, 0x1c, 0x84, 0x87, 0xe3, 0xf1, 0xf9, 0x38, 0x22,
   0x0e, 0x4e, 0x24, 0x10, 0x89, 0x38, 0x1e, 0x8e, 0x87, 0xe3, 0x13, 0x89,
   0x44, 0x22, 0x91, 0x8f, 0x23, 0xe0, 0x20, 0x00, 0x10, 0x80, 0x00, 0x00,
   0x02, 0x60, 0x00, 0x02, 0x04, 0x48, 0xc0, 0x00, 0x00, 0x00, 0x00, 0x00,
   0x00, 0x40, 0x00, 0x00, 0x00, 0x00, 0x00, 0x00, 0x86, 0x60, 0x90, 0x54,
   0x2a, 0x95, 0x4a, 0xa5, 0x52, 0xa9, 0x54, 0x2a, 0x95, 0x4a, 0xa5, 0x52,
   0xa9, 0x54, 0x2a, 0x95, 0x4a, 0xa5, 0x52, 0xa9, 0x54, 0x2a, 0x95, 0x4a,
   0xa5, 0x52, 0xa9, 0x54, 0x00, 0x04, 0x00, 0x03, 0x10, 0x21, 0x38, 0x00,
   0x0e, 0x0e, 0x00, 0x00, 0x70, 0x00, 0x08, 0x00, 0x09, 0x84, 0x00, 0xf0,
   0x00, 0x00, 0x06, 0x06, 0x60, 0x30, 0x20, 0x10, 0x08, 0x04, 0x45, 0x03,
   0xa0, 0xe0, 0x39, 0x3e, 0x9f, 0xcf, 0x87, 0x40, 0x50, 0x00, 0x1e, 0x0a,
   0x02, 0x41, 0xa1, 0x00, 0x00, 0x1c, 0x04, 0x82, 0x02, 0x40, 0x08, 0x38,
   0x08, 0x04, 0x85, 0x42, 0xa1, 0x00, 0x00, 0x08, 0x04, 0x85, 0x82, 0x20,
   0x50, 0x28, 0x06, 0x0a, 0x02, 0x41, 0xa1, 0x50, 0x00, 0x00, 0x04, 0x82,
   0x42, 0x81, 0x00, 0x28, 0x00, 0x84, 0x4a, 0x22, 0x10, 0x08, 0x28, 0x08,
   0x8b, 0x04, 0x01, 0x00, 0x20, 0x10, 0x00, 0x3f, 0x00, 0x00, 0x40, 0x20,
   0x10, 0x00, 0x04, 0x03, 0x03, 0x80, 0x90, 0x00, 0x00, 0x04, 0x85, 0xc2,
   0x51, 0x29, 0x10, 0x08, 0x84, 0x08, 0x01, 0x00, 0x00, 0x40, 0x14, 0x86,
   0x08, 0x84, 0x11, 0x10, 0x40, 0x22, 0x11, 0x02, 0x01, 0x01, 0x20, 0x44,
   0x22, 0x0a, 0x49, 0x44, 0x12, 0x08, 0x44, 0x22, 0x04, 0x44, 0x22, 0x10,
   0x89, 0x44, 0x22, 0x91, 0x48, 0x84, 0x10, 0x89, 0x44, 0x22, 0x11, 0x88,
   0x20, 0x80, 0x50, 0x00, 0x00, 0x80, 0x00, 0x00, 0x02, 0x90, 0x00, 0x02,
   0x00, 0x40, 0x80, 0x00, 0x00, 0x00, 0x00, 0x00, 0x00, 0x40, 0x00, 0x00,
   0x00, 0x00, 0x00, 0x00, 0x81, 0x80, 0xa8, 0x00, 0x00, 0x00, 0x00, 0x00,
   0x00, 0x00, 0x00, 0x00, 0x00, 0x00, 0x00, 0x00, 0x00, 0x00, 0x00, 0x00,
   0x00, 0x00, 0x00, 0x00, 0x00, 0x00, 0x00, 0x00, 0x00, 0x00, 0x00, 0x00,
   0x00, 0x00, 0x82, 0x04, 0x10, 0x21, 0x04, 0x00, 0x11, 0x09, 0x00, 0x00,
   0x88, 0x00, 0x14, 0x04, 0x04, 0x03, 0x00, 0xb8, 0x00, 0x00, 0x04, 0x09,
   0x40, 0x20, 0x10, 0x00, 0x1c, 0x0e, 0x87, 0xc3, 0xe1, 0x50, 0x44, 0x02,
   0x81, 0x40, 0xc0, 0xe1, 0x70, 0x38, 0x24, 0x11, 0x87, 0xc3, 0xe1, 0x70,
   0x00, 0x32, 0x91, 0x08, 0x20, 0x12, 0x79, 0x44, 0x00, 0x00, 0x00, 0x00,
   0x40, 0x00, 0x00, 0x00, 0x00, 0x00, 0x00, 0x00, 0x00, 0x00, 0x18, 0x00,
   0x00, 0x00, 0x00, 0x00, 0x10, 0x00, 0x00, 0x00, 0x00, 0x40, 0x08, 0x00,
   0x22, 0x0e, 0xd5, 0x63, 0x10, 0x08, 0x10, 0x08, 0x0b, 0x03, 0x01, 0x00,
   0x20, 0x10, 0x00, 0x00, 0x00, 0x00, 0x40, 0x20, 0x10, 0x00, 0x84, 0x00,
   0xe4, 0xf3, 0x11, 0x00, 0x00, 0x04, 0xc5, 0xa7, 0xa0, 0x28, 0x10, 0x04,
   0x08, 0x05, 0x01, 0x00, 0x00, 0x20, 0x22, 0x05, 0x08, 0x42, 0xd1, 0x08,
   0x20, 0x22, 0x19, 0x87, 0x83, 0xf0, 0x41, 0x20, 0x32, 0x11, 0x49, 0x40,
   0x12, 0x08, 0x04, 0x22, 0x04, 0x44, 0x21, 0xb0, 0x99, 0x44, 0x22, 0x91,
   0x48, 0x80, 0x10, 0x89, 0x44, 0x14, 0x0a, 0x84, 0x40, 0x80, 0x88, 0x00,
   0x00, 0x8e, 0x86, 0xc3, 0xe2, 0x10, 0x78, 0x1a, 0x06, 0x4c, 0x84, 0xb0,
   0x68, 0x38, 0x1a, 0x96, 0x86, 0xe3, 0x11, 0x89, 0x44, 0x22, 0x91, 0x0f,
   0x82, 0x40, 0x48, 0x44, 0x22, 0x91, 0x48, 0x24, 0x12, 0x89, 0x44, 0x22,
   0x91, 0x48, 0x24, 0x12, 0x89, 0x44, 0x22, 0x91, 0x48, 0x24, 0x12, 0x89,
   0x44, 0x22, 0x91, 0x48, 0x24, 0x12, 0x89, 0x44, 0x00, 0x04, 0x8f, 0x20,
   0xa2, 0x20, 0x1c, 0x00, 0x15, 0x0d, 0x09, 0x00, 0xb8, 0x00, 0x08, 0x04,
   0x02, 0x04, 0x10, 0xb9, 0x00, 0x00, 0x04, 0x49, 0x42, 0x20, 0x20, 0x10,
   0x22, 0x91, 0x48, 0x24, 0x12, 0x49, 0x04, 0x02, 0x81, 0x40, 0x80, 0x40,
   0x20, 0x10, 0x24, 0x93, 0x48, 0x24, 0x12, 0x89, 0x44, 0x32, 0x91, 0x48,
   0x24, 0x12, 0x89, 0x24, 0x1c, 0x0e, 0x87, 0xc3, 0xe1, 0xf0, 0x38, 0x1c,
   0x0e, 0x87, 0xc3, 0x60, 0x30, 0x18, 0x1c, 0x0d, 0x87, 0xc3, 0xe1, 0x70,
   0x00, 0x3c, 0x91, 0x48, 0x24, 0x12, 0x79, 0x44, 0x00, 0x9f, 0x4a, 0x22,
   0xe0, 0x78, 0x00, 0x3e, 0x0d, 0x01, 0x01, 0x00, 0x20, 0x10, 0x00, 0x00,
   0x00, 0x00, 0x40, 0x20, 0x10, 0x00, 0x04, 0x03, 0x43, 0x41, 0x38, 0x10,
   0x00, 0x04, 0x80, 0xc2, 0x41, 0x10, 0x00, 0x04, 0x88, 0xcf, 0x07, 0xf0,
   0x01, 0x10, 0x22, 0x04, 0x06, 0x23, 0x31, 0x69, 0x20, 0x1c, 0x16, 0x02,
   0x41, 0x00, 0x80, 0x10, 0x2a, 0x11, 0x47, 0x40, 0xf2, 0x78, 0x04, 0x3e,
   0x04, 0xc4, 0x20, 0x50, 0xa9, 0x44, 0x1e, 0x91, 0x87, 0x83, 0x10, 0x51,
   0x54, 0x08, 0x04, 0x82, 0x80, 0x80, 0x00, 0x00, 0x00, 0x90, 0x49, 0x24,
   0x13, 0x79, 0x44, 0x26, 0x04, 0x48, 0x82, 0x50, 0x99, 0x44, 0x26, 0x99,
   0x49, 0x40, 0x10, 0x89, 0x44, 0x14, 0x11, 0x84, 0x81, 0x80, 0x01, 0x00,
   0x00, 0x00, 0x00, 0x00, 0x00, 0x00, 0x00, 0x00, 0x00, 0x00, 0x00, 0x00,
   0x00, 0x00, 0x00, 0x00, 0x00, 0x00, 0x00, 0x00, 0x00, 0x00, 0x00, 0x00,
   0x00, 0x00, 0x00, 0x00, 0x00, 0x84, 0xc2, 0xc1, 0x41, 0x00, 0x24, 0x00,
   0x13, 0x8a, 0xc4, 0xe3, 0x99, 0x00, 0x00, 0x1f, 0x8f, 0x03, 0x10, 0xb1,
   0x10, 0x00, 0x0e, 0x86, 0xe4, 0x74, 0x99, 0x10, 0x22, 0x91, 0x48, 0x24,
   0x12, 0xc9, 0x05, 0x1e, 0x8f, 0xc7, 0x83, 0x40, 0x20, 0x10, 0x2e, 0x95,
   0x48, 0x24, 0x12, 0x89, 0x28, 0x2a, 0x91, 0x48, 0x24, 0xa2, 0x78, 0x14,
   0x20, 0x10, 0x08, 0x04, 0x02, 0x41, 0x45, 0x22, 0x91, 0x48, 0x84, 0x40,
   0x20, 0x10, 0x22, 0x93, 0x48, 0x24, 0x12, 0x89, 0x7c, 0x32, 0x91, 0x48,
   0x24, 0x12, 0x89, 0x44, 0x22, 0x0e, 0x55, 0xa2, 0xe3, 0xf0, 0x00, 0x08,
   0x09, 0xcf, 0xe1, 0xc0, 0xe3, 0xfd, 0x00, 0x80, 0x1f, 0x00, 0xc0, 0x3b,
   0xfc, 0x7e, 0x04, 0xcc, 0x40, 0xf1, 0x11, 0x00, 0x00, 0x04, 0xc0, 0x87,
   0xa2, 0xa8, 0x00, 0x04, 0x08, 0x05, 0x01, 0x00, 0x00, 0x08, 0x22, 0x04,
   0x01, 0xe4, 0x03, 0x99, 0x10, 0x22, 0x10, 0x00, 0x80, 0xf0, 0x41, 0x10,
   0x1a, 0x1f, 0x49, 0x40, 0x12, 0x08, 0x64, 0x22, 0x04, 0x44, 0x21, 0x10,
   0xc9, 0x44, 0x02, 0x91, 0x02, 0x84, 0x10, 0x51, 0x54, 0x14, 0x04, 0x81,
   0x00, 0x81, 0x00, 0x00, 0x00, 0x9e, 0x48, 0x20, 0xf2, 0x11, 0x44, 0x22,
   0x04, 0xc8, 0x81, 0x50, 0x89, 0x44, 0x22, 0x91, 0x80, 0x43, 0x10, 0x51,
   0x54, 0x08, 0x19, 0x02, 0x82, 0x40, 0x00, 0x44, 0x22, 0x91, 0x48, 0x24,
   0x12, 0x89, 0x44, 0x22, 0x91, 0x48, 0x24, 0x12, 0x89, 0x44, 0x22, 0x91,
   0x48, 0x24, 0x12, 0x89, 0x44, 0x22, 0x91, 0x48, 0x24, 0x12, 0x89, 0x44,
   0x00, 0x84, 0x82, 0x40, 0xf1, 0x21, 0x48, 0x00, 0x15, 0x40, 0x02, 0x02,
   0x98, 0x00, 0x00, 0x04, 0x00, 0x00, 0x10, 0xa1, 0x00, 0x00, 0x00, 0x00,
   0x09, 0x86, 0xc2, 0x08, 0x3e, 0x9f, 0xcf, 0xe7, 0xf3, 0x79, 0x04, 0x02,
   0x81, 0x40, 0x80, 0x40, 0x20, 0x10, 0x24, 0x99, 0x48, 0x24, 0x12, 0x89,
   0x10, 0x26, 0x91, 0x48, 0x24, 0x42, 0x08, 0x24, 0x3c, 0x1e, 0x8f, 0xc7,
   0xe3, 0xf1, 0x05, 0x3e, 0x9f, 0xcf, 0x87, 0x40, 0x20, 0x10, 0x22, 0x91,
   0x48, 0x24, 0x12, 0x89, 0x00, 0x2a, 0x91, 0x48, 0x24, 0x92, 0x89, 0x64,
   0x00, 0x84, 0x8a, 0x87, 0x20, 0x11, 0x00, 0x08, 0x02, 0x04, 0x80, 0x40,
   0x00, 0x10, 0x00, 0x00, 0x00, 0x00, 0x40, 0x20, 0x00, 0x08, 0x04, 0x00,
   0x40, 0x21, 0x90, 0x00, 0x00, 0x00, 0x80, 0xc2, 0x51, 0x49, 0x00, 0x08,
   0x84, 0x08, 0x81, 0x01, 0x20, 0x04, 0x14, 0x84, 0x40, 0x04, 0x11, 0x89,
   0x08, 0x22, 0x08, 0x02, 0x03, 0x01, 0x20, 0x00, 0x02, 0x11, 0x49, 0x44,
   0x12, 0x08, 0x44, 0x22, 0x84, 0x44, 0x22, 0x10, 0x89, 0x44, 0x02, 0x95,
   0x44, 0x84, 0x10, 0x51, 0x6c, 0x22, 0x84, 0x80, 0x00, 0x82, 0x00, 0x00,
   0x00, 0x91, 0x49, 0x24, 0x13, 0x10, 0x78, 0x22, 0x04, 0x48, 0x82, 0x50,
   0x89, 0x44, 0x26, 0x99, 0x00, 0x44, 0x92, 0x51, 0x54, 0x14, 0x16, 0x01,
   0x81, 0x80, 0x00, 0x00, 0x00, 0x00, 0x00, 0x00, 0x00, 0x00, 0x00, 0x00,
   0x00, 0x00, 0x00, 0x00, 0x00, 0x00, 0x00, 0x00, 0x00, 0x00, 0x00, 0x00,
   0x00, 0x00, 0x00, 0x00, 0x00, 0x00, 0x00, 0x00, 0x00, 0x84, 0x82, 0xc4,
   0x41, 0x20, 0x70, 0x00, 0x11, 0x8f, 0x04, 0x00, 0x88, 0x00, 0x00, 0x04,
   0x00, 0x00, 0x30, 0xa1, 0x00, 0x00, 0x00, 0x8f, 0x04, 0x05, 0xa2, 0x44,
   0x22, 0x91, 0x48, 0x24, 0x12, 0x49, 0x44, 0x02, 0x81, 0x40, 0x80, 0x40,
   0x20, 0x10, 0x24, 0x91, 0x48, 0x24, 0x12, 0x89, 0x28, 0x26, 0x91, 0x48,
   0x24, 0x42, 0x08, 0x44, 0x22, 0x91, 0x48, 0x24, 0x12, 0x49, 0x44, 0x02,
   0x81, 0x40, 0x80, 0x40, 0x20, 0x10, 0x22, 0x91, 0x48, 0x24, 0x12, 0x89,
   0x10, 0x26, 0x99, 0x4c, 0x26, 0x63, 0x89, 0x58, 0x2a, 0x00, 0x15, 0x82,
   0xe1, 0x70, 0x00, 0x3e, 0x02, 0x04, 0x80, 0x40, 0x00, 0x10, 0x00, 0x00,
   0xc0, 0x0f, 0x40, 0x20, 0x00, 0x08, 0x84, 0xcf, 0x47, 0x11, 0x68, 0x00,
   0x00, 0x04, 0x80, 0x82, 0x90, 0xb0, 0x00, 0x10, 0x02, 0x00, 0x80, 0x00,
   0x70, 0x04, 0x08, 0x9f, 0x8f, 0x03, 0xe1, 0x70, 0x08, 0x1c, 0x06, 0x07,
   0x01, 0x02, 0x10, 0x10, 0x1c, 0x91, 0x87, 0xe3, 0xf1, 0x09, 0x38, 0x22,
   0x0e, 0x43, 0xe4, 0x13, 0x89, 0x38, 0x02, 0x8e, 0x88, 0x83, 0xe0, 0x20,
   0x44, 0x22, 0x84, 0x8f, 0x03, 0xe2, 0x00, 0x00, 0x00, 0x9e, 0x86, 0xc3,
   0xe2, 0x10, 0x40, 0x22, 0x0e, 0x49, 0xc4, 0x11, 0x89, 0x38, 0x1a, 0x96,
   0xc0, 0x83, 0x61, 0x21, 0x28, 0x22, 0x90, 0x0f, 0x86, 0x60, 0x00, 0x54,
   0x2a, 0x95, 0x4a, 0xa5, 0x52, 0xa9, 0x54, 0x2a, 0x95, 0x4a, 0xa5, 0x52,
   0xa9, 0x54, 0x2a, 0x95, 0x4a, 0xa5, 0x52, 0xa9, 0x54, 0x2a, 0x95, 0x4a,
   0xa5, 0x52, 0xa9, 0x54, 0x00, 0x04, 0x4f, 0x23, 0x42, 0x20, 0x40, 0x00,
   0x0e, 0x00, 0x09, 0x00, 0x70, 0x00, 0x00, 0x1f, 0x00, 0x00, 0xd0, 0xa0,
   0x00, 0x00, 0x00, 0x40, 0x82, 0x07, 0xf1, 0x38, 0x22, 0x91, 0x48, 0x24,
   0x12, 0xc9, 0x39, 0x3e, 0x9f, 0xcf, 0xc7, 0xe1, 0x70, 0x38, 0x1e, 0x11,
   0x87, 0xc3, 0xe1, 0x70, 0x44, 0x1c, 0x0e, 0x87, 0xc3, 0x41, 0x08, 0x34,
   0x3c, 0x1e, 0x8f, 0xc7, 0xe3, 0xf1, 0x39, 0x1c, 0x0e, 0x87, 0xc3, 0xe1,
   0x70, 0x38, 0x1c, 0x11, 0x87, 0xc3, 0xe1, 0x70, 0x00, 0x1e, 0x16, 0x8b,
   0xc5, 0x02, 0x79, 0x40, 0x00, 0x80, 0x0a, 0x82, 0x20, 0x11, 0x00, 0x00,
   0x02, 0x04, 0x80, 0x40, 0x00, 0x10, 0x00, 0x00, 0x00, 0x00, 0x40, 0x20,
   0x00, 0x08, 0x04, 0x00, 0x00, 0x00, 0x00, 0x00, 0x00, 0x00, 0x00, 0x00,
   0x00, 0x00, 0x00, 0x00, 0x00, 0x00, 0x40, 0x00, 0x20, 0x00, 0x00, 0x00,
   0x00, 0x00, 0x00, 0x00, 0x00, 0x00, 0x00, 0x82, 0x00, 0x00, 0x00, 0x00,
   0x00, 0x00, 0x00, 0x00, 0x00, 0x00, 0x00, 0x00, 0x00, 0x00, 0x00, 0x00,
   0x00, 0x00, 0x00, 0x10, 0x00, 0x00, 0x00, 0x00, 0x00, 0x00, 0x00, 0x00,
   0x00, 0x00, 0x00, 0x7c, 0x00, 0x00, 0x00, 0x00, 0x00, 0x00, 0x44, 0x00,
   0x00, 0x09, 0x00, 0x00, 0x00, 0x00, 0x02, 0x10, 0x00, 0x00, 0x00, 0x00,
   0x00, 0x00, 0x11, 0x00, 0x00, 0x00, 0x00, 0x00, 0x00, 0x00, 0x00, 0x00,
   0x00, 0x00, 0x00, 0x00, 0x00, 0x00, 0x00, 0x00, 0x00, 0x00, 0x00, 0x00,
   0x00, 0x00, 0x00, 0x00, 0x00, 0x00, 0x00, 0x00, 0x00, 0x00, 0x00, 0x00,
   0x00, 0x00, 0x02, 0x00, 0x40, 0x00, 0x38, 0x00, 0x00, 0x00, 0x00, 0x00,
   0x00, 0x00, 0x00, 0x00, 0x00, 0x00, 0x10, 0x00, 0x00, 0x10, 0x00, 0x00,
   0x00, 0x84, 0x83, 0x00, 0x00, 0x00, 0x00, 0x00, 0x00, 0x00, 0x10, 0x00,
   0x00, 0x00, 0x00, 0x00, 0x00, 0x00, 0x00, 0x00, 0x00, 0x00, 0x00, 0x00,
   0x00, 0x00, 0x00, 0x00, 0x00, 0x00, 0x00, 0x00, 0x00, 0x00, 0x00, 0x00,
   0x00, 0x00, 0x10, 0x00, 0x00, 0x00, 0x00, 0x00, 0x00, 0x00, 0x00, 0x00,
   0x00, 0x00, 0x00, 0x00, 0x00, 0x00, 0x00, 0x00, 0x00, 0x10, 0x09, 0x44,
   0x00, 0x00, 0x15, 0x82, 0x20, 0x11, 0x00, 0x00, 0x1e, 0x04, 0x80, 0x40,
   0x00, 0x10, 0x00, 0x00, 0x00, 0xe0, 0x47, 0x20, 0x00, 0x08, 0x04, 0x00,
   0x00, 0x00, 0x00, 0x00, 0x00, 0x00, 0x00, 0x00, 0x00, 0x00, 0x00, 0x00,
   0x00, 0x00, 0x00, 0x00, 0x00, 0x00, 0x00, 0x00, 0x00, 0x00, 0x00, 0x00,
   0x00, 0x00, 0x00, 0x00, 0x00, 0x00, 0x00, 0x00, 0x00, 0x00, 0x00, 0x00,
   0x00, 0x00, 0x00, 0x00, 0x00, 0x00, 0x00, 0x00, 0x00, 0x00, 0x00, 0x00,
   0x00, 0x00, 0x00, 0x00, 0x00, 0x00, 0x00, 0x00, 0x00, 0x00, 0x00, 0x00,
   0x00, 0x00, 0x00, 0x00, 0x00, 0x00, 0x38, 0x00, 0x00, 0x06, 0x00, 0x00,
   0x00, 0x00, 0x02, 0x10, 0x00, 0x00, 0x00, 0x00, 0x00, 0x00, 0x0e, 0x00,
   0x00, 0x00, 0x00, 0x00, 0x00, 0x00, 0x00, 0x00, 0x00, 0x00, 0x00, 0x00,
   0x00, 0x00, 0x00, 0x00, 0x00, 0x00, 0x00, 0x00, 0x00, 0x00, 0x00, 0x00,
   0x00, 0x00, 0x00, 0x00, 0x00, 0x00, 0x00, 0x00, 0x00, 0x00, 0x00, 0x00,
   0x00, 0x00, 0x00, 0x00, 0x00, 0x00, 0x00, 0x00, 0x00, 0x00, 0x00, 0x00,
   0x00, 0x00, 0x00, 0x00, 0x00, 0x08, 0x00, 0x00, 0x00, 0x00, 0x00, 0x00,
   0x00, 0x00, 0x00, 0x00, 0x00, 0x00, 0x08, 0x00, 0x00, 0x00, 0x00, 0x00,
   0x00, 0x00, 0x00, 0x00, 0x00, 0x00, 0x00, 0x00, 0x00, 0x00, 0x00, 0x00,
   0x00, 0x00, 0x00, 0x00, 0x00, 0x00, 0x00, 0x00, 0x00, 0x00, 0x08, 0x00,
   0x00, 0x00, 0x00, 0x00, 0x00, 0x00, 0x00, 0x00, 0x00, 0x00, 0x00, 0x00,
   0x00, 0x00, 0x00, 0x00, 0x00, 0xe0, 0x08, 0x38};
