#define apple2_font_width 448
#define apple2_font_height 8
static unsigned char apple2_font_bits[] = {
   0x00, 0x04, 0x85, 0x82, 0x30, 0x10, 0x10, 0x10, 0x02, 0x02, 0x00, 0x00,
   0x00, 0x00, 0x1c, 0x04, 0xc7, 0x07, 0xf1, 0xe1, 0x7c, 0x1c, 0x0e, 0x00,
   0x00, 0x01, 0x08, 0x38, 0x1c, 0x84, 0x87, 0xe3, 0xf1, 0xf9, 0x78, 0x22,
   0x0e, 0x48, 0x24, 0x10, 0x89, 0x38, 0x1e, 0x8e, 0x87, 0xe3, 0x13, 0x89,
   0x44, 0x22, 0x91, 0xcf, 0x07, 0xf0, 0x01, 0x00, 0x00, 0x04, 0x85, 0xc2,
   0x33, 0x29, 0x10, 0x08, 0x84, 0x0a, 0x01, 0x00, 0x00, 0x40, 0x22, 0x86,
   0x08, 0x84, 0x11, 0x10, 0x40, 0x22, 0x11, 0x00, 0x80, 0x00, 0x10, 0x44,
   0x22, 0x8a, 0x48, 0x24, 0x12, 0x08, 0x04, 0x22, 0x04, 0x48, 0x22, 0xb0,
   0x89, 0x44, 0x22, 0x91, 0x48, 0x84, 0x10, 0x89, 0x44, 0x22, 0x11, 0xc8,
   0x20, 0x80, 0x01, 0x00, 0x00, 0x04, 0xc5, 0xa7, 0x80, 0x28, 0x10, 0x04,
   0x08, 0x07, 0x01, 0x00, 0x00, 0x20, 0x32, 0x04, 0x08, 0x42, 0xf1, 0x08,
   0x20, 0x22, 0x11, 0x02, 0x41, 0xf0, 0x21, 0x20, 0x2a, 0x91, 0x48, 0x20,
   0x12, 0x08, 0x04, 0x22, 0x04, 0x48, 0x21, 0x50, 0x99, 0x44, 0x22, 0x91,
   0x48, 0x80, 0x10, 0x89, 0x44, 0x14, 0x0a, 0xc4, 0x40, 0x80, 0x21, 0x00,
   0x00, 0x04, 0x80, 0xc2, 0x41, 0x10, 0x00, 0x04, 0x08, 0xc2, 0x07, 0xf0,
   0x01, 0x10, 0x2a, 0x04, 0x06, 0x23, 0x01, 0x79, 0x10, 0x1c, 0x1e, 0x00,
   0x20, 0x00, 0x40, 0x10, 0x3a, 0x91, 0x47, 0x20, 0xf2, 0x78, 0x04, 0x3e,
   0x04, 0xc8, 0x20, 0x50, 0xa9, 0x44, 0x1e, 0x91, 0x87, 0x83, 0x10, 0x89,
   0x54, 0x08, 0x04, 0xc2, 0x80, 0x80, 0x51, 0x00, 0x00, 0x04, 0xc0, 0x87,
   0x22, 0xa8, 0x00, 0x04, 0x08, 0x07, 0x81, 0x00, 0x00, 0x08, 0x26, 0x04,
   0x01, 0xe4, 0x03, 0x89, 0x08, 0x22, 0x10, 0x02, 0x41, 0xf0, 0x21, 0x10,
   0x1a, 0x9f, 0x48, 0x20, 0x12, 0x08, 0x64, 0x22, 0x04, 0x48, 0x21, 0x10,
   0xc9, 0x44, 0x02, 0x95, 0x02, 0x84, 0x10, 0x89, 0x54, 0x14, 0x04, 0xc1,
   0x00, 0x81, 0x89, 0x00, 0x00, 0x00, 0x80, 0xe2, 0x91, 0x49, 0x00, 0x08,
   0x84, 0x0a, 0x81, 0x00, 0x00, 0x04, 0x22, 0x84, 0x40, 0x04, 0x11, 0x89,
   0x08, 0x22, 0x08, 0x00, 0x81, 0x00, 0x10, 0x00, 0x02, 0x91, 0x48, 0x24,
   0x12, 0x08, 0x44, 0x22, 0x84, 0x48, 0x22, 0x10, 0x89, 0x44, 0x02, 0x89,
   0x44, 0x84, 0x10, 0x51, 0x6c, 0x22, 0x84, 0xc0, 0x00, 0x82, 0x01, 0x00,
   0x00, 0x04, 0x80, 0x82, 0x80, 0xb1, 0x00, 0x10, 0x02, 0x02, 0x40, 0x00,
   0x20, 0x00, 0x1c, 0x8e, 0x8f, 0x03, 0xe1, 0x70, 0x08, 0x1c, 0x07, 0x80,
   0x00, 0x01, 0x08, 0x10, 0x3c, 0x91, 0x87, 0xe3, 0xf1, 0x09, 0x78, 0x22,
   0x0e, 0x47, 0xe4, 0x13, 0x89, 0x38, 0x02, 0x96, 0x88, 0x83, 0xe0, 0x20,
   0x44, 0x22, 0x84, 0xcf, 0x07, 0xf0, 0x01, 0x00, 0x00, 0x00, 0x00, 0x00,
   0x00, 0x00, 0x00, 0x00, 0x00, 0x00, 0x00, 0x00, 0x00, 0x00, 0x00, 0x00,
   0x00, 0x00, 0x00, 0x00, 0x00, 0x00, 0x00, 0x00, 0x00, 0x00, 0x00, 0x00,
   0x00, 0x00, 0x00, 0x00, 0x00, 0x00, 0x00, 0x00, 0x00, 0x00, 0x00, 0x00,
   0x00, 0x00, 0x00, 0x00, 0x00, 0x00, 0x00, 0x00, 0x00, 0x00, 0x00, 0x00,
   0x00, 0x00, 0x00, 0xfe};
