#define atari_width 16
#define atari_height 16
static unsigned char atari_bits[] = {
 0x60,0x00,0x94,0x00,0x00,0x01,0x12,0x02,0x88,0x0f,0x80,0x0f,0xe0,0x3f,0xf0,
 0x7f,0xf0,0x7f,0xf8,0xff,0xf8,0xf7,0xf0,0x77,0xf0,0x7b,0xe0,0x3f,0xc0,0x1f,
 0x00,0x07};
