#define atari_width 34
#define atari_height 28
static char atari_bits[] = {
 0x00,0x0f,0x00,0x00,0xfc,0x00,0x0f,0x00,0x00,0xfc,0xcc,0x30,0x00,0x00,0xfc,
 0xcc,0x30,0x00,0x00,0xfc,0x00,0xc0,0x00,0x00,0xfc,0x00,0xc0,0x00,0x00,0xfc,
 0xc3,0x00,0x03,0x00,0xfc,0xc3,0x00,0x03,0x00,0xfc,0x30,0xf0,0x3f,0x00,0xfc,
 0x30,0xf0,0x3f,0x00,0xfc,0x00,0xf0,0x3f,0x00,0xfc,0x00,0xf0,0x3f,0x00,0xfc,
 0x00,0xff,0xff,0x03,0xfc,0x00,0xff,0xff,0x03,0xfc,0xc0,0xff,0xff,0x0f,0xfc,
 0xc0,0xff,0xff,0x0f,0xfc,0xc0,0xf3,0xff,0x0f,0xfc,0xc0,0xf3,0xff,0x0f,0xfc,
 0xf0,0xff,0xff,0x3f,0xfc,0xf0,0xff,0xff,0x3f,0xfc,0xf0,0xff,0xcf,0x3f,0xfc,
 0xf0,0xff,0xcf,0x3f,0xfc,0xc0,0xff,0xcf,0x0f,0xfc,0xc0,0xff,0xcf,0x0f,0xfc,
 0xc0,0xff,0xf3,0x0f,0xfc,0xc0,0xff,0xf7,0x0f,0xfc,0x00,0xff,0xff,0x03,0xfc,
 0x00,0xff,0xff,0x03,0xfc};
