/* XPM */
static char *ground[] = {
/* width height ncolors chars_per_pixel */
"128 128 92 1",
/* colors */
"  c #B4A589",
". c #C4B19C",
"X c #C4AD9C",
"o c #AC896A",
"O c #BCA994",
"+ c #BCA594",
"@ c #8C7451",
"# c #A49579",
"$ c #604929",
"% c #9C8D71",
"& c #AC9D84",
"* c #AC9984",
"= c #CBB195",
"- c #553D21",
"; c #AC9973",
": c #AC9573",
"> c #AC9173",
", c #BC987C",
"< c #BCAE93",
"1 c #6C5434",
"2 c #8B7659",
"3 c #CCB59C",
"4 c #947D5B",
"5 c #C4B194",
"6 c #94795B",
"7 c #C4AD94",
"8 c #C4A994",
"9 c #BCA98C",
"0 c #C4A48A",
"q c #8C7153",
"w c #BCA58C",
"e c #AD917A",
"r c #BCA18C",
"t c #B4A184",
"y c #B49D84",
"u c #AC997C",
"i c #AC957C",
"p c #745D3B",
"a c #A48D74",
"s c #A48974",
"d c #CBBBA4",
"f c #796143",
"g c #947D64",
"h c #D7C2A9",
"j c #8C795C",
"k c #A48963",
"l c #7B694B",
"z c #7C654C",
"x c #C4A98C",
"c c #BCA584",
"v c #BCA184",
"b c #B49D7C",
"n c #B4997C",
"m c #A4916C",
"M c #8F7E5E",
"N c #A48D6C",
"B c #A4896C",
"V c #D3BDA4",
"C c #A18569",
"Z c #9C8164",
"A c #9C7D64",
"S c #826C51",
"D c #846749",
"F c #DFCDB6",
"G c #D4B89E",
"H c #9C8567",
"J c #665032",
"K c #846D4C",
"L c #CCAE96",
"P c #947455",
"I c #7C6544",
"U c #A3987E",
"Y c #C4A584",
"T c #A49175",
"R c #765F41",
"E c #948165",
"W c #B89E85",
"Q c #D4BEA7",
"! c #B4A98E",
"~ c #837154",
"^ c #9C7D5C",
"/ c #AC8D6F",
"( c #957955",
") c #CCB798",
"_ c #AC9E7F",
"` c #6F5839",
"' c #A49184",
"] c #C4AC8C",
"[ c #C2B397",
"{ c #9C896B",
"} c #B4967C",
"| c None",
/* pixels */
"p`Rpq4n}v6PkgK4by3}v=Y>nj9ZJ<h.93Vwf$$zgc>=n42Zv~DHBqS~SZl`jBHxvL=HZ=337kn@H@nZK`DJ$$fgb9=dV7hFFHExcn:LAv5yT5d7=@utB:ir>:cynnv>k",
"``zfIZ}}n^^oqjZvnwi>LLvvgnHR#d9+3VcSJ$~Ey}v:BZHn@SZHSSSIE@1qBBLn0x:{c7.xk>{^KN4qRSpJJ16uc3V)8dFF*i7YnHvkbvyyv57x6NuNnyv:Tt }vvo^",
"pD(KSNk>6:ooHuy]8<bpC]xZ{H@Dz%#> hbTlf~l4,obvN6qP4~zRlf1RqKHnE}bby=vttyioB:@kBk}4HgHp$jv{]5btyFFFd=i:IH/Wty7wyLL>b9wbwxvNu]TbLN@",
"IDiNj^6qD]^(geVGGh9K1fbN>46S@Miel{9t22Kffk/>b>@Dz>zpD~lR$R:w H6>>vccnNBs>}}Zn/vn>n>bqKK:R@:4ga&XQd3bN@H/6G7=Gwiiinvxnay{jNytKb>@",
"J1Bn>{KqpHnKpl>9=3nBD$2x]nn{T{N4STch3 q2fP@pk6B@RDK2{4fR11Z:aEua>b>BEZTkBi=aki:>>>:}N>@S22ZEH6{O<BT5uH~@pHvg:ycyu:uwYn&watv5@(:I",
"KDPH{Hqpf4qqf`R{/v6:fJfBb9xv=c{@ljIE=twy~@/@64Bu@ISKjSlgSl$`K@{>NZHgKK:PbN}}4BB:TnT:6>46D({xv:n]w_ay35Hl6RN{;#yvtwuy}9b tn#tNqH@",
"B:4BH>>6Hxt>qfDeB/DBR$HyaeBnxxBlp@$J@R>5*Tu:HZ4Z~KEj24Ma{Nz11RIRH/qKS6tkmxknv>5nntm4g(B>jHN>xy5wc}y .33Hc>@4>N{:59uuHae53{:4HZHa",
"HHAZm;>}(xhnv6ayv}I$R$67BNBHvntkI_41p`Rj577yBK@4t@lqSH>6qqbHR11$qNqD@:>kZbZ^3vnAbT>>f1pHyvHS>Zxx]x7V<nOvNv@K4HEE UZs2qZ#!22H4NBy",
">>NHv:gqp6x3LB073GcI$$RH:i}B>yVVu3G]ETE4%w5.5BRfnTff1p~K>q>^K:K1D^$$JKnkiv}Cv7nBg>xw`$-DBBqR6Kg=738Oxt33>v/:6442&5euwBeEEH~Zg6}H",
"Z>>6uTBK`DBwLy73=Gh:1-1KNNn>ivhF h5hTt yatx9=t6K(Hll1JJ`B^Z(KvHl@HJ$$f/BvvoBB>7>P6w]D1$pHHCD^^Dniy3 7ivw/cbcmB{Bw3tb7uy*jHgZ^4BZ",
"ZgbH`I46IKz1{n3V9bGFvPKki>nc87FF<5=33<QV3c3b#Z:>DqS~DflI4^/Bfk4HDPl@@pPpqNCKCk}HH6H/opSfZ^CB6^`(Rzt35bS4BNBB57n9yrt}xi6ib{BiB6K^",
"{N#vlIpIKZnjPz>dbn6:]b>:xw:wh3hFh373w+553x=xw>Ck6IDZJ-fS6K}(1KHZNBi4:PqI1Rv^^Z>Z]vHHnBZZHA`qR1J`~12it3Nc7}niTrHE3.nBvvtT37P:vB1I",
"KK4;9TiiSKbx:DIjb>1pbbb05=iEd3d333937w09>Hw3vnkAZz(DR`1{f$$1p$>oB:i^ZZHkq1CP^kCK>xvcv>ovuB6f1J1`jqaOwy<BLxxvTiBzj97yBjNq:cHZBHp$",
"f`ZZNta>squx9NKJ]3HjtyaH978T7d<i9dyi=V=VwH^N3=}D4gD-$$IB4$pJ1-DZ6BEA>>6}H@RpPP/N6tnyvyq^aH4SpJJK4A{a{2bDKNv6H4jS-pg6Zlj12:>gy{z$",
"tBH6Ee4qaavN=/4`;x=]3.c#bn3V d..3FOZrcs]VcBv9LnbZg^R`1fBfRlD6qK^(KZ64>q1RDDp^ko0y{Nuyv>uE{:EK11f6Huyug@@ff4DR`j~~1`Jl~5NynauVV#E",
"VVX0 u BZB5yvnH@4Nw3<.d55nvFXdFFdhh HgTc5h]G.0>ZNH>}HNq}~DIjZoNb61KBNayKpJ`1Ko2nwwycBw*yeHttHKRI2EvOuyuyH4aT%giTi{%~6zT{*}%ET&hF",
"  w3wu#HDR>wwxBEi9]7.&5&8bfHXFFFQ3Fd>:Tw=uHH3wYB(o}k{BRHkKRD/>64kf$l@6c7amNf-`1D%<w9u37&ll>9n:>{MKEiwbEw96~ _T.wwVhQ&E6aeygH%TT&",
"Uaw.VOaHf`gvwcB:]5vN<yTgv:`D#dFFX FhttmT]:g{5n}kH,462@fZjll2:oq@PD-1p6i7wbvZ-$1S% 85nw5&Hjq>cuuaH2gEcnK{y%j O* rr3hVO#%HNeg2a_E{",
"3ii*8.X.TpzAyyyn3cZB4k@1jjRjgOhhy FFQycEn3xBn:H/}vfj~ZKK~Dl2H6T< 2JKfq2quBZN@{BE{awhaDTNTHzIiEkH4ENyynqREd.XO%T v>v5xiiHs4jgE9T&",
"<+%gTO3d<H{*wuyZbtHZ@6N44{4v{thd9 hFFd373h7jcbnnN=jB:}qKz2gDCN>5hV XwysTy>4Zc=tvSEZw9>@DIp1`Tuc96SEyr5:tj*O#w:*uOHST=76EgjquZii ",
"&a%Uy.Oh3*u w*#2Tub@@>vm^>;nHahh.*3XX5w V7Gn]7G3Byn=b>HKS2Z6:>D~a hFVX7 ytT643ZBpJR4n{$-1p--RKBNZj`Z6 %&gE{iHj~jBNqgyir#* ~4> 3&",
"u&&.U T&5BHty<7y7t9_NmHbZ(ba>>r.V3.9i{;gi6y=cEHaq~m>wHHIMDS66gHTwH%%y<VQ T6`-RuB^KB~H{1JfR---$J$zpSH6>O%#*%%HE%MEiTau !..dgzb *%",
"&!.Q& .7x5H0w<..=5ut3T~B(~vvaws5 .ydd7TmBvx]3:1lKpZmcwZl#Df2jql~]>&7 &t73X.y--l^KH:9GVPffJ$-----$1Rs~z<%Eyh+.i&%@E2SETXd..U~2Tt*",
"%&OX.&nwyGv w 9<7iE{3={uvjK>f6{& X< FFtv4kb=d]@1{lJDjjzl&O~HHEqD4Zy!d+Ei.dVdj4{{IayL=x^P,P1-$$$----`61j*TayyTSRRHEiT%%9&& !%%7*u",
"j% .7Ow7sar5Oy**9y:j@9]Gn{qu:y3w.XF<Tu57Hnai7)bDckf6lDpl%caaS~Dp6^~2%73.h.FhbtFF wy>r]Y^>k@1R%2$---$R$`Z2zagi#S@l2T.%2%STXd<gSE{",
"2ET79.73*Bu<&aO9wyv4f^c5:E>yxwFddVh5Ua95Bv}4 5v~bkkkg{Sg*w igzqJPA~~zah.3&dVEahhdd7tn3=k:}>KI:@$---JSzSgl14q&iH#`Rz%HzRJEw%&jz% ",
"'%E OX3.3 y*%23..uabp`B@cacmyBn8%T3V33yvHH>6%iaT]]YB]wnn9v3V56DJIP6EMEdT+7w3a2h.hFFh*u3Gxv=x`B>2pRERZka~f2j~#B{cZH$$-$JRJ~jT*T>i",
"%E%*.XVV8 HTgetiy3i>fJHqut]Tjz{t*U33HZgpD/{E2E>u5 H:v{wyvy9Vv6$$q6Jf{#Q7&9L7VBdd..hhbjg)=uxVZB3]tgnj62kBlq6yyt(4wcl----`$JE%ua T",
".U&.U. .79HgH@Z6IttvBo4fZHO3%j.V<tw9uaHqHjjZTTi7Hy>b=tcnnBv+0cDJ>wlS 33QiEwsc93V.X 3iHRq3yhh3=.359<]a9T]vB$$zNcnT>l$$-J~@g{eiatH",
"QhXX 7tO3Ow4qR^^pZ~Bnnbq%gH3!Z .da5x# w>H2~%dr>LK(pI>nHHBDnVXGLk4x39+V3w3<3yZu3 T!7.<=BpBn'OO<7.3V9Vt.~KxcR-$gSi7y={$f4aj~2THgj#",
"OdO hdddh3rH6qk^6nc/nvhcvyedOe yFhXtXd*itETyOB>v4D$J@}]9aR6wdVt=y0<F 3eed.3Vv53T2.dVi:L6-1Sg>rOd38wyE>{JytZ--$R6r3FxDPyir TT*&aa",
"%TO*T.dd.d3vNMPKIlvnb=GtS6N&ywr>wwZq%tE27yT8uKvx3:@`>Hv3]BjN.5.3dy*8]hy%3V7na6H%#ruy3ek$--127nB{xaZB1$`zlZbZ@IN;uy 3_a9b wER_3t>",
"wegqS%i<7.7.i@@K2RzjeHc94i9{TB3O{g4R1JRB{iTN{k6KG]B@n}3VhV<y{aHOwuiH5hh3.7NDIKfZ6Zqp3wn^J$1KxBqfgBqSD$-`I`pTk4b:nbyd<t57ya%&%t>u",
"cBzzz2Tr 7wy:qRfNSgitq;xgZxeTZwxaZ@I1$JEZ:NEAHPK.=ukv}G.hh35jgSTgHZqn3F3t>HD`6pzpDD1:H53($RKn>Sp6BBZIJ-16z$g/k=:Ziy7wt.dy#*.H&>{",
"K1JJ$~O>{HyETmDf]t9aBZH=NDgHZgZO46^@@Ip6{v4DIDN}i3LvYwh3dhd7bB6ZHHN@DaV3ywY>pKJ`pB^Kn>Th=kK1`6KDvcNnDJ-1I6pJDfZq@qa%Hsyy *iyTZ3t",
"bmI$`qvHqfgkNu:4D(I1fDq>b{6R`HEtqJ(>av9Vct=m^v0tjTnHv>dFQhFc]:Yv80yCqKzq@{Y}K-$pJDfKn=]55VnI$$pRv,n^>(@Dp-1$---`@(Ei+T4ZHBzq@p y",
"=FvPDfqkKD>;>t=<B4Z@p@~qTnj41^Z4uIJK6]73B>tf^Lvv]vxDn3.h+ 5{qKPqE=a21Jzq$p4o^KRRl@KIR@Zi7.=;tg:`JIkH4Z^P^K^41--J$ZHyXw6@RzD66I>j",
"w==Lk1$1Rq]xN{w].tG9@/`D^vvx(KNvat>KIjDD{vv(p>HB{cGYqyhQd7uN@f`q47yH1-pP--$K>:{lplIHz~t3@nxiFh7BffRpZ@>K:vo>zR2I``6}yu^S1zp6KP9=",
"Tw3Vx>4D4R6Nv7y73{t3^6fpDNmN^q^3>B3:jR1`@PNcB}NkNy7wZqMH7Vw3wg6Z2TVwuK--$$1Kvx64ERD9t5T>6@cn5XbwY^pKkfBKN=R4Bidv^1RqyeqDpRlKIR@>",
"_ acxiV=xgZ:tr95nE@vc@(plgB:k}6kn=xw:<ET/H@r=yxBNB=GnG*6T33v8i2pa]3VVx$$p-pK^:4Mm{KI(K$1RpMI26fl/@@J^D2PRiNbRg0]Y}qfIB@NZllqK@`z",
"t9@Nww35x]9bwBT:4pZbxvv:Tk:bA>HH=LVc~<9c7x6:yGvBp$I:q^Z26{GLc9v@6bE:PZ$-`$fPDTh39V9{q4f$K@K@^HKfK4>K4(>6$z4Bf~Iu>jbMqf>cH4j1K={w",
"j{K@y_rTBb]vwbE6HfKkn,x]ynyykNv:FVhV% wwc04nyV5kD$$D`1@@6Rxx3x]Bq4Rq`A$-$JPkfghh<hd7uc4pPD@^Bn^lD^v^vBNB`zqH~j1j:p<yNKab@4EIKccc",
"$`pl(2qz$lvcy={N:4ppA>nYTWx=;q]GVFFFhd39>H>vxwFvD$--pqH6B4vnQ.0>4S$$qT6J$pP^p14Awydh{5=ZNpK6@^>6Hkv>vv^^{Tg@IEjjbAB{n>Bu{H#:@R@f",
"`1q@~ZE2lEty4tntB4DK~>n}nHu5Z4=GwFhFdh.cyi93h5FG@p$$6v=AI4lSBTa>4Rl1Pn0}>ZP^4KpDy53G2K3nIPJpKD4iT:=v/vb^ZH{qDK2{xiHKEHayVd7F]U{N",
":@k1(@~g4: tKN@H6:Jp(H}oZii TZ4=#Fh.9 35rt5hdV)V5:Hnt{=>mm`p1$JREk4Ipwn0E}ooZEDqR{nM`lv=kkll@Kn99bib=vy4D$1-f1pJj/@~@DJD>*x9d3;V",
"<NPKRIEgH{7dbb~DpDf4D@k^>nun:2DyiTdVy#VwtcFh9353Fhb>vK(Z6>@q~l$I@6k4DZoAp7^Cev>qJ`5cppH;nvxv>iNk4BiauO3x:{1-$@#SHwZDlK$$RK _3V@a",
"==@^pRHH:wT73cNk`Dn/NNnY>;4K&7::;B3VbNdrg@vF]V797c}^=H4@RKHb5tZHBBuv^DRDRH0Zfs]:Ipitlpp@//w}8]>>q63h ayVWBkPKE97tv7rbc2fI@gw_{lK",
":x}bn>Hbttvy3L]L@DvxH:YvkN1p>iau]]a99t37cq(vxn:>qn=,nL>;wOB>y7h9e:vBa4J$$S4PfD@b1JRKIpfDin}nNn5]CqhF.ui8c>IRJ$EFODu7eu9NT6JKx{16",
"qkB,xi=xbi:vV3hVnDkL=wvv>vP@it B:t:Nmvbq;N>Ax9icBnxV==t=t0T6EHtr]07w}9Z`l9THPIzbZf-$H$JlkbB4uawwNq7d.waE7=:6J$JOyf{vqB9w#{Sz9cD1",
"I6>>vix7vNEahVGhc^Dnwwbc>]N> 75N4Nng^H;@^4qq>0]vvxx3G3w=rt;:4~Bu7v8xwV]g6G3tkKZb:I-$H$pf2B^Z:Ttt}q&XV7~`uGtbf1-ESJ@a6ax7ni@l>:Dp",
"fD}v:nsy7vKKi3u3V7By9=B:}cxvwMEN46cZDI:Tl$--(Bvbv]dw)3iyv>nxt# tVwvt3hhY1uFx=BrnnP1$pPo@(ko>bnN7>42%8NBl`HZybR--J(H4k6>wa{qKIqlp",
"1Kk}CHnex5BqfT3wdhwnitKE@k/HE{TNv}v}a^Z>lJ--pfn=rc3573yyv4P47Vww88.73dht$zyV3>}3]Y{D@nB4:vx/kp1Abxzj*w3t$J1quy--`b56>6fk>{qDJpk$",
"AK@kZ:n:B0nnKfutr3.wkT{smj(Ei.bl^}}vc:@JDKH2(>>vL=0777VV3cNDP*5yv95dhdhG@```ZYwV73=>pN=btxnk:p$4(Tw.<dFV{@4@$f--657BHgqNBDp11$SK",
"ZB:nvk4BNt,nx:la].3w:syyci@@u5t6f/^/v>Bf$H3]ovvyeB:c9tV]t;xu6jju}awe9y*7.&:DDpkFhVhYKpcwrnvkL:K4ND{y3au5]c>nRJ--Htbu6qq6N(p1IpZ}",
"vuw]:>:HbvLb]]c:<= T>Ni 3bHan.tH1(DRk^LP-IxY^>Z5=}HZTZ=xG]yhy{z@>iA~Bvss 7V3NRJEV*VV9Evc3>:>vYt0P1$1yw@~Z61n4f`zj{yNn:KILbzzu:Bv",
".5<vynv:{uvvv93=5O9y38T%..>4a~.blKvH6(^opD>c`I4c:n>cN6b9xy2yd3uNR>fjDZ0.8v3hxNp1t3w3FX>e}~/K(KRBwH$-qbba{l$KNMzExu9Lt59i5.uty=^k",
"5 wur:yZNuvr==3V377tv.35t7*{EEnwKlN;tm(,k(^K--S6^k4nc{]5=cBq7V.3>eg``KH>9bc>Gv}KfTynQhvsZ64PIf11=7S$-@NtbszSjS``9uyw97.F.<hdwy>B",
" y7w9TiAuOrr=3.35VubT85.  tyja{:g@mk9cnY^fD1--`K>kI67n=G37tgyOyyxybj`f64b>va3vc>zKiidF=vEkD@DD1$=7al-z>>wvSl%B~$6~:vO.<hddFhtN}x",
"##97. g>ET>wZe 7i5HaBT#9*9hV 5vyNycuc9}YK-$I$fDpbv:{b}:c83x7yisarc9cBRsN>>n=n=Y3vHix.dxbN4I1f@p$]3VVq`i9nrwaau.q6KHNw5O3dF33nZ:9",
"tui<.dngES*eqBHcuy3.ut%5#y5*5wu8yev:c]^4NlJRfpDR^bL:L=q^>07<<d9TBGtwwB}Biv>y9xnv]3cr..37ybYDp4B`KNTwVvNcHZV7S`j_Ht:6Tt{OyQd bHur",
"i T9<.8bvT80i%9w3ttiTv9tH +5tT79hO=n}:4Hc=vvkRpp@:x}YvK@K> VdhOT2ttg88x7irayyy0n.VV3b93V3Exvkyt4p4lJN{HH-Jj7yE`j6gyi6vZ3*3.OtT;T",
"t7U .570nyn=xwut=yyZHNit*w3F73)8wVVxcNm@hVFhmN4k(;k^,/^ID(`t# UyTHnB{yvrHeEw7w0333.wx9n93+cV]vgEIIRJ9:DAJ-J_yaa#{@u qi@HfiV5bm:@",
"*i&&w..5vZ2HyAl{x9it}/#i5d_yb_tw%wVLx=](n:GFND@4@K>qn3GbH>f4t3<9ylIHgfR6~l>H&#yZi7=t5ygN3]=V73dbn4HqVvDa]*S~up~%Oyzq`qmH`qddiHB>",
"7O3*%w3GV7262@l6Ncbxv0]tw39wwy%933hG=GhnJJIc]4^IfR&=YGGG:mnAt3<a:HJp$$$RaiEg~*>~Bg30<d>BcLxh 5h3NH:@nT-J%!FUnyEEHaRRR-~IKz7Vd3>x",
"5g{T#Tx]r]vw6~DR@@>;:>tyaT8hVQ.dF=3b]43cp$J^xx]:{_b3nt>/v}644Ed33Lp---$Du#vcawwr{wcVhFVnb>yO%a9h8N}AbnR$J`dFD23OaZ2E2`@uuM2a 57c",
"iE{TbmyvityGZIl1E@jNu>:naBy<FFd5V33H0@L]l$`H,cY]m3w.:}n/N>@DKE3=V=@---RHtex0uy=7*3OVdFVvv>v<TSH35nnNc=Zp--Edqq*OwaMajz~T.#S2Hv5:",
"t<t4EkZ#nw{whb4l(#4mccBn>BE2dFF c=xiHv7F;K1^YY/YHG37iNvvPffRHTEu3Lcf-$4ruEvnBg8Gn%7G %avv}uh7Ba35x]>>nvvjJzHaaSqicvyEj%E8.tT#T{>",
"t794KNBBtybiFVwqfHvcv=bv}>TMiw3vb353rn:T]ckk^bNHK677wHv:v4KDEc~6H Vn$$1Sdt77B~MslIa=3:BaBbwhwYvF5t>n6N>3Vn2N@@SIE>u*lzwyEt9..b@6",
" 79ulB>u57iEuvvBARg>B/tv7vcN%s#ntv3t3tuNvth5bY]bq4n7.39icc;:@uy>*c3]Zp6Hi&v]9:NHHg6Zu]0nnnv<B>6>99c/ZZ=tb>q6(4T@H6plfREi{uO73cZZ",
"H4]tHBw7.V5it33>4ZNa]vy=3ir9yNnHxvc>x3]w:T>=V7ni4B89y yyvvaBjKnBG7tbTqZTTH4>i:5u{{P4S~N>o4nTqHDEbx3>kHvB>>44BA>v&;64jjy<3<Ot=,B6",
"T4ny2@3FFVh3VFF.wGL]2b4enwyy9xvE>tnrw93=0N:wtu4>6l6@jgi@Hu:cig>>97vvb4ZEva(Evn3d7wT}N4nvn6>YaeHs7h3nkPl_>]nB:HB95=tm>Twd.3.ya4H@",
"AHA{{{wr99itt3QFdVT>pKBBvv35ywx}cx9ycw99=w>yytZ{{DJ1>{:ZfPN>578n0x:x=bE6aNg>N .3hhZBBbtw7>inb}i<ytVcx>(]4}BZ>cnwyuZq=w>7ddV<]#nn",
":n8r2MlK2:2gTa53<wbBK@ERG==3wi}i>uc0ayaNcxv]9aLuBBEI>NHtKp~6.btB}npHc9xwc:ntc <O*c~D`DHBvwv0v=>wb{tcnc~tHk:>EnvxtnvN:LK>]d3VFF33",
"v>=GzlRfI{4^Eg3.TT=}M2@1v5it]yniT:cxT#T{nxbc]:xbN>n@ZmN:;ZlKTgBBvypDTbwvxw:vv9X5*n@~JRgNbv85>]yyuTmc{xl4NAn>TbYccbvZkn(Hv3.dFF.5",
"wnu3EH@lp25w{Hxx%E33tZllINg:tr0ycywyxytTq@^SGcvuNa>HKH3Nt=@~`1l6N>:g:>>i9VwcuTyx3w9bf4BBx>wLi}73wx@ib:>TtB:ycuvvbY}(46v4T]wtFFww",
"V5>uKKuHaHn7w0x7ni 3h3Mn~KB>TBu7Oc:Ni#wtRp4ZNH>b>N:NN4>v77mbEqEHq@5=0xn7=xFVxnZaG757B4~q:>ynw8wr38B:9nv99t>b]BcL:kK^k}b:44aR h75",
"37HN1fa/=vPbBx xyxG7iwaTc6P2ZHs :Tsq6gt9I@bn@EH>wcyB:^>9G3HSV99xb4}v5wny7ay3]y>BrG9tc}IqNBBGw3Vwn0}c]]:ntTEa0b^]:PDP/wv::itqNVV5",
"TbH@EHZ@N^RAD2G7=73]t=7>n>Z@4ZS{9ivrZag{N};4@>::uvv}:c]hhFdt.9cb>H]tV3:aTw5h=vnNqy=hO8a2@6piLuw7b::TycrNyyHuy5~B]>4k>n=3N>v~pT5x",
"q4@KN{jHon@^ZDiNbG7.{Tn>Y:v:Tu>y.9yr:vcaZ~ZEH6u9nnYbNxtxdhdhdV :at3=3FOuwh3Qx]BaT>b3cr>BzpffT4iuw9  v9twt< tv5aqbcncZ6axTKHNI~bx",
"BEMqj4@@H/nZo@NMzH59TDH:g^4:uT]xty}naZ9x>q9=b_y3NvY>k;>>3.37d5yy97hF3Fh.tOG5e:6D6p@jl6H>{6>P2B:TB>75ryeby73iu{H64bcv2fS46lZb>Znw",
"bt>_aa6jqjb/Z4Zu@~yTxH:y44qlE@6txyNu>{/yvBDNy573i63vK@>aL<wt93&u3d3.77FF9:GxbBNuNIz1-$R6nBNv@K64ZB7 TuSjH93gB4jBpKiHfK2H{EHBaBaE",
"u9byNn@g4gu>N4HiEHuEtbEuNE~fBEqT=x>>>Nmvc}SNn=d3bK=L@P>}x7cuw=i{7h59<9VF=T=]baBN>66lJ$D@>;ZnPq@ZAgyiHTj@ZTt6SZ@BRpy_fK2{iT:TBZiE",
"E%5]T9HEHTub~~_#u9&Tv5^{c9B:{a%eb]9;N:by]xt=n]FF5@(=ckb,yw7uEu@RE85t]v97v}t={TqpqZb<N~ZBn9>v:b46Z6ydyn5Tnag{4N24@RTvqlfjBHTiynaE",
"2~w<vw7iBTNB;HGm#U2t]bnu5G@n(Hzl:nN:3&DNGwH>RJH=hMp^w07,}:c:KZ9sI4]i:TkZn]:twN>TBHut=G>aaN^nBb7vnc .ci5bBy{g>w46fpK(IfIDiZH:55%T",
"~~uuuv3xHH%T)U<vTjMHLctc3]aNpRf@^n/:5VTSI~{{J-$$@1`Rany0inueq@6vNvcbBH>4}w=9wvbnyB6{i80]:bvT:>bw4a3<nivv{T3xqtnT@R$1ZJRI>ysa <~2",
"Sj_wyac7xt5hFUZ)#E.u=cNv>T{@$JKK^n]<3hhTRJcMJ---glSSTyvy=5tnjqR(:>:>>b}:tv G7nGc>inE2%73vy=Y9vjeN1iVwe>N9B9=jT5y:D$$(`@DgmajE.ES",
"E{#*5MuVw]mFFF#iFhFhE9^6pp@(1J`pKc)<Utt35##MJ-$$@R`j%NTtai0rZE^Kn>6qpKB>v3yGrTxbNo77ywO3O{:LG:>HH~-Ki:ER~12>m63]5NI1p^>^H>twa<9~",
"E~{T<75F.FHN:.3tVhFF*8bN$$pI11Rl@GFV&Tn<tEmEJJ$IIpSS2R#aSEE >g>4Bb>41SHNwxyw3w5]6qZb3Oy.xTK@xZ>H@R`$1JKS9g>,uawn==iPK:}4uv995  #",
"U{fzHT4 FFRf$Rb379dF3GV=$-$$J1EKK;G=m=xb4lH>l`IP^I~abBwtb4yy7ybgE/39HBa:vvx7=VG7bnDKuw>yxy^pqc0a>j{~l`Kf >wy%eaEOVwnI6=<99bH;:B9",
"&u~lH:E{FFlM`l9FV&y3VV==p$1IJR4l`Ib9NTb;E{EH4RS^Nqjiwvvxx>3539b{@g]57ba>:uxx]d5c}x@2MHe}nvgppiLrcBtu#4EIEay9#*t%w3=vqzx]cncNBu{>",
"]<9T#x>km3dFd.FF55nTvn]h95])tbfpJJ(n4f4vN={Rb}/>bbj%bnBv=8uwGOgHZ@{i)79vt:T>n5x=vc3TlRA}g{K1`jivYv3VFhv{E#id.3 T&%d3vjvt7}bvvcN{",
"VcOZ{iKKKt9hFFVV 3b:Rp]F3FhhFFTl`l4N{@@:@guf^xn}kxUy9iS~ejI2=VTNaN~S{i7ywvbvHbv]aEd3*aqDZK2$Kv>aCevw.V0T:aavO.5%att7h<bvtZ>H::aA",
"c:a~zj~6vbzE.Fhu{bB@llbhVhhFFFF N77nB/NHRRlz:N:k4H3.3G{g@~~fH:L=vw>N&y3rby5xb8]7}EH.V3cZNf1$pb>N>Z}kgvOw2a>TzE.5M iaddygH@Z^4(~f",
"6N5u~lE4v3yuT%y:4K>wh3V.FFFFFFhVvbx9vx/mSJ`$BT1ppDunBb:]ZRD14P{>}>95wtwwwrwxw707=={u8:t57y1-$K:{v>(@Rj8n6f1qJJHTa:>H.d3x^^p@@f$$",
"JpT]>Tj@HV5xHE{vc@:7FFhuhh33FF.ha4ccnt::ZzElf4$1@Ig>2HZu5T@IqaH:bkNv7yyvO.58vunv=w7ytiitw3n~pKB{n>n/>}ia#f-$J$j{S~Ti7.7iiBEp1p1J",
"E~: Gbbi%09c__@;==h5OV.E{ciwdhFVug>5t=kk4ktaM`-$B@gBHEi{Vh]Kpgb#(^642i>Hyayu}ZZHx=<3F.gExw=Y^B7w:cVxB6~ivE$-`l@4uTtyO7VG9>5HI@K1",
"Nu#y3c ]v7thFVMp5=FFV5.H2u5F3h5V3G:ucnNkkknZ;I$`Dgi=9va#;>b@l1HtKHT{Rq{>gSHyo^6qZa3..yaEBE>vnywOcjV=naawh7jIzpfaE57wy<O33Tv]:nkN",
"4T{a37x9 ]rVFF_`y5FFFVV#Mb3F33O3]G7biuw>v>vHu@Jpz^TX57>{4MN^l$IHqHt&2jSeD2genB6qKD5_O**Bg6kvyw77cqwV=ct<FV_{jRpNl 7y 7t9=cbGctZn",
"j4jj5=5w=c#{3d<#H9hFFFFVutKM]T=GN:==u:5=]oHH>uMRK4t3hVdv{Bk(R$$p@2wd7wzHzRR6v7BZ61v h75t@Pvtv{y]L>2:xv:y&9.9vHjgJ2yi7tHi=]8G.5bi",
"KgTTTa<57_@K=V<dV#td<5FF<uJ1GG3V5x]]G&t_mf@knt9#@K3FFF.3u5%MEjIK4@y9rywbij`KBi]>bnNwVwiiEH]53 t:Yh{SZBE#7<5V.iiN2Eca*.aHx7]h7.3c",
"6Euuy{4Mc5_ywhh.77{<VFVF7%lEGtx;]]vc]cd3)cb]>nx<H>:Ti8%ywdh!UU~M_9tuT>rrwvBDeabvNkAH&37]nmrOQ3VxH=<iu<r dhw<dG7u=5y{a5VvvnuwiTv<",
"{H*tw5TN9.hV3VF.O5K4tu yEE#Hx:cN{4}bG)<3FF33Y/<hm4RzfEgH55FFd&jm55<d<ia3vw0ay>BN4KIKi<7G=vy53&*]zj5<9twdO.OaE Va~_mTj%58c>w7rD@y",
"iN_O5<;9=] VFhVdy7{jHE_y# jlcxx=vnp{GF5yFF7Ovk:V_BSK`Db& 5hFFVcn!hdhX*2 OZ97w7>mpppHE~_9yu{EM`2yz2tN:a twyhh&S]i$pt]ujHn}vTV5n>9",
"{HT#<3<t9V_hFFFF*tGu!ww5&tEHbGc=vb@th3.MTVwt)9>;N4aHqqti9dFFF.hTqtic&&Tst#{yv0{b{{j454aZ:vtnMJR~`zvATm9y#Hd5w~ycZ6@{wwmN>v7Vyu>3",
"t955.d {{<OdF.&dF.55Vd99EE~@I(N9=GG559d%jXd=5wNB@K>b:B@{wdFFFh=BKEu5.9yj6TEDfggEwtcH7nv x4Hc2J1`SK4BbNNu7TTa~R{2K:TE47bT:>vy%>6{",
"tw< d. E~&w.FdU.hd<]3V.<TTKfl@TxGFF<tc3*qu3Otxm46~N>nHzZt.FFFF=kEi 3<&tA~4@`$DEanu T:bn7=NN92```qq(n::am5 2Ej`jIR{tulT;nkZbi6aSH",
"O. g  TU 7ddXdFd.33]335dV<a~/x3t9VFV5c3<RD9cBaH@nT>HH@R@E*FFFFF99)5 h59cED$$`R%irwwO>i:5G5v53UD2N6Pnn{u:vtSatlRS~lt5%gu:/^TcB/Ha",
"&95TE<d<uUt !&Fh7 ]7wd&=h7i>E9:H@u5FV93dEzavH6@IP~:H4I1f{{9<FFFdj!d dh3=yS$$fEr*8v7<nnv7)V:6d)tUv}p^5xyuH{j~OH`2&g%w&wtvx>:nvy:x",
"yT 5 dUjlM{&9[QFh9nny.MgtVw>S4Kl@N9h]a9<9Hb]>{6q@@enH61`6gjg=FFF&!hhhFd3V*z`EtbHrnTaby>H5=bgj~5y=xEftttNHSR$lj~ljTH*t5tv]5yb0=ac",
"&yZv%dd{~%{9U9 .3=Y/7h*Pi.bTjfplKKa t*{{>HNvu:NH6qB7wrHzD4@@nhFFhhFddFd]V<EzpD3O55Tj{Bl~{:>j--it7G3uv87HKR`$$`HEREO.##crv93=>twv",
".56gTOdd#%E#&%9un}}b3d7w5FYnjjl@^B9{{Tu>4SNN42ZH1@3vVxvfzg@@^TFFFd!~Ud.atHH~6A#8753i#mgSII4@`-l9y+V.Bg/S61R---Eu@j%t*#>{9>yvyyw3",
"=3:u{#Xh.y{t3& bTTbcx3B>k9tubBjnNjuiiEEH~S:uH~Hn6DNqZIAp$1z@AZQFh!EJEdE^BM~zBBZTaBie5t_~zf@j2l`fai3hxnkaKI1$MfKi{E%j%&UjH>nty79v",
"n}bwttt..3.#3tj2>E>HyH4gqHt79uZic46EqZ~&lIEvw#uy:Bqp1IN4$-Rq^~#dhh%JlEzlNKElPZS6e6>Z<h<#{TD4(>E~Nt.d0v{4qK@K:{j;vT&#j#. :uP=7.Vx",
">a}u 9 .<<V%<uzKnT:4nNg^jat]]v64ta4~pA2u~`~i9w ne{DR$KanRpIK^PM&dF&`Jl@INlH@Iq66iZa>tF.ctw4{6ii:Ty5.x:nTm@^Huy{Tc9  jEd<_:Iv5t57",
"trtw!9O.*E<OT#SnntnP}vn:Tu3V3]H~kt@q$6Z4Hfl4#9yHN{D@1pvyv}k6>BjEw..jJ`9:kNHn4IBv=tN%st3)9vwbBat79w9OhVw#Gbi59t&N%{{ty#t<uZDKu4iu",
"B:7.5.dt { .. c9NkL}T}w>v5nb7<>@Hb:x@qNnm>H@~Eg4S6N^I`wvvqnookBgT_<<jfc=]vv93cayd35*6ji39wwvwt8O3Oy]8G.a9.t5.&{u4KEjgN%&9ui4@BnT",
"Ha7< 5tt@lw5d9i^k6vv8]v=nvnH9vNlq4:>H@4La4#4j{TeB{4NN66ZPJ]>ABi{DEN!<Tb3bNk:tvbwhhhhy_Tuww9ywww<wb7tar<093hV&EI2Mj3:~aTUOtvwP@gH",
"Z4%yyuT>{K{y a{v{bv>33>v=79y>9t2KEkNk>4BbvaT{&t yuibviPpDREx4pHuj@<V#9]3vNDl4^g7hFd9cTaMya>Ti~au5y]t4H]LL...< MMH6.np4dd Onvkq@j",
"oBt.OwTH;4# <{n5ER}^vuxwyx3wTx]9N>{}HB^q98w:Ey*twtw7i}mI$-j(qKIzNfKNi9GG]]m6jZaZgHb6EEj~%iMy:ZaHO95hv>vxn3<..d>HN@>B$-j*d5BbbtN4",
">vtyyu4qEEi9QOG]{p>AvLwV5y0xyct3c]v=>HvyFVh3i{iaavu9yn5vKR.]>ZD@tN`ppEb]vbycr@l`p1Hq2jl2T9nt78u=OVQFVvn>& TTxd.u>Bv]@`$zyOK@{B59",
"~279T{Z~HEa75w==N@{q4LOw=7>>N:T]tnu=v^vGdFhd aZ%BA~gn>y9_KwFyvZ}:;1J``/Yx=:_=aE~R`6vuEH>yy>H.3wi5Vta:vv>&. % 339xN:}v:S`Mbajm>av",
"ZRu5a4BEg@:3 {w3NZ~Dz:iEy8vbauBy=:EtbZc)xFhd9*E6>24j>nu&nITF9xBBb:KplI4vn95txTHHDI479ub:vuZ6y.{6w3cg{:nn*3.v9VV=c:Zin=#KM:NE>ng>",
"aj`MH6iY{E>wvu:9=5KDqf{Hnutc:uHNhtK2uNB5>hh.7t gsjKl4Tiaa@l4]L:Z3ryng6^n>:V]>2~T>:>B]vt>uyn@2MSDNtGvn>:Y8dyybV9v>u6:n95ijH6Hn{>Z",
"jS`SjHPgj4Nvyutv33w6cZPANN{n&{n2:c4@TNlyyyV3wT3xuySRS6jMb:KR$Rnih733b6kv553tjK@H4nkDaB}cHN9utZ@ql2Bty>:>tuH>jH759ZB/9BN{~6BNv{BH",
"u4Hg{ippIRN>7c33yu=:uYD@2gHgtEE~KiHB#:E:Ts5VvT9tuyn_S6{HHN>a~D1pVh3VwB2nnuttKNakq6^p(^B]n6n{GuIzpjqIN}>Hni4ZjNy<=i^4/NTyNHNgNvyT",
"tuuyNB11f$^nv=<3vc35/vB/@66qwuMalP46>uE#v7b<]n9c7_bvA6{%H{BTc;f$2.*7G7a;anuuH6KK@knk^>{wwZTH<Fw>fpnNycv^atn>:n5hVv>^lv{]:kiBTvtt",
"4HE4ZH`-p1Pk~uV=<g{sN9>]nniyw Eu;~fHNau%inb>ivc@t9ByyB;u3=HEitN@J@V9.F9nbavn{@11`pfkDD4b]ng%e33=DIZ:LvGvi}cyi3&u=xxuB=E/NkNYyc&:",
"4jKSD^f$JpP(1Ja5wiqm>N{a9cHw73*b3mp45y<sKZ_46@nEEaZjwHg4::{T~B/n(fZyndh5}E>nmZK`1`$pJ1l{vxv%24tvNZf6/nnv77n=&vu{}v>9KNH4:oBivvt7"
};
