/* XPM */
static char *happy_mac[] = {
/* width height ncolors chars_per_pixel */
"32 32 13 1",
/* colors */
"  c None",
"- c #000000",
". c #777777",
"X c #CCCCFF",
"o c #555555",
"O c #00BB00",
"+ c #6666CC",
"@ c #CCCCCC",
"# c #DD0000",
"$ c #888888",
"% c #FFFFFF",
"& c #444444",
"* c #222222",
/* pixels */
"                                ",
"      --------------------      ",
"     -@@@@@@@@@@@@@@@@@@@@-     ",
"    -@@@@@@@@@@@@@@@@@@@@@@-    ",
"    -@@@&&&&&&&&&&&&&&&&@@@-    ",
"    -@@&XXXXXXXXXXXXXXXX%@@-    ",
"    -@@&XXXXXXXXXXXXXXXX%@@-    ",
"    -@@&XXXX+XXX+XX+XXXX%@@-    ",
"    -@@&XXXX+XXX+XX+XXXX%@@-    ",
"    -@@&XXXXXXXX+XXXXXXX%@@-    ",
"    -@@&XXXXXXXX+XXXXXXX%@@-    ",
"    -@@&XXXXXXX++XXXXXXX%@@-    ",
"    -@@&XXXXXXXXXXXXXXXX%@@-    ",
"    -@@&XXXXX+XXXX+XXXXX%@@-    ",
"    -@@&XXXXXX++++XXXXXX%@@-    ",
"    -@@&XXXXXXXXXXXXXXXX%@@-    ",
"    -@@&XXXXXXXXXXXXXXXX%@@-    ",
"    -@@@%%%%%%%%%%%%%%%%@@@-    ",
"    -@@@@@@@@@@@@@@@@@@@@@@-    ",
"    -@@@@@@@@@@@@@@@@@@@@@@-    ",
"    -@@@@@@@@@@@@@@@@@@@@@@-    ",
"    -@@@@@@@@@@@@@@@@@@@@@@-    ",
"    -@@@@@@@@@@@--------@@@-    ",
"    -@@@@@@@@@@@%%%%%%%%@@@-    ",
"    -@@OO@@@@@@@@@@@@@@@@@@-    ",
"    -@@##@@@@@@@@@@@@@@@@@@-    ",
"     -@@@@@@@@@@@@@@@@@@@@-     ",
"     ----------------------     ",
"     -oooooo&&&&&*********-     ",
"     -........oo&&&&******-     ",
"     -$$$$$$$$...oo&&&&***-     ",
"     -oooooooooooooooooooo-     "
};
