#define mac_width 25
#define mac_height 32
static unsigned char mac_bits[] = {
  0x00, 0x00, 0x00, 0x00, 0xFC, 0xFF, 0x7F, 0x00, 0xFE, 0xFF, 0xFF, 0x00, 
  0x0E, 0x00, 0xE0, 0x00, 0xF6, 0xFF, 0xDF, 0x00, 0xF6, 0xFF, 0xDF, 0x00, 
  0x76, 0x7D, 0xDD, 0x00, 0xF6, 0xFE, 0xDE, 0x00, 0x76, 0x7D, 0xDD, 0x00, 
  0xF6, 0xFF, 0xDF, 0x00, 0xF6, 0xDB, 0xDF, 0x00, 0xF6, 0xE7, 0xDF, 0x00, 
  0xF6, 0xFF, 0xDF, 0x00, 0xF6, 0x83, 0xDF, 0x00, 0xF6, 0x7D, 0xDE, 0x00, 
  0xF6, 0xFF, 0xDD, 0x00, 0xF6, 0xFF, 0xDF, 0x00, 0x0E, 0x00, 0xE0, 0x00, 
  0xFE, 0xFF, 0xFF, 0x00, 0xFE, 0xFF, 0xFF, 0x00, 0xFE, 0xFF, 0xFF, 0x00, 
  0xFE, 0xFF, 0xFF, 0x00, 0xC6, 0x3F, 0xE0, 0x00, 0xFE, 0xFF, 0xFF, 0x00, 
  0xFE, 0xFF, 0xFF, 0x00, 0xFE, 0xFF, 0xFF, 0x00, 0xFE, 0xFF, 0xFF, 0x00, 
  0x00, 0x00, 0x00, 0x00, 0xFC, 0xFF, 0x7F, 0x00, 0xFC, 0xFF, 0x7F, 0x00, 
  0xFC, 0xFF, 0x7F, 0x00, 0x00, 0x00, 0x00, 0x00, };
