#define mac_width 19
#define mac_height 25
static unsigned char mac_bits[] = {
   0x00, 0x00, 0x00, 0xfe, 0xff, 0x03, 0x06, 0x00, 0x03, 0xfa, 0xff, 0x02,
   0xaa, 0xaf, 0x02, 0xda, 0xdf, 0x02, 0xaa, 0xaf, 0x02, 0xfa, 0xf8, 0x02,
   0xfa, 0xff, 0x02, 0x7a, 0xf0, 0x02, 0xba, 0xef, 0x02, 0xda, 0xdf, 0x02,
   0xfa, 0xff, 0x02, 0x06, 0x00, 0x03, 0xfe, 0xff, 0x03, 0xfe, 0xff, 0x03,
   0xfe, 0xff, 0x03, 0xf2, 0x07, 0x02, 0xfe, 0xff, 0x03, 0xfe, 0xff, 0x03,
   0x00, 0x00, 0x00, 0xfc, 0xff, 0x01, 0xfc, 0xff, 0x01, 0xfc, 0xff, 0x01,
   0x00, 0x00, 0x00};
