#define matrix2_width 42
#define matrix2_height 432
static char matrix2_bits[] = {
 0xff,0xff,0xff,0xff,0xff,0xff,0xff,0xff,0xff,0xff,0xff,0xff,0xff,0xff,0xff,
 0xff,0xff,0xff,0xff,0xff,0xdf,0xff,0xe0,0xff,0xff,0xff,0xb3,0xff,0xc0,0xff,
 0xff,0xff,0x7f,0x7f,0xcc,0xff,0xff,0xff,0x79,0x3f,0x8c,0xff,0xff,0xff,0x7b,
 0x7f,0x8c,0xff,0xff,0xff,0xbd,0x3f,0x8e,0xff,0xff,0xff,0x7b,0x3f,0x8c,0xff,
 0xff,0xff,0x7b,0x7f,0xcc,0xff,0xff,0xff,0x75,0xff,0xcc,0xff,0xff,0xff,0xbb,
 0x7f,0xc4,0xff,0xff,0xff,0xef,0xff,0xe1,0xff,0xff,0xff,0xff,0xff,0xff,0xff,
 0xff,0xff,0xff,0xff,0xff,0xff,0xff,0xff,0xff,0xff,0xff,0xff,0xff,0xff,0xff,
 0xff,0xff,0xff,0xff,0xff,0xff,0xff,0xfb,0xff,0xff,0xff,0xcf,0xff,0xe1,0xff,
 0xff,0xff,0xef,0xff,0xe1,0xff,0xff,0xff,0xef,0xff,0xf9,0xff,0xff,0xff,0xe7,
 0xff,0xf9,0xff,0xff,0xff,0xef,0xff,0xf1,0xff,0xff,0xff,0xef,0xff,0xf9,0xff,
 0xff,0xff,0xef,0xff,0xf9,0xff,0xff,0xff,0xef,0xff,0xf9,0xff,0xff,0xff,0xef,
 0xff,0xf1,0xff,0xff,0xff,0xef,0xff,0xf9,0xff,0xff,0xff,0xf7,0xff,0xf1,0xff,
 0xff,0xff,0xff,0xff,0xff,0xff,0xff,0xff,0xff,0xff,0xff,0xff,0xff,0xff,0xff,
 0xff,0xff,0xff,0xff,0xff,0xff,0xff,0xff,0xff,0xff,0xff,0xff,0xff,0xf5,0xff,
 0xff,0xff,0xb3,0x7f,0xc4,0xff,0xff,0xff,0xfb,0xff,0xc8,0xff,0xff,0xff,0x6b,
 0x7f,0xdc,0xff,0xff,0xff,0xfb,0x7f,0xf8,0xff,0xff,0xff,0xfb,0xff,0xfc,0xff,
 0xff,0xff,0xf7,0xff,0xf0,0xff,0xff,0xff,0xef,0xff,0xf9,0xff,0xff,0xff,0xdf,
 0xff,0xe2,0xff,0xff,0xff,0xb7,0xff,0xc2,0xff,0xff,0xff,0xaf,0xff,0xc0,0xff,
 0xff,0xff,0xb7,0xff,0xc0,0xff,0xff,0xff,0xff,0xff,0xff,0xff,0xff,0xff,0xff,
 0xff,0xff,0xff,0xff,0xff,0xff,0xff,0xff,0xff,0xff,0xff,0xff,0xff,0xff,0xff,
 0xff,0xff,0xff,0xff,0xf2,0xff,0xff,0xff,0xab,0xff,0xc0,0xff,0xff,0xff,0xf5,
 0x7f,0xec,0xff,0xff,0xff,0xdb,0x7f,0xf4,0xff,0xff,0xff,0xf7,0xff,0xf8,0xff,
 0xff,0xff,0xf7,0x7f,0xf0,0xff,0xff,0xff,0xeb,0xff,0xf8,0xff,0xff,0xff,0xfb,
 0x3f,0xfc,0xff,0xff,0xff,0xfd,0x7f,0xf6,0xff,0xff,0xff,0x77,0x7f,0xcc,0xff,
 0xff,0xff,0xdb,0xff,0xc2,0xff,0xff,0xff,0xff,0xff,0xf5,0xff,0xff,0xff,0xff,
 0xff,0xff,0xff,0xff,0xff,0xff,0xff,0xff,0xff,0xff,0xff,0xff,0xff,0xff,0xff,
 0xff,0xff,0xff,0xff,0xff,0xff,0xff,0xff,0xf7,0xff,0xf9,0xff,0xff,0xff,0xef,
 0xff,0xf9,0xff,0xff,0xff,0xd7,0xff,0xf0,0xff,0xff,0xff,0xdf,0xff,0xe1,0xff,
 0xff,0xff,0xab,0xff,0xc0,0xff,0xff,0xff,0x6f,0xff,0xc0,0xff,0xff,0xff,0x55,
 0xff,0x80,0xff,0xff,0xff,0xab,0x7f,0x80,0xff,0xff,0xff,0xeb,0x7f,0xd0,0xff,
 0xff,0xff,0xf7,0xff,0xf9,0xff,0xff,0xff,0xff,0xff,0xfa,0xff,0xff,0xff,0xff,
 0xff,0xff,0xff,0xff,0xff,0xff,0xff,0xff,0xff,0xff,0xff,0xff,0xff,0xff,0xff,
 0xff,0xff,0xff,0xff,0xff,0xff,0xff,0xff,0xff,0xff,0xfb,0xff,0xff,0xff,0xd7,
 0xff,0xe0,0xff,0xff,0xff,0xaf,0xff,0xc1,0xff,0xff,0xff,0xdf,0xff,0xe6,0xff,
 0xff,0xff,0xb7,0xff,0xc3,0xff,0xff,0xff,0xdb,0xff,0xe0,0xff,0xff,0xff,0xd7,
 0x7f,0xe4,0xff,0xff,0xff,0xfb,0x7f,0xf8,0xff,0xff,0xff,0xfb,0x3f,0xfe,0xff,
 0xff,0xff,0xfd,0x7f,0xf4,0xff,0xff,0xff,0xb7,0xff,0xcc,0xff,0xff,0xff,0xdf,
 0xff,0xe3,0xff,0xff,0xff,0xff,0xff,0xfd,0xff,0xff,0xff,0xff,0xff,0xff,0xff,
 0xff,0xff,0xff,0xff,0xff,0xff,0xff,0xff,0xff,0xff,0xff,0xff,0xff,0xff,0xf7,
 0xff,0xf9,0xff,0xff,0xff,0xdf,0xff,0xe5,0xff,0xff,0xff,0xff,0xff,0xe3,0xff,
 0xff,0xff,0x5f,0xff,0xcf,0xff,0xff,0xff,0x6f,0xff,0xc0,0xff,0xff,0xff,0x33,
 0xff,0x80,0xff,0xff,0xff,0x7d,0x7f,0xc4,0xff,0xff,0xff,0xb7,0x3f,0xcc,0xff,
 0xff,0xff,0x7b,0x7f,0x8e,0xff,0xff,0xff,0xbd,0x7f,0xc8,0xff,0xff,0xff,0x77,
 0xff,0xc6,0xff,0xff,0xff,0xff,0xff,0xf5,0xff,0xff,0xff,0xff,0xff,0xfb,0xff,
 0xff,0xff,0xff,0xff,0xff,0xff,0xff,0xff,0xff,0xff,0xff,0xff,0xff,0xff,0xff,
 0xff,0xff,0xff,0xff,0xff,0xef,0xff,0xd1,0xff,0xff,0xff,0x53,0x7f,0xc4,0xff,
 0xff,0xff,0xfb,0xff,0x80,0xff,0xff,0xff,0xd7,0xff,0xfc,0xff,0xff,0xff,0xff,
 0xff,0xf8,0xff,0xff,0xff,0xef,0xff,0xf1,0xff,0xff,0xff,0xff,0xff,0xfb,0xff,
 0xff,0xff,0xef,0xff,0xf3,0xff,0xff,0xff,0xdf,0xff,0xe7,0xff,0xff,0xff,0xff,
 0xff,0xe7,0xff,0xff,0xff,0xbf,0xff,0xdf,0xff,0xff,0xff,0xff,0xff,0xdf,0xff,
 0xff,0xff,0xff,0xff,0xff,0xff,0xff,0xff,0xff,0xff,0xff,0xff,0xff,0xff,0xff,
 0xff,0xff,0xff,0xff,0xff,0xff,0xff,0xff,0xff,0xff,0xff,0xff,0xff,0xfb,0xff,
 0xff,0xff,0xff,0xff,0xeb,0xff,0xff,0xff,0xab,0xff,0xc8,0xff,0xff,0xff,0x7b,
 0xff,0xca,0xff,0xff,0xff,0x6b,0x7f,0x84,0xff,0xff,0xff,0x57,0xff,0xc0,0xff,
 0xff,0xff,0x57,0xff,0xc0,0xff,0xff,0xff,0x57,0xff,0x80,0xff,0xff,0xff,0xf7,
 0xff,0xc8,0xff,0xff,0xff,0x5b,0xff,0x88,0xff,0xff,0xff,0x7b,0xff,0x9c,0xff,
 0xff,0xff,0xf7,0xff,0xc8,0xff,0xff,0xff,0xbf,0xff,0xeb,0xff,0xff,0xff,0xff,
 0xff,0xff,0xff,0xff,0xff,0xff,0xff,0xff,0xff,0xff,0xff,0xff,0xff,0xff,0xff,
 0xff,0xff,0xff,0xff,0xf7,0xff,0xff,0xff,0xdf,0xff,0xeb,0xff,0xff,0xff,0x77,
 0xff,0xc8,0xff,0xff,0xff,0xfb,0xff,0x8c,0xff,0xff,0xff,0x77,0x7f,0xda,0xff,
 0xff,0xff,0x7b,0xff,0x8c,0xff,0xff,0xff,0x6b,0xff,0x88,0xff,0xff,0xff,0xab,
 0x7f,0xc0,0xff,0xff,0xff,0xaf,0xff,0xc0,0xff,0xff,0xff,0xf7,0xff,0xf9,0xff,
 0xff,0xff,0xdf,0xff,0xf1,0xff,0xff,0xff,0xff,0xff,0xe3,0xff,0xff,0xff,0xdf,
 0xff,0xef,0xff,0xff,0xff,0xff,0xff,0xff,0xff,0xff,0xff,0xff,0xff,0xff,0xff,
 0xff,0xff,0xff,0xff,0xff,0xff,0xff,0xff,0xff,0xff,0xff,0xff,0xff,0xff,0xff,
 0xff,0xff,0xff,0xff,0xff,0xff,0xff,0xe7,0xff,0xff,0xff,0xdf,0xff,0xe7,0xff,
 0xff,0xff,0xdf,0xff,0xe7,0xff,0xff,0xff,0xff,0xff,0xe7,0xff,0xff,0xff,0xbf,
 0xff,0xd7,0xff,0xff,0xff,0xfb,0xff,0xca,0xff,0xff,0xff,0x7f,0x7f,0xdd,0xff,
 0xff,0xff,0xb5,0x7f,0x8a,0xff,0xff,0xff,0xbd,0x3c,0x04,0xfe,0xff,0xff,0xee,
 0x3f,0x07,0xff,0xff,0xff,0xff,0xff,0xff,0xff,0xff,0xff,0xff,0xff,0xff,0xff,
 0xff,0xff,0xff,0xff,0xff,0xff,0xff,0xff,0xff,0xff,0xff,0xff,0xff,0xff,0xff,
 0xff,0xff,0xff,0xff,0xff,0xff,0xff,0xfd,0xff,0xff,0xff,0xef,0xff,0xf8,0xff,
 0xff,0xff,0xff,0xff,0xf3,0xff,0xff,0xff,0xdf,0xff,0xe5,0xff,0xff,0xff,0x7f,
 0xff,0xcf,0xff,0xff,0xff,0xbf,0xff,0x8f,0xff,0xff,0xff,0x7f,0xff,0xcf,0xff,
 0xff,0xff,0xff,0xff,0xe7,0xff,0xff,0xff,0xdf,0xff,0xf3,0xff,0xff,0xff,0xf7,
 0xff,0xf9,0xff,0xff,0xff,0xff,0xff,0xfa,0xff,0xff,0xff,0xff,0xff,0xfe,0xff,
 0xff,0xff,0xff,0xff,0xff,0xff,0xff,0xff,0xff,0xff,0xff,0xff,0xff,0xff,0xff,
 0xff,0xff,0xff,0xff,0xff,0xff,0xff,0xff,0xff,0xff,0xff,0xff,0xff,0xff,0xff,
 0xff,0xff,0xdf,0xff,0xe1,0xff,0xff,0xff,0xbb,0x7f,0x86,0xff,0xff,0xff,0xde,
 0x3f,0xc5,0xff,0xff,0xff,0xbf,0x3e,0x27,0xff,0xff,0xff,0xfd,0x3f,0xd7,0xfe,
 0xff,0xff,0x7e,0x3d,0x4e,0xfe,0xff,0xff,0xbd,0x3f,0x8f,0xfe,0xff,0xff,0xff,
 0x7d,0x1d,0xff,0xff,0xff,0x77,0xff,0x3d,0xff,0xff,0xff,0xff,0xff,0xff,0xff,
 0xff,0xff,0xff,0xff,0xff,0xff,0xff,0xff,0xff,0xff,0xff,0xff,0xff,0xff,0xff,
 0xff,0xff,0xff,0xff,0xff,0xff,0xff,0xff,0xff,0xff,0xff,0xff,0xff,0xff,0xff,
 0xff,0xff,0xff,0x7f,0xf5,0xff,0xff,0xff,0xd6,0xbf,0xd0,0xff,0xff,0xff,0xef,
 0xff,0xf9,0xff,0xff,0xff,0xef,0x5f,0xf1,0xff,0xff,0xff,0xed,0xbf,0xd1,0xff,
 0xff,0xff,0xef,0xdf,0xf0,0xff,0xff,0xff,0xaf,0xff,0xf9,0xff,0xff,0xff,0xf7,
 0xff,0xf1,0xff,0xff,0xff,0xff,0xff,0xf9,0xff,0xff,0xff,0xef,0xff,0xf9,0xff,
 0xff,0xff,0xef,0xff,0xf1,0xff,0xff,0xff,0xff,0xff,0xfb,0xff,0xff,0xff,0xff,
 0xff,0xff,0xff,0xff,0xff,0xff,0xff,0xff,0xff,0xff,0xff,0xff,0xff,0xff,0xff,
 0xff,0xff,0xff,0xff,0xff,0xff,0xff,0xff,0xf7,0xff,0xf9,0xff,0xff,0xff,0xff,
 0xff,0xfb,0xff,0xff,0xff,0xef,0xff,0xf9,0xff,0xff,0xff,0xff,0xff,0xf9,0xff,
 0xff,0xff,0xef,0xff,0xf9,0xff,0xff,0xff,0xff,0xff,0xf9,0xff,0xff,0xff,0xef,
 0xff,0xf9,0xff,0xff,0xff,0xff,0xff,0xfb,0xff,0xff,0xff,0xef,0xff,0xf3,0xff,
 0xff,0xff,0xff,0xff,0xe7,0xff,0xff,0xff,0xff,0xff,0xff,0xff,0xff,0xff,0xff,
 0xff,0xff,0xff,0xff,0xff,0xff,0xff,0xff,0xff,0xff,0xff,0xff,0xff,0xff,0xff,
 0xff,0xff,0xff,0xff,0xff,0xff,0xff,0xff,0xff,0xff,0xff,0xff,0xff,0xff,0xff,
 0xff,0xaa,0xff,0xff,0xff,0xab,0xfe,0xa8,0xff,0xff,0xff,0xff,0xff,0x14,0xff,
 0xff,0xff,0x6b,0xfd,0x08,0xff,0xff,0xff,0xab,0x7e,0x00,0xff,0xff,0xff,0x5d,
 0x7f,0x00,0xff,0xff,0xff,0xb7,0x7e,0x82,0xff,0xff,0xff,0x6b,0xff,0x88,0xff,
 0xff,0xff,0x7f,0xff,0x94,0xff,0xff,0xff,0xf7,0xff,0xd4,0xff,0xff,0xff,0xdb,
 0xff,0xf4,0xff,0xff,0xff,0xef,0xff,0xf1,0xff,0xff,0xff,0xff,0xff,0xfb,0xff,
 0xff,0xff,0xff,0xff,0xff,0xff,0xff,0xff,0xff,0xff,0xff,0xff,0xff,0xff,0xff,
 0xff,0xff,0xff,0xff,0xff,0xff,0xff,0xff,0xff,0xff,0xff,0xff,0xff,0xd7,0xff,
 0xff,0xff,0xbf,0xff,0xc7,0xff,0xff,0xff,0x55,0x3f,0xc0,0xff,0xff,0xff,0xb7,
 0x3f,0xc8,0xff,0xff,0xff,0xeb,0xff,0x90,0xff,0xff,0xff,0x6f,0xff,0xb1,0xff,
 0xff,0xff,0xff,0xff,0xb9,0xff,0xff,0xff,0xef,0xff,0xf7,0xff,0xff,0xff,0xff,
 0xff,0xeb,0xff,0xff,0xff,0xdf,0xff,0xf7,0xff,0xff,0xff,0xff,0xff,0xff,0xff,
 0xff,0xff,0xff,0xff,0xff,0xff,0xff,0xff,0xff,0xff,0xff,0xff,0xff,0xff,0xff,
 0xff,0xff,0xff,0xff,0xff,0xff,0xff,0xff,0xff,0xff,0xff,0xff,0xff,0xf6,0xff,
 0xff,0xff,0xdf,0xff,0xe5,0xff,0xff,0xff,0xdb,0xff,0xe4,0xff,0xff,0xff,0xdb,
 0xff,0xe0,0xff,0xff,0xff,0xaf,0x7f,0xc0,0xff,0xff,0xff,0xb2,0x1f,0xa0,0xff,
 0xff,0xff,0x9b,0xff,0xc4,0xff,0xff,0xff,0xfb,0xff,0xe4,0xff,0xff,0xff,0x5f,
 0xff,0xca,0xff,0xff,0xff,0xfb,0xff,0xdc,0xff,0xff,0xff,0x7f,0xff,0xcc,0xff,
 0xff,0xff,0xfb,0xff,0xbe,0xff,0xff,0xff,0xff,0xff,0xff,0xff,0xff,0xff,0xff,
 0xff,0xff,0xff,0xff,0xff,0xff,0xff,0xff,0xff,0xff,0xff,0xff,0xff,0xff,0xff,
 0xff,0xff,0xff,0xff,0xfb,0xff,0xff,0xff,0xef,0xff,0xf9,0xff,0xff,0xff,0xef,
 0xff,0xf1,0xff,0xff,0xff,0x65,0x3f,0x80,0xff,0xff,0xff,0xb5,0x3f,0xc8,0xff,
 0xff,0xff,0x6e,0x3f,0x89,0xff,0xff,0xff,0xab,0x3f,0x80,0xff,0xff,0xff,0xed,
 0x3e,0xc0,0xff,0xff,0xff,0xef,0xff,0xd9,0xff,0xff,0xff,0xf7,0xff,0xf9,0xff,
 0xff,0xff,0xef,0xff,0xf9,0xff,0xff,0xff,0xff,0xff,0xfb,0xff,0xff,0xff,0xff,
 0xff,0xff,0xff,0xff,0xff,0xff,0xff,0xff,0xff,0xff,0xff,0xff,0xff,0xff,0xff,
 0xff,0xff,0xff,0xff,0xff,0xff,0xff,0xff,0xff,0xff,0xf7,0xff,0xff,0xff,0xdf,
 0xff,0xc7,0xff,0xff,0xff,0xbf,0xff,0xc7,0xff,0xff,0xff,0x7f,0xff,0xcf,0xff,
 0xff,0xff,0xbf,0xff,0xc7,0xff,0xff,0xff,0xaf,0xff,0x83,0xff,0xff,0xff,0xbf,
 0xff,0xc7,0xff,0xff,0xff,0x5f,0xff,0x87,0xff,0xff,0xff,0xff,0xfe,0x85,0xff,
 0xff,0xff,0x5f,0xff,0xc2,0xff,0xff,0xff,0xeb,0xbf,0x88,0xff,0xff,0xff,0xff,
 0xff,0xfe,0xff,0xff,0xff,0xff,0xff,0xff,0xff,0xff,0xff,0xff,0xff,0xff,0xff,
 0xff,0xff,0xff,0xff,0xff,0xff,0xff,0xff,0xff,0xff,0xff,0xff,0xff,0xff,0xff,
 0xff,0xfb,0xff,0xff,0xff,0xef,0xff,0xf9,0xff,0xff,0xff,0xeb,0x7f,0xe0,0xff,
 0xff,0xff,0x4d,0x3f,0x80,0xff,0xff,0xff,0xea,0x3f,0xe1,0xff,0xff,0xff,0xbf,
 0x3f,0xea,0xff,0xff,0xff,0xdd,0x3f,0xe7,0xff,0xff,0xff,0xfb,0x7f,0xe2,0xff,
 0xff,0xff,0xdf,0xff,0xf4,0xff,0xff,0xff,0xf3,0xff,0xd8,0xff,0xff,0xff,0x7f,
 0xff,0xdc,0xff,0xff,0xff,0xff,0xff,0xff,0xff,0xff,0xff,0xff,0xff,0xff,0xff,
 0xff,0xff,0xff,0xff,0xff,0xff,0xff,0xff,0xff,0xff,0xff,0xff,0xff,0xff,0xff,
 0xff,0xff,0xff,0xff,0xff,0xff,0xff,0xff,0xff,0xff,0xff,0xff,0x7f,0xde,0xff,
 0xff,0xff,0x7d,0x3f,0x9b,0xff,0xff,0xff,0xfe,0x3f,0xce,0xff,0xff,0xff,0x7d,
 0x3f,0x9f,0xff,0xff,0xff,0xff,0x3f,0xae,0xff,0xff,0xff,0xba,0x3e,0x9f,0xff,
 0xff,0xff,0xff,0x3f,0xca,0xff,0xff,0xff,0x5a,0x7f,0x8a,0xff,0xff,0xff,0xff,
 0x3f,0x9f,0xff,0xff,0xff,0xff,0xff,0xff,0xff,0xff,0xff,0xff,0xff,0xff,0xff,
 0xff,0xff,0xff,0xff,0xff,0xff,0xff,0xff,0xff,0xff,0xff,0xff,0xff,0xff,0xff,
 0xff,0xff,0xff,0xff,0xff,0xff,0xff,0xff,0xff,0xff,0xff,0xff,0x7f,0xed,0xff,
 0xff,0xff,0x52,0x3f,0x00,0xff,0xff,0xff,0xbf,0x7f,0xc0,0xff,0xff,0xff,0xd7,
 0xff,0xe2,0xff,0xff,0xff,0xdf,0xff,0xe7,0xff,0xff,0xff,0xdf,0xff,0xe7,0xff,
 0xff,0xff,0xff,0xff,0xf7,0xff,0xff,0xff,0xdf,0xff,0xe7,0xff,0xff,0xff,0xff,
 0xff,0xff,0xff,0xff,0xff,0xff,0xff,0xdf,0xff,0xff,0xff,0xff,0xff,0xff,0xff,
 0xff,0xff,0xff,0xff,0xff,0xff,0xff,0xff,0xff,0xff,0xff,0xff,0xff,0xff,0xff,
 0xff,0xff,0xff,0xff,0xff,0xff,0xff,0xff,0xff,0xff,0xff,0xff,0xff,0xc9,0xff,
 0xff,0xff,0x6f,0xff,0x99,0xff,0xff,0xff,0xb7,0xff,0x89,0xff,0xff,0xff,0xd7,
 0x7e,0x01,0xff,0xff,0xff,0xaf,0xfe,0x88,0xff,0xff,0xff,0x77,0xff,0x29,0xff,
 0xff,0xff,0xef,0xff,0xc9,0xff,0xff,0xff,0xff,0xfe,0x91,0xff,0xff,0xff,0x6f,
 0xff,0x99,0xff,0xff,0xff,0xaf,0xff,0xc9,0xff,0xff,0xff,0x7f,0xff,0x81,0xff,
 0xff,0xff,0xef,0xff,0xdb,0xff,0xff,0xff,0xff,0xff,0xff,0xff,0xff,0xff,0xff,
 0xff,0xff,0xff,0xff,0xff,0xff,0xff,0xff,0xff,0xff,0xff,0xff,0xff,0xff,0xff,
 0xff,0xff,0xff,0x3f,0xfe,0xff,0xff,0xff,0xda,0x7f,0x85,0xff,0xff,0xff,0x6f,
 0x7e,0x01,0xff,0xff,0xff,0xb7,0xff,0x48,0xff,0xff,0xff,0xff,0xfe,0xba,0xff,
 0xff,0xff,0xf5,0x7f,0x58,0xff,0xff,0xff,0xfb,0x7e,0x3a,0xff,0xff,0xff,0xef,
 0x3f,0x3b,0xff,0xff,0xff,0xff,0xfe,0x39,0xff,0xff,0xff,0xef,0xff,0x93,0xff,
 0xff,0xff,0xbf,0xfe,0x83,0xff,0xff,0xff,0xff,0xff,0xef,0xff,0xff,0xff,0xff,
 0xff,0xff,0xff,0xff,0xff,0xff,0xff,0xff,0xff,0xff,0xff,0xff,0xff,0xff,0xff,
 0xff,0xff,0xff,0xff,0xff,0xff,0xff,0xff,0xff,0xff,0xfd,0xff,0xff,0xff,0xf7,
 0xff,0xba,0xff,0xff,0xff,0xef,0xfe,0x19,0xff,0xff,0xff,0x7f,0xff,0xc9,0xff,
 0xff,0xff,0xd7,0xff,0x91,0xff,0xff,0xff,0xaf,0xff,0xe3,0xff,0xff,0xff,0xdf,
 0xff,0xe1,0xff,0xff,0xff,0xaf,0xff,0xc1,0xff,0xff,0xff,0x75,0x7f,0xc0,0xff,
 0xff,0xff,0xff,0x7f,0x9c,0xff,0xff,0xff,0xfd,0x7f,0xff,0xff,0xff,0xff,0xff,
 0xff,0xff,0xff,0xff,0xff,0xff,0xff,0xff,0xff,0xff,0xff,0xff,0xff,0xff,0xff,
 0xff,0xff,0xff,0xff,0xff,0xff,0xff,0xff,0xff,0xff,0xff,0xff,0xff,0xff,0xff,
 0xff,0xff,0xff,0xff,0xff,0xfd,0x1f,0xfe,0xff,0xff,0xff,0xfb,0x3f,0xfe,0xff,
 0xff,0xff,0xfd,0x7f,0xfc,0xff,0xff,0xff,0xfb,0x7f,0x3c,0xff,0xff,0xff,0x77,
 0xff,0xac,0xff,0xff,0xff,0xfb,0xff,0xda,0xff,0xff,0xff,0xef,0xff,0xf9,0xff,
 0xff,0xff,0xf7,0xff,0xf1,0xff,0xff,0xff,0xdf,0xff,0xf7,0xff,0xff,0xff,0xff,
 0xff,0xd7,0xff,0xff,0xff,0x7f,0xff,0xdf,0xff,0xff,0xff,0xff,0xff,0xff,0xff,
 0xff,0xff,0xff,0xff,0xff,0xff,0xff,0xff,0xff,0xff,0xff,0xff};
