#define matrix1b_width 160
#define matrix1b_height 182
static unsigned char matrix1b_bits[] = {
   0xff, 0xff, 0xff, 0xff, 0xff, 0xff, 0xff, 0xff, 0xff, 0xff, 0xff, 0xff,
   0xff, 0xff, 0xff, 0xff, 0xff, 0xff, 0xff, 0xff, 0xff, 0xff, 0xff, 0xff,
   0xff, 0xff, 0xff, 0xff, 0xff, 0xff, 0xff, 0xff, 0xff, 0xff, 0xff, 0xff,
   0xff, 0xff, 0xff, 0xff, 0xff, 0x7f, 0xff, 0xff, 0xf7, 0xef, 0xff, 0xff,
   0xff, 0xff, 0xdf, 0x7f, 0xff, 0xfd, 0xff, 0xff, 0xff, 0xff, 0xff, 0xdf,
   0xff, 0x7f, 0xff, 0xfa, 0xef, 0x9f, 0xbf, 0xff, 0xff, 0xf7, 0xff, 0xff,
   0xff, 0xfd, 0xff, 0xff, 0xff, 0xff, 0xff, 0xff, 0xff, 0x3f, 0x7f, 0xfb,
   0xd1, 0xf7, 0xff, 0xff, 0xfe, 0xff, 0xef, 0x7f, 0x7f, 0xfc, 0xf7, 0xff,
   0xff, 0xff, 0xff, 0xef, 0xff, 0x7f, 0x7f, 0xff, 0xeb, 0xd7, 0x5f, 0xff,
   0xfd, 0xff, 0xef, 0xff, 0xfe, 0xf9, 0xf7, 0xff, 0xff, 0xff, 0xff, 0xff,
   0xff, 0x3f, 0xff, 0xff, 0xeb, 0x6f, 0xff, 0x7f, 0xff, 0xff, 0xef, 0xff,
   0xfe, 0xfc, 0xf5, 0xff, 0xff, 0xff, 0xff, 0xf7, 0xff, 0x7f, 0xff, 0xff,
   0xd5, 0xbf, 0x5f, 0xff, 0xfa, 0xff, 0xef, 0xff, 0xfe, 0xfb, 0xc1, 0xff,
   0x1f, 0xfc, 0xff, 0xff, 0xff, 0xff, 0xff, 0xff, 0xe5, 0xd7, 0xbf, 0x7e,
   0xfd, 0xff, 0xff, 0xff, 0xff, 0xff, 0xf7, 0xff, 0xff, 0xff, 0xff, 0xfd,
   0xff, 0xff, 0xff, 0xff, 0xed, 0x37, 0xff, 0xff, 0xf2, 0xff, 0xef, 0xff,
   0xfe, 0xff, 0xf7, 0xff, 0xff, 0xff, 0xff, 0xfd, 0xff, 0x7f, 0xff, 0xff,
   0xf5, 0xcf, 0xbf, 0xbe, 0xfa, 0xff, 0xff, 0xbf, 0xff, 0xff, 0xf7, 0xdf,
   0xff, 0xff, 0xff, 0xff, 0xff, 0xff, 0xff, 0xff, 0xff, 0xff, 0xff, 0xff,
   0xf6, 0xff, 0xdf, 0xff, 0xff, 0xff, 0xff, 0xff, 0xff, 0xff, 0xfd, 0xfe,
   0xff, 0xff, 0xff, 0xff, 0xf5, 0xff, 0xff, 0xff, 0xff, 0xff, 0xff, 0xff,
   0xff, 0xff, 0xff, 0xff, 0xff, 0xff, 0xff, 0xff, 0xff, 0xff, 0xff, 0xff,
   0xff, 0xff, 0xff, 0xff, 0xff, 0xff, 0xff, 0xff, 0xff, 0xff, 0xff, 0xff,
   0xff, 0xff, 0xff, 0xff, 0xff, 0xff, 0xff, 0xff, 0xff, 0xff, 0xff, 0xff,
   0xff, 0xff, 0xff, 0xff, 0xff, 0xff, 0xff, 0xff, 0xff, 0xff, 0xff, 0xff,
   0xff, 0xff, 0xff, 0xff, 0xff, 0xff, 0xff, 0xff, 0xff, 0xff, 0xff, 0xff,
   0xff, 0xff, 0xff, 0xff, 0xff, 0xff, 0xff, 0xff, 0xaf, 0x9f, 0x7f, 0xfd,
   0xeb, 0x5f, 0x9f, 0xfe, 0xf5, 0xea, 0xd7, 0x5f, 0xff, 0xff, 0xff, 0xff,
   0xff, 0xff, 0xff, 0xfb, 0xbf, 0x3f, 0xff, 0xf2, 0xd7, 0xbf, 0xbf, 0xff,
   0xfc, 0xdf, 0x2f, 0x7f, 0xfd, 0xff, 0xff, 0xff, 0xff, 0xff, 0xff, 0xeb,
   0xeb, 0x7f, 0xff, 0xff, 0xfd, 0xaf, 0xdf, 0x7e, 0xff, 0xeb, 0xfb, 0xdf,
   0xfd, 0xff, 0xff, 0x5f, 0xff, 0xbf, 0xff, 0xf6, 0x7f, 0x7f, 0xff, 0xf7,
   0xcf, 0x6f, 0x9f, 0x7e, 0xfa, 0xff, 0x57, 0xdf, 0xfd, 0xfd, 0xef, 0xff,
   0xdf, 0x7e, 0xfd, 0xef, 0xfb, 0x7f, 0xff, 0xf9, 0xf7, 0xbf, 0x7f, 0xfd,
   0xfa, 0xef, 0xcf, 0xbf, 0xfe, 0xfe, 0xff, 0xf3, 0xbf, 0xff, 0xfb, 0xf7,
   0xb7, 0x7e, 0xff, 0xfd, 0xd7, 0x67, 0xff, 0x7d, 0xf3, 0xff, 0x5f, 0xbf,
   0xfc, 0xff, 0xff, 0xe7, 0x6f, 0xfd, 0xf3, 0xf7, 0xff, 0x7f, 0xff, 0xfe,
   0xff, 0x97, 0xff, 0x7e, 0xf7, 0xf7, 0x7b, 0xbf, 0xfe, 0xff, 0xff, 0xdf,
   0xbf, 0xfe, 0xfe, 0xfb, 0x6b, 0x7f, 0x7f, 0xfd, 0xaf, 0x3f, 0xfe, 0xfd,
   0xf6, 0xff, 0xeb, 0xff, 0xfc, 0xff, 0xff, 0xbb, 0xff, 0xfd, 0xfa, 0xff,
   0xdf, 0x5f, 0xbf, 0xf6, 0xea, 0xaf, 0xaf, 0x7e, 0xfb, 0xfb, 0xaf, 0x5e,
   0xff, 0xfd, 0xf7, 0x7f, 0xff, 0xff, 0xff, 0xf7, 0xbf, 0x7f, 0xfd, 0xfe,
   0xff, 0xbf, 0xbf, 0xff, 0xfa, 0xfb, 0xdf, 0xff, 0xff, 0xff, 0xef, 0xff,
   0xff, 0xdf, 0xff, 0xff, 0xff, 0xff, 0xff, 0xfb, 0xfb, 0xff, 0xff, 0xff,
   0xff, 0xff, 0xff, 0x7f, 0xff, 0xff, 0xfb, 0xff, 0xff, 0xff, 0xff, 0xff,
   0xff, 0xff, 0xff, 0xff, 0xff, 0xff, 0xff, 0xff, 0xff, 0xff, 0xff, 0xff,
   0xff, 0xff, 0xff, 0xff, 0xff, 0xff, 0xff, 0xff, 0xff, 0xff, 0xff, 0xff,
   0xff, 0xff, 0xff, 0xff, 0xff, 0xff, 0xff, 0xff, 0xff, 0xff, 0xff, 0xff,
   0xff, 0xff, 0xff, 0xff, 0xff, 0xff, 0xff, 0xff, 0xff, 0xff, 0xff, 0xff,
   0xff, 0xff, 0xff, 0xff, 0xff, 0xff, 0xff, 0xff, 0xff, 0xff, 0xff, 0xff,
   0xd7, 0xdf, 0xbf, 0xff, 0xfb, 0xdb, 0xaf, 0x7e, 0xfd, 0xf7, 0xf7, 0xdf,
   0xff, 0xfa, 0xfd, 0xf7, 0xef, 0xff, 0xfb, 0xff, 0xaf, 0x3f, 0x7f, 0xf4,
   0xab, 0x77, 0xbf, 0x7d, 0xf3, 0xd5, 0xb7, 0x3e, 0xfe, 0xf5, 0xd5, 0xcf,
   0xdf, 0x59, 0xf7, 0xea, 0x9f, 0x5f, 0xbf, 0xf7, 0xde, 0x5d, 0x6f, 0xfd,
   0xfe, 0xde, 0x7b, 0xbf, 0xff, 0xff, 0xee, 0xf7, 0xcf, 0xbe, 0xf5, 0xdf,
   0xbb, 0xff, 0x7e, 0xf5, 0xfe, 0x7b, 0xef, 0xde, 0xf5, 0xfe, 0x6b, 0xbf,
   0xff, 0xf5, 0xf5, 0xef, 0x9f, 0xb9, 0xf6, 0xdc, 0x97, 0x5f, 0x7f, 0xf3,
   0xfe, 0xff, 0x5f, 0x7f, 0x7f, 0xdf, 0xaf, 0xbf, 0xff, 0xff, 0xf1, 0xff,
   0x4f, 0x7c, 0x75, 0xff, 0x57, 0xff, 0xfe, 0xf6, 0xfe, 0xfb, 0x1e, 0x7e,
   0xf8, 0xfc, 0x77, 0x3f, 0xff, 0xff, 0xe5, 0xef, 0x5f, 0xfd, 0xf2, 0xee,
   0xaf, 0x0f, 0xbd, 0x7b, 0xff, 0x77, 0xff, 0xff, 0xff, 0xce, 0xdb, 0xff,
   0xff, 0xfd, 0xfb, 0xf7, 0xef, 0xdd, 0xf5, 0xbe, 0x77, 0xdf, 0x7d, 0xf7,
   0xfd, 0x7f, 0x5f, 0xbd, 0xfe, 0xdd, 0xbb, 0x3e, 0xbf, 0xfb, 0xd6, 0xaf,
   0xae, 0xb9, 0xf3, 0xef, 0xef, 0xaf, 0x3c, 0xf5, 0xab, 0xa9, 0xef, 0x7e,
   0xff, 0xeb, 0x77, 0xdf, 0x5f, 0xfd, 0xfe, 0x67, 0xef, 0xbd, 0xfb, 0xda,
   0x9f, 0xef, 0xfd, 0xfd, 0xfb, 0xef, 0xaf, 0xbd, 0xfe, 0xff, 0xef, 0x5f,
   0xfe, 0xfd, 0xad, 0x5f, 0xdf, 0x7f, 0xf7, 0xfb, 0xff, 0xff, 0xff, 0xff,
   0xff, 0xff, 0xff, 0xff, 0xff, 0xf7, 0x7f, 0xff, 0xff, 0xff, 0xff, 0xff,
   0xff, 0xff, 0xff, 0xff, 0xff, 0xff, 0xff, 0xff, 0xff, 0xff, 0xff, 0xff,
   0xff, 0xff, 0xff, 0xff, 0xff, 0xff, 0xff, 0xff, 0xff, 0xff, 0xff, 0xff,
   0xff, 0xff, 0xff, 0xff, 0xff, 0xff, 0xff, 0xff, 0xff, 0xff, 0xff, 0xff,
   0xff, 0xff, 0xff, 0xff, 0xff, 0xff, 0xff, 0xff, 0xff, 0xff, 0xff, 0xff,
   0xff, 0xff, 0xff, 0xff, 0xff, 0xff, 0xff, 0xff, 0xff, 0xff, 0xff, 0xff,
   0x7f, 0xff, 0xff, 0xff, 0xeb, 0xbf, 0xbf, 0xfa, 0xeb, 0xab, 0xef, 0xbe,
   0xfb, 0xde, 0xbb, 0xef, 0x7e, 0xf5, 0xf9, 0xf7, 0x7f, 0xff, 0xfd, 0xff,
   0x87, 0x3f, 0x7d, 0xfa, 0xcb, 0x03, 0xcf, 0x7d, 0xe7, 0x9a, 0x33, 0xde,
   0xf8, 0xf4, 0xfb, 0xff, 0x7f, 0xfe, 0xfd, 0xff, 0x7b, 0xef, 0x9e, 0xff,
   0xee, 0x6d, 0xef, 0xbc, 0xf7, 0xda, 0x77, 0xaf, 0xbd, 0xf3, 0xfb, 0xf7,
   0x7f, 0xff, 0xff, 0xff, 0xff, 0xee, 0x7d, 0xf3, 0xdd, 0x4f, 0xff, 0x7d,
   0xff, 0xd2, 0xaf, 0x7f, 0x7f, 0xff, 0xfb, 0xef, 0xff, 0xfe, 0xfa, 0xff,
   0xb7, 0xf7, 0xfb, 0xfa, 0xf5, 0xeb, 0xef, 0xbd, 0xf7, 0xd4, 0xd7, 0x3f,
   0xff, 0xf5, 0xfb, 0xff, 0x7f, 0xff, 0xff, 0xff, 0x87, 0xef, 0xbf, 0xfa,
   0xcd, 0xcf, 0xef, 0xfd, 0xfe, 0x95, 0xaf, 0x7f, 0xfe, 0xfd, 0xfb, 0xdf,
   0x7f, 0xff, 0xff, 0xff, 0x77, 0xaf, 0x7d, 0xfd, 0xe7, 0xff, 0xff, 0xfc,
   0xfd, 0xcc, 0xbf, 0x7f, 0xff, 0xfe, 0xfd, 0xff, 0xff, 0xfe, 0xff, 0xff,
   0xef, 0x3f, 0xbd, 0xea, 0xde, 0xcf, 0xdf, 0xfd, 0xfa, 0xed, 0x67, 0x7f,
   0xff, 0xf4, 0xfb, 0xbf, 0x7f, 0xff, 0xff, 0xff, 0xf3, 0x5f, 0xbe, 0x7b,
   0xea, 0xef, 0xef, 0xfe, 0xfd, 0xdd, 0x3b, 0x3f, 0x7f, 0xeb, 0xfb, 0x7f,
   0x7f, 0xff, 0xff, 0xff, 0xef, 0xdf, 0x7c, 0xf7, 0xef, 0xdf, 0xbf, 0xff,
   0xfd, 0xff, 0x77, 0x7f, 0x7f, 0xff, 0xf7, 0xff, 0xff, 0xfe, 0xff, 0xd4,
   0xff, 0xff, 0xff, 0xff, 0xff, 0xff, 0xff, 0xff, 0xff, 0xff, 0xff, 0xff,
   0xff, 0xff, 0xff, 0xff, 0xff, 0xff, 0xff, 0xff, 0xff, 0xff, 0xff, 0xff,
   0xff, 0xff, 0xff, 0xff, 0xff, 0xff, 0xff, 0xff, 0xff, 0xff, 0xff, 0xff,
   0xff, 0xff, 0xff, 0xff, 0xff, 0xff, 0xff, 0xff, 0xff, 0xff, 0xff, 0xff,
   0xff, 0xff, 0xff, 0xff, 0xff, 0xff, 0xff, 0xff, 0xff, 0xff, 0xff, 0xff,
   0xff, 0xff, 0xff, 0xff, 0xff, 0xff, 0xff, 0xff, 0xff, 0xff, 0xff, 0xff,
   0xff, 0xff, 0xff, 0xff, 0xff, 0xff, 0xff, 0xff, 0xff, 0xff, 0xbf, 0xff,
   0xff, 0xbf, 0xff, 0xff, 0xfa, 0xff, 0xfb, 0xbf, 0xff, 0xfe, 0xfe, 0xe7,
   0xff, 0xff, 0xff, 0xff, 0xdf, 0xff, 0xbf, 0xff, 0xff, 0xbf, 0xff, 0xff,
   0xfa, 0xff, 0xf7, 0x7f, 0xff, 0xfa, 0xfd, 0xcf, 0xff, 0xff, 0xff, 0xff,
   0xef, 0xff, 0x7f, 0xff, 0xff, 0x7f, 0xff, 0xff, 0xfe, 0xfb, 0xff, 0xff,
   0xff, 0xff, 0xff, 0xdf, 0xdf, 0xff, 0xff, 0xff, 0xff, 0x5f, 0xfe, 0xf0,
   0xc5, 0x8b, 0xaf, 0x7e, 0xf4, 0xc7, 0x85, 0x5f, 0xff, 0xf8, 0xea, 0xdf,
   0x1f, 0xbc, 0xfa, 0xf5, 0xff, 0x1f, 0x3f, 0x7b, 0xed, 0x77, 0x4f, 0x7d,
   0x7b, 0xd5, 0xb7, 0xbf, 0xff, 0xfd, 0xeb, 0xdf, 0x47, 0x5e, 0x7b, 0xd5,
   0xff, 0xff, 0x7e, 0x67, 0xdd, 0xd5, 0xcf, 0xfc, 0xfe, 0xed, 0x77, 0x7f,
   0xff, 0xfb, 0xe3, 0xdf, 0xff, 0x7a, 0xf7, 0xde, 0xff, 0x0f, 0xfe, 0xf7,
   0xfe, 0x7b, 0x2f, 0xfe, 0x7f, 0xd6, 0xbf, 0xbf, 0xff, 0xfb, 0xf9, 0xdf,
   0x5f, 0xff, 0xfd, 0xee, 0xff, 0xff, 0xbc, 0xf6, 0xfc, 0xdb, 0xcf, 0xfd,
   0xfe, 0xeb, 0x77, 0x7f, 0xff, 0xfb, 0xe7, 0xdf, 0xff, 0xba, 0xeb, 0xdd,
   0xff, 0xcf, 0x7e, 0xf5, 0xeb, 0x9b, 0x6f, 0xbe, 0xfe, 0xdd, 0xbb, 0x3f,
   0xff, 0xff, 0xed, 0xcf, 0x4f, 0xbf, 0x77, 0xd5, 0xff, 0x9f, 0x7d, 0xfb,
   0xd7, 0x37, 0xdf, 0xfe, 0xfa, 0xfb, 0x73, 0x7f, 0x7d, 0xfd, 0xdd, 0x9f,
   0xff, 0xba, 0xf6, 0xf7, 0xff, 0xff, 0xff, 0xff, 0xff, 0xff, 0xff, 0xff,
   0xff, 0xf7, 0xff, 0xbf, 0xff, 0xff, 0xff, 0xff, 0xdf, 0xff, 0xff, 0xff,
   0xff, 0xff, 0xff, 0xff, 0xff, 0xff, 0xff, 0xff, 0xff, 0xff, 0xff, 0xff,
   0xff, 0xff, 0xff, 0xff, 0xff, 0xff, 0xff, 0xff, 0xff, 0xff, 0xff, 0xff,
   0xff, 0xff, 0xff, 0xff, 0xff, 0xff, 0xff, 0xff, 0xff, 0xff, 0xff, 0xff,
   0xff, 0xff, 0xff, 0xff, 0xff, 0xff, 0xff, 0xff, 0xff, 0xff, 0xff, 0xff,
   0xff, 0xff, 0xff, 0xff, 0xff, 0xff, 0xff, 0xff, 0xff, 0xff, 0xff, 0xff,
   0xff, 0xff, 0xff, 0xff, 0xff, 0xff, 0xff, 0xff, 0xff, 0xff, 0xff, 0xff,
   0xff, 0xff, 0xff, 0xdf, 0xff, 0xff, 0xff, 0xff, 0xff, 0xff, 0xff, 0xff,
   0xff, 0xff, 0xff, 0xff, 0xff, 0xff, 0xff, 0xff, 0xff, 0xff, 0xf3, 0xdf,
   0x7f, 0xff, 0xff, 0xff, 0xff, 0xff, 0xff, 0xff, 0xff, 0xeb, 0xff, 0xff,
   0xff, 0xff, 0xff, 0xff, 0xff, 0xfe, 0xff, 0xdf, 0xbf, 0xff, 0xff, 0xff,
   0x93, 0x3f, 0xbc, 0xf4, 0xd3, 0x87, 0x6f, 0x3d, 0xe2, 0x9a, 0x13, 0x6f,
   0xf9, 0xf0, 0xf3, 0xdf, 0x7f, 0xff, 0xff, 0xff, 0x73, 0xe7, 0x7e, 0xfb,
   0xf9, 0xfb, 0xe7, 0xbf, 0xf7, 0xce, 0xf7, 0xe7, 0xbc, 0xfb, 0xfb, 0xdf,
   0x7f, 0xff, 0xfe, 0xff, 0x6f, 0xcf, 0x7d, 0xfe, 0xd3, 0xef, 0x6f, 0xfd,
   0xfd, 0xb5, 0x8f, 0xaf, 0x7f, 0xfd, 0xf3, 0xdf, 0x7f, 0x7e, 0xf1, 0xff,
   0xb3, 0xbe, 0xfe, 0xff, 0xe9, 0xf7, 0xff, 0x7f, 0xfb, 0xea, 0xe7, 0xbf,
   0xfe, 0xfa, 0xff, 0xdf, 0xff, 0xbf, 0xff, 0xff, 0xd7, 0x7f, 0x7d, 0xfe,
   0xdf, 0xef, 0x6f, 0xfd, 0xf6, 0xcb, 0xcf, 0xbf, 0xff, 0xfe, 0xf3, 0xdf,
   0x7f, 0xff, 0xff, 0xff, 0xf7, 0xff, 0xbe, 0xff, 0xd5, 0xaf, 0xdf, 0xfc,
   0xfd, 0xfd, 0xb7, 0xdf, 0x7f, 0xf5, 0xff, 0xff, 0xbf, 0xff, 0xff, 0xff,
   0xeb, 0xff, 0x7d, 0xfa, 0xeb, 0xbf, 0xbf, 0xfd, 0xff, 0xef, 0x7b, 0x9f,
   0x7f, 0xf9, 0xfb, 0xff, 0x7f, 0xff, 0xff, 0xff, 0xf7, 0x7f, 0xfd, 0xff,
   0xff, 0xff, 0xff, 0xff, 0xff, 0xff, 0xff, 0xef, 0xff, 0xff, 0xff, 0xff,
   0xff, 0xff, 0xff, 0xff, 0xff, 0xff, 0xff, 0xff, 0xff, 0xff, 0xff, 0xff,
   0xff, 0xff, 0xff, 0xff, 0xff, 0xff, 0xff, 0xff, 0xff, 0xff, 0xff, 0xff,
   0xff, 0xff, 0xff, 0xff, 0xff, 0xff, 0xff, 0xff, 0xff, 0xff, 0xff, 0xff,
   0xff, 0xff, 0xff, 0xff, 0xff, 0xff, 0xff, 0xff, 0xff, 0xff, 0xff, 0xff,
   0xff, 0xff, 0xff, 0xff, 0xff, 0xff, 0xff, 0xff, 0xff, 0xff, 0xff, 0xff,
   0xff, 0xff, 0xff, 0xff, 0x8b, 0xff, 0xff, 0xfd, 0xf7, 0xff, 0xff, 0xfd,
   0xfe, 0xe9, 0xff, 0x7f, 0xff, 0xff, 0xff, 0xff, 0xff, 0xff, 0xfe, 0xff,
   0x01, 0xff, 0xff, 0xfd, 0xe7, 0xff, 0x4f, 0xfd, 0xfd, 0xeb, 0xff, 0x5f,
   0xfe, 0xfa, 0xff, 0xff, 0xff, 0xff, 0xf8, 0xf7, 0x83, 0xff, 0x7f, 0xfa,
   0xfd, 0x57, 0xdf, 0xfe, 0xfe, 0xfd, 0xff, 0x8f, 0xfa, 0xfb, 0xff, 0xff,
   0xff, 0x3f, 0xea, 0xfb, 0x01, 0xff, 0xff, 0xfb, 0xfb, 0xb7, 0xbf, 0xfc,
   0xfd, 0xe9, 0xff, 0xbf, 0xfe, 0xfa, 0xf7, 0x4b, 0xff, 0x7f, 0xfa, 0xff,
   0x83, 0xff, 0xbf, 0xfe, 0xfe, 0x6f, 0x9f, 0xfe, 0x7e, 0xea, 0xff, 0xcf,
   0x7d, 0xfb, 0xdd, 0x97, 0xff, 0xff, 0xea, 0xff, 0x03, 0x7f, 0xff, 0xff,
   0xf1, 0x6f, 0x3f, 0xff, 0xff, 0xca, 0xff, 0x1f, 0xfb, 0xfa, 0xeb, 0x7f,
   0x2f, 0xbd, 0xfc, 0xff, 0x81, 0xff, 0x7f, 0xfd, 0xfd, 0xbb, 0x3f, 0xff,
   0xfe, 0xf7, 0xff, 0x4f, 0xfe, 0x7c, 0xea, 0xbf, 0xff, 0x7f, 0xeb, 0xff,
   0x03, 0x3f, 0xfe, 0xf9, 0xea, 0x57, 0x7f, 0xfe, 0xfd, 0xcf, 0xff, 0xdf,
   0xfd, 0xfb, 0xdd, 0xff, 0xff, 0xff, 0xfa, 0xff, 0x81, 0x3f, 0xff, 0xfe,
   0xa8, 0xff, 0x3f, 0xff, 0xfe, 0xf2, 0xff, 0x3f, 0xff, 0xff, 0xeb, 0xff,
   0xff, 0x7f, 0xfd, 0xff, 0x01, 0x7f, 0xff, 0xfd, 0xeb, 0xff, 0x7f, 0xfe,
   0xfe, 0xfd, 0xff, 0x7f, 0xff, 0xff, 0xff, 0xff, 0xff, 0xff, 0xfd, 0xff,
   0x9b, 0xff, 0xff, 0xff, 0xff, 0xff, 0xff, 0xff, 0xff, 0xff, 0xff, 0xff,
   0xff, 0xff, 0xff, 0xff, 0xff, 0xff, 0xff, 0xff, 0xff, 0xff, 0xff, 0xff,
   0xff, 0xff, 0xff, 0xff, 0xff, 0xff, 0xff, 0xff, 0xff, 0xff, 0xff, 0xff,
   0xff, 0xff, 0xff, 0xff, 0xff, 0xff, 0xff, 0xff, 0xff, 0xff, 0xff, 0xff,
   0xff, 0xff, 0xff, 0xff, 0xff, 0xff, 0xff, 0xff, 0xff, 0xff, 0xff, 0xff,
   0xff, 0xff, 0xff, 0xff, 0xff, 0xff, 0xff, 0xff, 0xfe, 0xff, 0xff, 0xff,
   0xff, 0xff, 0xff, 0xfb, 0xef, 0xbf, 0xff, 0xff, 0xef, 0xff, 0xff, 0xfd,
   0xfb, 0xff, 0xff, 0xff, 0xe9, 0xff, 0xff, 0x7f, 0xff, 0xff, 0xff, 0xf7,
   0xff, 0xff, 0xfe, 0xff, 0xdf, 0x7f, 0xff, 0xff, 0xf7, 0xff, 0xff, 0x3f,
   0xf9, 0xff, 0xff, 0x7f, 0xff, 0xfd, 0xff, 0xf7, 0xef, 0xbe, 0xff, 0xff,
   0xf7, 0x3f, 0xff, 0xfe, 0xf3, 0xef, 0xff, 0x3f, 0xfd, 0xff, 0xff, 0x7f,
   0x7f, 0xff, 0xff, 0xff, 0xf6, 0x7b, 0xed, 0xff, 0xdf, 0x7f, 0xfe, 0xfd,
   0xff, 0xff, 0xdf, 0x7d, 0xf4, 0xff, 0xff, 0x7f, 0xff, 0xfa, 0xff, 0xd7,
   0x5f, 0xff, 0xfd, 0xf7, 0xff, 0x0f, 0xfd, 0xfe, 0xfa, 0xff, 0xef, 0xfe,
   0xfc, 0xf7, 0xff, 0x3f, 0xff, 0xff, 0xf2, 0xbd, 0x76, 0x5d, 0xfb, 0xff,
   0xff, 0x7f, 0xfd, 0xff, 0xf7, 0xff, 0xdf, 0xfd, 0xf5, 0xf7, 0xff, 0xff,
   0x7f, 0xf9, 0xcf, 0x77, 0xdf, 0xfb, 0xf2, 0xf7, 0xff, 0x7f, 0xff, 0xff,
   0xff, 0xff, 0xef, 0xff, 0xfc, 0xff, 0xff, 0xff, 0xff, 0xfc, 0xca, 0x5f,
   0x7f, 0xff, 0xf6, 0xfd, 0xff, 0xff, 0xff, 0xff, 0xff, 0xff, 0xaf, 0xf8,
   0xf1, 0xff, 0xef, 0xff, 0xff, 0xfb, 0xef, 0x77, 0xee, 0xfd, 0xf5, 0xfb,
   0xff, 0x5f, 0xff, 0xff, 0xff, 0xff, 0x9f, 0xff, 0xfa, 0xff, 0xef, 0xff,
   0xff, 0xff, 0xfa, 0x5f, 0x7f, 0xbf, 0xf3, 0xf5, 0xff, 0xbf, 0xfc, 0xff,
   0xff, 0xff, 0x7f, 0xff, 0xf3, 0xff, 0xcf, 0xff, 0xff, 0xff, 0xf7, 0xff,
   0xfe, 0xfa, 0xf7, 0xef, 0xff, 0xff, 0xff, 0xff, 0xff, 0xff, 0xff, 0xff,
   0xfe, 0xff, 0xff, 0xff, 0xff, 0xff, 0xff, 0xff, 0xff, 0xff, 0xff, 0xfb,
   0xff, 0xff, 0xff, 0xff, 0xff, 0xff, 0xff, 0xff, 0xff, 0xff, 0xff, 0xff,
   0xff, 0xff, 0xff, 0xff, 0xff, 0xff, 0xff, 0xff, 0xff, 0xff, 0xff, 0xff,
   0xff, 0xff, 0xff, 0xff, 0xff, 0xff, 0xff, 0xff, 0xff, 0xff, 0xff, 0xff,
   0xff, 0xff, 0xff, 0xff, 0xff, 0xff, 0xff, 0xfe, 0xff, 0xff, 0xbf, 0xff,
   0xff, 0xff, 0xff, 0xff, 0xff, 0xfe, 0xff, 0xff, 0xff, 0xff, 0xff, 0xff,
   0xef, 0xbf, 0xff, 0xfb, 0xe9, 0xff, 0xff, 0xff, 0xed, 0xfb, 0xef, 0xbf,
   0xff, 0xfb, 0xfb, 0xef, 0xff, 0xfe, 0xfa, 0xff, 0xdf, 0x7f, 0x7f, 0xff,
   0xfb, 0xd7, 0x5f, 0xff, 0xf4, 0x85, 0xaf, 0xbf, 0xfe, 0xfa, 0xd6, 0xdf,
   0xbf, 0xff, 0xff, 0xeb, 0xc7, 0x9f, 0xff, 0xfc, 0xf3, 0xef, 0x9f, 0x7f,
   0x76, 0xff, 0x51, 0x4f, 0x5e, 0xf9, 0xe4, 0x57, 0x3f, 0xbd, 0xf8, 0xf5,
   0x9f, 0x3f, 0x7e, 0xf9, 0xe7, 0x8f, 0x3f, 0xff, 0xfa, 0xfe, 0x7f, 0xff,
   0xbd, 0xf7, 0xdd, 0xdf, 0x7f, 0xff, 0xf9, 0xe7, 0xef, 0xff, 0xff, 0xfd,
   0xf9, 0xf7, 0x5f, 0x7f, 0x75, 0xff, 0xd7, 0xaf, 0xfe, 0xfe, 0xf7, 0xcf,
   0xbf, 0xff, 0xfd, 0xfb, 0x2f, 0x9f, 0xbc, 0xfa, 0xcb, 0x0f, 0xdf, 0x7e,
   0xf1, 0xfc, 0xb7, 0xbf, 0x7f, 0xfa, 0xed, 0xdf, 0x7f, 0xff, 0xfd, 0xf7,
   0xa3, 0xaf, 0x7e, 0xea, 0xe5, 0xb3, 0x4f, 0xbd, 0xfe, 0xee, 0xd7, 0x5f,
   0xff, 0xfd, 0xfa, 0xdf, 0x3f, 0xff, 0xfd, 0xfb, 0x6f, 0xae, 0x79, 0xf5,
   0x9d, 0x67, 0xce, 0xbc, 0xf5, 0xdb, 0x57, 0x7f, 0x7d, 0xf7, 0xd5, 0xdf,
   0x7f, 0xff, 0xfd, 0xf7, 0x33, 0xef, 0xbc, 0x77, 0xd4, 0x3b, 0x6f, 0x9d,
   0xec, 0xeb, 0x3b, 0xc7, 0x9e, 0xf2, 0xac, 0xc7, 0x3f, 0x7f, 0xfc, 0xf3,
   0x77, 0xcf, 0x3d, 0xeb, 0xdf, 0xf3, 0xee, 0xbd, 0xfb, 0xfb, 0x67, 0x5f,
   0x7d, 0xf7, 0xed, 0xbf, 0xff, 0xfe, 0xf5, 0xef, 0xff, 0xff, 0xff, 0xff,
   0xff, 0xff, 0xff, 0xff, 0xff, 0xff, 0xff, 0xff, 0xff, 0xff, 0xff, 0xff,
   0xff, 0xff, 0xff, 0xfb, 0xff, 0xff, 0xff, 0xff, 0xff, 0xff, 0xff, 0xff,
   0xff, 0xff, 0xff, 0xff, 0xff, 0xff, 0xff, 0xff, 0xff, 0xff, 0xff, 0xff,
   0xff, 0xff, 0xff, 0xff, 0xff, 0xff, 0xff, 0xff, 0xff, 0xff, 0xff, 0xff,
   0xff, 0xff, 0xff, 0xff, 0xff, 0xff, 0xff, 0xff, 0xff, 0x7f, 0xff, 0xff,
   0xff, 0xff, 0x7f, 0xff, 0xff, 0xff, 0xff, 0xff, 0xff, 0xff, 0xfb, 0xff,
   0x7f, 0xff, 0xff, 0xff, 0xff, 0xdf, 0xfe, 0xfe, 0xfb, 0xef, 0xdf, 0xfe,
   0xfe, 0xff, 0xbf, 0xbf, 0xff, 0xfe, 0xf7, 0xef, 0xff, 0xff, 0xff, 0xfb,
   0x53, 0xbf, 0xfe, 0xfd, 0xf7, 0xaf, 0x5f, 0xff, 0xfb, 0xff, 0x2b, 0x7f,
   0xff, 0xfa, 0xef, 0x7f, 0xff, 0x7e, 0xfe, 0xeb, 0x7b, 0xef, 0xfd, 0xfe,
   0xed, 0xdf, 0x7f, 0x7f, 0xfd, 0xde, 0x97, 0xef, 0xbd, 0xf7, 0xda, 0xab,
   0x4f, 0xbd, 0xfd, 0xf7, 0xe7, 0x8e, 0x7d, 0xf3, 0xdb, 0x5b, 0xdf, 0xfc,
   0xf3, 0xfa, 0xbb, 0xce, 0x3d, 0xf7, 0xde, 0x7b, 0xee, 0x7b, 0xf5, 0xeb,
   0x73, 0xff, 0x9c, 0x7f, 0xed, 0x7b, 0xe7, 0x9f, 0xff, 0xeb, 0xf9, 0xff,
   0xfc, 0xfb, 0xae, 0xbf, 0xdf, 0x7e, 0xff, 0xe5, 0xe7, 0xaf, 0xbd, 0xeb,
   0xbe, 0xfb, 0xef, 0x3a, 0xf7, 0xe3, 0xab, 0xee, 0xbd, 0xf7, 0xdf, 0x7b,
   0xbf, 0x7e, 0xeb, 0xdf, 0x7b, 0xb7, 0xbc, 0xff, 0xde, 0xbd, 0xee, 0xbf,
   0xff, 0xed, 0xfb, 0xff, 0xfd, 0xf3, 0xde, 0xbd, 0x3f, 0x7f, 0xfb, 0xcd,
   0xf7, 0xee, 0x3d, 0xf7, 0xfe, 0xf7, 0xef, 0xbd, 0xeb, 0xdb, 0x53, 0xd7,
   0xbd, 0xf7, 0xdd, 0x77, 0x7f, 0x7f, 0xf6, 0xdd, 0x53, 0xaf, 0xfe, 0xf9,
   0xe5, 0x5b, 0x5f, 0xfd, 0xfa, 0xff, 0xb7, 0xbf, 0x7e, 0xf9, 0xeb, 0x97,
   0x3f, 0xbf, 0xff, 0xd5, 0x97, 0xdf, 0x7c, 0xfb, 0xeb, 0xdf, 0x7f, 0xff,
   0xfa, 0xff, 0xaf, 0xbf, 0xfe, 0xfa, 0xe5, 0xb7, 0x7f, 0x7e, 0xfe, 0xdd,
   0xff, 0xff, 0xff, 0xff, 0xff, 0xff, 0xff, 0xff, 0xff, 0xff, 0xfb, 0xff,
   0xff, 0xff, 0xff, 0xff, 0xff, 0xff, 0xff, 0xff, 0xff, 0xff, 0xff, 0xff,
   0xff, 0xff, 0xff, 0xff, 0xff, 0xff, 0xff, 0xff, 0xff, 0xff, 0xff, 0xff,
   0xff, 0xff, 0xff, 0xff, 0xff, 0xff, 0xff, 0xff, 0xff, 0xff, 0xff, 0xff,
   0xff, 0xff, 0xff, 0xff, 0xff, 0xff, 0xff, 0xff, 0xff, 0xff, 0xff, 0xff,
   0xff, 0xff, 0xff, 0xff, 0xff, 0xff, 0xff, 0xff, 0xff, 0xff, 0xff, 0xff,
   0xff, 0xff, 0xff, 0xff, 0xff, 0xff, 0xff, 0xff, 0xff, 0xff, 0xff, 0xff,
   0xff, 0xff, 0xbf, 0xff, 0xff, 0xff, 0xff, 0xff, 0xff, 0xff, 0xff, 0xff,
   0xff, 0xff, 0xff, 0xff, 0xef, 0xff, 0xff, 0xfe, 0xe3, 0xf7, 0xff, 0xff,
   0xff, 0xff, 0xdf, 0xff, 0xfe, 0xfd, 0xff, 0xef, 0x7f, 0xff, 0xfd, 0xff,
   0xff, 0x5f, 0x7f, 0xfb, 0xfd, 0xdf, 0xbf, 0xfe, 0xff, 0xfb, 0xff, 0xbf,
   0xff, 0xfe, 0xfb, 0xff, 0xff, 0x7f, 0xff, 0xfb, 0x8f, 0xbf, 0xff, 0xfe,
   0xe5, 0xcb, 0x3f, 0x7f, 0xe9, 0xc3, 0x4b, 0x7f, 0xfe, 0xf0, 0xe5, 0xcf,
   0x3f, 0xff, 0xfc, 0xf7, 0xf7, 0x6f, 0xbf, 0xfc, 0xf7, 0xdf, 0xff, 0x5e,
   0x76, 0xee, 0x37, 0xcf, 0xbd, 0x77, 0xd6, 0xcf, 0x3f, 0xff, 0xfd, 0xf3,
   0xaf, 0x5f, 0xfe, 0xf9, 0xed, 0x97, 0xaf, 0xfe, 0xec, 0xde, 0x73, 0x4e,
   0x39, 0xf6, 0xcc, 0xdf, 0x7f, 0xff, 0xfd, 0xf7, 0x4b, 0x4f, 0x3f, 0xfc,
   0xe2, 0xd5, 0x5f, 0x3d, 0xea, 0xfe, 0xd3, 0xaf, 0xbe, 0xf5, 0xf6, 0xdf,
   0x7f, 0xff, 0xfe, 0xf7, 0xeb, 0xaf, 0xfe, 0xfb, 0xee, 0xb3, 0xdf, 0xff,
   0xf8, 0xd2, 0x57, 0x8f, 0x3d, 0xf5, 0xd6, 0xdf, 0x7f, 0xff, 0xf9, 0xf7,
   0x97, 0x6f, 0x9d, 0xfa, 0xe5, 0xaf, 0x57, 0x9e, 0xf6, 0xfb, 0x33, 0x7f,
   0xfd, 0xea, 0xec, 0xd7, 0x5f, 0x7f, 0xfd, 0xf5, 0x7f, 0xdf, 0xff, 0xfb,
   0xdf, 0xbb, 0xdf, 0xfd, 0xfd, 0xf3, 0xff, 0xff, 0xff, 0xff, 0xef, 0x5f,
   0x7f, 0xfd, 0xfb, 0xef, 0xff, 0xff, 0xff, 0xff, 0xfd, 0xff, 0xff, 0xff,
   0xff, 0xff, 0xff, 0x7f, 0xff, 0xff, 0xff, 0xff, 0xff, 0xff, 0xff, 0xff,
   0xff, 0xff, 0xff, 0xff, 0xff, 0xff, 0xff, 0xff, 0xff, 0xff, 0xff, 0xff,
   0xff, 0xff, 0xff, 0xff, 0xff, 0xff, 0xff, 0xff, 0xff, 0xff, 0xff, 0xff,
   0xff, 0xff, 0xff, 0xff, 0xff, 0xff, 0xff, 0xff, 0xff, 0xff, 0xff, 0xff,
   0xff, 0xff, 0xff, 0xff, 0xef, 0xff, 0xff, 0xff, 0xff, 0xff, 0xff, 0xff,
   0xff, 0xff, 0xff, 0xff, 0xff, 0xff, 0xff, 0xff, 0xff, 0xff, 0xff, 0xff,
   0x93, 0xbf, 0xff, 0xff, 0xff, 0xef, 0xbf, 0xff, 0xff, 0xff, 0xff, 0xff,
   0xff, 0xff, 0xfb, 0xff, 0xff, 0x5e, 0xff, 0xff, 0x9f, 0x7f, 0xfe, 0xfe,
   0xf7, 0xdf, 0xbf, 0xfe, 0xff, 0xff, 0xff, 0x7f, 0xff, 0xfa, 0xf7, 0xff,
   0xff, 0x7f, 0xff, 0xff, 0x6b, 0xaf, 0x7f, 0xff, 0xfb, 0xd7, 0x7f, 0xbf,
   0xfe, 0xfb, 0xdf, 0xef, 0xff, 0xff, 0xfe, 0x5b, 0xdf, 0xfe, 0xfe, 0xee,
   0x2f, 0xbf, 0xfe, 0xfa, 0xeb, 0xb7, 0xdf, 0xfe, 0xf9, 0xf7, 0xb7, 0x5e,
   0x5d, 0xf7, 0xd6, 0xfb, 0xef, 0xfa, 0xf5, 0xdd, 0x8b, 0xc7, 0xbe, 0xfd,
   0xec, 0xab, 0x4f, 0x3d, 0xfb, 0xfd, 0x97, 0xef, 0xbf, 0xfd, 0xfe, 0xbb,
   0xbf, 0x3f, 0xff, 0xee, 0x7b, 0xbe, 0x3d, 0xf3, 0xdd, 0x7b, 0xef, 0x3d,
   0xf7, 0xa3, 0x77, 0xdf, 0xbd, 0xeb, 0xee, 0x77, 0xbf, 0xfe, 0xf2, 0xfb,
   0x3b, 0xef, 0xbd, 0x77, 0xce, 0x3b, 0xef, 0xbc, 0xf3, 0xfe, 0x2b, 0x7f,
   0xff, 0xff, 0xdb, 0xfb, 0x7f, 0x7f, 0xfb, 0xf3, 0x73, 0xdf, 0x3d, 0xf7,
   0xdc, 0x73, 0xcf, 0x3d, 0xf7, 0xf7, 0x73, 0xee, 0x7d, 0xf7, 0xfe, 0xaf,
   0x7e, 0x7f, 0xfa, 0xf7, 0xd7, 0x6f, 0xbd, 0xf4, 0xeb, 0xaf, 0x3f, 0xff,
   0xfa, 0xff, 0xc7, 0x5f, 0xbc, 0xf2, 0xc5, 0x37, 0x9f, 0xbf, 0xff, 0xfb,
   0x1f, 0xcf, 0xf9, 0xfd, 0xe5, 0xaf, 0x5f, 0x7e, 0xf9, 0xfb, 0x97, 0xdf,
   0xf9, 0xe5, 0xd5, 0x57, 0x3e, 0xbf, 0xfe, 0xf2, 0xff, 0xff, 0xff, 0xff,
   0xff, 0xff, 0xff, 0xff, 0xff, 0xff, 0xff, 0xff, 0xff, 0xff, 0xff, 0xff,
   0xdf, 0xff, 0xff, 0xff, 0xff, 0xff, 0xff, 0xff, 0xff, 0xff, 0xff, 0xff,
   0xff, 0xff, 0xff, 0xff, 0xff, 0xff, 0xff, 0xff, 0xff, 0xff, 0xff, 0xff,
   0xff, 0xff, 0xff, 0xff, 0xff, 0xff, 0xff, 0xff, 0xff, 0xff, 0xff, 0xff,
   0xff, 0xff, 0xff, 0xff, 0xff, 0xff, 0xff, 0xff, 0xff, 0xff, 0xfd, 0xff,
   0xff, 0xff, 0xff, 0xff, 0xff, 0xff, 0xff, 0xff, 0xbf, 0xff, 0xff, 0xff,
   0xff, 0xff, 0xff, 0xff, 0xff, 0xff, 0xfb, 0xff, 0xff, 0xff, 0xff, 0xff,
   0xff, 0xfb, 0xdf, 0xff, 0xbf, 0xf2, 0xff, 0xfb, 0xff, 0xff, 0xfb, 0xff,
   0xff, 0xaf, 0xbc, 0xfa, 0xef, 0xbf, 0x7f, 0xbf, 0xfe, 0xfb, 0xd7, 0xdf,
   0x9f, 0xfa, 0xef, 0x95, 0xfe, 0xff, 0xfb, 0xff, 0xb7, 0xcf, 0x7e, 0xfd,
   0x80, 0x23, 0xbf, 0xbf, 0xff, 0xd3, 0xf7, 0x5f, 0xbf, 0xf1, 0xff, 0xff,
   0x3f, 0xfd, 0xf3, 0xfb, 0xbb, 0xef, 0x1e, 0xf5, 0xfa, 0x3b, 0x0f, 0x3c,
   0xff, 0xd8, 0x93, 0x4f, 0x9a, 0xfc, 0xf7, 0xaf, 0x9f, 0xbd, 0xfb, 0xfb,
   0xcf, 0xef, 0x79, 0xfb, 0xf7, 0x7b, 0xbf, 0xfb, 0x7d, 0xc7, 0xd7, 0xfe,
   0x7e, 0xeb, 0xff, 0xd7, 0x77, 0xfb, 0xfd, 0xff, 0xd7, 0x6f, 0xbc, 0xfb,
   0xf7, 0x39, 0x9f, 0xbd, 0xfe, 0xd3, 0xd3, 0xae, 0x3e, 0xf9, 0xf7, 0xdb,
   0xde, 0xbb, 0xfd, 0xfd, 0xcf, 0xff, 0xbf, 0xfe, 0xff, 0x7b, 0xff, 0x7e,
   0xff, 0xd2, 0xff, 0xff, 0xff, 0xf6, 0xe7, 0xff, 0xb7, 0xfd, 0xfe, 0xef,
   0xe7, 0xd7, 0xff, 0xfb, 0xfd, 0x3b, 0x5f, 0x1d, 0xff, 0xfb, 0xab, 0xbf,
   0xbf, 0xfa, 0xf7, 0xdf, 0xdf, 0xfd, 0xfe, 0xd5, 0x3f, 0xbe, 0x7e, 0xfd,
   0xff, 0xdb, 0xff, 0xfe, 0xf5, 0xf7, 0xfb, 0xff, 0xff, 0xfd, 0xff, 0xef,
   0xef, 0x7e, 0xff, 0xcd, 0xf7, 0xdf, 0xbf, 0xfe, 0xfd, 0xfb, 0xef, 0xff,
   0xf6, 0xfb, 0xff, 0xdf, 0xff, 0xfd, 0xfb, 0xff, 0x7f, 0xbf, 0xff, 0xfe,
   0xff, 0xff, 0xff, 0xff, 0xff, 0xff, 0xff, 0xff, 0xff, 0xff, 0xff, 0xff,
   0xff, 0xff, 0xff, 0xef, 0xff, 0xff, 0xff, 0xdb, 0xff, 0xff, 0xff, 0xff,
   0xff, 0xff, 0xff, 0xff, 0xff, 0xff, 0xff, 0xff, 0xff, 0xff, 0xff, 0xff,
   0xff, 0xff, 0xff, 0xff };
