#define matrix_width 56
#define matrix_height 837
static char matrix_bits[] = {
 0xff,0xff,0xff,0xff,0xff,0xff,0xff,0xff,0xff,0xff,0xff,0xff,0xff,0xff,0xff,
 0xff,0xff,0xff,0xff,0xff,0xff,0xff,0xff,0xff,0xff,0xff,0xff,0xff,0xff,0xff,
 0xff,0xff,0xff,0xff,0xff,0xff,0xff,0xff,0xff,0xbf,0xf7,0xff,0xff,0x7b,0xff,
 0xff,0xaf,0xc8,0xff,0xff,0x4d,0xfd,0xff,0x0f,0x22,0xff,0x7f,0x75,0xfb,0xff,
 0x17,0x89,0xff,0xff,0xda,0xf5,0xff,0x47,0x25,0xfe,0xff,0xfd,0xfb,0xff,0x0b,
 0x1f,0xff,0x7f,0xfa,0xf2,0xff,0x85,0x17,0xfe,0xbf,0xfd,0xf5,0xff,0x45,0x9d,
 0xfe,0x7f,0xf5,0xf7,0xff,0x52,0x17,0xfd,0xaf,0xfd,0xe9,0xff,0x81,0x1f,0xfe,
 0xbf,0xfe,0xf7,0xff,0x4a,0x2d,0xfa,0xbf,0xfa,0xe9,0xff,0xa1,0x1f,0xfd,0xbf,
 0xfd,0xf7,0xff,0x92,0x2e,0xfc,0xdf,0xda,0xe9,0xff,0x85,0x9b,0xfe,0x7f,0xfd,
 0xf7,0xff,0x52,0x0f,0xfe,0xdf,0xfa,0xf2,0xff,0x85,0x3d,0xfe,0xff,0xfa,0xfb,
 0xff,0x47,0x8f,0xfe,0x7f,0xf9,0xea,0xff,0x0b,0x15,0xfe,0xff,0xdd,0xf5,0xff,
 0x87,0x0b,0xff,0x7f,0x75,0xfb,0xff,0x17,0xad,0xfe,0xff,0xff,0xfe,0xff,0x5f,
 0xa1,0xff,0xff,0x4b,0xff,0xff,0x5f,0xd4,0xff,0xff,0xff,0xff,0xff,0x77,0xeb,
 0xff,0xff,0xff,0xff,0xff,0xff,0xfd,0xff,0xff,0xff,0xff,0xff,0xff,0xff,0xff,
 0xff,0xff,0xff,0xff,0xff,0xff,0xff,0xff,0xff,0xff,0xff,0xff,0xff,0xff,0xff,
 0xff,0xff,0xff,0xff,0xff,0xff,0xff,0xff,0xff,0xff,0xff,0xff,0xff,0xff,0xff,
 0xff,0xff,0xff,0xff,0xff,0xff,0xff,0xff,0xff,0xff,0xff,0xff,0xff,0xef,0xff,
 0xff,0xff,0xf4,0xff,0xff,0x57,0xff,0xff,0x3f,0x90,0xff,0xff,0x4b,0xfd,0xff,
 0x7f,0x48,0xff,0xff,0xa7,0xff,0xff,0x7f,0xe8,0xff,0xff,0xcf,0xff,0xff,0x3f,
 0xe8,0xff,0xff,0xa7,0xff,0xff,0x7f,0xf8,0xff,0xff,0xcb,0xff,0xff,0x3f,0xfc,
 0xff,0xff,0xcf,0xff,0xff,0x7f,0xf8,0xff,0xff,0xc7,0xff,0xff,0x3f,0xfa,0xff,
 0xff,0xeb,0xff,0xff,0x7f,0xf8,0xff,0xff,0xa7,0xff,0xff,0x3f,0xfc,0xff,0xff,
 0xcf,0xff,0xff,0x7f,0xf8,0xff,0xff,0xe7,0xff,0xff,0x3f,0xfa,0xff,0xff,0xcb,
 0xff,0xff,0x7f,0xf8,0xff,0xff,0xcf,0xff,0xff,0x3f,0xfc,0xff,0xff,0xc7,0xff,
 0xff,0x7f,0xf8,0xff,0xff,0xd7,0xff,0xff,0x3f,0xfc,0xff,0xff,0xcb,0xff,0xff,
 0x7f,0xf8,0xff,0xff,0xcf,0xff,0xff,0x3f,0xf8,0xff,0xff,0xe7,0xff,0xff,0x5f,
 0xfa,0xff,0xff,0xad,0xff,0xff,0x3f,0xe8,0xff,0xff,0xd7,0xff,0xff,0x57,0xf5,
 0xff,0xff,0xff,0xff,0xff,0xbf,0xfa,0xff,0xff,0xff,0xff,0xff,0xff,0xff,0xff,
 0xff,0xff,0xff,0xff,0xff,0xff,0xff,0xff,0xff,0xff,0xff,0xff,0xff,0xff,0xff,
 0xff,0xff,0xff,0xff,0xff,0xff,0xff,0xff,0xff,0xff,0xff,0xff,0xff,0xff,0xff,
 0xff,0xff,0xff,0xff,0xff,0xff,0xff,0xff,0xff,0xff,0xff,0xff,0xff,0xff,0xff,
 0xff,0x7f,0xfb,0xff,0xff,0xed,0xff,0xff,0x4f,0xad,0xff,0xff,0xb5,0xfa,0xff,
 0x0f,0x12,0xff,0x7f,0x79,0xfb,0xff,0x07,0x09,0xff,0xff,0xea,0xf5,0xff,0x97,
 0x2a,0xff,0x7f,0xfd,0xff,0xff,0x87,0x5e,0xff,0xff,0xf4,0xf5,0xff,0x4b,0x2b,
 0xff,0xff,0xfa,0xff,0xff,0x05,0xbf,0xff,0xff,0xfa,0xff,0xff,0x8b,0xfd,0xff,
 0xff,0xfa,0xff,0xff,0x47,0xf7,0xff,0xff,0xda,0xff,0xff,0x8f,0xfe,0xff,0xff,
 0xf5,0xff,0xff,0x27,0xfa,0xff,0xff,0xdb,0xff,0xff,0x1f,0xfd,0xff,0xff,0xee,
 0xff,0xff,0xaf,0xea,0xff,0xff,0x57,0xff,0xff,0x5f,0xf4,0xff,0xff,0xef,0xff,
 0xff,0x77,0xd1,0xff,0xff,0xbb,0xfe,0xff,0xaf,0xd4,0xff,0xbf,0x5f,0xfd,0xff,
 0xbb,0x42,0xff,0xff,0x75,0xfb,0xff,0x4f,0x29,0xff,0x7f,0xdf,0xfa,0xff,0x25,
 0x05,0xff,0xff,0x55,0xfb,0xff,0x97,0x40,0xff,0x7f,0xab,0xfa,0xff,0x2f,0x12,
 0xff,0xff,0x75,0xfd,0xff,0x8b,0x44,0xff,0xff,0xdf,0xff,0xff,0x7f,0xb5,0xff,
 0xff,0xff,0xff,0xff,0xef,0xff,0xff,0xff,0xff,0xff,0xff,0xff,0xff,0xff,0xff,
 0xff,0xff,0xff,0xff,0xff,0xff,0xff,0xff,0xff,0xff,0xff,0xff,0xff,0xff,0xff,
 0xff,0xff,0xff,0xff,0xff,0xff,0xff,0xff,0xff,0xff,0xff,0xff,0xff,0xff,0xff,
 0xff,0xff,0xff,0xff,0xff,0xff,0xff,0xff,0x5f,0xf5,0xff,0xff,0x55,0xff,0xff,
 0x8f,0xd2,0xff,0xff,0x7a,0xfd,0xff,0x17,0x44,0xff,0x7f,0x55,0xff,0xff,0x07,
 0xa3,0xff,0xff,0xf9,0xfb,0xff,0x4f,0xa9,0xff,0xff,0xfc,0xfe,0xff,0x05,0x57,
 0xff,0xff,0xda,0xff,0xff,0x8b,0xad,0xff,0x7f,0xf5,0xff,0xff,0x47,0xfa,0xff,
 0xff,0xba,0xff,0xff,0x0f,0xfd,0xff,0xff,0xea,0xff,0xff,0x0f,0xf5,0xff,0xff,
 0xd5,0xff,0xff,0x47,0xfc,0xff,0x7f,0xf5,0xff,0xff,0x17,0xf5,0xff,0xff,0xaa,
 0xff,0xff,0x05,0xfa,0xff,0xbf,0xfd,0xff,0xff,0x4b,0xfd,0xff,0xff,0xf6,0xff,
 0xff,0x25,0xfb,0xff,0x5f,0xfd,0xff,0xff,0x91,0xff,0xff,0xbf,0xfb,0xff,0xff,
 0xc5,0xb6,0xff,0x7f,0xdd,0xfb,0xff,0x15,0x5b,0xff,0xff,0xfd,0xfa,0xff,0xc7,
 0x0d,0xff,0xff,0x76,0xfb,0xff,0x95,0x26,0xff,0xff,0xdd,0xff,0xff,0x5f,0x91,
 0xff,0xff,0x77,0xfd,0xff,0xaf,0xd4,0xff,0xff,0xdf,0xff,0xff,0x5f,0xd5,0xff,
 0xff,0xff,0xff,0xff,0xff,0xff,0xff,0xff,0xff,0xff,0xff,0xff,0xff,0xff,0xff,
 0xff,0xff,0xff,0xff,0xff,0xff,0xff,0xff,0xff,0xff,0xff,0xff,0xff,0xff,0xff,
 0xff,0xff,0xff,0xff,0xff,0xff,0xff,0xff,0xff,0xff,0xff,0xff,0xff,0xff,0xff,
 0xff,0xff,0xff,0xff,0xff,0xff,0xff,0xff,0xff,0xff,0xff,0xff,0xff,0xff,0xff,
 0x5f,0xfd,0xff,0xff,0xd7,0xff,0xff,0x7f,0xfc,0xff,0xff,0xe5,0xff,0xff,0x17,
 0xf8,0xff,0xff,0xab,0xff,0xff,0xaf,0xf4,0xff,0xff,0xd7,0xff,0xff,0x2f,0xe8,
 0xff,0xff,0x55,0xff,0xff,0x9f,0xe4,0xff,0x7f,0xaf,0xfe,0xff,0x57,0xd0,0xff,
 0xff,0x55,0xff,0xff,0x2f,0xa2,0xff,0xff,0xaf,0xfa,0xff,0x5f,0x11,0xff,0xff,
 0x6a,0xfb,0xff,0x2f,0x44,0xff,0xff,0xad,0xf5,0xff,0x97,0x22,0xfe,0xff,0xd6,
 0xfa,0xff,0x2b,0x14,0xfd,0xff,0x55,0xeb,0xff,0x8f,0x48,0xfe,0xff,0x6a,0xf5,
 0xff,0x05,0x02,0xfa,0x7f,0x91,0xed,0xff,0x17,0x50,0xfd,0xff,0x4a,0xf5,0xff,
 0x03,0x08,0xfd,0x7f,0xeb,0xff,0xff,0x4d,0xd2,0xfe,0xff,0xb5,0xfe,0xff,0x2f,
 0xfa,0xff,0xff,0xef,0xff,0xff,0x57,0xed,0xff,0xff,0xfb,0xff,0xff,0xaf,0xfc,
 0xff,0xff,0xff,0xff,0xff,0x5f,0xff,0xff,0xff,0xef,0xff,0xff,0x7f,0xfd,0xff,
 0xff,0xff,0xff,0xff,0xdf,0xff,0xff,0xff,0xff,0xff,0xff,0xff,0xff,0xff,0xff,
 0xff,0xff,0xff,0xff,0xff,0xff,0xff,0xff,0xff,0xff,0xff,0xff,0xff,0xff,0xff,
 0xff,0xff,0xff,0xff,0xff,0xff,0xff,0xff,0xff,0xff,0xff,0xff,0xff,0xff,0xff,
 0xff,0xff,0xff,0xff,0xff,0xff,0xff,0xff,0xff,0xfd,0xff,0xff,0xff,0xff,0xff,
 0xaf,0xf6,0xff,0xff,0x55,0xff,0xff,0x5f,0xc1,0xff,0xff,0x5f,0xfd,0xff,0x97,
 0xa8,0xff,0xff,0xaa,0xfe,0xff,0x17,0x81,0xff,0xff,0x5f,0xfd,0xff,0x6f,0x62,
 0xff,0xff,0xf7,0xfe,0xff,0xbf,0x95,0xff,0xff,0x5f,0xfb,0xff,0xdf,0xa2,0xff,
 0xff,0xfe,0xfe,0xff,0xbf,0x4a,0xff,0xff,0x2b,0xfd,0xff,0xaf,0xa0,0xff,0xff,
 0xab,0xfe,0xff,0x17,0x80,0xff,0x7f,0x55,0xfb,0xff,0x4f,0xd5,0xff,0xff,0xfa,
 0xff,0xff,0x05,0xd2,0xff,0xff,0x6d,0xff,0xff,0x4b,0xf5,0xff,0x5f,0xf9,0xff,
 0xff,0x85,0xfe,0xff,0x7f,0xfd,0xff,0xff,0x13,0xf7,0xff,0xdf,0xf6,0xff,0xff,
 0xc5,0xfd,0xff,0xbf,0xfd,0xff,0xff,0x51,0xff,0xff,0xff,0xbe,0xff,0xff,0x8f,
 0xa5,0xff,0xff,0xf5,0xfa,0xff,0x4b,0x2b,0xff,0xff,0xfe,0xff,0xff,0x97,0x95,
 0xff,0xff,0xb7,0xfa,0xff,0xaf,0x4a,0xff,0xff,0xdf,0xff,0xff,0x5f,0xe5,0xff,
 0xff,0x7b,0xff,0xff,0x7f,0xd2,0xff,0xff,0xff,0xff,0xff,0xff,0xfd,0xff,0xff,
 0xff,0xff,0xff,0xff,0xff,0xff,0xff,0xff,0xff,0xff,0xff,0xff,0xff,0xff,0xff,
 0xff,0xff,0xff,0xff,0xff,0xff,0xff,0xff,0xff,0xff,0xff,0xff,0xff,0xff,0xff,
 0xff,0xff,0xff,0xff,0xff,0xff,0xff,0xff,0xdf,0xfe,0xff,0xff,0xeb,0xff,0xff,
 0x3f,0xfd,0xff,0xff,0xff,0xff,0xff,0xaf,0xfa,0xff,0xff,0xad,0xff,0xff,0x7f,
 0xe9,0xff,0xff,0xff,0xfe,0xff,0xbf,0xd2,0xff,0xff,0x2f,0xff,0xff,0xff,0xc2,
 0xff,0xff,0xff,0xfa,0xff,0x7f,0x2b,0xff,0xff,0xbf,0xfb,0xff,0xff,0x15,0xff,
 0xff,0xff,0xf5,0xff,0x7f,0x8b,0xfe,0xff,0x5b,0xf5,0xff,0x4f,0x11,0xfe,0x7f,
 0x6d,0xf1,0xff,0x97,0x04,0xff,0xff,0xa9,0xf4,0xff,0x0f,0x01,0xfe,0x7f,0xdd,
 0xf2,0xff,0x45,0x14,0xfe,0xff,0xf5,0xf5,0xff,0x0b,0x8b,0xfe,0xbf,0xfe,0xf5,
 0xff,0xc2,0x1d,0xff,0xdf,0xba,0xf7,0xff,0x2b,0x17,0xfe,0x7f,0xfd,0xf2,0xff,
 0x81,0x9d,0xfe,0xbf,0xff,0xfb,0xff,0x55,0x17,0xfe,0xff,0xfa,0xf5,0xff,0xa5,
 0x1b,0xff,0x7f,0xfb,0xf5,0xff,0x4b,0x8d,0xfe,0xff,0xbd,0xfa,0xff,0x0f,0x27,
 0xff,0x7f,0xf5,0xf7,0xff,0xcb,0x92,0xfe,0xff,0x7f,0xfd,0xff,0xaf,0xaa,0xff,
 0xff,0xd7,0xff,0xff,0x5f,0xd5,0xff,0xff,0x7f,0xff,0xff,0x7f,0xf5,0xff,0xff,
 0xff,0xff,0xff,0xff,0xff,0xff,0xff,0xff,0xff,0xff,0xff,0xff,0xff,0xff,0xff,
 0xff,0xff,0xff,0xff,0xff,0xff,0xff,0xff,0xff,0xff,0xff,0xff,0xff,0xff,0xff,
 0xff,0xff,0xff,0xff,0xff,0xff,0xff,0xff,0xff,0xff,0xff,0xff,0xff,0xff,0xff,
 0x5f,0xf5,0xff,0xff,0xdb,0xff,0xff,0xef,0x96,0xff,0xff,0x7e,0xfd,0xff,0x1f,
 0x55,0xff,0xff,0xa9,0xf7,0xff,0x87,0x90,0xfe,0xff,0x74,0xf9,0xff,0x0f,0x0a,
 0xfd,0xff,0xd2,0xee,0xff,0x07,0x49,0xfe,0xff,0xfa,0xfb,0xff,0x17,0x55,0xff,
 0xff,0xad,0xff,0xff,0x4f,0xfa,0xff,0xff,0xfb,0xff,0xff,0x17,0xbd,0xff,0xff,
 0xee,0xff,0xff,0xaf,0xfa,0xff,0xff,0xd7,0xff,0xff,0x5f,0xfa,0xff,0xff,0xef,
 0xff,0xff,0x7f,0xfa,0xff,0xff,0xb7,0xff,0xff,0xbf,0xf8,0xff,0xff,0xef,0xff,
 0xff,0x7f,0xed,0xff,0xff,0xbf,0xff,0xff,0xbf,0xf4,0xff,0xff,0xef,0xff,0xff,
 0xff,0xea,0xff,0xff,0xbf,0xfe,0xff,0xff,0xe5,0xff,0xff,0x7f,0xff,0xff,0xff,
 0xe7,0xff,0xff,0x7f,0xff,0xff,0xff,0xd3,0xff,0xff,0xff,0xfd,0xff,0xff,0xa5,
 0xff,0xff,0xbf,0xfe,0xff,0xff,0xa7,0xff,0xff,0xff,0xfb,0xff,0xff,0x57,0xff,
 0xff,0xff,0xff,0xff,0xff,0x2f,0xff,0xff,0xff,0xfb,0xff,0xff,0xbf,0xff,0xff,
 0xff,0xff,0xff,0xff,0x5f,0xff,0xff,0xff,0xff,0xff,0xff,0xff,0xff,0xff,0xff,
 0xff,0xff,0xff,0xff,0xff,0xff,0xff,0xff,0xff,0xff,0xff,0xff,0xff,0xff,0xff,
 0xff,0xff,0xff,0xff,0xff,0xff,0xff,0xff,0xff,0xff,0xff,0xff,0xff,0xff,0xff,
 0xff,0xff,0xff,0xff,0xff,0xff,0xff,0xff,0xff,0xff,0xff,0xff,0xff,0xff,0xff,
 0xff,0xff,0xff,0xff,0xff,0xff,0xff,0xf5,0xff,0xff,0x6f,0xff,0xff,0xbf,0xd4,
 0xff,0xff,0xfb,0xff,0xff,0xaf,0x56,0xff,0xff,0xb6,0xfa,0xff,0x5f,0x29,0xff,
 0xff,0xfb,0xf5,0xff,0x87,0x8e,0xfe,0x7f,0xd9,0xf5,0xff,0x8f,0x12,0xfe,0xff,
 0xfd,0xf5,0xff,0x0f,0x1b,0xff,0xff,0x74,0xf3,0xff,0x07,0x15,0xfe,0xff,0xda,
 0xfa,0xff,0x97,0x8a,0xfe,0xff,0x6b,0xf5,0xff,0x0f,0x01,0xfe,0xff,0x15,0xf2,
 0xff,0x5f,0x20,0xff,0xff,0x56,0xf9,0xff,0x17,0x04,0xfe,0xff,0xab,0xea,0xff,
 0x4f,0x10,0xfd,0x7f,0xa5,0xf5,0xff,0x17,0x82,0xfe,0xff,0xda,0xf5,0xff,0x4f,
 0x28,0xfe,0xff,0xe9,0xf6,0xff,0x0f,0x16,0xfd,0xff,0xfd,0xeb,0xff,0x87,0x55,
 0xfd,0xff,0xb4,0xff,0xff,0x97,0x2e,0xfa,0xff,0xfb,0xea,0xff,0x0f,0x9b,0xfe,
 0x7f,0xf9,0xf3,0xff,0x47,0x1d,0xfd,0xff,0xfd,0xeb,0xff,0x97,0x16,0xfe,0xff,
 0xd7,0xfd,0xff,0x4f,0xab,0xfe,0xff,0x7d,0xf7,0xff,0x7f,0x55,0xff,0xff,0xff,
 0xff,0xff,0xbf,0xaa,0xff,0xff,0xb7,0xff,0xff,0xff,0xf7,0xff,0xff,0xff,0xff,
 0xff,0xff,0xff,0xff,0xff,0xff,0xff,0xff,0xff,0xff,0xff,0xff,0xff,0xff,0xff,
 0xff,0xff,0xff,0xff,0xff,0xff,0xff,0xff,0xff,0xff,0xff,0xff,0xff,0xff,0xff,
 0xff,0xff,0xff,0xff,0xff,0xff,0xff,0xff,0xff,0xff,0xff,0xff,0xff,0xff,0xe8,
 0xff,0xff,0x5f,0xff,0xff,0xbf,0xd6,0xff,0xff,0xf7,0xfd,0xff,0xaf,0x52,0xff,
 0xff,0xdd,0xf7,0xff,0x5f,0x2d,0xff,0xff,0xf5,0xfa,0xff,0x07,0x15,0xfe,0xff,
 0xfa,0xeb,0xff,0x97,0xae,0xfe,0xff,0xdd,0xfd,0xff,0x4f,0x1b,0xfa,0xff,0xfa,
 0xf7,0xff,0x8f,0xae,0xfd,0xff,0xfd,0xdb,0xff,0x47,0x5b,0xfc,0xff,0xf4,0xf6,
 0xff,0x0f,0x2f,0xfb,0xff,0xda,0xf7,0xff,0x8f,0x9a,0xfc,0xff,0xfa,0xea,0xff,
 0x87,0x2a,0xfe,0xff,0x55,0xfb,0xff,0x17,0x04,0xfd,0xff,0x50,0xe9,0xff,0x0f,
 0x81,0xfe,0xff,0xad,0xfa,0xff,0x07,0x14,0xff,0xff,0xd6,0xff,0xff,0x5f,0x50,
 0xff,0xff,0xeb,0xff,0xff,0x97,0xfc,0xff,0xff,0x57,0xff,0xff,0x3f,0xea,0xff,
 0xff,0xef,0xff,0xff,0xbf,0xe8,0xff,0xff,0xaf,0xfe,0xff,0x7f,0xe4,0xff,0xff,
 0x77,0xff,0xff,0xff,0xd2,0xff,0xff,0xbf,0xff,0xff,0x7f,0xd5,0xff,0xff,0xff,
 0xfd,0xff,0xff,0x57,0xff,0xff,0x7f,0xff,0xff,0xff,0xab,0xff,0xff,0xff,0xff,
 0xff,0xff,0xff,0xff,0xff,0xff,0xff,0xff,0xff,0xff,0xff,0xff,0xff,0xff,0xff,
 0xff,0xff,0xff,0xff,0xff,0xff,0xff,0xff,0xff,0xff,0xff,0xff,0xff,0xff,0xff,
 0xff,0xff,0xff,0xff,0xff,0xff,0xff,0xff,0xff,0xff,0xff,0xff,0xff,0xff,0xff,
 0xff,0xff,0xff,0xff,0xff,0xff,0xff,0xff,0xff,0xff,0xff,0xff,0xff,0xff,0xff,
 0xff,0xff,0xff,0xff,0xff,0xf7,0xff,0xff,0x7f,0xff,0xff,0xff,0xe2,0xff,0xff,
 0x5f,0xff,0xff,0xff,0xe5,0xff,0xff,0xbf,0xfe,0xff,0xff,0xd3,0xff,0xff,0x7f,
 0xff,0xff,0xff,0xe1,0xff,0xff,0xbf,0xfe,0xff,0xff,0xc7,0xff,0xff,0x7f,0xff,
 0xff,0xff,0xe1,0xff,0xff,0xbf,0xfd,0xff,0xff,0x97,0xff,0xff,0xff,0xfe,0xff,
 0xff,0x53,0xff,0xff,0xff,0xfb,0xff,0x7f,0xab,0xff,0xff,0x7f,0xff,0xff,0xdf,
 0x16,0xff,0xff,0xed,0xf5,0xff,0x5f,0xad,0xfe,0xff,0xff,0xfb,0xff,0xa7,0x3f,
 0xff,0xff,0xfa,0xfb,0xff,0x5b,0x8d,0xfe,0x7f,0xff,0xf7,0xff,0xa5,0x3f,0xff,
 0xbf,0xed,0xfa,0xff,0x92,0x8a,0xfc,0xaf,0xbe,0xa5,0xff,0xc9,0x0a,0xe2,0xbf,
 0xd6,0x52,0xff,0x20,0x02,0xd0,0x9f,0xbd,0xaa,0xff,0xa1,0x55,0xe8,0xff,0xff,
 0xff,0xfe,0xf5,0x56,0xf7,0xbf,0xff,0xff,0xff,0xf5,0xff,0xfd,0xff,0xff,0xff,
 0xff,0xff,0xff,0xff,0xff,0xff,0xff,0xff,0xfb,0xff,0xff,0xff,0xff,0xff,0xff,
 0xff,0xff,0xff,0xff,0xff,0xff,0xff,0xff,0xff,0xff,0xff,0xff,0xff,0xff,0xff,
 0xff,0xff,0xff,0xff,0xff,0xff,0xff,0xff,0xff,0xff,0xff,0xff,0xff,0xff,0xff,
 0xff,0xff,0xff,0xff,0xff,0xff,0xff,0xff,0xff,0xff,0xff,0xff,0xff,0xfe,0xff,
 0xff,0xff,0xff,0xff,0x7f,0xff,0xff,0xff,0xef,0xff,0xff,0xaf,0xfc,0xff,0xff,
 0xf5,0xff,0xff,0x2f,0xfd,0xff,0xff,0xdb,0xff,0xff,0x5f,0xfa,0xff,0xff,0xb7,
 0xff,0xff,0x7f,0xe9,0xff,0xff,0xdf,0xfe,0xff,0xbf,0xe4,0xff,0xff,0x7f,0xff,
 0xff,0xff,0xd2,0xff,0xff,0xdf,0xfd,0xff,0xff,0x4b,0xff,0xff,0x7f,0xf7,0xff,
 0xff,0x2d,0xff,0xff,0xff,0xfb,0xff,0xff,0x17,0xfe,0xff,0xff,0xf5,0xff,0xff,
 0x5f,0xff,0xff,0xff,0xf5,0xff,0xff,0x1f,0xfd,0xff,0xff,0xf7,0xff,0xff,0x17,
 0xfe,0xff,0x7f,0xfb,0xff,0xff,0xad,0xff,0xff,0xff,0xff,0xff,0xff,0x53,0xff,
 0xff,0xbf,0xfe,0xff,0xff,0xe5,0xff,0xff,0xdf,0xff,0xff,0x7f,0xea,0xff,0xff,
 0x6b,0xff,0xff,0xbf,0xf4,0xff,0xff,0xef,0xff,0xff,0x7f,0xfa,0xff,0xff,0xef,
 0xff,0xff,0x2f,0xfc,0xff,0xff,0xfb,0xff,0xff,0x9f,0xff,0xff,0xff,0xfd,0xff,
 0xff,0x57,0xff,0xff,0xff,0xff,0xff,0xff,0xdf,0xff,0xff,0xff,0xff,0xff,0xff,
 0xff,0xff,0xff,0xff,0xff,0xff,0xff,0xff,0xff,0xff,0xff,0xff,0xff,0xff,0xff,
 0xff,0xff,0xff,0xff,0xff,0xff,0xff,0xff,0xff,0xff,0xff,0xff,0xff,0xff,0xff,
 0xff,0xff,0xff,0xff,0xff,0xff,0xff,0xff,0xff,0xff,0xff,0xff,0xff,0xff,0xff,
 0xff,0xff,0xff,0xff,0xff,0xff,0xff,0xff,0xff,0xff,0xff,0xff,0xff,0xff,0xff,
 0xff,0xff,0xff,0x7f,0xe5,0xff,0xff,0xb7,0xfe,0xff,0x5f,0xa9,0xff,0xff,0x7d,
 0xff,0xff,0x57,0x45,0xff,0xbf,0xbf,0xfa,0xff,0x55,0x53,0xfd,0xff,0x76,0xed,
 0xff,0xab,0x83,0xfa,0xbf,0xbf,0xf6,0xff,0xd1,0x51,0xfa,0x6f,0x7f,0xbf,0xff,
 0x6a,0xc7,0xfa,0xbf,0x7f,0xed,0xff,0xf1,0xa1,0xea,0xbf,0x7f,0xbf,0xff,0xf4,
 0xd7,0xea,0xdf,0xbe,0xf5,0xfe,0xd2,0x4b,0xd5,0xbf,0xff,0xdf,0x7d,0xf9,0xa5,
 0xca,0xaf,0xff,0xf5,0xfe,0xe2,0x1f,0xa6,0x7f,0xff,0xbb,0xff,0xb9,0x57,0xd5,
 0xaf,0xff,0xed,0xfd,0xe0,0x2f,0xca,0x7f,0xfb,0x77,0xff,0xf5,0x9f,0xea,0xbf,
 0xef,0xdb,0xff,0x97,0x3e,0xe9,0xff,0xfe,0x6f,0xff,0x6d,0xdb,0xf4,0xff,0xfb,
 0xbf,0xff,0x5f,0x7d,0xf9,0xff,0xef,0xff,0xff,0xff,0xff,0xfa,0xff,0xff,0xff,
 0xff,0xff,0xff,0xff,0xff,0xff,0xff,0xff,0xff,0xff,0xff,0xff,0xff,0xff,0xff,
 0xff,0xff,0xff,0xff,0xff,0xff,0xff,0xff,0xff,0xff,0xff,0xff,0xff,0xff,0xff,
 0xff,0xff,0xff,0xff,0xff,0xff,0xff,0xff,0xff,0xff,0xff,0xff,0xff,0xff,0xff,
 0xff,0xff,0xff,0xff,0xff,0xff,0xff,0xff,0xff,0xff,0xff,0xff,0xff,0xff,0xff,
 0xff,0xff,0xff,0xff,0xff,0xff,0xff,0xff,0xff,0xff,0xff,0xff,0xff,0xff,0xff,
 0xff,0xff,0x7f,0x6d,0xfd,0xff,0xdf,0xab,0xff,0xbf,0x55,0xaa,0xff,0xbf,0xd6,
 0xfa,0xff,0x24,0x50,0xff,0xf7,0xd7,0xff,0x7f,0x5b,0xda,0xff,0xff,0xd7,0xff,
 0xff,0x57,0xe8,0xff,0xff,0xdb,0xff,0xff,0xbf,0xfc,0xff,0xbf,0xcf,0xff,0xbf,
 0x5a,0xb4,0xff,0xf7,0x6b,0xff,0xbf,0x5e,0xd8,0xff,0x7b,0xd7,0xfd,0x5f,0x25,
 0xea,0xfe,0xef,0xcb,0xff,0x3f,0x5d,0xb4,0xff,0xff,0x6f,0xff,0x7f,0x2b,0xd4,
 0xfe,0xff,0xd5,0xfb,0xff,0xbf,0xe8,0xff,0xdf,0xd7,0xff,0x7f,0x2b,0x7a,0xff,
 0xff,0xd7,0xff,0xff,0x7f,0xf8,0xff,0xff,0xef,0xff,0xff,0xbf,0xfc,0xff,0xff,
 0xd7,0xff,0xff,0x7f,0xfa,0xff,0xff,0xef,0xff,0xff,0x7f,0xfc,0xff,0xff,0xd7,
 0xff,0xff,0x7f,0xfa,0xff,0xff,0xef,0xff,0xff,0x7f,0xfc,0xff,0xff,0xd7,0xff,
 0xff,0xbf,0xf8,0xff,0xff,0xdf,0xff,0xff,0x7f,0xfa,0xff,0xff,0xe7,0xff,0xff,
 0x7f,0xf4,0xff,0xff,0xdf,0xff,0xff,0xff,0xfe,0xff,0xff,0xff,0xff,0xff,0xff,
 0xff,0xff,0xff,0xff,0xff,0xff,0xff,0xff,0xff,0xff,0xff,0xff,0xff,0xff,0xff,
 0xff,0xff,0xff,0xff,0xff,0xff,0xff,0xff,0xff,0xff,0xff,0xff,0xff,0xff,0xff,
 0xff,0xff,0xff,0xff,0xff,0xff,0xff,0xff,0xff,0xff,0xff,0xff,0xfe,0xff,0xff,
 0xff,0xff,0xff,0xbf,0xfe,0xff,0xff,0xef,0xff,0xff,0xff,0xfe,0xff,0xff,0xef,
 0xff,0xff,0x7f,0xfc,0xff,0xff,0xef,0xff,0xff,0x7f,0xfc,0xff,0xff,0xef,0xff,
 0xff,0x7f,0xfd,0xff,0xff,0xef,0xff,0xff,0x7f,0xfc,0xff,0xff,0xef,0xff,0xff,
 0x7f,0xfd,0xff,0xff,0xef,0xff,0xff,0x7f,0xfc,0xff,0xff,0xeb,0xff,0xff,0xbf,
 0xfc,0xff,0xff,0xdf,0xff,0xff,0x7f,0xfc,0xff,0xff,0xef,0xff,0xff,0xbf,0xfc,
 0xff,0xff,0xef,0xff,0xff,0x7f,0xfc,0xff,0xff,0xd7,0xff,0xff,0x7f,0xfd,0xff,
 0xff,0xef,0xff,0xff,0x7f,0xfa,0xff,0xff,0xef,0xff,0xff,0x7f,0xfc,0xff,0xff,
 0xdf,0xff,0xff,0xbf,0xfa,0xff,0xff,0xef,0xff,0xff,0xff,0xf4,0xff,0xff,0x7f,
 0xff,0xff,0xff,0xea,0xff,0xff,0x7f,0xff,0xff,0xff,0xe3,0xff,0xff,0xbf,0xff,
 0xff,0xff,0xd5,0xff,0xff,0xff,0xfe,0xff,0xff,0xf7,0xff,0xff,0xff,0xff,0xff,
 0xff,0xbf,0xff,0xff,0xff,0xff,0xff,0xff,0xdf,0xff,0xff,0xff,0xff,0xff,0xff,
 0xff,0xff,0xff,0xff,0xff,0xff,0xff,0xff,0xff,0xff,0xff,0xff,0xff,0xff,0xff,
 0xff,0xff,0xff,0xff,0xff,0xff,0xff,0xff,0xff,0xff,0xff,0xff,0xff,0xff,0xff,
 0xff,0xff,0xff,0xff,0xff,0xff,0xff,0xff,0xff,0xff,0xff,0xff,0xff,0xff,0xff,
 0xff,0xff,0xff,0xff,0xff,0xff,0xff,0xff,0xff,0xff,0xff,0xff,0xff,0xff,0xff,
 0xff,0xff,0xaf,0xaa,0xfe,0xff,0x55,0xf5,0xff,0x5f,0x95,0xfa,0xff,0xff,0xdf,
 0xff,0x2f,0x52,0xf9,0x7f,0xd9,0xb6,0xff,0x8f,0xad,0xfa,0xff,0xf6,0xdf,0xff,
 0x97,0xb6,0xf0,0xff,0xfb,0xab,0xff,0x0f,0x55,0xfa,0xff,0xac,0xde,0xff,0xa7,
 0x54,0xf1,0xff,0xd7,0xaa,0xff,0x17,0x02,0xf8,0xff,0xb4,0xaa,0xff,0x8d,0x54,
 0xf2,0x7f,0xab,0xd5,0xff,0x43,0x82,0xe8,0xbf,0xdd,0x6a,0xff,0x29,0x11,0xf4,
 0xaf,0xb6,0xda,0xff,0x05,0x8a,0xea,0x7f,0x6b,0xeb,0xff,0xaa,0x24,0xfa,0xff,
 0xbd,0xb1,0xff,0x57,0x09,0xfa,0xff,0xd6,0xed,0xff,0x8f,0x14,0xfd,0xff,0x7b,
 0xf5,0xff,0x2f,0x25,0xfa,0x7f,0xed,0xdb,0xff,0x8f,0x9a,0xfa,0xff,0xfa,0xff,
 0xff,0x4f,0xab,0xfa,0xff,0xdd,0xee,0xff,0x17,0xed,0xfe,0xff,0xf7,0xff,0xff,
 0x4f,0xb5,0xff,0xff,0x5a,0xff,0xff,0xaf,0xea,0xff,0xff,0xef,0xff,0xff,0x3f,
 0xf4,0xff,0xff,0xb7,0xff,0xff,0x5f,0xe9,0xff,0xff,0xcf,0xff,0xff,0x7f,0xf4,
 0xff,0xff,0x7f,0xff,0xff,0xbf,0xfa,0xff,0xff,0xff,0xff,0xff,0xff,0xfe,0xff,
 0xff,0xff,0xff,0xff,0xff,0xff,0xff,0xff,0xff,0xff,0xff,0xff,0xff,0xff,0xff,
 0xff,0xff,0xff,0xff,0xff,0xff,0xff,0xff,0xff,0xff,0xff,0xff,0xff,0xff,0xff,
 0xff,0xff,0xff,0xff,0xff,0xff,0xff,0xff,0xff,0xff,0xff,0xff,0xff,0xff,0xff,
 0xff,0xff,0xaf,0xff,0xff,0xff,0xff,0xff,0xff,0xb7,0xff,0xff,0xff,0xfa,0xff,
 0xff,0x4b,0xff,0xff,0x7f,0xff,0xff,0xff,0xa5,0xff,0xff,0xdf,0xfa,0xff,0xbf,
 0x25,0xff,0x7f,0x75,0xfb,0xff,0x41,0x95,0xfe,0x5f,0xad,0xf5,0xff,0x01,0x08,
 0xff,0xbf,0xd5,0xfa,0xff,0x4a,0x25,0xfe,0xff,0x7a,0xf7,0xff,0x15,0x92,0xfe,
 0xff,0xcf,0xfb,0xff,0x97,0xa8,0xfa,0xff,0xea,0xde,0xff,0x4f,0x56,0xfd,0xff,
 0xaf,0xf7,0xff,0x3f,0xb8,0xfa,0xff,0xeb,0xdf,0xff,0xff,0xec,0xfa,0xff,0xdf,
 0xff,0xff,0x3f,0xfa,0xfb,0xff,0xef,0xff,0xff,0x7f,0xe9,0xfd,0xff,0x7f,0xff,
 0xff,0xff,0xed,0xff,0xff,0xbf,0xff,0xff,0x7f,0xe5,0xff,0xff,0xff,0xfe,0xff,
 0xff,0xdb,0xff,0xff,0xff,0xff,0xff,0xff,0xab,0xff,0xff,0xff,0xfd,0xff,0xff,
 0xef,0xff,0xff,0xff,0xff,0xff,0xff,0x5b,0xff,0xff,0xff,0xff,0xff,0xff,0xff,
 0xff,0xff,0xff,0xff,0xff,0xff,0xbf,0xff,0xff,0xff,0xff,0xff,0xff,0xff,0xff,
 0xff,0xff,0xff,0xff,0xff,0xff,0xff,0xff,0xff,0xff,0xff,0xff,0xff,0xff,0xff,
 0xff,0xff,0xff,0xff,0xff,0xff,0xff,0xff,0xff,0xff,0xff,0xff,0xff,0xff,0xff,
 0xff,0xff,0xff,0xff,0xff,0xff,0xff,0xff,0xff,0xff,0xff,0xff,0xff,0x7f,0xff,
 0xff,0xff,0xe7,0xff,0xff,0xbd,0xff,0xff,0x9f,0xf3,0xff,0xff,0xff,0xfe,0xff,
 0xaf,0xc5,0xff,0xff,0x5a,0xff,0xff,0x97,0xe2,0xff,0xff,0xbd,0xfe,0xff,0x4f,
 0xd3,0xff,0xff,0xba,0xfe,0xff,0x0f,0xc5,0xff,0xff,0x7b,0xff,0xff,0xa7,0xd1,
 0xff,0xff,0x5c,0xfd,0xff,0x8f,0x42,0xff,0xff,0x55,0xfe,0xff,0x8a,0x64,0xff,
 0x57,0xba,0xfa,0x3f,0x05,0x41,0xfd,0xef,0x29,0xd5,0xbf,0x44,0x80,0xfa,0x7b,
 0xb5,0xfe,0xbf,0x0a,0x45,0xfd,0xef,0xba,0xfa,0x7f,0x47,0xa1,0xfe,0xff,0x6d,
 0xff,0xff,0x17,0xa5,0xff,0x7f,0x7d,0xfd,0xff,0x8f,0x53,0xff,0xff,0xbb,0xf7,
 0xff,0xaf,0x4a,0xff,0xff,0xfd,0xfd,0xff,0x8f,0x55,0xff,0x7f,0x75,0xfb,0xff,
 0x4f,0x2b,0xff,0xff,0xfd,0xff,0xff,0x97,0x9f,0xfe,0xff,0xff,0xf5,0xff,0x4f,
 0x5f,0xff,0xff,0xfa,0xfb,0xff,0x97,0x2f,0xfe,0xff,0xfd,0xff,0xff,0xdf,0xff,
 0xff,0xff,0xff,0xff,0xff,0xaf,0xff,0xfa,0xff,0xff,0xdf,0xff,0xdf,0xff,0xfd,
 0xff,0xff,0xff,0xff,0xff,0xff,0xff,0xff,0xff,0xff,0xff,0xff,0xff,0xff,0xff,
 0xff,0xff,0xff,0xff,0xff,0xff,0xff,0xff,0xff,0xff,0xff,0xff,0xff,0xff,0xff,
 0xff,0xff,0xff,0xff,0xff,0xff,0xff,0xff,0xff,0xff,0xff,0xff,0xff,0xff,0xff,
 0xff,0xff,0xfe,0xff,0xff,0xef,0xff,0xff,0x7f,0xfd,0xff,0xff,0xf7,0xff,0xff,
 0x7f,0xfc,0xff,0xff,0xdf,0xff,0xff,0x7f,0xfa,0xff,0xff,0xe7,0xff,0xff,0xbf,
 0xf8,0xff,0xff,0xdb,0xff,0xff,0x5b,0xfc,0xff,0x7f,0xa7,0xff,0xff,0x2a,0x48,
 0xff,0x9f,0xad,0xf5,0xff,0xa1,0x24,0xfe,0xaf,0xc6,0xf6,0xff,0x10,0x10,0xfd,
 0x5f,0x6b,0xeb,0x7f,0x41,0x4a,0xfd,0x5f,0xd7,0xfd,0xff,0x34,0x28,0xfd,0xbf,
 0xcf,0xeb,0xff,0xa9,0x2c,0xfd,0x5f,0xe5,0xfe,0xff,0x20,0x94,0xfc,0x2f,0x57,
 0xeb,0xff,0x51,0x28,0xfe,0xbf,0xa5,0xf5,0xff,0x01,0x80,0xfa,0xdf,0xae,0xeb,
 0xff,0x6a,0x2a,0xfe,0xbf,0xd7,0xfe,0xff,0x35,0xb8,0xff,0xff,0xef,0xff,0xff,
 0xbb,0x5c,0xfd,0xff,0xd7,0xff,0xff,0x7f,0xf4,0xff,0xff,0xef,0xff,0xff,0xbf,
 0xfc,0xff,0xff,0xd7,0xff,0xff,0x7f,0xfa,0xff,0xff,0xef,0xff,0xff,0xbf,0xfc,
 0xff,0xff,0xff,0xff,0xff,0x7f,0xfd,0xff,0xff,0xef,0xff,0xff,0xff,0xfe,0xff,
 0xff,0xff,0xff,0xff,0xff,0xfe,0xff,0xff,0xff,0xff,0xff,0xff,0xff,0xff,0xff,
 0xff,0xff,0xff,0xff,0xff,0xff,0xff,0xff,0xff,0xff,0xff,0xff,0xff,0xff,0xff,
 0xff,0xff,0xff,0xff,0xff,0xff,0xff,0xff,0xff,0xff,0xff,0xff,0xff,0xff,0xff,
 0xff,0xff,0xff,0xff,0xff,0xff,0xff,0xff,0xff,0xff,0xff,0xff,0xff,0xff,0xff,
 0xff,0xef,0xff,0xff,0x7f,0xff,0xff,0xff,0xd7,0xff,0xff,0xff,0xfd,0xff,0xff,
 0x53,0xff,0xff,0xbf,0xfe,0xff,0xff,0x45,0xfd,0xff,0x7f,0xf5,0xff,0xff,0x53,
 0xff,0xff,0x7f,0xff,0xff,0xff,0x85,0xfe,0xff,0xff,0xf2,0xff,0xff,0x2b,0xff,
 0xff,0xff,0xfb,0xff,0xff,0x97,0xfe,0xff,0x5f,0xf5,0xff,0xff,0x01,0xfe,0xff,
 0x7f,0xfd,0xff,0x7f,0x55,0xff,0xff,0x5f,0xf5,0xff,0xff,0x02,0xfd,0xff,0x7f,
 0xfb,0xff,0xff,0xa5,0xfe,0xff,0x5f,0xed,0xff,0xff,0x43,0xfd,0xff,0x7f,0xfd,
 0xff,0xff,0x92,0xfe,0xff,0xbf,0xea,0xff,0xff,0x45,0xfa,0xff,0x7f,0xdb,0xff,
 0xff,0x13,0xfa,0xff,0xff,0xed,0xff,0xff,0x85,0xfa,0xff,0x2f,0xf5,0xff,0x2f,
 0x25,0xfd,0xbf,0xf5,0xda,0xff,0xb5,0x10,0xfd,0x7f,0x97,0xfd,0xff,0x0a,0x8a,
 0xfe,0xff,0xfd,0xf7,0xff,0x6b,0x69,0xfd,0xdf,0xef,0xff,0xff,0xaa,0xbe,0xff,
 0x7f,0xff,0xdf,0xff,0xef,0xff,0xf9,0xff,0xff,0xff,0xff,0xf7,0xff,0xff,0xff,
 0xff,0xff,0xff,0xff,0xff,0xff,0xff,0xff,0xff,0xff,0xff,0xff,0xff,0xff,0xff,
 0xff,0xff,0xff,0xff,0xff,0xff,0xff,0xff,0xff,0xff,0xff,0xff,0xff,0xff,0xff,
 0xff,0xff,0xff,0xff,0xff,0xff,0xff,0xff,0xff,0xff,0xff,0xff,0xff,0xff,0xff,
 0xff,0xfd,0xff,0xff,0xef,0xff,0xff,0xbf,0xfe,0xff,0xff,0xff,0xff,0xff,0x7f,
 0xf9,0xff,0xff,0xcf,0xff,0xff,0x7f,0xfc,0xff,0xff,0xeb,0xff,0xff,0x7f,0xf4,
 0xff,0xff,0xaf,0xff,0xff,0x2b,0xd8,0xff,0xaf,0xa2,0xfd,0xff,0x21,0xa2,0xfe,
 0x3f,0x8b,0xf6,0xff,0x08,0x28,0xfd,0x9f,0x6a,0xfb,0xff,0x50,0x80,0xfe,0xbf,
 0xd7,0xee,0xff,0xa2,0xd4,0xfe,0xaf,0xbe,0xff,0xff,0x51,0x52,0xff,0xbf,0x6f,
 0xfd,0xff,0x68,0xd5,0xff,0x5f,0xbf,0xff,0xff,0xb3,0xa2,0xff,0xbf,0xfb,0xfe,
 0xff,0xd0,0xd3,0xff,0x7f,0x5f,0xff,0xff,0x6b,0xe5,0xff,0xdf,0x7d,0xfd,0xff,
 0xa9,0xa2,0xff,0x7f,0xb7,0xff,0xff,0x55,0xd5,0xff,0xff,0xfd,0xfe,0xff,0x0b,
 0xd5,0xff,0xff,0xd5,0xfb,0xff,0xa7,0xaa,0xfe,0xff,0xfa,0xff,0xff,0x17,0x3d,
 0xff,0xff,0xed,0xeb,0xff,0x8f,0x5e,0xfd,0xff,0xff,0xff,0xff,0x5f,0x7f,0xff,
 0xff,0xff,0xff,0xff,0xff,0xff,0xff,0xff,0xff,0xff,0xff,0xff,0xff,0xff,0xff,
 0xff,0xff,0xff,0xff,0xff,0xff,0xff,0xff,0xff,0xff,0xff,0xff,0xff,0xff,0xff,
 0xff,0xff,0xff,0xff,0xff,0xff,0xff,0xff,0xff,0xff,0xff,0xff,0xff,0xff,0xff,
 0xff,0xff,0xff,0xff,0xff,0xff,0xff,0xff,0xff,0xff,0xff,0xff,0xff,0xff,0xff,
 0xff,0xff,0xff,0xff,0xff,0xff,0xff,0xff,0xff,0xff,0xff,0xff,0xff,0xff,0xff,
 0xff,0xff,0xff,0xff,0xff,0xff,0xf7,0xff,0xff,0xbf,0xff,0xff,0xff,0x51,0x9f,
 0xfe,0xdf,0xfe,0xf5,0xff,0xea,0x5b,0xfe,0xbf,0xff,0xfb,0xff,0xb1,0x5f,0xfd,
 0xdf,0xfe,0xef,0xff,0xea,0x3e,0xfd,0xbf,0xff,0xf7,0xff,0xd1,0x57,0xfd,0x7f,
 0xff,0xdd,0xff,0x6a,0xaf,0xfa,0xaf,0xfb,0xf7,0xff,0xe9,0x3f,0xfd,0x7f,0xff,
 0xfb,0xff,0xb1,0x5b,0xfd,0xbf,0xff,0xdf,0xff,0xea,0x2f,0xfa,0xdf,0xfe,0xf5,
 0xff,0x69,0xbf,0xfd,0xbf,0xf7,0xef,0xff,0xe1,0x57,0xfc,0x5f,0xdf,0xf5,0xff,
 0xb5,0x2e,0xfb,0xbf,0xff,0xdb,0xff,0xa1,0x15,0xfd,0x7f,0x75,0xf5,0xff,0x54,
 0x95,0xfc,0x5f,0xdf,0xf7,0xff,0x43,0x15,0xfd,0xff,0xfd,0xed,0xff,0xb4,0x5b,
 0xfd,0xbf,0xff,0xfb,0xff,0xeb,0x5f,0xfe,0xdf,0xff,0xff,0xff,0xf2,0x7f,0xfb,
 0xff,0xff,0xff,0xff,0xff,0xbf,0xff,0xff,0xff,0xff,0xff,0xff,0xff,0xff,0xff,
 0xff,0xff,0xff,0xff,0xff,0xff,0xff,0xff,0xff,0xff,0xff,0xff,0xff,0xff,0xff,
 0xff,0xff,0xff,0xff,0xff,0xff,0xff,0xff,0xff,0xff,0xff,0xff,0xff,0xff,0xff,
 0xff,0xff,0xff,0xff,0xff,0xff,0xff,0xff,0xff,0xff,0xff,0xff,0xff,0xff,0xff,
 0xff,0xff,0xff,0xff,0xff,0xff,0xff,0xff,0xff,0xff,0xff,0xff,0xff,0xff,0xff,
 0xff,0xff,0xff,0xff,0xff,0xff,0xdb,0xfe,0xff,0x7f,0xed,0xff,0xff,0x55,0x53,
 0xfd,0xbf,0xb6,0xea,0xff,0x02,0x09,0xfa,0x5f,0x59,0xb5,0xff,0x41,0xa2,0xf4,
 0xff,0xb6,0xfe,0xff,0x17,0x91,0xfa,0xff,0x5b,0xf7,0xff,0x57,0x64,0xff,0xff,
 0xb7,0xfe,0xff,0x5f,0xd1,0xff,0xff,0x6f,0xff,0xff,0xaf,0xc2,0xff,0xff,0x5f,
 0xfd,0xff,0xff,0x65,0xff,0xff,0x7f,0xff,0xff,0xff,0xd2,0xff,0xff,0xbf,0xfe,
 0xff,0xff,0xe3,0xff,0xff,0x7f,0xff,0xff,0xff,0xd3,0xff,0xff,0xff,0xff,0xff,
 0xff,0xe5,0xff,0xff,0xbf,0xfe,0xff,0xff,0xd7,0xff,0xff,0xff,0xff,0xff,0xff,
 0xd3,0xff,0xff,0xff,0xfe,0xff,0xff,0xaf,0xff,0xff,0xff,0xff,0xff,0xff,0xb7,
 0xff,0xff,0xff,0xfb,0xff,0xff,0xbf,0xfe,0xff,0xff,0xff,0xff,0xff,0x5f,0xff,
 0xff,0xff,0xfb,0xff,0xff,0x7f,0xff,0xff,0xff,0xff,0xff,0xff,0xff,0xff,0xff,
 0xff,0xff,0xff,0xff,0xff,0xff,0xff,0xff,0xff,0xff,0xff,0xff,0xff,0xff,0xff,
 0xff,0xff,0xff,0xff,0xff,0xff,0xff,0xff,0xff,0xff,0xff,0xff,0xff,0xff,0xff,
 0xff,0xff,0xff,0xff,0xff,0xff,0xff,0xff,0xff,0xff,0xff,0xff,0xff,0xff,0xff,
 0xff,0xff,0xff,0xff,0xff,0xff,0xff,0xff,0xff,0xff,0xff,0xff,0xff,0xff,0xbf,
 0x9c,0xfe,0xff,0xd7,0xf5,0xff,0x7f,0x5a,0xfe,0xff,0xef,0xf7,0xff,0xbf,0x2c,
 0xfd,0xff,0xdb,0xed,0xff,0x7f,0x3a,0xfd,0xff,0xef,0xfb,0xff,0x5f,0x98,0xfa,
 0xff,0xab,0xd7,0xff,0x77,0x4c,0xfc,0xff,0xd7,0xea,0xff,0x1f,0x28,0xf2,0xff,
 0x4a,0xab,0xff,0xa5,0x08,0xf9,0xff,0xd7,0xd5,0xff,0x17,0x52,0xe8,0xff,0x6b,
 0xbb,0xff,0x5f,0x14,0xfa,0xff,0xd7,0xed,0xff,0x7f,0xa8,0xfa,0xff,0xdf,0xf7,
 0xff,0xbf,0x2c,0xfd,0xff,0xe7,0xdb,0xff,0x7f,0xaa,0xfa,0xff,0xdf,0xf6,0xff,
 0x7f,0x38,0xfd,0xff,0xeb,0xdb,0xff,0xbf,0x4c,0xfa,0xff,0xcf,0xff,0xff,0x7f,
 0x3a,0xfd,0xff,0xef,0xeb,0xff,0x7f,0x94,0xfa,0xff,0xd7,0xf6,0xff,0x7f,0x5a,
 0xfd,0xff,0xef,0xdb,0xff,0x7f,0x14,0xfd,0xff,0xaf,0xf6,0xff,0x7f,0x54,0xfc,
 0xff,0xd7,0xf5,0xff,0x7f,0x08,0xfe,0xff,0xef,0xfb,0xff,0xbf,0xaa,0xfd,0xff,
 0xff,0xef,0xff,0xff,0xbe,0xfe,0xff,0xff,0xff,0xff,0xff,0xff,0xff,0xff,0xff,
 0xff,0xff,0xff,0xff,0xff,0xff,0xff,0xff,0xff,0xff,0xff,0xff,0xff,0xff,0xff,
 0xff,0xff,0xff,0xff,0xff,0xff,0xff,0xff,0xff,0xff,0xff,0xff,0xff,0xff,0xff,
 0xff,0xff,0xff,0xff,0xff,0xff,0xff,0xff,0xff,0xff,0xff,0xff,0xff,0xff,0xfb,
 0xff,0xff,0x7f,0xff,0xff,0xff,0xa5,0xff,0xff,0xaf,0xfd,0xff,0xff,0xa9,0xeb,
 0xff,0xbf,0x77,0xff,0xff,0x52,0x95,0xfe,0xff,0xde,0xe9,0xff,0xab,0x2a,0xf2,
 0xff,0x6b,0x55,0xff,0x56,0x00,0xd4,0x7f,0xaf,0xeb,0xff,0x2b,0x15,0xf1,0xff,
 0xf5,0xb5,0xff,0xaf,0xac,0xfc,0xff,0xdf,0xff,0xff,0x57,0x2a,0xf6,0xff,0xea,
 0xd6,0xff,0x17,0xbd,0xfa,0xff,0xf5,0xff,0xff,0x4f,0xdd,0xfa,0xbf,0xde,0xbf,
 0xff,0x25,0xfa,0xfa,0xff,0xf5,0xef,0xff,0x4b,0xfd,0xf9,0x5f,0xff,0xbf,0xff,
 0x29,0xdd,0xf4,0x7f,0xd7,0xdf,0xff,0xe1,0xfa,0xfa,0xaf,0xff,0xbf,0xff,0x74,
 0x7e,0xf1,0xff,0xd7,0xdf,0xff,0xb7,0xfa,0xf9,0xff,0xef,0xaf,0xff,0x7d,0xfc,
 0xf8,0xff,0xb7,0xdf,0xff,0xbf,0x6c,0xf5,0xff,0xdf,0xf5,0xff,0xff,0x92,0xf8,
 0xff,0x6f,0xad,0xff,0xbf,0x08,0xfd,0xff,0xbf,0xf5,0xff,0x7f,0x25,0xfc,0xff,
 0xff,0xfe,0xff,0xff,0x95,0xff,0xff,0xff,0xfb,0xff,0xff,0x77,0xff,0xff,0xff,
 0xff,0xff,0xff,0xff,0xff,0xff,0xff,0xff,0xff,0xff,0xff,0xff,0xff,0xff,0xff,
 0xff,0xff,0xff,0xff,0xff,0xff,0xff,0xff,0xff,0xff,0xff,0xff,0xff,0xff,0xff,
 0xff,0xff,0xff,0xff,0xff,0xff,0xff,0xff,0xff,0xff,0xff,0xff,0xff,0xff,0xff,
 0xff,0xff,0xff,0xff,0xff,0xff,0xff,0xff,0xff,0xff,0xff,0xff,0xff,0xbf,0xff,
 0xff,0xff,0xfd,0xff,0xff,0xdf,0xfe,0xff,0xff,0xf7,0xff,0xff,0xaf,0xfe,0xfa,
 0xff,0xff,0xdf,0xff,0x5f,0x5a,0xf9,0xff,0xd7,0xaf,0xff,0x2f,0xbd,0xf4,0xff,
 0xed,0xfb,0xff,0x7f,0x5a,0xfa,0xff,0xd7,0xed,0xff,0x5f,0x2c,0xfd,0xff,0xef,
 0xf7,0xff,0xbf,0xb8,0xfa,0xff,0xaf,0xfa,0xff,0x7f,0x0a,0xff,0xff,0xd7,0xff,
 0xff,0xbf,0xd0,0xfe,0xff,0x3f,0xf5,0xff,0xff,0x44,0xff,0xff,0xaf,0xfe,0xff,
 0x3f,0xa1,0xff,0xff,0xb7,0xfe,0xff,0xff,0xc4,0xff,0xff,0x2f,0xfd,0xff,0x5f,
 0x50,0xff,0xff,0xbb,0xfe,0xff,0x7f,0xa1,0xff,0xff,0xd6,0xf5,0xff,0x05,0x8a,
 0xfe,0xbf,0xea,0xfa,0xff,0x8b,0x14,0xfe,0xff,0xfa,0xf7,0xff,0x05,0x55,0xff,
 0xbf,0xef,0xfd,0xff,0xd5,0x5e,0xfd,0xff,0xfe,0xf7,0xff,0xd5,0xff,0xfb,0xdf,
 0xff,0xff,0xff,0xfb,0x7f,0xfd,0xff,0xff,0xff,0xff,0xfb,0xff,0xff,0xff,0xff,
 0xff,0xff,0xff,0xff,0xff,0xff,0xff,0xff,0xff,0xff,0xff,0xff,0xff,0xff,0xff,
 0xff,0xff,0xff,0xff,0xff,0xff,0xff,0xff,0xff,0xff,0xff,0xff,0xff,0xff,0xff,
 0xff,0xff,0xff,0xff,0xff,0xff,0xff,0xff,0xff,0xff,0xff,0xff,0xff,0xff,0xff,
 0xff,0xff,0xff,0xff,0xff,0xff,0xff,0xff,0xff,0xff,0xff,0xff,0xff,0xff,0xff,
 0xff,0xff,0xff,0xff,0xff,0xff,0xff,0xff,0xff,0xff,0xff,0x7f,0xe9,0xff,0xff,
 0x57,0xff,0xff,0xbf,0xd2,0xff,0xff,0xbf,0xfd,0xff,0xbf,0xc8,0xff,0xff,0xdf,
 0xfe,0xff,0xff,0xa2,0xff,0xff,0x7f,0xff,0xff,0xff,0x95,0xff,0xff,0xdf,0xfd,
 0xff,0xff,0xa3,0xff,0xff,0xff,0xfa,0xff,0xff,0x4a,0xff,0xfa,0x7f,0xfd,0xdf,
 0xff,0x87,0xff,0xfa,0x7f,0xf9,0xef,0xff,0x0b,0x3f,0xf9,0xff,0xfd,0xfb,0xff,
 0x8f,0x5d,0xfd,0xff,0xf6,0xef,0xff,0xa7,0xbe,0xfe,0xff,0xfb,0xfb,0xff,0x9f,
 0x2a,0xff,0xff,0xd6,0xff,0xff,0x4f,0xbe,0xff,0xff,0xef,0xff,0xff,0x7f,0xf8,
 0xff,0xff,0xab,0xff,0xff,0x3f,0xfc,0xff,0xff,0xef,0xff,0xff,0xff,0xea,0xff,
 0xff,0xbf,0xfe,0xff,0x7f,0xe9,0xff,0xff,0xff,0xff,0xff,0xff,0xd5,0xff,0xff,
 0xff,0xfe,0xff,0xff,0xd7,0xff,0xff,0xbf,0xff,0xff,0xff,0x55,0xff,0xff,0xff,
 0xfb,0xff,0xff,0x2f,0xff,0xff,0xff,0xfd,0xff,0xff,0x5f,0xff,0xff,0xff,0xff,
 0xff,0xff,0xff,0xfd,0xff,0xff,0xff,0xff,0xff,0xff,0xff,0xff,0xff,0xff,0xff,
 0xff,0xff,0xfd,0xff,0xff,0xff,0xff,0xff,0xff,0xff,0xff,0xff,0xff,0xff,0xff,
 0xff,0xff,0xff,0xff,0xff,0xff,0xff,0xff,0xff};
