#define matrix_width 77
#define matrix_height 768
static char matrix_bits[] = {
 0xff,0xff,0xff,0xff,0xff,0xff,0xff,0xff,0xff,0xff,0xff,0xff,0xff,0xff,0xff,
 0xff,0xff,0xff,0xff,0xff,0xff,0xff,0xff,0xff,0xff,0xff,0xff,0xff,0xff,0xff,
 0xff,0xff,0xff,0xff,0xff,0xff,0xff,0xff,0xff,0xff,0xff,0xff,0xff,0xff,0xff,
 0xff,0xff,0xff,0xff,0xff,0xff,0xff,0xff,0xff,0xff,0xff,0xff,0xef,0xfd,0xff,
 0xff,0xff,0xff,0xff,0xf7,0xfe,0xff,0x17,0xf0,0xff,0xff,0xff,0xff,0xff,0x9b,
 0xfa,0xff,0x07,0xc0,0xff,0xff,0xff,0xff,0xff,0x6b,0xfb,0xff,0x83,0xe0,0xff,
 0xff,0xff,0xff,0xff,0xf5,0xf6,0xff,0x83,0x86,0xff,0xff,0xff,0xff,0xff,0xfb,
 0xf5,0xff,0x82,0xc3,0xff,0xff,0xff,0xff,0xff,0xea,0xe7,0xff,0xc1,0x86,0xff,
 0xff,0xff,0xff,0xff,0xfb,0xf7,0xff,0xa0,0x07,0xff,0xff,0xff,0xff,0xbf,0xfa,
 0xf7,0xff,0xc0,0x85,0xff,0xff,0xff,0xff,0xff,0xf6,0xeb,0xff,0x40,0x07,0xff,
 0xff,0xff,0xff,0xff,0xfa,0xeb,0xff,0xc0,0x87,0xfe,0xff,0xff,0xff,0x7f,0xed,
 0xef,0xff,0x60,0x03,0xff,0xff,0xff,0xff,0xff,0xbb,0xf3,0xff,0x80,0x87,0xff,
 0xff,0xff,0xff,0xff,0xfa,0xed,0xff,0xc1,0x85,0xff,0xff,0xff,0xff,0xff,0xf5,
 0xf7,0xff,0x40,0x87,0xff,0xff,0xff,0xff,0xff,0xfb,0xeb,0xff,0xa3,0x85,0xff,
 0xff,0xff,0xff,0xff,0xe9,0xf5,0xff,0x82,0xc3,0xff,0xff,0xff,0xff,0xff,0xb7,
 0xf7,0xff,0x43,0x85,0xff,0xff,0xff,0xff,0xff,0x7b,0xfd,0xff,0x8f,0xe0,0xff,
 0xff,0xff,0xff,0xff,0xdf,0xfe,0xff,0x2f,0xf8,0xff,0xff,0xff,0xff,0xff,0xf7,
 0xff,0xff,0xbf,0xfa,0xff,0xff,0xff,0xff,0xff,0x7f,0xff,0xff,0xff,0xff,0xff,
 0xff,0xff,0xff,0xff,0xff,0xff,0xff,0xff,0xff,0xff,0xff,0xff,0xff,0xff,0xff,
 0xff,0xff,0xff,0xff,0xff,0xff,0xff,0xff,0xff,0xff,0xff,0xff,0xff,0xff,0xff,
 0xff,0xff,0xff,0xff,0xff,0xff,0xff,0xff,0xff,0xff,0xff,0xff,0xff,0xff,0xff,
 0xff,0xff,0xff,0xff,0xff,0xff,0xff,0xff,0xff,0xff,0xff,0xff,0xff,0xff,0xff,
 0xff,0xff,0xff,0xff,0xff,0xff,0xff,0xbf,0xfe,0xff,0xff,0xff,0xff,0xff,0x9f,
 0xfe,0xff,0x3f,0xe8,0xff,0xff,0xff,0xff,0xff,0x4f,0xfb,0xff,0x1f,0xd0,0xff,
 0xff,0xff,0xff,0xff,0x97,0xfe,0xff,0x1f,0xf4,0xff,0xff,0xff,0xff,0xff,0x9f,
 0xff,0xff,0x3f,0xf8,0xff,0xff,0xff,0xff,0xff,0x8f,0xff,0xff,0x1f,0xfc,0xff,
 0xff,0xff,0xff,0xff,0xd7,0xff,0xff,0x1f,0xfe,0xff,0xff,0xff,0xff,0xff,0x4f,
 0xff,0xff,0x1f,0xfc,0xff,0xff,0xff,0xff,0xff,0x9f,0xff,0xff,0x1f,0xfc,0xff,
 0xff,0xff,0xff,0xff,0x8f,0xff,0xff,0x3f,0xfe,0xff,0xff,0xff,0xff,0xff,0xd7,
 0xff,0xff,0x1f,0xfc,0xff,0xff,0xff,0xff,0xff,0x9f,0xff,0xff,0x1f,0xfe,0xff,
 0xff,0xff,0xff,0xff,0x8f,0xff,0xff,0x1f,0xfc,0xff,0xff,0xff,0xff,0xff,0xaf,
 0xff,0xff,0x1f,0xfc,0xff,0xff,0xff,0xff,0xff,0x97,0xff,0xff,0x1f,0xfe,0xff,
 0xff,0xff,0xff,0xff,0x9f,0xff,0xff,0x1f,0xfc,0xff,0xff,0xff,0xff,0xff,0xcf,
 0xff,0xff,0x1f,0xfe,0xff,0xff,0xff,0xff,0xff,0x4f,0xff,0xff,0x1f,0xfc,0xff,
 0xff,0xff,0xff,0xff,0xaf,0xff,0xff,0x1f,0xfc,0xff,0xff,0xff,0xff,0xff,0xaf,
 0xff,0xff,0x1f,0xfc,0xff,0xff,0xff,0xff,0xff,0x5b,0xff,0xff,0x17,0xfa,0xff,
 0xff,0xff,0xff,0xff,0xff,0xff,0xff,0x7f,0xfd,0xff,0xff,0xff,0xff,0xff,0xff,
 0xff,0xff,0xff,0xff,0xff,0xff,0xff,0xff,0xff,0xff,0xff,0xff,0xff,0xff,0xff,
 0xff,0xff,0xff,0xff,0xff,0xff,0xff,0xff,0xff,0xff,0xff,0xff,0xff,0xff,0xff,
 0xff,0xff,0xff,0xff,0xff,0xff,0xff,0xff,0xff,0xff,0xff,0xff,0xff,0xff,0xff,
 0xff,0xff,0xff,0xff,0xff,0xff,0xff,0xff,0xff,0xff,0xff,0xff,0xff,0xff,0xff,
 0xff,0xff,0x7f,0xff,0xff,0xff,0xff,0xff,0xff,0xef,0xff,0xff,0x47,0xe9,0xff,
 0xff,0xff,0xff,0xff,0x53,0xf5,0xff,0x83,0xc2,0xff,0xff,0xff,0xff,0xff,0xf5,
 0xf7,0xff,0x03,0xc0,0xff,0xff,0xff,0xff,0xff,0xab,0xfa,0xff,0x83,0x86,0xff,
 0xff,0xff,0xff,0xff,0xfb,0xf7,0xff,0x83,0xc5,0xff,0xff,0xff,0xff,0xff,0xf2,
 0xff,0xff,0x81,0xef,0xff,0xff,0xff,0xff,0xff,0xfb,0xff,0xff,0xc3,0xf6,0xff,
 0xff,0xff,0xff,0xff,0xeb,0xff,0xff,0x82,0xff,0xff,0xff,0xff,0xff,0xff,0xf5,
 0xff,0xff,0x83,0xfe,0xff,0xff,0xff,0xff,0xff,0xb7,0xff,0xff,0x87,0xfe,0xff,
 0xff,0xff,0xff,0xff,0xd7,0xff,0xff,0x07,0xfd,0xff,0xff,0xff,0xff,0xff,0x6d,
 0xff,0xff,0x17,0xfd,0xff,0xff,0xff,0xff,0xff,0xbf,0xff,0xff,0x1f,0xfa,0xff,
 0xff,0xff,0xff,0xff,0x57,0xfd,0xff,0x37,0xf4,0xff,0xff,0xff,0xff,0xff,0xff,
 0xff,0xff,0x5d,0xf0,0xff,0xff,0xff,0xff,0xff,0xaf,0xfa,0xff,0x57,0xd1,0xff,
 0xff,0xff,0xff,0xff,0x7b,0xf5,0xff,0xaa,0xc0,0xff,0xff,0xff,0xff,0xff,0xad,
 0xfa,0xff,0x05,0xc0,0xff,0xff,0xff,0xff,0xff,0xd7,0xf6,0xff,0x03,0xc0,0xff,
 0xff,0xff,0xff,0xff,0x5b,0xfb,0xff,0x07,0xc0,0xff,0xff,0xff,0xff,0xff,0xff,
 0xff,0xff,0xbf,0xf5,0xff,0xff,0xff,0xff,0xff,0xff,0xff,0xff,0xf7,0xff,0xff,
 0xff,0xff,0xff,0xff,0xff,0xff,0xff,0xff,0xff,0xff,0xff,0xff,0xff,0xff,0xff,
 0xff,0xff,0xff,0xff,0xff,0xff,0xff,0xff,0xff,0xff,0xff,0xff,0xff,0xff,0xff,
 0xff,0xff,0xff,0xff,0xff,0xff,0xff,0xff,0xff,0xff,0xff,0xff,0xff,0xff,0xff,
 0xff,0xff,0xff,0xff,0xff,0xff,0xff,0xff,0xff,0xff,0xff,0xff,0xdf,0xfe,0xff,
 0xff,0xff,0xff,0xff,0xab,0xfe,0xff,0x47,0xf1,0xff,0xff,0xff,0xff,0xff,0x75,
 0xfb,0xff,0x83,0xd0,0xff,0xff,0xff,0xff,0xff,0xab,0xfd,0xff,0x03,0xe0,0xff,
 0xff,0xff,0xff,0xff,0xf5,0xfe,0xff,0x83,0xeb,0xff,0xff,0xff,0xff,0xff,0xf3,
 0xfb,0xff,0x83,0xda,0xff,0xff,0xff,0xff,0xff,0xfb,0xff,0xff,0x81,0xeb,0xff,
 0xff,0xff,0xff,0xff,0x6b,0xff,0xff,0x03,0xfd,0xff,0xff,0xff,0xff,0xff,0xd5,
 0xff,0xff,0x87,0xfe,0xff,0xff,0xff,0xff,0xff,0xf3,0xff,0xff,0x03,0xfd,0xff,
 0xff,0xff,0xff,0xff,0x55,0xff,0xff,0x05,0xfe,0xff,0xff,0xff,0xff,0xff,0xeb,
 0xff,0xff,0x03,0xfc,0xff,0xff,0xff,0xff,0xff,0xb7,0xff,0xff,0x41,0xff,0xff,
 0xff,0xff,0xff,0xff,0xfa,0xff,0x7f,0x81,0xfd,0xff,0xff,0xff,0xff,0xff,0xfa,
 0xff,0xff,0xc0,0xff,0xff,0xff,0xff,0xff,0x7f,0xef,0xff,0xff,0xa1,0xee,0xff,
 0xff,0xff,0xff,0xff,0xf9,0xfb,0xff,0xc1,0xc5,0xff,0xff,0xff,0xff,0xff,0xf7,
 0xf6,0xff,0x42,0xc3,0xff,0xff,0xff,0xff,0xff,0xbb,0xfb,0xff,0x87,0xc5,0xff,
 0xff,0xff,0xff,0xff,0xef,0xf6,0xff,0x6b,0xd2,0xff,0xff,0xff,0xff,0xff,0x7b,
 0xff,0xff,0x2f,0xe8,0xff,0xff,0xff,0xff,0xff,0xdf,0xfd,0xff,0xdf,0xfa,0xff,
 0xff,0xff,0xff,0xff,0xff,0xff,0xff,0xff,0xff,0xff,0xff,0xff,0xff,0xff,0xff,
 0xff,0xff,0xff,0xff,0xff,0xff,0xff,0xff,0xff,0xff,0xff,0xff,0xff,0xff,0xff,
 0xff,0xff,0xff,0xff,0xff,0xff,0xff,0xff,0xff,0xff,0xff,0xff,0xff,0xff,0xff,
 0xff,0xff,0xff,0xff,0xff,0xff,0xff,0xff,0xff,0xff,0xff,0xff,0xff,0xff,0xff,
 0xff,0xff,0xff,0xff,0xff,0xff,0xff,0xff,0xff,0xff,0xff,0xff,0xff,0xff,0xff,
 0xff,0xff,0x5f,0xff,0xff,0xff,0xff,0xff,0xff,0xd7,0xff,0xff,0x1f,0xfd,0xff,
 0xff,0xff,0xff,0xff,0xaf,0xff,0xff,0x0b,0xfe,0xff,0xff,0xff,0xff,0xff,0x97,
 0xff,0xff,0x17,0xfc,0xff,0xff,0xff,0xff,0xff,0xdb,0xfe,0xff,0x0f,0xf8,0xff,
 0xff,0xff,0xff,0xff,0xaf,0xfe,0xff,0x17,0xf0,0xff,0xff,0xff,0xff,0xff,0x57,
 0xfb,0xff,0x0b,0xe8,0xff,0xff,0xff,0xff,0xff,0x5b,0xfd,0xff,0x17,0xc0,0xff,
 0xff,0xff,0xff,0xff,0xaf,0xf5,0xff,0x17,0xc0,0xff,0xff,0xff,0xff,0xff,0xb7,
 0xf6,0xff,0x0b,0x80,0xff,0xff,0xff,0xff,0xff,0xd5,0xf5,0xff,0x07,0x40,0xff,
 0xff,0xff,0xff,0xff,0x2b,0xeb,0xff,0x05,0x80,0xff,0xff,0xff,0xff,0xff,0xcb,
 0xf5,0xff,0x03,0x80,0xfe,0xff,0xff,0xff,0xff,0x55,0xea,0xff,0x01,0x40,0xff,
 0xff,0xff,0xff,0xff,0x23,0xf7,0xff,0x02,0x00,0xff,0xff,0xff,0xff,0xff,0xdd,
 0xfd,0xff,0x07,0xf4,0xff,0xff,0xff,0xff,0xff,0xef,0xff,0xff,0x2b,0xff,0xff,
 0xff,0xff,0xff,0xff,0xdb,0xff,0xff,0x5f,0xfe,0xff,0xff,0xff,0xff,0xff,0xff,
 0xff,0xff,0x57,0xff,0xff,0xff,0xff,0xff,0xff,0xef,0xff,0xff,0x5f,0xff,0xff,
 0xff,0xff,0xff,0xff,0xff,0xff,0xff,0xff,0xff,0xff,0xff,0xff,0xff,0xff,0xff,
 0xff,0xff,0xff,0xff,0xff,0xff,0xff,0xff,0xff,0xff,0xff,0xff,0xff,0xff,0xff,
 0xff,0xff,0xff,0xff,0xff,0xff,0xff,0xff,0xff,0xff,0xff,0xff,0xff,0xff,0xff,
 0xff,0xff,0xff,0xff,0xff,0xff,0xff,0xff,0xff,0xff,0xff,0xff,0xff,0xff,0xff,
 0xff,0xff,0xff,0xff,0xff,0xff,0xff,0xff,0xff,0xff,0xff,0xff,0xff,0xff,0xff,
 0xff,0xff,0xaf,0xfa,0xff,0xff,0xff,0xff,0xff,0xaf,0xfe,0xff,0x97,0xf0,0xff,
 0xff,0xff,0xff,0xff,0xf5,0xfa,0xff,0x0b,0xe8,0xff,0xff,0xff,0xff,0xff,0x1b,
 0xfd,0xff,0x07,0xe0,0xff,0xff,0xff,0xff,0xff,0xef,0xfa,0xff,0xaf,0xd0,0xff,
 0xff,0xff,0xff,0xff,0xbf,0xfe,0xff,0xbb,0xe8,0xff,0xff,0xff,0xff,0xff,0xff,
 0xfb,0xff,0x6f,0xe3,0xff,0xff,0xff,0xff,0xff,0xb7,0xfc,0xff,0xbf,0xd8,0xff,
 0xff,0xff,0xff,0xff,0xdf,0xf6,0xff,0x0b,0xe0,0xff,0xff,0xff,0xff,0xff,0x2b,
 0xfd,0xff,0x0f,0xe0,0xff,0xff,0xff,0xff,0xff,0xd7,0xfa,0xff,0x03,0xf0,0xff,
 0xff,0xff,0xff,0xff,0xb9,0xff,0xff,0x82,0xfa,0xff,0xff,0xff,0xff,0x7f,0xeb,
 0xff,0xff,0x41,0xff,0xff,0xff,0xff,0xff,0xff,0xfa,0xff,0xff,0x81,0xfd,0xff,
 0xff,0xff,0xff,0xff,0xfb,0xff,0xff,0xc0,0xff,0xff,0xff,0xff,0xff,0xff,0xed,
 0xff,0xff,0xa1,0xfd,0xff,0xff,0xff,0xff,0x7f,0xbb,0xff,0xff,0xa5,0xeb,0xff,
 0xff,0xff,0xff,0xff,0xfd,0xfa,0xff,0x83,0xc5,0xff,0xff,0xff,0xff,0xff,0xf7,
 0xf7,0xff,0xc7,0xe2,0xff,0xff,0xff,0xff,0xff,0xdf,0xfe,0xff,0x57,0xd1,0xff,
 0xff,0xff,0xff,0xff,0xbb,0xfd,0xff,0xbf,0xfa,0xff,0xff,0xff,0xff,0xff,0xff,
 0xff,0xff,0x57,0xf4,0xff,0xff,0xff,0xff,0xff,0xff,0xff,0xff,0xff,0xff,0xff,
 0xff,0xff,0xff,0xff,0xff,0xff,0xff,0xff,0xff,0xff,0xff,0xff,0xff,0xff,0xff,
 0xff,0xff,0xff,0xff,0xff,0xff,0xff,0xff,0xff,0xff,0xff,0xff,0xff,0xff,0xff,
 0xff,0xff,0xff,0xff,0xff,0xff,0xff,0xff,0xff,0xff,0xff,0xff,0xff,0xff,0xff,
 0xff,0xff,0x7f,0xff,0xff,0xff,0xff,0xff,0xff,0xd7,0xff,0xff,0x8f,0xfe,0xff,
 0xff,0xff,0xff,0xff,0xdf,0xff,0xff,0x37,0xfd,0xff,0xff,0xff,0xff,0xff,0x7f,
 0xff,0xff,0x5f,0xfa,0xff,0xff,0xff,0xff,0xff,0xb7,0xfd,0xff,0x7f,0xf1,0xff,
 0xff,0xff,0xff,0xff,0xff,0xfe,0xff,0xbf,0xf8,0xff,0xff,0xff,0xff,0xff,0x7f,
 0xf5,0xff,0xef,0xc1,0xff,0xff,0xff,0xff,0xff,0xff,0xf7,0xff,0xbf,0x82,0xff,
 0xff,0xff,0xff,0xff,0xaf,0xf2,0xff,0x57,0xc1,0xff,0xff,0xff,0xff,0xff,0x75,
 0xe9,0xff,0x07,0x80,0xff,0xff,0xff,0xff,0xff,0x53,0xe5,0xff,0x03,0x80,0xff,
 0xff,0xff,0xff,0xff,0xbb,0xf3,0xff,0x43,0x81,0xff,0xff,0xff,0xff,0xff,0xed,
 0xf5,0xff,0x81,0x82,0xff,0xff,0xff,0xff,0xff,0xf6,0xf7,0xff,0xa0,0xc7,0xff,
 0xff,0xff,0xff,0x7f,0xfb,0xeb,0xff,0xc1,0x82,0xff,0xff,0xff,0xff,0xff,0x7a,
 0xf7,0xff,0xa0,0x87,0xff,0xff,0xff,0xff,0xff,0xfd,0xf5,0xff,0xa0,0xc5,0xff,
 0xff,0xff,0xff,0xff,0xeb,0xf7,0xff,0x81,0x83,0xff,0xff,0xff,0xff,0xff,0xfb,
 0xf5,0xff,0xc7,0xc2,0xff,0xff,0xff,0xff,0xff,0xed,0xf6,0xff,0x43,0x85,0xff,
 0xff,0xff,0xff,0xff,0x7b,0xff,0xff,0xaf,0xf2,0xff,0xff,0xff,0xff,0xff,0xdf,
 0xfd,0xff,0xb7,0xfa,0xff,0xff,0xff,0xff,0xff,0xff,0xff,0xff,0xbf,0xfa,0xff,
 0xff,0xff,0xff,0xff,0xbf,0xff,0xff,0xff,0xff,0xff,0xff,0xff,0xff,0xff,0xff,
 0xff,0xff,0xff,0xff,0xff,0xff,0xff,0xff,0xff,0xff,0xff,0xff,0xff,0xff,0xff,
 0xff,0xff,0xff,0xff,0xff,0xff,0xff,0xff,0xff,0xff,0xff,0xff,0xff,0xff,0xff,
 0xff,0xff,0xff,0xff,0xff,0xff,0xff,0xff,0xff,0xff,0xff,0xff,0xbf,0xff,0xff,
 0xff,0xff,0xff,0xff,0xff,0xff,0xff,0xaf,0xe8,0xff,0xff,0xff,0xff,0xff,0xab,
 0xfa,0xff,0x87,0xd6,0xff,0xff,0xff,0xff,0xff,0xeb,0xf7,0xff,0x03,0x80,0xff,
 0xff,0xff,0xff,0xff,0x53,0xf5,0xff,0x03,0x41,0xff,0xff,0xff,0xff,0xff,0x69,
 0xf7,0xff,0x03,0x80,0xff,0xff,0xff,0xff,0xff,0xd7,0xfd,0xff,0x87,0xd6,0xff,
 0xff,0xff,0xff,0xff,0xfb,0xff,0xff,0x83,0xfa,0xff,0xff,0xff,0xff,0xff,0xab,
 0xff,0xff,0x07,0xfe,0xff,0xff,0xff,0xff,0xff,0xff,0xff,0xff,0x1f,0xfd,0xff,
 0xff,0xff,0xff,0xff,0x97,0xff,0xff,0x2f,0xfe,0xff,0xff,0xff,0xff,0xff,0xdf,
 0xff,0xff,0x3f,0xfa,0xff,0xff,0xff,0xff,0xff,0xef,0xfe,0xff,0x3f,0xfc,0xff,
 0xff,0xff,0xff,0xff,0xbf,0xff,0xff,0x5f,0xfd,0xff,0xff,0xff,0xff,0xff,0xff,
 0xfe,0xff,0xbf,0xfa,0xff,0xff,0xff,0xff,0xff,0xff,0xff,0xff,0xff,0xf1,0xff,
 0xff,0xff,0xff,0xff,0xbf,0xfc,0xff,0xff,0xf9,0xff,0xff,0xff,0xff,0xff,0xff,
 0xff,0xff,0xff,0xf1,0xff,0xff,0xff,0xff,0xff,0xff,0xfc,0xff,0xff,0xea,0xff,
 0xff,0xff,0xff,0xff,0xff,0xfb,0xff,0xff,0xe9,0xff,0xff,0xff,0xff,0xff,0xff,
 0xff,0xff,0xff,0xcb,0xff,0xff,0xff,0xff,0xff,0xff,0xf6,0xff,0xff,0xe7,0xff,
 0xff,0xff,0xff,0xff,0xff,0xff,0xff,0xff,0xcf,0xff,0xff,0xff,0xff,0xff,0xff,
 0xff,0xff,0xff,0xff,0xff,0xff,0xff,0xff,0xff,0xff,0xff,0xff,0xff,0xff,0xff,
 0xff,0xff,0xff,0xff,0xff,0xff,0xff,0xff,0xff,0xff,0xff,0xff,0xff,0xff,0xff,
 0xff,0xff,0xff,0xff,0xff,0xff,0xff,0xff,0xff,0xff,0xff,0xff,0xff,0xff,0xff,
 0xff,0xff,0xff,0xff,0xff,0xff,0xff,0xff,0xff,0xff,0xff,0xff,0xff,0xff,0xff,
 0xff,0xff,0xff,0xff,0xff,0xff,0xff,0xff,0xff,0xff,0xff,0xff,0xff,0xff,0xff,
 0xff,0xff,0xff,0xff,0xff,0xff,0xff,0x7f,0xfd,0xff,0xff,0xff,0xff,0xff,0x7f,
 0xff,0xff,0x5f,0xf5,0xff,0xff,0xff,0xff,0xff,0xd7,0xfb,0xff,0x4f,0xc5,0xff,
 0xff,0xff,0xff,0xff,0xfb,0xf5,0xff,0x83,0x82,0xff,0xff,0xff,0xff,0xff,0x6b,
 0xf7,0xff,0x87,0xc5,0xff,0xff,0xff,0xff,0xff,0xf3,0xeb,0xff,0x43,0x85,0xff,
 0xff,0xff,0xff,0xff,0xdb,0xf5,0xff,0x43,0x83,0xff,0xff,0xff,0xff,0xff,0x75,
 0xeb,0xff,0x87,0xc2,0xff,0xff,0xff,0xff,0xff,0x57,0xf5,0xff,0x03,0x80,0xff,
 0xff,0xff,0xff,0xff,0x2b,0xf1,0xff,0x0f,0x80,0xff,0xff,0xff,0xff,0xff,0xaf,
 0xf4,0xff,0x07,0x80,0xff,0xff,0xff,0xff,0xff,0x53,0xeb,0xff,0x03,0x80,0xff,
 0xff,0xff,0xff,0xff,0x4b,0xf5,0xff,0x07,0x80,0xff,0xff,0xff,0xff,0xff,0xb7,
 0xeb,0xff,0x03,0x40,0xff,0xff,0xff,0xff,0xff,0xeb,0xf6,0xff,0x87,0x86,0xff,
 0xff,0xff,0xff,0xff,0xf5,0xef,0xff,0x83,0x8b,0xfe,0xff,0xff,0xff,0xff,0xf3,
 0xf7,0xff,0x87,0x46,0xff,0xff,0xff,0xff,0xff,0xbb,0xeb,0xff,0x43,0x87,0xff,
 0xff,0xff,0xff,0xff,0xeb,0xeb,0xff,0x87,0x05,0xff,0xff,0xff,0xff,0xff,0xff,
 0xf7,0xff,0x4b,0xc5,0xff,0xff,0xff,0xff,0xff,0xdb,0xfe,0xff,0x6f,0xd5,0xff,
 0xff,0xff,0xff,0xff,0xbf,0xff,0xff,0x5f,0xf5,0xff,0xff,0xff,0xff,0xff,0xff,
 0xfd,0xff,0xff,0xff,0xff,0xff,0xff,0xff,0xff,0xff,0xff,0xff,0xff,0xfd,0xff,
 0xff,0xff,0xff,0xff,0xff,0xff,0xff,0xff,0xff,0xff,0xff,0xff,0xff,0xff,0xff,
 0xff,0xff,0xff,0xff,0xff,0xff,0xff,0xff,0xff,0xff,0xff,0xff,0xff,0xff,0xff,
 0xff,0xff,0xff,0xff,0xff,0xff,0xff,0xff,0xff,0xff,0xff,0xff,0xff,0xff,0xff,
 0xff,0xff,0x7f,0xf9,0xff,0xff,0xff,0xff,0xff,0xbf,0xfe,0xff,0x3f,0xf5,0xff,
 0xff,0xff,0xff,0xff,0xef,0xff,0xff,0x57,0xd5,0xff,0xff,0xff,0xff,0xff,0xbb,
 0xf5,0xff,0x4f,0xc5,0xff,0xff,0xff,0xff,0xff,0xeb,0xf7,0xff,0x03,0x83,0xff,
 0xff,0xff,0xff,0xff,0xf7,0xf7,0xff,0xc7,0x46,0xff,0xff,0xff,0xff,0xff,0x7b,
 0xeb,0xff,0x03,0x87,0xff,0xff,0xff,0xff,0xff,0xeb,0xff,0xff,0xc7,0x8b,0xfe,
 0xff,0xff,0xff,0xff,0xfb,0xeb,0xff,0x83,0x46,0xff,0xff,0xff,0xff,0xff,0xeb,
 0xf7,0xff,0x87,0x8b,0xfe,0xff,0xff,0xff,0xff,0xf3,0xd6,0xff,0x83,0x84,0xff,
 0xff,0xff,0xff,0xff,0x95,0xf5,0xff,0x03,0x42,0xff,0xff,0xff,0xff,0xff,0x6b,
 0xf5,0xff,0x07,0x80,0xff,0xff,0xff,0xff,0xff,0x45,0xf5,0xff,0x03,0xc0,0xff,
 0xff,0xff,0xff,0xff,0xb7,0xff,0xff,0x07,0xd0,0xff,0xff,0xff,0xff,0xff,0xd7,
 0xfe,0xff,0x0f,0xfc,0xff,0xff,0xff,0xff,0xff,0xaf,0xff,0xff,0x17,0xfc,0xff,
 0xff,0xff,0xff,0xff,0xdf,0xfe,0xff,0x5f,0xf4,0xff,0xff,0xff,0xff,0xff,0x6f,
 0xff,0xff,0x3f,0xf8,0xff,0xff,0xff,0xff,0xff,0xbf,0xfd,0xff,0x5f,0xf1,0xff,
 0xff,0xff,0xff,0xff,0xff,0xff,0xff,0xff,0xdd,0xff,0xff,0xff,0xff,0xff,0xff,
 0xfa,0xff,0xff,0xe7,0xff,0xff,0xff,0xff,0xff,0xff,0xff,0xff,0xff,0xfb,0xff,
 0xff,0xff,0xff,0xff,0xff,0xff,0xff,0xff,0xff,0xff,0xff,0xff,0xff,0xff,0xff,
 0xff,0xff,0xff,0xff,0xff,0xff,0xff,0xff,0xff,0xff,0xff,0xff,0xff,0xff,0xff,
 0xff,0xff,0xff,0xff,0xff,0xff,0xff,0xff,0xff,0xff,0xff,0xff,0xff,0xff,0xff,
 0xff,0xff,0xff,0xff,0xff,0xff,0xff,0xff,0xff,0xff,0xff,0xff,0xff,0xff,0xff,
 0xff,0xff,0xff,0xff,0xff,0xff,0xff,0xff,0xff,0xff,0xff,0xff,0xff,0xff,0xff,
 0xff,0xff,0xff,0xff,0xff,0xff,0xff,0xff,0xff,0xff,0xfe,0xff,0xff,0xf9,0xff,
 0xff,0xff,0xff,0xff,0xff,0xfe,0xff,0xff,0xf8,0xff,0xff,0xff,0xff,0xff,0xbf,
 0xfe,0xff,0x7f,0xf1,0xff,0xff,0xff,0xff,0xff,0x7f,0xfd,0xff,0xff,0xf8,0xff,
 0xff,0xff,0xff,0xff,0xff,0xfe,0xff,0xff,0xf1,0xff,0xff,0xff,0xff,0xff,0x7f,
 0xfd,0xff,0xff,0xf0,0xff,0xff,0xff,0xff,0xff,0xff,0xfe,0xff,0xff,0xe9,0xff,
 0xff,0xff,0xff,0xff,0xff,0xfb,0xff,0xff,0xe3,0xff,0xff,0xff,0xff,0xff,0xff,
 0xfe,0xff,0xff,0xda,0xff,0xff,0xff,0xff,0xff,0xff,0xf7,0xff,0xaf,0xc5,0xff,
 0xff,0xff,0xff,0xff,0xdb,0xf7,0xff,0x57,0x87,0xff,0xff,0xff,0xff,0xff,0xff,
 0xfb,0xff,0xa9,0xcd,0xff,0xff,0xff,0xff,0xff,0xf5,0xf7,0xff,0xca,0xc7,0xff,
 0xff,0xff,0xff,0xff,0xde,0xed,0xff,0x60,0x05,0xff,0xff,0xff,0xff,0xbf,0x7a,
 0xab,0xff,0x90,0x02,0xf8,0xff,0xff,0xff,0x7f,0xdd,0x52,0x7f,0xa0,0x00,0xf4,
 0xff,0xff,0xff,0xff,0xb6,0xad,0xff,0x50,0x01,0xf8,0xff,0xff,0xff,0xff,0xfe,
 0xf7,0xff,0xd8,0xab,0xfe,0xff,0xff,0xff,0xbf,0xff,0xff,0xff,0xfd,0xff,0xfb,
 0xff,0xff,0xff,0xff,0xff,0xff,0xff,0xfe,0xff,0xff,0xff,0xff,0xff,0xff,0xff,
 0xff,0xff,0xff,0xff,0xff,0xff,0xff,0xff,0xff,0xff,0xff,0xff,0xff,0xff,0xff,
 0xff,0xff,0xff,0xff,0xff,0xff,0xff,0xff,0xff,0xff,0xff,0xff,0xff,0xff,0xff,
 0xff,0xff,0xff,0xff,0xff,0xff,0xff,0xff,0xff,0xff,0xff,0xff,0xff,0xff,0xff,
 0xff,0xff,0xff,0xff,0xff,0xff,0xff,0xff,0xff,0xff,0xff,0xff,0xff,0xff,0xff,
 0xff,0xff,0x7f,0xff,0xff,0xff,0xff,0xff,0xff,0xff,0xff,0xff,0xbf,0xff,0xff,
 0xff,0xff,0xff,0xff,0xdf,0xff,0xff,0x57,0xfe,0xff,0xff,0xff,0xff,0xff,0xeb,
 0xff,0xff,0x0f,0xfe,0xff,0xff,0xff,0xff,0xff,0xb7,0xff,0xff,0x0f,0xfd,0xff,
 0xff,0xff,0xff,0xff,0x7f,0xff,0xff,0x77,0xfa,0xff,0xff,0xff,0xff,0xff,0xaf,
 0xfd,0xff,0x5f,0xf8,0xff,0xff,0xff,0xff,0xff,0xff,0xfe,0xff,0xbf,0xf1,0xff,
 0xff,0xff,0xff,0xff,0xff,0xf7,0xff,0xff,0x86,0xff,0xff,0xff,0xff,0xff,0xff,
 0xf5,0xff,0xff,0xc3,0xff,0xff,0xff,0xff,0xff,0xff,0xf7,0xff,0xff,0x87,0xff,
 0xff,0xff,0xff,0xff,0xff,0xeb,0xff,0xff,0x87,0xff,0xff,0xff,0xff,0xff,0xff,
 0xf7,0xff,0xff,0x87,0xff,0xff,0xff,0xff,0xff,0xff,0xfe,0xff,0xff,0xc2,0xff,
 0xff,0xff,0xff,0xff,0xff,0xfb,0xff,0xff,0xfb,0xff,0xff,0xff,0xff,0xff,0xbf,
 0xfe,0xff,0xff,0xf0,0xff,0xff,0xff,0xff,0xff,0xff,0xff,0xff,0x5f,0xfa,0xff,
 0xff,0xff,0xff,0xff,0x57,0xff,0xff,0x3f,0xfd,0xff,0xff,0xff,0xff,0xff,0xdf,
 0xff,0xff,0x1f,0xfe,0xff,0xff,0xff,0xff,0xff,0xfb,0xff,0xff,0x8f,0xfe,0xff,
 0xff,0xff,0xff,0xff,0xf7,0xff,0xff,0xc7,0xff,0xff,0xff,0xff,0xff,0xff,0xff,
 0xff,0xff,0xff,0xff,0xff,0xff,0xff,0xff,0xff,0xff,0xff,0xff,0xef,0xff,0xff,
 0xff,0xff,0xff,0xff,0xff,0xff,0xff,0xff,0xff,0xff,0xff,0xff,0xff,0xff,0xff,
 0xff,0xff,0xff,0xff,0xff,0xff,0xff,0xff,0xff,0xff,0xff,0xff,0xff,0xff,0xff,
 0xff,0xff,0xff,0xff,0xff,0xff,0xff,0xff,0xff,0xff,0xff,0xff,0xff,0xff,0xff,
 0xff,0xff,0xff,0xff,0xff,0xff,0xff,0xff,0xff,0xff,0xff,0xff,0xff,0xff,0xff,
 0xff,0xff,0xff,0xff,0xff,0xff,0xff,0xff,0xff,0xff,0xff,0xff,0xff,0xff,0xff,
 0xff,0xff,0xdf,0xfa,0xff,0xff,0xff,0xff,0xff,0x6f,0xfd,0xff,0xaf,0xe8,0xff,
 0xff,0xff,0xff,0xff,0xfb,0xfe,0xff,0x57,0xd1,0xff,0xff,0xff,0xff,0xff,0xbf,
 0xf5,0xff,0xd2,0x50,0xff,0xff,0xff,0xff,0xff,0xfa,0xfa,0xff,0xd5,0xa1,0xfe,
 0xff,0xff,0xff,0xff,0x7f,0xdd,0xff,0xe8,0x90,0xfe,0xff,0xff,0xff,0x7f,0xfd,
 0xed,0xff,0xb4,0xa9,0xfe,0xff,0xff,0xff,0x7f,0xbf,0xbc,0xff,0xf8,0x70,0xfa,
 0xff,0xff,0xff,0xff,0x7e,0xff,0x7f,0xf4,0x91,0xfa,0xff,0xff,0xff,0xff,0xfe,
 0xd5,0xfe,0xf8,0xaa,0xf5,0xff,0xff,0xff,0xbf,0xfe,0x7f,0x7f,0xf4,0x47,0xf1,
 0xff,0xff,0xff,0xff,0xfe,0xeb,0xfd,0xd8,0x85,0xf2,0xff,0xff,0xff,0xff,0xfe,
 0x77,0x7f,0xf0,0x47,0xf5,0xff,0xff,0xff,0x7f,0xfd,0xd7,0xff,0xf8,0x07,0xf5,
 0xff,0xff,0xff,0xff,0xef,0xff,0xfe,0x55,0x17,0xfa,0xff,0xff,0xff,0xff,0x7f,
 0xaf,0xff,0x6f,0x5f,0xfc,0xff,0xff,0xff,0xff,0xf7,0xdf,0xff,0x97,0x3d,0xfe,
 0xff,0xff,0xff,0xff,0xff,0xff,0xff,0xff,0xff,0xfe,0xff,0xff,0xff,0xff,0xff,
 0xff,0xff,0xff,0xff,0xff,0xff,0xff,0xff,0xff,0xff,0xff,0xff,0xff,0xff,0xff,
 0xff,0xff,0xff,0xff,0xff,0xff,0xff,0xff,0xff,0xff,0xff,0xff,0xff,0xff,0xff,
 0xff,0xff,0xff,0xff,0xff,0xff,0xff,0xff,0xff,0xff,0xff,0xff,0xff,0xff,0xff,
 0xff,0xff,0xff,0xff,0xff,0xff,0xff,0xff,0xff,0xff,0xff,0xff,0xff,0xff,0xff,
 0xff,0xff,0xff,0xff,0xff,0xff,0xff,0xff,0xff,0xff,0xff,0xff,0xff,0xff,0xff,
 0xff,0xff,0xff,0xff,0xff,0xff,0xff,0xff,0xff,0xff,0xff,0xff,0xff,0xff,0xff,
 0xff,0xff,0xff,0xff,0xff,0xff,0xff,0xff,0xff,0xff,0xff,0x7f,0x55,0xfd,0xff,
 0xff,0xff,0xff,0xdf,0x56,0xff,0xff,0x2a,0xea,0xff,0xff,0xff,0xff,0xff,0xad,
 0xfb,0x3f,0x09,0xd4,0xff,0xff,0xff,0xff,0xbf,0xd7,0xfe,0xff,0x15,0xe8,0xff,
 0xff,0xff,0xff,0xff,0xaf,0xff,0xff,0x1f,0xfe,0xff,0xff,0xff,0xff,0xff,0xbf,
 0xff,0xbf,0x2a,0xfc,0xff,0xff,0xff,0xff,0xdf,0x4b,0xff,0x7f,0x1f,0xd4,0xff,
 0xff,0xff,0xff,0x6f,0xdf,0xfd,0x1f,0x12,0xfa,0xff,0xff,0xff,0xff,0xff,0x4d,
 0xff,0x7f,0x17,0xac,0xff,0xff,0xff,0xff,0xdf,0xaf,0xfb,0xbf,0x15,0xf4,0xff,
 0xff,0xff,0xff,0xff,0xaf,0xff,0xff,0x1e,0xba,0xff,0xff,0xff,0xff,0xff,0xad,
 0xff,0xff,0x17,0xfc,0xff,0xff,0xff,0xff,0xff,0xaf,0xff,0xff,0x1d,0xf6,0xff,
 0xff,0xff,0xff,0xff,0xdf,0xff,0xff,0x3f,0xfc,0xff,0xff,0xff,0xff,0xff,0x5f,
 0xff,0xff,0x1f,0xfe,0xff,0xff,0xff,0xff,0xff,0xd7,0xff,0xff,0x3f,0xfc,0xff,
 0xff,0xff,0xff,0xff,0xdf,0xff,0xff,0x1f,0xff,0xff,0xff,0xff,0xff,0xff,0xaf,
 0xff,0xff,0x3f,0xfc,0xff,0xff,0xff,0xff,0xff,0xbf,0xff,0xff,0x1f,0xfe,0xff,
 0xff,0xff,0xff,0xff,0x9f,0xff,0xff,0x3f,0xfc,0xff,0xff,0xff,0xff,0xff,0xff,
 0xff,0xff,0x7f,0xfe,0xff,0xff,0xff,0xff,0xff,0xff,0xff,0xff,0xff,0xff,0xff,
 0xff,0xff,0xff,0xff,0xff,0xff,0xff,0xff,0xff,0xff,0xff,0xff,0xff,0xff,0xff,
 0xff,0xff,0xff,0xff,0xff,0xff,0xff,0xff,0xff,0xff,0xff,0xff,0xff,0xff,0xff,
 0xff,0xff,0xff,0xff,0xff,0xff,0xff,0xff,0xff,0xff,0xff,0xff,0xff,0xff,0xff,
 0xff,0xff,0xff,0xff,0xff,0xff,0xff,0xff,0xff,0xff,0xff,0xff,0x5f,0xff,0xff,
 0xff,0xff,0xff,0xff,0xdf,0xff,0xff,0x3f,0xfe,0xff,0xff,0xff,0xff,0xff,0xdf,
 0xff,0xff,0x3f,0xff,0xff,0xff,0xff,0xff,0xff,0xdf,0xff,0xff,0x3f,0xfe,0xff,
 0xff,0xff,0xff,0xff,0xdf,0xff,0xff,0x3f,0xfe,0xff,0xff,0xff,0xff,0xff,0xdf,
 0xff,0xff,0x3f,0xfe,0xff,0xff,0xff,0xff,0xff,0xdf,0xff,0xff,0x3f,0xfe,0xff,
 0xff,0xff,0xff,0xff,0xdf,0xff,0xff,0x1f,0xfe,0xff,0xff,0xff,0xff,0xff,0xd7,
 0xff,0xff,0x3f,0xfe,0xff,0xff,0xff,0xff,0xff,0xdf,0xff,0xff,0x3f,0xfe,0xff,
 0xff,0xff,0xff,0xff,0xaf,0xff,0xff,0x3f,0xfe,0xff,0xff,0xff,0xff,0xff,0xdf,
 0xff,0xff,0x1f,0xfc,0xff,0xff,0xff,0xff,0xff,0xdf,0xff,0xff,0x3f,0xfe,0xff,
 0xff,0xff,0xff,0xff,0xdf,0xff,0xff,0x3f,0xfe,0xff,0xff,0xff,0xff,0xff,0xbf,
 0xff,0xff,0x3f,0xfd,0xff,0xff,0xff,0xff,0xff,0xdf,0xff,0xff,0x7f,0xfc,0xff,
 0xff,0xff,0xff,0xff,0xff,0xfe,0xff,0x7f,0xfb,0xff,0xff,0xff,0xff,0xff,0xff,
 0xfe,0xff,0xff,0xf8,0xff,0xff,0xff,0xff,0xff,0x7f,0xff,0xff,0xff,0xf3,0xff,
 0xff,0xff,0xff,0xff,0xff,0xff,0xff,0xff,0xfb,0xff,0xff,0xff,0xff,0xff,0xff,
 0xff,0xff,0xff,0xef,0xff,0xff,0xff,0xff,0xff,0xff,0xff,0xff,0xff,0xff,0xff,
 0xff,0xff,0xff,0xff,0xff,0xff,0xff,0xff,0xff,0xff,0xff,0xff,0xff,0xff,0xff,
 0xff,0xff,0xff,0xff,0xff,0xff,0xff,0xff,0xff,0xff,0xff,0xff,0xff,0xff,0xff,
 0xff,0xff,0xff,0xff,0xff,0xff,0xff,0xff,0xff,0xff,0xff,0xff,0xff,0xff,0xff,
 0xff,0xff,0xff,0xff,0xff,0xff,0xff,0xff,0xff,0xff,0xff,0xff,0xff,0xff,0xff,
 0xff,0xff,0xff,0xff,0xff,0xff,0xff,0xff,0xff,0xff,0xff,0xff,0xff,0xff,0xff,
 0xff,0xff,0xff,0xff,0xff,0xff,0xff,0xff,0xff,0xff,0xff,0xff,0x4f,0xaa,0xff,
 0xff,0xff,0xff,0xff,0x57,0xf5,0xff,0x2b,0xa5,0xfe,0xff,0xff,0xff,0xff,0xfb,
 0xdf,0xff,0x47,0x55,0xfe,0xff,0xff,0xff,0xff,0x6b,0xb7,0xff,0x47,0x15,0xfe,
 0xff,0xff,0xff,0xff,0xf7,0xdd,0xff,0x03,0x2b,0xfc,0xff,0xff,0xff,0xff,0xab,
 0xaf,0xff,0x87,0x14,0xfe,0xff,0xff,0xff,0xff,0xdb,0xd4,0xff,0x03,0x01,0xfc,
 0xff,0xff,0xff,0xff,0x6b,0x57,0xff,0x06,0x00,0xfc,0xff,0xff,0xff,0xff,0x5a,
 0xd5,0xff,0x01,0x00,0xfc,0xff,0xff,0xff,0xff,0xad,0xb5,0xff,0x00,0x00,0xfa,
 0xff,0xff,0xff,0xbf,0x6a,0xd5,0xff,0x00,0x00,0xfd,0xff,0xff,0xff,0xff,0xdf,
 0xb6,0xff,0x22,0x81,0xfe,0xff,0xff,0xff,0xff,0x6b,0xe3,0xff,0x0b,0x01,0xfd,
 0xff,0xff,0xff,0xff,0xf7,0xf5,0xff,0xa7,0x82,0xff,0xff,0xff,0xff,0xff,0x5b,
 0xdf,0xff,0x47,0x85,0xfe,0xff,0xff,0xff,0xff,0xf5,0xf5,0xff,0x83,0xaa,0xfe,
 0xff,0xff,0xff,0xff,0xfb,0xff,0xff,0x47,0x6d,0xff,0xff,0xff,0xff,0xff,0xaf,
 0xff,0xff,0x87,0xfa,0xff,0xff,0xff,0xff,0xff,0xf7,0xfd,0xff,0xaf,0xfa,0xff,
 0xff,0xff,0xff,0xff,0x5f,0xff,0xff,0x17,0xfc,0xff,0xff,0xff,0xff,0xff,0xd7,
 0xff,0xff,0x3f,0xfa,0xff,0xff,0xff,0xff,0xff,0xaf,0xfe,0xff,0x1f,0xf8,0xff,
 0xff,0xff,0xff,0xff,0xff,0xff,0xff,0x7f,0xfe,0xff,0xff,0xff,0xff,0xff,0xff,
 0xff,0xff,0xbf,0xff,0xff,0xff,0xff,0xff,0xff,0xff,0xff,0xff,0xff,0xff,0xff,
 0xff,0xff,0xff,0xff,0xff,0xff,0xff,0xff,0xff,0xff,0xff,0xff,0xff,0xff,0xff,
 0xff,0xff,0xff,0xff,0xff,0xff,0xff,0xff,0xff,0xff,0xff,0xff,0xff,0xff,0xff,
 0xff,0xff,0xff,0xff,0xff,0xff,0xff,0xff,0xff,0xff,0xff,0xff,0xff,0xff,0xff,
 0xff,0xff,0xff,0xef,0xff,0xff,0xff,0xff,0xff,0xff,0xfd,0xff,0xff,0xeb,0xff,
 0xff,0xff,0xff,0xff,0xff,0xf7,0xff,0xff,0xd5,0xff,0xff,0xff,0xff,0xff,0x7f,
 0xfd,0xff,0xff,0xe1,0xff,0xff,0xff,0xff,0xff,0xff,0xf6,0xff,0x5b,0xc9,0xff,
 0xff,0xff,0xff,0xff,0xaa,0xfb,0xff,0xa0,0x82,0xff,0xff,0xff,0xff,0x7f,0x75,
 0xf5,0xff,0x00,0xc0,0xff,0xff,0xff,0xff,0xff,0xab,0xeb,0xff,0x00,0x80,0xff,
 0xff,0xff,0xff,0xff,0xdf,0xfe,0xff,0x07,0xad,0xfe,0xff,0xff,0xff,0xff,0xab,
 0xef,0xff,0x0b,0x52,0xff,0xff,0xff,0xff,0xff,0xdf,0xfb,0xff,0x17,0xac,0xfe,
 0xff,0xff,0xff,0xff,0x57,0xbf,0xff,0x3f,0xbe,0xfe,0xff,0xff,0xff,0xff,0xdf,
 0xff,0xff,0x1f,0xfc,0xfe,0xff,0xff,0xff,0xff,0xbf,0xff,0xff,0x7f,0xba,0xff,
 0xff,0xff,0xff,0xff,0xff,0xfd,0xff,0xbf,0xfa,0xff,0xff,0xff,0xff,0xff,0x7f,
 0xff,0xff,0xff,0xfa,0xff,0xff,0xff,0xff,0xff,0xff,0xfd,0xff,0xff,0xfa,0xff,
 0xff,0xff,0xff,0xff,0xff,0xff,0xff,0xff,0xeb,0xff,0xff,0xff,0xff,0xff,0xff,
 0xfe,0xff,0xff,0xf7,0xff,0xff,0xff,0xff,0xff,0xff,0xff,0xff,0xff,0xef,0xff,
 0xff,0xff,0xff,0xff,0xff,0xff,0xff,0xff,0xff,0xff,0xff,0xff,0xff,0xff,0xff,
 0xff,0xff,0xff,0xff,0xff,0xff,0xff,0xff,0xff,0xff,0xff,0xff,0xff,0xff,0xff,
 0xff,0xff,0xff,0xff,0xff,0xff,0xff,0xff,0xff,0xff,0xff,0xff,0xff,0xff,0xff,
 0xff,0xff,0xff,0xff,0xff,0xff,0xff,0xff,0xff,0xff,0xff,0xff,0xff,0xff,0xff,
 0xff,0xff,0xff,0xff,0xff,0xff,0xff,0xff,0xff,0xff,0xff,0xff,0xff,0xff,0xff,
 0xff,0xff,0xff,0xff,0xff,0xff,0xff,0xff,0xff,0xff,0xfe,0xff,0xef,0xf9,0xff,
 0xff,0xff,0xff,0xff,0x7b,0xff,0xff,0xaf,0xf9,0xff,0xff,0xff,0xff,0xff,0xf7,
 0xfd,0xff,0xc7,0xf0,0xff,0xff,0xff,0xff,0xff,0x7b,0xfe,0xff,0x43,0xf9,0xff,
 0xff,0xff,0xff,0xff,0x6b,0xfd,0xff,0x87,0xf0,0xff,0xff,0xff,0xff,0xff,0xfb,
 0xfa,0xff,0x43,0xe9,0xff,0xff,0xff,0xff,0xff,0xab,0xfe,0xff,0xa7,0xf0,0xff,
 0xff,0xff,0xff,0xff,0xbb,0xfa,0xbf,0x82,0xa8,0xff,0xff,0xff,0xff,0xbf,0x69,
 0xfa,0x7f,0x01,0x50,0xff,0xff,0xff,0xff,0xdf,0xaa,0xd4,0x3f,0x00,0xa0,0xfe,
 0xff,0xff,0xff,0xf7,0xb5,0xfa,0xbf,0x02,0x40,0xff,0xff,0xff,0xff,0xff,0x77,
 0xfd,0xff,0xc3,0xb0,0xff,0xff,0xff,0xff,0xff,0xeb,0xf6,0xff,0x03,0xe9,0xff,
 0xff,0xff,0xff,0xff,0xbb,0xfd,0xff,0xc7,0xd1,0xff,0xff,0xff,0xff,0xff,0xfb,
 0xf7,0xff,0xa3,0xca,0xff,0xff,0xff,0xff,0xff,0xf7,0xfd,0xff,0x87,0xc7,0xff,
 0xff,0xff,0xff,0xff,0xfb,0xf7,0xff,0xc7,0xa5,0xff,0xff,0xff,0xff,0xff,0xf7,
 0xfb,0xff,0xa7,0xcf,0xff,0xff,0xff,0xff,0xff,0xfb,0xef,0xff,0xc7,0x87,0xff,
 0xff,0xff,0xff,0xff,0xff,0xff,0xff,0xeb,0xff,0xff,0xff,0xff,0xff,0xff,0xfb,
 0xff,0xff,0xcf,0x6f,0xfe,0xff,0xff,0xff,0xff,0xff,0xff,0xff,0xf7,0xff,0xff,
 0xff,0xff,0xff,0xff,0xff,0xff,0xff,0xff,0xff,0xff,0xff,0xff,0xff,0xff,0xff,
 0xff,0xff,0xff,0xff,0xff,0xff,0xff,0xff,0xff,0xff,0xff,0xff,0xff,0xff,0xff,
 0xff,0xff,0xff,0xff,0xff,0xff,0xff,0xff,0xff,0xff,0xff,0xff,0xff,0xff,0xff,
 0xff,0xff,0xff,0xff,0xff,0xff,0xff,0xff,0xff,0xff,0xff,0xff,0x7f,0xff,0xff,
 0xff,0xff,0xff,0xff,0xaf,0xff,0xff,0x5f,0xfe,0xff,0xff,0xff,0xff,0xff,0xff,
 0xff,0xff,0x3f,0xfe,0xff,0xff,0xff,0xff,0xff,0x9f,0xff,0xff,0x3f,0xfc,0xff,
 0xff,0xff,0xff,0xff,0xd7,0xff,0xff,0x1f,0xfe,0xff,0xff,0xff,0xff,0xff,0xaf,
 0xff,0xff,0x2f,0xfa,0xff,0xff,0xff,0xff,0xff,0xde,0xfe,0xff,0x10,0xd4,0xff,
 0xff,0xff,0xff,0xbf,0x8a,0xf5,0xff,0x08,0x84,0xff,0xff,0xff,0xff,0xff,0x56,
 0xeb,0x7f,0x00,0x40,0xff,0xff,0xff,0xff,0x7f,0xad,0xff,0xff,0x18,0x04,0xff,
 0xff,0xff,0xff,0xbf,0xae,0xeb,0xff,0x28,0xa4,0xff,0xff,0xff,0xff,0xff,0xd6,
 0xf6,0x7f,0x10,0x84,0xfe,0xff,0xff,0xff,0x7f,0x4d,0xeb,0xff,0x00,0x40,0xff,
 0xff,0xff,0xff,0x7f,0x55,0xf7,0xff,0x00,0x00,0xff,0xff,0xff,0xff,0xff,0x9e,
 0xed,0xff,0x18,0x84,0xff,0xff,0xff,0xff,0xff,0xaf,0xff,0xff,0x15,0xea,0xff,
 0xff,0xff,0xff,0xff,0xd6,0xf7,0xff,0x3d,0x5c,0xff,0xff,0xff,0xff,0xff,0x5f,
 0xff,0xff,0x1f,0xf6,0xff,0xff,0xff,0xff,0xff,0xdf,0xff,0xff,0x3f,0xfc,0xff,
 0xff,0xff,0xff,0xff,0xdf,0xff,0xff,0x3f,0xfe,0xff,0xff,0xff,0xff,0xff,0xef,
 0xff,0xff,0x5f,0xfe,0xff,0xff,0xff,0xff,0xff,0xdf,0xff,0xff,0x7f,0xff,0xff,
 0xff,0xff,0xff,0xff,0xff,0xff,0xff,0x7f,0xff,0xff,0xff,0xff,0xff,0xff,0xff,
 0xff,0xff,0xff,0xff,0xff,0xff,0xff,0xff,0xff,0xff,0xff,0xff,0xff,0xff,0xff,
 0xff,0xff,0xff,0xff,0xff,0xff,0xff,0xff,0xff,0xff,0xff,0xff,0xff,0xff,0xff,
 0xff,0xff,0xff,0xff,0xff,0xff,0xff,0xff,0xff,0xff,0xff,0xff,0xff,0xff,0xff,
 0xff,0xff,0xff,0xff,0xff,0xff,0xff,0xff,0xff,0xff,0xff,0xff,0xff,0xff,0xff,
 0xff,0xff,0xff,0xff,0xff,0xff,0xff,0xff,0xff,0xff,0xff,0xff,0xff,0xfb,0xff,
 0xff,0xff,0xff,0xff,0x7f,0xfd,0xff,0xff,0xd1,0xff,0xff,0xff,0xff,0xff,0xff,
 0xfa,0xff,0xff,0x69,0xff,0xff,0xff,0xff,0xff,0xff,0xee,0xff,0xff,0xa1,0xff,
 0xff,0xff,0xff,0xff,0xff,0xfb,0xff,0xff,0xc2,0xff,0xff,0xff,0xff,0xff,0x7f,
 0xf5,0xff,0xff,0x83,0xff,0xff,0xff,0xff,0xff,0xff,0xf7,0xff,0xff,0xc2,0xff,
 0xff,0xff,0xff,0xff,0x7f,0xf5,0xff,0xff,0x81,0xff,0xff,0xff,0xff,0xff,0xff,
 0xfa,0xff,0x7f,0xc0,0xff,0xff,0xff,0xff,0xff,0xbf,0xea,0xff,0xff,0x40,0xff,
 0xff,0xff,0xff,0xff,0x7f,0xfd,0xff,0x7f,0xa1,0xff,0xff,0xff,0xff,0xff,0xff,
 0xf5,0xff,0xff,0xa1,0xfe,0xff,0xff,0xff,0xff,0xbf,0xec,0xff,0xbf,0x41,0xff,
 0xff,0xff,0xff,0xff,0xff,0xd6,0xff,0xff,0x82,0xfe,0xff,0xff,0xff,0xff,0xff,
 0xf5,0xff,0xff,0x81,0xfe,0xff,0xff,0xff,0xff,0xbf,0xda,0xff,0x57,0x00,0xff,
 0xff,0xff,0xff,0xff,0x6b,0xf7,0xff,0x2a,0x80,0xff,0xff,0xff,0xff,0xff,0xae,
 0xfa,0xff,0x05,0xc0,0xff,0xff,0xff,0xff,0xff,0xf7,0xef,0xff,0x94,0x5a,0xff,
 0xff,0xff,0xff,0xbf,0xdd,0xff,0xff,0x6b,0xdf,0xfe,0xff,0xff,0xff,0xff,0xff,
 0xff,0xff,0xf6,0x7f,0xff,0xff,0xff,0xff,0xff,0xff,0xff,0xff,0xfb,0xff,0xff,
 0xff,0xff,0xff,0xff,0xff,0xff,0xff,0xff,0xff,0xff,0xff,0xff,0xff,0xff,0xff,
 0xff,0xff,0xff,0xff,0xff,0xff,0xff,0xff,0xff,0xff,0xff,0xff,0xff,0xff,0xff,
 0xff,0xff,0xff,0xff,0xff,0xff,0xff,0xff,0xff,0xff,0xff,0xff,0xff,0xff,0xff,
 0xff,0xff,0xff,0xff,0xff,0xff,0xff,0xff,0xff,0xff,0xff,0xff,0xff,0xfe,0xff,
 0xff,0xff,0xff,0xff,0xdf,0xff,0xff,0x3f,0xff,0xff,0xff,0xff,0xff,0xff,0xff,
 0xff,0xff,0x7f,0xfc,0xff,0xff,0xff,0xff,0xff,0x97,0xff,0xff,0x1f,0xfe,0xff,
 0xff,0xff,0xff,0xff,0xdf,0xff,0xff,0x3f,0xfc,0xff,0xff,0xff,0xff,0xff,0x4f,
 0xff,0xff,0x09,0xf4,0xff,0xff,0xff,0xff,0x7f,0x55,0xfd,0xff,0x10,0xa8,0xff,
 0xff,0xff,0xff,0x7f,0x8d,0xf6,0x7f,0x00,0x40,0xff,0xff,0xff,0xff,0xff,0x76,
 0xfb,0xff,0x10,0xd0,0xff,0xff,0xff,0xff,0x7f,0xbe,0xfd,0xff,0xb0,0xec,0xff,
 0xff,0xff,0xff,0xff,0xdd,0xfe,0xff,0x58,0xd2,0xff,0xff,0xff,0xff,0x7f,0x7e,
 0xfb,0xff,0xa8,0xf9,0xff,0xff,0xff,0xff,0xff,0xfb,0xfe,0xff,0xf0,0xf0,0xff,
 0xff,0xff,0xff,0xbf,0xbe,0xfd,0xff,0x58,0xf9,0xff,0xff,0xff,0xff,0xff,0xfb,
 0xfe,0xff,0x54,0xe9,0xff,0xff,0xff,0xff,0xff,0xae,0xfd,0xff,0x52,0xf1,0xff,
 0xff,0xff,0xff,0xff,0x7b,0xff,0xff,0x45,0xf5,0xff,0xff,0xff,0xff,0xff,0xef,
 0xfb,0xff,0x83,0xaa,0xff,0xff,0xff,0xff,0xff,0xf3,0xf7,0xff,0x07,0xcf,0xff,
 0xff,0xff,0xff,0xff,0xff,0xff,0xff,0xcf,0x6f,0xff,0xff,0xff,0xff,0xff,0xff,
 0xff,0xff,0xff,0xff,0xff,0xff,0xff,0xff,0xff,0xff,0xff,0xff,0xff,0xff,0xff,
 0xff,0xff,0xff,0xff,0xff,0xff,0xff,0xff,0xff,0xff,0xff,0xff,0xff,0xff,0xff,
 0xff,0xff,0xff,0xff,0xff,0xff,0xff,0xff,0xff,0xff,0xff,0xff,0xff,0xff,0xff,
 0xff,0xff,0xff,0xff,0xff,0xff,0xff,0xff,0xff,0xff,0xff,0xff,0xff,0xff,0xff,
 0xff,0xff,0xff,0xff,0xff,0xff,0xff,0xff,0xff,0xff,0xff,0xff,0xff,0xff,0xff,
 0xff,0xff,0xff,0xff,0xff,0xff,0xff,0xff,0xff,0xff,0xff,0xff,0xff,0xff,0xff,
 0xff,0xff,0xff,0xff,0xff,0xff,0xff,0xff,0xff,0xff,0xff,0xff,0xfb,0xff,0xff,
 0xff,0xff,0xff,0xff,0xfe,0xff,0xff,0xd4,0xab,0xff,0xff,0xff,0xff,0xff,0xfe,
 0xf7,0xff,0xf4,0x8f,0xff,0xff,0xff,0xff,0xbf,0xfd,0xff,0xff,0x58,0x47,0xff,
 0xff,0xff,0xff,0xff,0xfe,0xeb,0xff,0xf0,0x4f,0xff,0xff,0xff,0xff,0x7f,0xfb,
 0xff,0xff,0xb4,0x4b,0xff,0xff,0xff,0xff,0xff,0xfe,0xd7,0xff,0xf0,0x8f,0xfe,
 0xff,0xff,0xff,0x7f,0xdf,0xff,0xff,0xd8,0x56,0xff,0xff,0xff,0xff,0xff,0xfd,
 0xeb,0xff,0xf4,0x4b,0xff,0xff,0xff,0xff,0xff,0xfe,0xf7,0xff,0xd4,0x8f,0xfe,
 0xff,0xff,0xff,0xbf,0xfe,0xdf,0xff,0xf0,0x4b,0xff,0xff,0xff,0xff,0xff,0xfe,
 0xf7,0xff,0x58,0x47,0xff,0xff,0xff,0xff,0x7f,0xdb,0xea,0xff,0xa8,0x85,0xfe,
 0xff,0xff,0xff,0xff,0xf6,0xf7,0xff,0x40,0x42,0xff,0xff,0xff,0xff,0xff,0x5d,
 0xdb,0xff,0xb0,0x02,0xff,0xff,0xff,0xff,0xff,0xfe,0xf7,0xff,0xd0,0x8b,0xff,
 0xff,0xff,0xff,0x7f,0xff,0xff,0xff,0xfc,0xcf,0xfe,0xff,0xff,0xff,0xff,0xfe,
 0xef,0xff,0xf5,0x6f,0xff,0xff,0xff,0xff,0xff,0xff,0xff,0xff,0xff,0xff,0xff,
 0xff,0xff,0xff,0xff,0xff,0xff,0xff,0xff,0xff,0xff,0xff,0xff,0xff,0xff,0xff,
 0xff,0xff,0xff,0xff,0xff,0xff,0xff,0xff,0xff,0xff,0xff,0xff,0xff,0xff,0xff,
 0xff,0xff,0xff,0xff,0xff,0xff,0xff,0xff,0xff,0xff,0xff,0xff,0xff,0xff,0xff,
 0xff,0xff,0xff,0xff,0xff,0xff,0xff,0xff,0xff,0xff,0xff,0xff,0xff,0xff,0xff,
 0xff,0xff,0xff,0xff,0xff,0xff,0xff,0xff,0xff,0xff,0xff,0xff,0xff,0xff,0xff,
 0xff,0xff,0xff,0xff,0xff,0xff,0xff,0xff,0xff,0xff,0xff,0xff,0xff,0xff,0xff,
 0xff,0xff,0xff,0xff,0xff,0xff,0xff,0xb6,0xfd,0xff,0xff,0xff,0xff,0xff,0xb5,
 0xfb,0xff,0x51,0x55,0xff,0xff,0xff,0xff,0xff,0xee,0xd6,0xff,0x40,0x01,0xfe,
 0xff,0xff,0xff,0xbf,0x52,0xb5,0xff,0x00,0x00,0xfd,0xff,0xff,0xff,0xff,0xbd,
 0xfe,0xff,0x03,0x68,0xff,0xff,0xff,0xff,0xff,0xd7,0xfa,0xff,0x17,0xf0,0xff,
 0xff,0xff,0xff,0xff,0xbf,0xfe,0xff,0x6f,0xf1,0xff,0xff,0xff,0xff,0xff,0x7f,
 0xfd,0xff,0xff,0xd8,0xff,0xff,0xff,0xff,0xff,0xff,0xfd,0xff,0xbf,0xf1,0xff,
 0xff,0xff,0xff,0xff,0xbf,0xfe,0xff,0xff,0xf8,0xff,0xff,0xff,0xff,0xff,0x7f,
 0xfd,0xff,0xff,0xf1,0xff,0xff,0xff,0xff,0xff,0xff,0xfe,0xff,0xff,0xfa,0xff,
 0xff,0xff,0xff,0xff,0xff,0xff,0xff,0xff,0xf9,0xff,0xff,0xff,0xff,0xff,0xff,
 0xfd,0xff,0xff,0xeb,0xff,0xff,0xff,0xff,0xff,0x7f,0xff,0xff,0xff,0xf5,0xff,
 0xff,0xff,0xff,0xff,0xff,0xfb,0xff,0xff,0xdf,0xff,0xff,0xff,0xff,0xff,0xff,
 0xf7,0xff,0xff,0xa7,0xff,0xff,0xff,0xff,0xff,0xff,0xff,0xff,0xff,0xdf,0xff,
 0xff,0xff,0xff,0xff,0xff,0xff,0xff,0xff,0xff,0xff,0xff,0xff,0xff,0xff,0xff,
 0xff,0xff,0xff,0xff,0xff,0xff,0xff,0xff,0xff,0xff,0xff,0xff,0xff,0xff,0xff,
 0xff,0xff,0xff,0xff,0xff,0xff,0xff,0xff,0xff,0xff,0xff,0xff,0xff,0xff,0xff,
 0xff,0xff,0xff,0xff,0xff,0xff,0xff,0xff,0xff,0xff,0xff,0xff,0xff,0xff,0xff,
 0xff,0xff,0xff,0xff,0xff,0xff,0xff,0xff,0xff,0xff,0xff,0xff,0xff,0xff,0xff,
 0xff,0xff,0xff,0xff,0xff,0xff,0xff,0xff,0xff,0xff,0xff,0xff,0x7f,0xef,0xff,
 0xff,0xff,0xff,0xff,0xdf,0xf7,0xff,0x3f,0x05,0xff,0xff,0xff,0xff,0xff,0xdf,
 0xef,0xff,0x1f,0xce,0xff,0xff,0xff,0xff,0xff,0x5f,0xf7,0xff,0x3f,0x84,0xfe,
 0xff,0xff,0xff,0xff,0xd7,0xed,0xff,0x17,0x46,0xff,0xff,0xff,0xff,0xff,0xaf,
 0xdb,0xff,0x1f,0x8a,0xfe,0xff,0xff,0xff,0xff,0x5f,0xef,0xff,0x0b,0x00,0xfe,
 0xff,0xff,0xff,0xff,0xa5,0xaa,0xff,0x0b,0x04,0xfa,0xff,0xff,0xff,0xff,0x9f,
 0xd5,0xff,0x0a,0x00,0xfc,0xff,0xff,0xff,0xff,0xd7,0xb7,0xff,0x17,0x04,0xff,
 0xff,0xff,0xff,0xff,0x5f,0xef,0xff,0x1f,0x8a,0xfe,0xff,0xff,0xff,0xff,0xd7,
 0xf5,0xff,0x3f,0xa4,0xfe,0xff,0xff,0xff,0xff,0xaf,0xdf,0xff,0x1f,0x4c,0xff,
 0xff,0xff,0xff,0xff,0xdf,0xf7,0xff,0x3f,0x86,0xfe,0xff,0xff,0xff,0xff,0x5f,
 0xdb,0xff,0x1f,0x4a,0xff,0xff,0xff,0xff,0xff,0xdf,0xf7,0xff,0x3f,0x8c,0xfe,
 0xff,0xff,0xff,0xff,0xaf,0xef,0xff,0x1f,0x46,0xff,0xff,0xff,0xff,0xff,0x5f,
 0xf7,0xff,0x3f,0x44,0xff,0xff,0xff,0xff,0xff,0xdf,0xdb,0xff,0x3f,0x00,0xff,
 0xff,0xff,0xff,0xff,0x57,0xf5,0xff,0x1f,0x40,0xff,0xff,0xff,0xff,0xff,0xdf,
 0xf7,0xff,0x7f,0x8e,0xff,0xff,0xff,0xff,0xff,0xff,0xff,0xff,0x7f,0xeb,0xff,
 0xff,0xff,0xff,0xff,0xff,0xff,0xff,0xff,0xbf,0xff,0xff,0xff,0xff,0xff,0xff,
 0xff,0xff,0xff,0xff,0xff,0xff,0xff,0xff,0xff,0xff,0xff,0xff,0xff,0xff,0xff,
 0xff,0xff,0xff,0xff,0xff,0xff,0xff,0xff,0xff,0xff,0xff,0xff,0xff,0xff,0xff,
 0xff,0xff,0xff,0xff,0xff,0xff,0xff,0xff,0xff,0xff,0xff,0xff,0xff,0xff,0xff,
 0xff,0xff,0xff,0xff,0xff,0xff,0xff,0xfd,0xff,0xff,0xff,0xff,0xff,0xff,0xfe,
 0xff,0xff,0xe5,0xff,0xff,0xff,0xff,0xff,0x7f,0xfb,0xff,0x7f,0xb0,0xfb,0xff,
 0xff,0xff,0xff,0xff,0xbd,0xfd,0xff,0xa8,0xaa,0xff,0xff,0xff,0xff,0xff,0xef,
 0xd6,0xff,0x55,0x01,0xfc,0xff,0xff,0xff,0x7f,0x5b,0x6b,0xff,0x15,0x00,0xf4,
 0xff,0xff,0xff,0xff,0xdf,0xd5,0xff,0x17,0x02,0xfe,0xff,0xff,0xff,0xff,0xeb,
 0xff,0xff,0x0b,0x8d,0xff,0xff,0xff,0xff,0xff,0xb7,0xd7,0xff,0x27,0x6e,0xfd,
 0xff,0xff,0xff,0xff,0xdb,0xff,0xff,0x85,0xad,0xfe,0xff,0xff,0xff,0xff,0xed,
 0xdf,0xff,0x03,0x7e,0xfe,0xff,0xff,0xff,0x7f,0xb7,0xff,0xff,0x24,0x3b,0xff,
 0xff,0xff,0xff,0xff,0xfd,0xaf,0xff,0xa9,0x5e,0xfc,0xff,0xff,0xff,0xff,0xd6,
 0xdf,0xff,0xb0,0x3e,0xfe,0xff,0xff,0xff,0xbf,0xfe,0xbf,0xff,0x58,0x3e,0xfc,
 0xff,0xff,0xff,0xff,0xaf,0xdf,0xff,0x5d,0x5e,0xfe,0xff,0xff,0xff,0xff,0xdf,
 0xbf,0xff,0x3f,0x3d,0xfc,0xff,0xff,0xff,0xff,0x7f,0xdf,0xff,0x3f,0x16,0xfe,
 0xff,0xff,0xff,0xff,0xdf,0xea,0xff,0x5f,0x00,0xff,0xff,0xff,0xff,0xff,0x7f,
 0xf5,0xff,0x7f,0x80,0xfe,0xff,0xff,0xff,0xff,0xff,0xef,0xff,0xff,0xcb,0xff,
 0xff,0xff,0xff,0xff,0xff,0xff,0xff,0xff,0xf5,0xff,0xff,0xff,0xff,0xff,0xff,
 0xff,0xff,0xff,0xff,0xff,0xff,0xff,0xff,0xff,0xff,0xff,0xff,0xff,0xff,0xff,
 0xff,0xff,0xff,0xff,0xff,0xff,0xff,0xff,0xff,0xff,0xff,0xff,0xff,0xff,0xff,
 0xff,0xff,0xff,0xff,0xff,0xff,0xff,0xff,0xff,0xff,0xff,0xff,0xff,0xff,0xff,
 0xff,0xff,0xff,0xff,0xff,0xff,0xff,0xff,0xff,0xff,0xff,0xff,0xff,0xff,0xff,
 0xff,0xff,0xff,0xff,0xff,0xff,0xff,0xff,0xff,0xff,0xff,0xff,0xdf,0xff,0xff,
 0xff,0xff,0xff,0xff,0xeb,0xff,0xff,0x6f,0xff,0xff,0xff,0xff,0xff,0xff,0xff,
 0xff,0xff,0x97,0xbe,0xfe,0xff,0xff,0xff,0xff,0xaf,0xaf,0xff,0x97,0x56,0xfe,
 0xff,0xff,0xff,0xff,0xfb,0xdf,0xff,0x2f,0x1e,0xfc,0xff,0xff,0xff,0xff,0xaf,
 0xf7,0xff,0x1f,0x05,0xff,0xff,0xff,0xff,0xff,0xdf,0xdf,0xff,0x3f,0x8e,0xfe,
 0xff,0xff,0xff,0xff,0xaf,0xf5,0xff,0x1f,0x44,0xff,0xff,0xff,0xff,0xff,0x5f,
 0xf7,0xff,0x3f,0xca,0xff,0xff,0xff,0xff,0xff,0xb7,0xfd,0xff,0x1f,0xa8,0xff,
 0xff,0xff,0xff,0xff,0xbf,0xf6,0xff,0x3f,0xe0,0xff,0xff,0xff,0xff,0xff,0xaf,
 0xfc,0xff,0x5f,0xf0,0xff,0xff,0xff,0xff,0xff,0xbf,0xfa,0xff,0x3f,0xd0,0xff,
 0xff,0xff,0xff,0xff,0x5f,0xfd,0xff,0x57,0xe0,0xff,0xff,0xff,0xff,0xff,0xeb,
 0xf6,0xff,0x05,0x80,0xff,0xff,0xff,0xff,0xff,0xb5,0xeb,0xff,0x02,0xc6,0xff,
 0xff,0xff,0xff,0xff,0xd5,0xf7,0xff,0x01,0x85,0xff,0xff,0xff,0xff,0xff,0xfe,
 0xff,0xff,0xc4,0x6f,0xff,0xff,0xff,0xff,0xff,0xff,0xff,0xff,0xf5,0xbf,0xfe,
 0xff,0xff,0xff,0xbf,0xfd,0xdf,0xff,0xf9,0xff,0xff,0xff,0xff,0xff,0xff,0xff,
 0xff,0xff,0xef,0xff,0xfe,0xff,0xff,0xff,0xff,0xff,0xff,0xff,0xff,0xff,0xff,
 0xff,0xff,0xff,0xff,0xff,0xff,0xff,0xff,0xff,0xff,0xff,0xff,0xff,0xff,0xff,
 0xff,0xff,0xff,0xff,0xff,0xff,0xff,0xff,0xff,0xff,0xff,0xff,0xff,0xff,0xff,
 0xff,0xff,0xff,0xff,0xff,0xff,0xff,0xff,0xff,0xff,0xff,0xff,0xff,0xff,0xff,
 0xff,0xff,0xff,0xff,0xff,0xff,0xff,0xff,0xff,0xff,0xff,0xff,0xff,0xff,0xff,
 0xff,0xff,0xff,0xff,0xff,0xff,0xff,0xff,0xff,0xff,0xff,0xff,0xff,0xff,0xff,
 0xff,0xff,0xff,0xff,0xff,0xff,0xff,0xff,0x7f,0xff,0xff,0xff,0xf0,0xff,0xff,
 0xff,0xff,0xff,0xff,0xfd,0xff,0x5f,0xd4,0xff,0xff,0xff,0xff,0xff,0xbf,0xfa,
 0xff,0xff,0xe0,0xff,0xff,0xff,0xff,0xff,0xff,0xff,0xff,0x7f,0xc1,0xff,0xff,
 0xff,0xff,0xff,0xff,0xfa,0xff,0xff,0xc1,0xff,0xff,0xff,0xff,0xff,0xff,0xf5,
 0xff,0xff,0x82,0xbf,0xfe,0xff,0xff,0xff,0xff,0xfb,0xdf,0xff,0xc3,0x5f,0xfe,
 0xff,0xff,0xff,0xff,0xf5,0xff,0xff,0x83,0x2f,0xfe,0xff,0xff,0xff,0xff,0xf7,
 0xd7,0xff,0xc5,0x56,0xff,0xff,0xff,0xff,0xff,0xfb,0xff,0xff,0x43,0xaf,0xff,
 0xff,0xff,0xff,0xff,0xd7,0xf7,0xff,0x87,0xc6,0xff,0xff,0xff,0xff,0xff,0xdb,
 0xff,0xff,0x2f,0xfe,0xff,0xff,0xff,0xff,0xff,0x6f,0xff,0xff,0x1f,0xda,0xff,
 0xff,0xff,0xff,0xff,0x9f,0xff,0xff,0x3f,0xfe,0xff,0xff,0xff,0xff,0xff,0xff,
 0xff,0xff,0x3f,0xf8,0xff,0xff,0xff,0xff,0xff,0x7f,0xfd,0xff,0xff,0xfb,0xff,
 0xff,0xff,0xff,0xff,0xff,0xff,0xff,0xff,0xf2,0xff,0xff,0xff,0xff,0xff,0xff,
 0xfb,0xff,0xff,0xd7,0xff,0xff,0xff,0xff,0xff,0xff,0xf7,0xff,0xff,0xc7,0xff,
 0xff,0xff,0xff,0xff,0xff,0xff,0xff,0xff,0xd7,0xff,0xff,0xff,0xff,0xff,0xff,
 0xff,0xff,0xff,0x6f,0xff,0xff,0xff,0xff,0xff,0xff,0xff,0xff,0xff,0xff,0xff,
 0xff,0xff,0xff,0xff,0xff,0xff,0xff,0xff,0x7f,0xff,0xff,0xff,0xff,0xff,0xff,
 0xff,0xff,0xff,0xff,0xff,0xff,0xff,0xff,0xff,0xff,0xff,0xff,0xff,0xff,0xff
 };
