/* Created with The GIMP */
#define matrix2b_width 160
#define matrix2b_height 182
static unsigned char matrix2b_bits[] = {
   0xff, 0xff, 0xff, 0xff, 0xff, 0xff, 0xff, 0xff, 0xff, 0xff, 0xff, 0xff,
   0xff, 0xff, 0xff, 0xff, 0xff, 0xff, 0xff, 0xff, 0xff, 0x7f, 0xff, 0xfe,
   0xc3, 0x8f, 0xbf, 0xff, 0xff, 0xf7, 0x0f, 0x1f, 0xff, 0xfd, 0xff, 0xff,
   0xff, 0xff, 0xff, 0xcf, 0xff, 0x1f, 0xbe, 0xf2, 0xa9, 0x43, 0x1f, 0xff,
   0xfd, 0xeb, 0xd7, 0x2f, 0x7f, 0xfc, 0xff, 0xff, 0xff, 0xff, 0xff, 0xc7,
   0xff, 0x5f, 0x7c, 0xe8, 0xa1, 0x07, 0x3e, 0xbe, 0xf8, 0xe3, 0x87, 0x3f,
   0xfe, 0xf0, 0xe3, 0xff, 0xff, 0xff, 0xff, 0xcf, 0xff, 0x1f, 0x1f, 0xf2,
   0x80, 0x91, 0x0f, 0x7d, 0xfa, 0xf1, 0xd7, 0x3f, 0x1d, 0xf0, 0xf5, 0xff,
   0xff, 0xff, 0xff, 0xa7, 0xff, 0x3f, 0x7c, 0xf0, 0x82, 0xa3, 0x3e, 0x7c,
   0xf0, 0xe7, 0xc7, 0x7f, 0x7e, 0xe0, 0xd3, 0xff, 0xff, 0xff, 0xff, 0xe7,
   0xff, 0x1f, 0xbf, 0xfb, 0xa0, 0x03, 0x8f, 0x3a, 0xfd, 0xfd, 0xe7, 0x3f,
   0xbe, 0x74, 0xa0, 0xff, 0x07, 0xfc, 0xff, 0xf1, 0xff, 0x3f, 0xfe, 0xff,
   0xc5, 0x17, 0x1e, 0x7a, 0xe0, 0xff, 0xc7, 0x7f, 0xbc, 0xf0, 0x80, 0xff,
   0x0f, 0xf8, 0xff, 0xe3, 0xff, 0x3f, 0xff, 0x7f, 0x80, 0x23, 0x1e, 0x1c,
   0xf0, 0xff, 0xab, 0x3f, 0x7f, 0xfb, 0xa2, 0xff, 0xaf, 0xfa, 0xff, 0xf8,
   0xff, 0x7f, 0xfe, 0xff, 0xa1, 0x07, 0xbe, 0x38, 0xe1, 0xff, 0xc7, 0x3f,
   0x7c, 0xf7, 0xe7, 0x8f, 0xff, 0xff, 0xf8, 0xf1, 0xff, 0xbf, 0xff, 0x7f,
   0xe4, 0xa1, 0x3e, 0x3a, 0xe8, 0xff, 0x57, 0x5f, 0xff, 0xff, 0xf1, 0xd7,
   0xff, 0x7f, 0x7d, 0xfc, 0xff, 0x3f, 0xfe, 0xff, 0xc1, 0x8f, 0x7f, 0x7a,
   0xe1, 0xff, 0x8f, 0x3f, 0xfe, 0xff, 0xe7, 0x8f, 0xff, 0x7f, 0xf9, 0xf9,
   0xff, 0xff, 0xff, 0xff, 0xf4, 0xc7, 0xff, 0xbf, 0xff, 0xff, 0x5f, 0x8f,
   0xff, 0xff, 0xff, 0xe7, 0xff, 0xff, 0x7f, 0xfe, 0xff, 0xff, 0xff, 0xff,
   0xeb, 0xdf, 0xff, 0xff, 0xff, 0xff, 0xdf, 0xff, 0xff, 0xff, 0xff, 0xaf,
   0xff, 0xff, 0xff, 0xfe, 0xff, 0xff, 0x7f, 0xfb, 0xff, 0xff, 0x5f, 0xff,
   0xf5, 0xf6, 0xff, 0xbf, 0xff, 0xff, 0xff, 0xff, 0xff, 0xff, 0xff, 0xff,
   0x4b, 0x2f, 0xfe, 0xf4, 0xd2, 0x1f, 0x5f, 0xfc, 0xeb, 0xc4, 0x4b, 0x3f,
   0xfd, 0xff, 0xff, 0xff, 0xff, 0xff, 0xff, 0xf5, 0x87, 0x8e, 0x1f, 0xe8,
   0xc0, 0xa7, 0x07, 0x3a, 0x70, 0xd0, 0x03, 0x4f, 0xfc, 0xff, 0xff, 0xff,
   0xff, 0xff, 0xff, 0xe2, 0x83, 0x0e, 0xbe, 0xe0, 0x82, 0x0f, 0x1f, 0xfc,
   0x60, 0x81, 0x0b, 0x1e, 0xf8, 0xff, 0xff, 0x5f, 0xbe, 0xaf, 0xfe, 0xc0,
   0x29, 0x3e, 0x3f, 0xe5, 0x94, 0x83, 0x47, 0x3d, 0xfa, 0xc5, 0x21, 0x46,
   0x7c, 0xfd, 0xd3, 0x17, 0x57, 0x1d, 0xfa, 0xc4, 0x53, 0x3e, 0xfd, 0xe2,
   0x87, 0x17, 0x0f, 0x58, 0xf0, 0xcf, 0x4b, 0xce, 0xf8, 0xf4, 0xc7, 0x87,
   0x0e, 0x78, 0xf0, 0xca, 0x11, 0x1e, 0x7f, 0xe9, 0xa1, 0x83, 0x4f, 0x3c,
   0xf4, 0xe3, 0x03, 0x0f, 0x7c, 0xfc, 0xf3, 0x52, 0x17, 0x7c, 0xe5, 0xc5,
   0x73, 0x3e, 0x7e, 0xf1, 0x8b, 0x13, 0xde, 0x58, 0xe0, 0xc7, 0x27, 0x5e,
   0xf0, 0xfd, 0xef, 0xc1, 0x4f, 0x78, 0xe1, 0xd3, 0x21, 0x3e, 0x7f, 0xfc,
   0xc6, 0x02, 0x6f, 0x3c, 0xf1, 0xf1, 0x12, 0x0e, 0xfc, 0xff, 0xff, 0x49,
   0x07, 0xf9, 0xe8, 0xf1, 0x43, 0x3e, 0x7a, 0xf0, 0x8c, 0x03, 0xce, 0x58,
   0xe2, 0xe3, 0x43, 0xbe, 0xf8, 0xfa, 0xeb, 0x8b, 0x1e, 0x58, 0xf4, 0xe3,
   0x0b, 0x07, 0x1c, 0x6a, 0xc0, 0x0b, 0x15, 0x3c, 0xf0, 0xf3, 0x09, 0x0e,
   0x7e, 0xfc, 0xe3, 0x2f, 0xf7, 0x1f, 0xfd, 0xfb, 0x97, 0x2e, 0x38, 0xe8,
   0xa2, 0x2f, 0x96, 0xfc, 0xe2, 0xe6, 0x97, 0xbf, 0xfc, 0xf8, 0xc7, 0xbf,
   0xbe, 0xfd, 0xfe, 0xf3, 0xaf, 0xaf, 0x5e, 0xf1, 0xd5, 0x4f, 0x5f, 0x7f,
   0xfc, 0xfb, 0xa7, 0x0f, 0xff, 0xfe, 0xf1, 0xff, 0xff, 0xbf, 0xff, 0xfb,
   0xff, 0xff, 0xfd, 0xff, 0xff, 0xff, 0xff, 0xff, 0xfd, 0xff, 0xff, 0xff,
   0xff, 0xff, 0xf7, 0xff, 0xff, 0xff, 0xff, 0xff, 0xff, 0xff, 0x7f, 0xff,
   0xff, 0xff, 0xbf, 0xff, 0xff, 0xff, 0xbf, 0xff, 0xff, 0xfd, 0xff, 0xff,
   0xff, 0xff, 0xff, 0xff, 0xd7, 0xaf, 0xff, 0xfa, 0xab, 0xd5, 0x6f, 0x7d,
   0xf5, 0xd5, 0xb5, 0x5e, 0xbd, 0xeb, 0xd6, 0xd5, 0xdf, 0x7b, 0xeb, 0xf5,
   0xa7, 0x0f, 0x0f, 0x74, 0xa1, 0x41, 0x07, 0x0c, 0xe0, 0xa2, 0x51, 0x26,
   0x7c, 0x70, 0xc8, 0xa1, 0xa3, 0x18, 0xf5, 0xd2, 0x07, 0x1f, 0x3c, 0x60,
   0x85, 0x02, 0x0e, 0xbc, 0x60, 0x81, 0x03, 0x0e, 0xf8, 0xe0, 0x80, 0xc3,
   0x47, 0x31, 0x61, 0xc1, 0x91, 0x0e, 0x1e, 0x71, 0xa8, 0x11, 0x47, 0x18,
   0x62, 0xa4, 0x11, 0x5e, 0x7d, 0xb1, 0xc4, 0xe5, 0x87, 0x18, 0x60, 0x84,
   0x83, 0x3e, 0x3c, 0xa2, 0x94, 0x32, 0x8e, 0x3a, 0xe5, 0x8c, 0x53, 0x3e,
   0xfe, 0xe3, 0xc4, 0xc7, 0x0f, 0x18, 0x65, 0x9c, 0x03, 0x8f, 0x5a, 0x70,
   0xfe, 0x29, 0x16, 0x5e, 0x38, 0xaa, 0x01, 0x1e, 0x7f, 0x79, 0xf0, 0xf3,
   0x87, 0x18, 0x70, 0xc6, 0x03, 0x1e, 0x5a, 0x60, 0xfa, 0x71, 0x16, 0x3a,
   0x70, 0x8c, 0x03, 0x3e, 0xee, 0xf1, 0xc0, 0xa7, 0x0f, 0x98, 0x60, 0x9c,
   0x09, 0x0b, 0x3c, 0x25, 0xae, 0x29, 0x4e, 0x1c, 0x7d, 0xc2, 0x29, 0x3e,
   0x1f, 0x69, 0xe0, 0x63, 0x0b, 0x19, 0x32, 0x86, 0x23, 0xa6, 0x28, 0x62,
   0x98, 0x69, 0x8a, 0x38, 0x79, 0x8c, 0x53, 0x3e, 0x1c, 0xf1, 0x0a, 0x07,
   0xae, 0x98, 0x60, 0x9c, 0x83, 0x07, 0x18, 0x68, 0xc4, 0x00, 0x07, 0x1a,
   0x7e, 0x80, 0x01, 0x0e, 0x9d, 0x7c, 0xc0, 0x11, 0x43, 0x19, 0x71, 0xc0,
   0x0f, 0x97, 0x58, 0xe1, 0x81, 0x13, 0x57, 0x38, 0xf8, 0xab, 0x53, 0x2c,
   0x38, 0xf0, 0x9a, 0x23, 0x8f, 0x30, 0xe3, 0xc9, 0xeb, 0xef, 0xbb, 0xfe,
   0xff, 0xed, 0xaf, 0xdd, 0xfe, 0xf5, 0xba, 0xdf, 0xff, 0x7f, 0x6d, 0xab,
   0xf7, 0x5f, 0xff, 0xf7, 0xbf, 0xbf, 0xff, 0xff, 0xff, 0xff, 0xff, 0xff,
   0xff, 0xff, 0xff, 0xff, 0x7e, 0xff, 0xff, 0xff, 0xff, 0xff, 0xff, 0xff,
   0xff, 0xff, 0xff, 0xff, 0xfd, 0xef, 0xff, 0xff, 0xff, 0xef, 0xff, 0xff,
   0xff, 0xff, 0xff, 0xff, 0xdf, 0xfe, 0xfe, 0xff, 0x57, 0xbf, 0xbe, 0xfa,
   0xd7, 0xad, 0xae, 0x7a, 0x6b, 0xdd, 0xab, 0xae, 0x7a, 0xf5, 0xe2, 0xe9,
   0xbf, 0xfe, 0xfa, 0xff, 0x41, 0x17, 0x0d, 0x78, 0xc1, 0x03, 0x43, 0x0c,
   0x65, 0x84, 0x10, 0x46, 0x98, 0xe0, 0xf9, 0xf5, 0x1f, 0xff, 0xfc, 0xff,
   0x02, 0x16, 0x3c, 0xe0, 0x80, 0x03, 0x8e, 0x18, 0xc2, 0x94, 0x23, 0x8c,
   0x38, 0xe0, 0xe1, 0xd3, 0x3f, 0xfc, 0xf0, 0xff, 0x25, 0x46, 0x98, 0x32,
   0xc9, 0x48, 0xa2, 0x98, 0x72, 0x80, 0x21, 0x47, 0x38, 0xe5, 0xf9, 0xe5,
   0x5f, 0x3e, 0xf8, 0xff, 0x53, 0xc6, 0x39, 0x62, 0x88, 0x03, 0x46, 0x39,
   0xc2, 0x92, 0x07, 0x8e, 0x7a, 0xe0, 0xe1, 0x87, 0x7f, 0x7c, 0xea, 0xff,
   0x21, 0xa6, 0x18, 0xf0, 0xe0, 0x4b, 0xe7, 0x9c, 0x72, 0x80, 0x43, 0x1f,
   0x5c, 0xf9, 0xfa, 0xe7, 0x3f, 0x7f, 0xf9, 0xff, 0x07, 0xa6, 0xb9, 0xe0,
   0x85, 0x4f, 0x87, 0x38, 0xe2, 0x80, 0x0f, 0x3f, 0xfd, 0xf0, 0xf1, 0x0f,
   0x7f, 0xfc, 0xf7, 0xff, 0x21, 0x4b, 0x18, 0xba, 0xc0, 0x8b, 0x67, 0x7c,
   0xb8, 0x84, 0x43, 0x1f, 0x3f, 0xf4, 0xfa, 0xcf, 0x3f, 0x7e, 0xff, 0xff,
   0xa3, 0x07, 0x38, 0x60, 0x8a, 0x4f, 0x87, 0x78, 0xf1, 0x08, 0x0b, 0x3c,
   0xbc, 0xe0, 0xe1, 0x1f, 0x7e, 0xfc, 0x7f, 0xd2, 0xc1, 0x0f, 0x0d, 0x61,
   0xc0, 0x83, 0x4f, 0x7c, 0x78, 0xc0, 0x21, 0x2e, 0x3e, 0xe4, 0xf8, 0x5f,
   0x1f, 0xff, 0xbf, 0x88, 0x8b, 0x1f, 0x38, 0xc6, 0x82, 0x0f, 0x1f, 0xf8,
   0xf0, 0x8d, 0x21, 0x1e, 0x7a, 0xe0, 0xe1, 0x3f, 0x3e, 0xfc, 0x7f, 0x80,
   0xf5, 0x17, 0xbc, 0x7f, 0xfd, 0xf7, 0xef, 0xff, 0xff, 0xfe, 0xef, 0xff,
   0xde, 0xed, 0xd1, 0x3f, 0x2f, 0xff, 0x7f, 0xa9, 0xff, 0xff, 0xfd, 0xfd,
   0xff, 0xbf, 0xff, 0xff, 0xff, 0xfd, 0xdf, 0xfe, 0xff, 0xff, 0xff, 0x7f,
   0xff, 0xfe, 0xff, 0xf7, 0xff, 0xff, 0xff, 0xff, 0xff, 0xff, 0xff, 0xff,
   0xff, 0xff, 0xff, 0xdf, 0xff, 0xff, 0xff, 0xff, 0xff, 0xff, 0xff, 0xff,
   0xdf, 0xff, 0x5f, 0xff, 0xff, 0x5f, 0xff, 0x7f, 0xe9, 0xff, 0xf5, 0xbf,
   0xfe, 0xf9, 0xfa, 0xd7, 0xff, 0xff, 0xff, 0xff, 0xc7, 0xff, 0x1f, 0xff,
   0xff, 0x2f, 0xff, 0xff, 0xe0, 0xff, 0xf0, 0x1f, 0x7f, 0x39, 0xfc, 0xc3,
   0xff, 0xff, 0xff, 0xff, 0x0f, 0x7f, 0x3f, 0xfc, 0xeb, 0x1f, 0xbe, 0xfe,
   0xe8, 0xd7, 0xd3, 0x3f, 0xfe, 0xf1, 0xe8, 0x4f, 0xdf, 0xbe, 0xfd, 0xfb,
   0xcf, 0x97, 0x1e, 0x75, 0xd5, 0x23, 0x57, 0x1d, 0xf0, 0xa8, 0x41, 0x1f,
   0x3f, 0x78, 0xd5, 0xc7, 0x23, 0x5d, 0x79, 0xe5, 0x1f, 0x0f, 0x3c, 0xe0,
   0x80, 0x05, 0x0e, 0x78, 0x61, 0x81, 0x03, 0x3e, 0xfe, 0xe0, 0xc0, 0x8f,
   0x07, 0x18, 0xe0, 0xc0, 0xff, 0x0f, 0x1a, 0x60, 0xc0, 0x01, 0x07, 0x38,
   0x68, 0xc0, 0x21, 0x17, 0x3f, 0x78, 0xc4, 0xcf, 0x07, 0x2c, 0x32, 0xc4,
   0xff, 0x2f, 0x3a, 0x66, 0x8c, 0x11, 0x4e, 0x79, 0x79, 0x86, 0x23, 0x3e,
   0xfd, 0xe3, 0xd0, 0x8f, 0x4f, 0x38, 0xe2, 0x88, 0xff, 0x07, 0x3c, 0xa1,
   0xd6, 0x19, 0x07, 0x78, 0x7c, 0xc4, 0x13, 0x1e, 0xff, 0x79, 0xf1, 0x57,
   0x03, 0x19, 0x61, 0xc6, 0xff, 0x4f, 0x34, 0x65, 0x98, 0x21, 0x8e, 0xf0,
   0xf4, 0x40, 0x73, 0x3e, 0xfc, 0xe3, 0xa0, 0x8f, 0x2f, 0x38, 0x66, 0x8c,
   0xff, 0x87, 0x18, 0x60, 0xc4, 0x11, 0x07, 0x1a, 0x68, 0xc5, 0x01, 0x0e,
   0x7d, 0x79, 0xc4, 0x43, 0x83, 0x94, 0x20, 0xc0, 0xff, 0x1f, 0x39, 0xe9,
   0x80, 0x07, 0x5e, 0x78, 0xe1, 0x89, 0x53, 0x2c, 0x78, 0xe1, 0x88, 0x07,
   0x8a, 0x98, 0xe2, 0xd2, 0xff, 0xaf, 0xae, 0xfa, 0xef, 0xb5, 0x5f, 0xbf,
   0x7c, 0xe0, 0xb5, 0xdf, 0x3f, 0x78, 0xd7, 0xdd, 0xb7, 0xbe, 0xee, 0xf5,
   0xff, 0xff, 0xfe, 0xff, 0xfd, 0x7f, 0xff, 0xff, 0xff, 0xeb, 0xff, 0xff,
   0xfe, 0xfa, 0xff, 0xfb, 0xff, 0xfd, 0xff, 0xff, 0xff, 0xff, 0xff, 0xff,
   0xff, 0xff, 0xff, 0xff, 0xff, 0xff, 0xff, 0xff, 0xff, 0xff, 0xff, 0xff,
   0xff, 0xff, 0xff, 0xff, 0xff, 0xff, 0xff, 0xff, 0xff, 0xff, 0xff, 0xff,
   0xff, 0xff, 0xff, 0xff, 0xff, 0xff, 0xef, 0xdf, 0xdf, 0xff, 0xff, 0xff,
   0xff, 0xff, 0xff, 0xff, 0xff, 0xf3, 0xff, 0xff, 0xff, 0xff, 0xff, 0xff,
   0xff, 0xff, 0xf5, 0xcf, 0x5f, 0xff, 0xff, 0xff, 0xb7, 0xbf, 0xff, 0xf6,
   0xf7, 0xa7, 0xef, 0x7e, 0xf7, 0xff, 0x6f, 0xdf, 0xfb, 0xfd, 0xe3, 0x8f,
   0x3f, 0xfe, 0xff, 0xff, 0x55, 0x57, 0x5c, 0xf5, 0xca, 0xc1, 0xd6, 0x5a,
   0xb5, 0x84, 0xa9, 0x56, 0x1d, 0xf5, 0xf1, 0xcf, 0x1f, 0xff, 0xff, 0xff,
   0x01, 0x16, 0x38, 0xe0, 0x81, 0x03, 0x87, 0x18, 0x60, 0x98, 0x03, 0x86,
   0x30, 0xe0, 0xe3, 0x4f, 0x3f, 0xbd, 0xea, 0xff, 0x01, 0x87, 0xb8, 0xd0,
   0x88, 0xc5, 0xa7, 0x18, 0xa1, 0x80, 0x25, 0x86, 0x18, 0xf8, 0xf8, 0x97,
   0x3f, 0x5e, 0xe4, 0xff, 0x23, 0x26, 0x38, 0xf5, 0xa1, 0x4b, 0x4f, 0x39,
   0xa2, 0x82, 0x47, 0x9f, 0xb8, 0xf0, 0xe1, 0x97, 0x7f, 0x3c, 0xe0, 0xff,
   0x51, 0x42, 0x7c, 0x7c, 0xc0, 0xe5, 0x47, 0xb9, 0xf8, 0x90, 0x8b, 0x07,
   0x5e, 0xfc, 0xf1, 0xcf, 0x1f, 0x9f, 0xf4, 0xff, 0x03, 0x4e, 0xb8, 0xf4,
   0x84, 0x85, 0x0e, 0x78, 0xf1, 0x80, 0x07, 0x3e, 0x3c, 0xe0, 0xe3, 0x8f,
   0x3f, 0xbe, 0xeb, 0xff, 0xc3, 0x0f, 0x3c, 0xf8, 0x80, 0x07, 0x4f, 0x78,
   0x78, 0xc9, 0x22, 0x1f, 0x1f, 0xf1, 0xf9, 0xcf, 0x3f, 0xff, 0xff, 0xff,
   0x49, 0xff, 0x38, 0xe8, 0xa4, 0x17, 0x1e, 0xf1, 0xf4, 0xc9, 0x03, 0x0e,
   0x3d, 0xf0, 0xe3, 0x9f, 0x3f, 0xfe, 0xff, 0xff, 0xe1, 0x1f, 0xf8, 0xfb,
   0xdb, 0xdf, 0x7f, 0xfd, 0xff, 0xff, 0x7f, 0x27, 0xbf, 0xf7, 0xeb, 0xef,
   0x4f, 0xff, 0xff, 0xff, 0xcb, 0xff, 0x7a, 0xff, 0xff, 0xff, 0xff, 0xff,
   0xfe, 0xfb, 0xfb, 0x6f, 0xff, 0xfe, 0xef, 0xff, 0xff, 0xff, 0xff, 0xff,
   0xff, 0xff, 0xff, 0xff, 0xff, 0xff, 0xff, 0xff, 0xff, 0xef, 0xff, 0xff,
   0xff, 0xff, 0xff, 0xff, 0xff, 0xff, 0xff, 0xff, 0xff, 0xff, 0xff, 0xfa,
   0xeb, 0xff, 0x57, 0xfd, 0xff, 0xab, 0xff, 0x7f, 0xff, 0xfd, 0xff, 0xff,
   0xff, 0xbf, 0xfd, 0xff, 0xff, 0xff, 0xff, 0xe9, 0xaa, 0xff, 0x4f, 0xf5,
   0xf4, 0xc0, 0x57, 0xaf, 0x7e, 0xf5, 0xff, 0xff, 0xff, 0x7f, 0xf4, 0xe9,
   0xff, 0xff, 0x7f, 0xf1, 0xc1, 0x53, 0x0e, 0xf8, 0xfc, 0x83, 0x6f, 0x0f,
   0xf8, 0xf0, 0xff, 0xef, 0xff, 0xbf, 0xe0, 0xc1, 0xff, 0x7f, 0xbf, 0xe8,
   0xe8, 0x01, 0x47, 0x7c, 0x79, 0xc8, 0x57, 0x07, 0x3c, 0xfa, 0xd5, 0x5d,
   0xff, 0x1f, 0xf8, 0xf5, 0xff, 0x7f, 0x3e, 0xe0, 0xd1, 0x07, 0x9e, 0xf8,
   0xf8, 0x80, 0xff, 0x0f, 0x78, 0xe8, 0x93, 0x03, 0x6e, 0x3d, 0xc0, 0xeb,
   0xff, 0x5f, 0x3f, 0x75, 0xf4, 0x11, 0x0e, 0xfe, 0x7e, 0xa0, 0xff, 0x43,
   0x38, 0x70, 0xc0, 0x01, 0x9e, 0x0a, 0xe0, 0xff, 0xff, 0x7f, 0x3e, 0xea,
   0xe0, 0x53, 0x3e, 0xfa, 0xf8, 0x81, 0xff, 0x0f, 0x79, 0xe1, 0x84, 0x5f,
   0x16, 0x58, 0xe4, 0xff, 0xff, 0x1f, 0x3f, 0xf0, 0xd0, 0x01, 0x0f, 0x7e,
   0x7c, 0x82, 0xff, 0x07, 0x38, 0x78, 0xe0, 0x37, 0xae, 0x1e, 0xf0, 0xff,
   0xff, 0x3f, 0xfc, 0xe0, 0xa9, 0x03, 0x3e, 0xf8, 0xf8, 0x8a, 0xff, 0x17,
   0xfa, 0x72, 0x85, 0xff, 0xfe, 0x7d, 0xe0, 0xff, 0xff, 0x1f, 0x7f, 0x7d,
   0x80, 0xb7, 0x0e, 0xfe, 0xfc, 0xa0, 0xff, 0x2f, 0x7e, 0xff, 0xc0, 0x7f,
   0xbf, 0x9f, 0xf8, 0xff, 0xff, 0x3f, 0xfc, 0xf1, 0x80, 0xef, 0x5f, 0xfc,
   0xf9, 0xe2, 0xff, 0xaf, 0xfc, 0xff, 0x8d, 0xff, 0xff, 0x7f, 0xf5, 0xff,
   0xff, 0x3f, 0xff, 0xff, 0xff, 0xff, 0xbf, 0xff, 0xfe, 0xf4, 0xff, 0xff,
   0xff, 0xff, 0xff, 0xff, 0xff, 0xff, 0xff, 0xff, 0xff, 0x7f, 0xff, 0x7f,
   0xeb, 0xff, 0xbf, 0xfd, 0xff, 0xef, 0xff, 0xff, 0xff, 0xff, 0xff, 0xff,
   0xff, 0xff, 0xff, 0xff, 0xff, 0xff, 0xff, 0xfe, 0xff, 0xff, 0xff, 0xff,
   0xfa, 0xff, 0xff, 0xff, 0xff, 0xff, 0xff, 0xff, 0xff, 0xbf, 0xff, 0xff,
   0x8b, 0xff, 0xff, 0xf9, 0xd5, 0xdf, 0xff, 0xdf, 0xe2, 0xff, 0xff, 0xbf,
   0xbe, 0xfd, 0xff, 0xf1, 0xd3, 0x2f, 0xfe, 0xff, 0xa7, 0xbf, 0x3e, 0xf4,
   0xe1, 0xaf, 0xff, 0x3f, 0xe8, 0xff, 0xff, 0x2f, 0x7f, 0xfa, 0xff, 0xf4,
   0xe3, 0x8e, 0xf6, 0xf3, 0x05, 0xbf, 0xfe, 0xf8, 0xc5, 0x9f, 0xff, 0xbf,
   0xe0, 0xff, 0xff, 0x3f, 0x7e, 0xf0, 0xff, 0x61, 0xc7, 0x29, 0xc4, 0xe7,
   0x53, 0x2f, 0x3d, 0xf9, 0xe1, 0xcb, 0xa7, 0x1a, 0xe8, 0xff, 0xff, 0x1f,
   0x1f, 0x79, 0xf5, 0x39, 0x22, 0x9c, 0xf2, 0xf5, 0x07, 0x0f, 0x78, 0xf0,
   0x89, 0xff, 0x8f, 0xb8, 0xe8, 0xe5, 0xff, 0x3f, 0x3c, 0x71, 0xc5, 0x51,
   0xc6, 0x1a, 0xe4, 0xe3, 0xef, 0x07, 0x78, 0xfa, 0xe4, 0xef, 0xa3, 0x18,
   0xf0, 0xf3, 0xff, 0x5f, 0x3f, 0x74, 0xd0, 0x00, 0x03, 0x8c, 0xf0, 0xf0,
   0xff, 0x3f, 0xfd, 0xf4, 0xe5, 0xff, 0x4f, 0xb9, 0xe0, 0xe3, 0xff, 0x3f,
   0xfc, 0x78, 0x81, 0x13, 0x0a, 0x18, 0xe8, 0xe5, 0xff, 0x2f, 0x7d, 0xff,
   0xff, 0xff, 0x87, 0xf8, 0xf8, 0xfd, 0xef, 0xdf, 0x1f, 0xe8, 0xc8, 0x0a,
   0x27, 0xb9, 0x70, 0xd8, 0xff, 0x3f, 0xfd, 0xff, 0xfd, 0xff, 0x0f, 0xf8,
   0xe0, 0xfb, 0x8f, 0xff, 0x7f, 0xf9, 0x81, 0x23, 0x46, 0x38, 0xe2, 0xc8,
   0xff, 0x87, 0xfc, 0xff, 0xff, 0xff, 0x07, 0xb8, 0xe0, 0xff, 0x47, 0xff,
   0xff, 0x3e, 0xe4, 0x01, 0x53, 0x8d, 0x70, 0xa0, 0xff, 0x0f, 0xf8, 0xff,
   0xff, 0xff, 0xaf, 0x7b, 0xe0, 0xff, 0x8f, 0xff, 0xff, 0xff, 0xca, 0x2b,
   0x66, 0x98, 0xe2, 0xe3, 0xff, 0xbf, 0xfd, 0xff, 0xff, 0xff, 0xcf, 0xbf,
   0xea, 0xff, 0xa7, 0xff, 0xff, 0xff, 0xff, 0x5f, 0xbf, 0x7e, 0xf5, 0xed,
   0xff, 0xff, 0xff, 0xff, 0xff, 0xff, 0xdf, 0xff, 0xfb, 0xff, 0xdf, 0xff,
   0xff, 0xff, 0xff, 0xff, 0xfe, 0xfd, 0xff, 0xff, 0xf7, 0x7f, 0xff, 0xfe,
   0xff, 0xff, 0x7f, 0xff, 0xff, 0xf7, 0xef, 0xff, 0xfe, 0xfe, 0xf6, 0xfb,
   0xff, 0xff, 0xfd, 0xff, 0xd7, 0xff, 0xfc, 0xf8, 0xe2, 0xff, 0x3f, 0xbe,
   0xea, 0x8a, 0xd7, 0xdf, 0xfc, 0xf8, 0xd5, 0xc7, 0xbf, 0xfc, 0x74, 0xc9,
   0xe3, 0x2f, 0x3e, 0xfa, 0xa9, 0x93, 0x4f, 0x7f, 0x68, 0xa1, 0x4b, 0x3f,
   0x5f, 0x74, 0xa9, 0xd7, 0xbf, 0x3e, 0xf8, 0xd2, 0x87, 0xaf, 0x7e, 0x78,
   0xe1, 0x27, 0x1f, 0x7d, 0x60, 0x04, 0x03, 0x07, 0xb8, 0xe0, 0xc0, 0x8b,
   0x2e, 0xf8, 0xe2, 0x80, 0xcb, 0x0f, 0x3f, 0xf9, 0xd0, 0xc3, 0x2f, 0xbf,
   0x68, 0xda, 0x21, 0x06, 0x1c, 0x30, 0x80, 0x03, 0x0f, 0x1d, 0xe8, 0xd2,
   0x03, 0x1f, 0x3c, 0xf0, 0xe2, 0x07, 0x0f, 0x7c, 0x60, 0xac, 0x25, 0x9e,
   0x38, 0x72, 0x95, 0x8f, 0x3e, 0xba, 0xf0, 0xe3, 0x87, 0x2f, 0x7e, 0xf9,
   0xa1, 0x8b, 0x1f, 0x5e, 0x30, 0xfe, 0x83, 0x47, 0x5c, 0xf1, 0xc0, 0xcb,
   0x2f, 0xfd, 0xfc, 0xf1, 0x97, 0x1e, 0x78, 0xe8, 0xc5, 0x27, 0x5e, 0x3a,
   0x60, 0xd8, 0x13, 0x0f, 0x3a, 0x70, 0xd1, 0x8f, 0x3f, 0xff, 0xf4, 0xe3,
   0x01, 0x47, 0x1a, 0x71, 0xa0, 0x81, 0x06, 0x1c, 0x74, 0x56, 0x85, 0x16,
   0x1d, 0x75, 0xa4, 0x4f, 0x1f, 0x7d, 0xf9, 0xf3, 0x03, 0x0e, 0x38, 0xe0,
   0x80, 0x03, 0x0e, 0x98, 0x60, 0x80, 0x11, 0x4e, 0x38, 0xe0, 0x84, 0x8b,
   0x3f, 0xfe, 0xe8, 0xc3, 0x11, 0x86, 0x18, 0xa2, 0x84, 0x11, 0x46, 0x08,
   0xe0, 0xc0, 0x01, 0x02, 0x18, 0x60, 0x80, 0x03, 0x0e, 0x38, 0x70, 0xa0,
   0x23, 0x8c, 0x30, 0x60, 0x08, 0x23, 0x8c, 0x58, 0xe5, 0xe3, 0x43, 0x0e,
   0x39, 0xe5, 0x90, 0x97, 0x5e, 0xba, 0xe4, 0xc5, 0xa9, 0x26, 0x9d, 0x66,
   0xa9, 0xa9, 0xa6, 0x5a, 0xf1, 0xf9, 0xad, 0xb7, 0x5a, 0xba, 0xea, 0xab,
   0x57, 0x7d, 0xf5, 0xb2, 0xbb, 0xff, 0xfd, 0xfd, 0xff, 0xef, 0xef, 0xfe,
   0xff, 0xeb, 0xff, 0xff, 0xff, 0xf7, 0xdf, 0xff, 0xff, 0xff, 0xff, 0xff,
   0xff, 0xdf, 0x7f, 0xff, 0xeb, 0xbf, 0xbf, 0xff, 0xff, 0xff, 0xbf, 0xdf,
   0xff, 0xfd, 0xfb, 0xff, 0xff, 0xfe, 0xff, 0xff, 0xdb, 0x1f, 0xfc, 0xfc,
   0xef, 0xa7, 0x3f, 0xf8, 0xfb, 0xff, 0x6f, 0x1f, 0xff, 0xfb, 0xe3, 0xb7,
   0xff, 0xbc, 0xfe, 0xe5, 0x41, 0x2f, 0x3d, 0xf6, 0xe1, 0x47, 0x8f, 0xbe,
   0xf6, 0xff, 0x05, 0x9f, 0x7f, 0xf8, 0xf2, 0xd7, 0x5f, 0x2e, 0xfd, 0xf1,
   0x09, 0x0e, 0xf8, 0xfc, 0xd3, 0x47, 0x1f, 0x7c, 0xf0, 0xad, 0x0b, 0x36,
   0xfa, 0xf0, 0x81, 0x16, 0x5e, 0x38, 0xf9, 0xc2, 0x21, 0x53, 0x1a, 0x70,
   0xc0, 0x12, 0x87, 0x1c, 0x55, 0xca, 0x20, 0x06, 0x1c, 0x65, 0xa4, 0x41,
   0x03, 0x0d, 0xf4, 0xc8, 0x01, 0x46, 0x38, 0x61, 0x89, 0x01, 0x0e, 0x38,
   0xe0, 0x88, 0x03, 0xce, 0x18, 0x61, 0x88, 0x11, 0x4e, 0x78, 0xe0, 0xc1,
   0x32, 0x06, 0x19, 0x63, 0x86, 0x39, 0xe2, 0x88, 0xe3, 0xe0, 0x48, 0xa2,
   0x2c, 0x73, 0xd6, 0x29, 0x8f, 0x1c, 0x65, 0xc0, 0x41, 0x0e, 0x98, 0x66,
   0x9c, 0x71, 0xc6, 0x19, 0xe7, 0xc3, 0x49, 0xc6, 0x18, 0x63, 0x8a, 0x31,
   0x1e, 0x38, 0xe1, 0x8a, 0x39, 0x22, 0x8c, 0x23, 0x96, 0x28, 0xa6, 0x98,
   0xe2, 0xa0, 0x01, 0xa6, 0x2c, 0x65, 0xcc, 0x29, 0x5f, 0x1f, 0xe4, 0x90,
   0x51, 0xa6, 0x18, 0x64, 0x88, 0x51, 0x86, 0x18, 0xe2, 0x84, 0x51, 0x86,
   0x2c, 0xe2, 0x88, 0x29, 0x3e, 0x7c, 0xe0, 0x92, 0x01, 0x07, 0x1c, 0xf1,
   0xa4, 0x03, 0x17, 0x5d, 0xb4, 0xac, 0x01, 0x4f, 0x5c, 0x78, 0xc0, 0x03,
   0x0f, 0x1e, 0x7a, 0x80, 0x81, 0xce, 0x78, 0xe8, 0xc1, 0x0b, 0x2e, 0x78,
   0xf0, 0xdd, 0x03, 0x1e, 0x78, 0xe0, 0x83, 0x07, 0x2e, 0x18, 0xfc, 0x88,
   0x7f, 0xb7, 0x7f, 0xf7, 0xf6, 0xef, 0xdf, 0xbf, 0xfd, 0xff, 0xfd, 0xef,
   0xbf, 0xfb, 0xfa, 0xfb, 0xbf, 0xff, 0xff, 0xf7, 0xed, 0xff, 0xff, 0xff,
   0xff, 0xff, 0xbf, 0xff, 0xff, 0xff, 0xeb, 0x7f, 0xff, 0xff, 0xff, 0xff,
   0xff, 0x7f, 0xff, 0xfe, 0xff, 0x7f, 0xff, 0xff, 0xff, 0xff, 0xff, 0xff,
   0xff, 0xff, 0xff, 0xff, 0xff, 0xff, 0xff, 0xef, 0xff, 0xfe, 0xff, 0xff,
   0xef, 0xff, 0x7e, 0xfd, 0xeb, 0xff, 0x5f, 0xfe, 0xff, 0xff, 0xef, 0x7f,
   0x7d, 0xfd, 0xff, 0xef, 0xff, 0xfd, 0xfd, 0xff, 0xd3, 0xbf, 0xfe, 0xf4,
   0xea, 0xb7, 0x3f, 0xff, 0xff, 0xff, 0xd3, 0x7f, 0xfe, 0xf4, 0xed, 0xd3,
   0xbf, 0x7e, 0xfc, 0xf5, 0x8f, 0x3f, 0xbd, 0xf8, 0xa1, 0xa7, 0x5f, 0xfe,
   0xf6, 0xf7, 0x8f, 0xff, 0xfc, 0xf8, 0xa9, 0x8f, 0x7f, 0xfc, 0xf0, 0xe5,
   0xd3, 0x17, 0x3f, 0x7a, 0xe4, 0x8b, 0x2f, 0x9d, 0x75, 0xd5, 0x53, 0x0f,
   0x3e, 0x72, 0xe5, 0xe7, 0x1f, 0x5f, 0xfc, 0xea, 0x07, 0x1f, 0x7c, 0xf0,
   0xc0, 0x0b, 0x0f, 0x1d, 0xe0, 0x80, 0x07, 0x1e, 0x74, 0xe0, 0x80, 0x87,
   0x2f, 0xbe, 0xf4, 0xe1, 0x81, 0x46, 0x1c, 0xf1, 0xa2, 0x21, 0x4f, 0x5c,
   0x22, 0xc2, 0x21, 0x45, 0x18, 0x62, 0x84, 0xcb, 0x1f, 0x7f, 0xfc, 0xf2,
   0x97, 0x0e, 0x38, 0xe1, 0xa4, 0x07, 0x0e, 0x18, 0x64, 0x9c, 0x03, 0x8e,
   0x38, 0xe2, 0x88, 0x4f, 0x3f, 0xfe, 0xf8, 0xe3, 0x01, 0x57, 0x5e, 0xb8,
   0xc0, 0x91, 0x96, 0x2c, 0x60, 0xd2, 0x01, 0x06, 0x18, 0x60, 0x80, 0xc7,
   0x3f, 0x7f, 0xfc, 0xf5, 0x2b, 0x46, 0x18, 0xe1, 0x88, 0x93, 0x8e, 0x8c,
   0xe0, 0x80, 0x43, 0x0e, 0x39, 0xe4, 0x90, 0x0f, 0x2f, 0xfc, 0xf0, 0xc1,
   0x01, 0x0f, 0x38, 0x70, 0x80, 0x01, 0x06, 0x28, 0x60, 0xa1, 0x09, 0x06,
   0x18, 0x60, 0x80, 0x83, 0x0e, 0x3a, 0xe8, 0xd0, 0x03, 0x0c, 0x39, 0xe1,
   0x92, 0x47, 0x1e, 0x19, 0xe5, 0xe3, 0x8b, 0x3e, 0xfa, 0xe8, 0xa3, 0x17,
   0x5e, 0x78, 0xe1, 0xc2, 0xaf, 0xbf, 0xbe, 0xfa, 0xea, 0x55, 0x57, 0xbd,
   0xfa, 0xf1, 0xaf, 0xaf, 0x7e, 0xfd, 0xf5, 0xa5, 0xaf, 0xbe, 0xfa, 0xd5,
   0xff, 0xff, 0xfd, 0xf7, 0xff, 0xff, 0xff, 0xff, 0xfb, 0xf7, 0xff, 0xff,
   0xff, 0xfb, 0xef, 0xff, 0xff, 0xff, 0xff, 0xff, 0xdf, 0xff, 0xff, 0xff,
   0xdf, 0xdf, 0xff, 0xff, 0xff, 0xff, 0xff, 0xff, 0xff, 0xff, 0xff, 0xff,
   0xff, 0xbf, 0xff, 0xff, 0xa9, 0xbe, 0xfe, 0xfe, 0xfb, 0xbf, 0x5f, 0xfd,
   0xff, 0xff, 0xff, 0xbf, 0xff, 0xfb, 0xf7, 0xff, 0x7f, 0xbd, 0xfe, 0xff,
   0x01, 0x17, 0x3d, 0xfe, 0xc7, 0x83, 0x3f, 0xfa, 0xff, 0xf7, 0xff, 0x47,
   0xff, 0xf8, 0xd2, 0xb7, 0xbf, 0x0a, 0xff, 0xed, 0x03, 0x2e, 0xfc, 0xf8,
   0xcb, 0x0f, 0x1f, 0x5c, 0xe8, 0xf5, 0x57, 0x1f, 0xbe, 0xf1, 0xd1, 0x27,
   0x37, 0x3c, 0xf4, 0xc9, 0x91, 0x86, 0x3e, 0xf8, 0xe0, 0xa3, 0x2f, 0xba,
   0xf2, 0xe3, 0x8b, 0xa6, 0x2c, 0xb2, 0xc4, 0x28, 0x47, 0x15, 0x68, 0x94,
   0x03, 0x0e, 0xf8, 0xe0, 0x83, 0x07, 0x1d, 0x3c, 0xe4, 0xd2, 0x13, 0xa6,
   0x5c, 0x62, 0x88, 0x23, 0x8e, 0x78, 0xe0, 0x88, 0x01, 0x82, 0x2c, 0xb0,
   0xc0, 0x01, 0x86, 0x18, 0x70, 0xd5, 0x00, 0x43, 0x1c, 0x61, 0xc4, 0x10,
   0x46, 0x1c, 0x65, 0xc8, 0x53, 0x8e, 0x98, 0x62, 0x0a, 0x2b, 0x8e, 0x38,
   0x62, 0x80, 0x09, 0x8e, 0x38, 0xe6, 0x8c, 0x53, 0x9e, 0x38, 0xe2, 0x81,
   0x29, 0x46, 0x38, 0x65, 0x94, 0x51, 0x46, 0x99, 0xe5, 0xd2, 0x21, 0x63,
   0x9c, 0x61, 0x94, 0x31, 0x2e, 0x5e, 0xd0, 0xea, 0x53, 0x8e, 0x31, 0xe2,
   0x88, 0x23, 0x8e, 0x38, 0xe2, 0xe5, 0x03, 0x86, 0x38, 0xe5, 0x88, 0x43,
   0x1e, 0x3e, 0xf0, 0xe1, 0x01, 0x4b, 0x1c, 0x70, 0xc4, 0x82, 0x46, 0x18,
   0xd0, 0xf3, 0x10, 0x4f, 0x1c, 0xe0, 0x80, 0x13, 0x0e, 0x9f, 0xf6, 0xe2,
   0x0b, 0x06, 0xb8, 0xe0, 0x81, 0x0b, 0x1e, 0xba, 0xf0, 0xe7, 0x01, 0x0f,
   0x78, 0xc1, 0x0b, 0x07, 0x1c, 0x1e, 0xfc, 0xe0, 0xf7, 0xef, 0xfd, 0xfe,
   0xfe, 0xb7, 0xef, 0x7e, 0xff, 0xfd, 0xf9, 0xbf, 0xfd, 0xfe, 0xea, 0xdf,
   0x47, 0x5f, 0x7e, 0xf9, 0xdf, 0xdf, 0xff, 0xfb, 0xf7, 0xff, 0xff, 0xff,
   0xf5, 0xff, 0xab, 0xff, 0xff, 0xfb, 0xff, 0x7f, 0x7f, 0xdf, 0xfd, 0xf7,
   0xff, 0xff, 0xff, 0xff, 0xff, 0xff, 0xaf, 0xfe, 0xff, 0xff, 0xff, 0xff,
   0xff, 0xff, 0xff, 0xff, 0xff, 0x7f, 0xff, 0xff, 0xff, 0xd7, 0xff, 0xff,
   0xee, 0xff, 0x4f, 0xf8, 0xff, 0xe1, 0xdf, 0xff, 0xfd, 0xff, 0xff, 0xff,
   0xdf, 0x4f, 0xfb, 0xff, 0xdf, 0x6b, 0xff, 0x7f, 0xa9, 0xf7, 0x07, 0xfc,
   0x79, 0xe5, 0x47, 0xbf, 0x7e, 0xfd, 0xd5, 0xe9, 0x2f, 0x0e, 0xf5, 0xee,
   0x9f, 0xc3, 0x5b, 0x74, 0x80, 0xc7, 0x8f, 0x78, 0xf1, 0xc1, 0x8f, 0x7e,
   0xb0, 0xb8, 0xaa, 0x03, 0x4e, 0x1c, 0xc0, 0xcc, 0xc7, 0x87, 0x3a, 0xb8,
   0xf1, 0xf3, 0x07, 0x8c, 0x68, 0xa8, 0x01, 0xbf, 0x5c, 0x74, 0xc0, 0x01,
   0x16, 0x5a, 0xf2, 0xc9, 0x9f, 0x8f, 0xa9, 0x60, 0xa2, 0xc7, 0x0b, 0x98,
   0x70, 0x81, 0x01, 0x3c, 0x1c, 0xe0, 0x80, 0x45, 0x06, 0x18, 0xe1, 0x81,
   0x97, 0x97, 0x1c, 0x31, 0x41, 0xe3, 0x27, 0x18, 0xa2, 0xa0, 0x52, 0x3e,
   0x4c, 0x28, 0xce, 0x97, 0x57, 0x1a, 0x72, 0xd1, 0x17, 0x97, 0x18, 0x62,
   0x82, 0xcf, 0x07, 0x78, 0xa4, 0x80, 0x41, 0xbe, 0x98, 0xf0, 0x88, 0x4f,
   0x4f, 0x2c, 0xe6, 0xd3, 0x51, 0x1f, 0x4f, 0xe1, 0xf9, 0xe3, 0x4f, 0x7e,
   0xea, 0xea, 0x02, 0x5e, 0x1c, 0x79, 0xc4, 0x8f, 0x0f, 0x1a, 0x61, 0xe1,
   0x13, 0x3f, 0x1e, 0xc5, 0xe3, 0xa7, 0x4f, 0xf8, 0xf8, 0xc1, 0x92, 0x5a,
   0x38, 0xe0, 0x8c, 0x3f, 0x5f, 0x7c, 0xe5, 0xd0, 0x01, 0x3e, 0x1a, 0xf1,
   0xd2, 0xc7, 0x07, 0xff, 0xfa, 0x8a, 0xc7, 0x07, 0x2c, 0x69, 0xc0, 0x9f,
   0x0e, 0x3a, 0x30, 0xc4, 0x21, 0xfc, 0x78, 0xe4, 0xe3, 0x1f, 0x2f, 0xfe,
   0xe3, 0x99, 0x8f, 0x8b, 0x78, 0xc5, 0x8a, 0x3f, 0x3e, 0xfc, 0xf5, 0x94,
   0x5d, 0xff, 0xfa, 0xfa, 0xeb, 0x8f, 0x9f, 0xff, 0xfd, 0xdb, 0xef, 0xd7,
   0xbf, 0xf6, 0xee, 0x7f, 0x4f, 0xff, 0xba, 0xdf, 0xdd, 0xff, 0xff, 0xff,
   0xff, 0x7f, 0xff, 0xff, 0xff, 0xbf, 0xdf, 0xff, 0xfd, 0xff, 0xdf, 0xff,
   0xff, 0xfc, 0xff, 0xff };
