/* XPM */
static char * ransomware_xpm[] = {
"94 94 12 1",
" 	c None",
".	c #FDFFFB",
"+	c #D49091",
"@	c #CD8C8F",
"#	c #DBB8B8",
"$	c #E3D7D4",
"%	c #C73A3F",
"&	c #CF6F6F",
"*	c #BD1921",
"=	c #AD1D21",
"-	c #A53932",
";	c #B06B6C",
"..............................................................................................",
"..............................................................................................",
"..+@@@@@@@@@@@@@@@@@@@@@@@@@@@@@@@@@@@@@@@@@@@@@@@@@@@@@@@@@@@@@@@@@@@@@@@@@@@@@@@@@@@@@@@@+..",
"..++@@@@@@@++@@+@@++@@@@@++@@@@@@++@++@++@+@@@@@@@@@+@@++@@+@@++@@@@@++@@@@@++@@+@@@++@+@@+@..",
"..+@+@@++@@@@@+@@+@@@+@+++@@++@@@@@@+@@@@@+++++++++@@@@@@@@@+@@@@+@++@@@+++@@+@+@@@+@@+@@@+@..",
"..+@+@@++++@+@+@++@+@@+@@+@@+@@+++@@@@#$$$........$$$$#++@@+@@@@@@+@@+@@+@+++@+@+@@++++++++@..",
"..++@@@@@@@@@@@@@@@@@@@++@@@@@@++@@#$...................$$#+@@+@@@@++@@@@@@@@@@@@@@@@@@@@@+@..",
"..+@@@@++@@@+@@@++@@@@@+++@@+@@@+$.........................$#+@+@@@+@@@@@+@@+@@@+@@@@@@+@@+@..",
"..+@@@@+@@@+@@+@++@@@@@@@+++@++#$............................$#@@@@++@@@@@++@@@+@@+@@@@@@@+@..",
"..+@@@@@+@@+@+@@++@++@@@@@@@@@$................................$+@@@@@@@+@++@++@+@++@@@@@++@..",
"..+@@@+@@+@@+@+@@@+@@+@@@@+++$...................................#+@@@@+@+@@+@@++@@+@@@@@@+@..",
"..+@@@@++@@@@+@@@@@++@@@@+@@$....................................$++@@@@+@@@@++@@++@@@@@@@+@..",
"..+@@@@@@@@@@@@@@@@@@@@@@+@$......................................$@+@@@@@@@@@@@@@@@@@@@@@+@..",
"..+@@@@@@@@@@@@@@@@@@@@@+@#..............$##+##++##$...............#+@@@@@@@@@@@@@@@@@@@@@+@..",
"..+@@@@@@@@@@@@@@@@@@@@+++.............#+@@@@@@@@@@@@#.............$@+@@@@@@@@@@@@@@@@@@@@+@..",
"..+@@@@@@@@@@@@@@@@@@@@@+#...........$#@@@@@@@@@@@@@@@#$............#+@@@@@@@@@@@@@@@@@@@@+@..",
"..+@@@@@@@@@@@@@@@@@@@@+@$..........$@@@+@@@@@@@@@@@@@@@$...........#+@@@@@@@@@@@@@@@@@@@@+@..",
"..+@@@@@@@@@@@@@@@@@@@@+#..........$@@@@@@@@@@@@@@@@@@@@@$..........#+@@@@@@@@@@@@@@@@@@@@+@..",
"..+@@@@@@@@@@@@@@@@@@@@+$.........$@@@@@@@@@@@@@@@@@@@@@@#..........$@@@@@@@@@@@@@@@@@@@@@+@..",
"..+@@@@@@@@@@@@@@@@@@@+@$.........#@@@@@@@@@@@@@@@@@@@@@@@$.........$++@@@@@@@@@@@@@@@@@@@@@..",
"..+++++++++++++++++++++#.........$+@@@@@@@@@@@@@@@@@@@@@@@#.........$@@+++++++++++++++++++++..",
"..+++++++++++++++++++++#.........$@@@@@@@@@@@@@@@@@@@@@@@@@$........$@++++++++++++++++++++++..",
"..+++++++++++++++++++++#.........#@@@@@@@@@@@@@@@@@@@@@@@@@$........$@++++++++++++++++++++++..",
"..+++++++++++++++++++++#.........#@@@@@@@@@@@@@@@@@@@@@@@@@#........$@++++++++++++++++++++++..",
"..+++++++++++++++++++++#.........#@@@@@@@@@@@@@@@@@@@@@@@@@#........$@++++++++++++++++++++++..",
"..+++++++++++++++++++++#.........#@@@@@@@@@@@@@@@@@@@@@@@@@#........$@++++++++++++++++++++++..",
"..+++++++++++++++++++++#.........#@@@@@@@@@@@@@@@@@@@@@@@@@#........$@++++++++++++++++++++++..",
"..+++++++++++++++++++++#.........#@@@@@@@@@@@@@@@@@@@@@@@@@#........$@++++++++++++++++++++++..",
"..+++++++++++++++++++++#.........#@@@@@@@@@@@@@@@@@@@@@@@@@#........$@++++++++++++++++++++++..",
"..+++++++++++++++++++++#.........#@@@@@@@@@@@@@@@@@@@@@@@@@#........$@++++++++++++++++++++++..",
"..+++++++++++++++++++++#.........#@@@@@@@@@@@@@@@@@@@@@@@@@#........$@++++++++++++++++++++++..",
"..+++++++++++++++++++++#.........#@@@@@@@@@@@@@@@@@@@@@@@@@#........$+++++++++++++++++++++++..",
"..+++++++++++++++++++++#.........#@@@@@@@@@@@@@@@@@@@@@@@@@#........$+++++++++++++++++++++++..",
"..+++++++++++++++++++++#.........#@@@@@@@@@@@@@@@@@@@@@@@@@#........$@++++++++++++++++++++++..",
"..+++++++++++++++++++++#.........#@@@@@@@@@@@@@@@@@@@@@@@@@#........$@++++++++++++++++++++++..",
"..+++++++++++++++++++++#.........#@@@@@@@@@@@@@@@@@@@@@@@@@#........$+++++++++++++++++++++++..",
"..+++++++++++++++++++++#.........#@@@@@@@@@@@@@@@@@@@@@@@@@#........$+++++++++++++++++++++++..",
"..%&+++++++++++++++++++#.........#@@@@@@@@@@@@@@@@@@@@@@@@@#........$+++++++++++++++++++++++..",
"..*==%%&&&++@++++++++++#.........#@@@@@@@@@@@@@@@@@@@@@@@@@#........$+++++++++++++++++++++++..",
"..*=*=====-%&&&++++++++#.........#@@@@@@@@@@@@@@@@@@@@@@@@@#........$+++++++++++++++++++++++..",
"..*=======*=*==%=-%&&&++.........#@@@@@@@@@@@@@@@@@@@@@@@@@#........$+++++++++++++++++++++++..",
"..*==================*=&.........#@@@@@@@@@@@@@@@@@@@@@@@@@#........$+++++++++++++++++++++++..",
"..*===================*%.........@&;@@@@@@@@@@@@@@@@@@@@@@@#........$@++++++++++++++++++++++..",
"..*===================*&.........;==-----;;&;@@@@@@@@@@@@@@#........$@++++++++++++++++++++++..",
"..*===================*%.........&==============-----&&;;;;#........$@++++++++++++++++++++++..",
"..*===============*===*&.........;-----------------------;&+........$@@++@&&+++++++++++@@@++..",
"..*===============%+####.........$###########$$$$$$$$$$#$$$$.........$$$$+%=%--%%%%%&&&&&&&&..",
"..*=============*&........................................................#%==============*=..",
"..*==============#.........................................................&*==============%..",
"..*==============#.........................................................&*==============%..",
"..*==============#.........................................................&*==============%..",
"..*==============#.........................................................&*==============%..",
"..*==============#.........................................................&*==============%..",
"..*==*=*====*====#.........................................................&*==*===========%..",
"..*===*=======*==#.........................................................&*=*==*==*==*==*%..",
"..*==========*=*=#.........................................................&*==============%..",
"..*=====*=====*==#.........................#@;;+$..........................&**===*=*=*==*==%..",
"..*=*=**=***=*===#........................@=====-#.........................&*=*=***=*==****%..",
"..*=*==*==*====*=#.......................@=======-$........................&*==*===*=**=*=*%..",
"..**=************#......................#-========@........................&***************%..",
"..***********=***#......................@=========-$.......................&****=**********%..",
"..**********=****#......................@=====-===-$.......................&***********=***%..",
"..***************#......................@=========-$.......................&********=******%..",
"..***************#......................#-========&........................&***************%..",
"..***************#.......................;==-=====#........................&***************%..",
"..***************#.......................$-======+.........................&***************%..",
"..***************#........................&=====-$.........................&***************%..",
"..***************#.......................$-======#.........................&***************%..",
"..***************#.......................$-==-===@.........................&***************%..",
"..***************#.......................#=======&.........................&***************%..",
"..***************#.......................@===-===-.........................&***************%..",
"..***************#.......................;==-====-$........................&***************%..",
"..***************#.......................-====-==-#........................&***************%..",
"..***************#......................$-========#........................&***************%..",
"..***************#......................#-=-=-=-==@........................&***************%..",
"..***************#......................@=========;........................&***************%..",
"..***************#......................;=========-$.......................&***************%..",
"..***************#......................@---------&$.......................&***************%..",
"..***************#.........................................................&***************%..",
"..***************#.........................................................&***************%..",
"..***************#.........................................................&***************%..",
"..***************#.........................................................&***************%..",
"..***************#.........................................................&***************%..",
"..***************#.........................................................&***************%..",
"..***************#.........................................................&***************%..",
"..***************#........................................................$&***************%..",
"..***************%$.......................................................@****************%..",
"..****************%++++++++++++++++++++++++++++++++++++++++++++++++++++++&*****************%..",
"..*****************************************************************************************%..",
"..*****************************************************************************************%..",
"..******************************************************************************************..",
"..%%%%%%%%%%%%%%%%%%%%%%%%%%%%%%%%%%%%%%%%%%%%%%%%%%%%%%%%%%%%%%%%%%%%%%%%%%%%%%%%%%%%%%%%%%..",
"..............................................................................................",
".............................................................................................."};
