/* XPM */
static char *scales[] = {
/* width height ncolors chars_per_pixel */
"128 128 69 1",
/* colors */
"  c #B1B1B1",
". c #AFAFAF",
"X c #ADADAD",
"o c #ABABAB",
"O c #A9A9A9",
"+ c #A7A7A7",
"@ c #ECECEC",
"# c #EAEAEA",
"$ c #E8E8E8",
"% c #E6E6E6",
"& c #E4E4E4",
"* c #E2E2E2",
"= c #E0E0E0",
"- c #DEDEDE",
"; c #DCDCDC",
": c #DADADA",
"> c #D8D8D8",
", c #D6D6D6",
"< c #D4D4D4",
"1 c #D2D2D2",
"2 c #D0D0D0",
"3 c #CECECE",
"4 c #CCCCCC",
"5 c #CACACA",
"6 c #C8C8C8",
"7 c #C6C6C6",
"8 c #C4C4C4",
"9 c #C2C2C2",
"0 c #C0C0C0",
"q c #BEBEBE",
"w c #BCBCBC",
"e c #BABABA",
"r c #B8B8B8",
"t c #B6B6B6",
"y c #B4B4B4",
"u c #B2B2B2",
"i c #B0B0B0",
"p c #AEAEAE",
"a c #ACACAC",
"s c #AAAAAA",
"d c #EBEBEB",
"f c #E9E9E9",
"g c #E7E7E7",
"h c #E5E5E5",
"j c #E3E3E3",
"k c #E1E1E1",
"l c #DFDFDF",
"z c #DDDDDD",
"x c #DBDBDB",
"c c #D9D9D9",
"v c #D7D7D7",
"b c #D5D5D5",
"n c #D3D3D3",
"m c #D1D1D1",
"M c #CFCFCF",
"N c #CDCDCD",
"B c #CBCBCB",
"V c #C9C9C9",
"C c #C7C7C7",
"Z c #C5C5C5",
"A c #C3C3C3",
"S c #C1C1C1",
"D c #BFBFBF",
"F c #BDBDBD",
"G c #BBBBBB",
"H c #B9B9B9",
"J c #B7B7B7",
"K c #B5B5B5",
"L c #B3B3B3",
/* pixels */
"VB32nbc:<6Fy uLtSN1<b,cxzz;::ccxzl*=vNVVB4N3m<vc>cl&$#fzBDFD98765V76NM22m<,b5r.. LKF3lgkMFKyJewFZvg@*3euuteFqDDGLp.LtHwqDSSqeHew",
"NMmb>><4AGJyKJreAM,cx;-=*kz:>vv>cccbNB4N3M21<>x:1BBmv;xn6S987654M34M1<b,vc:,6HLytrHqV,x<ZeJHGq09Cn=kb8rKJGq0S9DrL yJGFD9A998ZZC6",
"<b>xzx2Srtrewq0S72:l=k**kxn3B55VVVV79C2<b,vcx-l>CJLJF9AA8765BNM1bbnn,c;-=kl<8HrGFq0A64BZqwF098CVB2b1CFeGqS876V8GJrGqS98CVCZ5321n",
";zl==:4DeGq0AZC6Bm>;xc,<MZeJrHewFDSSDZm>x;-=j&-2GaOXuKteA42m1<,cxcm54<xkhg=1AFqS98C545ZS0987C5NM113ZDD098C5B3M59D0A8765NMNCVm,:;",
"*k=zv40F087C5BNM22N57AS0wKp.LtHwq0AZ88V2b:-*hjv8Lap KJrGAM,c:;z=-<8JJSN>=&;3Z8ZCVBN21MC8754N32nbv<VFw9C5B4Mm<b1BC65543mnn4SqCn-j",
"-cn4Aeye85N3Mmnb,MSHtKtrrK yeq09876B5SHeD7N<><6euuKrwq0S7mx=kj&*cVJXpyFCMnM5VBNM21<vv28SC31<bv:;cMq y0Bmn<bc;z:n2M2mnbv,28JLe6v=",
"69FHKuuHZMnb,>:;:3FKytHGFwHw9Z7C5432Nq.XitG0ADHtJHw098C652>zlkkx4w . tGD9SF06Mn,>cx;>VHKqVmvx-=zn8LspeCn:;-kj&=cv>c:x;:nCGyutD63",
"yuuLytJGZm:z-=k*x4qrHwDS889A64NNM1<<Nw.p yrwFHJGqS8765NMNV6V4M3CFtytHwqSSeiLq5nc-k*lnD pKq61x=lbZJ.X r92xj%%hk>1,-kjjl,VFJtrGFFe",
" uKrGFDS7m;=**k-<CDq087C5B5BMn<b,cx>4FKKJeFDSDqACV5BN2<<MStyJHrKKJeFSA87ZepXyqV<z&&xVr  Ke061vn7HuuyHw9B>*h=v4Sq6>j$h:40eeGqS9Ft",
"rewDS8C6BM<bbn259FSZC54NM1nnvxzzlk=>BDGFDS876C753mm1<vc>4G.p LLuJq98CV5BCG iyH0V<;xM0tKJGqSZV58GttrG0AZ52<m6Ft iH6v=z28qq09ZC6Aw",
"DSAZC5NMM5AqFwGHKr9BM21nb>c:-*h&*l>3ADS8ZCV4M3431,>:;llc6r LKrHHF8V5432MVwKtew0ZB3BAwGFDS87V57DGGq09Z6BN48eup. uJqCNNC99876BN35Z",
"CV5BNMnbnCHu ytJJe8Mb>:x;;x>c-jkc2ZwrwAVB4M1b<3V41>-k&*vZHreFDSS85Mm1<,<B0wFSAZ65VA0098Z76BMM5A998764M1n4Fu.iLJHwDS0D9Z65BN21<1N",
"NMm1n,cx,7JLyrewqDZmxll-xv2V7BM4AGtLyG84mn,cxb6Ge05nxlzmAqDSAZCVB2,cxzzc3898C653M4Z97VBB43mb,1B55BNM1b>>MDKKJGFD9ZAetwZ421<vcxcn",
"42<>:z=k>CGHGDSAZ7Vmxzcn4ZDerHHtyyKtrw8N,x-=z2q iKwA5M35ZZCV5NM2m,zkj&*;mBV5N32<<M8S6M1n<b>x:<332nbv:z-xMSwFDSA7V5ZHiLFVmvxl**xm",
"DZN<:lj*>V00A7CVB3Mm13C0GrrrHrLLKrGFDSZNv=%hc6r LtGq98AZ6B32mnb>c;j%%&=>m22mnbv><VGJS3,x;zl-v4Z62v;=*jkv6D0AZCVB3MCrp.KDV<z&g*nA",
"uJqZNbxx<BC65BNM1bbmCqrtJrGq0qHHw0S87653vk$j10JJeF0988SSCNm<,:zl==lz>n47CMbcxzx,Bqy HCbl&jl,VwtGC<-h$&:5GrD7B321<1CeLyrwAB,l=b9L",
" yrFA6NN4N3M22nb>x;<8eJHwqSA77998C6543Mn>lkcVDwqS87C5VAwF8Bm,xljj;39wrKyeCnz*kcN0JyyH93xjlnZHu tqV,=kv6Hi e841,c:<CwewDS863nM9Kp",
"JHwD97V6642m1n,>x-zb7qqSAZC5N3B54N32mn,>:vMC99A8765N2M8tLJFA5m>z;MGpaX. tDBv-xM9HrHGq9Vm<N0ryyJeD8Bm39J iLH0V1:llbC00A7C54MNArLL",
"DS9ZC5NBZ8ZCV43m<,<NZZCV5BN2nb<nb,,vcx;xb6etF754N32n,nZtuyrwSC424D apuKrGDZ424AFGFDS8C5BZFJtrGqS87660tLKrGqS73>l=,VZC6542n<MAere",
"7C6BNm<MSrtHwD9ZCV68ZBM2m1<v:;xxz===kk-b6HppH7M<b,>x;bZerewD97V58HLLJewDS87C790098C65NM4AwGwDSA7VBNV0HewD98ZVN<;-v34N321b>:bVS0S",
"NM21<>:n9KLKHwDS8CCZCMbv>:;-k*-:;khggk,Ce .iJA2cz-=*=vCDDS9875N36DGwq0A7654BC88CV5NMmnb1C9987CV421n38DS8ZC5B3mbc:vbbb,vc;ll>4C6V",
"b,vcx-znAHHGqSA76BNVZVm>zk&hh=<66m:k=,7eyLKJeS4:&$$g=<6Z7CV54Mnb2C88ZCVB32nn3BBN2mnb>::<686B3M21b>,NSq8V43Mm<>:cb<c;-lk*&*xMA8B2",
"xz=k*=>VweDAZC6B3m1Vwr04v=%%-m0Lur9VVAetJHGq0A5vh#glnC86432mnbc:nBVB4N3mn,cc<M2<vcxzl-c4qF73<,>:;xn8JJ0B1bvcxz;n6Z3:*%f$hx4wLH73",
";k%gjcVriK0CBN3m<,1ZyXuG71c,VGioX tHrHeGq098CVN<;;nCeLHZ3<,>:;;>NA73nb,>:z-:M6B<xlj&jx3quuF5b;l=lvVH ue71:lk*-b7tuGV>&fhc6H.a wA",
"n;%hc6rXouF6M<,>:>3q p tw9AFypX.LtHrteD98CV5N211N9J XaLq5<x=kl>4FyeCnxl**=xM0JG6b=ggz3qyi r92x**x4FyLKHS4vkh=<ZJpXuG7n>1AJ .iyrw",
"51c<7ri.iywZ2c-k=vCHyyJeFDGL.iLJewDDwD7VBNMmn,>nZyXXp KGA3:**cBwupuq4cjg&x3DLpueCb-x3DtLKJG06nx:30rJeFD96mxznAtiiLteD90GKLLtHGFD",
"5BV0JLLtHGq8Nc*%k19eHwqSAADrtrGq09Z7ZCNmn<b>:zzbAyiLtrGq9V1cb6GLi KeA2;k:BFy  yHDC5ZFJJHwqS8C4MB9GGq98ZCBMmNStuyJew09DHKKJeFDSAZ",
"237wJreF098CN,kh;40qDS87V57SDSA87V4NN3<vc::xx;:MDJJeq0S8CV4B8eyytrGq9VMM7GKytHwD980GeGwDS87V4NB80DS8CVBN2mNAetJGq09ZCZqGwDS87654",
",<B9qDS8765N2b:>MC88765N223VC6554M1bbbbbb<n1m2B9eGDS8ZC5N3NCFrJeq0S8C5VSetrGFD9Z66ADSA8ZC542nn2V7CVBNMm<vvm8FwqS87VBN4C87C65BN2n",
";>NZ8C654Mm<b<N9FS6BN32nb,bmM2mmn,cxxb4ZA999990wG9CV5BN2<bnBSqDS8C65NMBSwwD98C6BN3V87VBNMmn,>:,34M21<,>x-;nC9876VBM1<<24N3Mm1<,c",
"znZDA5M1n,>:>M0u.eC2<,>:;zz:>>c:xz--:3DJtJewqS9SS632mnbvx;:mV7CVBN3mn<3AD9Z65N3m<nBSS631,>:zlzb5VM<c;-=**x4DD7B3Mmbv::bM2<vcxz-=",
"2AKuG7m>xzl;nZJpXt9Mc-=*&&*-;lk*kl;,NDKyJGq098C66N<>cxzl**znNN32mnb>c,BFG9VN21b>cnZJtqV1:l*&jcCHH83>-*%gk2Fut05mb>;-lx276mc-*h%h",
"GLXpKDB,-j*c5GyuyrD5v*g$%k>21:=k;<4Awyurq98C653M3mv-k&%g%kvBVM<v>:;-xmSyLG7M,c;-:3Fu J05blhgl4rXptD5nxk=<0 X HAN,zj&ln0Lt9M:j$%k",
" ..utGAM:kzM0JJHwq071-hj:MSrGZ3MV0etKyKG865432n<24M>kgfg-1AHwCn;=*jk>Cr  tDB,-*k,ZrLKHFA4>=-2Fia.uJF8N1NSyi KHq72:kkb9uopKDBv;vN",
"uLtHwq9Vm,2Zwew0A87V3<<4SJ piKrHJKKJeGGD6321<,vn5qwZ1;zb6Gupuw5>*$gzNFKytHFZ2xkz30HHwDS8V21BFLiutJeF9C7qtytHwqS8B1vm8t..uteS7C0H",
"reqSAZC5NB70DS87654M2B0K.pi LyuuyrGF099ZN<>x;x,4DKLr08SGuppiLr9M;h*nAeHGFDSZBn>1C0D09ZCV4MB0tyJeFqSAC57FHeF098CV4M49rLLtHwqS9FJK",
"0S87VBN22B78765BN2nb<VHi.utreerrGD98765Bm>z=lc30JyKHGrui. yJeF9V2bmC0qDSAZ6532M5Z87C654M11BqHGqS87C532NZ998C654311BqrrGFDS8CCSww",
"6V543m<,b3CVN2m1<,:x>BeytHwqS90D9Z65BN21<v::,N9HtrwqqeyLyrGqSA7VCSGG0ZC65BM1<<36C5N3Mmnbvn6Gw976543mb,<3B443Mmnb>vM8D098ZC5NN57C",
"mm1nb>::<Cq83b>:xzk*;N0wFDS876CCVNM2mn,vnBC8SFGewqS88SGewqS8C54B9KpuDV3221b>:b5S8Bm<,>:x>3qLrABMmnb>x:,331<bv>:z-;<5C6V543mn<13M",
">c:xzl-v5H r7n;kj&hj:48A8765NMMMmb,>cx;cNqKLytG08765B6A987CVB3M5quaiw61,vc;z:3FLrA3v;l=z1AypLDB<>x;zzv49ZM>;l=*j*:MVB32mnbvccnN4",
",:ljh*:NF pLF5vkhj-,60964NMmnb,,>;z-=*kv7J uKrqZ543m1245BNM21<mCGyuyGZ1xlk*ln9uX eZmxk=,7Hu ywCn;k*-,VwyJ81-h$%*:4DF72,>xz-;vBDw",
"C2x&%-M0K LJGA4b,2CqyuG6mbv>xz-;c:;-*j-20rJewqA5M1b>:cb<<b,>c>2AeHGwD8M;hfhc6H  yrD61cb6wttHGq83:kl<7eL yw6v&%l1ZriuF5,-*j=>BFui",
"w8Mc:MSHtJGF0AZZDrL p.J8m:lkjh*cN6V3nbM7qwqSA8CN<c;-kkz;z-lk=:NSFD98ZC3:h$lNqttrGFSZVB7DeeqSA8C4<vm8HyyJeFA4<n6wy.p r92z&kv5Fy u",
"FSC5C0GGFDS8C67DKi.uLKHS3;hf#gzBeytHFDwFD98765Nm>ljhhkc,x*%$h>BAA7C543mb:vNSeeF098C55C9DDS8CV5NMMV0HtJGF09ZCZFK iuyJG0V<:<Cwtytr",
"A7C9GeqSAZCVN3BSJyKHGFDABvk%%l3G.p yJrrw85B432n,;&g&zm80V,kgj,4V54NM1b<3ZGtJwS87C54M246CC65432n<2ZGHGq98765V9JLyJHwDS8645AwrHGFD",
"656Dtr965BNM1<M8Gew098CV5N21mVFuiLJHGFqS5mn<,>xzkjl<Ce .t9M>>n22m1n,c:<ZtaoyD75BNM1b,<2MM2mnbv:x<60D9ZC5BN2MCweGqDS8C5458FGwqSA8",
"N47wyJAN21<,c:<VSS87C5N359GeHtyyJGFDS8ZC3vxz-lkjkcBFLpXiye0ZVM<v>:xzlx3wiaXyDVM1<,c;;>n<,>cxzl=z<V765BNMm<v,38998ZC5NMmM699AZCV5",
"3V9etH82>x;-kk:M66VBN2mM7eu   KeqS8ZC5N3nx=kkkklv6H .iutHwDqD7M,x-kjk,Zt uyJq61c;-ll:mVN,zkjj*zbV973mn<,c;zx15V5B432nb>v2BB4N3M2",
"V8DFwqZ2;jh%g&;nM221nb<NSJyKtteS7V543m<b,>>vbnm49t uyJHwD980Jtw7Mvz=:4FttHGF06nzjj=>4DJFB>k&lvN9HrSN,:zl=kl>464mn<,>xzlz,1<<<bb<",
"ASSS8Z62z%$gjxmN2b>:x:n6FHewFFD74Mmnb>xxb59DFFweyiLHwqS87V5AyapKFZN24AwGq0987Bn-*l<CeuiKq5nn49eyuyw6nz&h*z<CGeZmczl=**=>MN<c;;>b",
"A8ZC5NMn:lz,NAGF6n;k*;28qqS98874nvcx;-=-mqLiuytJKyHDA8C5B3NZtp.LJw00qqD98765N2b>,N0JuuyrwD0FryLytrwAN:**>NSJiuwBc*%ghlbCwFV,z-v2",
"65BN2n,v<BSeK .LF5>*&:NZA8CV4N31czlk*hh-4r uyJewwwD75B4Mmn2ZryKHGq0DFSC5BN3m<vv1CFtyKrGq0qeKyKJGFDS851<3AeyuuyHAm=gh;3SK. GV<>1N",
"M2mn,c;x3e.Xpi yHS3cz,NVV5NMnbbvx-l=k*=bZHJrGqS98874mnnb>c<CFGF0S8Z8A63mn<b>:xc30HrHwDS87ZDHHwDSAZC5N4ZGyuytrGF9B<>1Zeu.iLJF7NMM",
">vc;-=*z5KX.LJHGqSCNmm222mn,cxxv122MMM49GGqSAZCVB43ncxxzllvV9987654NN2,:x:xx:>1CFwqS87654479SA8765N2n3SJKJeFDS8CVVAeL iLJeGqS6m,",
"-zlk*&jc7JyJGqS98CV55Nmbv>:z=kzM0rrHGwGtJ0765BNM1nbc-=k*j=vBC65BN2n<<<czz:vnM58wH0Z65BN2nnMB55BNMmnvcn7FwqS8765N36Gu yJeFD98Z5bx",
"c>c:xxvBDGw0AZC6B3M4Z96M<>;=&&:7ypiLKrHrGZN22mn,cx;:c::::v24NM21<,>v<3M1mB790qwHeA5321<v::vn11nb,>x-->47ZC65BNmnnBFJrwqSA76B43nv",
"8888779GHD8CV54N2<b3qLKw85mcz;2DL yJHwDDS5nv>>:z=k;MZS9AAS95nv>:xx>1VqreweHHGFqqDC2,>:xz--;ccx;z-l==;<4B4N3Mmnb,n5DF098CV43m1M6A",
"LytJewGre8B3M2mn,>>4HaaurFAVN59HJrGq09ZC63>zllkjh*<0L LKJte7b-kkl>MZwy..LJeF09877B<x---;:><n>l**=-x,3ZAB1bbb,vbmB9F9C54321<vvMq ",
" yJHwD0q051,v>>:zl:5J.iyrw0AZSwwqSAZCVBN32<cxz=**:6J.iLtrew8n=&=,50HJKLLJF08765NN2<>>b135CAAN>xc<MV9Fre6,xxc,14CSwG831<b,>x-;mwi",
"JHFDS87C63,:zll*hh;6HKJGqSA7C8SAZ654NMm<nNZAZVNmMCGyytewqS97M>:17FrrGFwGq8C5BN2n<n36A0DFwwww088SFeJKtJeZ1>,m580DqqDZ2c;z-l=*zMqK",
"q0A87V433N3n>x-*hj>CFFD9876BNBVBNM21nb>:,CtiuteFFrtrGq0S8C5B5C80weGqSA8AZ532mnb>:,6eKKJrGFDDwt i LyKeqD9C5680Fq0S8Z6mx==l--zb6DG",
"ZCV54M1<28wF9C4mb<NZAZCV54M1<n22<,>c:;llb9uXiLJHHtHD987C5N34AHyrwDS8CV55Bm,v>xz=kc7rKJeFD98Z0ti yJew0Z78S0qqD09ZC5BNmbbn2346SwqS",
"NM2mnb>>3w.puJGDA9085N32m1b>x>m42,:z=j%kmqyLJHGqqwD754N3213CwuiJ07VBN321nvx-lkj%hx6FwqSAZC557wrHwqS97BN58S0987VB4M11N8qGeeeeJJq7",
",>>cxzlxBrp.uKrwDqqCmbbv>:z==>Cwq7M,xk&zBFreFDS8Z87N1n<b,15DryyHA421nb>:>,,cx-k&*>BZ87654NM2480SA87VNmn1N665BN321bvbVr iuKreeGS5",
"l==kj&&xCrytHwqSA88Bbx;;-kjhk2eppKFAB1bM8qqS8ZC5443n>xxxv38weGwq7mv:xzl-,5A8CBM1245BN3M2mnbvn4665BN2n,cv25BM1<bvc;;,7JuyJHwDS9Z4",
"kk*jh%j,ZGGq09ZC5B5B3n,cz=jkvALX.LJG08ZSS87V5432n<<vz*k;160qD98Z5b-*&h&;4GLLJGD9S07M<b,v>:z-c13Mmnb>xz;b6DA4bx-=*k;20rrwqS876V54",
"Mmn,>cb4AS9AZC54M1M8GGDZ52n2ZHLLJHwD98AS74M2mnbvc>b1>==>4Z9A76BNM>kgf$*10y LJeF0DwD5nc;-=*&=,4B2bcz=*kc5r.y03ck%%lmSttF98CVB3223",
"uKHwDSDq9CV5BN2nbvmDpo.KHF0FrtrGqS8765564n,>cxxxc15AZMn2BVV5431<b>x-=z<ZHKJHFDS88eyeZ2c=hgj,ZHeZM>=%%zNwia.tSNc=;M0L.yq75NM1<,bM",
"+sputrreA4m1n<v:zx2wpaiyJewHteDS8CVB32m3N1>;ll;,N8wrHF9VN22m1b>:c1VA90FeHGqSAZC56GppKDV<;;<ALa.J9Nc=z2Dyi yJFABNCwy utFC3<vcxxn6",
"aputrGFF82>:x;-*j-3GLyJHwDSDFS7V5BN2n,,4S9Bb:c16qHJreGq61v>>c;llvCt.pp JF98765N3VGipuJF8V7qypp KG9BM5DJytrGF0A80HyytHGDC2>-k*z3q",
"LteFqSAAC1;=*jhgg-4FewqS8766CV3m11<v::<AL.t0CC9wHHGq0S95,zkk*&&zNGpap. rS6B432n1VwyytHwDDHLuLtHGq9Z8qHrGq098C6C0erGq0986Mc*g%x6H",
"GqSA8C5BNm,:;zl*=,6SS987VB322mbcxxzllc4eXo.LJHeGF098766Bn:khg$j<0yiuKJrG83n<bvcbVqeGFDSASetJGqSAZCV70FqS87C5NMN70D987654m>k%*<AG",
"AZCV5N2126SS8CVBV897V5BNMm<vvvcz=kjh=1Syi yttrF08C654M36862>--,CHKJeFD0S61:;zllv5SDSAZCVC9qDS8765NM4787V54N2nb<MV6544321bcx>M8DD",
"54N32<v>mD puKrGHJq52mnb,>x;:13mv;==>CHKtrGFFq8C5N32n<29yLHDZZSFeGqSAZCCBblj&h*vBZZCVBNMM5CC65BN2n<MCA7421<v:z;>121nnb>:x>30tur0",
"21<,>xz:NHXXiyJeeH03v:x;-=*l<9JH0CN4ZFHeF0988Z53mn<,cv4GpXiKrJtGD9876543m,-kk=x144N32mn,,1222m1<,>vNqrwZ3<:-kj*;,,cxxz=kz1Suaayw",
"MbxlkjjxVr LJGF0SS8Mcl*&gf%x6KaXurwGrGqS87654N2b>x;z-,Zt. yJeHHD75B432nb,<m34VZ85mb,v>x;:<mnvcx;zz,7t ywZ3>=h%-15Mv-*%$hcCJ..iyJ",
"V1-h$fh>ZerGqS8Z6V6VM>lhddkMw . KreHHqZV5BN2nn,xl*&&lm0tKrGqSS0731nnb>x;cNDJKyyr8m:l==lx16ZB<;k&&zMqKyJG0C2:lc5eyeCnz%fk3FyLtreG",
"C2;%$jcB0FD98CVB3M6FH05<;;m9JyJHwDSSD842m1<v:cc;k%f%zBqGF098C664<:xxz=*=,8yppiLtD4:&gjx29JKw6b=$h>7erGq09ZB239yos.rS4,cmAHrewqSA",
"Nm>:b5qtJDZV543m<m7KX.tDASFeHGF0A8C66Bn>cxz--:<2<xlz<CSS87C5NM2n:lkj%$fk2Fu LtrGDCbkj:40tuutD5,l;N0wqS8ZC544Ayaa.utG08A0FwF098CV",
"<<m7Guaauq63mnb>>2SuXiyrrttGD98765NMM1clkj&k:MAwF9CCZ7CV5432nbv,,>xlh$%x6etrGq098C3<m7GtytrGD8BNV909765B3m13SyiutHwqSSFw0A8CVB32",
"cv4epaa.LwCmvxzzc4FyLtHGweHSC5BNMmnbb<,;*%*v5FKLKrHHFC311nb>:;:m8D9Vm,<49wwq987V5NNVSHJreF0S8CCSHe9VN3Mm<v>18HJHFqS8CCAA6B4321b,",
"-cVJi yJrw82x*&kvCGrGFDSA9S63mn<,>::b47Vm,1ZeLLKrGwGDB,:xxzlkkcCya.tw0qwD98Z654Mmnm6qGwqS87C5B7eiuq5mb,>x--,6Dq0AZC5N3N4mnb,>cxz",
"=v7rtrGqDSZ3:&gkn8qqSA8C5553<cx;zl->4FyyeFGJKKrGqSAA84>-=*hgg=2wpo.yJHJHS6BNMmnb>>nC0SZCV5432NAtpiHZM>zkj&k>477654N2n,,<bvccx;-=",
",N9wFDS8765Mvz;,4Z88765N211n>ljhh*xNDyi LuLJHw098CV5CZBn:kg#gc8KiuKrGqFq72<b,vc;;>Nqe9532mnb<30KuyrDVb=&&k:MV5NM21<,>xx<NBNMmnbv",
"7SD9ZCV54M1n25A09754N32n,vn3M>*$g-M0JyKJrJrFS8765NMMCetwZmxl:BwtJeFDS8ZZB,;zzl=l:MDuuwV1,>::,BqrHGq0CMv><4AGqV1v>cxz-l:5eKJHFS87",
"DF9VN3M21b,1Ceu H7Mnb,>xx,5qGAm:cM9ereFqDqD8VBN3m<<mALX.tFZCAqGGqSAZC54NMvl*jhj;M0ypir82:lk-b6Dq09875B6SGJLitAmx----;>3w.a.uteFD",
"8ACM<b,vc:vNDyi JA2c-==l>4FuiKF9SDFwqSA87CC52n<b>:vNqLiutHwFewS87C65N2n<mM1,:;>N0tuuKH0B>*h=nCA8765NMB0tuuLyJDBbcv<24CFupiyJGqSS",
"B5N<:z-==;18HKKrGS4:&gj:NDy utrJtG098765N331v:xzllv6eKJewDS0FS64NN32n,c>NqreD9SwJKJHFD96n-k;mB5B432n<4qKyJewq0AZZ90qFGt yHwqS8CC",
"1mMMn:=jk>5qHeFDSA5vhgzNDJytHwqwGSC5B432nb,clkjh%*<ZwGFDS86V76M<bbbv:zzvZuoaiuLKrGqSAZC53mM4B3mn<b>:>N0eeFDS88SGJtJreGerG0AZC54N",
"vnVDDC1>vNAqqS9ZCVN<;cNSHrGq0988ACN21n<v:z--lk&%%-MA0S87C5NMN53bcxzl*jlmF.a.uyyrqAZ765NM49Hr0B<:;-=k;MADS8ZC55ZwJrGq0SS09C5NM21<",
"cMDu tqA89S98765N2m2NZ0FFDSAZC5BBN1v:;zl*j=>2M1,bMVZZC54N2<bM8S6mvz*%hx6J LJHGGq8VB4Mm<1VHppt9Mck%$glm6CV54N225SqDS87C66VNm<,>cx",
"18J  KJHeD754N32n<nBDte0ZCC65N21m2ncl*hgfhcCHyrGww96NM21n,cvBH KFZM>z;20rrGqDS9852n<,>c18K.iyGZm-$dg;mN3M21<,,2CZ7CVBNM2M1vx-=*j",
"8GKKrGwFFA4mn<,>cb39Kir8BNN32nv><BC4bz&$g;Vtaa. uyD4<>>cxz-,ZLapLH0C569FFD987CV5M,:;-lxM0tKrGF95<;zbB5M<,>cxzzvMNNM2m<bn3Nn;jg$%",
"wHHwDSA8Z6mc;zzzcMAHL r8M<b,>xzx2DKtDVn:b6r.X.uKJr0Nclk*j&=1DuiLteFS9DFS8CV54N21bxkjj*c5qGwqSAZ65C0rywV,;=*&%h->bb,v>c,3AqZm-%%=",
"qqD9ZC54NM,-j&k:MAeJJJG82:-lk*=,ZKXpyeS9Ft  yJewD08N:j%$fgzBGtJeFDS8Z99VNM2mn<v:x;-l-c2Z0098C54B8rpsay0M;%#d#hzc:;--;v3AHteAMvv1",
"8ZCV54M1<bvzj&z2AGHGFDS72zh$fg-NG iuteweLuKrGqS87653,zkjj-nZFwqSA8C54552b>>cx;l=x1BVC8SS87654M2N9LaaiKw7bjg&;mV5nzk=v49GrrGDZ6CC",
"BN3M21b>cb3N1n3ZqFD987C5m;%d#*nStyJew0SqHHFS98CV4M23577V579SSAZCV5N2n1mbx-l*&h%k10KLyKJqCNM21b<N0y LrwD841mVqtuJA2vb49Fwwq0AZZA7",
"2nbv>:;;v4qJHGF0SAZ654321<v:>2ZwHGq09ZC7997V5BN2nbb4qu.uyLKq7BN32mnvcvm31cl&$#%cZyp.uytFV1,>:xv4DrrGD9ZCCSJiaoX rDA8SqDSA8CVBVA9",
"VM,xlkl>4qL.i JS6BN321b,m7qeHJrwD987654NB421nnbv:;,CKoop iLqBn,v>c;l-bAJr9Nvlkx5e uKHGw0Vbzk&*c50qD97VB46G.oa.utHeeF098CV5N2mBFK",
"JDB,l=c4FyuLyyHZ2<b,>x;>BepaXpKD7VBNMmnbbv:;;;z-=ln0upiyJJr0Ncl=kj&hzBtOsiHS6B7FJJeqS9AZB,*f#h>58ZC5N211NqLuLJeF0DF0754321b,nCKo",
" JD62mVqtKJGFFD6<;-l=k-n9LX.uLrSB2nbv>x-lz;z-ll==;NFKKHwq0SZN>l*h%%kmq.oX KeFFeew098C65Nm>*%j:M55NMmn,>>m9eewDS87CZCN1<bv:;:mSuX",
"JeqSASFHewqS8Z7Bbljhghx5eLLJeGwAN,:;z-=*l,34321n1N8FwqSAZC54NMn,c:>20yiLtreq0qGDZ65543mbv::nVDFABmb>xzl:3SqSAZCV433Mbx;z-==:BGyy",
"q0989qFqS8ZC5N3Mn>zkj-2SHrGqSS973c-l-zz:m0KLtHwDDFwDA8765N2m50GF0S0HLuKeFq09Z89C4Mmmnb>xz:3w.opr83b;kjln9HFA6BNM1b,v:;zzzzcm8eHG",
"8765VZ8765BN2n<m5ZZ5N59FFD98765B3nbnMNBCF.sa.utreHG854N32<,nCJ.iLKKuLrFS8ZC654542nbv>x-kkcZ ss.KFZ3>l=,8K rS52n,cz-x<MN44570FwDS",
"BN2113N322mn,c>3DyutHrHq8C6543mm4Z0FwGweyXX yJGFqq0V2nnbvxx<8KiuKJJJHD8C5BN21<25VN2n,xl*=<D .LJeqSC3n2Zr  tqC2v;=&jc7rtJrrJJGS76",
"mnvccv<bv>cx--v6riiyttH95N32m<v,5wKytreGryKrGD987C63,:xz=*-10JtrwqDqD85N2mn,cc20reD86N1,n6eyteF0A8755AeKKJGD84b-h$j1G.. yJrHq7NM",
">:zll:b,:zkj&l1StytHwwFZM<,vc;-cVetJGFDSDwwDSZCV43M<x=*h$glM0wF09877CBmb,>:;lxNH. KHF0Z6ZqeGq09Z65BNB9wGFqSA7B1x*kvZt yJGFDS8B1,",
"=*&&-m7CMv-&jcVFHGFD9AA6n;-=*&&x5qwqS9ZC788C65NM1b,vcxlj%j:BA987CV433mbc;-=j&;VrLKrGqS878DS87CVB321n2CSSA876BM1b<BqKyrwqSAZCV3v;",
"%g$*n0LLe8N<bNADDSAZC55N,ljhg$%xBA98765NN4NM2mn,c;:<576N2M5CCVB4NM1<nMMn>z=&&>7GeFDS87VBVZC432mnb,>>m687VBNM1bb28taaLF98765N31:=",
"-lzn9uoX rFS9S98765BN21n,c:;zz>25554N32nbbbv>cxzl=cVHuLrGwwAN1nn<,ccnCD0Z4nv,NAD0AZ7VB323C741,cxz-->B0D7N1bvc:,VHpsXKDC4N32nbb,>",
"Z7AwLp. KHwFFD74N321<,cvMZSS9SDDZM1n<,>xzz;;;;zl=;3FiXiytreAmcx;z-lc4wLyrq87ZS9ZCV543m<bM9wS4,z*&&z2DKJ05n:-=z1Syi Lr051b,>:>mV9",
"tty  LtHFDSA984nb,vcxz-v7ypiuLytS2>x;-lk*=cnmm1<n4Dy LtrGqD8mx=*jhk<AJLtHFSA9073mm1nb>:vBeiyD4>k%*<At ye94vlkx5wKtrGF9Bb;llzb6GL",
"tJKLJGqSAZC55B1:zz-lkjlmFpa.uKJH0Ncl=kkk-bCFGwFDDeKyJeFDS8763,x-kkcBqrHwDS8CC862v:x;-=z19y. J0Bb:nZeKtHw07Mv:18wewqSAZB,kh*>5wKu",
"GFwGq98C65N211<c;z-=kk>6r utHGq09Vmv,bn2B0yp.uKrHJteqSAZC544688644CSqqS87C54B8DZm:=&%h:VeLLteD8669Greq0986422VA0S8765BM>*&x4qttJ",
"9889ZV4N32n,>bN6654Mm2CFJJeF098CC790qFwGHLXpuKrGFwFS8C554M1M9y.utJJwS8C54NM2NDLyDN:&$*1SHrGqSAZZ0wGqS8765N2mNVCC65BN2nbcxvB0eewq",
"V5B542n<b>x--bSyuKrwDDeHw098CVBNNCeuiuytJy yrw09AAA7B32mnb,3q.op LKwZBN3mn<1VH.pKDBvx,VDFDS876BB7997V5BN2n,,M554M21<v:x>3AwwqS8Z",
"3211nv:x;-=*l2eXXiyrGGHw9CV543mnnBGuuKrGFGHw0876V5BN1b,>:;c4G iyJHGD62<bvc>2AJLyJwA6V6ZA8ZC6B3m13VVN2m1<vc;>B98Bm,c;-l;MF  e9C55",
"<,>cc:;;zzl-vCtiutHwq0D0CN221<vcvNDrHGqSA9S865BN211n,c;-k*:VGtrGDS98Bb;zll>BDHHGqS88Dq9CBNNMmb>>mVV3nv:;l=-10yt0Bn:=jkbA sprABM2",
"xz==:1M3NNN5AGttHqSA8CCCNb>>cx-lxMA0SA8CV5VBMm1<,>b22nc-kkvCDq0A7655Mc*%%=<7Dq098CV7wtGZN1bvc;z>5qF84<xk&jcCtpitDVnxlcVr..urS51,",
"jh%kmSeHeewGJteqS87V5N3Mbzk==kkl>N7765BN2mmnvc:;z:mZ096M<<378ZC65N2m<xj$%zM8987C5NN7riLwC1:l*jl1Du tqCmx=;3wu LJwS6M2VFKyJHw061c",
"ffg:Zyi ytHerH07V5BN2nb,:*hk-:,m69Z4M21n,>cxlkjjlbCGJHF9ZZ8C5BN3M1b>>vv>bMVC65BN21MZJ ur0Bvkg%:CJiiyHD73mNSJKJeFD9Z6ZDHreq0986Mv",
"kl>5GuLKrGq0DDZ42m1nbv>>v>v147SFHr93,>:xz-zx-j%j>VFrHGqSA9ABmn<b,c;;>40eHGS5Mm1n,v28HtrGD7m;&lMqKytHwSZ6C9FGwDS8ZC5570qD98765N2<",
"58FJtJew09ZCCCB1,,b<<n1M6DeHJtKtJr0Nclk=lx<3N<:,B0wwqSA7V663,c;-=**z2q.oX wVncx;zx2AwwqSA7N<v2AHrGF0A7VBVA0SAZ6543m1367CV5BNM1<<",
"Kup.Jq987C5NMM2nnm3BV67ZFLpiuKrGwqS5>kkxn59wGDAAS0SAZCV4M35V3<x=&g*b9Laa.LH81z*&&z2Z98ZCV42137DFD9876BMmM6CVBN321b>cb23M2m1nb,n3",
".i ueAVB432nbbmB7AS00S9ADtLKrGq0987B1,m6DeJJreHGSZ65B4M1<m7GeSBbz=>CJ iLJHG93;h$hxM665B4Mnbn5S08CV54M1bvnBV31<bvc;--c<<,>cx;xb50",
"LJrHqCMn<bv:;cMAFFFq09ZC7DwFDS8CVBN34ZqrKtreFqFq74M2mnb>>MDupLGA5BZGKKrGq0SZ4,zz>1NN32mn,>>29rF6M2mn,:;cM90Vncz=kklcMV3v-*&*x30t",
"HwDqSV<xz-l=zbCqq098765N4CA87C54321nBqttJeF09888B1,>c:;zc5HiiLrwqwHrGFDS8C6BNBZ0FD6m,>cx;xnZt.t7n>:;lk-nAKLw5>*g%l<6wJFN;gf*<8HK",
"w0AA8B>k&hjlvVGH0876543mm46V54321<,b4qrewqSA76552>;lll==vZKuyJeFFerG0987VBNM3ZKoou9n:zl==:BGiau9<;lk&&z5JXXLDmjd%,8Jpau0b$@l4FrH"
};
