/* XPM */
static char *sea_texture[] = {
/* width height num_colors chars_per_pixel */
"   128   128       64            1",
/* colors */
". c #b1b1b1",
"# c #afafaf",
"a c #adadad",
"b c #ababab",
"c c #a7a7a7",
"d c #a5a5a5",
"e c #a3a3a3",
"f c #f0f0f0",
"g c #e0e0e0",
"h c #dedede",
"i c #dadada",
"j c #d8d8d8",
"k c #d6d6d6",
"l c #d4d4d4",
"m c #d2d2d2",
"n c #d0d0d0",
"o c #cecece",
"p c #cccccc",
"q c #cacaca",
"r c #c8c8c8",
"s c #c6c6c6",
"t c #c4c4c4",
"u c #c2c2c2",
"v c #c0c0c0",
"w c #bebebe",
"x c #bcbcbc",
"y c #bababa",
"z c #b8b8b8",
"A c #b6b6b6",
"B c #b4b4b4",
"C c #b2b2b2",
"D c #b0b0b0",
"E c #aeaeae",
"F c #acacac",
"G c #aaaaaa",
"H c #a8a8a8",
"I c #a0a0a0",
"J c #9c9c9c",
"K c #929292",
"L c #e9e9e9",
"M c #e5e5e5",
"N c #e3e3e3",
"O c #dddddd",
"P c #dbdbdb",
"Q c #d9d9d9",
"R c #d7d7d7",
"S c #d5d5d5",
"T c #d3d3d3",
"U c #d1d1d1",
"V c #cfcfcf",
"W c #cdcdcd",
"X c #cbcbcb",
"Y c #c9c9c9",
"Z c #c7c7c7",
"0 c #c5c5c5",
"1 c #c3c3c3",
"2 c #c1c1c1",
"3 c #bfbfbf",
"4 c #bdbdbd",
"5 c #bbbbbb",
"6 c #b9b9b9",
"7 c #b7b7b7",
"8 c #b5b5b5",
"9 c #b3b3b3",
/* pixels */
"PPilW0w65w2tZYpoUTlkRQQQjRRjPhNMLMMNNOTY38B7y42sWlPgPUZ4B.#abGGGbbFaE#D.A5v0qVljOhQTWZsoSONLMMNghOPQRkkkkkkjQPPPPiQQjRRkSWt5.HHH",
"PPilW0w65w2tZYpoUTlkRQQQjRRjPhNMLMMNNOTY38B7y42sWlPgPUZ4B.#abGGGbbFaE#D.A5v0qVljOhQTWZsoSONLMMNghOPQRkkkkkkjQPPPPiQQjRRkSWt5.HHH",
"PPQTp0w6y4v1srXWnmTSkjjjRkkRihgMMMNNNPmrwB97y42sWlihinsx9DEabGGGbbFaE#D.A5v0YoTRPhjmps0WlPNLMNNghPijkSSSSlSRjiPPiQQQjRRkSWt5.HHH",
"iijmp0w6yxwvutZYponTlRkSmnooUSjPhhhggPUZ499z4uZXnljPkW1yC#EaFbaED.9BB88Ay420YWmkPOkVYuvZoSPhhOPiQklmnooWpppVUlkRjjQiQQQjRVsxCGHH",
"jjRUX0w6yy5x4vu0rqpVmSlUWY00rpVTSRiPhQV05.9y2rVmTSkRUYvzDEEaaaD9A6xxxxx5wv10rpnlQPTp0452ZWTkkSllmnWqrs0t1u1sqWUTSRQPPPPPPmrwBbGG",
"RRSnX03y66z665wv1sYpVTmWZu45wu0YpnlRPRW1yDCxtokjRklmWt48EaaEE#97xvtt11u2u1t0ZqVTjQnYv685v0qWWoWopYs123456z6wusXomSQOOOhhhSXvAFbb",
"SSlVq03y67A8B76x3u0YpUnYu5B.Bz531roTjkpuzEC4rlhhiRmorv6CaFaE#.7xurWpXYrZsss0sYWUkRo0xBDB64ut0ssZsuvx67BCDaD8yv0qVlQhhggggjou7aFF",
"TTmWYt3y6A9CD98z5wusqVo04BFHb#CA52YVklqv7aC3XQNNORnY1xADbba#D9yvrVlTUVopqrZt0rpnSSXuzDbECAyxww32vx68C#aGcdca96vspTjhgNNNNPnt6Eaa",
"YYr01v4y678B9A6xv10ZYpqu59bHbE.86vZWlmr3Aa.wYkghQmq1w6B#bF#.9Ax2rWmnWqZ0t1uv2tZXVVZ3AEGECA54w3v2vxzB.EFGHdH#8y20qVlQPOhgNin0yDDD",
"xx5555y6y6zzzxvtZqYYYYsvyBabaD9AyvspmnZwAE.xsUijUXt468C#aE.B7yw2sYpY024yy55543u0YYu58EbD86w2uuu12468.#EaaF#B6w1sYpoUlkiPhjo0x9CC",
"###D9876yy54wusXVUoprs246BDED98z5vsXVWs4AE.6uXTUqt47BC.#EDB7y43210su4z9#DCBAzy4vu14z9EF.7xu000001wy8.DDD..B642sZZrrYpnljPSW04888",
"eeedbDBz5xw21rWmRQTor14yz8C.9876xv0YWXt4A#.7wspY147.#####CAy422222v58EHdcGaDBAzyx468CEa963srrrZZtvyA.DC9A7yw2trZstu2tYVTjTp0w777",
"KKKJeG.z5wu0YoTQhgjnrv6778BBA7654v0rXY1x8#D85v0uxA.bGFa#DB64vt1v34yBadIJIecbD.9B8ABCDEE8xuYpXqqYs25A..BAy4v10ZXrt2x641YVSUX03yyy",
"KKKJebBxvtrXVlQhNNPTqu5y67887765xwutst3z9aEC75347CEHHbFEDB6xvt2w57BEHeIJJedGE#DDD.D##E#AxurXYrs0uw68..9A6xw2u1s1v4y752ZWmVY14zzz",
"KKKJdD61ZXVmkQOgNMhkVZ2wx6A877zyyxw3vw6B#GbE97568DaHHbFED9z5w2wyA.aGcdIIedHbEEEaFFFaEEDA5v0stuvw5z8C#DCBAzy55x4x5y6zx2ZpnWs2y888",
"KKKJHB3qomkQOhNNLLgQTps135zA777zz66yyzB#GdcGECA8CEbHHbFE#CA6x358DbcddddddHGaEFbHccHba#CA642u3x67B9.#EED.9B888BBBA7zy4usqoqtw7CCC",
"KKKIbz0UkQOgNMLLLLNORUpZ146A7777AA88BCEGdeecGEC.#FGHHbFE#C8zyx7.bdIIedcHGFFEEbHdeedHFD9Az54wy79#aaaFFaE#D..DEFFa.Bz5wu0Ypr25B#EE",
"KKKIE4XjOgNLLLLLLLMgPkUpsvyAA7AAB9.DEFHdeIIedHaaFGHHHbFE#.BAzyBadIJJIdGE####EGceIJIdbDBA7zy68.FHdHHGbFFaaaFGcdedF.7x3u0rq03z.Fbb",
"KKJdC3WQhNMLLLLLLLNgPjlWswz99999.DEaFGcdeIIecGEEaFbbFaED.9876y8#HeIIdFDB9CD#aGHdeIdHECAA77z7CEGddcGFE#EEaFbHdIIeHD74v10rqt48EHHH",
"IIebA2pkPhNLLLLMNghPijlp159EEEEEaaFFFGHddIedGEC9.D##D.C9BAzy5x68.Eba.B7y78.#FbbbbbaD9Az7777ACEGcdGE.8ABCDEbHdIJIHD7w2tsrqtxBFddd",
"GGbCy1qmRPgMLMNghPiQjRlq27EHHHHHHGGbFbHcdddGEC77A8B9B8A7zy54w34xy676543vx7CEGa#.B8A7z6y6z7AB.EbHHaC7xx6AC#FHeIJIHDzv10ZYq1yCHeII",
"BBB6wtYVlihNLNgPjSkkRRlYw9HedddddcHGFFGHcdHaCA5xy6z77z65x4w3v22u1ttt0ss0vy9aHE9z4v3w4x5yz789DEbHGDAxu1w68DFHeIJIHD62tsZYqu6DcIII",
"44wvusrpURONMgPRTVUmSRlrx#dJIIIIedcHFFbGHHbDAy3vw4x55x43v22uu10rpVUnVVoXtxBaH#7wsqr01v45z7BCDEbHF9yuYY147CFHeIJIHD6u0ZrYquzEdJJJ",
"222uuttZpmQhNOjToqWVmSmZyEeJJJIIedHF#D#EEF#9z42uv3w443vu1t1tt0rpmkijkSmVZwAEH.y1XnWY02w5zA9.D#EaD7wsWp03zCaHeIJIH.y1srrYY27EdJJJ",
"333wwww30pmQOjTVqZqpoUV06EdIIIedcb#97z78B9B7y4vvww4x43utsss0t0YoSihOiRlUY2z.FBx0omoY0vx6AB.D.9BA6w1rWp03zCaHdIJIb9xtZrrrZv7EdJJJ",
"xxxy6z77w0pljlVqs1srXop16#dIeddHFD8y3vwx5665x4ww4x554v1ZqYrZ00qnjhNgOikmX15BD73ZnlVY035z8C#D97yw2tZqWX03zCaHdeIda8wsZrZZ03AEdIJJ",
"yy67BCD#A3somVXs1v10ZqY2zDcedHGFDA52Zrstuv3www4x55y6x20YWpqrs0XmPNLMgOjlW0w79yuqmknqtw6A9Da#ByvZqXXWoqtwzCaGHdecD7vZrrs0148EdIII",
"77A9DFHH#zvrWqsu34vutZs37DHdHbE.8x2roVWXYstuvw55y6zzx2spnVpqs0plhMfLNgiSoZ2yA40plRUqt4z8C#FEAwZVmUnVoqtwzCabHcdGC62YYrstux8EcIII",
"88B.aGdda84sXZtv45wvu0t3zCFGa#C8yvspmTUopYs13xz7777z52ZpUVWqs0WkgLfLMgiSorux63ZokQmXt47BC#F#72XSjkTUVqtw69#abHcFB51qqrstu4ADHddd",
"99C.#abbCy2YWqsuwx321ss2xzC.98zy4usXnnopqZ1w68##.B8z5v0YWpXYZsoRgLfLNhknX02xy2YnjPlWs367BC#Cy1pSjRlTUpZ2xAC#EbHa8xtXXqrZ0vy8#GGG",
"......DCz3sWnprtv4vu0rrt246z654w2tZqWWXYZt369acHFD9z53usYYrrZZVjNLfLNPmXZ1vxx1XmiOkVr2x678984sokQRSlTVYt368CDab#A4tXpXXYrt3yBDDD",
"DD#.CB8zwtqnTVq02w21sYqZ0u3w3vu10sZYqYrst2xBadIIdFCz5wv10ssZZrnQNLfLgjos12344tplPhjUq1wxyzA6vrVkQjkklUXZu468C#FD7w0pWWWpXZ13yAAA",
"EEE.Bz5wtYolkmpZuvu0ZqpqYZ00ssZrYrrrrs0123z#cIKJIHDz5xwvu1t0ZYUiNffLhSqv3ww4wsokhgiTp0v345yxuqnRiQjRkToY0vxz8.E.6vsWVoVVoXZt3xxx",
"###C7xv0YWmRQloYtutZqWVWWpXqqqXXXYrZst123w7adJKKIH.y4w3v21tsrqmiNLfLOms444wwvrnjgNPlp0v3w4xwtXUkQjRRkToXZuwyA9D9y2ZonnUUnWqZ1vvv",
"777ywu0qomkPPRmWrsrXoUTUnopXXXXXXYrZstt1u25CGIJJdD6u0sZrYqXppolPNLfNQn04w32utXmQgNiUrvyyyyyxurWmSlTmUVXr0uw579D9y2ZonnUUUWqs2444",
"33320rXVmkihhiSUpqpVTkjSTnWXXXXqqYrZs0000037DHIdEz2qWVnUmmmmUmkPhNLhkWt43v10roSPNNjotyB8A7z530qoUVoWXqZ012w579.B5urVUUUUUWYt3555",
"ZZZYpVUlRiOgNhQlnonljPOjSmopXXqqYrZss0sZZrtxA#HaAvYmkRQiPiQjkSjPOggimX14vusYpmRONNRpv8EDC9A642sqpqYrs0t12vw57B.B5urVUUmmUWru4zzz",
"VVVUmSkQPhgMMgPjlmSjPggPjlVpXXqYrrZsssZYqprux8D8wrUihgNNNNghPQiPPPPkVYu42trpnSQhNNkYx#HbED975w1srstuvvvv33w57BC8x1YnmmmmUWZ25AAA",
"kkkRjiPOhNNLLNhPRSjPgNMhikUWpXXqYYrZZrYXWVps25Ax0VjgMLLLLLMNhPiijRkUpZ2wusXnljPhNNls6becbECA6xv1tuv455x443w5z8B74tqnmTTTmWZvyBBB",
"QQQQQiiPOgNMMNhiRSjPhNNhPRTnnUUUUUnVVoVVVUWr1w6wZnjgNMLLLLNhQkSlTTmVqs23troTRQPhghUt7bdHFDBz5wut02wy7765xw34x5yx2ZXUmTTlTVYuxAAA",
"PPPiiiQQPhgNNgOQklRiOgNhPjSTSkRjQQjRRklTmmoYtv5vrnjhNNMLLMhilVVVVVVpYsu2sXUkiPPPhiouAbdHEC75wvtss2xz99A65wvvvvv1sqWUmTlSSUXtw666",
"hhOPiQjRQPhgNhPjSTkQPhghPQRkQPOgggghhOiRlToqsuwuYnRhgNMMLNPkVYYqqXXqZ011rWlQOPPPikXv8bdG#B64v1srZ258##97yw2ut0ZYqWoUmlSkRTWZ2555",
"gghOPQRSRiOhghPRlmSjiOhOPiQQOgNLLLLLLNgPRlVXZtvtqnROggNMMgjUY11t0ZZZs0t0qnRPghPQRmrwBbcb.Axv10rqr26CbbD86wu0rXoVVnnUmlkRQSVY1www",
"gggOPjSTSjPhgOikTUlRQPOPPPPPgMLffffffLNhQlVpr0u0qnkPhhgNNhSW0wwv21t0000ZpmQhNhPjlo04BbHa963u0ZqpY26.HHEBy3trpUlSTTmUmSRQPRUps222",
"iiQklUoWnljPhPjSmnTSRiPPPQQQOgNLLLLLLMgPRTVprt21sXVmkjPhgPSoZ2v22uu1t0sYVlPgMgOikUYuyC#9z4u0rqpopsvy9B6wtrpnTRiijkSTlRQPOikmWYYY",
"mmUopYZsqnSQPiRlUVmlkQiQQRkkQPhgNNggghPjlmoXZ1vvu0ZYWUkihiSnqst1u2vutsrXUkONMNhPQlWZv67y420rXponVprtv2sqVlRQPhggPijkRiPhghPjSUmm",
"YYrstuv30XURPjSmnoUTSjQjRSlTSkRQiiQQQRSlmnWqsu3www3vtYVkPQSmoXr01vw2tZqWTjhNLNghPRUps2wv1srXWonmmUnoWVTRPhgNNMMMghPQiOhgNNghPiPP",
"vv3wxy6z3ZoSQRlUVWnmlRjkSTUnnUUUmmUUUnnnVVpY02w5yz7AxuYURRSTUnprt34vtrXnSigMLMNghPkUprsZrqpWnUTSkRjQiPgNMLLLLLLLMNhPPhgNMMMNNNNN",
"zz7A89CCy1qTjkTnopVUTkRSTUVWWpXqqqqqqqXpWoprtv46A9Da95tplkSSllVqtw531rWmRPgMLLMNgOQkmVWWWVVnmTSRjPgNMLLfffffffffLMghhNNMLLLLLLLL",
"666z7A88xtqmkSTUnVmlkQijklmnWXr00ssZrYXoVUVq024z8.EbD62qmTTmUnX0vy7xuroljOgMLMNhPikTVpqpWVnUmUmmlQhNLLfffffffffLMNhPPhhNNNMMMMLL",
"44xxx5y5vsXUlllTTTkjiOhOPQRlVXs2vutsrqWnTSTWZu4zBDaG#zvYUUVWXYtvy8CzvZoSQOgNMNhPRlnWqZ0rXoUmUoWXWlPgLLfffffffLLNgOQkkjQPPOhhhhgg",
"vvvvv3vvtrpnmllSkRiPhgNghOPjUXt4x3u0rXVTkQRnY147BDFHE73rnVpY01wy8.E8wsVkiOgNNgPRTVXrt220YomTnpY0ZnRhLfffffffLLNhPRlUUmTSSkRRjjQQ",
"111ttt0srXWVUTSRQPhgNMMMNNgPTXu67x3trpnSQOPTXt479#bHaAwZopYtvxzB#FGCx0VjPOgNNhQToY0u3xxuZWTlVYt32XlhLfffffffLNOjSmVppWWooVnnUUmm",
"ZZZZrYqXpWWoVTSQPhgNMLLLLMNhSqv89z4uZWmRPghkW0479#bcF84sWq0vy8.EGcdEy0VQPOgggPSVYtv4y77w0WTlosvzysUPLffffffLMhRmnWqZZZZZZZrrYYqq",
"XXqXppWWWpXqXVmkQPhgNMMNghOjotyDF.8ywtqnkPPlWZvyACEGEAxtqs2yB#bHddeFztVQiPOhhjmXt3x67BBxuqnUXtw7ysUPLffffffLNPknWY02vvvv3v2utt00",
"VVoooooopqrssqWUSRQiPhOPRlnX1yCHdHbE.A40pllnprt357CE.7xusux8EHddeIIb7uoRQiPPiloZv5zABCC63spWr1w6xZmhLfffffLMgPknXsv5y6zz765x3v22",
"TTmmUnVoXr0u20rpnTllSkSUWYt3z.GeIIIedH.yuXWpXqrtv579Bz5vu47DHeIIIIIGA2WkRjjjRnq1x789CD.7xurY0uwy4YThLfLLLLMghiknqux89C.D#.BAyx44",
"RRkSlmUVXs1wxv1ZpooVVVWr1wz9aceJJJKKKJd#zuZrqXWY0v577y5436CGeJJJJJIHBvpSkSSSTWs3z9..#E#By3101vw53qSgLfLLMNghPQknr37#FGHHcGa.87zz",
"PPijklmVqtvy7ywuZYYYrZ03z9FceIJKKKKKKKJdEyvtYWUVq0vxy5555BadJKKKJJJc93XllTTmnYu5B#EEFFa.7532v3wx2pkgLfLMNhPiQjknsxCHdeIIIedbD9BB",
"PPiRSUVXs2x78z42srZs01v58#HdIJJKKKKKKKKea6v0XnklVq0u3wx5y9FdIJJJJJIHB3qmmnVWXtw7.FbbGbFDAy3233wx2pSgLLLgORSlSlTWty.HdeIIJIdGD8AA",
"jjRTnprtvx68Bz4uZqZs1v468.FHdIJJKKKKKKJd.4tYVSiQSnpr0u34y8#HeIIIeedE7vYnopqr0369aHHHHHbDA5212vwxvqlhLLNORUoooooY2yCbcdIIJecEB655",
"SSlnXZuw5zA9C741rXr02w5z8C#FHdIJJKKKKKIG8vrolihhikmoqsu35ACaHddcHGF9yurWXr0u3y8#GcccccH#741012w53YmPMMhjUqrrrrr036BEGceIIeG.zwvv",
"TTUpZ2x789C..741Yprtv5z789.#FHdIJJJKKJeE6tpmjhNNgPjSnq0v57B.EFaE#.9741rXrt246BDbcdddddH#7w0Zt2w5wrniNNPTX122uu12xz8.aHdeIdFBx100",
"nnoruxAD####D74tqortw6A888B9DFHdIIJJJJcC4rnkPNLLMNhPkoru5678B9B8A76xvtZY0vx79#Fcdeeeedc#73ZYsuw54sojghRo04y5xx44yzABDbceIdE7vrqq",
"ppX0369aE#D.963sXor1xA9B8A77BDaHddIIJeb83qUjhMLLLMghjnYuxy6666y5x43v10ssu47CEGHdeIeeddG.6vZqs1vxwsokhPmYvz8Az6556z7ACaHdIH.y1XWW",
"rrZu469#.987y31rpWZ2y9D98z55zB.aGHdeIdE7vqURPNLLMNghjnYux55x4w3vu1tt000t369aHddeIIedHFD85v0rstuvuroliRo0xBCBA6556z7A9#bHdbBx0WVV",
"tt1vxzB.B75w2tZqpWs3zDEC8y3vxz8.EFHHdG.62qnkPgMLNNgOjnYux54321tsZYqrZst2x8#HeeIIIIdHaCA64vtss00tsqomkmq2zD#C8z55y6z7B.EbH#73Zonn",
"vv34y7897xvtrqqpWpt48abDAxut2468CDEFGEB5uqVlihNMNghPRnYuxx3u0rYXWoVpYZ136CGeIJIIIIdbC7xwv21t0sZrYponmo04BFF#B75x5y6zA9DEFCy2YVUU",
"xx5yz7885v0qVVoooX159GH#AwsY0246ABC.#Cz41qVTjhNNghhPRnYux420YponmllnXZux8EdIJJJJJIcEA4uuu2210ZqpWWoooY26DHHaC75x5y6z7B9CD84tXUTT",
"66z6z77zwtqVlTnVWY26.Hc#A3rXr02w5yz78zxv0qomRPhghhhPRUq1431sXonmlkkUpr14A#cIJJJJIIHDz3t1122u0ZXoVoWWpZvz#cHEB6w3w4x5yz7A8yvZWmll",
"zzz666652ZpmkTVpY0w7DHH#73ZXYrs01u22v21srXoUljPPPOhhilWZuutsrqXWVUUVpqZ1wzCbddddedGDA53vvv2u0ZqpWWWWWYu5Cba9630s0t1u23w4xv0Xnlkk",
"zz76y5xwtYVSjTVqsv58#HH#7wsqqqXXXqqqqqqXXXWVUlkQiPhgPkUXs000ssZrqpppppXqsvx7CDEFHHFDBzyxw3210ZYqXpWoVX04A#.z3spopXqYrs01u0qoTkRR",
"7776543uZpmRQlorux79EHHD7w0qXWnmTTlllTUnopWoVUmSjPhghQlVXrs0tuutsZrqpWVnWYsuwy79#aEDCBA6xwu10srYqXWonWZv69A40pTSTmUnVWpqYXomSRQQ",
"AAA6x320qVliPlW0wzB.aHGD741YWnSQPPOOhPjSUWpWpWoUSihNgPjTVXrt2ww32u1ZpVTRSmnoX0vyB.DDDD.864ut0ssZrqWVUVq147y1qTiPiQjRSlmUnUTkjQii",
"zzzywu0YWUkiPTptxA9.EFaCz41roTQhgNNMMNhQlopXqqqomjhNgPQSUpr1v5x432urWmjPPQjRlWZ2y89CD##B6wtsZZZrrXWVmVqtw6x0WSOhOPPiQjklTlkjQiPP",
"www2tZqWVmlkknXtwyz78997531roligNNMMLNhQlopXqYrXVTRPQkmVpYs1v43u0rqVljOghPijSnX0vx6z8BBz4uZqXpWooVVVnpZ258zvZVkjRkSlTmUnnUlkQPPP",
"000rqWVUmmmmUWY02w4x5yy4321ZoSPNMMLLLMgiSVpXYrZrXonTUVpYZ0tu2v1ZXVTRPhNNNhPiRmoqs1vw5664usXonmTSSTUVWY147.952rVUnVooWWpXpoUSjPPP",
"ppponmlSlmnoXYZ01u2u2u2u111ZokONLLLLLMgPSVpqrZ0sZrqXqrs1u2uuuuZpURPhgNMLMghPjSmVpYstvw4usqVmSRQPPRTVXs369a#85urYYrrrZZZZrXVTRPPP",
"TTTSkjQikmoYssss0ssrrYrrs01soRhLLLLLLLNPknpqZs111111u23w4w321tqURhNMLLLLLNgPQRSTUnpYs1usXVTRQOhNgPSVYuxA#HGDA52uu22222uutZWUkPPP",
"QQQiPPOOQTWZ1tsZrqqpWoWXr0utWkOMLLLLLLgPSoqZtu3ww4xx55yyyx3u0rokONLLffffLLNhPiQjRkmVqZsqoTRPhgNLMhkos3zCbdcF.A5555555x4wvtqVSiPP",
"PPPPOOhOQSUXrYqXpWppXXYs13x40WlPggNNNhjmp0246A999BB87654v1sYpoligLLffffffLLNghhOPiSUprsXnlQOgNMLMOlXu58#HddG#9z66zz77z6yxvZWTjii",
"hhOOhOhOiRlnooVnnnWpYrt2468A4tXmkRjQiRnYux7CEGdcHGF#9z4uZqWnTSihNLffffffffLLMNNNghjTWrsXUkPgNNMLMPUZ4A.aHedHaCAAA8BBB88A741qURjj",
"gghhhhhOPQjSlllllTVXZtv579##852ZXWonUoZv6CaceIJJIIdH#AwsWUlRiPhNLLfffffffffLLLLMMNPSor0XmRONNMLLMiVt6CEGdeeHFDBBBC.DD..C96vrVSRR",
"NNggghhOPPPPiQQjjknX0v5A.aHHaC742u0ZYsw7DHeJKKKKKJJeb8vqljPhgNMLLfffffffffffffLLLMhRVr0XTQhNMMLLNjW28EbcdIecGECC.#EaaaaE#840WTSS",
"NNNNghOPPPOOOPPiQknYuxA.Fceedb#Bzy4vu37DHIJKKKKKKKKJcB2oihgNLLLLffffffffffffffffLLhRVs1qmQgMMMLLNkqw.GHdeIedHaDD#abGGGbbF95tpmll",
"MMMNghPijRSlTmnVopsvyBDFHdeecFD86x310uyCHIJKKKKKKKKJcBuVPgNMLLLffffffffffffLLMNNhPSWs3xuYVkiOhgNhmZ5DHcdeIedGECC.#abFa#DC6vYnRQQ",
"LLLMNhiRTnpYs01u23yA.FHccdddG#97531ZqZw8FeJKKKKKKKKJcBuVPgNMLLfffffffffffLMgOiRlUWruxAB63tqomSjPjW16#HcdeIecbD88B.#a#.BA6vZVkOhh",
"LLLLNOQloY1wyz7A8C#bHdeeddcHa.8ywuZXVpu6#dJKKKKKKKKJH8uVPgNMLLfffffffffLLNPkUWqZtv5ACaFD86w1ZXnlmYv7EHdeIIecaCzzAB.#.86xvZoSPNNN",
"fffLNORUquy9abGHHdeIIJJIedHFDBzxv0qVlnsx.cIKKKKKKKKJH8uVPgNLLfffffffffLLNiTp0246ACEbHddcb#C7xurWptx8aHdeIIeHEByy6A9.B6w1rolPNLLL",
"fffLNPSW05CHeIIJJJJJKKKJIdG#9AywuroTjlq3BHIJKKKKKKKJH82oigNLLffffffffLLNPTXuy8.aHdeIIJJIIdcbC6vZZv69FHdeIIeH#A445zA9741YoligLfff",
"fffLgjVswAEdIIJJJJJKKKJJeHaCA6420YWUkmr38FeJKKKKKKKIGA2WQhgNMLLffffffLNhRoswA.FceIJJJJJJIIdH#7wssv6CbcdeIIeHD7w3wx56xuZpUkPgMLLL",
"fffMPmrwz.GdIIJJJJJJJJJIdb#BzxvtZqpVUoswAEdJKKKKKKJIbA2pRPPOhgNLLfffLNhjUqu59EHeIJJJJKKJJIIdEAwsZv6CbcdeIIeG.z3222vvuZXomkihNLLL",
"fffNjW2A.FceIIJJJJJJJJIdHaCA5w1ZYqXpWqt47.GIJKKKKKJeFAvXSRRjjQONLffLMhQTp0w7.bdIJKKKKKKJJJIda8wZZv6CGddeIIebC6v1t0sZYpoUTkQOgNNN",
"fffglZ6EGcdIIIJJJJJIIIdHFDB642sqpXqqYs2xz9adJKKKKJJeaAvqTlTmmmRONLfLgilWZvyBEHeJKKKKKKKKJJJebBwZrv6CGddeIIdF9y2tZYpoVUmTSkjPOhgg",
"ffLhnuCdeeIIIIJJJJIIedHFD975vtYWoXYZ0u3x6ADcIKKKKJIdEAvYUUoWXqnjhMLMOkVZuxA.bdIJKKKKKKKKKJJIGBwZrv6CGddeIIdF9y2sqWUSSSkkkkjQiPPP",
"LLLQX4EeIIIIIIeeddcHHbaD9A6xvtrpWqrstv4y79adJKKKKJId#Aw0pXr0uvZVkhNhjUXt3y8DbdIJKKKKKKKJJIIdE7vYq26CGddeeIdF96v0qoTRRkkSSSRjQiPP",
"NNhT0zGIIIIeedHFED...C987zy4v1ZqXYZ0tvxzB#GeJKKKKJeH#B52Z0246Ax0pSPRmpru4zB#bdeJJKJJJJIeddHaBxtpX1yCGddeeedFCzw1rWTjjkSlTTSRQiPP",
"iiRpv9cJIIeedb#B6x55yy6y55x4vusrYZs0t35ADbdIJKKKKJeH#9z4u36B#FC51XmVpZtvx79EbcdIIJIIedcGFEDBy2ZoWt5CGdddeedb.AxuZWTQjklmUmlkjiPP",
"mmn0y#eJJIedH#A41Zstu2333w4wvutsss0tt369aceJJKKKJIdG#CA64zCFdIH.6uYrs12wyACEbHddeIdcHFE.9875v0Xno05CGddddedbD8yvspTQQklUonTkjiPP",
"qqr3BGIJJIecFB40omnWXr0tu23wv21tttttt3z.GeIJKKKKJIdb#.987CbeJKIcD6vvvwwxz8.abHHcccGaD9A6543usqoTnsx9Gddddddb#9zw0pTiQkTVpomSjiPP",
"tt15CHIJJedG#72qmRlUVprs1v4x4321tt00026CHeJJJKKKJeH#CBA769beJKJd#62uuuu2468.EaFGHHa#C87yxwv1Zqomnrv7DbGHHHHbE.ByuYUjjlmopWnTSRjj",
"vvwz.HeJIdHaCy1XTjSTnWqs2467yxvut0sZrt59GeIJJKKJIdaB76x43z#dIKIHBwZYYYqY02x7B.#abHa#.9Azyx4vtrpnVqtwy89.#FFFaED840WSSTUopWVnUmTT",
"55y8#GdIdHFD840WSQRlmVXsvy89Ayw2tsrqXZw8FeIJJJKJeG.64321049HIJIaztWVnUmUWr1wyA9#FGaEDCBA7654u0qoopYstvxz8.#EFFb.62qmTUnoWpWWWWWW",
"AA8CEGddcFDB6vZokijkTUWsw7DE97x2tZYpoqv7adIIJJJId#AwutZYquzaeJdDxYTkRjiiSnqt35ACEbaa#DCB87zy31rpoooWWq0v5AC#FHdF84sonVVoWpXqrrrr",
"CC.#aGHcb#97xuqnRPQRSTos48FG#8yvtrXoUWu6EdIIIIJeG9y1ZYpVnZxDdJdB2oiPhgNNORUX03yB#baaE#D.98Az420YWnmlRlWZ2y8DbcecD6uXoWooWpYZt111",
"EEaFbHHHFDBz4urWlRSlmnp1y.HdF9y2sqomSmZx.ceeIIIdEAwsqWnTSp28beb71ViPhhggOjToY14zCE#E#DDC98Az42sqoUlkQSVr2yBEHeJebB40rrYYYrstu222",
"bbGGHccdG#9753trpVoWXqsw8adeG9y1YomRPRpu7FHHccdbC6vZXVmkQUZxCG.y1WSkRRjRkTUoXs2x7B9CCCCBAzyx20qonUmmTVYux8#GdIJJdE84vv22uuuuu111",
"HHHccdddHECAy4vu0Zss0t26DHIIHC5tpUkPgOmZx.aaFFFD852ZpnSQPkp1yC74tXnnnVVoVVVoWY0vx67A8BBAz54v0YWUTmUVoqt47DbdIJKJIcE87z66yxwvut00",
"ddddddedHFD86y5xw333ww5BbdJJc.xsVSPgMNjp2ACCCCC86w1rWmROgPmq25420rXqYZs0rqponpY02wxyzAAz5w2tYWUSSTnpYtwzCbdIJKKKJIcF##D.9Aywu0ZZ",
"eeeeeeeedb#B7777777z7zAEdIJJd.xrmjhMLLOUsxz7777y420YoligNgjUY11t0sstu34x20qomVpYs1v45z7yw2tZpnljjTortw69FdIJKKKKKJIddcHHbDAxuZrr",
"eeeeeIIedb#B77AA88A77zA#cIJJdC4qTQgMLLhTYw5555542trXnkPgMgPlors0t1u3x6A8yvsXnopqZs1vw5542trqoUlRknXt368#HdIJKKKKKKJIedddHaByvsZZ",
"ddddddedHa.Ayy555x4w3vwzDGeea7vqmRPgMNinZw5xxx4v1ZXVmRPhNhQTorstuv4yz8C.Ay31rZs0001u2vvu0ZqXWooVWYt3yACEHdIJKKKKKJIeddHHb#Bz42uu",
"HHHHcdddG#9zxw3vu1tsZrZv69Fb95uqnlQPgOkWsw5x4wwusqVmSjiOhPRmoYs13x6AB.#E.Bzx3322u111tt0ZYXWppqYZ024yACDFHdIJJKKKKJIdcHba#.B76x44",
"aaFbGHcHF.8y321srqXoVUVYuxABy30qVmSRiRUqtwx4w3vtrWmkjQQPPjSUoqs24z8C#abGFE.B7z543u10ZYqpWoVoqs13x67BC#abHdeIJKKKJIecGbEDC9B8A7zz",
"DD#EabHHaC7x2trXoUmSRQjmX034vtZqWVUmlmWr1wxw322sXVSiPiQQjkTnoqsvy8DabHcdcHGFE.8zxv1sYWVnUUmVY1479CD#aFbHHcdIJJKJJIdHFED988BB9999",
"AA89.#FFDB64usYWnTSQPOPknqt2utsZYqXXXqs13x5w3u1rWURPPijRSTmnoXsv69abHcddddcHGECA5vtZXnUTTTTVr2yCEaFbGHHHHHdeIJJJIecbE#CBA89.#EEE",
"vv3x6AC.97y4v10rXWnlRiiTWsvxxx44wwwwwwxyzA75w1sqWnljjRkSlTmnVWZv6CabGHHcHHGba.8642tZqWVnUUmVr2y9#abGHHHHHGHcdeeedHGE##D..DEFGHHH",
"qqYs24zA76543vu10sqVTkRnYu5AA89CCCC.....DD96wtrponmllllllTmUnor26CFbGGGGbFE#.Bz53utsrXpoVnUVr2y9#abHccHHGFbbbGGbFaED#EEaFGHcdddd",
"SSTVqtw555x444ww3vtqoTlW0w7.#aGHdddddddHHG#A40XooVnnUUmmTTmUUnY26CFbbFFaE#.CB754210sZrYXWonor25BDabHddHGbaEDD.CCCCCCDEbHcdeeIIII",
"hhOjmX0vww44x5yyz6w0qVUYuyCFHdIJJJJJKJJIedbBxsWnVoWWWVnUmTmmmUqu6CbbFa#D.98Azy4v1000sssYXWVor258.abcddHGa#.BAzy6z788.aHdeIIJJJJJ",
"LLMhjnruvwx56zA8996vspos37DHdIJKKKKKKKKJJIHCxZVUVWXYqponmTTTTTXt59FFEDCB876yxw210ss0011sYXWpsvyBDaGcddHF#C8z54v34yzA.aHeIJJJJKKK",
"LLMhkW0wxyzAB9..#DA41YXsvyBEHeJKKKKKKKKJIda8wZVnWXr0ZqonlSSkkkVrv6998765432100ZZYrZ0t1ut0sYZ258#FGHcdHaDBzyxw3v3xy78.aHdIIIJJJJJ",
"LLMOlX2y78C.#EaaFa9630Y02469adIJKKKKKKJIdb.6vrVVpr0u0YWUSRjjQQTW036yxw210ZqpWWWppXYstuv2uu12xADGHHHHHF.Ay3vvvvvw56AB.EbHdeeIIIII",
"LLMPmrw89DaFGHHHHGDAxustuvw6CGeJKKKKKJIdGDAxuYVoqsuwuZWmRQiPPPRUX0v210rqpVmlklTUnWqZt23wwww5ADbdedcHb#85vss01234yz89.EFGHcddeeee",
"LLMPn0y.EbHdddddddF96311111wAadJJJJJJJeH#8y3tqVWrt3530pTQPPhhgPknpZYXWnmlRPOhPQkTVprtv4x5y6A.bdIIedGa96vsppYsu3x67BC.#EFbGHHcddd",
"LLMPV17aGcdeIIIIedGDAx2110Z1yDcJJJJJJIda96wusqVWZu4z4tpTiOhggNhiSUWVUTkjPhNMMNhikUWrtvxyzA8.FdIJJIdG#A4tXmUpr13x67BC.##EEaFbGHHH",
"LLMPV17aGcdeIIIIedGDAx21tsrt5.HIJJJJJIcEBy31ZXVWZu4z4tplPhhgNNhPkmonmlRQPhNMLNhPRmoYtvxyzA8.FdIJJIdbD7w0pTmWYt3x67BC.DD##EaFbGGG",
"LLMPV17aGcdeIIIIedGDAx21tsrt5.HIJJJJJIcEBy31ZXVWZu4z4tplPhhgNNhPkmonmlRQPhNMLNhPRmoYtvxyzA8.FdIJJIdbD7w0pTmWYt3x67BC.DD##EaFbGGG"
};
