/* XPM */
static char * toast_xpm[] = {
"128 128 91 1",
" 	c None",
".	c #744933",
"+	c #A87B45",
"@	c #AF8856",
"#	c #C9AB78",
"$	c #DCCB86",
"%	c #EADA98",
"&	c #90673B",
"*	c #F5EAB1",
"=	c #D4B777",
"-	c #AC7443",
";	c #C8A463",
">	c #EDDE9C",
",	c #E4D38F",
"'	c #9F6A3D",
")	c #D8BE80",
"!	c #C09C6A",
"~	c #B27B46",
"{	c #EEE2A1",
"]	c #825538",
"^	c #A37649",
"/	c #A26F40",
"(	c #EBD493",
"_	c #BC9668",
":	c #E7C58D",
"<	c #8B5E33",
"[	c #997246",
"}	c #D9C383",
"|	c #F3E5B3",
"1	c #E4CC87",
"2	c #BF8155",
"3	c #9E6F4B",
"4	c #916745",
"5	c #BB8A5B",
"6	c #F3E3A1",
"7	c #8B5D3F",
"8	c #F2DAA6",
"9	c #BA7F54",
"0	c #FEF6C6",
"a	c #E4CA93",
"b	c #AB7250",
"c	c #DFC488",
"d	c #E5D299",
"e	c #B17B53",
"f	c #E6DAA1",
"g	c #FBEFC1",
"h	c #EADEA6",
"i	c #EECD98",
"j	c #976243",
"k	c #EBD29E",
"l	c #986E48",
"m	c #F0DEA7",
"n	c #E4CE96",
"o	c #DFB980",
"p	c #A46E4B",
"q	c #D1AF6F",
"r	c #B08256",
"s	c #F3E2AB",
"t	c #97663C",
"u	c #FEEEB8",
"v	c #8F6240",
"w	c #BA9263",
"x	c #986645",
"y	c #ECDAA3",
"z	c #F3E6AB",
"A	c #ECD6A0",
"B	c #E5D69C",
"C	c #D7B982",
"D	c #EEE3AA",
"E	c #A77D56",
"F	c #F8EDBA",
"G	c #A5724C",
"H	c #CFAA7A",
"I	c #EACE9A",
"J	c #9F6A47",
"K	c #E0C590",
"L	c #B2926B",
"M	c #AE7650",
"N	c #E2BE85",
"O	c #DAC48D",
"P	c #FAECB3",
"Q	c #FAE6B5",
"R	c #986B3B",
"S	c #B67D54",
"T	c #DECB91",
"U	c #925E42",
"V	c #C7A473",
"W	c #D3B17C",
"X	c #DBBE89",
"Y	c #996A46",
"Z	c #AE8A62",
"5SeMbGpppppppppbGGGGpppppp3JJYxx44&v&vvvvvvv&v&44vj&tRRRx''3''J''''''/ppppGGpGGGMGMM~M~e~~SSS2r92S2299292225555522222S9SSSSMeSe2",
"2SMMbp333JJJJJppppppp/pppJxJxxxxvvvvvv<<<<<v<vv&vj&j&v&tRtRtYllR'ttt/''/'''p'3pGG-G^b---~~~~~S9SrSr29222222222952229S2SSeSeMeSer",
"r~M-bpJJJJJJp'pppppp''/'/Jxxxxvjvv<<v<<<&vvv777v4vvv&&&t&jRRxxYYR''tRRRRt't/'''pGG-G/---+~~~~~~~99r2~925222225999~S9S~-9eeMMMSM2",
"9-M-bJJpJJJ'j''''/p'/p''xt'xjjjvv<<<<<<<7v77vv44v444&&llt4xYYYttRRRRtRR'''''t''/////-/-+--+-~MS~M9~~2~9~22229~522~~9999~SMSSMMeS",
"S~-/p/xJxxxj''''p//'/p/''ttx&vvvvvvv<<<<<777vU77vv4Y44&&l&Y4&&RtRRRR'RR/'/'/'p/3//^/+---+-~-MM-SSS9~~~~922@22~29999S~~9SMMMSMMee",
"SM-'p'JYxJ''j'''/''''p/'R'tRjtjvv<<&<<<<<<7Uv444j4xYRlRlRRRRRlR/R'R'RR//t''pGp'/^-/^---+^^-+~-~MS~~~~~~~999999S2292S99~SSMSMSMMe",
"S~-/p'''xxj'''''///3/l/'RRtR4&4&&&v&&v&vvt&R4YYllYxtR/[//R''RRR'R'R'/'//''pGpGG3/^/^+^---+-M--MM-M~M~~2~9~~2~~992999~2~9SMSSSMS9",
"~~-pppJxxt'j''''RR/[lG3Rttt&xY4&vv&<v&4l[[E^EEEZM^+^eEE+@rr+-/-R////'///GGpGG[//[/++^-^-^^++-p-Mp--~~--~~~922-9S29999~9SSSMSMSeS",
"MM-bp''xJx'j'JJxp3pp3'3'/lRRRRt&jjvjt/+E@ZLw!L_w!Z5www_w___w@~@-+-/++~rr+rr+~^~r+-+-++-~++/+---G-MMM~~~~~~~-9292~9~S99~9SSSS9SM9",
"SSbbppJxJ'xxxxJJ3YYJ33'lR//RRtRtjtj/[@L_VV!WXHHVWHHV#=WHqqqH_;2w5w@Z5ZZ5!@w@@w@@@rr@@@r@+@r++^--M-~-----~~~~--~9-9S2~2999SSMSS99",
"S~MppJJJJJJJJxJY33lJY3J[/R[/RR//ppGeL5_V#=#CCXX:WIWacXaCcC1CNqq;!;;;#W!Wq;;#!;;!!_!_!!w_www@5@r~~^-~+--+--~~~~~9~~29S2S999SM2MS2",
"92-bppJJJYYYJJYxJ''Y3JpJ///[+^E+reZww##==KKKKIaIAI:K8sKI>ykKKX:oWWXcHc=c))=)}=q;c;=qH##q##;!;!_w55@~+-+-+~--~~-~9MSMS9SSSS2SSMeS",
"S~bbbbjpJxJxJxJYYY3'Yl33/^Er@Z!L!!w!VWWCnBKkIkkIAnaacn}mAnm8qcCInaK)=IKKan)d}O}K)Kcn1}=1)a)=Cq=#V!_5@++--++--~---M9SS9SSSSSS9SS9",
"SSSMbbpJxJxJxxtxx'JY3J3/^+@_!V!#VWCq#XkXaakkBInsymmmmmIysk(dc8ck=IIa:8:a}nCnAnATTkydInAdTyAaKKKKCW;;w_~+-/-+/--~MMMSMS2MSMMSMSe9",
"9~M9bpppJpJJtxxt'Y3J3J3E+5_!V=WCCW#XWqCKKCakyTaknyByknamk}8AAnk8=A8Kaaacynk}}}CaOAknAm8A|dTOAdAaKaXXW;_wr---/----MMbSSSMSSSMSMSS",
"229M-bbpG3YJjx'xx'Jl33^r5!#WWWa:aXNWXiXIkCAKTOymAmQmTnTQT8K8n:sCAkKaacoAQOnkTnOnTddBddPm*{hzsdA|mIIkC);;5++-/^---bMMMS2MMMSMSMMS",
"29M~MbpJJpYtRjjttYYJG^E@!W=CWCICcaCcX:C8OIk8O8kQdmOAdymndmkOIC:Wmim:AO8Kc)=anAAycyddBdDdfs%fd|BmmnOAIc=;!5++^/^^----SbMSSMM9bSMS",
"22S2Mbp'pY'R4txx&4JY/~5!qWHKK:IXakAK8kKiXAK|CDOmTDdsmT|nmaKIyKci:k8dIIKykTK)d=BkAkAmnfBDfshshhsmTfmya1c);wr/^/-//--MMMMSSMMMMMMM",
"2S9S-bb'JYxt&vjjRRlGEZ5HqCNCK:IXcaa)aC)anAkOkBQnknhATFkkmKaaaKIKoKXOAAKXXdTIk=ndOaaBdhydfDsBDmhf*snByIacX;w~+/+///^-eMMbbMMbMM~M",
"2S99MbpJ'JY&v4vv4t[r@_qCXCX:KciIAAannnAskdsAmXOOfABOmnB=k=OIOq8q8Kk=IOn8aXKTBOsdydmAyh|BDfhODBhhB,|BA%s1Xq_w++^^/GG-pbbMMbbMbMMM",
"222S-bbJxxv4vvvjxpE@__HCiXI:KCicc)nAsdcO=IIT8sFI|An;TOCdyTOanaCiCCXTKdTKXCannTXnOAdyaBsAfh*DDBfffDhDhBhBc}#!@++^//^+bbbbMbbMbMMM",
"2229b-p/xx4v4vvvl^@5!=o:KKoKic8oaqIc:k:annamBOmOOOnIhXnAOaOkKXIOcKXKnkn8OITKaOh}kd8kTynT|ddmQdmdfnBhdhymn==q!w~+^^^MpbbbMbbMbbMM",
"2999Mb''tjvvv7vj3^Z!H;WNNIiINIn=AckaInkkkd8KykAdAO=aOXfnkXCQKCCXI#XkaTOknX)OIOk)A)daCAAafyDhABmdDmfhy*DdT}c}q_@~^bpbppbbbMMbbbbM",
"29M9Mb'jj4v7777UYE@;;oo:Cqaaa)ii8NiNi::iKAAkafC8|XnOfIO=nOTanCHK;inXKaAdkTAATOd=sd8dsKknA=TkyABmdBDm|BBh1}1=X!wS+GGppbpbbbbbbbMb",
"S9SMMb/xj4vvv7vvxEr!;HoNK:cIa(8(i8kaiW:iackCIIOWBCkWaCCXnCKX8c:qKkCTnmmTAXkOAkyyCaAnAKknmABdB8TkdysBsBdOnna}cHV@e/G-pbbbbbbMbbGM",
"99SeMp''4vv7v774vEwVHHo:Niak(1()}((=8cooiIckaK8CIkIOAndVX#K:cCaXaWnddhXC8AOOdnO8mdKAkKaaaTnn8nhOTmBfAmdnKdacKC__@^GppbMbbbbbbbbp",
"9SSMbpxx4777<7<vv^5!;WNoCokaIsN:11k8oX:=KKaXkKk#Cy#k!K_nXcWWXCWq:OKTOITnOkkTAOI8kCKInOOIn8OdyKnBDyyyBdTAddAn}=H!r-/bpGGbpbbbbbbb",
"9S9eMJxxvv<]7<<v&+5_HHiWi:iAi11i8kiA:8IiKIIa8KKOCO#ad}}cXC##KXCkKoC8KAKXAn88CndVAOd=kIaAdnddydnAOyymAydB))KcIKH!@+-pp^MGbbbbbbbb",
"9S9MMGJx4vv<<]]<tEr;;ooNiaN(iA1i(ki:::ICXVkCaKiKqqcKKVXCCCIC=X:WaaKX:K8knyXOOOmO8KCWOkIKkKkcdnndyyndOaaKdA8kK)q_5+^ppGGGpbbppMMG",
"9SeMMpxx7<]]<<vvRS5;;qH:koik1:k::o8k:ai::CKiK:aKXKCa:=cW)qCWXCCXBIK:IIaKOOOAdIO8KTOnnXKTdndKanaddnO8Tdad)ayTacW;@eMMbGGbbbppGbbb",
"9SSM3pYYvv<]<]v&R@_!ooHoN18Im((:coWAiAI=KXX:W:CXN::aC::ccK=ckAK8hOAKICakAaOTKTXOXI)dKnIKC}nAKkKkC,nAaaa}OnAakcWHw+GJppGpGbbpbbbM",
"SeEMpYxY4<U<<<v&M55!o:oi:oiK(i(NiNK:KaOXKKIKX=C:KKXiNCWiqcICXCIanhOWaaCQW|AOhCTKmkOKOakKAK)a}nayTO}Aadnknnc%daC#weMGbbpGbppbbpGM",
"SSMMb3JJjU777<tl^_HooooN18ikWo::::cXiCKKCXKXaXaXoCCIqKcqXna=sXXTByhykhm|n8maOm88CXaXKdKkAcma=IKXcKKK:aX)cn=Kk)KVVr+^GGGGbbbpbppb",
"SMSMpJxxvv777v&/9!!H:oiii:ii:oi:ikWaXKCXXKCCXCC:KK:XCNX=qa8nkymTmhF|ghhF|B8AmInnaOanX8nOk=8aAciocimIaN=kX:KIAa=}!@+G//GpGpbGbpbb",
"SeMMbJJxjUU77vl^+!;qHooN}i:N::oNi:oNNXWX:=IXIIXNHCXKKKW;:K=AfhAhB|BFgg|DgmOmCT=BCOkdOsOmXkX8OkaNXXXXaCIiKaaKkKXW!5EG/p[pGpppppbb",
"9MSMppxJxjvvv4Y+55;ooo=N:1N:8=iioNqka:aCAXKaXXKKXNNC:KIC)IAy8Kghh|DBg0FD|h|*)BdnTOhdBOQ|I|BkAAI:OXACKKa)OCCKKCCVV@r^GGpGGpbpppbb",
"SebMppJxYjvvv4YE5!Wqq;iq:oooN:i::o:aiWNCCCCKC:CIKKaKkKq#OBnOBOfFTDgh|OBFfg|Dd|ffhn|FBdQh8I088ACWOannAKaAKak=:CKC!5EpJp3Jppppbppb",
"SSMpbpJYjvU7vY[2w5HqqNo1::(=o::i1ioaXKXXCXKCKWIXCKCAXCCOOAn||FgBghFF|FgB|0d00dFAynFAmBD8ggBm0|Q}Imak8TXKyAKOaXoVV@EGp3Jp'pbpbpbM",
"M9MpbpJYxjjUvxlE5wooHqoiNNN::;1i1aIIkdc)iKCXaKX=KCCKOnCXmmhndF|F|TTDDhFfB**hgfF|g|BQ8AkQBQ||d|8TWdO|KAKadhOmkaWVwr^GJppppppbpbJb",
"9SMbbGp3JY4vxRxe52H;;ooNqi:i::N1I(cn)aIOC:KCKaaCI8a)CkmA|T|fFCgggghDXggh0hffggFTImXkFOddQdDhTQddOACPOCfO|ffknIVVZMGppJJpJbpbJbpb",
"SSMbMGJxxxY4&tl^525;oHo:i:oi:icCc}ICaKCOK:kCI#A8#hCBmmsT||dTD|gdh|df|hgTfgDfhFBF0|gfByg|fBgBgdAms|IQ0*TddDDyTXWw@^xYx3JxJJpppbbb",
"MSMMbbpJY4t&t4l3e2_5HqoNi)q:om:1N:AcckciXC=KOmBTyQfTdBmfdf||DF|DDOT|TOg||DD0|FfgfgDnPsmdsys$Tgs|||TndddD$gD}kKW_Z^3JJJYJppppppbb",
"S9eMb333lYY&txllG2952;qqN::NNiqca(IKacdaIKBgmd|0DmBTBQ|ymh|FBf|hFhTDffhBgFhfdDFDFhQKm}cnzs$$sdz)ssAsdD|d*Bmm8:CwZG3YY3JJJpJpJbbM",
"9rSEpGpJJlxYYYYx3b~225qoqN:Nck1AkKnnAKnKTk8A||fgmsgB)d|fnfOF|BFd||hh|ghDTFghdBhD|h%6Q((m%AsdPsABmAnhggB}m|ndKNV_Z^333xYJJJJpppbM",
"SMMbbGp3JYxxtxYllJGS5_;oNoqAiIAc}aKcna}XIITIXhmyWnDyfhs}Q8T|hgfhODh0ThhhD|F***f|gB{>>(}86%6d}BT|Tyn}zz6O>Ana:c!wrE3xYxYJxJpJJppb",
"9eSMbb3pYJJxJYJJJJpb22;;qNNIdcdOIkydCaaAACOCmmBD0nd,,{{BBmOhDFO|d|||dTDTBDDfFBFh*hQ8%6}PA%n1a8mQd$A6BBm6d,NCoWLE^Y4jjYxxJJJJppbb",
"9eeMGb3plJ3xJY33/3pp~5;qNqo1>cBc%Kn}yAdInK=|mhyD|g%h66,6OmnBQhD|||TdBDhfgTDfBDgDh*z6%%((((($,1)mmAy}>$Oy>d)c;!r3lxY4UjxxJjJJpbbb",
"eMebb^p3plJ3J3J3R3GGS2;oNokakdkBcannnTI8|d|dBBh*yP$>,,>{%nQdQdfhh|T*DsD}FDDFm|zhgP{(6%6zm(%PksdsnfdODz6mm8:o_w3Y47vUjvjjjJpjJpJp",
"Se+MGppJJJxpxJJp/Gp^@5H;qNK}A$}nAkynk}TAm=nf||dD*Fz{P>%(%{hzf>DzBmB*z,>{>>BDmymffBzz6P%m)}c8}AdammB,gFm(m(=W!@^j4vv7vv4jxJJJpppp",
"SeMG^bpppJJJJJppGGGe2wWHI}BATmmOnmaKdK8kDddmyh$D,z*{*>(%$B%>zzm>BB,6${{>$*szs|*s,zh6z(1}(86(=,(m11>F*0(1)A:WVEJUUv777v74xjJxJJpp",
"eeeb^bppppJJJJ3J/G^r@!;;iaKdykkdnaKTdTTann|n)*F{,f{%{%>%%zP6,>%,$>%>>}%>6z>*zs|sdF|g*zz>z>m%8%6(,u=*$,6(,m=q_rxj77777vUvxxYxJppb",
"eee+MbpppJ'JJJ'p'^~@wWWXcCdKdfkkKdkkIIIyBh|zfBDz|hP>P%%*66>1%>}nm%%,%%B%*hz|*D|hFz**Fz(mz}1(%11yQ|*Dz$d,AnkWVE37777777vv4jxxJJpJ",
"9eMM^GpbpJJJpppp--~@!oWKiCTakdCOIOOOnTAkdsyh{FhFuB%$>*s>,1{%6%,y{O1)%z,{z>z|P*D**BF*DFBPmP16s%s1}ssmd1AAcIKCVEpjU7777777vjYxJJpb",
"eeM^MppJJpppJJp//+5wHoooKIIBdd8dKTAITaKddB**h{u*zz*B*,>>z6Q1I>y>$%%,Q6>>*hFz**|*FfDhF*{QAPAQmQ)B1m86ym1AOnKXVZEl4v7U7]77vUxxJJpp",
"eeeM^ppppJxJpJpp^+@_WWCCKkyXddnOAKKQCdaOOzBz{{{*}m{B*$DPzz6*(66h**(,16>f*hzFzFzhF**FDzh6AuTsmfdyA1a61$m}skOCV_E[4v<7<777vjxxJJpG",
"9eMM+bppJJJJJp3'-rw;#WKaaKKdOkTdkTBOOTnT,>z,*{zPP066***z{6{${zz6z>(6>*6***zzg*DD,fh*F>Ps>PF$>sBym(61(m8)Aa8CCWLZEl777777UUxxxJpb",
"eeMbbppp3'JJYJG^-2!;WiCakIn8kKaka:Kak)kdyT6{{*,66*{>%{z{*>z{6*{P*{,6P6{>z{***h*zFfDFf{ynP>sz$zyQy1%8%81y1QkkOC!!rEJ777]&7vjjJpJp",
"SMMMGbpp'JYYJ3[^-5_HCWICanIaCCIN8KKnOITA$>666>P6666>>*h*F*{{{*>{z%*6>{>B{$*,*f*D*{z{FBP%{,sy>s%,(P%Q81n1n(ysOOWHw@E[&<<77jjxJJpb",
"MMMbppJJYJJlpG+E@VVCXCXAakaa:aIXKakKOykd,,%*61(666>$hzz>hz>*{>Dz{6,{>%>{z*{{F{,$*{}>>BPKh6P%ss*,m16%{z%dAm6$n8CVVwrE[&<v7UUjxJpb",
"SMbbpppJ3lYJ3^Ew_!WCCXOkOIXXIXKXKIan}ATkd,(>$,>6%6z>h{*{B$**h{z*$6z%%hs{*{{D*>f,{>F%zs,zQ>,sAszy%>(B,>z$1y,|mT)C!HLE[&v7UvjxJJGG",
"eMbbJp3xx'xYY+@_!WoCOKkaIkTXKK8WKaaXnAA8AP88*1,$6>%>6{F***F*,{zszns>%>A*{z{>z{,{*6,(>Q%%s$%BsPzudP(%B6z,%>(>myIkNW!Z^<<7vvjx'JGb",
"SMbbppJ'xxJJGEw!VCCXITIOOOXaXN:kkXk}ncdk>1,6>%((P6%>*Fzf{f{{*{{{m%QAmm6%$f*{s,z$z6*$,,msm,,sPmA,*sz>},%%(1%%(1=C=C_Z[&v7Ujxxx'b^",
"SMbbpppJxJYY^r_VCXCXa}AnaAkICK::aakIanycz61%6>>66**>6>*fz{{f%fD{,>>6n>,%*>,z}>>f%$>,6%=(6>fAn{%uhz>%1((1:(%,(=8:WV!@[v<<UUxxJJbM",
"SMbbppJJ'xJJ^Z!#oXKdAKBkkXKaKiaa:a:yaInm(P>(*$(>>>{{z{>*>*z{z>%%>((n,(66(6(>P>P{>6>6>,%A>y$zfsdyDFzQ161:,(1((ioWHH!Z^v<7vvjYJpGM",
"MMMbppJxYxxlEZVCXakXdkkyakKkakaand8TkK888(1%%>%(>%>%%z{zzz{zz>%({z%%*6%*%%81$>f$,%>1%>,(%66B${*s{z6((6(6(118i:ioXWVr[vUUvvjxJpGM",
"SMbppJJJJxYxE5!W=aAkkTndyTnOkAoIckka(aaAA>18>>6,%*{>%6>zzz6>>%66z>z%6,%68186(>>{,6%,>>A,(6>>P6%{%s6Q(i((%(c()cAHNHH@GvUUv44xJJpM",
"MMbpJpJxYxJYELVXKTKnBd8kkkdTaak:Kaaaac,m8z1m>(66>6%*zz*Pzz{{6*P6{>P666((>,>6%s%,%*6>}>P{(,m%6{Bzz(m1(((661>{%mcC1q_5^4v7U4YxJpbM",
"9~bbpJJJYYxJELVWTITkdnfdsmAnanKKa:cyAzAys{>(,66,%{,*z{{>z*,{6>{6>*66%>6{6>6z6P6}%(%(,(,,(I61,%6P>66>>%6((,*$,==k:WW_E4U7vv4xJpGM",
"SMbbJpJxxYjJ+@VWdnOTTkdBdnyykykKaa))dBzdzh,z*%*zzzP**{z>,*P*u{zz{z>666666>6%>,}%>>((%,%8%%1m($%>8(,>>6%u%P*6,$,naWVwE47]vj4xJJbM",
"SbbbpJJJJYj3^w#XayBndyhhBnAnda%cnay%Ads{fh*D,**z*{$>*{z>z{*{>z*zFz*{**>%z>*>6{*>c(6%(%1>c8%,,(%>>(66>Pz%>P,$,%dkoNHLZ[U]v4YxxpbM",
"SMbbJJJxJYj3EL!XndnfmydmfAAsO8}8c)A}andB{fD*,Dfz*z{F*{{F***z*0D0{Df%{PzPPzP>>>(6P>6}>c6$(>i(%%1>%%*P0>{%{%,0BBOAcWVVE[v7Uv4YJJbM",
"SMbbpJJJxxjJEwVXTddyhfDhyddm,amkByd$dnydhBD,*,{00*{D,D$F0gDhFF{*gg*0D*6{zg$$s>61P>6%>$%6%(1>(1>,{z6{z,zzf{*BmOT#:oH!E4U7v4YxJpGM",
"M~bbbJJJYYxGr_VWa}yymyymyyAmy$,B$fs,}By,d$d$*F$fzzf*zDfD*{*F0{DF*0DhDgD|Fz{BD{d>%(,>6a(K111((%u*F*0F0{{{$0z}ycc:CHV!Z377UUjxJpGM",
"~~-bpJJJJxj3@!WaIdm%f%sd8AAyB,B6z>{,sdAdThfThhzhh${*,fBfDB*hFh**fgf|DPDf*fDPBz}11(dAOmKmyyA}1%%%*Fz**fF${)*,TkKCaWoLrxj]vvvt'p^M",
"S--'pp'xJJxpr!q)I(%%%zs>A>(%Qz6{6zzf%,%mydBdyhBzF,hTf{Bhhh*DDDDBDhF|DTh*fB|yyBuyyd**F*BTdAnsc,z*,{{Fzz{$0DdyakONXWHLrYx7jjxY'/GM",
"~~-'p''JYYx3Z_qc(%>*>%%(%(>%6>%%{,*zzmnnhmhdhAdy$hBB}msDf$DDffDDf*hfDm|yDAsmmIn}sds*hdmyy,acA$,h{FB{f*zhB|fnaaHIHHH!r37U4vtR3pGM",
"S-~-bb'YYjx3r!W)a6%{>>{s6z(,6{>6z,zs|%DmdTOByBd|ATmdfnnf|DfDDD*ffhfDhhByOdydmak)yfhhhhm$KdaA6$gf{{{ff*FDzAdOK=KKKHHLEJU]jjxY//GG",
"2-~/pJJ'3xx3ZVqc1,{6z{zz%%>>>{6D{{zDz,shBBhKfydyBnTnymdfDfhDDhh*DDffhAOB}nTnaddABA$yBDnn$Bnky%fffh{,F{DB$TPnTIXWKWHLrYUUU4Y'3/Gb",
"S~-b'bJJlxx3Z!#Oay>>{h{s>%{6{{z{*FFzz|smydddnfhdAdBDmAmTDdhfDDDfh||hDsshD}fhnAyAmnyTd,BnOdA)A$,*$BDDfBDfQnKnOkICXHVLEYUvUjxJ3/G-",
"9-~/-p/J[YJGZ!WKA>{{*zs6>6{%{%0{{{hhhhdmyhTdnfdyddnyndnf$h*hDDDhDhDmBfyAfdBAyAAsdmTByandAsyA11%fdPs}hTh*aAaanXCKKXVVElxvv4YY'GM+",
"~~~M-p'pJYJpr!WanA{h{{zh{*{*6*z{*DFzzD|hd{hDBBfDdymmABByDdDf**DffBhQhBfsTTTnnmydyyddBQKyndOf,TKsAOBABynBdPdcKnOaXKWVZ[vvUvR'/-MM",
"9~~--p/p3JJGr_W:d${{{{zz{>{*z%{gzfFzz|BB,dmBhBBmy|ddyDB|ffffhfDhQ|BDdsBByAdsyddsfBBnBOm)$n%nmm,nOBmnOdAOkamACCaXKCVVLEljjttt/^+-",
"9-~--/'3333^Z_WNaA{*z{FP{%f{*{{{zzhzF|dfD||hDyhfssdynnBhhDBffBDBhmsdTfdyAnBATksadB)nkaKannk$ddy$yddAynO}BkT)daaXCWWVZ[l4jt'tpb+M",
"~~~--pJp3Ypbr_qCa}>>{{*z{>{{*f,*f*{z*zBhDDDhBDD|BshhhTBfhfDffBDhyhdy*AfBdnAAPyydOAnyAdnKm}ynyTKA8AdnA=OOICkKTXCkWC#V_ElU<jt'Gpb+",
"9~~G-G/JGlG^5!VNa,P,**,{{Df{F{{**{*hzh*DfhD|f**Dfs|dDhdDhfhhBDyBmddQnAddByOTAATdBnABnancknKa8dkA1ydnknmKnOTKKIXXKC##LEl4vj/'GM-e",
"S~--/GpG33p^@!WcN1,{>*z{%{{{{$*z{*zDhBfDDfDDdhfDh|BdhDhBBdDsDfQyAyBydBnynyBmnnnddAnakaKkncymkyaAnKd)TAaOTAaKXIKaOCV!LE4<UvR/G^-e",
"2~---GGG3[^MwVqc:a1z,{,*6{fz{z{$>zg>{zhhBB|d*Dh|DBh|yBhmmyyBddBnnmQndnnAATkOnAdkTTadcAankkcak$akmInanXCnOK8KaXC:K#XVL^v7<jt/pM^S",
"r~~-GGGGGpGEwV;Nc(,z{z>>{f,{{*{%{*{{zzfDhDBf|mmdhDfDfDyhyfAmmmBBmsKsyBTAAdBTdddnnAkcnaIIIAIn8cnncaan)aA8OXKCXI:X#KXVZlY<<tjR/GMe",
"9~--~pp//-GMwVWo)11>%6*{6>{%6{z{{{{{{{h{DDh|fh|fyQBfmfnBBfyymysd8yOAyydymAmTdaTK)AIIacc,cdOaak)}k):=IAaaKanCICKoKCWLZl77<vtt/GeS",
"~~~--bGb'/JE5!Ho:1:%(%,%6>%%6>{>>>{*>zsmsBh|D||BhDhQhyBBByyBydddsyBnAndBTByBAnOkIk)$kaAydT1Odc(XNcOK=kXOmOcKKiKKWWW!E4vv<v4Y'GMe",
"~~---Gp-'//M5VWW:18>%,1{{,>,{%%{>**66{z**fDD|Dy||DhhhAAQhhdBmdymyAyBddAdnmOOskAcI):nd}k}n}%Ak}kk=:iaaaKakdaIa:KCC##LZv]77v4R'/Me",
"9~M--bGp/'J+r_H=N1(1(1%%>>>,z%%{{>>{{h|DDmD|d*h|hDgffshBBmQydAAnsByasyTABmydd}$kcCnaAndTn$}ann8n:IIK8Oka$AndOIIXOC#LE77]<<jx'/MM",
"~~-~-pp///J^ew;N:1(i%%>>z,6{6z{6{*zf*zhhfyfDhh*|*B|fhdyfyBmyyddAAAmyAnyndddAycAkIIcck=8nAAAKad)nKWaOIIdKkdnkdOKXC##LE7]7]<vt'/-M",
"~~MM--p/pJp^r_H:1(c%%>6>*${%6{{{z**zzh*|fD|DDfD||D|*Df|||mhhdysAyAymdndAyByyAndcakcac}nydTdycknaankIAdBA$sI8aaCKCC#L[4]]<<vj'p-M",
"9~--bppp/3JG+w!qo%(%>6z{*f*{>>>{**zD{|DfyhmhhyfDDhfDf|hDfdyyAAdmddnnBynBdnT%ynnd1a1cK$kAmBAd8IK8KIykkK8nB$yAKOkOX##LE4].7]&t'p-M",
"2~--b-/ppx'[^5;o%=>>%*6{,%f{z{z*{zDhf*D|g|Dy|D||DDDD|DdmfDmyDyAymadA8sdAO,nTnayn:cc%nk>Onaf)kKnOATXd8ndm8dAAnKdCXOVLE4]]]<jj/p-M",
"9~--ppp'/lJl3r_HCi(%>6%*f*z{{z{>zf{D{DhhDf*dh|BfDDBhhDDDdf|BQBAyBsydATByAnyAdnnn}nnkAaAyyyfdA}IadaT8nmd8sddAdKIKXXWLZ4]]<]jt'b-~",
"99---p''''tY[+wH:11${{{>{fz{{{%fzD**DDDf|D|DDgfDDhhhBfhmhD|mhdydyBfyDdyfmhn%1A)Tkk8daKsnTyABynAAATAAmnAnBnskanIKOC#!Z4<]<<j''bbM",
"9~---pp''RtYR/_qo}8>{,%%{{,{{%{z{zD***FD*hDDDfhhD|hD|fh|hDDyhdhmddBmndmyTAdOnB%BnaddOkyA{TAdnAn}dABdmmddBndAyyKTK##!Z47]]<U''b-M",
"9~---p'''ttRl^5!oc%%%%{{{z{{>%%{{D{DFDDD*FhD|hD|DDyDDD|DdmffDsmmByBsmBfyymfBBsnky,md$AAAh,%TABTdByyBnhdydnB8KAXOOWWVZ[<]<<U''bbe",
"9~~---b'/tttl+5;oN(1,{{{{%>6%>{%*{**FD0fDhDhDDdDd*|ByDhhhDhyyByBysOfsAdBBAdAdnTdynKyAdTnndDdydBByyfByBdymydDKnOXkX)VZ47]]<Uj'p-9",
"9S~--b''Rt&RY+wqoc1$%>{>66%%%{B{*{hF*DDDDDfD|DhfhhBD||m|hhyyhyAmDyBAmydnhnhDdThmyy%BBBynBydhBfyBfmydBB|mdadKkTn=)O#VZ[v]]<U'pbM9",
"~~-M-bp''ttRlrwqW=1%$>>{>,%*%z{h{*{**hFh*D*DDhhfBBhfD|hhBhfshhs8BBmhyffTmmyhBfDyndABAnfndnmnBfhmyKAIkAATTdnOKmOOOC#LZl7]7<j''bM9",
"999MM-''/tt4JL_;No1((,>>>%{{{f*F{*D{DF**DfhDD|hhhDffhhhy|D|Bmmd|mB|BddBA|Bfd|smDTmysfmmdydymmDhfnmnmmdAcyndnIakO#OV#L[v]]7jJJb-M",
"29~---''/&t&[Z!qCc11(,>6>>{z>**{DDF*****DDfhDDBTBdmhd|fDn|yhy|hd|d|mmdfABDyhDhBgBDD|DBBOyQdDynydAAnn8kAkBmnsnkOTKOO!L[<<7Ujxpb-e",
"2~9~-//'RR4R^@_qN:(((866*{{**F{*D*{DDDD*D*Df|hhffdnBhDh|hmBAfBf|DhhhyBnyDBBDBDDhhfD*Dyhmh|fmyyysmmA8mdkdyTkkaAkaOX#VL[&]7Uj''-MS",
"229---/''x&&^Z!q=:a1(1%>6zz*{***{**D*DFfDD*hhfBfmDD|DDfhddfm|fhDDm|dhByBsyhDhDDDDDDD{f|ymy*hDmyBymmmsAAnnsdnAKkKXOC#L[4]7UjxJb-e",
"222~---G'xtR^_VqoN:ii(>>*,*{****D{FD*D,Ffhh|BDnBBndDBDfDyBhDhfhhh|DDBsmsf|B*fDDg|FDDDhfsDmyDmm||sAsAmnQkyndAAnkanCW_Z[4<7UxJJpbM",
"22~~S-/'ptj&+Z!;o:Ni((i%{{*F**{***hD*hF*h*hDf|dhmhBfmhnDByfhDh|f|Dh|hhffhhBh*DDFDF*gDhBmhysff|myzymAsAPdmBmynAKnOO#VEl7]]7UxJGbe",
"299MeM-G'jxY^w;oq::((1(,{****{*{**D**D*Dh*Fffhmhyk8BBDDBhhyfDDD*Fh|*DhDmhD*FhF*DDDD*g*DDy||hDzD*m>z>m1AaynAAkTdXXC#!Zlv]]7Ujx3GM",
"299~M-//'xx3EwVqoNN(1((>6{**0******DF***DDDhBmmAmnm8By|8BhD|DhDDD*|DDDhDhf|D*D*DFFfDg*DD||zD*zs*smDsm%hymy8T8nAXO#VZ[vv]]7]UU''b",
"992~M-bGJxJ3EwHooNN1i(>>{{{**F**0D**h**D*D|z|shhnmAm8Tnhfffhf*FDDBD|hmf|fDDF**FDDF***h|f*z{By{fDzmsy{syykT|IaAOOW#LE[<]]]]77jx'G",
"29MS~MbpJJxJEwVHoo:(11%66{*****{*D*Fh*DDFD*DhsAsTmyBfBDffD|DDDDDDDf*D|**|DhFDFDDDFD*DDDF*zzzFz{zzD*B>s|ymAOKKIC##LL[&v]]]].]7Ujb",
"22SeebMp3xJJEw!q=N:1((%%{{{***F*FD*DfFDF*DzzmB8|I8AB8hBhDfhDhfFDDD|*DgDD*DfD|DFDDD|*F|*zF*FzFz{*Fz*P>sssmmAIIOX!LE[&v]].].]]]Ujp",
"99MSMbMppYYJG@Z;;)N1(%%>6{{{{F*{D*FDDDDDzhfffhTyTfABTydBhTBDhfBh*BhhDfDD|g|hDhD|hDFDDDB|D**Dz|**zDmBm%TydyAIIXWVZ[&<].......]UU3",
"9SSb~bMGGpxx[^@_;==N1%(>>f{{{{*DDD*DDhD{{B>%AyyhAkdAm|nffdddfDDffh*h**DfDDhhhhDffffhD*D*D{*D***zDzsQzsAy88IaX##Z[&&<]]......]7Ux",
"S9MM~b-G'''x'[E@w;=}1($,$h{ffff{fDh{DhfhdyyTAfnBddTyddnAdTBfBfBdhffhDh*fdfhDhDfhf|fBhfDhDD{zhDfmy,%s(11nTBKIIW!Zlv77]........]vx",
"S2SeeMGb/pJ'jtR+@w;qq})$$$$,{,hffffhBBfdTnknATdnThAnOkTnOTOdTfBffBDhdBfffhfhBBfdBBdBBBBfBhdfdBd%A$naKdndnIaOX!L^lvv7]]......]]Ux",
"2SSMSM-M--'pxY4[EZ_;;W==}}}}$)$$$d,TnOTOKOXKXOOTXnTXCTXOCOCOXOOOOTOOOOOOOOOOOOWCOOOOCOOXKnCnTKX}CCC=cXXOXCC##VEElvv77].......]vx",
"99S9reM-//pJY44l[^E@L_L_LV!##==))=CCCCW##V####VC#CWXC##VVLVVVLVVV#######!#LV!VV#VVV#####=##W##V!!_V!V_V!V!!LLZEYYvv7<]]....]]7&Y",
"2299Me~MbbpJJJxjl[[^E@@@@@ZZLLLL!!!!!!LL_ZLLLLLLLLL!LLLLZEE[EZZZZZZZZLZZZELEZZZZZLEZZZZZLLLLLZZ@@EEEZZZZEZEEEE[lYY4vv<]]]].]]7tp",
"22252~e~MbppJJxYYYl[^[[[&[[[[[[E[ZEEZEEZEll4lll[EElZEEE[ll[4ll[[E[Z[l4[4E44[[4[4[l444l[l[^E^[[llllllll[[lYll4xRtJxxvv<<]<]77UUYG",
"52222SeeMMbpppJJJllllR[R&R[[[[[[[[&[&&vv44l444444[4[[[[l4v4444l4l4l[[[[llll4l[[4l444444v&&l&&&<<&<&&4444vv4Y&&YYRxYY4&&<v7UjxJp^",
"25229S9eSMbbbbpJJJJ'''tR[&&&[[&[&4444444v47vvv447444l4l]vv444444444l44l444444444474U7UU]<4&&&&<vvv<7vUUvvUj4jjvxxJYYxxjxxxxxpJpe",
"2555299M9SMbbbbbGJ3Jp/''RRRR&[[&&4&4vv77v777777747477474v7vvvv444444444444447447v7777UUUU7vv<vv<<77Uvv7UU<Uvvx4xxxJ3J3JllpppbebS",
"5222552229SSSMMMb-/Gpp''RRlR[&l&&&&&<<&]&]47777777747777<vv7v444v44444jjYj444444UUU]UUUU<v<<<<<<7]777777<Uvvxv4xjJJJpJJppGpbbb~r",
"5252222299SS9eMbM--M-pbpp/3Rl[R&&&&&<&<&]7]777]7777777<<v<<&v44444lY4Y4xYx44444vUUUUU7]U<<<<<<<<<7777v7U<UvvxxYYxxJJppbpGMbbMe95",
"_52255552222999Sr~+~MMMbbGp//[//&&&&<&<]&7&77&77vv&v&v&<&&&&4444llY3JY3Y33xY44444UUUUUU7vv<&&&vv7<<7vv&v<t<j&4xxJJpppbbMMMEMe925"};
