/* XPM */
static char *tree[] = {
/* width height ncolors chars_per_pixel */
"128 128 91 1",
/* colors */
"  c None",
". c #4E561E",
"X c #AE9D44",
"o c #E2DFC3",
"O c #D8D3A2",
"+ c #CCC489",
"@ c #7F8965",
"# c #CCB65E",
"$ c #2A4622",
"% c #AFB59E",
"& c #847B2B",
"* c #988B59",
"= c #22361D",
"- c #989548",
"; c #5E7130",
": c #060412",
"> c #928D42",
", c #A29D55",
"< c #F2F2E9",
"1 c #AAA26A",
"2 c #958627",
"3 c #B7A64F",
"4 c #313C1E",
"5 c #7B8260",
"6 c #E1E2D8",
"7 c #989858",
"8 c #A69948",
"9 c #677635",
"0 c #787328",
"q c #D8D8CF",
"w c #A9A458",
"e c #67684C",
"r c #49662B",
"t c #B8B577",
"y c #E6E8E3",
"u c #697651",
"i c #D0CE9F",
"p c #D3BF6D",
"a c #C8B976",
"s c #121416",
"d c #888837",
"f c #BDB061",
"g c #464921",
"h c #ECEBE5",
"j c #9E9974",
"k c #4B5929",
"l c #BBC28D",
"z c #85884E",
"x c #CFCDC5",
"c c #0C1216",
"v c #4E4E39",
"b c #83832E",
"n c #9C922C",
"m c #585832",
"M c #A9AD88",
"N c #C4BA9F",
"B c #C4C395",
"V c #ACB37A",
"C c #B8B893",
"Z c #C3A955",
"A c #666A35",
"S c #7A8438",
"D c #8A9476",
"F c #161A18",
"G c #586827",
"H c #90955E",
"J c #9A9E75",
"K c #C9C8AD",
"L c #3C3F29",
"P c #B9C0B4",
"I c #767947",
"U c #61692F",
"Y c #7A7041",
"T c #2F2C29",
"R c #98A386",
"E c #DDD6A2",
"W c #B4AA87",
"Q c #0A0C15",
"! c #A59639",
"~ c #8B9247",
"^ c #A7A67D",
"/ c #3B482A",
"( c #1A261A",
") c #989339",
"_ c #B6A867",
"` c #60614E",
"' c #26291F",
"] c #767A35",
"[ c #3A5525",
"{ c #7B795B",
"} c #6C762B",
/* pixels */
"                                                            h      qM<y                                                         ",
"                                                           <Oh< hhEEO< h                                                        ",
"                                                      666  <oBEhoOEB<NMN6                                                       ",
"                                                   <<l6Bl+BoO+BooEEoKPPPM6o<<<                                                  ",
"                                                  OEtCKl<6Eh6oO6EE+oK < %llM%<NK6                                               ",
"                                                  O+llN6 K6<MlJ%EhEooPoxl@PPllDCh                                               ",
"                                                  ooohh6o<lMlMtVlOBKooO6KKM%MVK@q                                               ",
"                                                   <o<oNK<PRllMHJJalJ+otENN%MH@CRh                                              ",
"                                                  oy<yEJ+tlVC+JtVJVK<llaEOKlRD@P6Rx                                             ",
"                                                  hP<<l^B+VlV+WBllllEVtta++Ml@vDRPuP6                                           ",
"                                                  h< <JNNla+aJValBlVt1VVl+llRPR@RDD@yy                                          ",
"                                              <ooh+o<ooJ^t+aVJttVJDJoataVV+OD@D@RP x <<                                         ",
"                                             h+olC+a++at^CtC^CaBOlllJJVHJH5lMRRDM%DP<qy                                         ",
"                                             6o+BM+a+fta1C1lHttCBVa1JH~,VH9VloPD%6xxoNh                                         ",
"                                           o  hE+la++VatV@^VJMDMBttJt,`5JlJ@JolJOooE+o                                          ",
"                                         <hKo<6BllEplVV+1H+H1tE+faH,JHlxN65@HaoE++laaVVo                                        ",
"                                        <oEBta6taVaaoVJ1^Hl^H1faJ,HJ1JlCJ^lOaH~++aVlJJaK<                                       ",
"                                       <EhEE++#paJafB1Ett7C117t+VlCCfz~5zHlVMJ^5ltMlKoKOxyx<                                    ",
"                                       <6oa++pw1wVwfp+++V7V*IwtVVaCV-vHHz,1afallBKKM< K6 6 <                                    ",
"                                       o+apafafa1aV_wat+^1fm71J1twHJH`@Hf#+aa+C,wOl1RBCV %Rh                                    ",
"                                       Kapppp+VVpw##zf1f_zte7H%_1-Iz995VtaaattC17,w+lV1Viq%<                                    ",
"                                     < CMat+pf+#fa-ww1ttwU7z{wHH,wV17J~V###^JwH^~1Vo6oat++o  hB                                 ",
"                                    PC+CNEaO+af1t7,~#~HwwUz,,,~~J,~IH77H_@VJHVa,,,taOoof%H+C6BK6                                ",
"                                     %J+EppppfCRt1X~~*J7wz,>t-1X,zIIDRVIHH@J#ftV1fta+iifC <  K6<q                               ",
"                                  %W=/H1++ap3_V^Bw7;`,~5IHf9Izz1wII1P5q,^jw#C_1+,#aaafaENxRhqh<hKo                              ",
"                                  CWJRRBppaf1tHwVaMNJJHw@^~*-zwoJ5CWOW7w*z7w1_w_1Vfaaaf+a6  h66hh                               ",
"                                  ya+++E+p+1JK1at1aHJ%DuMMH~IH5Rx@ 6EEwXz*It_XH,fw~wffaju PxKqx`                                ",
"                                 J{^pp#pppp#tapfXw~KJ%hq{J+15%I1HH6x6la3~Atap~^%q*z7MwaC qq<< %<                                ",
"                                xVapa##ppapp-,w7~-,w,IlMC8w5~IRI@MRCEB11z8wpw~71,1Ct{Hw1ox   x6                                 ",
"                                qw_ppp_Hfaf37-3~~,9>~z9>zCHH9H59U5rzw,)]--7%f]oJ,f{zYHfttp+Coh<                                 ",
"                                 +_,7VK%1Ct31-w1^wf,,X-9SSwH=I%Juz-w#3Y,w99-!16^jC<]qD*7f+a+++Chxy                              ",
"                                 61SH`R<@H1^wZ_838,H311w]Swv=PH5M~_w->]N&U^A>,3p7718-wwwJf1VV+1K%q                              ",
"                                   tWZ8#zuz1t>]w7-I97w#f,JJwIwSKIt,S~SUI7d73w#~~S;S-ww,H~7+JVaVx6xh                             ",
"                                   hK^+_HK_tV,X8_1YH]~-3-J,X~zI3DzI;9A;Ad>-X3d-fd;S~Iz>Ia1H@^CV6 %x                             ",
"                                   6 PR3f#pa##pfzwf8-~-]~~~,Hz-SH;5rrU9A99>dz]>8H7fwfpf-#+CMllMq   R                            ",
"                                      qxK8p#appwX*-X-W1IIr%Iz-Hdw~zIz5KAA K^x)~--]wdd>3-X,X,w7Rq< D%                            ",
"                                       6<K1NWw8,-H~dw>d]r/Hj*S9->}IrIo q%N,>SS;)X~~Xw]]-~9~>wz`P%Pu%                            ",
"                                      hPffat81>,*I~DzIIYv@H8-->-Sd9$$]]M*wS;dIrbI}dSd]d)~KD>~HHD%{vv                            ",
"                                      Pe%NH>IKx8]U9u6]II9]d>3X>SA;;/k[`r9;;;9d;]99[r0^j   DS99MR`Dv{                            ",
"                                  +oNCD@uRKP1*K^599zdd&dI9U>-/>9`]k[[/rIIb;AGrdUASrAq^eK M-]IGI%RD=  PD                         ",
"                               qN+f3fI*Cq@xP%6P%<5Av{7&CqI4II'I]SS;;rU@`;8eW,*UI1-)1oYN <6%AdA]IH%`DxDP                         ",
"                              C3ppppHjJYRJ%PPP`%%L4sFT%RI]rA5=);r;[;S-3]>)73WN1_bzz^ q  6&RI-t787+++a_%x                        ",
"                   Kt<        %zp^33##1##f3XX1a5tvgFF`vL5,A};/38ddk`d)-!*g*m*>w]S8-1q9*o6Dj*1WKot*fa_#fx                        ",
"                    MCq       << DCt##pp3w>)83zP1m{TF_t{*>Yk/$S9d]9[`r[dYm]f3#p#bS)]S9kzNh6R1fj>,qDh@Ivy                        ",
"                     DMK      PKajZ,aZp3#)fZp3#p&]8]A1)w-1RLDm]]r;;r99XSr;df#f8))-&}5I^Ho hzHHdIz6y P@D                         ",
"                    RKP,o<    %eWx^8,f##fX)X#pX-fz--]3-}{Grg9veg$[r`rr9[r]!nb}r9)SdH@9S9r% yKqID                                ",
"                   6 5KHMiCN+N%1pf_tZ#_3_3ZX-3#wddzd])w~5;79k99VA]rr;;d/k;;}};rbdG%5u[J~0Aq   P 6                               ",
"                   %hHH76C,~a)9w>~*__f*f-Z3!#3,~)HMMI8]zqyKY[vDr9->b]rg;G9]r[r}}-]IK %%2)S*    h%q                              ",
"                    xP@rrN%yU[rrr;;9-Xh6]Z8>33,8-8)w#!-XtN1D(/Tgze/$k==[9>S>SI;[;r[[^MUIxH- h ^H*xh                             ",
"                   K% yR   %;[9]rrIdI* 6^17H tMd9S,a>3&~ISUYv'FgA~`$`($k/;S99}5UPR%@[IK6%M1qKoHIq                               ",
"                    D%      D@HoRzI76x  h    x8XS-,wS})8)]S)m.=eU`Ue4=/k;%``;I yy   DRHr0GtJxq%<h                               ",
"                             %AtqjMH>w__aE%  yfZ8)->))dz,`;999Gd0*A4/b8Ikuq Dx      PPPHm]}Jk]Kx                                ",
"                            hI%vNW<R73)!###3idS05;>]~-Sm>U;]~I}U}L=}.0b//%              `Igr/k%%                                ",
"                            5;*xPKP)!U)X83ZX)XzxHd8I!)}]g;9>Xm$U&{`b'./U[R%               6%U;7                                 ",
"                             hRiahq,J&gz03XdI&)3w0}!]3)}ddz)wU(.z4v3kXI*H6               qB<KMh <                               ",
"                              6R,N   !2)W3->8d)3)*m-)d8bbb)b4/csFXm>m&>zH                q     x                                ",
"                             q!K CPi+_3ap*YjwI0)dmGI>]mH;}bGYm(=(..1bA]~m%<@y <                                                 ",
"                             KPK%z_p#p+3XtDH}!&z7z9]ddw.'zz4G{cFvv(U;.gbU`$k]b0)i                                               ",
"                              D)~d*>!S3-Kxo%t1mvY'>mUm'ee'cQcsvscvvg4=4GHy`G]gn;Ki     h                                        ",
"                              M%Kb@H%`TmZj)f__*`Fs'F*g0'4;AsTcFcQFs4Gmk]q%e C]}0;S;r;JMAz^qI%<                                  ",
"                               yP$F`Dh WC%W3Z#3AY'ssYL'vTL`s'5scFcc4G[;M`u19;kr[;`}SG;b99d~zK9]x                                ",
"                               iKH)4=)X8Y{gY3)-;*YdmsL.{A'T8!I4s'$U(%KH@gvjK%5K%k`vr}S}d!d-+-;;zh                               ",
"                              qd88Ifu4!>gs`vI!90db8b4^Fumm]Z3#3'!((]VYg[G)ah<>J9.y`D%z7z-&*zHq@P9h                              ",
"                            qIbS-3w3&TL>YZ*`emI)!!!b-#ZnZm{0Xg!sgs'U8UU]9XZ<qYKvUH@uRI]3!2J6    K<Ny                            ",
"                          x5;IvdG}S)3pw&)3ZtXX!)3#!n0zb0};k>*sLccF'{8CH8#Z)_)!8!0Hz9NmmN)0>mw%h  J9>Kh                          ",
"                    qhK  Pu9]9AIK{[[zZp]zS8>>##3-33bUU-d)0{;!*m'LTj3b)bn!20{)f87>]IXw_@MI7kH1zd@K}k{IKh                         ",
"                    ^~~9r[/kjYUkre//r]ddz))83XZXZ-d9->SS]V-}8Z0m{sm>>&&I0wz&dYmge>_d,de45m`'eM1j94r%h                           ",
"                     ~I;rr;9z[/k]k[md73,d}}IX)&n3nd!SU)]b8-rb!>S{45L0vgXn!!aw0X0!e.0w>;rGUR'/GIm]ArSM                           ",
"                 qKh '$$=Jvvm(L4=g'4Y@>)9]])3#Z)z,9;;U;]m]}k$9G;m=4=~`QggInZZ2)!Z!gA]&00=GkG[4I7bIU/r9D                         ",
"                 _pa30(FcvFcYv]ZbG==IHt,KMU7~83X!b8;Idmkm4//$$[[9;4F0)mTQQ.0)2!!X_Xn0&db)&0;[k;]h {9PPP                         ",
"                 LmZ>>'>8emvww!04AI1>IUMdbt]d>S]!)Y3X_'FT*0mg('[GkGvXX#)Z04F'2)Y..bzH0m.'F=G$(=/H   y                           ",
"                 x/&II3TT>*pZ8b0r0b>0d!&Y)d]d]MI)003!)p#&g/v'{Qc(===.=mu&2'(F.mv,0)>IGYe)UzGgQFkz]}                             ",
"                 Kw#3&3Z#pw]#))gkGU&G&&&!8!nd7z7^GUvFvgY^#Deg'=4(gcsFc(4Fs:Qcs((mv'mb.d;b}YSG/cckS>C                            ",
"                 R/o^t&#Z!Ge33SGrk[kG.{'4Um4s`K^yDDvFs5TF4QT((=GkF('`v$k.4:::v((4/sF/r[;Ib)X}bS09;dd)q                          ",
"                 DF`5Y!!2mmb&rrkk0_44F4=:Lv ` %x yuFsGmd/0gQFc(=./QQQF[mg.4vYQQT`@9AU.$}r;r};]kG[9IrSSM                         ",
"                  `ccs'mFmbSUk}0&}I``vQ:vqx `%@  xsQ:4=kgL:QQQ4('s(cg202G.dbG4v%5KhyRRUHU$$kUkePP=/kk[[@                        ",
"                  DFsQe`w3Ukm[v'gvWhKoxL<<h%T:vx Ts::v:QLTQsQcTc(c=.&)>g20G.UUM {Hq  PohK%(4]>4PP yGb9=F`                       ",
"                 hPPvg,>YA'4/>(FPhxKK-Nhh  vD:v  `vsTT::::::Tss`c(FF'emv]Lcgg(q 6     yH1%RCh5y    Rr%x^H                       ",
"                  i,wd_ZsQQ'QcQTRoP h<<< 6vQ:Tvxqs`4mFvQQT:::QF4(vLTvPRL'4'sL4^        Kxy             yh                       ",
"                 Rx1Xt*DvDILvY`KNP       6RF:QTsvTQF:'LQ:T:::QccmmmD%j{v'DK`44.zaK                                              ",
"                 hP6N%Z#papafa_tNh    %xqvT@`::TQ:Qssgk(`JyQ:QQQQc4T%RYm<  oAm0G0G                                              ",
"                  q   6jXN_a1>*WP      yxsPRv::v:::L0m40v4`B5QQccQTR`sQvu@.HM=Pq4G0K                                            ",
"                       6PPqx^K<       %%`vR@T:::::Q'Fv9(/L0gv:QQQ::::::R  yqP%                                                  ",
"                         6hh6        hR4{#XZ{`gdU&zww]I{{.'T:QcQQ:Q:Q'>%  q4          K  u/^y                                   ",
"                                      PQUn))ppZ333w>>J-b`]mA-mcQQ:`vT.*N           oiR5Uh9zM                                    ",
"                                   K1Z#&&)`2XZ3Gbbz;bb}zI0k;&UF(Qssv:%        y RzMB0UUgIC                                      ",
"                                  Xp#XX)GtvYGGk/[}db0;GG]0G.'4[k$'Q:T        a0G.G&=/4Gb3>Cq                                    ",
"                                 6t8f5A>TQ'm.kU4.))0;SrG([r[]'T($vLT`       %;0;;U>D`{9}}}bKh +<                                ",
"                                  qqxyD`$I~-;[/kG}bbrk.gG;rG[k[=4csT`   h   @vvu`$;>dm`(v=G2tz!@y                               ",
"                                       `[$kG[G$$gkGG;r[0Sk[$/v[IkA=4RD <h%{uKRT`{kr.GU)X)&Kk;d8Swo                              ",
"                                       R/=[[==$$mG0}G!b.4[$[[=;==gI*[[/6x<Kx%kGr5D%IHbd}0Cyxx<CY/J                              ",
"                                        @$[$[G===U[(c=====/==$$(4Qc$=Drh%y  uk='U$r5@H}}G`y]M%@zvku                             ",
"                                    xD%M.Ur[[Umm}4$([=[=/'`===$$k[$$`R D@Kh@JC$gUyRyqP x%cT-82vk@@P                             ",
"                                   <]]9d.[G'd0db`(====$==[=T(=ck=$$[(%Py  {;   x%GuhPx   {U&LA.F%                               ",
"                                  ySb)}g}bbr00Gbm4cF(=$$=[/=(=c((F(==R(vxy P     R=RP@@y kr~8>_e`                               ",
"                              6C*oPqP0Tvm44}v/(4'G./G;GGGr$F=k(QFm4dYmUgF%       x%   @5U/9rb/P                                 ",
"                              yz7,Kh0mFTQTmU7c::sgg-mD44.9G(===(FH>vmm@)~X~H           %kD};rS1K                                ",
"                               >*+)dmY!ZZ3)0bgF=.=bd{qqx D=}g/==480^AsD DKuy            x   hx[H                                ",
"                              CK]tv8t3###))G==F4G0b7>MRIUgKRzmcc'9U8fLN                        yx                               ",
"                               tBCi^#I]!)X!$.Um3-'4gMhC-MK%GKgQc(g$/>Zt,+                                                       ",
"                              hCI h5^{&,0z&m}372g]30!h     `x'Qcs94s/H/,-%                                                      ",
"                                +W<hqPG02b0I'40s(m&00W     yhcQc'.C%H  z~>y                                                     ",
"                               PHH)K qxD9bbXX>%0YXG>b)      <F:c}mAdA Hq  q                                                     ",
"                                  x     qk0&b3q<,b!,5%M      cQ(k`Dd& y                                                         ",
"                                       8X))HC0   q]C         cc=I%6K]                                                           ",
"                                      KyI^<  y     <         TQFI%hx@                                                           ",
"                                                  C2^        `cc% yKq                                                           ",
"                                                  <          `Qcv x                                                             ",
"                                                             Rcc/                                                               ",
"                                                             RccD                                                               ",
"                                                             %ccP                                                               ",
"                                                              ccR                                                               ",
"                                                              cc`                                                               ",
"                                                              Fc`                                                               ",
"                                                              `F`                                                               ",
"                                                              /F{                                                               ",
"                                                              vc`                                                               ",
"                                                              `c`                                                               ",
"                                                              Fcv                                                               ",
"                                                              FcQ                                                               ",
"                                                              (cc                                                               ",
"                                                              (cv                                                               ",
"                                                              Fc`                                                               ",
"                                                              Fc`                                                               ",
"                                                              Fc`                                                               ",
"                                                              FFv                                                               ",
"                                                              (FF                                                               ",
"                                                             6FFF                                                               "
};
