/* XPM */
static char *texture1[] = {
/* columns rows colors chars-per-pixel */
"64 64 64 1",
"  c #1b0b06",
". c #2a160c",
"X c #2b1c15",
"o c #34180e",
"O c #361d16",
"+ c #280d07",
"@ c #382718",
"# c #2b2416",
"$ c #392925",
"% c #3b3426",
"& c #4a2918",
"* c #472c24",
"= c #483728",
"- c #573729",
"; c #573c36",
": c #493a35",
"> c #643e1c",
", c #4a1b15",
"< c #584738",
"1 c #4e4431",
"2 c #674d38",
"3 c #605c28",
"4 c #595248",
"5 c #5f4a46",
"6 c #655448",
"7 c #675c52",
"8 c #6e4f46",
"9 c #6a6457",
"0 c #766b55",
"q c #797065",
"w c #3c4e24",
"e c #867a6e",
"r c #907155",
"t c #958a76",
"y c #8e8a75",
"u c #b5a27e",
"i c #a59a71",
"p c #9b9787",
"a c #978c81",
"s c #9ca68e",
"d c #a69b88",
"f c #b49c8d",
"g c #a9a286",
"h c #aca693",
"j c #b5ac98",
"k c #bbb499",
"l c #b9ae8d",
"z c #b9b5a7",
"x c #acadac",
"c c #c4ba9a",
"v c #c8b18d",
"b c #c5bba7",
"n c #c3bcb6",
"m c #cac3ab",
"M c #cac8b8",
"N c #d4c5ad",
"B c #d7ccb4",
"V c #d8d3ba",
"C c #e8d8b9",
"Z c #e4da9c",
"A c #d6d5cb",
"S c #e8dcc8",
"D c #f0e9d2",
"F c #f4f4e9",
/* pixels */
".:&=<5<:::<=<0evnBDSSSVbdaivnbCFj=*47$=:78ti0eetqAbBgbhMNBvldhkh",
"*$@@$oOO@O#:%**:eMzbbMBbfhdhfbBAh=@15:#X%287=-&<qzbbMMVbgzbMmbbh",
"@$$*@.*;:;=$%$;=evvcBCAbbnABABDb0#@=****1-5<=<==ezAbAASCbbvvMhjx",
"@*$O.@=:*:*@##=$qkmvNMDbNcCbDSBmq=X@X*::=4&$O,@%ennNBSBbmBmnnvbj",
"5=***=4;**1@$ #%qvkbmcSSBNNSFDAAt@$$:@&*-=,@@$=:7AAbBvmbmMBANnbk",
"r-*;*=<=;-1%+ X.7zbjsznbSSVDFFSAa;1<*<<:;2-,-:<$9AAndpsjzSAFBjdj",
"e*&4-5;<:$*+o#  <hhdhjMAFANASSAny02;5-<,-*2-85;*5AABjdjjzAAAmjjh",
"8*@::;;5*$*@X$:.7pgsyggkSAmNVSnze-;2*,&*.,22685;qznBglbbmzBzcbzh",
"8*#XO+o1===@@&@@9jjjjkckBbkhkbbMe*O*@*,&&22r8846yASVBBBkkmzcMMBV",
"7=@.#XO@--6<=-*.<aljhcMVBmchkhhby<-82O1oy3<>*r80sDDMcBCmbbkbbkVm",
"5O*  X$.$%1<:$..4xzkkkxVVBttdhhhe<;&&&;02<2&&-8esFFSBlmcmzkjmszk",
"*.$@@=##@X@:%#O@9jghbbskBjdadkhhp2*o=@><-<488:5ehFFSBkBmzmbzbszp",
"=@*O.@$=O@#oo&X$9zmkBmkmVMmgpxjxq1. X&;2<<<@2=2raFFFBulBcbcckhhg",
":#XX@#@@o.@X#$$$7kzhcMbmMzziaspp9@$%=X*:1=,*52&8aFFFFCSSCvuccxhh",
"X#X##X#@@&=:+#%@7mBdgbASzAppqeep4%:@=$*---&&<--6eFAFDSDCDCbckAhh",
" .#@@$@%==:60@XX1gkkhmAAnzsaeeasq#@@#$OO=@$=;=@qjAADDCCCDNbjxhxp",
"149900tyfeyuht976@=97eetqaqq9q9999qe0ihkhyghjpilaq7:6evbbfvdtteq",
"<pjygdkkNNZbNNbty#.X+@*5*:*$$$X.9sshgcBSDBSCDVVVe5;;*<0e02*@$1@2",
"#phpiukVBDDcSlbi0%%o@o$=-*<;X$X 4xxnmskMVVCCCBNCu1=*<;*<;;;,1<:<",
"%phaetlmBCCCDCcl0#<2%==**:4-X#@$qszmclmVDDCZVmlBg*:$@@=<;;@*<2=2",
"@tjdahfkNSDNNjule%=*1:1<**%=*%  %asxkilVBDCZSljNt.#O&=.*-@&26<,&",
"<bftdujccBCCNcbvq=@:<7<*&+#X@.#X:phhzlbBNDDSSBNmy=@X*==<=,*511*$",
"1hbvcNNbCSSSNBZBy184-::=*O@*:%=4qzzzlmlmmDFDFVMMy-@*-2*<:@@*@$@=",
"<dfnbbNNCCCBmCFCi2>*=15<2@@#=@X=4szzMmlVhSCclkNAe=$*228*62&.@#.@",
"1fNNNABvbkcbFCDDi<262:-7;*:$=#=<qxzhgzgmtlcmjkkAe=@&:68*282$#O..",
"<hNCSVBbuuBCSCCCt22=%:;;;,=*4<==9AAMbkmkhshkyphMa=%:*82-*<8;=$$O",
"=cScSDBvjjbmBDFDy &o%*=::*<12%@#7zAAmhssptptshkcy=541<<-2<<;;%$$",
"2NSmmDSkjvcBZCFF0.#.OX$$1&*$.O*=9zzzgyqpttdpdjhmy*:<&=111-**-o#@",
"6kNBcSSbBkjSDDDDt*o.+#O$*@oX+,&@9xxlhattcuighihct<o.o=<88;-<*O.$",
"0kNbbBMklgbSSSVCto.o .$*:$o@.X+@1czkkhuphthjghuce-1o*1%;85*1%$$#",
"<dhcbNkjdhnASDCBy1X.X#@OX:#@@, *7kmlhggugytfksllt&@&@=-<O&**@@@X",
"#gNvvldappxASSVB0@@*.*<@.$O%**1%0glgytdgy0yppivc01%o.@==;-&@%$$.",
"=<79ee9q4947edtyeqeteeyy09tsyyytq949611<<<9427ry0reqtjhdaaq0eq74",
"X.@=.O O+O+*<2@3ibcbAzchiglvmmzmew@# @%@@@#%=#12tvBcnAAznddhhpaa",
"X+$:X@$$O$$<15%oekhczhcftiigBVNme11oo..X%*@==$<8iSCmhhkMhtdjhigs",
"<*=*+@$:#X-&&%&%0tudytcBhcyjmVAVy:%@# ..+$*:<47ytCBBSBbNkjhvkhhz",
"#=@oX$oOX+&*.Oo%qhgggyackNvkbNAbt2=X##...@1*,@*5tDSNBNAjdhzpdjjv",
"#@@.$%*:o @@+o$*9ghgddhdlimbmkSNa%o@#%#O$=&;;=-8eCbcNAmbvcbgiagh",
"o#.oO==1:$XXO:$-9ddiclkdhllmABMbe=oO+*@o@;::,-82eVdccmgbNSbikjmj",
"@o#o@@##@X@.X#*<eduhighgiuzkfhphyo@#oo@%Xo%7:<6<enNbcjmbcbVcAABb",
"<$X,XO**OXooo$*:qhhddetigdhshxxhq,.*@#,Ooo&*:<<-0ABmNbNgjgbkkBSm",
"#$$+X#@$$oo o$;-7hlpitetsghppahhq*@oo&#X+,**<<<<7hbbDklhlhkVkzhb",
"=&=*#:@$OoO&*%;:5pcvhatdkmhypgpze..*-:@=&@*&5:=2qABBBzhhuhgmlhyl",
"6:=@$@***:@-=*-;7kvfdghhzhzpppgh7=%=1-1=-&O@$=%60nNcMmjlvjhhkiyu",
"4=%%=**&*-*-$.<=6uvvlhkhhxzhhpdy0@.&-*<%-X#o*1:-5blcMmjjuhjjhcgj",
"7:*@#@*25<22@,*%<uvvlbzkxzhzhypd4@&1<**+o&*#O#$%6mkfjlbkklglkBzh",
"q41 .*%;222<&**$=ivvhmzmbzzphsjbe=11&&+++@=..X#$1zchbmcmckjzbzMm",
"%$@  O@:=-561<;1<yyidssajxpsshzmp42--<&@ $%@.@X#2yghjBbNmbzBbxjh",
"19996yystanjjfrt0<1270q9476q9q49eaeteeyeqe6qeq072w=<2ytt931yr0qq",
"qxzshjpAAAFSASccq%@=:-$==14%%<+*ebbzzxpddphzxdbd4  #@;<=%@@=+$7O",
"7shspxMAnAFADBbb9@*:=1X%%41#+5*=axhxAnjjxjnbjday7#.%=-<==&=;*:5X",
"4xxhznnASDFDSbvk7X=%1@1:152@.*<-qzhxMbnAMxjbVzdp7%#. ,,><=7-*4;%",
"3hfjlubBABSMAbuv9X*=15*,<**@@*O19nbzzMSmbjzAbdpd4$@#. ,@-2-2=:->",
"1pdhjhtkbBSNbdph7..@o:5:%::<+.@*4ABAMCzndhxzldhgqX.o,,&2-;*&-&-<",
"1yadgjmBNcvbjpdh7XOO*::%@@,@O.OO0MBVVVBbjznzfhdd9.X#O*<2-,;-2226",
"wyyydhbBANbjsfph7..XO=-1:$OX.+..9MmbVCBkhbhmhjdd5 .o.118-<,*0338",
"wipddjfbBNAzhdpd4X O$*$;4%X++.OX5mBSmSmblimbjhdiq@o@&*22>2,>2>2-",
"&tkdtdjzbMzhsihp7# .O#@:$XX@O.+X6bbBmAzztcjjhhhjy*2<**->*&o-2212",
"%pdtptpzhbhhhxhpq.@X..@%$  X +X.4xghzjbbphtlzjndy@o-=ooo,=*<<2--",
":ggdatddzbjfpaye7 X  +$X...  .$X4jhhhbpapphdbjzAd=o,Xo  o&,&<8<<",
"1hhzjfnvvzaysdye1. $..$  #. X XX;dpbNbhddgtkjghxq=Xoo&#.o+,@13<-",
"%jhlnbMnnhpaddey4 .X  #$+   .+X#<sccBjyislcjgfzh9:O=&11&o&O+.-&2",
"%pzhxbMkbxnhdhdh9O$XX.##  ++.XXO4hbbkhdphzjkzhsja%@=-=:@&-*1&,&=",
"%fzbMxppxdfapzxhq=:::X#$      O$7dbbzdyahnAhhshp4%#O,;1@=&$=2-1&"
};
