/* XPM */
static char *texture2[] = {
/* columns rows colors chars-per-pixel */
"128 128 72 1",
"  c #1c2a23",
". c #29352c",
"X c #2b3c33",
"o c #2f352b",
"O c #2c433a",
"+ c #344034",
"@ c #38453a",
"# c #394b45",
"$ c #364f4a",
"% c #474a3b",
"& c #554e3c",
"* c #645539",
"= c #444d43",
"- c #495448",
"; c #575847",
": c #545d54",
"> c #495956",
", c #5b635a",
"< c #586965",
"1 c #675a45",
"2 c #67604b",
"3 c #686857",
"4 c #75654e",
"5 c #776b55",
"6 c #7c7059",
"7 c #797666",
"8 c #6d736b",
"9 c #445e64",
"0 c #74807c",
"q c #7c8882",
"w c #84745d",
"e c #8c765e",
"r c #846a54",
"t c #8a7c65",
"y c #947d65",
"u c #847e74",
"i c #8b826b",
"p c #898675",
"a c #98856b",
"s c #948974",
"d c #9b8c76",
"f c #9c927b",
"g c #a58d75",
"h c #a8957a",
"j c #b4997c",
"k c #a4866b",
"l c #9a9686",
"z c #90948a",
"x c #9ca09c",
"c c #a99984",
"v c #b49e83",
"b c #bc9e83",
"n c #aca08c",
"m c #aaa397",
"M c #b4a38c",
"N c #bca68b",
"B c #bca284",
"V c #baa995",
"C c #bcb29b",
"Z c #b8b3a6",
"A c #c5aa8b",
"S c #c3ad95",
"D c #c9b498",
"F c #d4b99a",
"G c #c8b8a4",
"H c #d4bea4",
"J c #c4bfb0",
"K c #d9c4a9",
"L c #d7c8b4",
"P c #e6cdb0",
"I c #f3e8d1",
"U c #e1d4c3",
/* pixels */
"XXOOXXXXoXX#XO@#XO#OOO$#O$##$$OOO@:0ip8O$$OOOO$OOOOOOOOX+.+++++O.+XXX+XXX.XXXXXXO+++OX.XXXXX.OXXXX,8-XXXXXXXX.XXX...X.XX.Xoo@X.X",
"OOO#$==>>::,:,<,,,:,,:,:,<8<<8,,:80s00p3:::>==#--$;:-$->$$$$@@$O#$#O#$O@OOOOOO##@+O+OO@OOX.#XXXXO>888;@@O+@XOX+O@#@X@@@@=@#====#",
"XOO$:=@>->-:=;=,::::<8838738838u63706:3,;3,,3,<8338<368833838833,3<3873<8833888<<88<3<883,<<,>,,88783383,,,,,,,,,,,:>:>>>-;>->#O",
"OX@8mJz7:,<:,<833888z7878<877uz8,3%200l0p03070888833<,,<08,23,-83,,,,,,>,$,,:3:,,,,,,:---:::-,33,,33:--:,;:,,,,,3,83383888838<>X",
"<3slcmllllmxmmmmGmVSmVGJCCCSJCx;--,0JFLLKKDDPVDCKKLLKDKGDCCnVCCKfnCZGGCmGCZVJZxmCZlllzlmmzxlzx0:=-,8pxlzl0nlllzxxzpzulzzzcxusuu8",
":,sccllulvcSccGHHSSHSHbGM3-37:;%-;:8fDDSDDFFZHHKKCMKGPKKPKCLLUKFLLHLKLnKKSLScHGSDCGVmLCNVscSs&=+++OlV5lhVnCMGVVVmGGVVcVmmMnSGcuu",
"qslluyscCcvcVSVDcMgclcMASt;3-%8=#%#7Vc4nfMghhndMlhMst6lsn0isis207;fNcawdVCMChsasVSCDnfidMKMhfs@@+@+laKSnDcDhjNccdvallheySMMyccuw",
"ulVulzcyytacttdauycuySVcggGatcdX$-#zKMFslnMediahfhc6clfaf36nipff3iddinnaisitMsf7iwuiMs8dGcdu62@X@@@fNadjdcydhdttlslcvhchyyyyuwuu",
"uwu5zsdhVglswccccMadcdf6tt7DsclX@#$zKhhhagjjjchnNhhViaasfMMnhdhiMdchaNdhh6cMdvhhNsicaicChSdSin-XX@XchggggsnanacccNchslffdlcgluz7",
"wullnycctuhccSdscscehfhjds7ttp6X+@@mSAdjDAhbABcienddDdhDniiaNwgjfiaawdhhlcsaDggcchMapfDVFcssa6XXOXOmVjchMggdccNhcyvcccvcvuglynly",
"cyctsdcsfgyygircwiiinHhMSadn2ipX@$$LNjhhgjDbjheMNDSaaaDwaNjheVaf4gh6hhi1iwhaBhhh6addiwihntiiNt.XXO%nhjjghjhjhfVhMtahfsahcngdgsgs",
"VugyftftgVclhhsccGhnM5nhawr3o58XO@#LadAASAAgghMShNnhjNhgDdhaMiaFAhMFSBSSDaBSjhgAhnjMwiiapliyttX.++:ZBBNvhgcgvMcvccvscccdcglgydly",
"ulttslscMctsudldafyacnihwsM3Vi:O@$@ZhHjjagADgBkjjgjghBaiaahgnhhjveid6adahghkjjkjgaygjc7d7icDS;o.+O8GSjgjaccdchdhhddckihddcfhlugd",
"lylgddtd5tcasdyCditah1MMdnncd&-X@@#ZMDBAMAgkjBAAaDajjaihCgajCADg5iAihhaNhBBhBagjwgaMDscMMnchg;XXX@3GSjhjaggcghtvyhgscccsSylctnsc",
"gnluwgcdfhcmvMvhtclhMjhid&s7c>-X+@@ZLAhghjjgDgjeMaNMMDgh6haMjj5;6ahidjNjrjNAjhyhSgt5a4sVGscat2X.+O,DMgjNghvvgchhshhvvidtacgsdtyd",
"dt6tactfVtdhssdasfansicincfth1;oX@=DDjhDagAjyhjVajjjBahaNhn62hsMDji5hh6iNjgkjkDrghVKNcsNw7ihd3X.+#,nhgdhcdddadpiahghvdhccfcffhvd",
"2sdflhss6dcwtdtsdcMhanwc6iahDn2X@@@GGycggcNgbjjhgvFjaeMAhhaA4udgiadNMgMggyjghBaAjk6*2csstdmcd8Xoo@>SMbggedihMassgcgktcdndaisseud",
"sfcsdiwsncdaasgtcddMlhMMamthh2=XO@@GFbgygbbbgbjkvMaakahgB4dtSMrhVehgcs6HDaihhajhjkaKjaGMKstp53XXX@=GNgygMcjhtghdcf65cdaahhcciufw",
"tdcaiMfwtdsaVatdifdjahCaM6nsdf@O@#XJGcygMgyvahjSSgdhNBNd&aMttrvkiFFcwwV4;1VNkBrgjhNiaM66tut3t%.XX@XVbycjavgNcccdtsfffsddacapadhM",
"diahdhijnatcians6Mi3indadfhiht3O@#@GAyHygdMttbggaavjagggfVdcSMhthi6hPh4npiSahhasa5aha63ivNlvt;X.XOXmgchhvchghagvcthcgdddchhftsg5",
"cisahhldhdidVMhCDnifmfahnMMdhv&XX=%GbFyybaykHvgjgFagnddgDgig65igacVa44Mw5Vy5n76666adaffAHctgg;XXXOXmAhyyehcvaca6bcdidcdstshdniiM",
"6schiwdwntnMwahtawai5anhiiadhj-OX##mFgvbjyADbAgvhhahaaAjg45gChyiahawhhejaAMjh;i5fwsaffwhc1ccl:XX@@Xcgagvchbadywc6yhsth8ldgsaaica",
"wsaddeiafahwaMdiadaMChjCwhnCMh%OXO#GAbcjhSgShvhv6kNhahjtaaANhaNNt5gVkhacaihheNhMsiagNMNMVMstc-XX.#XmgyhchcycctNaMic5cs5cdcydfhid",
"DsisidfceawdcMwadFjn66niShVwth&OX@@HFbccykvgbhvwShaawwi6thwtiMwgNggyjiaacaaaa5hjDjNhawhahh1swXXXX@oMchhhhchvhcwcthdcvtccchnassii",
"ttc5ccauiicjdisict3;sccafnacngtX@@=UHSbcjVbjekyhaat4jFjavgVhNtaceaBawcVgvdMghjahhaghafScVMsfs=XXXOXcMryVaaMyMegcivaicahgistddwss",
"Mt56ligyvhcaaMdatf1lthgch6NdMg5@OX>HbbvyhAjkkDnhaiNDhjhhh6duytdtai4ahadecadwSNcfwdwsy525gtist3.XXXXGcvgcwDMMeMgtftihgtcldfhvdgha",
"tifMtthvsccwcwdvNccsndudycSgajw#@#=HPKyvdajaBaghejasghgakDdthsMtdMidgaaDdnNh3;1wwf6CDnnhh83ty:O XXomgygcBaahtadcdhcdfcdcdcsdyffs",
"6cttn5ctst5ttscdbvhMhcvcccvddNf+@#=JHgSbajgghhBaeAciaBMSttdhatitaihDwa5t1dtntchvhsVi4wMMcvdcf8X.OX@VSgygtdcdcaieasdhssyccchdzydf",
"cifsssfzststcdBNtdffhs6tVgvadA2@X=@GjghgCnhdaakcBjagh5ctMdtdgMNnhhg6ccDhSc4avv6iaVjsfniMscdvgfXXX@ocgyjjhacidlcdhdtcggchhiycscgl",
"tctfifd4afacnNgdDhutcfcpgNdScN2XX#-JSFDdfgagacMaecDggNggecsghaytah6sBSitgwcvhg6cag40i6ai1;uft%XXXOXNDewjyvMSvctstsgtcscgdlcsdhsf",
"mtcsfauhnMcfc6Sau57mthcdcMDaVjc-X#=GHbaacDggwaghDtehcccgetydgwVg7htMedicjNSgcacsfsMcNhhfcGcts5X XOXSbAvghgtdtssdhdclachccahisacl",
"slccfddsatdftdrdlwVcf6ucHcartbdXo@%SjbNVghhcVGehaaVdtiasynMMctsctghcA6Miy5edtMct*wwf0wMhwvcvc&XXXXXnbASyyacdsiwuchyilhayfdccfacg",
"t7fwthasCsiddcft7cw4uwdhpwVlVF5o+@@CSgScgvcjStVhNcjcvMGvVghcafhafSdccMrlcccvCdwhVMgydcgtgc6hc5X.XOolFbycccgydycsttncdtfclcdpfdia",
"clcsVdlcidtptissmcwZsncsdiadteh+@@@cASjgcfvjVeaDacNchcytVcMd5tcncatcshgytdhtcyahctlgaMdac4ss6-.XXOXZbbyegMMguchsvlsycccfstsdciic",
"6gdcdtwttsMhsccffhfiuscMsmmcnjs++@@mgkghhcuVhScMDcfdMtVncastVVjifsccassVcVMchhDgcgcclyysvcScc;..XO@GSyyMyyccccdcs6lgfauscccfcscn",
"ccdsgsdmccsualddhMidncMhflKsdhioXX@nFAjjsdchcsSc73hVvfaChMcmaiMacdstccgauwt1fwdceec6cydcyNyt3-.XXX@VbGuSjgyuvssdccccfstsctltscss",
"snssscgutddtlMcndHhldfnsfi4Mhido.X+fDbjadjVds6&t6ifcddjadcsctvaNcyptw6MawvdVMhtgSccSvvSbNvjc73X.XXXVguMyAbccueccudfdffsclcchsdfd",
"nyyssdlvcccSccdti6fhhAisljVaaD&+.@OfubAje5wdanKVLD6ijnCniGgAFNSANhvSDHjVhHvcMMVDbvNySutd5Mct5;.XXOXmbbevcctGcNycvccccfNcscsdtdsa",
"nlldtutw6wi61afVNi3taictfeeVa5+.XXOps6g5thc6dcyyjdsdhhMNcchvtitwadNidyahNAaaaMaht5t7MvdgVMaal>XXXoXmvygVagcMbcbcidhfpdddfshhfccd",
"8553533323;333;2;&&-&-&;-%;;+o++O#X83o@%%%%@o%2ldafii522&3556tyHtisc6p7s4uii6piw7ydF64s&%;ac;@XXXoXmcVgycllgygldfspttutiuiii0667",
";=%-@@+@X@====%@#@#@@#%#->=%-=XX@#O38+@@@@+#@@+o++++@+@@##@%%+@@+@+%%%@@@@@@@+@@o=X%%:@%#@XoXXX.XXoz42&112=;%@%%&252;;-;-;-%-;;;",
"XXoXooXO@@+X++XX%@###%@#;-#-=XXX@OO8;73%%@%@@=@%+++@@@#@#--@$@#@@X@%#@#%#=#==@@@=X@@XX#%X=@X%#X.XXoz,+X@+oXX+ooo8XXoXXoX..ooXo+X",
"XoX.XXX+oXXXXXXXX+XoX@+oXoXoXXXX#@#@.@o@++@o++o++++++++@@@@@@@+@+%XX++@@@@@+@@+@XX==%XXXXX@OXXoXXOo=%=XoXOXoXX@XoooXXXXXXX+XoXXX",
"..o.oo....o.o.oo...Xooooo.ooooXXOOXooo.Xoooo+oXXo...oooo++Xooo.oXXooooooXXXOoo..oXoXooXXX...o.o.OOo. . . ...o .  oo  .    ... .o",
"o X.........o..o.X.X.XXXXXoX.XXX@X@XXXX.XXXXX..oX.X.OOX+Xo+.......oX.o..XX...XX.X.X o.o.. . ..XXOOX. o .o .      o ...     .  ..",
".....X..XX.+.XXOXXOXXXXOOOOOX#O$$$##$++OX@OO@OXOOOOOXX++OO+OXXOXOXX+XXO.O.X.XoX....XoX..X.X.X.XX.X.o . . o   o        .     ..o.",
"XXX+>>>>>$>9,9,88<,,<<8888888z89X#>8ZUZ0<,-->>>>#--#$$$$$>=$-$$@$@$$@$@#$OOO@$$#OXOOXOXXOXOXOOOXOO$O>,=XoX#o..X..X..OOXO@X##$$#.",
"+X+8038ppppsmmmpmmmlCmVGVKSGSccHfmKSciMKLGcJZmVZZZKZZZZLLZCZZUZGZJmZZZGZZZZZZmxxxmmxxzxzxxzxxq#O#9>xUUUGZxzzzu0u088878888777u7#.",
"XX,Z3sVVMJGgSDPDHLbcGSHDHDDSDPShHDSdcGNSjSDcybyFSbSMytydsgjkhhctw7wMMayyMrgrsyNbFvFPPDhcMVSyyvu=uGcLecclrcbbMDSvSVcmVDMMVGGGMfXX",
"XO8spvNJGvhVHSVcvcVHyLVHDHAKgheShtvyVNDHULFPHSKFAPSMDHLHHDKHckVVPKFPbDLLGLHLiuDcSAaSgHHGPSGHclyGHwccHHHSHHPGHcc7tnc4Vigacygggu%X",
"OX7tgHcdptmlsslncccMyccDcVHaDvmcNztSncVyscPyvKDDbyMycycagvcvaGPBwFMccvc2u1yNgNHDHGvjPbaCyudvGHwwmmSGcgdsltVSHHMhwlyLtVVcdsscv4oo",
"XXzcFyczyhyastdVnycuSbgl4f7amAsScvVceVMsVtdhccgygMVSSdgMSu5djvwNhcs5vCVwGcMwtMaGhHvhjhMnclcMmlMGgJVlwcrllecccbMVSNGcdhMfwcVNs2X.",
"O@VgFgtltDCcVdVitdnnclgcVnSnDGSMMVylmvcwVcsDSgMMhSjcbcvvaVcVNvckcgbSGvghbvcgstcvcvMSNSADNSymyccMGVcyycgAgGVcclsscvcdMvatcgdvt=XX",
"O=GcSccctftttcfVmStylgcliMcwMtaccyyyySccacKcvMhMShddgcbAjtcg6chDcVghdtNgVAvgctSNMavecvAvSScSVcrvrgymgJgccyydcsygcchcddMcs2cgy;XX",
"X-SyvccucdtilccansmccMvMKchdaVchlyGlbvgvhdhuyhMVjdkSDyySccahSyctdgdgVNjNahy5lbDSNraSyASAVNScgVVcgdywGycdytmVyVVngccccf55tDvNw&XX",
"@>Zbvy5yn6pcMsMcacdfcSscwMVDGhhsMccncDSgaNccNHNiasbcDDHcNydMcMhvVGShgyvASGassVAgMhGahHDhySuGMVcgcynVdwygcGSychscdaycuwasVyau2X#X",
"O=cgbydsctmffcddcdfdC4MMMhc4thcNctyyvNaGMiSAhh6cVhftygySBhhcydbhADMNgfSadyNaMgDDec54Mhh1c5uvlruclcaydcSvgSgbjsccHdaChSMctitu3@XX",
"@#lSGvcldsycn6scslMcpChnaMcfccadccgHhMcaMchhtccyaatvDVVh5MGDjvBvA4sDrMhyjgvNVgvrtgch4ec3ucHvchgcswdtVcyCghySaMfvcshaVt6ws6lc6;XX",
"@XsvgdtuivlacsMdMds6hwStwdMhMdMFVcGcCdtfaSvGhSScNcNvgyDyNBkvSjhha7lgcDjhbehSyAthSbSFPFDhUcgSSSSSgaHacscsdNvgdtyccwtf35lcvsftt@X.",
"OXzgbhscdlMMaCitstMgcdhMnMMVwaadcc5cccgGSNhhVtchvGHNhjvAgaGBeAgaHtuytgvStSGyhKckhgDhNjwagrcScgMMvcgNyGySvaahhcceahncccdtstcf5=.X",
"#XpvcrflissdfcincchsMdCVahhaDCMVVvSdydjDSSiSNGjDhaytnSSe4SddSSvcNitdatchkFbghaaLSSjVhhcVStSctVcdctMgdahtahgVg7dMVhattyvcMsccu+X.",
".@zcv6dfdccVMvMVacSVcNcatsadjehhvcwVdaNbijKCkhSAjShyMhhcvAvayaMvNNcHMMjcdycGjASaSHva4jSNadHyMVwyh6scdh4yMdy4yhdsjcSacdtptff65@XX",
"@XuccthcsccsdswccVgiMhaSKLLSiaCdHgKyNujcjggdtDcaFhMVSdighAbSHSyAhhGScSjSaHcjvNHNMdvcSFNvSMyaghwVszVvaMSvjhSjSdcdVatthdgcmssst%XX",
"XXlthhVsfiaccsCaiaMcnfMwngjnMVhhgvlsMMftvGtSwhdNyVjjaGGDSDcMSSADvvbtgaSSNSDAAv5jaagycMgvbGHHNKHgvtVNcdddaiwacivcNchvVcMNttsct@XX",
"O+z6gcwztsVMaacsMfhMetsjPBghCNSGa6VtctmcFdhSNSchAgvNtNhADvg5jhvDtHVNcNgkyg5ucgSjSPSHGtDSgVMdGcyyacywycygNgbyycahgtfdtypsfc5h6%X.",
"XO76VcdtmftdMMDVMahMasVaBFA66hihMGcGcccjMSMgBggcdSSNSvahAADPFcvyAFScVacbghcbHcvShgNyhbGyyMSctycgggkbVyjctyhjhhjMcLwtcMaMhasi6%XX",
"O+pyBtcMi6nnyHvDdaScVMSaAa23iSFDgacttdSLtVhSgvFSvjahvahvyevFNvADvNASaaGcuSvFawDabvcNVyyHGcggAycttccDtdhattthiytcattvMdch6usc3%XX",
"X+pvShta6tcinchtwsnsgNaNh62idnaScyfdhchwDhaNVvhjgNA6GcbaGbAjwhgjvvdhGaagDSFNNcaycbbgMDGyhyHNdgyvSgygatvvcvNNdtytvhc7gidtctdv5-.X",
"X+zKy5ssinchii6t7dsdGhSdaGCgDMhncsVwgNDDgaaStcSDhSSyavNhagjyvwftdgVdyHMySAyhtVgcbgtdhlgbgcb4bSSvg4vStVt1iiSgggVidttcySdvnddu5%X.",
"+XibncMgsavtcvn5picSMgjMVehjM6cDcMyvKLHMhdScatcrda4bShdeFeAbggDgNSSdydySStvgywjgFvaywt4gegbDcc4gVjagGycwcakNMaMdcatcachdddsf3%X.",
"XOpgsctpmcdMhcs7sfLSDMSjhhALhdHhyvcSMrg5tiDBvhdcvhgkFSSPhvjgAbDjPyddbMyaebjaDKguggvSHDMjSMclycuvaAVysckcdahatgidVhDMhMguagdc2+.X",
"XO7af5scycgcMcthdcKDwMNhVKSwSKhNGawwNSMLKKSNMDvhcGaKgkaawbFbgbAagccjHcuSddArDebvSgljcAbMSKgDvybyatwacajhgc4d76aMggctsaMcSsMc3X.X",
"#Xugccc6MMddhssGVLDwifhMhniNhhhDyNNDvvAbddyyAaNhvvSttSSSAKajFMhASycgy5bHcSbysMHMcjaSckFbrNvhNDjnNjDadVvVNvDi5wnaccdfcifcdaa7;+X.",
"XXughdtddhcflcdDNVtjVKgcjjhMDfjhCyaGgVDNMaShHvS4gcglMSFShjAMjDgBgjvgFgbeybjGSrgydHbavStgSgNNccNvycyavNg6MySbhDg5ccicMMdccsnw;O..",
"XXzHatd6VcccaaKDBidMiSVhMCDhhCShcc6tcMacScFFvvvDvNgaKHjgahnhKaehbHbcchScvSHabLAGSgMMSjSgNPcMMSVhyNcvhvdvhjvhhgvVafhadaNVtadu8@..",
"XOubgdtfsdffhGtttdjnhCcSjnhgjgFwcaHLKSgvyNh2aGcgdyFHAkMhBNhAjcVjbycbSFAKNSkyreggSeyHGrbSScaedthnGMgNDhbgvNcMcvctsvcGVcMhddiu2=XX",
".OpSatwSinchScaiVNMGhcNnjDjMnKAhGSSNgSAvLKSnygtSHSyt4vcFMMeiSajNFSjSgAArkHvHGFGvbVScjKFDgcStGLVKdtSGchDcVFcvS5cscfdtfccalca7,O.o",
"XXihw6MisD6hiVcMVcMjKVDdAaNDnjDFbcDNSSjHgldyDSNggggDSbdkFKHFkFAjygFgHSygAycSvAyvggggbccyhGHcasi4tGv62tMttyantsVssccvatscfwci@+..",
"XO0AdacjnaancdfVchVSNMKNMVhidhNaSSvavgGadchVASVvjMbSHkgciawFDjahyHSvdHVFSMvNggdgvccHyVccVNjtVMmhDAstclSvyccgccaccfS6ddfa7cs;-X..",
"XXpNsnDVMcMMMNcShGdGhcBNHDVGPLhKgGdcsGggvgcgSatAKNgMybLdgCnaABhkjkyaMtvDgyFDPHDHgbjPPchDVFvVMa6MKa6PhdVgglVSvcdctcShnDhcMas63X..",
"X#pN1rttsyffstcaVSFhDSnKVhn66iwhScyJChSSPDnDKHADgjPSjSjcDgFKDjKDAbDKMgDPKSNhjihiDFNhaKjhVhgaGLiSafhhFiichiMtdVtmaahcccahwc7t,=o.",
"XOpVultt7u723;1722;;;232266;,;06343542d6a6pt45iwaDfhsasNKVhiMBaiSDjtwtcafdwhei0lBhajniiMjnFShHKKnpDNhCKCaDDMNhNvcMS6kii572;%-%..",
"XXzs7uut7333883>3::,,,:;;--;>,::--8:;-=%-=---=;=--&-&%%&;&&%%&%%-;&&@@=-%;2;%&-%&;&&%-%-;&&&22;&&%2%&&;&%;%&;3;;i127;3533#@+O-.X",
".X85,257,33,,,,3-;;-;-#%-##--@--$==--#,=%-=#----#=-@==#=@=@#$%@%-#=--=@@-#@@#%z-@#$$#-@%@####+XO+@@@@O@@@#@#@@@@+@@o@++X++O+XX..",
"XX8=#===%%%+%%@@@@%@%X@%@@++@@+@@@%@@%@+@@@@+@@%@@+++%@@@@+@+@++@+%+@%@@+@%@@+-.@@@@#@+@+%@%@@++@@@@@++@X@+@OXX%+X+X@++OXXXXX@..",
"OX,@@@XX+O+XXX++X@++@%XX+o+o++++@#++++XX+++++++o+ooXoXoXo+++o+o+ooXo.o@o+++X+++++++.+++++X+X+o+XO+++Oo+ooXo+oXoXoXXXoXoXXXXXoXXX",
"OO$@@XXoXX.OXOOXXOXOXOX@+O@++@OO@@@@@@++@@@@@+@+XO+O+XXX@@+OO++O++OX+.+.OXX++.X..+.+..ooXXX.XXXX..X.......o.oooo.ooo.oXoXX..X.XO",
"$#>0z,@@O#O##@#@O##@##$$#$#$O#@#@@#$@####$#$$$#$$@O@##OX#@$$@O@O@OOO@@OXOOOO@OOOO+O+OOoOXXXOXXXXO.+.......XoXXXX+XXXXXXXX.XXXOXO",
"$87zizp0z7708zzzxzxzzzzzzzxlzxz>++#-zxZl0zz7<8883<3>:>>-9>>:>>-$$$-$$$>9>99>$O$$$$$$#$$O$$$O##OO@OOOOOOOXXX#@###$>=>::-,:::3,8=#",
"z7ZLf5307:833772ttsMu7assfVmcms#+X#,UmZPIIIIIIIIIIIIIIIIIIIPIUUPULULKKLZLLLJJKZmn8pp3,808q0q8<$X+@$$$$O$$>>:>->:>,,,><:9<<<<<>8q",
";sSGLGDDDSvGHHGGDVDBHSKSc22t5;;#O+X:7cyPFFPAFHPHbPDKDNvABDFPFFFPKPHLKPFNAFNDjAAFDBFCGcfjVMtVVcX@@$3ZxcpmmzfucmVZGCCclzcmzl7uzz58",
"4cddyiBNScjAAAAvDFNFHFAjSHNs;3c@@X#3l=vPPKaFANhBAbgAhygBhgBhAgjjhhaa*hgw6i206aiaSh6wtAFAvrMhc8..O+pi3lsia6KPDFSABbbFbSMhgdtudcyl",
"HCtDgNaadaFSggVDjBAgjhNvAcyHHZ2o.#-8d&sDFhshNvNSjbbgajjbjAjAjgkAbkhgjggArBkihhagvgagSgAjwhFa5;.X@#fnw6iKdvFhAavahdaghags7tdzccMG",
"ctcdhMghcSardcg4hatdc6wctsGFgDcX@#XZHSHSgcvbhghgbjBbAjABjAjNgbAjjjjkhjAjjkjkAjhkagjbggjPFBjiH;XXO@fsjnHDDSByaveh25wvta16;:46Vaht",
"disvdi6wVhhNf6ptMhSshnlcSggjhV5-##:PUHPjcvtgvcchvjgNjjhjaahaykkgjkgAjFjjjAjAAkhNhgkAAgADjFkja;.OO@ldjFHhyrtyh4wtccaahdgu-3cSyats",
"cshafdahahNa6vhchatSSsjhaccvvct=##:PbKjhAevDvSgMNhAvkNjngjjahjgAkjjjjjjkjaahkjjjkhjgkejkehhD*,XX@@nbBiwachagchfSjAgkaaNp5Svajttc",
"tt6tacthFhw4itvB0BAihDaBhBABaf2$@@;UKajAADMNajjBMMjNNdvvMjvhvhSSNDgajgjjjdFjjhjhjjhjjjhjAaja*0XO@-Gnyadajhajaa0ahkaaijaahAiaaahi",
"ca7MhejSah606hhABBhf0aFhfMhhAN3-+$$PFPjjaM*fVDDAvjjNvSavjBhjNAvAjjgFFjjBjjkAAjaaajhjjkkDajhAf*X+O%GgghaBi0aaiihhiaajaehaBhajhjha",
"d6aidisai6ahhBhf2iDDFDhA5ahivi0;##3UiaFAjMGCNghnBDDAvbMvAahBFAShBhhMhNhjAjjjjjjhhjAAijhaBAhj0%XX$@CgahMwiijhjajahaaa0kjhjhAhhiah",
"ihhj6chajh0hhaAADBiDhiFf0aBADff*O@;PPPFAKjjhAAVDijSDgFSvjADvggjSDjjhjiDFjjhhaNhFNajhjjAkaiji4%O+O+Jgbi5sijiahgggjhaahhjahi0h4fa6",
"iajhfaDjBhDDhhBh0ahvhFCBBhh0BC*$+=3Pj5hhdhBjfNjBDbjDbHAgNjjvjkBaiaAKNDjgjNjDjjhdaDNNjhADAAh*&-X+@;ChAgbkDihh0hjkaahhhhahaiBBhh0a",
"aMaiMMNaDBh6hAhvaBhi6hhaBFBhAh;%=$,LjjPjjjAANNBBbkSvgAhAhMAgADSddhaahajNAhjhjhFFFNNhjahhjkh-@-XXO-LjDjahjhh2ihhhr0ahihahihah6aij",
"AghjjagNBhhfNvaDBAFvDAhBAAiAaB0%@@&KhjDFDDjACAjjSFDAgDgSjjAhykawLMFhDNAMjhNNdjjFjjjjajDAakh;@@+XO+HhaekiaAja4i0rjjAhhijjNihahfa6",
"jahiighh6ivhhihhDABDFaBFhfKAA0*@@$-PFFjjgghDhASjjejAvAvjNMBggSSca5SghkjhNjhDjhjahhaDihakDh0:20XO@@GhBjDaaaahAkhhkjhiajihaiaaafjj",
"nd5ijfjDjNfsABaahhfhAFAAjK6hh;0O+@-UKjPKNajjCjNNgNvbjvhFhgjgFANDDBKDHDjDjjMhhCjjjjhkjjDAak0;i%XO@@VagjkhgaaihDjaBa40Bii6050haka5",
"jiNNjhhjhh00ejhABfjhhi6Ajhaf366@@@-PkPDjjFPjCNjfSDFyAADjjAkDVjgvSAAAgSBFhNjjjjjjjjhAjhaaaBja0;.+@#mBAaajjnkajjahhwahafhBahBjajBB",
"hNhhhiaa040jAjAAhA6hAFDhBDhN;fN:O@2IKPjhjFjFCjjMShgFFFFDjgFNHVDSywDtDAkgNjjDfjajDjFhjkjhjajaF0o+O@MDhae5iNgjiakjtavhhvawBhhaBh6h",
"Cahijhhh4haha0DABaBDFAaaiaA60JfO@@,PjAAKDhahhCKjSvhvjFAgFgFhVyhtSMFahjhFhjhhiajDajhjjaFAAAaBh&+++@CgadshgahdaifaiaffAwhhBaaii5fa",
"ihdajjhNajjjFAhDaAfAhhDi0iD50i*@O$0PPIFAjhDNKAFCMaASBjgagjDMahjSADvNhjggjfhjjjhkAjjkakjAjhBh6%XX#+MDVhaSkkkkMNjjht0haaaBkihavhBB",
"aaikDjahBAAi0hhBhhhAvihKFFKBwh5X@@6PPjDjjAgCjhNjgShaAghMKvgyhjAhyhhahKDMjjjjFjAFjjajAFhaBjBBj&XXO@VBw5jajgigiakihhB6jahfwhhhaaai",
"NghahiahBA6ihahAhhBfvihahAAAPPfO@@jPAAijjdjhsFhCBkVgMshNjtDvNhdMbLggFvcvhkAjaAjajiAjjhDhjjhi4+.X@+CgyShhagNhajMahhaai0wwih00haaf",
"fadhjjhNaiBBAFBaAAihDAFDjAiBBh%-+%NFjPKKjjCDDjNiwfcDDNsNaNMvMgDchajASvghjCjjjhhjhDhkhjjajhaFa%+X@+mhfi44hgaagj0rBhBtavaaahfAiava",
"Df6hhhajBaiah6ihaiBBBhahBhFhAFi7XOvPFjFBhfhBAfNNCGDhhaMCDKaMgDFCMvcAhhMcgjjjgjjgi6ahFjkhhhBji@.+OOCaaBhDthhhtifhhataa6iahafafaif",
"AaBBaahBhDBAi5iAhhvBhiFBhhFhKhv3++fKBAjFjBDAjDhihADMCjDfhfsGHahacjhvvNVNBANBghghhAjjjaBAhBjh6%XXOOCahaihi6fhhBt66aaaChhaahiBaDhh",
"hBafBhBah6aBBDAahi6fBBhD6vBhhAiO+%0PFFFjDjh0MhhDAHfhhDjpNjMhaCDHSbchhdaakwhaiijBAkABkBjhhBkB**XX@@CvaaAahhhhh6hv0hBfhaaffhiifiBB",
"ihah6ihh6Dfh6hfiAAKKhhaFDhhBFh6-+@;PFFBjahAKhDNhCNfajfjDFNfDjafhVgNSgjASDcggNNjBhaBhahhABhBB0+XX@OAhAh6iaftBfi6hva366ta6A6iihii6",
"ii6ihfihifhfhDBi6hBfBDFhifANhBf*+%2FKjjBBaKDjjhFHMMFMMCjjMJhjKCjeccjNghBhFhBhaedAvaiBhahajAja+XOO+DiahBahaA66Bhf6afafhah6ih6iiih",
"AafhihDfBCaifiiDDAKhDAihhvDCAh*O+X0KKKFDABAhBDNfMhNDjNjhhfhHjfhhvNDASjBHShhBkAhaahjjhBBBAhBa5++.OOCahAaih6a0h6iavaNAhi0faBfaBBfa",
"AiBhFAfBhaiBfCDh6CfCBhDFKi6CBi2;X@%KjDDjABDDNCAjjhKjNDjNCAfFaDhjNaahgSBijhBhNABKFBBAAiahhjjBv%.XOOn5hht64hhBthiBhiaaiaffiaiiiiih",
"6aiffiBBfBfDABiaiBiB0DKDhDNNh*;O+$-APPjNBBFjNFNNNhNDADjNCjjNCjCfhDDSShhjhMBASNhaaBBAhhjjBhjj0++XOOCfBj6vhBBaihhh6fatfiaBBiiiihha",
"fiihihf46hhhfChCChKFDhaBfBKADhf%+@@HFKaNADDANFjACFFHahDDCDjhjhjAjFdjDhjjNDjhaaDhBhAhaaBajBAh2+O+O+Cs0a0ahahwvahifhBAhhvi6ii6fiaf",
"fifiahaBBBvNBANNABBBBDhDFKDAfaf-@%%AFjjFAAjCDDjADjAjjKDjjjFAADCFjjjDhFhjDhjdjFNaFhhAAhABAAh06%+@@+CiAjjhDahhhhavhhai6i6hBvFAhfai",
"6iifCBBAhhhNBhChfCBABAhvAfaAh*3;%-;hDjBAjNjADDjaajjCDjAAFAjFhjjjDjhjMhjNhjkhAhhjaajhBBBaBBjhw;$$%%nfhBaai0aihhaa66i0fiiii66ii6fa",
";36i66i60h6373if6iiiiiifBhf326i--&-0h3sjDDFKNNhjCNjCAHjDjhDkhAjFjDAahjjNADDNFjhjhBABBBBhAAhh5%@---n66tahahhhiiiiiiifaihifi6336ii",
"-*-*73332;3333*;3-;2*-;*-***33-;---03;&*204040242*2i00aihhjjjDjajNDNFNFAjaiiihMFjjBDBAFAAAjB0*2;;2l34s0hh0taf0iifhfi266i6632333;",
"-%@%---*-*%%--%%%%%O+%@+++O+OO@O@OO;&+++++++++%+@%@%@+o+++@@@%%%&&%-&&&%%%+@%&*2562**%;**%%%%%@@@+0;***2***3*;***;;*%*-+%%%*-O%-",
".OX+-OOO++++OO+%+@@@%++@@O+O++O-@$O$@@+@++++O+O++-%++%+++O++@@+@@+++@++++++++O+O++.O+O.+X.OX.+OOOO;+XX+..O+.O+XXXXOOXXX+OX+O@%OO",
"O.O+OOOO.X+OOOOO+OOOO+@@++O+++OO+OO;;-+++.ooX++++++++++o++O++O.+++++++++@@+O++O+O+X+OO++.+.X.XXOOOO+X+OXXXOOXXX.OXXXX.XXOO+@O+OX"
};
