/* XPM */
static char *texture4[] = {
/* columns rows colors chars-per-pixel */
"64 64 64 1",
"  c #201C02",
". c #2C2703",
"X c #332B06",
"o c #352C17",
"O c #393311",
"+ c #3D3626",
"@ c #1D1B00",
"# c #453917",
"$ c #443C0A",
"% c #453B24",
"& c #4F4516",
"* c #4D4328",
"= c #574927",
"- c #585033",
"; c #645630",
": c #72623A",
"> c #57544F",
", c #645B53",
"< c #6A645D",
"1 c #70684F",
"2 c #6B6867",
"3 c #746C68",
"4 c #7A736D",
"5 c #7A7876",
"6 c #6F6F70",
"7 c #7F7F80",
"8 c #7F807E",
"9 c #7F8081",
"0 c #857A6A",
"q c #847C78",
"w c #82775A",
"e c #817F80",
"r c #89827C",
"t c #93867B",
"y c #958E72",
"u c #A1927D",
"i c #92805F",
"p c #8B8886",
"a c #948D88",
"s c #98928D",
"d c #9A9796",
"f c #908F90",
"g c #9F9EA0",
"h c #A3958C",
"j c #A39C98",
"k c #AD968D",
"l c #A19FA0",
"z c #A7A29D",
"x c #B3A59C",
"c c #A4A085",
"v c #AAA7A5",
"b c #B3ACA8",
"n c #B7B2AD",
"m c #B9B7B4",
"M c #B0B0B1",
"N c #C3BCB7",
"B c #C3B5AC",
"V c #C1A799",
"C c #C6C1BD",
"Z c #C9C7C5",
"A c #D2CBC7",
"S c #D7D5D2",
"D c #E2E0DF",
"F c #E2DBD8",
/* pixels */
"M6a5ClMCg9<*=B4bfdzBm0>adbtxzsl5krtd4sr4hv8AznbqkjNhZdqjzvge4fZf",
"6bvCg,855mf*&Cbarldr3sCNmjvvz6sndjt4jkbzflvszrhxtpshfdMpbbpMlNpv",
"mav4>gCZDz4*-cyrxa4mavd5rrja6fbvCadxCmtr8sal0hztbajqfvMfd7gpggvd",
"vbddMS9d96s*-jzzzCnbssddajppvvzvdraavpppvaNdxmdNqdjjvvpvvdgvmvpf",
"pddjpp9vpd,-&rbadjfbaBbjhxprppp83jpavvvZfMpfdzsrebm7fasldtvmppvm",
"vMjvfdga7gS1&bjhxaarsjjs3azNavmmvCnndpmrglgvvdsrzd45jbMjMvMfpdMm",
"dfdplrvfdv3.&nsstBxtsta3zk6alsssr2mjfdddldMdjpqxzvvvdpplfpglvvvp",
"gvp6mMvdpfC+*absa0qh2tqbnkCzrbxzsdvdzzazdffvrjjsseadfljevnMpdv6f",
"mvMZvvvaffp+#xxqrNNBFhmMq4apBvt2vvfpddfafCjpshCz4rvaajCjv6szz<5m",
"dfffvd8dsfbo#anvAab45hdqjSANpjbSddmAbmplMdzzmvapNCdjnzpr5hdmaMSv",
"ddMsjdCdfds+-aldps5jNzdNC,qerqv6pmM45gdva6ds<pvsdaBpjCstvfbdpgpd",
"9CgddfpvNvd*#qldjjMvv2pqqqpabSdzMg52MsvbrxbpbndnvdrrartCd<dsMfdM",
"MM9MMvgfeef*&aszj4vzvpm5Ajsmj2dveemZffv5BmnCzsdab44dhanarbZm5pmd",
"vggM5f2vMSv*:<dppvvb6m2dn2pbvjzrdMCdMmfCmrfsasbbadvaanktxf0vvvg9",
"fdmgMgAvM65&&sbMMbZfs4mp2aAb3BzjMM8vl9mf2aZdpdrzdzpddsxbhdbpszCl",
"mm8f6fdjpZa.=mvavj4afMvAZbarBrssvpdldCvvNM26d5g6prarzathbppNx5r2",
"f2zlNnnlmd5o&4azrbMpvZM6<yvbsrzzzvrvfddpfd5vjxhbNvxChmp4xANsaBxm",
"dsjrmvmp7jM+=Cdavpfdgfpbnmmtsn25v6np5pa6d2ml5dCN2sBaea0ld<qqhezs",
"nxrdgffvmv3o;kdgMzgvM8ld5brzmzvdgngvvmxvmzepfja3Nj30qpjfdAfbxdnk",
"zzffvdvMfsjo=cnppgglZvfvCdrd<sbdmfggvbzd4mpjdzpz2pspxjtnfejbjjas",
"8fdNdgddjvjo%4lmggg628d9fdMnCzdffgfdvdaMdazsqMmmbS7ddlmaMqhhxvah",
"mjrsjdmvbpfo=dMdfpllmm8gvadpdpgMMsvmgpvdvmpsMpprf5dvv54apMxekphz",
"fdgfrfdfdbdo=N5dmMMl9fdjzjnv8ffgdvmlafpxz0bMfgvfvf757CMmjs4aabxd",
"fcNmvvdfvdpo:bgf9fdMfdmlbj3slnlfggffpMgamdp8mdMMdpgmCgfZdaqNbfjN",
"tbr2smzqMss#:s6gMgMfZMddfdCCfpvlMdfgZd6zz5mdpMdgppMb2pa5sbs45Mj4",
"CndNbraZpnf%-jvddgdp9ff8MjtpljMvfggfdvZzbepdv59d7vp5lnlfqsqMAzbh",
"r354rxN00bpo*ffMd8pmCMvZrtzzdzvdgdgMllrdpfZfpMvvMvvZflvnBdnnqnje",
"4skCmvpnzs<o=MMfdCvdrpvfvszvvzlgdgMfMpldvm5dMp7fd2g6ggdvhpbxsa4C",
"NcAstqassj5o;fffM8vvvnpZdbSrvdgMgddzdsbdMdMvfdbxdgvNldMMvjzhmsal",
"qNt33shjsa5o#vfCf666gpjfvg<sgfMfdlvfvlfdzdpqZnplddMpdgpveqha5eNj",
"s4jbCxs3pnj.-nZf8nfCrmlnzajfjNfMfgdzvfdzjtvd44MjvM576gZaqjxnjmMs",
"hsxk4qjCjbj%#n5,8fdaCsd8dmvgMdggvm8NrdjjjjmdjNjnx>zjnAgvjZjsejfj",
"hakbnv1aaspo*6cnajBznffsnvvgpMvfldc5vvbbpfa6mddrpAbjdd8sC5tshpdZ",
"pNajjkvdvm2O=dg8Cnjzfvbs5dddvffszfvmmp6rjMd6f5dvd<zssvazfaj4Nzvj",
"Szqkhxrrnr8+&<8CvdgmlsjCbmdvMgZazzff6vmNmadM8gbbrdz55zavpntjddfp",
",jvjj5aBtj,X-lMvpM8rdzd8rr5gfMdbvlavMprd86d5gjzaqb6zCas4jqtj0pqn",
"ma2eanjmsplo&888d5Zv4svfnzdamjvsvzgcspjzvgdAnbvbszlp4MzssjxhAdj5",
"jsZBdsvaza5o-DcgvAxhxvcspsndMlpjvgmMazCvvfzrsdfsvvazlssNtBrr3szm",
"ajqj4sh>se>o;1-8,1411-8;o--+-pu18:-;111;-<1-ky10tiyy4iu8xitqic,s",
"o O%.X$#@@.&&XX.X$.&.$XO&&OO$XX#$X&$&&O&$$&&$X&#OXOOXXX.X$X.OXX&",
"y0hhyyuyyuu&&>yy11y&yy11101==000&i-1:*1=;*w11:wi1ywtxdzyt<yytsy3",
"jAAvnSFCmZSO&dNnzfCCCACbbnNANBnbZMvZzCCmAZNtBmbbNdnCZZsvmzCCAMCb",
"jjabv5s5zd8,&cpgz8crsdcflbhsNsVvdjzpfmmmp23sfffsaba446dNhzhx4pxc",
"aaxjffMmz>5*;vfdfg9smzzsjqxhexj2v88vCg>6fvsrdzjvdarbzmvrjdzpvZap",
"MdvvpMgr6naO=Cdzdplz2dvCemjaxseNzcMfsamgdCpnjdma4sbNazbdgM9ZmNml",
"g8NrfvvMmfd+=spddMMNl8azlqqpzzhvvdxsdM>>mdvdrvsjbnqqbfpfb<Mrgv<6",
"gMfMfgf8p4pO;ytag4marffpbCbvljCjpjbpabCzrvfrCqsjjpsx42gNdpbp5d6Z",
"98dpgldldNz#;bbC8z3fbzznbqbvvvegpMzlSvpbMsbj5bbqskNbmvmp4gagZgZp",
"dvMMggsvzdb1=arpbMNCeabsqN,2NefepAdddsneqbehaq4ZsZC3ajjMvseekvdv",
"MMd86vmbjzpo=Cnn0qz0vhqjbq5MbzvmMdmZeke<jaVxsbZzja3jsdBpfbsNNzMe",
"Zg9gMg<rnb5O:ap0jnzqjxzjavZfBevvdvdpejaNhakhflznbddptj3snhnhqfeM",
"828d46CApan1ObZaNfeNB3znAadvedjhddjfbCksjVxjea>p3NvNn>jaqqjuzjl5",
"mmCvdvb2snaO;jrajmbhxzjqebseqCjMevxvjfenxkualBbZbjbBrvdAjNbajjbb",
"dglpsnrxvf5O&0pjvqpjjbpVnxjeNvdeMgfseqqjq3VNa<qpxjp3qaxpdN,0jveg",
"Md9vzzamszz-&4bnabz0vetx0<zMgq>mgdqvCeCsaBq3afsgpqqNZCxsspbvdfvl",
"gdvdscCszz5*&xd5jdpbpqtavSNvvMlefmvvexeqBeejvlMvdbBpq2akebsddqfg",
"fqdzbadhxp5O=0asddjpq5j0jvpgvjvvvfrejpsNhpZxbvd4qsaMeCm0pknqpvln",
"fmdvfadbtjr-&vjsrdmppmdCnqpZdfdasjMnjjvk3NalepjzAhspCvjbjj4NAMvb",
"Mdrvsamdzbl%;sqjBmq0z0vqfvNdpfevjppfss5dAaapfnbdefNm3qeqnddddjjs",
"pfbvjnvpjsq*&rjnvbhmjtjvnjfpq5zqbmMkkvMpabedvjqzlmbe4jabkbMvdgjn",
"bNjxad65M5q>=jd>atsqjChhtzff5lhjjhdaBdfbaqhf5lMdsvd6d6vbe5ajMdev",
"a5x5zMgSsjN*$0sSaaAjz6pmnjavM,3bjkqBj0ssdCZsmv7ll55Mjjh3jmemfjja",
"dAv5p>vd5v<o;jd15z<jhlnsajhjjsNdqja,3jsjjvpavaddvdnnpvvgbafflnhl",
"gdvmpmv5nsM*#pZjFzxszzjbdfNbeMzqnjfzAxmjvvqdpsdvse<0fZMpdgevmdss"
};
