/* XPM */
static char *texture0[] = {
/* columns rows colors chars-per-pixel */
"128 128 64 1",
"  c #020202",
". c #050505",
"X c #090909",
"o c #0d0d0d",
"O c #181818",
"+ c #151515",
"@ c #191919",
"# c #1d1d1d",
"$ c #222222",
"% c #262626",
"& c #2a2a2a",
"* c #2d2d2d",
"= c #323232",
"- c #363636",
"; c #3a3a3a",
": c #3d3d3d",
"> c #424242",
", c #454545",
"< c #494949",
"1 c #4e4e4e",
"2 c #525252",
"3 c #565656",
"4 c #595959",
"5 c #5d5d5d",
"6 c #616161",
"7 c #666666",
"8 c #6a6a6a",
"9 c #6e6e6e",
"0 c #727272",
"q c #6e6e6e",
"w c #707070",
"e c #7d7d7d",
"r c #818181",
"t c #858585",
"y c #898989",
"u c #8e8e8e",
"i c #929292",
"p c #959595",
"a c #9a9a9a",
"s c #9e9e9e",
"d c #a1a1a1",
"f c #a5a5a5",
"g c #a9a9a9",
"h c #aeaeae",
"j c #b1b1b1",
"k c #b5b5b5",
"l c #bababa",
"z c #bebebe",
"x c #c1c1c1",
"c c #c5c5c5",
"v c #cacaca",
"b c #cdcdcd",
"n c #d1d1d1",
"m c #d5d5d5",
"M c #d9d9d9",
"N c #dedede",
"B c #e1e1e1",
"V c #e5e5e5",
"C c #e9e9e9",
"Z c #ededed",
"A c #f1f1f1",
"S c #f6f6f6",
"D c #fafafa",
"F c #fdfdfd",
/* pixels */
"FFFFDDSAAZVNMnzg,ihzvvvbbvcxxkgp;eahllzzzzlkjhau-qpfhjkklkkjhdpw-tagjkkllllkjgau-wpgjklzzzzlljfi;rdjzxcvbbvvvxlf,pkvMNBCZASSDDFF",
"FFFDFDSSZZVBMbxg,ihzcvvbbvvxzkgp;eahkkllzllkjgay-qifhhjkkjhgdae-epfhklzzzzlkkhdu-wagkklzxxzzljfi;rdjzxcvbbbvvxlf>pkbmMVCZASDDDFF",
"FFFFDDSAACVNMnzg,ihzvcvbvvcxzkfi;eahkkllzllkjgat-0udgghhhhgape-rafhklzxxzxzlkhdu-wahkllzxxzzlkfi;rdkxxvvbbbvvclf,pkbMNVCZASDDDFF",
"FFFDDDSAACVNMbxg>uhzccvvvvcxzjfi;wagkkllllkjhfar=9yaffgggfaiw-eafjlzxxccxxxzljfu;wahklzxxxxzljgp;rdkzxcbbbbbvxkf,pkvmNVCZASDDDFF",
"FFFDDDSAZCVNMbzf>ihzccvvvvczljfu;wpgjjkllkkjhdpr=9tadfffdauw=epfhkzxccccvcxzlkfi;eahllzxxxxzlkgp:rdkxxcbbbbvvxlf,pkbMNVCZASSDDFF",
"FFDDDSSAZCVNmbzf>ugzcccvvcxzljdu;wpfjjkkkkjhgdpe*8tpaadapuq-wpdhklxccvvvvcczljfi;eajllxxxcxzlkfp:rdkxxvvbbbvvxlf,pkvmMVCZASSDDDF",
"FDDDDSAAZCBNmbzf>uglxcccccxzlhdu-qpfhjjkkjhggaiw*7riappiyq=wpdhkzxccvvbbvvcxzkfi;rahllxxccxzzkgp;rdkxxvvbbbvvxlf,pkvMNBCZASSDDDF",
"DDDDDSAZZCBMmblf>uglxxcccxxlkhdy-qidhhjjjjhgfauq*5wyiuyr9*qidhkzxcvvbbbbbvcxzkgp;rajllxxcxxxlkfp;tdkzxvvbbbvvxkf>pkvmMBCZAASSDDD",
"FDDDSSAZCCBMmvld>uflxxcccxzlkhay-qudghhjjhgfday0&5qryte8*0uagjlxcvvbbnnnbvcxxkgp;rajlzxxccxzzkgp:rdkzxvbbbbvvxkf,pkvmMBCCZASSDDD",
"DDDSSSAZCVBMnvld>ufkxzxxcxzljgay=0uagghhhhgfapt9&30eeq7&8yafjkzccvbnnnnnbbvczlgp:rdjlzxcccxxlkgp;rdkzxcvbbbvvxkf>ikvmMBVZZASSSSD",
"DSSSSAZZCVNMnvld:yfkzzxxxzlkjgat-0uaffgggffaair8%17095&8tpfhkzxvvbnnnnnnnbvcxlgp:rajlzzxcxxzzkgp:rdkzxcvvbvvvxkd>ijvmMBVCZASSSSD",
"SSSSSAZZVVNmnckd:tfjlzzzzzlkhgat=9yadfffffaapyw6$<563%6riahjlzcvbbnnmmmnnbvczlgp:rajllxxccxzljfp;rdjzzcvvvvvcxkd,ijvnmNVCZASASSS",
"SSSAAAZCVBNmbcka:tdjllzzzlljhfpr=8tpdddfddaaitq5#:1<$4wuafjkzxcvbnnmmmmnnbvcxlgp;rajlzxxxcxzljgp:rdjzxcvvvvvczkd>ijcnmNVCZZAASSS",
"ASSAAACCVBMnbxja:tdjllllllkjgdpe*8tpaaddaaaiye93@-;@29tpdgjlxcvbnnmmmmnnnbvcxkgp;rdjllxxxxxzljfi;rdkzzccvvvcczjd>ihcnmNVVCZAASSA",
"AAAAZZCVBNMnvxja:rajkklllkjhgdiw*7riaaaaapiytw7<+$+<8wuafjkzxcvbnnmmmmmmnnvcxlgp:rahllxxxxxzljfi;eajlzxcvvvcxzjd>uhcnmMBVCZZAAAA",
"AAAZZCVVBNmbvzhp;rahjjkkkjjgfauq*6eupppppiute94:oX;5qtpdgjlxccbnnnmmmmmnnnvczlgp;rahllzxxxzlljdi;eajlzxccccxxzja:uhxbnMBVCCZZAAA",
"ZAZZCCVBNMmbczhp;eagjjjjkjhgdayq*5wyiiiiiute07<& #18euafhjlxcvbbnmmmmmmmnbvcxkgi;eahklzzxzzlkjdi;eahllzccccxzlja:yhxbnMNBVCCZZZZ",
"ZZZCCCBBNMnvclgi;wpfhhjjjhgfdpy0&4qtyuuuuteq84-oX*30ruaghklxcvbnnmmmmmmnnbvxzkgi;eahlllzzzzlkhdu;eahklzxcccxzlha>ygzvnmNBVVCZZZZ",
"ZCCCVVBNMmbvxkfi-wifghhhhgfdair9%30rttttreq84:O%O-5qyiagjklxcvbnnmmmmmnnnbvxzkfi;eahkklzzzzkkhdu-wahklzxxxxzzkha:ygzvbmMNBVVCCCZ",
"CVVVBBNMmnbczkfu-0idgggggfdapue8%28wrrrew074:+=-O:6eypdgjkzxcvbnnnnmmmnnbbcxzkfi;wagjklllzlkjhau-qpgjklzxxzzlkgp:tflcvnmNNBVVVVC",
"VVVBBNMmmnvxljdy-0uaffgffdaapye7$17qwewq084>+-,>@>7eupdgjkzxcvbbnnnmnmnnbvcxzjfu;wagjjllllkkjgay-qpfjklzzzzlljfi;rflcvbmMNNBVVVV",
"BBBBNNMmnbczlhat=9yaddddddaputq5$<60qq0974>+;11<@,7eupdgjkzxcvvbnnnnnnnbbvczljdu-qpfjjkklkkjhgat-0ifjjklzlllkjfi;rdkxcbnmMNNBBBB",
"NNNMMMmnbvxlkgar=8tpaaaaaapuyr04#,5798763:@:233<@,8ruadgjklxccvvbbnbnbbvvcxlkhdy-qidhhjkkkjhhfpr-0udghkkllkkjhdu;eajzxvbnmMNNNNB",
"MMMMmnbbcxzkhfpe*7eupaaaapuytw82@:266541;+:24541#,8rupdghklzxccvbbbbbbvvcczlkhay-0udggjjjjhhgdpr=9uaggjjkkkjjgay;wahlzcvnnmmMMMM",
"mmmnnbbvcxljgdiw*6wyiiiiiiyteq71+-1342<-+;146642#,8rupaghklzzxcvvvbvvvvccxzkjgat=0yafghhhhhgfaie*8yaffhhjjjhgfat-qpgklxcvbnmmmmm",
"mnnbbvcxzljhfay0&5qtuuuuuyteq95,+=><<,=O-<356652#<8eyiafghklzxxcccvvvccxxzljhfpr=8yadfgggggfdauw*7tpdfgghhhgfdpr-0pfjkzxcvbbnnnn",
"bbvvcxxzlkhfapr9&39ertttrreq972:O&-:;&O=,2466641@,7wyiafghjklzzxxxxxxxxzzlkhgdie*8tpadffgfdaaiy0*6riaadfgfffdaie=9uahjkzxccvvvbb",
"cxxxzzlkjhfaaue7$18qeeeewq0874<=o#&*$o&:1356664<@>6wtupadfhhkkllzzzzzzllkjhgdayq*6euaaaaddaapur9&4wypaaddddaapyq*7tafgjklzzxxccc",
"xxxzlkkjhfaaitq5$,690qqq008641:&X+#@X$-,1355653<@:5qryiadfghjkkkllzzllkkjhgfapt0&5wyipaaaaapuye8%30tiipaaaaapur0&6epafhjjllzxxxx",
"kkjjhhgddaputw83@:36788876531>=$.Xo.@&;,1244442>+;38weyipadffghhhhjjjhhggfdapue8%29ryyuiiiuyte05$18wtyuuiiiuytw7%3qypadfghjjjkkk",
"daaaappiutew084>+*,2333321<>;*$O   o#%-:,,<1<<>-O*<579wetyuipaaaaaaaaaaapiutrw93#,59qweeeewwq961@:480qweereww083#,7qrtuipaaaddad",
"rreewqq997642<:%X+&--;---=&%#+o.  .X+@$&*=---=*$X@=>1356890qqwwerrrrreeww008751;O&>24456665432,=o%:<3455665543<;O*,46790qweerrrr",
";;;-;--=**&%$#@o XO++++++OooX.     .XooO++++@+Oo.X+#$%&**==--;;;;;;;;;;;--=**&$@.O#$%&&&&&&%%$#+.o@$%&&&*&&&%%$+.O#%&*=----;;;;;",
"iiiuuutrew0864<-o$-:>>>>:;=&#+X   O#&=;:,,<<<,:=o%>3680wertyuiiippppiiiuuytew961@;36890q0009863,+=1578900009974<@;480wrtyyuiiiii",
"ffddaaapuyteq84>+*>132211,:=%O.. o$=:,134555643,+;49qetippaddfggggggggffdaaiutq6$18wrrtyyttreq83#,60werttyttew95$19eyupaadffffgf",
"kjjhggfdaaiyrq71@-1455442<:=#.O+.@*>146899000862#,7wtupadggjjjkklllllkkjhhgdait9%4qtuipappiuurq6%29eyyippppiuye8%4wypadfghjjjkkk",
"llkkkjhffapite83@:2566543<;%X#%$X$:14780qwwwwq85$19tiadfhjkllzzxxxxxxxzllkjgfauq*6eiaaaadaaapue8%4qyipaaaaaapit0&6rpafghjkllzlzz",
"xzzllkjhgfaiyr93#:3676541,*o%=-&o%,4780werrrre06%3qyaafhjklzxxcccvvvvccxzlkjgdie*7tpaddffdfaait0&5eupaadddfdapyq*7tadghjkllzzxxz",
"ccxxzlkjhgaair04#>367652<-O*:,>-O=169qertyyyttw8%5eiafhklzxcvvvbnbbbbbvvcxzkjgar=9yadfgggggfaauq*7rpadfgfggfdaue*8yaghklzzxccccc",
"vccxxzljjgdaitq4#>466531-O-,221>+;39qetyuiuiiyr0&6rafhjlxccvbnnmmmnmnnnbvcxzkhay-0udgghhhhhgfaie*7tadfgghhhgfair=0udhjlzxcccvvvv",
"vvvcxzlkjhfaptq5#>35642;O;14543<@:50eryiippaputq*8yagjkzccbbnmmMMMMmMmmnnbcxzjdu-qifhhjjjjjhfdpe=9yafghhjjhhgdpt=0ifjklxccvvbbbb",
"bvvccxzljhfaiyq4#>2442:+:2567751@,7qttipaaaaapyw*8udhkzcvbnmmMMMMNNNMMmmnbvxzkfu;wpgjjkkkkjjhdar=9uagghjjkjhhfat-qigkkzccvbbbbbb",
"bbbvcxzlkhfaiyq4#:131:@>36890973#<8eyupaaaddaaue=9ifjlzcvnmMMNNBBNBBNNNMMmbcxlgi;eagjkllllkjhfat=0idhhjkkkkjjgay-qpgklxcvbbnnnnn",
"nnbvvczlkhfait04@;<<;+>489qqw095$20ruiaddffffapr=0pgkzcvbmMNNBBBVVVBBBNNMmnvclhp;rahkllzzzlkjgay-qifhjkllllkjhay;wahlzxcvbbnnnnn",
"nnbbcczlkhfait03@-:;+:480wweew06$30tiaaffggffdat-qahlzvbnMNNBBVVCVCVVVBBNMnbczja:rajllzzxzzkkhay-qpfjjkllllkjhdu-wahlzcvbbnnmnmn",
"nnbvvczljhfair91+&*+:38qerrttrq7%4wyaadfgghggfay-wahzxvnmMNBVVCCCCCCCVVBNMmnvxja:tdkzzzxxxzlkhdu-wpgjkklzzzkkhdu;eahlzcvbnnmmmmn",
"mnbbvxzljhdaue7<O@O;38qettyyyte8&5wuadfghhhhhgau;eakxcbmmNBVVCCZZZZCCCVVBNMnbxka:ydkzzxxxxzlkjdu;wagkklzzzzlkhfi;rajzzcvnnnmmmmm",
"nnbvvxzkjgaiyq5:oX=37qetuuiiuyr9&5riafghjjjjjgdu;rdkxcnmMBBVCCZZZZZZZCCVBNMmbcla>yfkzxxcccxzljfu;eahklzzzzzlljfi;rakzxvbnnmmmmmm",
"mnbvcxzkjfair03* #,60etuippiiut0&6rpdfhjkkkkjhdi;rdlcvnMNBVCCZZZAAAZZZCCVBNmbckd>yfkxxccvcxzljfi;eahklzzxxzlljfi;rakzxvbbnmmmmmm",
"nnbvcxlkhfayw7:OX*39eruiaaaapitq*7tafghjkkkkkhfi;tflcbmMBVVZZZAAAAAAAZZCVBNmnvld>uglxxccvccxlkgi;rahllzxxxxzljfp:rdkxxvbnnnmmmmn",
"nbbcxzkjgair91@*+;5qtyipaaaaapyw*8taggjkllllkjfp:tfzvbmNBVCZZAAAAAASAAZCCVBMnvld>uglcccvvvcxzkgi;eajllzxxxxzljgi;rdkxxvbnnmmmmmm",
"nbvcxlkhdatq3#>,@,7eyuaadddddauw=9uaghklllzllkga:ygzvnMNBVZZAASSSSSSSAAZCVBMmvlf>uglccvvvvcxzkgp:rahllxxxcxzlkfi;rdjzxcbnnmmmmmn",
"nbcxxljgaie5$142#19rupaddffffaie=9udhjklzzzzlkha:ygxbnMBVCZZAASSSSSSSAAZZVBMmvzf>uhzcvvvvvcxxkhp;rajllxxccxzlkfi:rdkzxcbnnnmmmnn",
"bvcxzkhdpt7%4774$20yiaaffggffapr=0idhjkzxzzzzkha>yhxbnNBVCZZASSSSDSSSSAZZCBMmbzf>uhzccvbbvvxzlgp;rdjlzxxcxxzlkgp:rdkxxvbnnnmnnnn",
"vcxzkhday8&60q06%4wuaafgghgggdpr=0ifjjlzxxxxzlja>uhxnmNBVZZASSSDDDDSSSAAZCBNMbzf>ihzvvvbbvvxxkgp:rdjlzxcccxzlkfp;rdkzxcbbnnnnnnb",
"cczljgay9*7wrrw8%5eiadgghhhhgdat-qpgjkzxxccxxlja:uhcnmNVCZAASSDDDDDSSSAAZCVNMbzg,ihzcvbbbvvcxlgp;tajlzxxccxzlkgp;rdjzxcbbbnnnbbv",
"cxzkgdu0*8eyyyr0&6rpdfghhjjhhfat-qpgklzxcccxxzjd>ujcnMNVCZASSSDDDFDDDSSAZCVNMnxg,ihzvvvbbvvcxlga:rdjzzxxcxxzlkfp:rdjzxcvbbbnbbvv",
"xzkhdpw=0ruiiutq*7tpdghjjjjjhgay-qphklzxccccxzja>ujcnMNVCZASSDDDDDDDDSSAZZVNMbzg,ihxvvbbbvvcxlhp:rdjlzxxccxzljfi;rajzzcvvbbbbbvc",
"zkhdpw-qupaaapyw*8yafghkkkkjjgay-wahkzxcccccczkd>ijvmMBVZZASSDDFFFDDDSSAAZVNMnzg,ihxvvbbbbvxxlgp:rdjlzxxcxxzlkfi;rajlzccvvvvvccz",
"khfiw=wiaaaddaue=9uaghjklkkkjhdu;wahkzxcvvvvczkd>ijvmMBCZASSDDDFFFDDDDSAZZVBMnxg,ihxvcbbbbvcxlhp;rajlzxxxxzzljfi;eahllxccvvccczz",
"hfpe-wiadffffapr=9udghjklllkjhdu;wajzzxvvvvccxkf>ikvmMBCZZSSDDDFFFFFDDSSAZVBMnxg,ijxvvbbbbvcxlgp:rdjlzzxxxxzljdi;eahllxxccccxxzk",
"fae-wiafghhggdpr=0idhjkllllkkhdu;eajlzxcvvvvcxkd>pkvmMBCZASSDDFFFFDFDDSAAZVBMnxg,ijxvvbbbbvcxkgp;rajllzxxxzlkjdi;wahklzxxxxxxzkh",
"pr;epdghjjjhhfat=qifhjkllzlkkhfu;eajzzcvvvvvvxkf,pkvmMBCZASSDDFFFFFFDDSSAZVBMnxg,ihxcvvbbbvxxlgp:rajllzxxxzlkjdu-wpgkklzxxzzlkhf",
"q-radhjkkkkjjgay-qifjklzzzzlkjfi;rdjzzcvbbbvvxkf,pkvMNVCZASSDDFFFFFFDDSAZZVNMnxg,ihzvvvbbvvxxkgp;eahklzzzzllkhau-wpgjjlllzlkkhfa",
"-epfhjkllllkjgay-qpgjklzzzzlljfi;rdjzxcvbbbvvckf,pkvmMVCZASSDFFFFFFFDDSSAZVBMnxg,ihzvvbbbvcxzkgi;eahklzzzzlkkhdy-qpfhjkllkkjhfpe",
"tafhkkzzzzlkkhdu;wpgkklzxzzzljfi;rdjzxcvbbbvvxlf,pkvMNVCZASDDDFFFFFDDDSAZCVNMnxg>ihzccvbbvvxzkgp;eahklllzllkjgay-qidhhjkkjhgdae;",
"afhlzzxxxxzlkhdu;wahklzzxxxzljfp;rdkzxvvbbbvvxkf,pkbMNVCZASSDDFFFFFDDDSAACVBMbzg,ihzvvvvvvcxzjfi;eahkkllzllkjfat-0idgghjhhfdpe-r",
"gjkzxxcccxzzljfi;wahklzxxxxzljfp:rdkxxcvbbbvvxlf,pkvMMVCZASDDDFFFFFDDDSAACVNMbzg>uhzccvvvvcxzkfi;eagjjllllkjhfar=9uaffgggfaiw-ea",
"jkzxccccccxzljfi;eahllzxxxxzlkgp;rdkzxvvbbbvvxlf,pkvMNVCZASSDDFFFFFDDDSAZCBNMbzg>ihzccvvvcczlkfu;wagjkkllkkjhfpr=8yaddffdauw-epf",
"klxccvvvvccxzjfi;eahklzxcxxzlkfp;rdkxxvvbbbvvxlf,pkvmNBCZASSDDDFFFDDDSSAZCVNmbzf>igzcccvvcxzljdu-wpfjjkkkkjhgdie*8tpaaaapuq-wpdh",
"zzcvvvbbbvcxzkfi;eajllxxccxxlkgp;tdkxxvvbbbvvxlf,pkvMMBCZASSSDDDFDDDDSSAZCVNmbzf>uglccccvcxzlhdu-qpfhhjkkjhhfaiw*7eiappiy0=wpdhk",
"xcvvbbbbbvcxzkgp;rajlzxxcxxxzkfi;tdkzxvbbbbvvxkf,pkvmMBCZAASDDDDDFDDSSAZZCBMmvlf>uglxxcccxxzkhdy-qidhhjjjjhgfauq*6wyiuyr9*qpdgkz",
"ccvbbnnbbvvxxkgp:rdjlzxxcxxzzkgp:rdkzxvvbbvvvxlf>pkvmMBCZAASSDDDDDDDSSAZCCBMmvld>yflxxcccxzlkhay-qidghhhjhgfday0&5qryrw8*0uahjlx",
"vvbnnnnnnbvxzlgp;rajlzxxccxxzkgp:rdkzxcvbbbvvxkf>ijvmMBVCZASSSDDDDSDSSAZCVBMnvld>yflzzxxxxzlkhay-0uagghhhgfdait9%40eeq7*9yafjlzx",
"vbbnnnnnnbvcxkgp;rajllxxcxxzlkgp;rdkzxcvbbvvcxkd>ijvmMBVCZASSSSSDSSSSAAZCVNMncld>yfkzzxxxzlkjgat=0uaffggggfaair8%27095&8tpfhklxv",
"bbnmmmmnnbvcxlgp;rdjlzxcccxzlkfp;rdkzxcvvvvvcxkd,ijvnmNVCZZSSSSSSSSSAAZCCVNmnvka>tfjzlzzzzlkjfar=9yadfffffdapyw6$,463%6riagkzzcv",
"bnnmmmmnnbvczlgp:rajlzxxxcxzljfi:rdkzxcvvvvcczkd>ijcnmNVCCZAASSSSSSAAAZCVBNmbcka:tdjllzzzlkjhfpr=8tpdddfddapitq5#:1<$4wuafjkzxcb",
"nnnmmmmnnbvcxlgp:rajllzxcxxzlkfi;rajzzccvvvcczjd>ijcnmNVCCZAAAASSSAAAACCVBMnbxka:tdjllllllkjhdpe=8tiaadddapiyr93@-;#29tpdgjlzcvb",
"nnmmmmmmnnvcxlgp:rajlzzxxxxzljfi;rajlzxcvvvcxzjd>ujcnmMBVCZZAAASSAAAZZCVBNMnvxja:rahkklllkjhgaiw*7riaaaaapiutw7<O$+<8eiafhkzxcvb",
"nmmmmmmnnbvcxkgp;eahllzxxxzlljfi;eajlzxcccccxzja:uhxbnMBVCCZZAAAAAAZZCVVBNmbvzha:rahjjkkkkjgfauw&6euppappiyte04;oX;5qtpdgjlxccbb",
"nmmmmmmnnnvczkgp;eahklzzxxzlkjfu;eahllxccccxxlha>yhxbnMNBVCCZZZZZAZZZCVBNMmbczhp;eagjjkjkjhfdayq*5wyuiiiiute071% #18euafhjlxcvvn",
"mnmmmmmnnbvczkgi;eahklzzzzzlkhdu;wahklzxcccxzlha:ygzvnmNBVVCZZZZZZZCCVBBNMnvclgi;wpfhhjjjhgfdpt0&4qtuuuuyteq73-oX*30ruafhklxcvbn",
"nnmmmmmnbbvczkfi;eahkklzzzlkkhdu-wagklzxxxxzzkha:yfzvbmMNBVVCCCZCCCCVVBNMmbvxkfi;widhghhhggdair9%40ettytreq84:O%O-5qyiagjkzxcvbb",
"nnmmmmnnbbcxzkfi;wagkklllzlkkgdu-wpgjklzxxzzlkgp:tflcvnMNNBVVVVCCVVVVBNMmnbczkfu-0udfggggfdaaue8%29wrrrewq84:+=;O:6eupdgjklxcvbb",
"nnmmnmnbbvczljdu-wpgjjllllljjgay-qpgjklzzzzlljfi;rflcvnmMNNBBVVVVVVBBNNmnnvxzjdy-0uaffffffaapyw7$17qewwq084>+;,>@>7eupdgjkzxcvbb",
"nnnnnnnbvvczljdu-qpfjjkklkkjhgat-qifhjklllllkhfi;rdkxcbnmMNBBBBBBBBBNMMmnbczlhat=9yaddddddaputq5$<69qq0974>+:<1,@,8eupdgjkzxcvbb",
"bbnbnbbvvcxzlhdy-qidhhjkkjjhgfpr=0udghjllklkjhdu;eajzxvbnmMMNNNBNNNMMmmnbcxlkgar=8tpaaaaaapuyr94#>5798763:+:233<@<8euadgjkzxccvb",
"bbbbbbvvcczlkhat-0idgghjjjhhgdpr=9yaghjjkkkjhgay-wahlzcvbnmMMMMMMMMMmnnvvczkhfpe*7riaaaappuytw82@:356541:+;24541#,8rupdghklzxccv",
"vvvvbvvccxzkjgat=0yafghhhhhgfaie=8yafghhjjjhgfat-qpgklxcbbnnmmmmmmmmnbbvcxljhdiw&6eyiiiiiuyte071@-1342<-O-146652#,8rupaghjlzzxcv",
"vcvvvccxxzljhfpr=9yadfggggffdauw*7tpddghhhhggdpr=0ifjkzxcvbnnnnnmnnbbvcczlkgfayq&5qtuuuuyyteq95,+=>1<,=O-<356651#,8eupafhjklzxxc",
"xxxxxxxzllkhgdie*7tpaddfffddapy0&6eiaaffffffdaie*9udhjkzxccvvbbbbvvvccxllkhfapt9%30etrtttrwq973:O%-:;&O=,2466651@,7eyiadfhjklzzx",
"zzzzzzllkjhgfayq*6euaaadddaapur9&5wypaaadddaapyq*7tafgjklzzxcxxccxxxzllkjhfapye7$18qeeewwq0964<-o#&*$o&:13566641@>6qtypadghhjkll",
"lllllllkjhgfapy0&4wyippaaaapiyw8%30tuipaaaaapir0&6rpadgjkklzzxxxxzxzlkkjhfaaitq5$,690qqqq98641:&X+#@X$-,2346653<@:5qryiadfghjkkl",
"jjhjjjhggfdapue8%29ryyuiiiuyte05$18wttuuiiiuytw7%4qypadfghhjkkkkkjjjhhgddaputw83@:36888886531>=#.oo.@&;,1334432>+;39wryipadffghh",
"aaaaaaaapiutrw93#,59qweeeeww0961@:480qweereew073#,7qrtuipaaaaddddadaappiytrw084>+*,2333321<>;=$O   o#&-:,,<<1<>-O*<579wetyuippaa",
"rrrreeewwq98751;O*>24456655432,-o%:<3455665543<;O*,4689qqweeerrrreeewwq997642<;%X@&---;--=&$#+o.  .XO@$&*=---=*$.@=>1356890qqwee",
"::;;;;;;--=**&$@.O#$%&&&&&&&%$@+.o@$%&&&&&&&%%#@.O#%&*=---;;;;;;;;;;--==**&%$#@o .O++++++OooX.     .XXoO++++@+Oo X+#$%&**==--;;;",
"pppppiiuuytew061@;369900q099863>+=1578900009974<@;48qwetyuuuiipiiiiuuytrew0864<-o$-:,>>>:;=&#+.   O#&=;>,<<<<,:=o&>3680qertyuuii",
"ggggggfddaaiutq6$18wrrtyyttreq83#,60wertyttrrw95$18eyupaaddfffgffffdaaapiyreq84>+*,132211,:=%O.. o$=:,134555642,+;48weyuipaddfff",
"lllllkkjhhgdait9&4qtuipappiiurw6$29eyuiipppiute8%4qupadfghjjjkkkjjjhhgfdaaiyrq71@-1455542<:=#.O+.+=>246789009962#,7wtupadghjjkkk",
"xxcxxxzzlkjgfauw&6euaaaadaaapye9%4qyipaaaaaaait0&6rpadgjjklllllzlllkkjhffaaiye83@:2566543<;%X#%$X$:14690qwwwwq85$10tipdfhjjlzzzx",
"vcvvcccxzlkjgdie*7tpaadfffdaait0&5euaaaddfdaapyq*7tafghjklzzzzxxzzzlkkjhgdaiyr93#:3676542>*o%=-&o%,4780werrrre06%3qyaafhjklzxxcc",
"bbbbbbvvcxzkjfar=9yaffgghgfdaayq*7riadffggffdaue*9yafhklzzxccccccxxzzlkjhgaaur04#>367652<-O*:,>-O=169qertyyyyrw8%5eiafhklzxcvvbb",
"mmmmnnbbbcxzkhay-qudghhhjhhgfaie*8tadfgghhggfdpr=0udhjlzxccvvvvvvvcxxzlkjgdaitq5#>366531-O-<221>+;48qetyuuiiiyr0&6rafhjlxcvvbnnm",
"MMMmMmmnnbcxljdu-qifhhjjkjjhfdpe*9yafghhjjhhgdat=0ifjklxcvvvbbbbvvvcxxlkjhfaptq4#>36641;+;14553,@:50eryippppputq*8yagjlxxvbbnmmM",
"NNNNNMmmnbvczkfu;wpgjjkklkjhgfar=9uagghjjkjhhfat-qpfjkzxcvvbbbnbbbvccxzljhfaiyq4#:2442:+:2567751@,7wryipaaaaapyw*8udhjzxvvnmmMMM",
"NBNBNNMMmnbcxlgi;eahjkklllkjhgat=0idhhjkkkjjhgay-qpgklxcvbbnnnnnbbbvcxzlkhfaptq4#:132:+>36899973#<8eyupaaddaaaue=9ufjlxcvbmmMNNB",
"VVVBBBBNMmnbclhp;rahkllzzzlkjgay-qifhjkllllkjgdy;wahlzxcvbbnnnnnnnbvvxzlkhfaitq4@;<<;+>479qww085$19rupadfffffapr=qpgkzcvnmMNNBBB",
"VVVVVVBNNMmbczja:rajllzzzzzkkhay-qpfjjklzllkjhdu-wahlzcvbbnnmmmnnnbvvczlkhfait93@=:-+>480weeew06%30yiaaffggffdat-qahlzvbmmNNBBVV",
"CCCCCVVBNMmbvxja:tdklzzxxxzlkhdu-wagjjllzzlkkhdu;eajlxcvbnnmnmmnnnbbcczlkhfaur92@**+:380errttrq7%3qupadfgghggfay-wahzxvnmMNBVVVC",
"ZZZZCCVVBNMnbxka:tfkzzxcxxzlkjdu-wagkklzzzzlkhdi;eajzxcbnnmmmmmnmnbbvczlkgdpue7<O@O;370ertyyyte8&4wuadfghhjhhfay;eakxcbmMNBVVCCZ",
"ZZZZZZCVVNMmbckd>yfkxxxcccxzljfu;wahklzzxzzlljfi;edjzxcbbnmmmmmmmnbvcxzkjgdiyq6:oX=37qrtuuiiuyr9&5epafghjjjjjgdi;rdkxcnmMNVVCCZZ",
"AAAZZZCCVBNmbcld>yflxxccccxzljfi;eahklzzxxzzljfi;rdjzxvbnnmmmmmmnnbvvxzkjfair93* #,60etuiippiut0&7rpdfhjkkkkjhdi;rdlcvnMNBVCCZZZ",
"AAAAAZZCVBNmncld>yglxxcvvvxxzkfi;eajllzxxxxlljfp;rdkxxcbnnnmmmmnnnbvcxljhfayw7>oX*39eruipaaaaptq*7tafghjkkkkkjfi;rflcbmMNVCCZZAA",
"SAASAAZZCVBMnvld>uglxccvvccxzkgi;eahllzxxxxzljfp;rdjzxcbnnmmmmmmnnbcczkjgair91@*+:5qryiaaaaaapyw*8yafgjklllkkjfp:tfzvbmNBVCZZZAS",
"SSSSAAAZCVBMmvlf>ugzccvvvvcxzkgp:rdjllxxcxxzzjgi;rdkxxvbnnmmmmmnnbvcxlkgdayq3#>,@,7eyipaddddaauw*9udghkklzzzljgp:ygzvnMNBVZZAASS",
"SSSSAAAZCCBMmbzf>ugzccvvbvvxzlgp;rajllxxcxxzzkgi:rdkzxvbnnnmmmnnbbcczljgaie5$142#19ripadfffddaie=9udhhklzzzzlkga:ygxbnMBVCZAASSS",
"SDSSSSAZZVBNmbzf>ihzcvvbbvcxxkgp;rdjlzxccxxzlkfi;rdkxxvbnnnmnnnnbvcxzkhdpt7%3774$20yiaaffggffdir=0idhjlzzzzzzkha>yhxbmNBVCZAASSS",
"DDSSSSAAZCBNmbzf,uhzvcvbbvcczlgp:rajlzxxccxzlkfp;rdkzxcbbnnnnnbbvcxlkhfay8&60q06%3wuaafgghgggdpt-0ifjklzxxxxxlha>uhxnmNBVCZAASSD",
"DDDDDSAAZCVNMbzg,ihzvvbbbvvcxlhp:rdjlzxcccxzlkgp;rdjzxcbbbnnnnbvvczljgay9*7wrrw9&5eiadfghhhhgdat-qpfjkzxxccxxljd:uhcnmNBCZAASSDD",
"DDDDDSSAZCVNMbxg,ihzvvvbbbvcxlgp:rajzzxxccxzzkfi;rdjzxcvbbbbnbvvcxlkhai0*8rtuyr0&6rpafghjjjhhfat-qpgklzxcccxxzja>ujcnmBVCZASSSDD",
"DDDDDSSAACVBMbxg,ihxvvbbbbvcxlgp:rdjlzxccxxzljfi;rajzxxvvvbbbvccxzkhdpw=0tuiiut0&7taffhjjkjjhgay-wpgklzcccccxzjd>ijvmMNVCZASSDDD",
"FFDDDSSAZZVNMnzg,ihxvvbbbbvcxlhp:rajlzzxcxxzljfi;rajlzxvvvvvvccxzkhdpw=qypaaapyw*8yafghkkkkjjgdu-wahklxccvvcczjd>ijcmMBVZZASDDDD",
"FFFDDDSAAZVNMnxg,ihzvcbbbbvcxlgp:rdjlzxxcxzzljfi;eajlzxccvvvccxzkhdpw-wiaaaddaue*9uaghjklkkkjgau-wahlzxccvvcczkd>ijvmMBCZASSDDDF",
"FFFDDDSAAZVBMnxg,ijxvvbbbvvcxkgp:rajlzxxxxxzljfi;eahklxxccccxxzkjfpe=wiadffffapr=9udghkklllkjhdu;eajlzxvvvvccxkf>ikvmMBCZZSSDDDF",
"FFFFDDSAZZVBMnxg,ijxcvvbbvvcxlhp;rdjllzxxxzlkjdu;wahklzxxxxxxzkhfar-eiafghhgfdpr=0idhjkllllkkhdu;rajlzxcvvvvcxkd>pjvmMVCZASSDDDF",
"FFFFDDSSAZVBMnxg,ihxvvvbbbvcxlgp:rahllzxxxzlkjdu-wagkklzxxzzlkhfar-epdghjjjhhfat-qifjjklllllkhdi;rajzzcvvvvvvxkf>pkvmNBCZAASDDFF",
"FFFFDDSAAZVBMnxg,ihzvvbbbvvxzkgp;rahklzzxzllkhau-qpgjjlllllkkhfpe-radhjkkkkjhgay-qpfjkkzzzzlkjfi;rajzxcvvbbvvxkf,pkvmNVCZASDDFFF"
};
