/* XPM */
static char *texture5[] = {
/* columns rows colors chars-per-pixel */
"64 64 64 1",
"  c #1D1A1B",
". c #221D1E",
"X c #2D231F",
"o c #2B2628",
"O c #332C2D",
"+ c #342D32",
"@ c #34312D",
"# c #3B3537",
"$ c #2E2D30",
"% c #3C3A42",
"& c #433A3B",
"* c #453D43",
"= c #48413E",
"- c #51423D",
"; c #4A4547",
": c #4D4A52",
"> c #544B4B",
", c #564D53",
"< c #58514D",
"1 c #5B5557",
"2 c #4F5053",
"3 c #5C5A63",
"4 c #5E615D",
"5 c #5F6469",
"6 c #635A5B",
"7 c #61534C",
"8 c #665D63",
"9 c #715D68",
"0 c #69625D",
"q c #70635E",
"w c #6B6567",
"e c #6E6A72",
"r c #6E7073",
"t c #74696A",
"y c #756C74",
"u c #79726E",
"i c #7A7477",
"p c #6E706E",
"a c #7D7982",
"s c #7E8183",
"d c #816E77",
"f c #82756C",
"g c #84797A",
"h c #907F73",
"j c #857C84",
"k c #947F8A",
"l c #8A827D",
"z c #94877B",
"x c #8A8488",
"c c #8C8892",
"v c #948989",
"b c #958C94",
"n c #9B938B",
"m c #9B9497",
"M c #8E908D",
"N c #9D99A1",
"B c #A3948B",
"V c #A49898",
"C c #A59397",
"Z c #A49AA4",
"A c #ABA099",
"S c #A9A3A9",
"D c #ABA8B2",
"F c #B5ABB0",
/* pixels */
"o4iiy38j9yt6dd6tkNZkZZk93*j,;1ewyccwecccaw:t98e88e8,3a,9939e#+&*",
";2raaa,3*9ddd9qjkZZZDkka9:39eiaiacci%2jcj98yyiaeeya8339999ey**;*",
";:1ayad7dgdt66dvNZZZZDk999jadgxxjcbcg,:aj1,dyiiaaaaa33:a3339:*:;",
"*,*;yjkjd96,,9jxbkbZZkkjt*k9wikcmmNbbj91d7@iiair9aaaaaaa53*9:*,%",
"%:&*9gt>,9969yjvcbCZbcbdj,kjggcbmZZCbkt9tto;iiitaaaaaaaaa8,8,***",
"%*O:89,>,yjytdkbbbbCvkkdk*ivkbCCZNCmct7t666+2irr5aaajjcaaa93,#**",
"#*o*8w9,9gjagxcvbmCbvkjik7dxvbmNZZZmx99gy369#>traaaakkkkjae8,+**",
"%*.*9ee69jkjjcvvvcbvxjigd99kxCmCZZZmc<9giw96w@,t9a3aajakaae9,o*%",
"**X1yy7>6gvjxcvxxkcvvhgu<68icbbcbZmbc<9glji88tO:eyyeaajsaaa93o**",
"&&o6ykh7=;1,1wiaddjkhkg7666>6jvvvckkj<wvbvxi196X,yye5eaia33,9o*+",
"&XO69kvvttut6w68,&6figg>kt9dq,uvcgigl=tMmbcxe69<.;:*+$oo +o+9*+&",
"**&,dvgu6tt66wtdf6;&&&66j67fgd<0gjhxl;wmmmbMgt7w7>7<01<;%+%*6,+*",
"*,**i8886yyttygdgtittq1199qtfhhq1wgjx<6cmbmbxx66f8ugj1w113,893+*",
"&&*o8:39yglgghggguuyfut9wt97666tutwug61xcbmbccaet1ycj80w399y99+o",
"....*,tggvvxxxvxgljgutd87gufuuqqulgtg6,xscbbcvjg8;imce192:*,76*o",
"&,69&6dvxnCnvvvvxxxjjii>tgihlutwttugg6<faaccxccy8;4pye;;>*76696*",
"+&,:@6dnmVmCmbbbxxxxxlw>glMnvluttwtflw=uuivbkcjey1,8ww66686<>*#O",
"+;1;O6jbmmmmCbvvvxlxlg,<iuMmmMiyttwwuu#tixccxi8tt6uiyt9w6<-;;#+$",
"*8w1$0vmmmBmmbvhvxlxxl11liMmmvitttwett;>gxcji86,>;ww6>6;*&;,:1>*",
"7tlw@8bZVVmbmbvgfigxlgq7uxnbmbittpttft8&gxcy96;7<6tt1=;O#*,1w911",
"wyyw*0xZZbvggq6#&>&>6fp=2116ugguuitwlli&iMawp<<68tpt8<;O$;1we9w8",
"yew,#1ei3*&&--qq&utwtfuttfgw,>,660pulxx>wx8uw068euew83>+#:5eeeey",
"ie8>,*><769ufhvz&fbgt0wt99tdgtyut7<><0u9@wwu6w1qyyyw1::&@>88eeaa",
"ye9*gdfghguytigv<6mgutut69yijgthzguqwwtg6tgu<0<wgiy032::;%38etee",
"1#@1ay8816ugglxxu>VliigiuxxlMvxxxgt686,66th977<uuip141:;;o<8ewee",
"o$8xxyw818ixxbvvx>nxxjxxgxccmmMbvi8,,;&+>ff<w76giiw0w6,-:##15w,#",
">;8iijjjw8xbVZbxb6gmMglirxmmmmmvxw;,8,*&6dy;67qgiiteww>;;1##<,;:",
"6w83bmCvjavVASmMcu0mmxggxbmMZmbgt<1<,,>7ww67q7quuuuiyw:;;2,=>w66",
"<q1>bmVbvcbZSSmmvj>vVnxvMbmmmbkt<60<111,68,w60quuiliuw<:;>,,69w<",
"+o*&jmbbmmVDFSSmbk>gnbmbxbmmCcg6<10<,t6116:tqq6ppsaiw<>,>1<w1,1#",
">@&;yvxbVNZDFSmbbbt,bbbMxccbjdt;<761<ww11,<616606ppw1;>;6;4r38:+",
"2:&:yacjmNZSDVxxxji:vmMbcxbj;t,><166tep661<<><2->1<<>&****ware;#",
",;+:jiccbSVZZbggddv66vxxcay*6l;#>>60pyyw101rt0<&&&&>;**#:,eaae:%",
">;::aucZmZmbbbgggnnv-tlgiw#7hzu#;<<4www10<1wwtutq>&&;<;;6eaaaa;$",
",;3#uimNbNvbcxxvfvvvf1gii%>dggx1#<1<1e1:1;wt8,6wuutqw6&wisxaaa:%",
";+32ibmbixdtivVv6Czvv66u6@1wgxgl-=<<1w1,1=0rp1,68ty6i23iaccser%%",
";#e;weyt888dlfhg,ncgjj>t;@3rlsllg#<<6113<<wlly6wte1;t;wesxccaa%;",
":;i:&#&6tfzgut1j&&6ghnf>;10gxlMxx1&<1121<0pxxjaity:11:upscccsa%:",
">;yiaduyuuq0dz7gxfkvvzvtfu6gMMNMjj2&<<1:6uxxxxiarw;6;1iagxxcci#:",
"1;8<66680w41gv,vhBvffgzhvl1uxMANcjv&;11;wgxxxsxjtwo+;#;8eiaiww*1",
"w1;*>wwwtaglg;ukCCnlfggvng;wiMSNNxjt<11>ygxcxcxxii0=601>;<<;;=2w",
"52,pwtiixbmb<gvxCACnnhtunl#0imSSZbggt61>pgxvxxxgiuu06weewwqwp22w",
"=16618xcbNZwuvfzBnVvggt6zl=0lMSSZcxigt1;wgixMxxgi<12;618ewww,71=",
"160wjivcNmb7guvvBvnguiigxz;1gMNSDNcipuw;wi1uxxui6<44133wttpu,**6",
"=118jgbjmmi6yuVnbnvillxmzl14xMNDDZcjayt=8i6qlluu>0wpe513wpiu8;#&",
"<61eNicxmVuttzBvvnVhxvmnzz4<lMADSDNciew1<wttlur28prrr33wtuuu61;:",
"<4<1ZugmVVww6BVlvBnvznzzzz01iMNDDSNcgw66=0uwiuw;eaire358uuiuw1,>",
"<12emtcmCB6u6BVgMVBnzzzffu0<usNSDSNckyw661<1wu;4rssaee91tyiie1,:",
"24>1xwcNmx7gwAABVBBBvnzzhzt>ixmSDSNmxiewww1##;;pacsaeww2eeiar311",
"40<;xycNmtwdqAABAABnzzzzhlf<icmSNNbmMxrwetup<$4isscaewe:weiarw41",
"101<a1bmm6gyfBBBAAAzzzzzzlu1iMmZNNbmMxip3yii4=eyxsaaree:wtuir041",
"1p1;a8bmx6ntqBBBAAAzzBVmnvu<gxMNNNMcbxgr51ww#1rccxaieee:twyip053",
"3ey2gewb19kqhBBBAABzBmVVVng<ulMVNmccxsur3,1>@5ajccxirra2wtiut0w1",
"4expij>,>gB9BCBkzAAABnnVVvi<qMccbbbMxsi3:>,O;raxcxcsaaj18tutpw53",
"3pcyyxi669kdBzBzznAAAVVBVniw<ilxccbMxiw,19&&4rsccscsxsxwweppeep4",
"5ecx6xxj>tdfBBBBzzMVNASVmnlgt>plxxbxje9t97@>wscaccccaiiw6tyryye5",
"55ac<tjd&6y1>nBnBnzzVAAZVbgggw>wxcMxt60ut#;4acsacbcxxaje8eutpp55",
"00pw&8jjugvx&-fzBBBzznAZVMffq6u&1xaetijgw#1racaaxjjcbaxy<wwpww10",
"1ww;#pikvkzgd7&&6znBnMnVVnu<6tVi%4ribZVV:.1easaas5ecxrji6pww1:$<",
"333,%rjjgt7dxvhq2-1wpljhnnu=->bmiwixVmcx8$.,raaeaayjgijj1044:$23",
"5311:jcd,,vCCCBiakj818,;66;;;<vCgiibbxw<81+.*:8eyaaayeyj61;>$#33",
"2323ead>tvkjyyj6imNZZNx16w6<*gnnijmca2;ij9,9:%%%+$*%+*3181;#o#::",
"$2raae,9vt9yy6#,vCCZCCbtw*6gkxjcccbi*,accy,yaae93:,,,;;::1we%#;$",
" 3sia89dud91du>6vbbbZmv98,mvge9yxcceejccc9,y88ee8e83:;,89ett@#%%"
};
