/* XPM */
static char *texture3[] = {
/* columns rows colors chars-per-pixel */
"128 128 16 1",
"  c #8C7D6A",
". c #8F806D",
"X c #91826E",
"o c #9A8B77",
"O c #9F907C",
"+ c #A1927E",
"@ c #9F9280",
"# c #A89A87",
"$ c #AEA18E",
"% c #AFA291",
"& c #B0A28F",
"* c #B6AA98",
"= c #BCB09F",
"- c #BCAFA0",
"; c #BDB1A1",
": c #C0B4A4",
/* pixels */
"&$$$####+$$$$$##$#$$#$$#++###%**%**;--=*%%%$**-*---=*=****;==&#$##&#$$##@###+#+++######&######&&#&###@#&$$&$#$$#$$#$$+@O$#$*****",
"$$$$$###+$$$$$$##$#$$$$##$###=::;-;;;;;;-%#$%***************=&##$##&&&####$##+##+#####&&#####&&&#&$##@#&&&&$$+$##$$$$@$$@$%==:==",
"%$$#$#%#+$$%%$$$$$#$$#$$$$$##*==---*-----$#%#%&&&&&*****=**==&$$$#&##$&#$%$######&###&&&&&&##&&&$$#&&@##*&&&$$$$$$##$$#$%#$====*",
"&&%#$$$+#%%***$&$$#$$+$*$$$$#===***------$#####&#$#&#&*****-*&$&&&&##&&&#%#######&###&*&&&&#@&&&##&&#@$&&**&$&$$$$@$%%$$$$$=*=**",
"$#####$+o#######$++$$$&&%$#$$*==--=*=---*###@+#&&#####&&&**-*&+#+##$#&&&$$$#+####&##&&&&&&#######@#&#O@##$+###++@$$#$$$#$#*;;;==",
"%##&%**$ooO+##XoO+++$++$$$##$=::;---:===*######&#####%###&&&&+++O######$###$#+##&&&&*&+######&&#&&***@ O+##OX+++###$$$$$#%%;;;==",
"***=====%**==*@####$++$$$##$%=::-*-:=--**$$##########&%#&#++#++#+##+##$$$#$#####&&&##+ +@ #@&***:-=-:****==&####$+@+#$$##$*;;-**",
"***====;======###++$$$$+#$##%=;==--:*-==*%$#########%%&#+#&&#########$#$##########+++#+ @#&@#**--*--=:*-;==&###+O$$$$+$$##*;;--;",
"*===-******-*=$#$++$####$$##$====:---*=**&&#+&&+#####&#+#$&###&#+&++###$%##$######+### +O####-*----&****:--*##++######%$##%:=;;=",
"***=--*****-=*$#&+$+###$$$$$$*:=:::**-***&##&++##$$#&&###$##+&&#++&$##$$$$#$#$########+OO@#@#-***--******--%$$$##+####$#$%*;;::;",
"*%*=*****=--*=$@$+++#####$$$$=:::==--***=&&&+++&#$+#&&+++&#+++##++++$+#&$$#############O+@#@@*&*:****-*=-***####+#+$##%%#$%::;;;",
"*****%**==-**=@oOOooOoOoOOo++=:=----==***&#&&++++++##$+++++++++o++OOoOoOOO@O@@###&####&&###o@****-%%&==--*-$OooooOOOOOOO@@%::==;",
"=**==%%*=***=*%%$$++%%%$$$$@#*:=-:--==-**&#&*&#&&&&&##$$#+#####&&$$&%##%&##$&*&&##&&&#&&&&&o@:***:*%*******%%$%#+$%$%#$%#@%;:==;",
"**===*%**=*****-==::;;===:*#$*=:-=::;--**#+#+##*=:==****=;***=-:====::;:;&&****&++++##&&&#& @-**==**&-:**-**==;===::;;:;#%%-;;;;",
"*%==*%****;;=*====::=*=;::*$**===:::-*-**+o+++#&*=*&&***====**========;=;*&*=*=*ooO##@#&&#@ @*&*=*%%*-**:-=*========;;;=%***;;=;",
"*****&*===;;;==*=:::===:==*%**:=-;:::-***@O+++#*&****=*==;;===-=====*=;==*&****&+o+#@#&*&&o @-********---:-=*==;:==*-;==%**-;;;;",
"%********===**=====*%=*===*%**;:--;;;;=%%#O#+##*%*******--=**-*-==***----*%**%**#+####&=*&+X#*&&*******===*======**=====%**=;:;=",
":**==*==*=*=*%*****=*===:;****;:====-==%%#OO#++==*-=*--=-**&*=***==*-*-;-****=**$$%$#&#*-*#o$:-*==*====***%*****=*=*=;;=***=:;-=",
"=;*=**=====**=*==*======:=****:=*=====*####O+##***-**=;-=**==*-*====--;;*****-==***=*-%**&##&::-==**=====**=*=*=========*=*;:;*=",
"%=*=*#%**==*==**========-*%%%$%**&*%$&%%##$####$#*-%$%*-*=*==**-=====-;-*%%$%%*=**%%%%%##&&*&%*-==$$%==***=**==========%#%#%%%%*",
"*=**%$##%*=**=**=****=*=**#$%*%*=*%%%$$$##%&##$&%**####%*-*--&*-***=*=***#%**%*=*%*%%%%#&&&&%&****$##$%==*==********===%#%*%****",
"==%*$##O#*=**=**=*****===*%%****==%%%%%$#%&&&####**###@$*-**-**-****==*=%#%****=*%%%%%%#####%-:**%$##@%*=*=**=*=%****=*%%*****=*",
"=***%$$#%%%*******%**=****%*****-=***%*$#%%&#####$*####&&********%***;=********;;*%**%&####@%:-**%$##$*%*******%***===********==",
"==*%%$@@%====*******=*=*********-****%%%##%&%#####*&###*----*******;*****%*****=****&%%#@##@$::**%$$@#**==********=**********==*",
"==****%#%====*==========*==**===-**%*%%*%#%%$#####***$#*::-**---;=======*=*=====**%*%*%#####$--***=%%#=;=*****=======*=***====-*",
"=%%%%**%$%$%$#%%***=*=********=*-*%***%*%%*%%$$###&***$$&&##$&&**=*************=*%***%*%%###$:*$%%***$%$$$$$%**=**=********=***%",
"=*%%%%*%$$$$##%$$$%%***********=*%%**%*%%%***%%###%%%*$##&##$&&&%%*%*******=*==*%$****%%%%##$**%%$%%%%%$$##$%%%%*%*%***=****--*%",
"****%**$$$$###$#$$$$$$$$%=*==*==*%$%-%***%&**&%###%%**#%&&&##$##%$%$$%%***=*=-**%#**%***%##@$--**%%*%#%$$#####$$$$$%%****===-*%%",
"=*%*%**%$*$##$##+#$$##$$$$%***=*%*%******%**%%%$##****$%&&####@#$$$##$$$*%**==*$*******%%%$@&--%$***%#%%####@###$#$#%%%%%*=**%%*",
"*%@%%#%%$%$##+#++$$####$$$#$****%**%***%%#%%*#####$##%#$&&#@#+###$######$$%****%*%%*%**$#$###-&##$#$%$%%$####@#$#######$%%******",
"%$@##%%%%%%%#####$######$##$##$#$%%****%%$$%########%%$$&*######$$####$$#$$@##%$****%%%##$$##&%#+##%$$%*%######$#####%##%###%%%%",
"#$@@@o@#$**$%###+#$#@##$%$#####@#*;;;==*-=-**#@##@o@o#$%*&&&###@$##+@$$$$@@$@##%*----**-***%@@&#OOOo#$%*%$$##########%%%#@##@@%;",
"o@@OooO$$%**%$$@##++##$&&&++#&&##*====-=*-=*=#Xo#@ooo@$%*%*%$###$+#+##$&#+##%##&*=-=====**-*+o++Oooo##***%%###+#@###$$$++$$&##&=",
".ooXo+$$$***%$@$#####$#&&++&&&#+#*====**-*=**#oXooX@##$$***&#####+$#$#&&###$####**=-*=*==-=&+ooOXoO#$$$**%%$########$$$O+$$#+#&*",
"OOo.o+O$***&$$$$$+$$###&&#+#$+#+#&==*==*==;=*#OOoX o+#$*%*&$&$##+&&###&&#+####+$*==-=*=*===*+++O.X+O#%***%$$##@#$$##$$$O+$$$+#$*",
"@@@oooo@%*&$O$$++++#+#$&$#++###+#*=*==*==*=**#O@O#oooo#***#####++##+#&&##++#####**=*===**-**++++OoOoO$%*%##$##+#$#+$$$$$+$++#+&*",
"#@OOOOoO$$$$O$$$O#$+#+#++#+#OO#++&*====*=**=*#O#++O#oo#%%%#+#$$O$##++#++++#OO#O#**--==*=**-&##++OOOOo+%%%#@$##O#++++$O+@++O+++&*",
"##@OOOoO$$$*$&$$&$$$+oXoooX   XXo&*=*===*==**#$$##OO#O#$$%&$%&&&&&&+XooOoX  XXo+&---=;=*===&+&&+OOOOO$$%%%$%%%%$&$ooooOo   XoX#&",
"$$$#+O+$$$$&$$$$$$+$$$+#&#OXo#OOo#====**=*==*##$%##OO#&&$%*$%$$%#$&&+##$#oXO+OoO**===**====&+&&&#++++$$$*%#$$$$#$$$@@$$+oo+++o+*",
"%*%%$$$$$$$$$$$$+$$$$$%%&####&&#+&=*=**=*===&@$&%&#####&$%&$%%##$+#&*&&&####%&##%*==**=*-*=&+*&&$$$##$%$%%$$$#$#@$$&*%$+##&&&##*",
"$%%$$%$$$$&&&$$$%&##$$**%$$##&&$$***===*=*=*%O%%*&%%&##%*%&%$$$%&##$%**%&##$&&$#**=*=**===*&+&&&$$$$#$%%%%$$%$%$##%%*&%$##&&&#&=",
"$$$$$$@$$$$&**&%%%$#%%%**$$#&&#%+%*********=%O#$#####$%&&%%**%%%&##&*%**%$$&$$%#***=*--**=*&+#&&$##$#%%%%%**%%%%##*****%##&%%##*",
"@@@$O@@$$&&&$***&$#@$*****%$&&#&$&*********%%+#########%*%%%%**$####*****##%$$$$%=*******&&&++++$@O#@%%%%%%%**%#@#&*****#&&#$&$*",
"%**-***-====*%%=**%%*****%&%%&$*$$$##O##$#$$$$%*%*****====**#*=**&$*****&&&%%%&####+#######+#***=***-;;-=**%****%%*****%&&&&&&##",
"$*;;;-;;;;;;-*$*****=**%%%*$##&*#OOOoXoXoooOO###*;:;-:::==;=*&**=*-***&&&%##$&&#@oooXXXoo Oo+#&::;;;;;;;=;=%%****-***%%%%$#$*&#+",
"$$-=---**----*$%%$***%*%#&%###%&$OO@+###++OooOOo#=-=*-**===;&%*$%***$*%#&*%##&&##o#O####+####+&-===*=*-====$%%%%**%%*$%%$###&%##",
"$%==****--;-;*%*%$$%%***$$#$#+#&###O$O#+%$@ooOO##*-****=;;:;%&*%#%%%***%######$##O##+O##&#&++#&*==****=;=:=$**%%%%***%%#####$#+#",
"$*------;;---%%*%*$#%%%%$$###$&&@O#O+++$+O@OOO+##-;---=;;;;*%&*%*##%%&*%##@#%&##+#O+####+#+++#&*======:;==*$*%%*$#%%%*%#@##$&#O#",
"$&:::;==;==**&&*&&$$&&%*&&$##&&##O#+########O+###*::==::-=**$%*%%&&*&%*&$##$%%############+###&=:;;;;;;--**$*&%%%%%%&*&###$&$#+#",
"$*::;;*;=-;==*#&%$$&%*****$&&**&$#+#########+OO##;:==*:*-;-=$#%%#%%*%*=*%%%**%%#++#######&#&##&;:;;*;;*--**##%%%%*&**=*#&*&*&$#+",
"#*====;;=-;;=*&*-:*::::-==&$&&&&%#+#+$########+#&===---=--==%**--=::;-=;-%#$%%%###+#+########+&:;;*;;;=-;-*$*==;=:;;--:*$$$&&%##",
"+*==;;;;*-=**&-:::::----==&oo+ooO###$++#+#+#####*==::--*=****;;;::;-;;-;=#oo@@o#+####++##+#####-;;;;--*;=***:;;;;==;--;-OXo+oo#+",
"#%;;;:;;*-*****-:::::::-::&Xoo+++#++++########@#*;;:::-*****%-;;-:--;::::# o@+##+@+##++#####&+#*;;::;-*****%=;;-:=;;;::=+Xo+#+#+",
"#=;;;;;;*-**-**---**-:::::&oo++##+#++##+O##+#$##*::;---==*****;--*-::::;:#oO@@###+#+++######&+&-;;;;-==***=*=;-=-=::::;=+oo+####",
"#$;;;=;=-*--***:--*:=::::=*+++###+#####+###O@$##*;:----=*--**-;;-=*:;:;;-&@++#@#######+#+# &&##*;;;;-==--***-;;---=;;;;;#+O+##+#",
"#$;;==;=;-*****-:-===:--==*++++##+++#+#+@###$$##*::-==----**%*--:---=;;;:&@++@#@o++##+####&&###*;;;;=----**%*;----;;;;;;&+OOO#Oo",
"O#=;;;:::=****&**--*-;;;--*@+++++o O#+###$$&%$##*---;;::;-*-***-----:----$@#++@+X ooOo++#$$&#O+*;:;;===*=****=*---;;:---#++#+#o ",
"#######+#&&&*&**---:--;---*#$$#####@$&$&&&&$%*$$*---;;:;-*****--------*--&#####&##+@#@+##$$&&###@$##$$$$$&*%**---;-:--*-&#######",
"OoooXooooo+++&&----**---==*&$#$$&###&&%*&#%$####%--:;:;;;***%*-----*-----*&$&##&&##+@#+#####&#oooooXooXo@+#%==---=*--*-**&$#$&&#",
"@@#@####Ooo+++&--:-***--=**&$$$%&&###%&&&$$$#%##%;::;;;;;-*%%*---***---**&$$&&#&#####+++++##&#+#@##$#+ooOOO#*---***----*&$$$$&&#",
"+##++###+ o+#+&;-:--*-*-***$#%$##&#$#&&&&&#%&&%#*;;=-=;--*%#*-;-;;---*--=*#$&&$$&&###+##++##&#+#+++&$+OoO++#-;;;----**-*&#$%$$$#",
"+O+####+#+O##+&:-:--*-:-==-#$*%$$$##$&%&&****&##&;=-*-*-*-%@%-;;;;-*--**=*$&&&#$###++++oX+#&*&++##+++++OO###-;-;;**-----&%&&$#$$",
"#########+++#+&&****%*%%%%&%%%%#$####**&&%&*&####%*%**%%%*%##%%%%%%%%*&%#%%&$$$###++++oooo+#&&++$+####++O+##%****%*%&***%%&$$$##",
"#########++++#&---**-****%#%%&%$$$#$***=-******%%%$%%%#%%%$%%%%%$####@####&&&$$$&###+++++OOo#*###$##$#+#OO##*=;;*-****%##&&$$$$#",
"++$++$$$+$#++#%==;=**=*=**O$$$$$$$$$&%****%*%$$%%$%%*%#**&**=*=*******%#&&%%$$$$$$$#O@O++O++&&+&+&#####+#+#%*;;;=-*=*=*##%$$$$$$",
"$$+$++++#+###$*=======*==*+$$$$$$$$$&$$$**%**$$$$$@#$#%==**===*=***=******$$$$#$$$OOOOOOooO++&&+++#++#+&###&====-*=*=*=$#%$$#$#$",
"+++++$$+###$+$*===*==**==*$$$+$#O$$$**&$$#*%*%$$@@##$#$=***=*==**********%$##%##$#O@#OOO+o++&&++##++++&####%*===*-*===*$@$#$$###",
"$+$++++#$+$$+$*====*====**+##$+$$@@$*&&%#$%%*&#$@$#%%#$=****==***********$######@$OOOOOO+O+#&*+++++&#&#+$##*=-*=-**====$########",
"+$$++$+#+O#$#$%=*====*==**##$+$#@$+$&&$$%%*%*%%$$$%%##%**%*******&&&%%$%*#########OoOooOooo+&$++##+++#++%#$%**==-=*==**%#+######",
"++++++$+$$$#+#%*===**=**=*#+$+++O++OOOO####$#%%%$$$#%%%*$$%******%%%%#######@@oO#OOoOO@@++O+&$+++#+#&##&%@@***==-*;*==*$+###@@@@",
"Xo+$#$$$%$$$#$**===**=*=**#+++OoO#$+####$##$$$***=*==**%%%$$%&&*%$$%#$#####+@o.o$*-***;;=:*$&+o+##+$&&&&$#%$***==*=**=*$#+@@oo@#",
"+$$$$*$&&$%$$$%**==*=*===*#+$+oXo&**%**=*=*&*=;;;;;;;*%%#%###%&$$$########+##o o=;;;;;;;;;=**&+&&&*&&&&&$#%%*===*=*====####@XX#=",
"$$$$&&$$$$####**=*=*==*==*++$OXXo*=;;=;:-;;;*%--===*=;###+##$$$$$$#$$###$##++o o*==*=**----*%*#%&$&&#&%####%*=*=*==**=*$O#OO.X#;",
"$+$$&*$$$$$$$@%**=*=*****&+++oXXo*======---;-$*=**&&**+O$+####$$$#$###+###+##XXo%==****;;-;-$%##&&*&$%$#&&##**=**=***=*#+OOo.X$=",
"$$$$%&&&$$$$$#$*-*****=**$++$++OO*==****--;;-$%*&&%$%%##$O#$###$###$$##$$#####++*-;-;*-;;-=*$$#$&&&&%&%%%$##%***=***=**####OOo$=",
"$+$%%%**%**$#@$$####%#$$$$$$$+$O+*==*===;;;;=#$$&&%$$###$+++#####$$#$#$####$+++#-;;;--;;--=*###%&&&*%**%%$##$#####$#$#%##$##$O$=",
"+$$***%$%**$$#######@@##+$+$+&++@-;;;==---=**#&&$$#$###$$O$$######$###$##&#&$#+&;;;--;;=-=-*$#@$***%%*%*%%##%###$#@####+$$+$O+$=",
"$&*=*==****$%%$$$%*%%$%%$$$$+&+$$;:;;=-;==-**$$&$$$#%$#$$$++####&&#&$####&#++#+&;;--=;;*--=*##%**********%%%%&%*%$#$*%#$$$++$O&:",
"$$&&****$*$$%*$##$*$$#$%&$+$&+++#=;-=---====*#$#$++$$$+O+OOO@@@#######+######++&;;;;---*=**%#$%%%%******#%%%##$%%$#$&&#$$@@$++&:",
"$$&$$&&*$**$$$$#@$$####$$$$$&&$+#*;-----*=***#&&+$&&**#XO@@#@ooOO#####$#&#&&##+&;;;;;;=***=*#$$**#%**%%**%#%###$$####$##$$$O$$*;",
"$$*&&$#%%%&&$#@#+$$$O###$#$#$+$+#=;;;;;;==***#***=;;*;=%**=;*@#####+##&$#%#$####==:==:******#%#%*%%#%%%**%###@$%$$+$$$$$$$$+$+*=",
"O%&*%%%%*%**$#@$$&$#+$#$#$$#$+$+#*:=;;;;=****%*****;;;;=*=;;*##$+######$###%#$#$=::=-------%#%#***%#%*%%%%#@##%%#+$+$+$+$++$$+*=",
"@$%$%%%%%*%%%%$$$$$$$+$#$$$$+$$+#=::=;;;*==**%**===;**=***==*#$##+#####$%######$*::=-----***$%@%%%%%%%%**%%$%%%##$+$$$$$$##$$$$=",
"%%%*%*%%%****%$##$#$$####$$#$$$$#*:;;;;;-=***%***;*****%*==**#$$#######$#%#%#$#$=:==-:::--**$*%%%%%*%%%****%#$#$$#+$+$$$$+$$$$&=",
"***==*=*====*=####@@##$#$$#$$$$O#%;;=;:::==*=%%***=****====**##########$$$#####$=;=-:::--***#***--***=*==***@##@+#$$+$$$&+$$+$$=",
"*%*=*%%*===**=#ooooo@OO@oOOOOOO##*;;;;;;;*=**#%*****%%*===*=*@oooXo+OOo+OO++O+##*;;;:-:-***%#*&*-**%**===*=%@o@ooOOOOoOOOOo+++$*",
"=***=%%**=****$$$$##%%%#$&$#$$&%$%;;=;;;;=***#***===***=*****$$$##$&$$$$$#$#$&%%*::;-:----*%#-*=-**%*==**=*%%%%#+$&$$$$$+&$&&&$*",
"**===***=***=**=;;==;;;-*;*$*&**%*;:;;;;;=-*%#*-**=**%*==*=***====*:=:=::%&**=*%-::*-----*###-**=-**%*=**=***;;-===:====$*****&*",
"=%==*%***=====*==-;;;--=;;*$*=*;**=:======*%%#**%==*%**==;==*-*=::----;;;%%***-**:=---*-**###***=**%**==:=**=*=;;--=;;;-$&*=*=**",
"*%******=*=====*;;;;==--;-***=%**=::=*====-#@@%********====---*:::-*--;;;*%**%%$###&%$#$$####**%**%***==;:====;;;-*=;;;-&******=",
"%%*******===**==---****-;--%*%*%*%%%%%*$%%*%#@%*%*******=-=%==*-*=****---*%%$#####$#########O#*&*******-=**=**==-***-;;-&*&***&%",
";=*;=**==*==%%=******---;;*******$#$%%$#%*%#@$%*=*==**=--*=%******=*--;:-=%#%$##$$#**%$$##@##*:*==*==*--**%**=*--*=*-;;-*=*****#",
";;==**====*==*===--=--*-;-*****=;***=*****%$#$%=;-=**--===***===:------;=*%##OO###%%%##$####+&:*=;**=;;=***=---*-;-=-;;-*=*=*==*",
"%=*=*#%*===*==*%*--=----;-$%%%%*==%*%*%%$$$%%*%=****$%*=*-*==**=-*------*##O#@######%#$#%####$=***%%%==*=*;=**----=-;--%#%#%**=*",
"*=**%$$#$%=**=***--***---*$#%*%*==%*%%$$###%%%*=**%$$$$$*-*==**-=****--**#%##@######%####&###&=***%##$%==*=-**-*****--*%#*%*&*=*",
"=***$$#@#*=*==**-******==%$$*****=%%%%%$$#$$%%%==*%$$@@$***==********--*&#%###@######%%###$##&:**%#$@@%*=**********--**$$*****=*",
"=***%#$#%*%*******%***==***%=***--*%**&%#####&*-***####%&*******%***--***%%#########$$######$%****###$*%*******%***==*******=---",
"==*%%%#@%===********=******%****--***$%%#####%*-***%&##**--********==******#########$$$$$$#$#*;**%%$@#**==*********=****%*****-*",
"==*%**%#%===***===*==;=;=*===*--;**%*%%*######*-*****$#*:--***-*-=--===*=**####@#######$####O&==***%#$;;==*%======;==*==**==---*",
"**$%%**%$$$$$$$&&*=**=*******=-*-*%****%%#####***%#***$%&&#$$$&**=*=**=*****&$%%##%%%$%$##O#$*=%%%**%$%%%##$$%***=*==****=**=-*%",
"=*%%%%*%$$$$#$&%&&$&*****=*****=*%%%*%***%%#$$****&%%*%$&$##$&&&&*&**********===%%*****%&$$#$*=%%%%%*$#%$@$$%%$$%************=*$",
"=***%**$$&$#####$$$$$%$$****====*%$%**%***###%****%&*%##&&###$##%$$$%*%*=**===*%#%%*%**%&$$O$=***%**%$%%$##$$#$$$$%%%****==*-*%$",
"=%%%%%*$$%$###@###$$$$#$$%%*****%*%***%*&%%%$%**%%***=%%*########$####$&*%**=**&%**-*%*%$$$O$=*&%*%=%$%%$####O#$$$###%%%***=;%%*",
"*%#$%#$$$%%###$O@$$####$$$$$****%*******#####$%%$#%##%##&&#@##+##$##$##$##&**=*&**%****#@$$#$=&$#%#$$$%*####O#$######$#$$$***%**",
"%#@##$%$#%*$#####$$#O$+$##$$++$$#*%**%$%######$&####&&#&*&$#####&$###########$#%%***&&%##$$#O&$+@#$%&#&&&$+####%##+##$####$+$$&*",
"#$OO@o+$%*%%$###$####+$$%$$++$++#*=;;;==--=*&+++#+OO@@$&*&&#$##@###+##$%$#######--:;-=--*=*$OO%+@+Oo#$***$$##########$$$##O$++&=",
"o#@OoX@#$****$$++#+#+#$+%$OO+$&$#*--;==*=**=*#OO@@ooo#$&*&*&########$##&#+O$$##$*-----*==*=*OXO#Oooo$#&**&$######O##$$&$O@$%+$$=",
"XooXo##$%**%&$$#+###$#$$%$O$$$$+$%==;=*=-*==*+ooooXo@$&&***&$########$%&#+$$####*---**=**==&OooOXXO#$&%***$$#+###$##$$&+#$$#$+$=",
"OoXXo@+$****$$$#$#$$$$+$*+++$$++#%==-=*==*;-*++ooo @@+&***&&&$#@######%%+O#$$O++*----*-====*+++o.XO@@****$$$#@+#$####%#+O$$$+$$*",
"@@OooOo#&%*%##$+OO$@+$$&$$+++$++$*=***=**--**$++@OoOOO#&*&#####@######&#$O##@$+$*-*--**===**++++@oooO$&&%#####O###+#$$##O$++++&=",
"#+OOOOo+$%$#+##$OO+$+++++++++O++@%*---*====**+++#@O+Oo#$&$#@#&#@###+###+#OOOO#@$%*==*===**=&+$++OO@Oo$$$$#O$$#O##++#+#++O+OO$+$*",
"$##OOOO+$#$%$%%%*$$$+oooO+X..XoXo$**--==**=-*#$##@O@OO###*&$%&%&&&&OXXoOo....X.O%**-==**=*=&#&$+@O@OO$$$&&$*$&&$&$ooooOo...XXX+&",
"&&&++++#%$%&$$$$$###%$@$$@OXOOOOO&====*=*===*+&$&$+++#$$$&%$$$$$##&&#@###ooo##oo&===***====&#&&&##O+#&%$%&#%&&%##&$+#### o@#Oo@*",
"&*&&#$##%%&*$$$$$$##$%%*%$@@$$$$+&*==*=*=*=**#$&&&&#$+$$&*%&$$#$###&%%*%#####%##**===*==*=*&+**&&####$$&*&&&&####$$*%&*####%%##*",
"$&&&$&$#$%&&$$$$$%##$$%*&$$$$$$$#&*=*=*=*=*=&+&**&$&&#$&&%%&$$$%%##$***%###%&&##**==*;***==#+&&*%&*$##%&&&&$#%%%##$***%###$%%#$*",
"$$#&#$$#%%$&&%%%&%$@$****%$#$$$$#&*==**=****&+#&&#$#&#$&&$&%*%%%$##&%****##%%$&#***==**=***&+#&&$####$&%$*%*&**##$&&***&#$%#$#$*",
"++$$+#+$$&$$$%**&$#O$*****$$$$$$&&*=***-=*=*&+#++$++#+#$*$$&*%*$###%*%***##&$#&$&**=*==;***&+#++##+###*&&%%%*&##+#&*****#$&$$%%*",
"&&******====*%%-**%%*****$$$$$%&&+#+++#+#$++++$&&*=***====**%*=**%%%*=**&%%%&&*#&#++++#&###+#*&*=*&&*-====%%**-*%%****%%$$%&%%##",
"$*::;=======-*%****=***%$$*$$$%*&++OooooooX+++++*=::;;;;;;==*%****==**%%&&$#$&*#++Oo o  ooo++&*=::;;--:-:-=%***=*=***%%%%##&*&#+",
"#*==========-*%%%%***$*$$%&$@#$%&++++++#+$+++&++*=====*=====%$$$%**%%*%#*%###%%#+++#++#+++++#+#=--==-*----=*&%%&**&*%%%*%$##&$#+",
"#&==****=--;;*%**$$$*&**%$$$@@$$#+++#++#$$##%%##*==****--;;=$%*$#%%*%=*%####@$$#++#++##&##$+##$*=*****-;::-%%*#$%%%**%%%####$##+",
"$*======-----*%*%&$#$%$*%$@@#$$$###+#@++O@#$%$$#*=-*--*---;=$****#$%%%%$$#@#$&$O+#+##++##+#O##%*:-----;;--*$%**&#%%%&*%####$&###",
"$&;::-=-;---*$$*%%$%%%&*%%$$$&&$#+######$@#$$$$$*:::-*::-=-*#%*%%%$%%**%$$#$$$$O#+#+##########*=:::--;;;-**%*%%$%%%%**%###&&$#+#",
"$*::=-*=-*==**@%%%$%***==%$%&*&$#++#####$$$$$$*$*:::--;--;**$#$%#%*%**=*$$$%*$$$#+#########$#O%=::-*-;-;-**##%&%%**%***%&&*&&##+",
"#*;;--;;==;==%%==;;;:;====&&$&&&&##+##+#$#$$$%%%;;;;-;;----*%*---;;;;;;==&$$$$&&@###+#########$;;--;;;----*%**---:;-==-*$&&&&&##",
"#*;;=;=-*-=***=;;;;;====:=&XoO+O++#######$$$#%%%-;;;---=-****;;;;;;;;;;;=+XoOOo#+######+#######=;;;;--*-*-**:::;:;;;:--*OXO+OO#+",
"#%;;;:;;*=*%***;;;;;:==:::&Xo+O++##++++#+#####%#*;;::;-*-**-%-;;;;;;;=;;=$XoOO+++++++#+##+###@#=;;;;;-**&***-:-;;;;;-;:=OXo++++#",
"#&:;;;=;=*=*=**-;--==:::=:&ooO+###+++##+#####$##*;;;;;-*******;;-;;;:;;==$ooO+$$##+#++#+###$##$-;;;;;--**=***----;:::::=#Xo+###+"
};
