/* XPM */
static char *wood_texture[] = {
/* columns rows colors chars-per-pixel */
"128 32 32 1 ",
"  c #6C2A14",
". c #7C3A24",
"X c #945644",
"o c #9C5A44",
"O c #A45E4C",
"+ c #A46254",
"@ c #A4624C",
"# c #9C5E4C",
"$ c #AC6A54",
"% c #AC6654",
"& c #B46E5C",
"* c #B4725C",
"= c #BC7664",
"- c #CC8674",
"; c #AC6E5C",
": c #AC725C",
"> c #C47E64",
", c #A46A54",
"< c #9C624C",
"1 c #94523C",
"2 c #8C4E3C",
"3 c #AC665C",
"4 c #844A3C",
"5 c #7C3E2C",
"6 c #000000",
"7 c #000000",
"8 c #000000",
"9 c #000000",
"0 c #000000",
"q c #000000",
"w c #000000",
"e c #000000",
/* pixels */
"                                                                          . .             .        .... .  . . .  ........   5  ",
"  2X#XooXooooooO++@oO#@@#@@+$$@Oo@$@OO@@@%$$$$@@@O@@@O%$%@@%>>->>=&========***;$;%$;&;%%$$$$$$%+@$;$:*&;;$+**=**$$&**;;*=>>>--, ",
" 4=>-=>>=>>=>>>>->>>>>>>>>>--->>>>->=>>>>>--->>>>>>->>>>->----------------->-------------->>>>===>>>==>>>>>---->==>>>>>-------< ",
"  +#+X##O3OoO+O@@%$$$+O<+@++@@%$$$$@@@@@@$&$@@$*@@$&*&$*=*=*>=;%$&@;$$%%%$@@$;**==>=>=*=***&*&$;;==$&*;***;***&;**$&*=***&&==>, ",
"  X###O#OooOo11@oo#@@@XoooO#oo%*=$$@O@%$%$&$@@$*$$$&&%O$***&&$@;=*&=$O@%++$$$$$;=*&***===**;;=*$$**;$;*=*;&,$$;;;$&&***==&&===2 ",
" .###X#Xoo#oo121Xo#@+@oo#o#O%@%$&$@%OO%&&%$%@@%&$$$*&%o$*&&%+OoO&%+&+O@+@+%,;;;&==*:&&=***&;&=*;$;;+%;***&$;&**=****=====>=>*=< ",
" .X2X2oXoO#oX12ooo#O#XXo#oo#%%$&*&%$@@$$&$&&@%$*&&&*&$O$=*$&$%O@&%%&%@O@@%+$$;**===;$,*&$;&;**;$$;$O@;*;;$+;&;*******=*=*&&&;:4 ",
"  #XXX##+Ooooo#O#@@@#oXooXooO@&=*=*$%@$$@*>=$%&=*&***$O&==*=&&@$=$&*&$@%@@%$;**=>=*$+%;$;$$;&&;;&;&@#$*$+$@%,$;;&;$$$&$$$&$===# ",
" 5<++#+@#O#oooO##@+$$%XooX1oo@&*>>=&$$$&@=>=$$*=***==&%$>==&$@O$&$&*&&$$$%+;*=====;,%$&;$$%$$;;$&:&$o;*%+&@+%+$$$$%$$$,$%%%*==X ",
" .XXX21211ooooX%%+$$+@@#@OO#&**$*=*=*&*=*=*===*&=**=>*&*>>*=*&%&=$&$&*&&*=;*====**&***&$$+%,$:&;&$;&+;**&$$*&&;;;&;&*****=*>=>, ",
" .#o#X+##11XOO%@$&*=&;O@+@+%==>=**>=*===&>=>>>=*=*=>>>*=>=>>*&@&*%>*=*&=*=*==>=*=&*==:;;%+%$;&*;$$$$$&**=&&*:;$$$$&;*****=&===X ",
" 4oo#@#OoooXo#@&%$*=*;@ooO%$*>>=&=>>>>>>*=>===*==>=>>>>=>>->====*==**%$=========*$;*;$&**&++%;$$&;&;%;***;;**&&;;;&&**=**%%&+;X ",
" 52o#OXoO#o1XoO@#%&==*+O#oOO@&>>>>>=>>>==>-->>>>>=>>>>=>===>>=***=>==&*==****=*;O+*=$@@+%%@%$&&&&&&&$;*=***=*=*===&;**===$%=+;4 ",
" 5o@+@o#111111XXXo@%$$%@#1241%*>>>->>>>>=->>>=>>>==>>=>=>===>>>*=====&*=======*&@+==$+&&&&$&;&*&*;&&%$;&;;;*******&***====&=3=4 ",
" 4oXooo+o##@+@%%$&&&****&+Oo%&=>>====**==>>=*==>>=>>>=&*=*&$*>>>*>===&*=*=====*$#O@%@$==**&&&&;&;&;;%$;$$$$%+$$$$;&;&;***===&=4 ",
"  54221Oo@+$$;$&*&&*&*&**&*=&***&&&**&&$&**&&&==&&&&*$@%&&;$&*=%$*===&&=*****$+#2Xo#<%;$$%$$$$%$%$$$$;&&;$;+%,$;$$;;+%+$$&&&3=4 ",
" X$$$&+$$+$$;$;$$$&&&&=*&&;&==>>-==*=>==&>>==>>>>>>-->=*$&***>&***&&&@%&$$%$$;$@===*;$$;&$%%%%+%%;$&@@@@##@+@%+%@#%3+%,@%@%%+,5 ",
" X@#@+%$+@+$;&$&$&&*&;%+$&&$&%@$$%@@%$$@oO@OOoO@@@%$$%$@11oOO@%%%%%@@oO@@O#O@+@+o#o#oooo@OO@%@%%$$&*;&;&$$;$;***$$3$;;;$$&&&%;5 ",
" 1o@@@o1XX1XoXoo+@#O@@oO@Oo#@%%@@&=*===*&$======%$&*==*==*%@$@@%%@@%%OO%@@o#@#o##@@#oXoooo1Xooo11o#o1oXXoo#ooo#ooXooo#@+$%O%%34 ",
" 522222211Xooo#XoooooO#o%+OO&&*&&*=**=**&*=***==*&***$$&===$$%%$$%%%$O@%@%#+%@@@O@+@@@O#O#oooOooo#@#oXoo##o##O<Ooo+#+@<@O1521<5 ",
" 5255421XXoX#o#o@+%+@+%@%&&;&&&&$%*****&$=**&&*=****&%%$=%$&*$$&&$%$&@@$@%@$$%++++%+#@%+%@OO@@O#O%%OooO+@@O+@@+@@O+%%;@ooo.42;4 ",
"5,*$$;=>****&;&+&&*&*&****==***=*&&&**&&&***&&&&$$&&&$&*%%&&*$$$$;$&$@@&$%+$;$%+@@+@oo+%%+@+%%@@%$$O#@@@+@#@%+@+@+++%++@@%OOO:X5",
"5XO@@@+@$;$;&**+$;&&$%*=*%&=%$$&&&%&&&&**$%@%$&*%$$$$%%%%%&&%$$%%$&&%oO$*%@+$+@+@++@+@OO@+@@%@@O@%%o+@@@@+%+@+@@@+%+%+@@@%@%O<45",
"5@+++%$+++%$$;&;&***&+*==*&=*===*=$&;&$$&$%%$&**$$&*&$$$&*&$%$$@%$$&$oo$&+@+$+@@$$@O@+@+%@@O@+OOO+@oO#@@+%@%@+@@+@+%+@<@O@%%O,45",
"5+@oo@+@$$$;$;$&&&*&$@&*==*&*==&&=$*&&$$$$&&**&&$&&=**==**&&$$$%@$@&$Oo%$;@+%@++++oX%$%%%@O#O%@#O@+oX#O++++$+%@+@+OO++@O#@++#355",
".,$%++@+$;$;$;*&;&==***=***&=====*&=*&$&*&$$*==**===**==***$$$@@$*$%%@@@@++@@@@+@<O#@+@@##O@%O<O@@@#XO+@O#@@@@@@@@++OO+OO%@%++5.",
" &&$$$$$;&;$;*=&&&*=*****&&;*&****;=*&$&&;$&*==**=====>===;&:$$$**&$$@%@+%@+@++@@OoO@@%+@@#@@@@#@++Oo+$;%@,+@+<@@++OOO++O#####. ",
".;;;$;,$$$;$$$&$$&**=*&&&$&$&&&&&$&**;$$;$%$*****===**&;$;$&&&:&:&:$$,$+$@+@+@+@@##o##+@@##o#@@#@@@#oo@@#oO<O<O@@#O###O##+O+##..",
".*****&;***;;*=*===>=>======>>>=**=>>=**=====>>=>->=***========>=*$$+%@+%#@+@@@<@#O#oO@+@#o#oO#O<@+oO@++@@@#o###o#%+@+++%++,++5.",
" oooXooXo#oXoo#XoOo#O##oo#oooo#o#oOO#ooooooo#o#ooOo#o#ooOoOo#####X+@#O#O#O@@O@##@@@@@@#o##O<@###O@@#oo#oooo#oo#oooXo#oooo#++#X. ",
" 22222221112221222222212121242221122112222221222221111Xo1X1XXXXoX1X1212121222211121221221211111221121X112112222212XXXXXXXX1224. ",
"                         .                      . . .......5..5.55555555555..555.555555.555555..555.5..5.................... 5  "
};
